  0
SECTION
  2
HEADER
  9
$ANGBASE
  50
0.0
  9
$ANGDIR
  70
1
  9
$MEASUREMENT
  70
0
  0
ENDSEC
  0
SECTION
  2
TABLES
  0
TABLE
  2
LTYPE
  70
4
  0
LTYPE
  5
40F
  2
CONTINUOUS
  70
0
  3
Solid line
  72
65
  73
0
  40
0.0
  0
LTYPE
  5
410
  2
DASHDOT
 70
0
  3
Dash Dot ____ _ ____ _
 72
65
 73
4
 40
2.0
 49
1.25
 49
-0.25
 49
0.25
 49
-0.25
  0
LTYPE
  5
411
  2
DASHED
 70
0
  3
Dashed __ __ __ __ __
 72
65
 73
2
 40
0.75
 49
0.5
 49
-0.25
  0
LTYPE
  5
43B
  2
DOTTED
 70
0
  3
Dotted .  .  .  .
 72
65
 73
2
 40
0.2
 49
0.0
 49
-0.2
  0
ENDTAB
  0
TABLE
  2
STYLE
  70
4
  0
STYLE
  2
KICAD
  70
0
  40
0
  41
1
  42
1
  50
0
  71
0
  3
isocp.shx
  0
STYLE
  2
KICADB
  70
0
  40
0
  41
1
  42
1
  50
0
  71
0
  3
isocp.shx
  0
STYLE
  2
KICADI
  70
0
  40
0
  41
1
  42
1
  50
15
  71
0
  3
isocp.shx
  0
STYLE
  2
KICADBI
  70
0
  40
0
  41
1
  42
1
  50
15
  71
0
  3
isocp.shx
  0
ENDTAB
  0
TABLE
  2
LAYER
  70
1
  0
LAYER
  2
BLACK
  70
0
  62
7
  6
CONTINUOUS
  0
ENDTAB
  0
ENDSEC
  0
SECTION
  2
ENTITIES
0
LINE
8
BLACK
6
CONTINUOUS
10
2.1024960629921261
20
-2.811023622047244
11
1.9765118110236219
21
-2.811023622047244
0
LINE
8
BLACK
6
CONTINUOUS
10
1.9765118110236219
20
-2.811023622047244
11
1.9765118110236219
21
-2.7401574803149606
0
LINE
8
BLACK
6
CONTINUOUS
10
1.9765118110236219
20
-2.7401574803149606
11
2.1024960629921261
21
-2.7401574803149606
0
LINE
8
BLACK
6
CONTINUOUS
10
2.1024960629921261
20
-2.7401574803149606
11
2.1024960629921261
21
-2.811023622047244
0
LINE
8
BLACK
6
CONTINUOUS
10
2.445015748031496
20
-2.811023622047244
11
2.3190314960629919
21
-2.811023622047244
0
LINE
8
BLACK
6
CONTINUOUS
10
2.3190314960629919
20
-2.811023622047244
11
2.3190314960629919
21
-2.7401574803149606
0
LINE
8
BLACK
6
CONTINUOUS
10
2.3190314960629919
20
-2.7401574803149606
11
2.445015748031496
21
-2.7401574803149606
0
LINE
8
BLACK
6
CONTINUOUS
10
2.445015748031496
20
-2.7401574803149606
11
2.445015748031496
21
-2.811023622047244
0
LINE
8
BLACK
6
CONTINUOUS
10
2.8553503937007871
20
-2.6968503937007875
11
2.7470826771653543
21
-2.6968503937007875
0
LINE
8
BLACK
6
CONTINUOUS
10
2.7470826771653543
20
-2.6968503937007875
11
2.7470826771653543
21
-2.6574803149606296
0
LINE
8
BLACK
6
CONTINUOUS
10
2.7470826771653543
20
-2.6574803149606296
11
2.8553503937007871
21
-2.6574803149606296
0
LINE
8
BLACK
6
CONTINUOUS
10
2.8553503937007871
20
-2.6574803149606296
11
2.8553503937007871
21
-2.6968503937007875
0
LINE
8
BLACK
6
CONTINUOUS
10
3.0821220472440944
20
-2.6968503937007875
11
2.9738543307086616
21
-2.6968503937007875
0
LINE
8
BLACK
6
CONTINUOUS
10
2.9738543307086616
20
-2.6968503937007875
11
2.9738543307086616
21
-2.6574803149606296
0
LINE
8
BLACK
6
CONTINUOUS
10
2.9738543307086616
20
-2.6574803149606296
11
3.0821220472440944
21
-2.6574803149606296
0
LINE
8
BLACK
6
CONTINUOUS
10
3.0821220472440944
20
-2.6574803149606296
11
3.0821220472440944
21
-2.6968503937007875
0
LINE
8
BLACK
6
CONTINUOUS
10
3.1391261417322833
20
-2.609808149606299
11
3.1419999606299212
21
-2.6117283858267717
0
LINE
8
BLACK
6
CONTINUOUS
10
3.1419999606299212
20
-2.6117283858267717
11
3.1439201968503938
21
-2.6146022047244095
0
LINE
8
BLACK
6
CONTINUOUS
10
3.1439201968503938
20
-2.6146022047244095
11
3.1445944881889765
21
-2.617992125984252
0
LINE
8
BLACK
6
CONTINUOUS
10
3.1445944881889765
20
-2.617992125984252
11
3.1445944881889765
21
-2.6357086614173229
0
LINE
8
BLACK
6
CONTINUOUS
10
3.1445944881889765
20
-2.6357086614173229
11
3.1439201968503938
21
-2.6390985826771653
0
LINE
8
BLACK
6
CONTINUOUS
10
3.1439201968503938
20
-2.6390985826771653
11
3.1419999606299212
21
-2.6419724015748032
0
LINE
8
BLACK
6
CONTINUOUS
10
3.1419999606299212
20
-2.6419724015748032
11
3.1391261417322833
21
-2.6438926377952754
0
LINE
8
BLACK
6
CONTINUOUS
10
3.1391261417322833
20
-2.6438926377952754
11
3.1357362204724408
21
-2.644566929133858
0
LINE
8
BLACK
6
CONTINUOUS
10
3.1357362204724408
20
-2.644566929133858
11
3.1160511811023621
21
-2.644566929133858
0
LINE
8
BLACK
6
CONTINUOUS
10
3.1160511811023621
20
-2.644566929133858
11
3.1126612598425196
21
-2.6438926377952754
0
LINE
8
BLACK
6
CONTINUOUS
10
3.1126612598425196
20
-2.6438926377952754
11
3.1097874409448818
21
-2.6419724015748032
0
LINE
8
BLACK
6
CONTINUOUS
10
3.1097874409448818
20
-2.6419724015748032
11
3.1078672047244096
21
-2.6390985826771653
0
LINE
8
BLACK
6
CONTINUOUS
10
3.1078672047244096
20
-2.6390985826771653
11
3.1071929133858265
21
-2.6357086614173229
0
LINE
8
BLACK
6
CONTINUOUS
10
3.1071929133858265
20
-2.6357086614173229
11
3.1071929133858265
21
-2.617992125984252
0
LINE
8
BLACK
6
CONTINUOUS
10
3.1071929133858265
20
-2.617992125984252
11
3.1078672047244096
21
-2.6146022047244095
0
LINE
8
BLACK
6
CONTINUOUS
10
3.1078672047244096
20
-2.6146022047244095
11
3.1097874409448818
21
-2.6117283858267717
0
LINE
8
BLACK
6
CONTINUOUS
10
3.1097874409448818
20
-2.6117283858267717
11
3.1126612598425196
21
-2.609808149606299
0
LINE
8
BLACK
6
CONTINUOUS
10
3.1126612598425196
20
-2.609808149606299
11
3.1160511811023621
21
-2.6091338582677164
0
LINE
8
BLACK
6
CONTINUOUS
10
3.1160511811023621
20
-2.6091338582677164
11
3.1357362204724408
21
-2.6091338582677164
0
LINE
8
BLACK
6
CONTINUOUS
10
3.1357362204724408
20
-2.6091338582677164
11
3.1391261417322833
21
-2.609808149606299
0
LINE
8
BLACK
6
CONTINUOUS
10
1.8255867322834645
20
-2.565410157480315
11
1.8275025984251969
21
-2.5666903149606299
0
LINE
8
BLACK
6
CONTINUOUS
10
1.8275025984251969
20
-2.5666903149606299
11
1.8287827559055119
21
-2.5686061811023619
0
LINE
8
BLACK
6
CONTINUOUS
10
1.8287827559055119
20
-2.5686061811023619
11
1.8292322834645669
21
-2.5708661417322833
0
LINE
8
BLACK
6
CONTINUOUS
10
1.8292322834645669
20
-2.5708661417322833
11
1.8292322834645669
21
-2.5826771653543306
0
LINE
8
BLACK
6
CONTINUOUS
10
1.8292322834645669
20
-2.5826771653543306
11
1.8287827559055119
21
-2.584937125984252
0
LINE
8
BLACK
6
CONTINUOUS
10
1.8287827559055119
20
-2.584937125984252
11
1.8275025984251969
21
-2.5868529921259844
0
LINE
8
BLACK
6
CONTINUOUS
10
1.8275025984251969
20
-2.5868529921259844
11
1.8255867322834645
21
-2.5881331496062994
0
LINE
8
BLACK
6
CONTINUOUS
10
1.8255867322834645
20
-2.5881331496062994
11
1.8233267716535433
21
-2.5885826771653542
0
LINE
8
BLACK
6
CONTINUOUS
10
1.8233267716535433
20
-2.5885826771653542
11
1.7770669291338583
21
-2.5885826771653542
0
LINE
8
BLACK
6
CONTINUOUS
10
1.7770669291338583
20
-2.5885826771653542
11
1.7748069685039369
21
-2.5881331496062994
0
LINE
8
BLACK
6
CONTINUOUS
10
1.7748069685039369
20
-2.5881331496062994
11
1.7728911023622047
21
-2.5868529921259844
0
LINE
8
BLACK
6
CONTINUOUS
10
1.7728911023622047
20
-2.5868529921259844
11
1.7716109448818897
21
-2.584937125984252
0
LINE
8
BLACK
6
CONTINUOUS
10
1.7716109448818897
20
-2.584937125984252
11
1.7711614173228345
21
-2.5826771653543306
0
LINE
8
BLACK
6
CONTINUOUS
10
1.7711614173228345
20
-2.5826771653543306
11
1.7711614173228345
21
-2.5708661417322833
0
LINE
8
BLACK
6
CONTINUOUS
10
1.7711614173228345
20
-2.5708661417322833
11
1.7716109448818897
21
-2.5686061811023619
0
LINE
8
BLACK
6
CONTINUOUS
10
1.7716109448818897
20
-2.5686061811023619
11
1.7728911023622047
21
-2.5666903149606299
0
LINE
8
BLACK
6
CONTINUOUS
10
1.7728911023622047
20
-2.5666903149606299
11
1.7748069685039369
21
-2.565410157480315
0
LINE
8
BLACK
6
CONTINUOUS
10
1.7748069685039369
20
-2.565410157480315
11
1.7770669291338583
21
-2.5649606299212597
0
LINE
8
BLACK
6
CONTINUOUS
10
1.7770669291338583
20
-2.5649606299212597
11
1.8233267716535433
21
-2.5649606299212597
0
LINE
8
BLACK
6
CONTINUOUS
10
1.8233267716535433
20
-2.5649606299212597
11
1.8255867322834645
21
-2.565410157480315
0
LINE
8
BLACK
6
CONTINUOUS
10
3.1391261417322833
20
-2.548784527559055
11
3.1419999606299212
21
-2.5507047637795277
0
LINE
8
BLACK
6
CONTINUOUS
10
3.1419999606299212
20
-2.5507047637795277
11
3.1439201968503938
21
-2.5535785826771651
0
LINE
8
BLACK
6
CONTINUOUS
10
3.1439201968503938
20
-2.5535785826771651
11
3.1445944881889765
21
-2.556968503937008
0
LINE
8
BLACK
6
CONTINUOUS
10
3.1445944881889765
20
-2.556968503937008
11
3.1445944881889765
21
-2.5746850393700789
0
LINE
8
BLACK
6
CONTINUOUS
10
3.1445944881889765
20
-2.5746850393700789
11
3.1439201968503938
21
-2.5780749606299214
0
LINE
8
BLACK
6
CONTINUOUS
10
3.1439201968503938
20
-2.5780749606299214
11
3.1419999606299212
21
-2.5809487795275592
0
LINE
8
BLACK
6
CONTINUOUS
10
3.1419999606299212
20
-2.5809487795275592
11
3.1391261417322833
21
-2.5828690157480314
0
LINE
8
BLACK
6
CONTINUOUS
10
3.1391261417322833
20
-2.5828690157480314
11
3.1357362204724408
21
-2.5835433070866141
0
LINE
8
BLACK
6
CONTINUOUS
10
3.1357362204724408
20
-2.5835433070866141
11
3.1160511811023621
21
-2.5835433070866141
0
LINE
8
BLACK
6
CONTINUOUS
10
3.1160511811023621
20
-2.5835433070866141
11
3.1126612598425196
21
-2.5828690157480314
0
LINE
8
BLACK
6
CONTINUOUS
10
3.1126612598425196
20
-2.5828690157480314
11
3.1097874409448818
21
-2.5809487795275592
0
LINE
8
BLACK
6
CONTINUOUS
10
3.1097874409448818
20
-2.5809487795275592
11
3.1078672047244096
21
-2.5780749606299214
0
LINE
8
BLACK
6
CONTINUOUS
10
3.1078672047244096
20
-2.5780749606299214
11
3.1071929133858265
21
-2.5746850393700789
0
LINE
8
BLACK
6
CONTINUOUS
10
3.1071929133858265
20
-2.5746850393700789
11
3.1071929133858265
21
-2.556968503937008
0
LINE
8
BLACK
6
CONTINUOUS
10
3.1071929133858265
20
-2.556968503937008
11
3.1078672047244096
21
-2.5535785826771651
0
LINE
8
BLACK
6
CONTINUOUS
10
3.1078672047244096
20
-2.5535785826771651
11
3.1097874409448818
21
-2.5507047637795277
0
LINE
8
BLACK
6
CONTINUOUS
10
3.1097874409448818
20
-2.5507047637795277
11
3.1126612598425196
21
-2.548784527559055
0
LINE
8
BLACK
6
CONTINUOUS
10
3.1126612598425196
20
-2.548784527559055
11
3.1160511811023621
21
-2.5481102362204724
0
LINE
8
BLACK
6
CONTINUOUS
10
3.1160511811023621
20
-2.5481102362204724
11
3.1357362204724408
21
-2.5481102362204724
0
LINE
8
BLACK
6
CONTINUOUS
10
3.1357362204724408
20
-2.5481102362204724
11
3.1391261417322833
21
-2.548784527559055
0
LINE
8
BLACK
6
CONTINUOUS
10
1.8994056299212598
20
-2.5280085826771654
11
1.9013214960629921
21
-2.5292887401574804
0
LINE
8
BLACK
6
CONTINUOUS
10
1.9013214960629921
20
-2.5292887401574804
11
1.902601653543307
21
-2.5312046062992124
0
LINE
8
BLACK
6
CONTINUOUS
10
1.902601653543307
20
-2.5312046062992124
11
1.9030511811023623
21
-2.5334645669291338
0
LINE
8
BLACK
6
CONTINUOUS
10
1.9030511811023623
20
-2.5334645669291338
11
1.9030511811023623
21
-2.545275590551181
0
LINE
8
BLACK
6
CONTINUOUS
10
1.9030511811023623
20
-2.545275590551181
11
1.902601653543307
21
-2.5475355511811024
0
LINE
8
BLACK
6
CONTINUOUS
10
1.902601653543307
20
-2.5475355511811024
11
1.9013214960629921
21
-2.5494514173228344
0
LINE
8
BLACK
6
CONTINUOUS
10
1.9013214960629921
20
-2.5494514173228344
11
1.8994056299212598
21
-2.5507315748031494
0
LINE
8
BLACK
6
CONTINUOUS
10
1.8994056299212598
20
-2.5507315748031494
11
1.8971456692913384
21
-2.5511811023622046
0
LINE
8
BLACK
6
CONTINUOUS
10
1.8971456692913384
20
-2.5511811023622046
11
1.8508858267716535
21
-2.5511811023622046
0
LINE
8
BLACK
6
CONTINUOUS
10
1.8508858267716535
20
-2.5511811023622046
11
1.8486258661417323
21
-2.5507315748031494
0
LINE
8
BLACK
6
CONTINUOUS
10
1.8486258661417323
20
-2.5507315748031494
11
1.8467099999999999
21
-2.5494514173228344
0
LINE
8
BLACK
6
CONTINUOUS
10
1.8467099999999999
20
-2.5494514173228344
11
1.8454298425196849
21
-2.5475355511811024
0
LINE
8
BLACK
6
CONTINUOUS
10
1.8454298425196849
20
-2.5475355511811024
11
1.8449803149606299
21
-2.545275590551181
0
LINE
8
BLACK
6
CONTINUOUS
10
1.8449803149606299
20
-2.545275590551181
11
1.8449803149606299
21
-2.5334645669291338
0
LINE
8
BLACK
6
CONTINUOUS
10
1.8449803149606299
20
-2.5334645669291338
11
1.8454298425196849
21
-2.5312046062992124
0
LINE
8
BLACK
6
CONTINUOUS
10
1.8454298425196849
20
-2.5312046062992124
11
1.8467099999999999
21
-2.5292887401574804
0
LINE
8
BLACK
6
CONTINUOUS
10
1.8467099999999999
20
-2.5292887401574804
11
1.8486258661417323
21
-2.5280085826771654
0
LINE
8
BLACK
6
CONTINUOUS
10
1.8486258661417323
20
-2.5280085826771654
11
1.8508858267716535
21
-2.5275590551181102
0
LINE
8
BLACK
6
CONTINUOUS
10
1.8508858267716535
20
-2.5275590551181102
11
1.8971456692913384
21
-2.5275590551181102
0
LINE
8
BLACK
6
CONTINUOUS
10
1.8971456692913384
20
-2.5275590551181102
11
1.8994056299212598
21
-2.5280085826771654
0
LINE
8
BLACK
6
CONTINUOUS
10
2.8553503937007871
20
-2.5393700787401574
11
2.7470826771653543
21
-2.5393700787401574
0
LINE
8
BLACK
6
CONTINUOUS
10
2.7470826771653543
20
-2.5393700787401574
11
2.7470826771653543
21
-2.5
0
LINE
8
BLACK
6
CONTINUOUS
10
2.7470826771653543
20
-2.5
11
2.8553503937007871
21
-2.5
0
LINE
8
BLACK
6
CONTINUOUS
10
2.8553503937007871
20
-2.5
11
2.8553503937007871
21
-2.5393700787401574
0
LINE
8
BLACK
6
CONTINUOUS
10
3.0821220472440944
20
-2.5393700787401574
11
2.9738543307086616
21
-2.5393700787401574
0
LINE
8
BLACK
6
CONTINUOUS
10
2.9738543307086616
20
-2.5393700787401574
11
2.9738543307086616
21
-2.5
0
LINE
8
BLACK
6
CONTINUOUS
10
2.9738543307086616
20
-2.5
11
3.0821220472440944
21
-2.5
0
LINE
8
BLACK
6
CONTINUOUS
10
3.0821220472440944
20
-2.5
11
3.0821220472440944
21
-2.5393700787401574
0
LINE
8
BLACK
6
CONTINUOUS
10
1.8255867322834645
20
-2.4906070078740159
11
1.8275025984251969
21
-2.4918871653543309
0
LINE
8
BLACK
6
CONTINUOUS
10
1.8275025984251969
20
-2.4918871653543309
11
1.8287827559055119
21
-2.4938030314960629
0
LINE
8
BLACK
6
CONTINUOUS
10
1.8287827559055119
20
-2.4938030314960629
11
1.8292322834645669
21
-2.4960629921259843
0
LINE
8
BLACK
6
CONTINUOUS
10
1.8292322834645669
20
-2.4960629921259843
11
1.8292322834645669
21
-2.5078740157480315
0
LINE
8
BLACK
6
CONTINUOUS
10
1.8292322834645669
20
-2.5078740157480315
11
1.8287827559055119
21
-2.5101339763779529
0
LINE
8
BLACK
6
CONTINUOUS
10
1.8287827559055119
20
-2.5101339763779529
11
1.8275025984251969
21
-2.5120498425196849
0
LINE
8
BLACK
6
CONTINUOUS
10
1.8275025984251969
20
-2.5120498425196849
11
1.8255867322834645
21
-2.5133299999999998
0
LINE
8
BLACK
6
CONTINUOUS
10
1.8255867322834645
20
-2.5133299999999998
11
1.8233267716535433
21
-2.5137795275590551
0
LINE
8
BLACK
6
CONTINUOUS
10
1.8233267716535433
20
-2.5137795275590551
11
1.7770669291338583
21
-2.5137795275590551
0
LINE
8
BLACK
6
CONTINUOUS
10
1.7770669291338583
20
-2.5137795275590551
11
1.7748069685039369
21
-2.5133299999999998
0
LINE
8
BLACK
6
CONTINUOUS
10
1.7748069685039369
20
-2.5133299999999998
11
1.7728911023622047
21
-2.5120498425196849
0
LINE
8
BLACK
6
CONTINUOUS
10
1.7728911023622047
20
-2.5120498425196849
11
1.7716109448818897
21
-2.5101339763779529
0
LINE
8
BLACK
6
CONTINUOUS
10
1.7716109448818897
20
-2.5101339763779529
11
1.7711614173228345
21
-2.5078740157480315
0
LINE
8
BLACK
6
CONTINUOUS
10
1.7711614173228345
20
-2.5078740157480315
11
1.7711614173228345
21
-2.4960629921259843
0
LINE
8
BLACK
6
CONTINUOUS
10
1.7711614173228345
20
-2.4960629921259843
11
1.7716109448818897
21
-2.4938030314960629
0
LINE
8
BLACK
6
CONTINUOUS
10
1.7716109448818897
20
-2.4938030314960629
11
1.7728911023622047
21
-2.4918871653543309
0
LINE
8
BLACK
6
CONTINUOUS
10
1.7728911023622047
20
-2.4918871653543309
11
1.7748069685039369
21
-2.4906070078740159
0
LINE
8
BLACK
6
CONTINUOUS
10
1.7748069685039369
20
-2.4906070078740159
11
1.7770669291338583
21
-2.4901574803149606
0
LINE
8
BLACK
6
CONTINUOUS
10
1.7770669291338583
20
-2.4901574803149606
11
1.8233267716535433
21
-2.4901574803149606
0
LINE
8
BLACK
6
CONTINUOUS
10
1.8233267716535433
20
-2.4901574803149606
11
1.8255867322834645
21
-2.4906070078740159
0
LINE
8
BLACK
6
CONTINUOUS
10
1.7372652362204724
20
-2.4031584251968505
11
1.7398197244094489
21
-2.4048653149606301
0
LINE
8
BLACK
6
CONTINUOUS
10
1.7398197244094489
20
-2.4048653149606301
11
1.7415266141732284
21
-2.4074198031496064
0
LINE
8
BLACK
6
CONTINUOUS
10
1.7415266141732284
20
-2.4074198031496064
11
1.7421259842519685
21
-2.4104330708661417
0
LINE
8
BLACK
6
CONTINUOUS
10
1.7421259842519685
20
-2.4104330708661417
11
1.7421259842519685
21
-2.4320866141732282
0
LINE
8
BLACK
6
CONTINUOUS
10
1.7421259842519685
20
-2.4320866141732282
11
1.7415266141732284
21
-2.4350998818897636
0
LINE
8
BLACK
6
CONTINUOUS
10
1.7415266141732284
20
-2.4350998818897636
11
1.7398197244094489
21
-2.4376543700787403
0
LINE
8
BLACK
6
CONTINUOUS
10
1.7398197244094489
20
-2.4376543700787403
11
1.7372652362204724
21
-2.4393612598425198
0
LINE
8
BLACK
6
CONTINUOUS
10
1.7372652362204724
20
-2.4393612598425198
11
1.734251968503937
21
-2.4399606299212597
0
LINE
8
BLACK
6
CONTINUOUS
10
1.734251968503937
20
-2.4399606299212597
11
1.7185039370078741
21
-2.4399606299212597
0
LINE
8
BLACK
6
CONTINUOUS
10
1.7185039370078741
20
-2.4399606299212597
11
1.7154906692913385
21
-2.4393612598425198
0
LINE
8
BLACK
6
CONTINUOUS
10
1.7154906692913385
20
-2.4393612598425198
11
1.7129361811023622
21
-2.4376543700787403
0
LINE
8
BLACK
6
CONTINUOUS
10
1.7129361811023622
20
-2.4376543700787403
11
1.7112292913385827
21
-2.4350998818897636
0
LINE
8
BLACK
6
CONTINUOUS
10
1.7112292913385827
20
-2.4350998818897636
11
1.7106299212598426
21
-2.4320866141732282
0
LINE
8
BLACK
6
CONTINUOUS
10
1.7106299212598426
20
-2.4320866141732282
11
1.7106299212598426
21
-2.4104330708661417
0
LINE
8
BLACK
6
CONTINUOUS
10
1.7106299212598426
20
-2.4104330708661417
11
1.7112292913385827
21
-2.4074198031496064
0
LINE
8
BLACK
6
CONTINUOUS
10
1.7112292913385827
20
-2.4074198031496064
11
1.7129361811023622
21
-2.4048653149606301
0
LINE
8
BLACK
6
CONTINUOUS
10
1.7129361811023622
20
-2.4048653149606301
11
1.7154906692913385
21
-2.4031584251968505
0
LINE
8
BLACK
6
CONTINUOUS
10
1.7154906692913385
20
-2.4031584251968505
11
1.7185039370078741
21
-2.4025590551181102
0
LINE
8
BLACK
6
CONTINUOUS
10
1.7185039370078741
20
-2.4025590551181102
11
1.734251968503937
21
-2.4025590551181102
0
LINE
8
BLACK
6
CONTINUOUS
10
1.734251968503937
20
-2.4025590551181102
11
1.7372652362204724
21
-2.4031584251968505
0
LINE
8
BLACK
6
CONTINUOUS
10
1.8022258661417323
20
-2.4031584251968505
11
1.8047803543307086
21
-2.4048653149606301
0
LINE
8
BLACK
6
CONTINUOUS
10
1.8047803543307086
20
-2.4048653149606301
11
1.8064872440944881
21
-2.4074198031496064
0
LINE
8
BLACK
6
CONTINUOUS
10
1.8064872440944881
20
-2.4074198031496064
11
1.8070866141732282
21
-2.4104330708661417
0
LINE
8
BLACK
6
CONTINUOUS
10
1.8070866141732282
20
-2.4104330708661417
11
1.8070866141732282
21
-2.4320866141732282
0
LINE
8
BLACK
6
CONTINUOUS
10
1.8070866141732282
20
-2.4320866141732282
11
1.8064872440944881
21
-2.4350998818897636
0
LINE
8
BLACK
6
CONTINUOUS
10
1.8064872440944881
20
-2.4350998818897636
11
1.8047803543307086
21
-2.4376543700787403
0
LINE
8
BLACK
6
CONTINUOUS
10
1.8047803543307086
20
-2.4376543700787403
11
1.8022258661417323
21
-2.4393612598425198
0
LINE
8
BLACK
6
CONTINUOUS
10
1.8022258661417323
20
-2.4393612598425198
11
1.7992125984251968
21
-2.4399606299212597
0
LINE
8
BLACK
6
CONTINUOUS
10
1.7992125984251968
20
-2.4399606299212597
11
1.7834645669291338
21
-2.4399606299212597
0
LINE
8
BLACK
6
CONTINUOUS
10
1.7834645669291338
20
-2.4399606299212597
11
1.7804512992125985
21
-2.4393612598425198
0
LINE
8
BLACK
6
CONTINUOUS
10
1.7804512992125985
20
-2.4393612598425198
11
1.777896811023622
21
-2.4376543700787403
0
LINE
8
BLACK
6
CONTINUOUS
10
1.777896811023622
20
-2.4376543700787403
11
1.7761899212598424
21
-2.4350998818897636
0
LINE
8
BLACK
6
CONTINUOUS
10
1.7761899212598424
20
-2.4350998818897636
11
1.7755905511811023
21
-2.4320866141732282
0
LINE
8
BLACK
6
CONTINUOUS
10
1.7755905511811023
20
-2.4320866141732282
11
1.7755905511811023
21
-2.4104330708661417
0
LINE
8
BLACK
6
CONTINUOUS
10
1.7755905511811023
20
-2.4104330708661417
11
1.7761899212598424
21
-2.4074198031496064
0
LINE
8
BLACK
6
CONTINUOUS
10
1.7761899212598424
20
-2.4074198031496064
11
1.777896811023622
21
-2.4048653149606301
0
LINE
8
BLACK
6
CONTINUOUS
10
1.777896811023622
20
-2.4048653149606301
11
1.7804512992125985
21
-2.4031584251968505
0
LINE
8
BLACK
6
CONTINUOUS
10
1.7804512992125985
20
-2.4031584251968505
11
1.7834645669291338
21
-2.4025590551181102
0
LINE
8
BLACK
6
CONTINUOUS
10
1.7834645669291338
20
-2.4025590551181102
11
1.7992125984251968
21
-2.4025590551181102
0
LINE
8
BLACK
6
CONTINUOUS
10
1.7992125984251968
20
-2.4025590551181102
11
1.8022258661417323
21
-2.4031584251968505
0
LINE
8
BLACK
6
CONTINUOUS
10
2.7263006692913385
20
-2.3802371653543308
11
2.7288551574803148
21
-2.3819440551181104
0
LINE
8
BLACK
6
CONTINUOUS
10
2.7288551574803148
20
-2.3819440551181104
11
2.7305620472440943
21
-2.3844985433070867
0
LINE
8
BLACK
6
CONTINUOUS
10
2.7305620472440943
20
-2.3844985433070867
11
2.7311614173228347
21
-2.387511811023622
0
LINE
8
BLACK
6
CONTINUOUS
10
2.7311614173228347
20
-2.387511811023622
11
2.7311614173228347
21
-2.4091653543307086
0
LINE
8
BLACK
6
CONTINUOUS
10
2.7311614173228347
20
-2.4091653543307086
11
2.7305620472440943
21
-2.4121786220472439
0
LINE
8
BLACK
6
CONTINUOUS
10
2.7305620472440943
20
-2.4121786220472439
11
2.7288551574803148
21
-2.4147331102362206
0
LINE
8
BLACK
6
CONTINUOUS
10
2.7288551574803148
20
-2.4147331102362206
11
2.7263006692913385
21
-2.4164400000000001
0
LINE
8
BLACK
6
CONTINUOUS
10
2.7263006692913385
20
-2.4164400000000001
11
2.7232874015748032
21
-2.41703937007874
0
LINE
8
BLACK
6
CONTINUOUS
10
2.7232874015748032
20
-2.41703937007874
11
2.7075393700787402
21
-2.41703937007874
0
LINE
8
BLACK
6
CONTINUOUS
10
2.7075393700787402
20
-2.41703937007874
11
2.7045261023622045
21
-2.4164400000000001
0
LINE
8
BLACK
6
CONTINUOUS
10
2.7045261023622045
20
-2.4164400000000001
11
2.7019716141732282
21
-2.4147331102362206
0
LINE
8
BLACK
6
CONTINUOUS
10
2.7019716141732282
20
-2.4147331102362206
11
2.7002647244094486
21
-2.4121786220472439
0
LINE
8
BLACK
6
CONTINUOUS
10
2.7002647244094486
20
-2.4121786220472439
11
2.6996653543307088
21
-2.4091653543307086
0
LINE
8
BLACK
6
CONTINUOUS
10
2.6996653543307088
20
-2.4091653543307086
11
2.6996653543307088
21
-2.387511811023622
0
LINE
8
BLACK
6
CONTINUOUS
10
2.6996653543307088
20
-2.387511811023622
11
2.7002647244094486
21
-2.3844985433070867
0
LINE
8
BLACK
6
CONTINUOUS
10
2.7002647244094486
20
-2.3844985433070867
11
2.7019716141732282
21
-2.3819440551181104
0
LINE
8
BLACK
6
CONTINUOUS
10
2.7019716141732282
20
-2.3819440551181104
11
2.7045261023622045
21
-2.3802371653543308
0
LINE
8
BLACK
6
CONTINUOUS
10
2.7045261023622045
20
-2.3802371653543308
11
2.7075393700787402
21
-2.3796377952755905
0
LINE
8
BLACK
6
CONTINUOUS
10
2.7075393700787402
20
-2.3796377952755905
11
2.7232874015748032
21
-2.3796377952755905
0
LINE
8
BLACK
6
CONTINUOUS
10
2.7232874015748032
20
-2.3796377952755905
11
2.7263006692913385
21
-2.3802371653543308
0
LINE
8
BLACK
6
CONTINUOUS
10
2.7912612992125982
20
-2.3802371653543308
11
2.7938157874015745
21
-2.3819440551181104
0
LINE
8
BLACK
6
CONTINUOUS
10
2.7938157874015745
20
-2.3819440551181104
11
2.7955226771653541
21
-2.3844985433070867
0
LINE
8
BLACK
6
CONTINUOUS
10
2.7955226771653541
20
-2.3844985433070867
11
2.7961220472440944
21
-2.387511811023622
0
LINE
8
BLACK
6
CONTINUOUS
10
2.7961220472440944
20
-2.387511811023622
11
2.7961220472440944
21
-2.4091653543307086
0
LINE
8
BLACK
6
CONTINUOUS
10
2.7961220472440944
20
-2.4091653543307086
11
2.7955226771653541
21
-2.4121786220472439
0
LINE
8
BLACK
6
CONTINUOUS
10
2.7955226771653541
20
-2.4121786220472439
11
2.7938157874015745
21
-2.4147331102362206
0
LINE
8
BLACK
6
CONTINUOUS
10
2.7938157874015745
20
-2.4147331102362206
11
2.7912612992125982
21
-2.4164400000000001
0
LINE
8
BLACK
6
CONTINUOUS
10
2.7912612992125982
20
-2.4164400000000001
11
2.7882480314960629
21
-2.41703937007874
0
LINE
8
BLACK
6
CONTINUOUS
10
2.7882480314960629
20
-2.41703937007874
11
2.7725
21
-2.41703937007874
0
LINE
8
BLACK
6
CONTINUOUS
10
2.7725
20
-2.41703937007874
11
2.7694867322834646
21
-2.4164400000000001
0
LINE
8
BLACK
6
CONTINUOUS
10
2.7694867322834646
20
-2.4164400000000001
11
2.7669322440944883
21
-2.4147331102362206
0
LINE
8
BLACK
6
CONTINUOUS
10
2.7669322440944883
20
-2.4147331102362206
11
2.7652253543307088
21
-2.4121786220472439
0
LINE
8
BLACK
6
CONTINUOUS
10
2.7652253543307088
20
-2.4121786220472439
11
2.7646259842519685
21
-2.4091653543307086
0
LINE
8
BLACK
6
CONTINUOUS
10
2.7646259842519685
20
-2.4091653543307086
11
2.7646259842519685
21
-2.387511811023622
0
LINE
8
BLACK
6
CONTINUOUS
10
2.7646259842519685
20
-2.387511811023622
11
2.7652253543307088
21
-2.3844985433070867
0
LINE
8
BLACK
6
CONTINUOUS
10
2.7652253543307088
20
-2.3844985433070867
11
2.7669322440944883
21
-2.3819440551181104
0
LINE
8
BLACK
6
CONTINUOUS
10
2.7669322440944883
20
-2.3819440551181104
11
2.7694867322834646
21
-2.3802371653543308
0
LINE
8
BLACK
6
CONTINUOUS
10
2.7694867322834646
20
-2.3802371653543308
11
2.7725
21
-2.3796377952755905
0
LINE
8
BLACK
6
CONTINUOUS
10
2.7725
20
-2.3796377952755905
11
2.7882480314960629
21
-2.3796377952755905
0
LINE
8
BLACK
6
CONTINUOUS
10
2.7882480314960629
20
-2.3796377952755905
11
2.7912612992125982
21
-2.3802371653543308
0
LINE
8
BLACK
6
CONTINUOUS
10
1.9128387401574802
20
-2.3746900393700785
11
1.9157125590551181
21
-2.3766102755905512
0
LINE
8
BLACK
6
CONTINUOUS
10
1.9157125590551181
20
-2.3766102755905512
11
1.9176327952755905
21
-2.379484094488189
0
LINE
8
BLACK
6
CONTINUOUS
10
1.9176327952755905
20
-2.379484094488189
11
1.9183070866141732
21
-2.3828740157480315
0
LINE
8
BLACK
6
CONTINUOUS
10
1.9183070866141732
20
-2.3828740157480315
11
1.9183070866141732
21
-2.4005905511811023
0
LINE
8
BLACK
6
CONTINUOUS
10
1.9183070866141732
20
-2.4005905511811023
11
1.9176327952755905
21
-2.4039804724409448
0
LINE
8
BLACK
6
CONTINUOUS
10
1.9176327952755905
20
-2.4039804724409448
11
1.9157125590551181
21
-2.4068542913385826
0
LINE
8
BLACK
6
CONTINUOUS
10
1.9157125590551181
20
-2.4068542913385826
11
1.9128387401574802
21
-2.4087745275590549
0
LINE
8
BLACK
6
CONTINUOUS
10
1.9128387401574802
20
-2.4087745275590549
11
1.9094488188976377
21
-2.409448818897638
0
LINE
8
BLACK
6
CONTINUOUS
10
1.9094488188976377
20
-2.409448818897638
11
1.889763779527559
21
-2.409448818897638
0
LINE
8
BLACK
6
CONTINUOUS
10
1.889763779527559
20
-2.409448818897638
11
1.8863738582677165
21
-2.4087745275590549
0
LINE
8
BLACK
6
CONTINUOUS
10
1.8863738582677165
20
-2.4087745275590549
11
1.8835000393700787
21
-2.4068542913385826
0
LINE
8
BLACK
6
CONTINUOUS
10
1.8835000393700787
20
-2.4068542913385826
11
1.8815798031496063
21
-2.4039804724409448
0
LINE
8
BLACK
6
CONTINUOUS
10
1.8815798031496063
20
-2.4039804724409448
11
1.8809055118110236
21
-2.4005905511811023
0
LINE
8
BLACK
6
CONTINUOUS
10
1.8809055118110236
20
-2.4005905511811023
11
1.8809055118110236
21
-2.3828740157480315
0
LINE
8
BLACK
6
CONTINUOUS
10
1.8809055118110236
20
-2.3828740157480315
11
1.8815798031496063
21
-2.379484094488189
0
LINE
8
BLACK
6
CONTINUOUS
10
1.8815798031496063
20
-2.379484094488189
11
1.8835000393700787
21
-2.3766102755905512
0
LINE
8
BLACK
6
CONTINUOUS
10
1.8835000393700787
20
-2.3766102755905512
11
1.8863738582677165
21
-2.3746900393700785
0
LINE
8
BLACK
6
CONTINUOUS
10
1.8863738582677165
20
-2.3746900393700785
11
1.889763779527559
21
-2.3740157480314958
0
LINE
8
BLACK
6
CONTINUOUS
10
1.889763779527559
20
-2.3740157480314958
11
1.9094488188976377
21
-2.3740157480314958
0
LINE
8
BLACK
6
CONTINUOUS
10
1.9094488188976377
20
-2.3740157480314958
11
1.9128387401574802
21
-2.3746900393700785
0
LINE
8
BLACK
6
CONTINUOUS
10
2.1024960629921261
20
-2.3622047244094486
11
1.9765118110236219
21
-2.3622047244094486
0
LINE
8
BLACK
6
CONTINUOUS
10
1.9765118110236219
20
-2.3622047244094486
11
1.9765118110236219
21
-2.2913385826771653
0
LINE
8
BLACK
6
CONTINUOUS
10
1.9765118110236219
20
-2.2913385826771653
11
2.1024960629921261
21
-2.2913385826771653
0
LINE
8
BLACK
6
CONTINUOUS
10
2.1024960629921261
20
-2.2913385826771653
11
2.1024960629921261
21
-2.3622047244094486
0
LINE
8
BLACK
6
CONTINUOUS
10
2.445015748031496
20
-2.3622047244094486
11
2.3190314960629919
21
-2.3622047244094486
0
LINE
8
BLACK
6
CONTINUOUS
10
2.3190314960629919
20
-2.3622047244094486
11
2.3190314960629919
21
-2.2913385826771653
0
LINE
8
BLACK
6
CONTINUOUS
10
2.3190314960629919
20
-2.2913385826771653
11
2.445015748031496
21
-2.2913385826771653
0
LINE
8
BLACK
6
CONTINUOUS
10
2.445015748031496
20
-2.2913385826771653
11
2.445015748031496
21
-2.3622047244094486
0
LINE
8
BLACK
6
CONTINUOUS
10
1.9128387401574802
20
-2.3136664173228345
11
1.9157125590551181
21
-2.3155866535433072
0
LINE
8
BLACK
6
CONTINUOUS
10
1.9157125590551181
20
-2.3155866535433072
11
1.9176327952755905
21
-2.318460472440945
0
LINE
8
BLACK
6
CONTINUOUS
10
1.9176327952755905
20
-2.318460472440945
11
1.9183070866141732
21
-2.3218503937007875
0
LINE
8
BLACK
6
CONTINUOUS
10
1.9183070866141732
20
-2.3218503937007875
11
1.9183070866141732
21
-2.3395669291338583
0
LINE
8
BLACK
6
CONTINUOUS
10
1.9183070866141732
20
-2.3395669291338583
11
1.9176327952755905
21
-2.3429568503937008
0
LINE
8
BLACK
6
CONTINUOUS
10
1.9176327952755905
20
-2.3429568503937008
11
1.9157125590551181
21
-2.3458306692913387
0
LINE
8
BLACK
6
CONTINUOUS
10
1.9157125590551181
20
-2.3458306692913387
11
1.9128387401574802
21
-2.3477509055118109
0
LINE
8
BLACK
6
CONTINUOUS
10
1.9128387401574802
20
-2.3477509055118109
11
1.9094488188976377
21
-2.3484251968503935
0
LINE
8
BLACK
6
CONTINUOUS
10
1.9094488188976377
20
-2.3484251968503935
11
1.889763779527559
21
-2.3484251968503935
0
LINE
8
BLACK
6
CONTINUOUS
10
1.889763779527559
20
-2.3484251968503935
11
1.8863738582677165
21
-2.3477509055118109
0
LINE
8
BLACK
6
CONTINUOUS
10
1.8863738582677165
20
-2.3477509055118109
11
1.8835000393700787
21
-2.3458306692913387
0
LINE
8
BLACK
6
CONTINUOUS
10
1.8835000393700787
20
-2.3458306692913387
11
1.8815798031496063
21
-2.3429568503937008
0
LINE
8
BLACK
6
CONTINUOUS
10
1.8815798031496063
20
-2.3429568503937008
11
1.8809055118110236
21
-2.3395669291338583
0
LINE
8
BLACK
6
CONTINUOUS
10
1.8809055118110236
20
-2.3395669291338583
11
1.8809055118110236
21
-2.3218503937007875
0
LINE
8
BLACK
6
CONTINUOUS
10
1.8809055118110236
20
-2.3218503937007875
11
1.8815798031496063
21
-2.318460472440945
0
LINE
8
BLACK
6
CONTINUOUS
10
1.8815798031496063
20
-2.318460472440945
11
1.8835000393700787
21
-2.3155866535433072
0
LINE
8
BLACK
6
CONTINUOUS
10
1.8835000393700787
20
-2.3155866535433072
11
1.8863738582677165
21
-2.3136664173228345
0
LINE
8
BLACK
6
CONTINUOUS
10
1.8863738582677165
20
-2.3136664173228345
11
1.889763779527559
21
-2.3129921259842519
0
LINE
8
BLACK
6
CONTINUOUS
10
1.889763779527559
20
-2.3129921259842519
11
1.9094488188976377
21
-2.3129921259842519
0
LINE
8
BLACK
6
CONTINUOUS
10
1.9094488188976377
20
-2.3129921259842519
11
1.9128387401574802
21
-2.3136664173228345
0
LINE
8
BLACK
6
CONTINUOUS
10
3.6398400393700787
20
-2.0283316535433071
11
3.642394527559055
21
-2.0300385433070867
0
LINE
8
BLACK
6
CONTINUOUS
10
3.642394527559055
20
-2.0300385433070867
11
3.6441014173228345
21
-2.032593031496063
0
LINE
8
BLACK
6
CONTINUOUS
10
3.6441014173228345
20
-2.032593031496063
11
3.6447007874015749
21
-2.0356062992125983
0
LINE
8
BLACK
6
CONTINUOUS
10
3.6447007874015749
20
-2.0356062992125983
11
3.6447007874015749
21
-2.0513543307086612
0
LINE
8
BLACK
6
CONTINUOUS
10
3.6447007874015749
20
-2.0513543307086612
11
3.6441014173228345
21
-2.054367598425197
0
LINE
8
BLACK
6
CONTINUOUS
10
3.6441014173228345
20
-2.054367598425197
11
3.642394527559055
21
-2.0569220866141733
0
LINE
8
BLACK
6
CONTINUOUS
10
3.642394527559055
20
-2.0569220866141733
11
3.6398400393700787
21
-2.0586289763779528
0
LINE
8
BLACK
6
CONTINUOUS
10
3.6398400393700787
20
-2.0586289763779528
11
3.6368267716535434
21
-2.0592283464566927
0
LINE
8
BLACK
6
CONTINUOUS
10
3.6368267716535434
20
-2.0592283464566927
11
3.6151732283464568
21
-2.0592283464566927
0
LINE
8
BLACK
6
CONTINUOUS
10
3.6151732283464568
20
-2.0592283464566927
11
3.6121599606299211
21
-2.0586289763779528
0
LINE
8
BLACK
6
CONTINUOUS
10
3.6121599606299211
20
-2.0586289763779528
11
3.6096054724409448
21
-2.0569220866141733
0
LINE
8
BLACK
6
CONTINUOUS
10
3.6096054724409448
20
-2.0569220866141733
11
3.6078985826771652
21
-2.054367598425197
0
LINE
8
BLACK
6
CONTINUOUS
10
3.6078985826771652
20
-2.054367598425197
11
3.6072992125984249
21
-2.0513543307086612
0
LINE
8
BLACK
6
CONTINUOUS
10
3.6072992125984249
20
-2.0513543307086612
11
3.6072992125984249
21
-2.0356062992125983
0
LINE
8
BLACK
6
CONTINUOUS
10
3.6072992125984249
20
-2.0356062992125983
11
3.6078985826771652
21
-2.032593031496063
0
LINE
8
BLACK
6
CONTINUOUS
10
3.6078985826771652
20
-2.032593031496063
11
3.6096054724409448
21
-2.0300385433070867
0
LINE
8
BLACK
6
CONTINUOUS
10
3.6096054724409448
20
-2.0300385433070867
11
3.6121599606299211
21
-2.0283316535433071
0
LINE
8
BLACK
6
CONTINUOUS
10
3.6121599606299211
20
-2.0283316535433071
11
3.6151732283464568
21
-2.0277322834645668
0
LINE
8
BLACK
6
CONTINUOUS
10
3.6151732283464568
20
-2.0277322834645668
11
3.6368267716535434
21
-2.0277322834645668
0
LINE
8
BLACK
6
CONTINUOUS
10
3.6368267716535434
20
-2.0277322834645668
11
3.6398400393700787
21
-2.0283316535433071
0
LINE
8
BLACK
6
CONTINUOUS
10
3.709232440944882
20
-2.0244695669291337
11
3.7121062598425194
21
-2.0263898031496064
0
LINE
8
BLACK
6
CONTINUOUS
10
3.7121062598425194
20
-2.0263898031496064
11
3.7140264960629921
21
-2.0292636220472442
0
LINE
8
BLACK
6
CONTINUOUS
10
3.7140264960629921
20
-2.0292636220472442
11
3.7147007874015747
21
-2.0326535433070867
0
LINE
8
BLACK
6
CONTINUOUS
10
3.7147007874015747
20
-2.0326535433070867
11
3.7147007874015747
21
-2.0503700787401575
0
LINE
8
BLACK
6
CONTINUOUS
10
3.7147007874015747
20
-2.0503700787401575
11
3.7140264960629921
21
-2.05376
0
LINE
8
BLACK
6
CONTINUOUS
10
3.7140264960629921
20
-2.05376
11
3.7121062598425194
21
-2.0566338188976379
0
LINE
8
BLACK
6
CONTINUOUS
10
3.7121062598425194
20
-2.0566338188976379
11
3.709232440944882
21
-2.0585540551181101
0
LINE
8
BLACK
6
CONTINUOUS
10
3.709232440944882
20
-2.0585540551181101
11
3.7058425196850391
21
-2.0592283464566927
0
LINE
8
BLACK
6
CONTINUOUS
10
3.7058425196850391
20
-2.0592283464566927
11
3.6861574803149604
21
-2.0592283464566927
0
LINE
8
BLACK
6
CONTINUOUS
10
3.6861574803149604
20
-2.0592283464566927
11
3.6827675590551179
21
-2.0585540551181101
0
LINE
8
BLACK
6
CONTINUOUS
10
3.6827675590551179
20
-2.0585540551181101
11
3.6798937401574801
21
-2.0566338188976379
0
LINE
8
BLACK
6
CONTINUOUS
10
3.6798937401574801
20
-2.0566338188976379
11
3.6779735039370078
21
-2.05376
0
LINE
8
BLACK
6
CONTINUOUS
10
3.6779735039370078
20
-2.05376
11
3.6772992125984252
21
-2.0503700787401575
0
LINE
8
BLACK
6
CONTINUOUS
10
3.6772992125984252
20
-2.0503700787401575
11
3.6772992125984252
21
-2.0326535433070867
0
LINE
8
BLACK
6
CONTINUOUS
10
3.6772992125984252
20
-2.0326535433070867
11
3.6779735039370078
21
-2.0292636220472442
0
LINE
8
BLACK
6
CONTINUOUS
10
3.6779735039370078
20
-2.0292636220472442
11
3.6798937401574801
21
-2.0263898031496064
0
LINE
8
BLACK
6
CONTINUOUS
10
3.6798937401574801
20
-2.0263898031496064
11
3.6827675590551179
21
-2.0244695669291337
0
LINE
8
BLACK
6
CONTINUOUS
10
3.6827675590551179
20
-2.0244695669291337
11
3.6861574803149604
21
-2.0237952755905511
0
LINE
8
BLACK
6
CONTINUOUS
10
3.6861574803149604
20
-2.0237952755905511
11
3.7058425196850391
21
-2.0237952755905511
0
LINE
8
BLACK
6
CONTINUOUS
10
3.7058425196850391
20
-2.0237952755905511
11
3.709232440944882
21
-2.0244695669291337
0
LINE
8
BLACK
6
CONTINUOUS
10
3.8932324409448817
20
-2.0229498818897635
11
3.8961062598425196
21
-2.0248701181102362
0
LINE
8
BLACK
6
CONTINUOUS
10
3.8961062598425196
20
-2.0248701181102362
11
3.8980264960629922
21
-2.027743937007874
0
LINE
8
BLACK
6
CONTINUOUS
10
3.8980264960629922
20
-2.027743937007874
11
3.8987007874015749
21
-2.0311338582677165
0
LINE
8
BLACK
6
CONTINUOUS
10
3.8987007874015749
20
-2.0311338582677165
11
3.8987007874015749
21
-2.0488503937007874
0
LINE
8
BLACK
6
CONTINUOUS
10
3.8987007874015749
20
-2.0488503937007874
11
3.8980264960629922
21
-2.0522403149606299
0
LINE
8
BLACK
6
CONTINUOUS
10
3.8980264960629922
20
-2.0522403149606299
11
3.8961062598425196
21
-2.0551141338582677
0
LINE
8
BLACK
6
CONTINUOUS
10
3.8961062598425196
20
-2.0551141338582677
11
3.8932324409448817
21
-2.0570343700787399
0
LINE
8
BLACK
6
CONTINUOUS
10
3.8932324409448817
20
-2.0570343700787399
11
3.8898425196850392
21
-2.057708661417323
0
LINE
8
BLACK
6
CONTINUOUS
10
3.8898425196850392
20
-2.057708661417323
11
3.8701574803149605
21
-2.057708661417323
0
LINE
8
BLACK
6
CONTINUOUS
10
3.8701574803149605
20
-2.057708661417323
11
3.866767559055118
21
-2.0570343700787399
0
LINE
8
BLACK
6
CONTINUOUS
10
3.866767559055118
20
-2.0570343700787399
11
3.8638937401574802
21
-2.0551141338582677
0
LINE
8
BLACK
6
CONTINUOUS
10
3.8638937401574802
20
-2.0551141338582677
11
3.861973503937008
21
-2.0522403149606299
0
LINE
8
BLACK
6
CONTINUOUS
10
3.861973503937008
20
-2.0522403149606299
11
3.8612992125984249
21
-2.0488503937007874
0
LINE
8
BLACK
6
CONTINUOUS
10
3.8612992125984249
20
-2.0488503937007874
11
3.8612992125984249
21
-2.0311338582677165
0
LINE
8
BLACK
6
CONTINUOUS
10
3.8612992125984249
20
-2.0311338582677165
11
3.861973503937008
21
-2.027743937007874
0
LINE
8
BLACK
6
CONTINUOUS
10
3.861973503937008
20
-2.027743937007874
11
3.8638937401574802
21
-2.0248701181102362
0
LINE
8
BLACK
6
CONTINUOUS
10
3.8638937401574802
20
-2.0248701181102362
11
3.866767559055118
21
-2.0229498818897635
0
LINE
8
BLACK
6
CONTINUOUS
10
3.866767559055118
20
-2.0229498818897635
11
3.8701574803149605
21
-2.0222755905511809
0
LINE
8
BLACK
6
CONTINUOUS
10
3.8701574803149605
20
-2.0222755905511809
11
3.8898425196850392
21
-2.0222755905511809
0
LINE
8
BLACK
6
CONTINUOUS
10
3.8898425196850392
20
-2.0222755905511809
11
3.8932324409448817
21
-2.0229498818897635
0
LINE
8
BLACK
6
CONTINUOUS
10
3.9548400393700787
20
-2.026811968503937
11
3.957394527559055
21
-2.0285188582677165
0
LINE
8
BLACK
6
CONTINUOUS
10
3.957394527559055
20
-2.0285188582677165
11
3.9591014173228345
21
-2.0310733464566928
0
LINE
8
BLACK
6
CONTINUOUS
10
3.9591014173228345
20
-2.0310733464566928
11
3.9597007874015748
21
-2.0340866141732281
0
LINE
8
BLACK
6
CONTINUOUS
10
3.9597007874015748
20
-2.0340866141732281
11
3.9597007874015748
21
-2.0498346456692911
0
LINE
8
BLACK
6
CONTINUOUS
10
3.9597007874015748
20
-2.0498346456692911
11
3.9591014173228345
21
-2.0528479133858268
0
LINE
8
BLACK
6
CONTINUOUS
10
3.9591014173228345
20
-2.0528479133858268
11
3.957394527559055
21
-2.0554024015748031
0
LINE
8
BLACK
6
CONTINUOUS
10
3.957394527559055
20
-2.0554024015748031
11
3.9548400393700787
21
-2.0571092913385827
0
LINE
8
BLACK
6
CONTINUOUS
10
3.9548400393700787
20
-2.0571092913385827
11
3.9518267716535433
21
-2.057708661417323
0
LINE
8
BLACK
6
CONTINUOUS
10
3.9518267716535433
20
-2.057708661417323
11
3.9301732283464568
21
-2.057708661417323
0
LINE
8
BLACK
6
CONTINUOUS
10
3.9301732283464568
20
-2.057708661417323
11
3.927159960629921
21
-2.0571092913385827
0
LINE
8
BLACK
6
CONTINUOUS
10
3.927159960629921
20
-2.0571092913385827
11
3.9246054724409447
21
-2.0554024015748031
0
LINE
8
BLACK
6
CONTINUOUS
10
3.9246054724409447
20
-2.0554024015748031
11
3.9228985826771652
21
-2.0528479133858268
0
LINE
8
BLACK
6
CONTINUOUS
10
3.9228985826771652
20
-2.0528479133858268
11
3.9222992125984253
21
-2.0498346456692911
0
LINE
8
BLACK
6
CONTINUOUS
10
3.9222992125984253
20
-2.0498346456692911
11
3.9222992125984253
21
-2.0340866141732281
0
LINE
8
BLACK
6
CONTINUOUS
10
3.9222992125984253
20
-2.0340866141732281
11
3.9228985826771652
21
-2.0310733464566928
0
LINE
8
BLACK
6
CONTINUOUS
10
3.9228985826771652
20
-2.0310733464566928
11
3.9246054724409447
21
-2.0285188582677165
0
LINE
8
BLACK
6
CONTINUOUS
10
3.9246054724409447
20
-2.0285188582677165
11
3.927159960629921
21
-2.026811968503937
0
LINE
8
BLACK
6
CONTINUOUS
10
3.927159960629921
20
-2.026811968503937
11
3.9301732283464568
21
-2.0262125984251966
0
LINE
8
BLACK
6
CONTINUOUS
10
3.9301732283464568
20
-2.0262125984251966
11
3.9518267716535433
21
-2.0262125984251966
0
LINE
8
BLACK
6
CONTINUOUS
10
3.9518267716535433
20
-2.0262125984251966
11
3.9548400393700787
21
-2.026811968503937
0
LINE
8
BLACK
6
CONTINUOUS
10
2.7591497244094487
20
-1.9902133070866141
11
2.7610655905511812
21
-1.9914934645669291
0
LINE
8
BLACK
6
CONTINUOUS
10
2.7610655905511812
20
-1.9914934645669291
11
2.7623457480314961
21
-1.9934093307086613
0
LINE
8
BLACK
6
CONTINUOUS
10
2.7623457480314961
20
-1.9934093307086613
11
2.7627952755905509
21
-1.9956692913385827
0
LINE
8
BLACK
6
CONTINUOUS
10
2.7627952755905509
20
-1.9956692913385827
11
2.7627952755905509
21
-2.0074803149606297
0
LINE
8
BLACK
6
CONTINUOUS
10
2.7627952755905509
20
-2.0074803149606297
11
2.7623457480314961
21
-2.0097402755905511
0
LINE
8
BLACK
6
CONTINUOUS
10
2.7623457480314961
20
-2.0097402755905511
11
2.7610655905511812
21
-2.0116561417322836
0
LINE
8
BLACK
6
CONTINUOUS
10
2.7610655905511812
20
-2.0116561417322836
11
2.7591497244094487
21
-2.0129362992125985
0
LINE
8
BLACK
6
CONTINUOUS
10
2.7591497244094487
20
-2.0129362992125985
11
2.7568897637795273
21
-2.0133858267716533
0
LINE
8
BLACK
6
CONTINUOUS
10
2.7568897637795273
20
-2.0133858267716533
11
2.6919291338582676
21
-2.0133858267716533
0
LINE
8
BLACK
6
CONTINUOUS
10
2.6919291338582676
20
-2.0133858267716533
11
2.6896691732283462
21
-2.0129362992125985
0
LINE
8
BLACK
6
CONTINUOUS
10
2.6896691732283462
20
-2.0129362992125985
11
2.6877533070866142
21
-2.0116561417322836
0
LINE
8
BLACK
6
CONTINUOUS
10
2.6877533070866142
20
-2.0116561417322836
11
2.6864731496062992
21
-2.0097402755905511
0
LINE
8
BLACK
6
CONTINUOUS
10
2.6864731496062992
20
-2.0097402755905511
11
2.686023622047244
21
-2.0074803149606297
0
LINE
8
BLACK
6
CONTINUOUS
10
2.686023622047244
20
-2.0074803149606297
11
2.686023622047244
21
-1.9956692913385827
0
LINE
8
BLACK
6
CONTINUOUS
10
2.686023622047244
20
-1.9956692913385827
11
2.6864731496062992
21
-1.9934093307086613
0
LINE
8
BLACK
6
CONTINUOUS
10
2.6864731496062992
20
-1.9934093307086613
11
2.6877533070866142
21
-1.9914934645669291
0
LINE
8
BLACK
6
CONTINUOUS
10
2.6877533070866142
20
-1.9914934645669291
11
2.6896691732283462
21
-1.9902133070866141
0
LINE
8
BLACK
6
CONTINUOUS
10
2.6896691732283462
20
-1.9902133070866141
11
2.6919291338582676
21
-1.9897637795275591
0
LINE
8
BLACK
6
CONTINUOUS
10
2.6919291338582676
20
-1.9897637795275591
11
2.7568897637795273
21
-1.9897637795275591
0
LINE
8
BLACK
6
CONTINUOUS
10
2.7568897637795273
20
-1.9897637795275591
11
2.7591497244094487
21
-1.9902133070866141
0
LINE
8
BLACK
6
CONTINUOUS
10
2.9540316141732283
20
-1.9902133070866141
11
2.9559474803149604
21
-1.9914934645669291
0
LINE
8
BLACK
6
CONTINUOUS
10
2.9559474803149604
20
-1.9914934645669291
11
2.9572276377952753
21
-1.9934093307086613
0
LINE
8
BLACK
6
CONTINUOUS
10
2.9572276377952753
20
-1.9934093307086613
11
2.9576771653543306
21
-1.9956692913385827
0
LINE
8
BLACK
6
CONTINUOUS
10
2.9576771653543306
20
-1.9956692913385827
11
2.9576771653543306
21
-2.0074803149606297
0
LINE
8
BLACK
6
CONTINUOUS
10
2.9576771653543306
20
-2.0074803149606297
11
2.9572276377952753
21
-2.0097402755905511
0
LINE
8
BLACK
6
CONTINUOUS
10
2.9572276377952753
20
-2.0097402755905511
11
2.9559474803149604
21
-2.0116561417322836
0
LINE
8
BLACK
6
CONTINUOUS
10
2.9559474803149604
20
-2.0116561417322836
11
2.9540316141732283
21
-2.0129362992125985
0
LINE
8
BLACK
6
CONTINUOUS
10
2.9540316141732283
20
-2.0129362992125985
11
2.951771653543307
21
-2.0133858267716533
0
LINE
8
BLACK
6
CONTINUOUS
10
2.951771653543307
20
-2.0133858267716533
11
2.8868110236220472
21
-2.0133858267716533
0
LINE
8
BLACK
6
CONTINUOUS
10
2.8868110236220472
20
-2.0133858267716533
11
2.8845510629921258
21
-2.0129362992125985
0
LINE
8
BLACK
6
CONTINUOUS
10
2.8845510629921258
20
-2.0129362992125985
11
2.8826351968503938
21
-2.0116561417322836
0
LINE
8
BLACK
6
CONTINUOUS
10
2.8826351968503938
20
-2.0116561417322836
11
2.8813550393700789
21
-2.0097402755905511
0
LINE
8
BLACK
6
CONTINUOUS
10
2.8813550393700789
20
-2.0097402755905511
11
2.8809055118110236
21
-2.0074803149606297
0
LINE
8
BLACK
6
CONTINUOUS
10
2.8809055118110236
20
-2.0074803149606297
11
2.8809055118110236
21
-1.9956692913385827
0
LINE
8
BLACK
6
CONTINUOUS
10
2.8809055118110236
20
-1.9956692913385827
11
2.8813550393700789
21
-1.9934093307086613
0
LINE
8
BLACK
6
CONTINUOUS
10
2.8813550393700789
20
-1.9934093307086613
11
2.8826351968503938
21
-1.9914934645669291
0
LINE
8
BLACK
6
CONTINUOUS
10
2.8826351968503938
20
-1.9914934645669291
11
2.8845510629921258
21
-1.9902133070866141
0
LINE
8
BLACK
6
CONTINUOUS
10
2.8845510629921258
20
-1.9902133070866141
11
2.8868110236220472
21
-1.9897637795275591
0
LINE
8
BLACK
6
CONTINUOUS
10
2.8868110236220472
20
-1.9897637795275591
11
2.951771653543307
21
-1.9897637795275591
0
LINE
8
BLACK
6
CONTINUOUS
10
2.951771653543307
20
-1.9897637795275591
11
2.9540316141732283
21
-1.9902133070866141
0
LINE
8
BLACK
6
CONTINUOUS
10
3.709232440944882
20
-1.9634459448818897
11
3.7121062598425194
21
-1.9653661811023622
0
LINE
8
BLACK
6
CONTINUOUS
10
3.7121062598425194
20
-1.9653661811023622
11
3.7140264960629921
21
-1.96824
0
LINE
8
BLACK
6
CONTINUOUS
10
3.7140264960629921
20
-1.96824
11
3.7147007874015747
21
-1.9716299212598425
0
LINE
8
BLACK
6
CONTINUOUS
10
3.7147007874015747
20
-1.9716299212598425
11
3.7147007874015747
21
-1.9893464566929133
0
LINE
8
BLACK
6
CONTINUOUS
10
3.7147007874015747
20
-1.9893464566929133
11
3.7140264960629921
21
-1.9927363779527558
0
LINE
8
BLACK
6
CONTINUOUS
10
3.7140264960629921
20
-1.9927363779527558
11
3.7121062598425194
21
-1.9956101968503936
0
LINE
8
BLACK
6
CONTINUOUS
10
3.7121062598425194
20
-1.9956101968503936
11
3.709232440944882
21
-1.9975304330708661
0
LINE
8
BLACK
6
CONTINUOUS
10
3.709232440944882
20
-1.9975304330708661
11
3.7058425196850391
21
-1.9982047244094487
0
LINE
8
BLACK
6
CONTINUOUS
10
3.7058425196850391
20
-1.9982047244094487
11
3.6861574803149604
21
-1.9982047244094487
0
LINE
8
BLACK
6
CONTINUOUS
10
3.6861574803149604
20
-1.9982047244094487
11
3.6827675590551179
21
-1.9975304330708661
0
LINE
8
BLACK
6
CONTINUOUS
10
3.6827675590551179
20
-1.9975304330708661
11
3.6798937401574801
21
-1.9956101968503936
0
LINE
8
BLACK
6
CONTINUOUS
10
3.6798937401574801
20
-1.9956101968503936
11
3.6779735039370078
21
-1.9927363779527558
0
LINE
8
BLACK
6
CONTINUOUS
10
3.6779735039370078
20
-1.9927363779527558
11
3.6772992125984252
21
-1.9893464566929133
0
LINE
8
BLACK
6
CONTINUOUS
10
3.6772992125984252
20
-1.9893464566929133
11
3.6772992125984252
21
-1.9716299212598425
0
LINE
8
BLACK
6
CONTINUOUS
10
3.6772992125984252
20
-1.9716299212598425
11
3.6779735039370078
21
-1.96824
0
LINE
8
BLACK
6
CONTINUOUS
10
3.6779735039370078
20
-1.96824
11
3.6798937401574801
21
-1.9653661811023622
0
LINE
8
BLACK
6
CONTINUOUS
10
3.6798937401574801
20
-1.9653661811023622
11
3.6827675590551179
21
-1.9634459448818897
0
LINE
8
BLACK
6
CONTINUOUS
10
3.6827675590551179
20
-1.9634459448818897
11
3.6861574803149604
21
-1.9627716535433071
0
LINE
8
BLACK
6
CONTINUOUS
10
3.6861574803149604
20
-1.9627716535433071
11
3.7058425196850391
21
-1.9627716535433071
0
LINE
8
BLACK
6
CONTINUOUS
10
3.7058425196850391
20
-1.9627716535433071
11
3.709232440944882
21
-1.9634459448818897
0
LINE
8
BLACK
6
CONTINUOUS
10
3.8932324409448817
20
-1.9619262598425196
11
3.8961062598425196
21
-1.963846496062992
0
LINE
8
BLACK
6
CONTINUOUS
10
3.8961062598425196
20
-1.963846496062992
11
3.8980264960629922
21
-1.9667203149606298
0
LINE
8
BLACK
6
CONTINUOUS
10
3.8980264960629922
20
-1.9667203149606298
11
3.8987007874015749
21
-1.9701102362204723
0
LINE
8
BLACK
6
CONTINUOUS
10
3.8987007874015749
20
-1.9701102362204723
11
3.8987007874015749
21
-1.9878267716535432
0
LINE
8
BLACK
6
CONTINUOUS
10
3.8987007874015749
20
-1.9878267716535432
11
3.8980264960629922
21
-1.9912166929133859
0
LINE
8
BLACK
6
CONTINUOUS
10
3.8980264960629922
20
-1.9912166929133859
11
3.8961062598425196
21
-1.9940905118110235
0
LINE
8
BLACK
6
CONTINUOUS
10
3.8961062598425196
20
-1.9940905118110235
11
3.8932324409448817
21
-1.9960107480314959
0
LINE
8
BLACK
6
CONTINUOUS
10
3.8932324409448817
20
-1.9960107480314959
11
3.8898425196850392
21
-1.9966850393700788
0
LINE
8
BLACK
6
CONTINUOUS
10
3.8898425196850392
20
-1.9966850393700788
11
3.8701574803149605
21
-1.9966850393700788
0
LINE
8
BLACK
6
CONTINUOUS
10
3.8701574803149605
20
-1.9966850393700788
11
3.866767559055118
21
-1.9960107480314959
0
LINE
8
BLACK
6
CONTINUOUS
10
3.866767559055118
20
-1.9960107480314959
11
3.8638937401574802
21
-1.9940905118110235
0
LINE
8
BLACK
6
CONTINUOUS
10
3.8638937401574802
20
-1.9940905118110235
11
3.861973503937008
21
-1.9912166929133859
0
LINE
8
BLACK
6
CONTINUOUS
10
3.861973503937008
20
-1.9912166929133859
11
3.8612992125984249
21
-1.9878267716535432
0
LINE
8
BLACK
6
CONTINUOUS
10
3.8612992125984249
20
-1.9878267716535432
11
3.8612992125984249
21
-1.9701102362204723
0
LINE
8
BLACK
6
CONTINUOUS
10
3.8612992125984249
20
-1.9701102362204723
11
3.861973503937008
21
-1.9667203149606298
0
LINE
8
BLACK
6
CONTINUOUS
10
3.861973503937008
20
-1.9667203149606298
11
3.8638937401574802
21
-1.963846496062992
0
LINE
8
BLACK
6
CONTINUOUS
10
3.8638937401574802
20
-1.963846496062992
11
3.866767559055118
21
-1.9619262598425196
0
LINE
8
BLACK
6
CONTINUOUS
10
3.866767559055118
20
-1.9619262598425196
11
3.8701574803149605
21
-1.9612519685039369
0
LINE
8
BLACK
6
CONTINUOUS
10
3.8701574803149605
20
-1.9612519685039369
11
3.8898425196850392
21
-1.9612519685039369
0
LINE
8
BLACK
6
CONTINUOUS
10
3.8898425196850392
20
-1.9612519685039369
11
3.8932324409448817
21
-1.9619262598425196
0
LINE
8
BLACK
6
CONTINUOUS
10
3.6398400393700787
20
-1.9633710236220472
11
3.642394527559055
21
-1.9650779133858267
0
LINE
8
BLACK
6
CONTINUOUS
10
3.642394527559055
20
-1.9650779133858267
11
3.6441014173228345
21
-1.967632401574803
0
LINE
8
BLACK
6
CONTINUOUS
10
3.6441014173228345
20
-1.967632401574803
11
3.6447007874015749
21
-1.9706456692913386
0
LINE
8
BLACK
6
CONTINUOUS
10
3.6447007874015749
20
-1.9706456692913386
11
3.6447007874015749
21
-1.9863937007874015
0
LINE
8
BLACK
6
CONTINUOUS
10
3.6447007874015749
20
-1.9863937007874015
11
3.6441014173228345
21
-1.9894069685039371
0
LINE
8
BLACK
6
CONTINUOUS
10
3.6441014173228345
20
-1.9894069685039371
11
3.642394527559055
21
-1.9919614566929134
0
LINE
8
BLACK
6
CONTINUOUS
10
3.642394527559055
20
-1.9919614566929134
11
3.6398400393700787
21
-1.9936683464566929
0
LINE
8
BLACK
6
CONTINUOUS
10
3.6398400393700787
20
-1.9936683464566929
11
3.6368267716535434
21
-1.994267716535433
0
LINE
8
BLACK
6
CONTINUOUS
10
3.6368267716535434
20
-1.994267716535433
11
3.6151732283464568
21
-1.994267716535433
0
LINE
8
BLACK
6
CONTINUOUS
10
3.6151732283464568
20
-1.994267716535433
11
3.6121599606299211
21
-1.9936683464566929
0
LINE
8
BLACK
6
CONTINUOUS
10
3.6121599606299211
20
-1.9936683464566929
11
3.6096054724409448
21
-1.9919614566929134
0
LINE
8
BLACK
6
CONTINUOUS
10
3.6096054724409448
20
-1.9919614566929134
11
3.6078985826771652
21
-1.9894069685039371
0
LINE
8
BLACK
6
CONTINUOUS
10
3.6078985826771652
20
-1.9894069685039371
11
3.6072992125984249
21
-1.9863937007874015
0
LINE
8
BLACK
6
CONTINUOUS
10
3.6072992125984249
20
-1.9863937007874015
11
3.6072992125984249
21
-1.9706456692913386
0
LINE
8
BLACK
6
CONTINUOUS
10
3.6072992125984249
20
-1.9706456692913386
11
3.6078985826771652
21
-1.967632401574803
0
LINE
8
BLACK
6
CONTINUOUS
10
3.6078985826771652
20
-1.967632401574803
11
3.6096054724409448
21
-1.9650779133858267
0
LINE
8
BLACK
6
CONTINUOUS
10
3.6096054724409448
20
-1.9650779133858267
11
3.6121599606299211
21
-1.9633710236220472
0
LINE
8
BLACK
6
CONTINUOUS
10
3.6121599606299211
20
-1.9633710236220472
11
3.6151732283464568
21
-1.9627716535433071
0
LINE
8
BLACK
6
CONTINUOUS
10
3.6151732283464568
20
-1.9627716535433071
11
3.6368267716535434
21
-1.9627716535433071
0
LINE
8
BLACK
6
CONTINUOUS
10
3.6368267716535434
20
-1.9627716535433071
11
3.6398400393700787
21
-1.9633710236220472
0
LINE
8
BLACK
6
CONTINUOUS
10
3.9548400393700787
20
-1.961851338582677
11
3.957394527559055
21
-1.9635582283464565
0
LINE
8
BLACK
6
CONTINUOUS
10
3.957394527559055
20
-1.9635582283464565
11
3.9591014173228345
21
-1.9661127165354331
0
LINE
8
BLACK
6
CONTINUOUS
10
3.9591014173228345
20
-1.9661127165354331
11
3.9597007874015748
21
-1.9691259842519684
0
LINE
8
BLACK
6
CONTINUOUS
10
3.9597007874015748
20
-1.9691259842519684
11
3.9597007874015748
21
-1.9848740157480314
0
LINE
8
BLACK
6
CONTINUOUS
10
3.9597007874015748
20
-1.9848740157480314
11
3.9591014173228345
21
-1.9878872834645669
0
LINE
8
BLACK
6
CONTINUOUS
10
3.9591014173228345
20
-1.9878872834645669
11
3.957394527559055
21
-1.9904417716535432
0
LINE
8
BLACK
6
CONTINUOUS
10
3.957394527559055
20
-1.9904417716535432
11
3.9548400393700787
21
-1.9921486614173227
0
LINE
8
BLACK
6
CONTINUOUS
10
3.9548400393700787
20
-1.9921486614173227
11
3.9518267716535433
21
-1.9927480314960631
0
LINE
8
BLACK
6
CONTINUOUS
10
3.9518267716535433
20
-1.9927480314960631
11
3.9301732283464568
21
-1.9927480314960631
0
LINE
8
BLACK
6
CONTINUOUS
10
3.9301732283464568
20
-1.9927480314960631
11
3.927159960629921
21
-1.9921486614173227
0
LINE
8
BLACK
6
CONTINUOUS
10
3.927159960629921
20
-1.9921486614173227
11
3.9246054724409447
21
-1.9904417716535432
0
LINE
8
BLACK
6
CONTINUOUS
10
3.9246054724409447
20
-1.9904417716535432
11
3.9228985826771652
21
-1.9878872834645669
0
LINE
8
BLACK
6
CONTINUOUS
10
3.9228985826771652
20
-1.9878872834645669
11
3.9222992125984253
21
-1.9848740157480314
0
LINE
8
BLACK
6
CONTINUOUS
10
3.9222992125984253
20
-1.9848740157480314
11
3.9222992125984253
21
-1.9691259842519684
0
LINE
8
BLACK
6
CONTINUOUS
10
3.9222992125984253
20
-1.9691259842519684
11
3.9228985826771652
21
-1.9661127165354331
0
LINE
8
BLACK
6
CONTINUOUS
10
3.9228985826771652
20
-1.9661127165354331
11
3.9246054724409447
21
-1.9635582283464565
0
LINE
8
BLACK
6
CONTINUOUS
10
3.9246054724409447
20
-1.9635582283464565
11
3.927159960629921
21
-1.961851338582677
0
LINE
8
BLACK
6
CONTINUOUS
10
3.927159960629921
20
-1.961851338582677
11
3.9301732283464568
21
-1.9612519685039369
0
LINE
8
BLACK
6
CONTINUOUS
10
3.9301732283464568
20
-1.9612519685039369
11
3.9518267716535433
21
-1.9612519685039369
0
LINE
8
BLACK
6
CONTINUOUS
10
3.9518267716535433
20
-1.9612519685039369
11
3.9548400393700787
21
-1.961851338582677
0
LINE
8
BLACK
6
CONTINUOUS
10
3.0217140551181103
20
-1.9346544881889762
11
3.0242685433070866
21
-1.9363613779527558
0
LINE
8
BLACK
6
CONTINUOUS
10
3.0242685433070866
20
-1.9363613779527558
11
3.0259754330708661
21
-1.9389158661417323
0
LINE
8
BLACK
6
CONTINUOUS
10
3.0259754330708661
20
-1.9389158661417323
11
3.026574803149606
21
-1.9419291338582676
0
LINE
8
BLACK
6
CONTINUOUS
10
3.026574803149606
20
-1.9419291338582676
11
3.026574803149606
21
-1.9576771653543306
0
LINE
8
BLACK
6
CONTINUOUS
10
3.026574803149606
20
-1.9576771653543306
11
3.0259754330708661
21
-1.9606904330708661
0
LINE
8
BLACK
6
CONTINUOUS
10
3.0259754330708661
20
-1.9606904330708661
11
3.0242685433070866
21
-1.9632449212598424
0
LINE
8
BLACK
6
CONTINUOUS
10
3.0242685433070866
20
-1.9632449212598424
11
3.0217140551181103
21
-1.9649518110236219
0
LINE
8
BLACK
6
CONTINUOUS
10
3.0217140551181103
20
-1.9649518110236219
11
3.0187007874015745
21
-1.9655511811023623
0
LINE
8
BLACK
6
CONTINUOUS
10
3.0187007874015745
20
-1.9655511811023623
11
2.997047244094488
21
-1.9655511811023623
0
LINE
8
BLACK
6
CONTINUOUS
10
2.997047244094488
20
-1.9655511811023623
11
2.9940339763779527
21
-1.9649518110236219
0
LINE
8
BLACK
6
CONTINUOUS
10
2.9940339763779527
20
-1.9649518110236219
11
2.9914794881889764
21
-1.9632449212598424
0
LINE
8
BLACK
6
CONTINUOUS
10
2.9914794881889764
20
-1.9632449212598424
11
2.9897725984251968
21
-1.9606904330708661
0
LINE
8
BLACK
6
CONTINUOUS
10
2.9897725984251968
20
-1.9606904330708661
11
2.9891732283464565
21
-1.9576771653543306
0
LINE
8
BLACK
6
CONTINUOUS
10
2.9891732283464565
20
-1.9576771653543306
11
2.9891732283464565
21
-1.9419291338582676
0
LINE
8
BLACK
6
CONTINUOUS
10
2.9891732283464565
20
-1.9419291338582676
11
2.9897725984251968
21
-1.9389158661417323
0
LINE
8
BLACK
6
CONTINUOUS
10
2.9897725984251968
20
-1.9389158661417323
11
2.9914794881889764
21
-1.9363613779527558
0
LINE
8
BLACK
6
CONTINUOUS
10
2.9914794881889764
20
-1.9363613779527558
11
2.9940339763779527
21
-1.9346544881889762
0
LINE
8
BLACK
6
CONTINUOUS
10
2.9940339763779527
20
-1.9346544881889762
11
2.997047244094488
21
-1.9340551181102361
0
LINE
8
BLACK
6
CONTINUOUS
10
2.997047244094488
20
-1.9340551181102361
11
3.0187007874015745
21
-1.9340551181102361
0
LINE
8
BLACK
6
CONTINUOUS
10
3.0187007874015745
20
-1.9340551181102361
11
3.0217140551181103
21
-1.9346544881889762
0
LINE
8
BLACK
6
CONTINUOUS
10
2.7591497244094487
20
-1.9402133070866141
11
2.7610655905511812
21
-1.9414934645669291
0
LINE
8
BLACK
6
CONTINUOUS
10
2.7610655905511812
20
-1.9414934645669291
11
2.7623457480314961
21
-1.9434093307086613
0
LINE
8
BLACK
6
CONTINUOUS
10
2.7623457480314961
20
-1.9434093307086613
11
2.7627952755905509
21
-1.9456692913385827
0
LINE
8
BLACK
6
CONTINUOUS
10
2.7627952755905509
20
-1.9456692913385827
11
2.7627952755905509
21
-1.9574803149606299
0
LINE
8
BLACK
6
CONTINUOUS
10
2.7627952755905509
20
-1.9574803149606299
11
2.7623457480314961
21
-1.9597402755905511
0
LINE
8
BLACK
6
CONTINUOUS
10
2.7623457480314961
20
-1.9597402755905511
11
2.7610655905511812
21
-1.9616561417322833
0
LINE
8
BLACK
6
CONTINUOUS
10
2.7610655905511812
20
-1.9616561417322833
11
2.7591497244094487
21
-1.9629362992125985
0
LINE
8
BLACK
6
CONTINUOUS
10
2.7591497244094487
20
-1.9629362992125985
11
2.7568897637795273
21
-1.9633858267716535
0
LINE
8
BLACK
6
CONTINUOUS
10
2.7568897637795273
20
-1.9633858267716535
11
2.6919291338582676
21
-1.9633858267716535
0
LINE
8
BLACK
6
CONTINUOUS
10
2.6919291338582676
20
-1.9633858267716535
11
2.6896691732283462
21
-1.9629362992125985
0
LINE
8
BLACK
6
CONTINUOUS
10
2.6896691732283462
20
-1.9629362992125985
11
2.6877533070866142
21
-1.9616561417322833
0
LINE
8
BLACK
6
CONTINUOUS
10
2.6877533070866142
20
-1.9616561417322833
11
2.6864731496062992
21
-1.9597402755905511
0
LINE
8
BLACK
6
CONTINUOUS
10
2.6864731496062992
20
-1.9597402755905511
11
2.686023622047244
21
-1.9574803149606299
0
LINE
8
BLACK
6
CONTINUOUS
10
2.686023622047244
20
-1.9574803149606299
11
2.686023622047244
21
-1.9456692913385827
0
LINE
8
BLACK
6
CONTINUOUS
10
2.686023622047244
20
-1.9456692913385827
11
2.6864731496062992
21
-1.9434093307086613
0
LINE
8
BLACK
6
CONTINUOUS
10
2.6864731496062992
20
-1.9434093307086613
11
2.6877533070866142
21
-1.9414934645669291
0
LINE
8
BLACK
6
CONTINUOUS
10
2.6877533070866142
20
-1.9414934645669291
11
2.6896691732283462
21
-1.9402133070866141
0
LINE
8
BLACK
6
CONTINUOUS
10
2.6896691732283462
20
-1.9402133070866141
11
2.6919291338582676
21
-1.9397637795275591
0
LINE
8
BLACK
6
CONTINUOUS
10
2.6919291338582676
20
-1.9397637795275591
11
2.7568897637795273
21
-1.9397637795275591
0
LINE
8
BLACK
6
CONTINUOUS
10
2.7568897637795273
20
-1.9397637795275591
11
2.7591497244094487
21
-1.9402133070866141
0
LINE
8
BLACK
6
CONTINUOUS
10
2.9540316141732283
20
-1.9402133070866141
11
2.9559474803149604
21
-1.9414934645669291
0
LINE
8
BLACK
6
CONTINUOUS
10
2.9559474803149604
20
-1.9414934645669291
11
2.9572276377952753
21
-1.9434093307086613
0
LINE
8
BLACK
6
CONTINUOUS
10
2.9572276377952753
20
-1.9434093307086613
11
2.9576771653543306
21
-1.9456692913385827
0
LINE
8
BLACK
6
CONTINUOUS
10
2.9576771653543306
20
-1.9456692913385827
11
2.9576771653543306
21
-1.9574803149606299
0
LINE
8
BLACK
6
CONTINUOUS
10
2.9576771653543306
20
-1.9574803149606299
11
2.9572276377952753
21
-1.9597402755905511
0
LINE
8
BLACK
6
CONTINUOUS
10
2.9572276377952753
20
-1.9597402755905511
11
2.9559474803149604
21
-1.9616561417322833
0
LINE
8
BLACK
6
CONTINUOUS
10
2.9559474803149604
20
-1.9616561417322833
11
2.9540316141732283
21
-1.9629362992125985
0
LINE
8
BLACK
6
CONTINUOUS
10
2.9540316141732283
20
-1.9629362992125985
11
2.951771653543307
21
-1.9633858267716535
0
LINE
8
BLACK
6
CONTINUOUS
10
2.951771653543307
20
-1.9633858267716535
11
2.8868110236220472
21
-1.9633858267716535
0
LINE
8
BLACK
6
CONTINUOUS
10
2.8868110236220472
20
-1.9633858267716535
11
2.8845510629921258
21
-1.9629362992125985
0
LINE
8
BLACK
6
CONTINUOUS
10
2.8845510629921258
20
-1.9629362992125985
11
2.8826351968503938
21
-1.9616561417322833
0
LINE
8
BLACK
6
CONTINUOUS
10
2.8826351968503938
20
-1.9616561417322833
11
2.8813550393700789
21
-1.9597402755905511
0
LINE
8
BLACK
6
CONTINUOUS
10
2.8813550393700789
20
-1.9597402755905511
11
2.8809055118110236
21
-1.9574803149606299
0
LINE
8
BLACK
6
CONTINUOUS
10
2.8809055118110236
20
-1.9574803149606299
11
2.8809055118110236
21
-1.9456692913385827
0
LINE
8
BLACK
6
CONTINUOUS
10
2.8809055118110236
20
-1.9456692913385827
11
2.8813550393700789
21
-1.9434093307086613
0
LINE
8
BLACK
6
CONTINUOUS
10
2.8813550393700789
20
-1.9434093307086613
11
2.8826351968503938
21
-1.9414934645669291
0
LINE
8
BLACK
6
CONTINUOUS
10
2.8826351968503938
20
-1.9414934645669291
11
2.8845510629921258
21
-1.9402133070866141
0
LINE
8
BLACK
6
CONTINUOUS
10
2.8845510629921258
20
-1.9402133070866141
11
2.8868110236220472
21
-1.9397637795275591
0
LINE
8
BLACK
6
CONTINUOUS
10
2.8868110236220472
20
-1.9397637795275591
11
2.951771653543307
21
-1.9397637795275591
0
LINE
8
BLACK
6
CONTINUOUS
10
2.951771653543307
20
-1.9397637795275591
11
2.9540316141732283
21
-1.9402133070866141
0
LINE
8
BLACK
6
CONTINUOUS
10
2.7591497244094487
20
-1.8902133070866141
11
2.7610655905511812
21
-1.891493464566929
0
LINE
8
BLACK
6
CONTINUOUS
10
2.7610655905511812
20
-1.891493464566929
11
2.7623457480314961
21
-1.8934093307086615
0
LINE
8
BLACK
6
CONTINUOUS
10
2.7623457480314961
20
-1.8934093307086615
11
2.7627952755905509
21
-1.8956692913385826
0
LINE
8
BLACK
6
CONTINUOUS
10
2.7627952755905509
20
-1.8956692913385826
11
2.7627952755905509
21
-1.9074803149606299
0
LINE
8
BLACK
6
CONTINUOUS
10
2.7627952755905509
20
-1.9074803149606299
11
2.7623457480314961
21
-1.909740275590551
0
LINE
8
BLACK
6
CONTINUOUS
10
2.7623457480314961
20
-1.909740275590551
11
2.7610655905511812
21
-1.9116561417322835
0
LINE
8
BLACK
6
CONTINUOUS
10
2.7610655905511812
20
-1.9116561417322835
11
2.7591497244094487
21
-1.9129362992125984
0
LINE
8
BLACK
6
CONTINUOUS
10
2.7591497244094487
20
-1.9129362992125984
11
2.7568897637795273
21
-1.9133858267716535
0
LINE
8
BLACK
6
CONTINUOUS
10
2.7568897637795273
20
-1.9133858267716535
11
2.6919291338582676
21
-1.9133858267716535
0
LINE
8
BLACK
6
CONTINUOUS
10
2.6919291338582676
20
-1.9133858267716535
11
2.6896691732283462
21
-1.9129362992125984
0
LINE
8
BLACK
6
CONTINUOUS
10
2.6896691732283462
20
-1.9129362992125984
11
2.6877533070866142
21
-1.9116561417322835
0
LINE
8
BLACK
6
CONTINUOUS
10
2.6877533070866142
20
-1.9116561417322835
11
2.6864731496062992
21
-1.909740275590551
0
LINE
8
BLACK
6
CONTINUOUS
10
2.6864731496062992
20
-1.909740275590551
11
2.686023622047244
21
-1.9074803149606299
0
LINE
8
BLACK
6
CONTINUOUS
10
2.686023622047244
20
-1.9074803149606299
11
2.686023622047244
21
-1.8956692913385826
0
LINE
8
BLACK
6
CONTINUOUS
10
2.686023622047244
20
-1.8956692913385826
11
2.6864731496062992
21
-1.8934093307086615
0
LINE
8
BLACK
6
CONTINUOUS
10
2.6864731496062992
20
-1.8934093307086615
11
2.6877533070866142
21
-1.891493464566929
0
LINE
8
BLACK
6
CONTINUOUS
10
2.6877533070866142
20
-1.891493464566929
11
2.6896691732283462
21
-1.8902133070866141
0
LINE
8
BLACK
6
CONTINUOUS
10
2.6896691732283462
20
-1.8902133070866141
11
2.6919291338582676
21
-1.889763779527559
0
LINE
8
BLACK
6
CONTINUOUS
10
2.6919291338582676
20
-1.889763779527559
11
2.7568897637795273
21
-1.889763779527559
0
LINE
8
BLACK
6
CONTINUOUS
10
2.7568897637795273
20
-1.889763779527559
11
2.7591497244094487
21
-1.8902133070866141
0
LINE
8
BLACK
6
CONTINUOUS
10
2.9540316141732283
20
-1.8902133070866141
11
2.9559474803149604
21
-1.891493464566929
0
LINE
8
BLACK
6
CONTINUOUS
10
2.9559474803149604
20
-1.891493464566929
11
2.9572276377952753
21
-1.8934093307086615
0
LINE
8
BLACK
6
CONTINUOUS
10
2.9572276377952753
20
-1.8934093307086615
11
2.9576771653543306
21
-1.8956692913385826
0
LINE
8
BLACK
6
CONTINUOUS
10
2.9576771653543306
20
-1.8956692913385826
11
2.9576771653543306
21
-1.9074803149606299
0
LINE
8
BLACK
6
CONTINUOUS
10
2.9576771653543306
20
-1.9074803149606299
11
2.9572276377952753
21
-1.909740275590551
0
LINE
8
BLACK
6
CONTINUOUS
10
2.9572276377952753
20
-1.909740275590551
11
2.9559474803149604
21
-1.9116561417322835
0
LINE
8
BLACK
6
CONTINUOUS
10
2.9559474803149604
20
-1.9116561417322835
11
2.9540316141732283
21
-1.9129362992125984
0
LINE
8
BLACK
6
CONTINUOUS
10
2.9540316141732283
20
-1.9129362992125984
11
2.951771653543307
21
-1.9133858267716535
0
LINE
8
BLACK
6
CONTINUOUS
10
2.951771653543307
20
-1.9133858267716535
11
2.8868110236220472
21
-1.9133858267716535
0
LINE
8
BLACK
6
CONTINUOUS
10
2.8868110236220472
20
-1.9133858267716535
11
2.8845510629921258
21
-1.9129362992125984
0
LINE
8
BLACK
6
CONTINUOUS
10
2.8845510629921258
20
-1.9129362992125984
11
2.8826351968503938
21
-1.9116561417322835
0
LINE
8
BLACK
6
CONTINUOUS
10
2.8826351968503938
20
-1.9116561417322835
11
2.8813550393700789
21
-1.909740275590551
0
LINE
8
BLACK
6
CONTINUOUS
10
2.8813550393700789
20
-1.909740275590551
11
2.8809055118110236
21
-1.9074803149606299
0
LINE
8
BLACK
6
CONTINUOUS
10
2.8809055118110236
20
-1.9074803149606299
11
2.8809055118110236
21
-1.8956692913385826
0
LINE
8
BLACK
6
CONTINUOUS
10
2.8809055118110236
20
-1.8956692913385826
11
2.8813550393700789
21
-1.8934093307086615
0
LINE
8
BLACK
6
CONTINUOUS
10
2.8813550393700789
20
-1.8934093307086615
11
2.8826351968503938
21
-1.891493464566929
0
LINE
8
BLACK
6
CONTINUOUS
10
2.8826351968503938
20
-1.891493464566929
11
2.8845510629921258
21
-1.8902133070866141
0
LINE
8
BLACK
6
CONTINUOUS
10
2.8845510629921258
20
-1.8902133070866141
11
2.8868110236220472
21
-1.889763779527559
0
LINE
8
BLACK
6
CONTINUOUS
10
2.8868110236220472
20
-1.889763779527559
11
2.951771653543307
21
-1.889763779527559
0
LINE
8
BLACK
6
CONTINUOUS
10
2.951771653543307
20
-1.889763779527559
11
2.9540316141732283
21
-1.8902133070866141
0
LINE
8
BLACK
6
CONTINUOUS
10
3.4024069685039371
20
-1.8688985826771654
11
3.4049614566929134
21
-1.8706054724409449
0
LINE
8
BLACK
6
CONTINUOUS
10
3.4049614566929134
20
-1.8706054724409449
11
3.4066683464566929
21
-1.8731599606299212
0
LINE
8
BLACK
6
CONTINUOUS
10
3.4066683464566929
20
-1.8731599606299212
11
3.4072677165354328
21
-1.8761732283464567
0
LINE
8
BLACK
6
CONTINUOUS
10
3.4072677165354328
20
-1.8761732283464567
11
3.4072677165354328
21
-1.8978267716535433
0
LINE
8
BLACK
6
CONTINUOUS
10
3.4072677165354328
20
-1.8978267716535433
11
3.4066683464566929
21
-1.9008400393700786
0
LINE
8
BLACK
6
CONTINUOUS
10
3.4066683464566929
20
-1.9008400393700786
11
3.4049614566929134
21
-1.9033945275590551
0
LINE
8
BLACK
6
CONTINUOUS
10
3.4049614566929134
20
-1.9033945275590551
11
3.4024069685039371
21
-1.9051014173228347
0
LINE
8
BLACK
6
CONTINUOUS
10
3.4024069685039371
20
-1.9051014173228347
11
3.3993937007874013
21
-1.9057007874015748
0
LINE
8
BLACK
6
CONTINUOUS
10
3.3993937007874013
20
-1.9057007874015748
11
3.3836456692913384
21
-1.9057007874015748
0
LINE
8
BLACK
6
CONTINUOUS
10
3.3836456692913384
20
-1.9057007874015748
11
3.380632401574803
21
-1.9051014173228347
0
LINE
8
BLACK
6
CONTINUOUS
10
3.380632401574803
20
-1.9051014173228347
11
3.3780779133858267
21
-1.9033945275590551
0
LINE
8
BLACK
6
CONTINUOUS
10
3.3780779133858267
20
-1.9033945275590551
11
3.3763710236220472
21
-1.9008400393700786
0
LINE
8
BLACK
6
CONTINUOUS
10
3.3763710236220472
20
-1.9008400393700786
11
3.3757716535433069
21
-1.8978267716535433
0
LINE
8
BLACK
6
CONTINUOUS
10
3.3757716535433069
20
-1.8978267716535433
11
3.3757716535433069
21
-1.8761732283464567
0
LINE
8
BLACK
6
CONTINUOUS
10
3.3757716535433069
20
-1.8761732283464567
11
3.3763710236220472
21
-1.8731599606299212
0
LINE
8
BLACK
6
CONTINUOUS
10
3.3763710236220472
20
-1.8731599606299212
11
3.3780779133858267
21
-1.8706054724409449
0
LINE
8
BLACK
6
CONTINUOUS
10
3.3780779133858267
20
-1.8706054724409449
11
3.380632401574803
21
-1.8688985826771654
0
LINE
8
BLACK
6
CONTINUOUS
10
3.380632401574803
20
-1.8688985826771654
11
3.3836456692913384
21
-1.8682992125984252
0
LINE
8
BLACK
6
CONTINUOUS
10
3.3836456692913384
20
-1.8682992125984252
11
3.3993937007874013
21
-1.8682992125984252
0
LINE
8
BLACK
6
CONTINUOUS
10
3.3993937007874013
20
-1.8682992125984252
11
3.4024069685039371
21
-1.8688985826771654
0
LINE
8
BLACK
6
CONTINUOUS
10
3.4673675984251968
20
-1.8688985826771654
11
3.4699220866141731
21
-1.8706054724409449
0
LINE
8
BLACK
6
CONTINUOUS
10
3.4699220866141731
20
-1.8706054724409449
11
3.4716289763779526
21
-1.8731599606299212
0
LINE
8
BLACK
6
CONTINUOUS
10
3.4716289763779526
20
-1.8731599606299212
11
3.472228346456693
21
-1.8761732283464567
0
LINE
8
BLACK
6
CONTINUOUS
10
3.472228346456693
20
-1.8761732283464567
11
3.472228346456693
21
-1.8978267716535433
0
LINE
8
BLACK
6
CONTINUOUS
10
3.472228346456693
20
-1.8978267716535433
11
3.4716289763779526
21
-1.9008400393700786
0
LINE
8
BLACK
6
CONTINUOUS
10
3.4716289763779526
20
-1.9008400393700786
11
3.4699220866141731
21
-1.9033945275590551
0
LINE
8
BLACK
6
CONTINUOUS
10
3.4699220866141731
20
-1.9033945275590551
11
3.4673675984251968
21
-1.9051014173228347
0
LINE
8
BLACK
6
CONTINUOUS
10
3.4673675984251968
20
-1.9051014173228347
11
3.4643543307086615
21
-1.9057007874015748
0
LINE
8
BLACK
6
CONTINUOUS
10
3.4643543307086615
20
-1.9057007874015748
11
3.4486062992125985
21
-1.9057007874015748
0
LINE
8
BLACK
6
CONTINUOUS
10
3.4486062992125985
20
-1.9057007874015748
11
3.4455930314960628
21
-1.9051014173228347
0
LINE
8
BLACK
6
CONTINUOUS
10
3.4455930314960628
20
-1.9051014173228347
11
3.4430385433070865
21
-1.9033945275590551
0
LINE
8
BLACK
6
CONTINUOUS
10
3.4430385433070865
20
-1.9033945275590551
11
3.4413316535433069
21
-1.9008400393700786
0
LINE
8
BLACK
6
CONTINUOUS
10
3.4413316535433069
20
-1.9008400393700786
11
3.4407322834645671
21
-1.8978267716535433
0
LINE
8
BLACK
6
CONTINUOUS
10
3.4407322834645671
20
-1.8978267716535433
11
3.4407322834645671
21
-1.8761732283464567
0
LINE
8
BLACK
6
CONTINUOUS
10
3.4407322834645671
20
-1.8761732283464567
11
3.4413316535433069
21
-1.8731599606299212
0
LINE
8
BLACK
6
CONTINUOUS
10
3.4413316535433069
20
-1.8731599606299212
11
3.4430385433070865
21
-1.8706054724409449
0
LINE
8
BLACK
6
CONTINUOUS
10
3.4430385433070865
20
-1.8706054724409449
11
3.4455930314960628
21
-1.8688985826771654
0
LINE
8
BLACK
6
CONTINUOUS
10
3.4455930314960628
20
-1.8688985826771654
11
3.4486062992125985
21
-1.8682992125984252
0
LINE
8
BLACK
6
CONTINUOUS
10
3.4486062992125985
20
-1.8682992125984252
11
3.4643543307086615
21
-1.8682992125984252
0
LINE
8
BLACK
6
CONTINUOUS
10
3.4643543307086615
20
-1.8682992125984252
11
3.4673675984251968
21
-1.8688985826771654
0
LINE
8
BLACK
6
CONTINUOUS
10
3.0217140551181103
20
-1.8696938582677165
11
3.0242685433070866
21
-1.871400748031496
0
LINE
8
BLACK
6
CONTINUOUS
10
3.0242685433070866
20
-1.871400748031496
11
3.0259754330708661
21
-1.8739552362204723
0
LINE
8
BLACK
6
CONTINUOUS
10
3.0259754330708661
20
-1.8739552362204723
11
3.026574803149606
21
-1.8769685039370079
0
LINE
8
BLACK
6
CONTINUOUS
10
3.026574803149606
20
-1.8769685039370079
11
3.026574803149606
21
-1.8927165354330708
0
LINE
8
BLACK
6
CONTINUOUS
10
3.026574803149606
20
-1.8927165354330708
11
3.0259754330708661
21
-1.8957298031496062
0
LINE
8
BLACK
6
CONTINUOUS
10
3.0259754330708661
20
-1.8957298031496062
11
3.0242685433070866
21
-1.8982842913385827
0
LINE
8
BLACK
6
CONTINUOUS
10
3.0242685433070866
20
-1.8982842913385827
11
3.0217140551181103
21
-1.8999911811023622
0
LINE
8
BLACK
6
CONTINUOUS
10
3.0217140551181103
20
-1.8999911811023622
11
3.0187007874015745
21
-1.9005905511811023
0
LINE
8
BLACK
6
CONTINUOUS
10
3.0187007874015745
20
-1.9005905511811023
11
2.997047244094488
21
-1.9005905511811023
0
LINE
8
BLACK
6
CONTINUOUS
10
2.997047244094488
20
-1.9005905511811023
11
2.9940339763779527
21
-1.8999911811023622
0
LINE
8
BLACK
6
CONTINUOUS
10
2.9940339763779527
20
-1.8999911811023622
11
2.9914794881889764
21
-1.8982842913385827
0
LINE
8
BLACK
6
CONTINUOUS
10
2.9914794881889764
20
-1.8982842913385827
11
2.9897725984251968
21
-1.8957298031496062
0
LINE
8
BLACK
6
CONTINUOUS
10
2.9897725984251968
20
-1.8957298031496062
11
2.9891732283464565
21
-1.8927165354330708
0
LINE
8
BLACK
6
CONTINUOUS
10
2.9891732283464565
20
-1.8927165354330708
11
2.9891732283464565
21
-1.8769685039370079
0
LINE
8
BLACK
6
CONTINUOUS
10
2.9891732283464565
20
-1.8769685039370079
11
2.9897725984251968
21
-1.8739552362204723
0
LINE
8
BLACK
6
CONTINUOUS
10
2.9897725984251968
20
-1.8739552362204723
11
2.9914794881889764
21
-1.871400748031496
0
LINE
8
BLACK
6
CONTINUOUS
10
2.9914794881889764
20
-1.871400748031496
11
2.9940339763779527
21
-1.8696938582677165
0
LINE
8
BLACK
6
CONTINUOUS
10
2.9940339763779527
20
-1.8696938582677165
11
2.997047244094488
21
-1.8690944881889764
0
LINE
8
BLACK
6
CONTINUOUS
10
2.997047244094488
20
-1.8690944881889764
11
3.0187007874015745
21
-1.8690944881889764
0
LINE
8
BLACK
6
CONTINUOUS
10
3.0187007874015745
20
-1.8690944881889764
11
3.0217140551181103
21
-1.8696938582677165
0
LINE
8
BLACK
6
CONTINUOUS
10
3.5896274409448816
20
-1.8116229921259843
11
3.5921819291338584
21
-1.8133298818897636
0
LINE
8
BLACK
6
CONTINUOUS
10
3.5921819291338584
20
-1.8133298818897636
11
3.5938888188976379
21
-1.8158843700787402
0
LINE
8
BLACK
6
CONTINUOUS
10
3.5938888188976379
20
-1.8158843700787402
11
3.5944881889763778
21
-1.8188976377952755
0
LINE
8
BLACK
6
CONTINUOUS
10
3.5944881889763778
20
-1.8188976377952755
11
3.5944881889763778
21
-1.8818897637795275
0
LINE
8
BLACK
6
CONTINUOUS
10
3.5944881889763778
20
-1.8818897637795275
11
3.5938888188976379
21
-1.8849030314960629
0
LINE
8
BLACK
6
CONTINUOUS
10
3.5938888188976379
20
-1.8849030314960629
11
3.5921819291338584
21
-1.8874575196850394
0
LINE
8
BLACK
6
CONTINUOUS
10
3.5921819291338584
20
-1.8874575196850394
11
3.5896274409448816
21
-1.8891644094488189
0
LINE
8
BLACK
6
CONTINUOUS
10
3.5896274409448816
20
-1.8891644094488189
11
3.5866141732283463
21
-1.889763779527559
0
LINE
8
BLACK
6
CONTINUOUS
10
3.5866141732283463
20
-1.889763779527559
11
3.5708661417322833
21
-1.889763779527559
0
LINE
8
BLACK
6
CONTINUOUS
10
3.5708661417322833
20
-1.889763779527559
11
3.567852874015748
21
-1.8891644094488189
0
LINE
8
BLACK
6
CONTINUOUS
10
3.567852874015748
20
-1.8891644094488189
11
3.5652983858267717
21
-1.8874575196850394
0
LINE
8
BLACK
6
CONTINUOUS
10
3.5652983858267717
20
-1.8874575196850394
11
3.5635914960629922
21
-1.8849030314960629
0
LINE
8
BLACK
6
CONTINUOUS
10
3.5635914960629922
20
-1.8849030314960629
11
3.5629921259842519
21
-1.8818897637795275
0
LINE
8
BLACK
6
CONTINUOUS
10
3.5629921259842519
20
-1.8818897637795275
11
3.5629921259842519
21
-1.8188976377952755
0
LINE
8
BLACK
6
CONTINUOUS
10
3.5629921259842519
20
-1.8188976377952755
11
3.5635914960629922
21
-1.8158843700787402
0
LINE
8
BLACK
6
CONTINUOUS
10
3.5635914960629922
20
-1.8158843700787402
11
3.5652983858267717
21
-1.8133298818897636
0
LINE
8
BLACK
6
CONTINUOUS
10
3.5652983858267717
20
-1.8133298818897636
11
3.567852874015748
21
-1.8116229921259843
0
LINE
8
BLACK
6
CONTINUOUS
10
3.567852874015748
20
-1.8116229921259843
11
3.5708661417322833
21
-1.811023622047244
0
LINE
8
BLACK
6
CONTINUOUS
10
3.5708661417322833
20
-1.811023622047244
11
3.5866141732283463
21
-1.811023622047244
0
LINE
8
BLACK
6
CONTINUOUS
10
3.5866141732283463
20
-1.811023622047244
11
3.5896274409448816
21
-1.8116229921259843
0
LINE
8
BLACK
6
CONTINUOUS
10
3.7549817716535432
20
-1.8116229921259843
11
3.7575362598425195
21
-1.8133298818897636
0
LINE
8
BLACK
6
CONTINUOUS
10
3.7575362598425195
20
-1.8133298818897636
11
3.759243149606299
21
-1.8158843700787402
0
LINE
8
BLACK
6
CONTINUOUS
10
3.759243149606299
20
-1.8158843700787402
11
3.7598425196850394
21
-1.8188976377952755
0
LINE
8
BLACK
6
CONTINUOUS
10
3.7598425196850394
20
-1.8188976377952755
11
3.7598425196850394
21
-1.8818897637795275
0
LINE
8
BLACK
6
CONTINUOUS
10
3.7598425196850394
20
-1.8818897637795275
11
3.759243149606299
21
-1.8849030314960629
0
LINE
8
BLACK
6
CONTINUOUS
10
3.759243149606299
20
-1.8849030314960629
11
3.7575362598425195
21
-1.8874575196850394
0
LINE
8
BLACK
6
CONTINUOUS
10
3.7575362598425195
20
-1.8874575196850394
11
3.7549817716535432
21
-1.8891644094488189
0
LINE
8
BLACK
6
CONTINUOUS
10
3.7549817716535432
20
-1.8891644094488189
11
3.7519685039370079
21
-1.889763779527559
0
LINE
8
BLACK
6
CONTINUOUS
10
3.7519685039370079
20
-1.889763779527559
11
3.7362204724409449
21
-1.889763779527559
0
LINE
8
BLACK
6
CONTINUOUS
10
3.7362204724409449
20
-1.889763779527559
11
3.7332072047244091
21
-1.8891644094488189
0
LINE
8
BLACK
6
CONTINUOUS
10
3.7332072047244091
20
-1.8891644094488189
11
3.7306527165354328
21
-1.8874575196850394
0
LINE
8
BLACK
6
CONTINUOUS
10
3.7306527165354328
20
-1.8874575196850394
11
3.7289458267716533
21
-1.8849030314960629
0
LINE
8
BLACK
6
CONTINUOUS
10
3.7289458267716533
20
-1.8849030314960629
11
3.7283464566929134
21
-1.8818897637795275
0
LINE
8
BLACK
6
CONTINUOUS
10
3.7283464566929134
20
-1.8818897637795275
11
3.7283464566929134
21
-1.8188976377952755
0
LINE
8
BLACK
6
CONTINUOUS
10
3.7283464566929134
20
-1.8188976377952755
11
3.7289458267716533
21
-1.8158843700787402
0
LINE
8
BLACK
6
CONTINUOUS
10
3.7289458267716533
20
-1.8158843700787402
11
3.7306527165354328
21
-1.8133298818897636
0
LINE
8
BLACK
6
CONTINUOUS
10
3.7306527165354328
20
-1.8133298818897636
11
3.7332072047244091
21
-1.8116229921259843
0
LINE
8
BLACK
6
CONTINUOUS
10
3.7332072047244091
20
-1.8116229921259843
11
3.7362204724409449
21
-1.811023622047244
0
LINE
8
BLACK
6
CONTINUOUS
10
3.7362204724409449
20
-1.811023622047244
11
3.7519685039370079
21
-1.811023622047244
0
LINE
8
BLACK
6
CONTINUOUS
10
3.7519685039370079
20
-1.811023622047244
11
3.7549817716535432
21
-1.8116229921259843
0
LINE
8
BLACK
6
CONTINUOUS
10
3.8534069685039367
20
-1.8116229921259843
11
3.8559614566929135
21
-1.8133298818897636
0
LINE
8
BLACK
6
CONTINUOUS
10
3.8559614566929135
20
-1.8133298818897636
11
3.857668346456693
21
-1.8158843700787402
0
LINE
8
BLACK
6
CONTINUOUS
10
3.857668346456693
20
-1.8158843700787402
11
3.8582677165354329
21
-1.8188976377952755
0
LINE
8
BLACK
6
CONTINUOUS
10
3.8582677165354329
20
-1.8188976377952755
11
3.8582677165354329
21
-1.8818897637795275
0
LINE
8
BLACK
6
CONTINUOUS
10
3.8582677165354329
20
-1.8818897637795275
11
3.857668346456693
21
-1.8849030314960629
0
LINE
8
BLACK
6
CONTINUOUS
10
3.857668346456693
20
-1.8849030314960629
11
3.8559614566929135
21
-1.8874575196850394
0
LINE
8
BLACK
6
CONTINUOUS
10
3.8559614566929135
20
-1.8874575196850394
11
3.8534069685039367
21
-1.8891644094488189
0
LINE
8
BLACK
6
CONTINUOUS
10
3.8534069685039367
20
-1.8891644094488189
11
3.8503937007874014
21
-1.889763779527559
0
LINE
8
BLACK
6
CONTINUOUS
10
3.8503937007874014
20
-1.889763779527559
11
3.8346456692913384
21
-1.889763779527559
0
LINE
8
BLACK
6
CONTINUOUS
10
3.8346456692913384
20
-1.889763779527559
11
3.8316324015748031
21
-1.8891644094488189
0
LINE
8
BLACK
6
CONTINUOUS
10
3.8316324015748031
20
-1.8891644094488189
11
3.8290779133858268
21
-1.8874575196850394
0
LINE
8
BLACK
6
CONTINUOUS
10
3.8290779133858268
20
-1.8874575196850394
11
3.8273710236220473
21
-1.8849030314960629
0
LINE
8
BLACK
6
CONTINUOUS
10
3.8273710236220473
20
-1.8849030314960629
11
3.826771653543307
21
-1.8818897637795275
0
LINE
8
BLACK
6
CONTINUOUS
10
3.826771653543307
20
-1.8818897637795275
11
3.826771653543307
21
-1.8188976377952755
0
LINE
8
BLACK
6
CONTINUOUS
10
3.826771653543307
20
-1.8188976377952755
11
3.8273710236220473
21
-1.8158843700787402
0
LINE
8
BLACK
6
CONTINUOUS
10
3.8273710236220473
20
-1.8158843700787402
11
3.8290779133858268
21
-1.8133298818897636
0
LINE
8
BLACK
6
CONTINUOUS
10
3.8290779133858268
20
-1.8133298818897636
11
3.8316324015748031
21
-1.8116229921259843
0
LINE
8
BLACK
6
CONTINUOUS
10
3.8316324015748031
20
-1.8116229921259843
11
3.8346456692913384
21
-1.811023622047244
0
LINE
8
BLACK
6
CONTINUOUS
10
3.8346456692913384
20
-1.811023622047244
11
3.8503937007874014
21
-1.811023622047244
0
LINE
8
BLACK
6
CONTINUOUS
10
3.8503937007874014
20
-1.811023622047244
11
3.8534069685039367
21
-1.8116229921259843
0
LINE
8
BLACK
6
CONTINUOUS
10
4.0187612992125983
20
-1.8116229921259843
11
4.0213157874015746
21
-1.8133298818897636
0
LINE
8
BLACK
6
CONTINUOUS
10
4.0213157874015746
20
-1.8133298818897636
11
4.0230226771653541
21
-1.8158843700787402
0
LINE
8
BLACK
6
CONTINUOUS
10
4.0230226771653541
20
-1.8158843700787402
11
4.0236220472440944
21
-1.8188976377952755
0
LINE
8
BLACK
6
CONTINUOUS
10
4.0236220472440944
20
-1.8188976377952755
11
4.0236220472440944
21
-1.8818897637795275
0
LINE
8
BLACK
6
CONTINUOUS
10
4.0236220472440944
20
-1.8818897637795275
11
4.0230226771653541
21
-1.8849030314960629
0
LINE
8
BLACK
6
CONTINUOUS
10
4.0230226771653541
20
-1.8849030314960629
11
4.0213157874015746
21
-1.8874575196850394
0
LINE
8
BLACK
6
CONTINUOUS
10
4.0213157874015746
20
-1.8874575196850394
11
4.0187612992125983
21
-1.8891644094488189
0
LINE
8
BLACK
6
CONTINUOUS
10
4.0187612992125983
20
-1.8891644094488189
11
4.015748031496063
21
-1.889763779527559
0
LINE
8
BLACK
6
CONTINUOUS
10
4.015748031496063
20
-1.889763779527559
11
4.
21
-1.889763779527559
0
LINE
8
BLACK
6
CONTINUOUS
10
4.
20
-1.889763779527559
11
3.9969867322834647
21
-1.8891644094488189
0
LINE
8
BLACK
6
CONTINUOUS
10
3.9969867322834647
20
-1.8891644094488189
11
3.9944322440944879
21
-1.8874575196850394
0
LINE
8
BLACK
6
CONTINUOUS
10
3.9944322440944879
20
-1.8874575196850394
11
3.9927253543307084
21
-1.8849030314960629
0
LINE
8
BLACK
6
CONTINUOUS
10
3.9927253543307084
20
-1.8849030314960629
11
3.9921259842519685
21
-1.8818897637795275
0
LINE
8
BLACK
6
CONTINUOUS
10
3.9921259842519685
20
-1.8818897637795275
11
3.9921259842519685
21
-1.8188976377952755
0
LINE
8
BLACK
6
CONTINUOUS
10
3.9921259842519685
20
-1.8188976377952755
11
3.9927253543307084
21
-1.8158843700787402
0
LINE
8
BLACK
6
CONTINUOUS
10
3.9927253543307084
20
-1.8158843700787402
11
3.9944322440944879
21
-1.8133298818897636
0
LINE
8
BLACK
6
CONTINUOUS
10
3.9944322440944879
20
-1.8133298818897636
11
3.9969867322834647
21
-1.8116229921259843
0
LINE
8
BLACK
6
CONTINUOUS
10
3.9969867322834647
20
-1.8116229921259843
11
4.
21
-1.811023622047244
0
LINE
8
BLACK
6
CONTINUOUS
10
4.
20
-1.811023622047244
11
4.015748031496063
21
-1.811023622047244
0
LINE
8
BLACK
6
CONTINUOUS
10
4.015748031496063
20
-1.811023622047244
11
4.0187612992125983
21
-1.8116229921259843
0
LINE
8
BLACK
6
CONTINUOUS
10
2.7591497244094487
20
-1.8402133070866142
11
2.7610655905511812
21
-1.8414934645669292
0
LINE
8
BLACK
6
CONTINUOUS
10
2.7610655905511812
20
-1.8414934645669292
11
2.7623457480314961
21
-1.8434093307086614
0
LINE
8
BLACK
6
CONTINUOUS
10
2.7623457480314961
20
-1.8434093307086614
11
2.7627952755905509
21
-1.8456692913385826
0
LINE
8
BLACK
6
CONTINUOUS
10
2.7627952755905509
20
-1.8456692913385826
11
2.7627952755905509
21
-1.8574803149606298
0
LINE
8
BLACK
6
CONTINUOUS
10
2.7627952755905509
20
-1.8574803149606298
11
2.7623457480314961
21
-1.8597402755905512
0
LINE
8
BLACK
6
CONTINUOUS
10
2.7623457480314961
20
-1.8597402755905512
11
2.7610655905511812
21
-1.8616561417322834
0
LINE
8
BLACK
6
CONTINUOUS
10
2.7610655905511812
20
-1.8616561417322834
11
2.7591497244094487
21
-1.8629362992125984
0
LINE
8
BLACK
6
CONTINUOUS
10
2.7591497244094487
20
-1.8629362992125984
11
2.7568897637795273
21
-1.8633858267716534
0
LINE
8
BLACK
6
CONTINUOUS
10
2.7568897637795273
20
-1.8633858267716534
11
2.6919291338582676
21
-1.8633858267716534
0
LINE
8
BLACK
6
CONTINUOUS
10
2.6919291338582676
20
-1.8633858267716534
11
2.6896691732283462
21
-1.8629362992125984
0
LINE
8
BLACK
6
CONTINUOUS
10
2.6896691732283462
20
-1.8629362992125984
11
2.6877533070866142
21
-1.8616561417322834
0
LINE
8
BLACK
6
CONTINUOUS
10
2.6877533070866142
20
-1.8616561417322834
11
2.6864731496062992
21
-1.8597402755905512
0
LINE
8
BLACK
6
CONTINUOUS
10
2.6864731496062992
20
-1.8597402755905512
11
2.686023622047244
21
-1.8574803149606298
0
LINE
8
BLACK
6
CONTINUOUS
10
2.686023622047244
20
-1.8574803149606298
11
2.686023622047244
21
-1.8456692913385826
0
LINE
8
BLACK
6
CONTINUOUS
10
2.686023622047244
20
-1.8456692913385826
11
2.6864731496062992
21
-1.8434093307086614
0
LINE
8
BLACK
6
CONTINUOUS
10
2.6864731496062992
20
-1.8434093307086614
11
2.6877533070866142
21
-1.8414934645669292
0
LINE
8
BLACK
6
CONTINUOUS
10
2.6877533070866142
20
-1.8414934645669292
11
2.6896691732283462
21
-1.8402133070866142
0
LINE
8
BLACK
6
CONTINUOUS
10
2.6896691732283462
20
-1.8402133070866142
11
2.6919291338582676
21
-1.839763779527559
0
LINE
8
BLACK
6
CONTINUOUS
10
2.6919291338582676
20
-1.839763779527559
11
2.7568897637795273
21
-1.839763779527559
0
LINE
8
BLACK
6
CONTINUOUS
10
2.7568897637795273
20
-1.839763779527559
11
2.7591497244094487
21
-1.8402133070866142
0
LINE
8
BLACK
6
CONTINUOUS
10
2.9540316141732283
20
-1.8402133070866142
11
2.9559474803149604
21
-1.8414934645669292
0
LINE
8
BLACK
6
CONTINUOUS
10
2.9559474803149604
20
-1.8414934645669292
11
2.9572276377952753
21
-1.8434093307086614
0
LINE
8
BLACK
6
CONTINUOUS
10
2.9572276377952753
20
-1.8434093307086614
11
2.9576771653543306
21
-1.8456692913385826
0
LINE
8
BLACK
6
CONTINUOUS
10
2.9576771653543306
20
-1.8456692913385826
11
2.9576771653543306
21
-1.8574803149606298
0
LINE
8
BLACK
6
CONTINUOUS
10
2.9576771653543306
20
-1.8574803149606298
11
2.9572276377952753
21
-1.8597402755905512
0
LINE
8
BLACK
6
CONTINUOUS
10
2.9572276377952753
20
-1.8597402755905512
11
2.9559474803149604
21
-1.8616561417322834
0
LINE
8
BLACK
6
CONTINUOUS
10
2.9559474803149604
20
-1.8616561417322834
11
2.9540316141732283
21
-1.8629362992125984
0
LINE
8
BLACK
6
CONTINUOUS
10
2.9540316141732283
20
-1.8629362992125984
11
2.951771653543307
21
-1.8633858267716534
0
LINE
8
BLACK
6
CONTINUOUS
10
2.951771653543307
20
-1.8633858267716534
11
2.8868110236220472
21
-1.8633858267716534
0
LINE
8
BLACK
6
CONTINUOUS
10
2.8868110236220472
20
-1.8633858267716534
11
2.8845510629921258
21
-1.8629362992125984
0
LINE
8
BLACK
6
CONTINUOUS
10
2.8845510629921258
20
-1.8629362992125984
11
2.8826351968503938
21
-1.8616561417322834
0
LINE
8
BLACK
6
CONTINUOUS
10
2.8826351968503938
20
-1.8616561417322834
11
2.8813550393700789
21
-1.8597402755905512
0
LINE
8
BLACK
6
CONTINUOUS
10
2.8813550393700789
20
-1.8597402755905512
11
2.8809055118110236
21
-1.8574803149606298
0
LINE
8
BLACK
6
CONTINUOUS
10
2.8809055118110236
20
-1.8574803149606298
11
2.8809055118110236
21
-1.8456692913385826
0
LINE
8
BLACK
6
CONTINUOUS
10
2.8809055118110236
20
-1.8456692913385826
11
2.8813550393700789
21
-1.8434093307086614
0
LINE
8
BLACK
6
CONTINUOUS
10
2.8813550393700789
20
-1.8434093307086614
11
2.8826351968503938
21
-1.8414934645669292
0
LINE
8
BLACK
6
CONTINUOUS
10
2.8826351968503938
20
-1.8414934645669292
11
2.8845510629921258
21
-1.8402133070866142
0
LINE
8
BLACK
6
CONTINUOUS
10
2.8845510629921258
20
-1.8402133070866142
11
2.8868110236220472
21
-1.839763779527559
0
LINE
8
BLACK
6
CONTINUOUS
10
2.8868110236220472
20
-1.839763779527559
11
2.951771653543307
21
-1.839763779527559
0
LINE
8
BLACK
6
CONTINUOUS
10
2.951771653543307
20
-1.839763779527559
11
2.9540316141732283
21
-1.8402133070866142
0
LINE
8
BLACK
6
CONTINUOUS
10
3.4009040157480315
20
-1.7969547637795276
11
3.403698031496063
21
-1.798821653543307
0
LINE
8
BLACK
6
CONTINUOUS
10
3.403698031496063
20
-1.798821653543307
11
3.4055649212598422
21
-1.8016156692913385
0
LINE
8
BLACK
6
CONTINUOUS
10
3.4055649212598422
20
-1.8016156692913385
11
3.4062204724409448
21
-1.8049114173228347
0
LINE
8
BLACK
6
CONTINUOUS
10
3.4062204724409448
20
-1.8049114173228347
11
3.4062204724409448
21
-1.8250885826771652
0
LINE
8
BLACK
6
CONTINUOUS
10
3.4062204724409448
20
-1.8250885826771652
11
3.4055649212598422
21
-1.8283843307086614
0
LINE
8
BLACK
6
CONTINUOUS
10
3.4055649212598422
20
-1.8283843307086614
11
3.403698031496063
21
-1.8311783464566929
0
LINE
8
BLACK
6
CONTINUOUS
10
3.403698031496063
20
-1.8311783464566929
11
3.4009040157480315
21
-1.8330452362204723
0
LINE
8
BLACK
6
CONTINUOUS
10
3.4009040157480315
20
-1.8330452362204723
11
3.3976082677165356
21
-1.8337007874015747
0
LINE
8
BLACK
6
CONTINUOUS
10
3.3976082677165356
20
-1.8337007874015747
11
3.3803838582677166
21
-1.8337007874015747
0
LINE
8
BLACK
6
CONTINUOUS
10
3.3803838582677166
20
-1.8337007874015747
11
3.3770881102362202
21
-1.8330452362204723
0
LINE
8
BLACK
6
CONTINUOUS
10
3.3770881102362202
20
-1.8330452362204723
11
3.3742940944881887
21
-1.8311783464566929
0
LINE
8
BLACK
6
CONTINUOUS
10
3.3742940944881887
20
-1.8311783464566929
11
3.3724272047244095
21
-1.8283843307086614
0
LINE
8
BLACK
6
CONTINUOUS
10
3.3724272047244095
20
-1.8283843307086614
11
3.3717716535433069
21
-1.8250885826771652
0
LINE
8
BLACK
6
CONTINUOUS
10
3.3717716535433069
20
-1.8250885826771652
11
3.3717716535433069
21
-1.8049114173228347
0
LINE
8
BLACK
6
CONTINUOUS
10
3.3717716535433069
20
-1.8049114173228347
11
3.3724272047244095
21
-1.8016156692913385
0
LINE
8
BLACK
6
CONTINUOUS
10
3.3724272047244095
20
-1.8016156692913385
11
3.3742940944881887
21
-1.798821653543307
0
LINE
8
BLACK
6
CONTINUOUS
10
3.3742940944881887
20
-1.798821653543307
11
3.3770881102362202
21
-1.7969547637795276
0
LINE
8
BLACK
6
CONTINUOUS
10
3.3770881102362202
20
-1.7969547637795276
11
3.3803838582677166
21
-1.7962992125984252
0
LINE
8
BLACK
6
CONTINUOUS
10
3.3803838582677166
20
-1.7962992125984252
11
3.3976082677165356
21
-1.7962992125984252
0
LINE
8
BLACK
6
CONTINUOUS
10
3.3976082677165356
20
-1.7962992125984252
11
3.4009040157480315
21
-1.7969547637795276
0
LINE
8
BLACK
6
CONTINUOUS
10
3.4629118897637796
20
-1.7969547637795276
11
3.4657059055118111
21
-1.798821653543307
0
LINE
8
BLACK
6
CONTINUOUS
10
3.4657059055118111
20
-1.798821653543307
11
3.4675727952755904
21
-1.8016156692913385
0
LINE
8
BLACK
6
CONTINUOUS
10
3.4675727952755904
20
-1.8016156692913385
11
3.468228346456693
21
-1.8049114173228347
0
LINE
8
BLACK
6
CONTINUOUS
10
3.468228346456693
20
-1.8049114173228347
11
3.468228346456693
21
-1.8250885826771652
0
LINE
8
BLACK
6
CONTINUOUS
10
3.468228346456693
20
-1.8250885826771652
11
3.4675727952755904
21
-1.8283843307086614
0
LINE
8
BLACK
6
CONTINUOUS
10
3.4675727952755904
20
-1.8283843307086614
11
3.4657059055118111
21
-1.8311783464566929
0
LINE
8
BLACK
6
CONTINUOUS
10
3.4657059055118111
20
-1.8311783464566929
11
3.4629118897637796
21
-1.8330452362204723
0
LINE
8
BLACK
6
CONTINUOUS
10
3.4629118897637796
20
-1.8330452362204723
11
3.4596161417322833
21
-1.8337007874015747
0
LINE
8
BLACK
6
CONTINUOUS
10
3.4596161417322833
20
-1.8337007874015747
11
3.4423917322834643
21
-1.8337007874015747
0
LINE
8
BLACK
6
CONTINUOUS
10
3.4423917322834643
20
-1.8337007874015747
11
3.4390959842519684
21
-1.8330452362204723
0
LINE
8
BLACK
6
CONTINUOUS
10
3.4390959842519684
20
-1.8330452362204723
11
3.4363019685039369
21
-1.8311783464566929
0
LINE
8
BLACK
6
CONTINUOUS
10
3.4363019685039369
20
-1.8311783464566929
11
3.4344350787401572
21
-1.8283843307086614
0
LINE
8
BLACK
6
CONTINUOUS
10
3.4344350787401572
20
-1.8283843307086614
11
3.433779527559055
21
-1.8250885826771652
0
LINE
8
BLACK
6
CONTINUOUS
10
3.433779527559055
20
-1.8250885826771652
11
3.433779527559055
21
-1.8049114173228347
0
LINE
8
BLACK
6
CONTINUOUS
10
3.433779527559055
20
-1.8049114173228347
11
3.4344350787401572
21
-1.8016156692913385
0
LINE
8
BLACK
6
CONTINUOUS
10
3.4344350787401572
20
-1.8016156692913385
11
3.4363019685039369
21
-1.798821653543307
0
LINE
8
BLACK
6
CONTINUOUS
10
3.4363019685039369
20
-1.798821653543307
11
3.4390959842519684
21
-1.7969547637795276
0
LINE
8
BLACK
6
CONTINUOUS
10
3.4390959842519684
20
-1.7969547637795276
11
3.4423917322834643
21
-1.7962992125984252
0
LINE
8
BLACK
6
CONTINUOUS
10
3.4423917322834643
20
-1.7962992125984252
11
3.4596161417322833
21
-1.7962992125984252
0
LINE
8
BLACK
6
CONTINUOUS
10
3.4596161417322833
20
-1.7962992125984252
11
3.4629118897637796
21
-1.7969547637795276
0
LINE
8
BLACK
6
CONTINUOUS
10
2.865414842519685
20
-1.7681190551181103
11
2.8679693307086613
21
-1.7698259448818898
0
LINE
8
BLACK
6
CONTINUOUS
10
2.8679693307086613
20
-1.7698259448818898
11
2.8696762204724409
21
-1.7723804330708661
0
LINE
8
BLACK
6
CONTINUOUS
10
2.8696762204724409
20
-1.7723804330708661
11
2.8702755905511812
21
-1.7753937007874014
0
LINE
8
BLACK
6
CONTINUOUS
10
2.8702755905511812
20
-1.7753937007874014
11
2.8702755905511812
21
-1.7970472440944882
0
LINE
8
BLACK
6
CONTINUOUS
10
2.8702755905511812
20
-1.7970472440944882
11
2.8696762204724409
21
-1.8000605118110236
0
LINE
8
BLACK
6
CONTINUOUS
10
2.8696762204724409
20
-1.8000605118110236
11
2.8679693307086613
21
-1.8026149999999999
0
LINE
8
BLACK
6
CONTINUOUS
10
2.8679693307086613
20
-1.8026149999999999
11
2.865414842519685
21
-1.8043218897637794
0
LINE
8
BLACK
6
CONTINUOUS
10
2.865414842519685
20
-1.8043218897637794
11
2.8624015748031497
21
-1.8049212598425197
0
LINE
8
BLACK
6
CONTINUOUS
10
2.8624015748031497
20
-1.8049212598425197
11
2.8466535433070868
21
-1.8049212598425197
0
LINE
8
BLACK
6
CONTINUOUS
10
2.8466535433070868
20
-1.8049212598425197
11
2.843640275590551
21
-1.8043218897637794
0
LINE
8
BLACK
6
CONTINUOUS
10
2.843640275590551
20
-1.8043218897637794
11
2.8410857874015747
21
-1.8026149999999999
0
LINE
8
BLACK
6
CONTINUOUS
10
2.8410857874015747
20
-1.8026149999999999
11
2.8393788976377952
21
-1.8000605118110236
0
LINE
8
BLACK
6
CONTINUOUS
10
2.8393788976377952
20
-1.8000605118110236
11
2.8387795275590553
21
-1.7970472440944882
0
LINE
8
BLACK
6
CONTINUOUS
10
2.8387795275590553
20
-1.7970472440944882
11
2.8387795275590553
21
-1.7753937007874014
0
LINE
8
BLACK
6
CONTINUOUS
10
2.8387795275590553
20
-1.7753937007874014
11
2.8393788976377952
21
-1.7723804330708661
0
LINE
8
BLACK
6
CONTINUOUS
10
2.8393788976377952
20
-1.7723804330708661
11
2.8410857874015747
21
-1.7698259448818898
0
LINE
8
BLACK
6
CONTINUOUS
10
2.8410857874015747
20
-1.7698259448818898
11
2.843640275590551
21
-1.7681190551181103
0
LINE
8
BLACK
6
CONTINUOUS
10
2.843640275590551
20
-1.7681190551181103
11
2.8466535433070868
21
-1.76751968503937
0
LINE
8
BLACK
6
CONTINUOUS
10
2.8466535433070868
20
-1.76751968503937
11
2.8624015748031497
21
-1.76751968503937
0
LINE
8
BLACK
6
CONTINUOUS
10
2.8624015748031497
20
-1.76751968503937
11
2.865414842519685
21
-1.7681190551181103
0
LINE
8
BLACK
6
CONTINUOUS
10
2.9303754724409448
20
-1.7681190551181103
11
2.9329299606299211
21
-1.7698259448818898
0
LINE
8
BLACK
6
CONTINUOUS
10
2.9329299606299211
20
-1.7698259448818898
11
2.9346368503937006
21
-1.7723804330708661
0
LINE
8
BLACK
6
CONTINUOUS
10
2.9346368503937006
20
-1.7723804330708661
11
2.9352362204724409
21
-1.7753937007874014
0
LINE
8
BLACK
6
CONTINUOUS
10
2.9352362204724409
20
-1.7753937007874014
11
2.9352362204724409
21
-1.7970472440944882
0
LINE
8
BLACK
6
CONTINUOUS
10
2.9352362204724409
20
-1.7970472440944882
11
2.9346368503937006
21
-1.8000605118110236
0
LINE
8
BLACK
6
CONTINUOUS
10
2.9346368503937006
20
-1.8000605118110236
11
2.9329299606299211
21
-1.8026149999999999
0
LINE
8
BLACK
6
CONTINUOUS
10
2.9329299606299211
20
-1.8026149999999999
11
2.9303754724409448
21
-1.8043218897637794
0
LINE
8
BLACK
6
CONTINUOUS
10
2.9303754724409448
20
-1.8043218897637794
11
2.9273622047244094
21
-1.8049212598425197
0
LINE
8
BLACK
6
CONTINUOUS
10
2.9273622047244094
20
-1.8049212598425197
11
2.9116141732283465
21
-1.8049212598425197
0
LINE
8
BLACK
6
CONTINUOUS
10
2.9116141732283465
20
-1.8049212598425197
11
2.9086009055118112
21
-1.8043218897637794
0
LINE
8
BLACK
6
CONTINUOUS
10
2.9086009055118112
20
-1.8043218897637794
11
2.9060464173228344
21
-1.8026149999999999
0
LINE
8
BLACK
6
CONTINUOUS
10
2.9060464173228344
20
-1.8026149999999999
11
2.9043395275590549
21
-1.8000605118110236
0
LINE
8
BLACK
6
CONTINUOUS
10
2.9043395275590549
20
-1.8000605118110236
11
2.903740157480315
21
-1.7970472440944882
0
LINE
8
BLACK
6
CONTINUOUS
10
2.903740157480315
20
-1.7970472440944882
11
2.903740157480315
21
-1.7753937007874014
0
LINE
8
BLACK
6
CONTINUOUS
10
2.903740157480315
20
-1.7753937007874014
11
2.9043395275590549
21
-1.7723804330708661
0
LINE
8
BLACK
6
CONTINUOUS
10
2.9043395275590549
20
-1.7723804330708661
11
2.9060464173228344
21
-1.7698259448818898
0
LINE
8
BLACK
6
CONTINUOUS
10
2.9060464173228344
20
-1.7698259448818898
11
2.9086009055118112
21
-1.7681190551181103
0
LINE
8
BLACK
6
CONTINUOUS
10
2.9086009055118112
20
-1.7681190551181103
11
2.9116141732283465
21
-1.76751968503937
0
LINE
8
BLACK
6
CONTINUOUS
10
2.9116141732283465
20
-1.76751968503937
11
2.9273622047244094
21
-1.76751968503937
0
LINE
8
BLACK
6
CONTINUOUS
10
2.9273622047244094
20
-1.76751968503937
11
2.9303754724409448
21
-1.7681190551181103
0
LINE
8
BLACK
6
CONTINUOUS
10
3.4078740157480314
20
-1.7027559055118109
11
3.3724409448818897
21
-1.7027559055118109
0
LINE
8
BLACK
6
CONTINUOUS
10
3.3724409448818897
20
-1.7027559055118109
11
3.3724409448818897
21
-1.6437007874015748
0
LINE
8
BLACK
6
CONTINUOUS
10
3.3724409448818897
20
-1.6437007874015748
11
3.4078740157480314
21
-1.6437007874015748
0
LINE
8
BLACK
6
CONTINUOUS
10
3.4078740157480314
20
-1.6437007874015748
11
3.4078740157480314
21
-1.7027559055118109
0
LINE
8
BLACK
6
CONTINUOUS
10
3.4578740157480312
20
-1.7027559055118109
11
3.4224409448818895
21
-1.7027559055118109
0
LINE
8
BLACK
6
CONTINUOUS
10
3.4224409448818895
20
-1.7027559055118109
11
3.4224409448818895
21
-1.6437007874015748
0
LINE
8
BLACK
6
CONTINUOUS
10
3.4224409448818895
20
-1.6437007874015748
11
3.4578740157480312
21
-1.6437007874015748
0
LINE
8
BLACK
6
CONTINUOUS
10
3.4578740157480312
20
-1.6437007874015748
11
3.4578740157480312
21
-1.7027559055118109
0
LINE
8
BLACK
6
CONTINUOUS
10
3.5078740157480315
20
-1.7027559055118109
11
3.4724409448818898
21
-1.7027559055118109
0
LINE
8
BLACK
6
CONTINUOUS
10
3.4724409448818898
20
-1.7027559055118109
11
3.4724409448818898
21
-1.6437007874015748
0
LINE
8
BLACK
6
CONTINUOUS
10
3.4724409448818898
20
-1.6437007874015748
11
3.5078740157480315
21
-1.6437007874015748
0
LINE
8
BLACK
6
CONTINUOUS
10
3.5078740157480315
20
-1.6437007874015748
11
3.5078740157480315
21
-1.7027559055118109
0
LINE
8
BLACK
6
CONTINUOUS
10
3.5578740157480313
20
-1.7027559055118109
11
3.5224409448818896
21
-1.7027559055118109
0
LINE
8
BLACK
6
CONTINUOUS
10
3.5224409448818896
20
-1.7027559055118109
11
3.5224409448818896
21
-1.6437007874015748
0
LINE
8
BLACK
6
CONTINUOUS
10
3.5224409448818896
20
-1.6437007874015748
11
3.5578740157480313
21
-1.6437007874015748
0
LINE
8
BLACK
6
CONTINUOUS
10
3.5578740157480313
20
-1.6437007874015748
11
3.5578740157480313
21
-1.7027559055118109
0
LINE
8
BLACK
6
CONTINUOUS
10
3.6078740157480316
20
-1.7027559055118109
11
3.5724409448818899
21
-1.7027559055118109
0
LINE
8
BLACK
6
CONTINUOUS
10
3.5724409448818899
20
-1.7027559055118109
11
3.5724409448818899
21
-1.6437007874015748
0
LINE
8
BLACK
6
CONTINUOUS
10
3.5724409448818899
20
-1.6437007874015748
11
3.6078740157480316
21
-1.6437007874015748
0
LINE
8
BLACK
6
CONTINUOUS
10
3.6078740157480316
20
-1.6437007874015748
11
3.6078740157480316
21
-1.7027559055118109
0
LINE
8
BLACK
6
CONTINUOUS
10
3.6578740157480314
20
-1.7027559055118109
11
3.6224409448818897
21
-1.7027559055118109
0
LINE
8
BLACK
6
CONTINUOUS
10
3.6224409448818897
20
-1.7027559055118109
11
3.6224409448818897
21
-1.6437007874015748
0
LINE
8
BLACK
6
CONTINUOUS
10
3.6224409448818897
20
-1.6437007874015748
11
3.6578740157480314
21
-1.6437007874015748
0
LINE
8
BLACK
6
CONTINUOUS
10
3.6578740157480314
20
-1.6437007874015748
11
3.6578740157480314
21
-1.7027559055118109
0
LINE
8
BLACK
6
CONTINUOUS
10
3.7078740157480312
20
-1.7027559055118109
11
3.6724409448818895
21
-1.7027559055118109
0
LINE
8
BLACK
6
CONTINUOUS
10
3.6724409448818895
20
-1.7027559055118109
11
3.6724409448818895
21
-1.6437007874015748
0
LINE
8
BLACK
6
CONTINUOUS
10
3.6724409448818895
20
-1.6437007874015748
11
3.7078740157480312
21
-1.6437007874015748
0
LINE
8
BLACK
6
CONTINUOUS
10
3.7078740157480312
20
-1.6437007874015748
11
3.7078740157480312
21
-1.7027559055118109
0
LINE
8
BLACK
6
CONTINUOUS
10
3.7578740157480315
20
-1.7027559055118109
11
3.7224409448818898
21
-1.7027559055118109
0
LINE
8
BLACK
6
CONTINUOUS
10
3.7224409448818898
20
-1.7027559055118109
11
3.7224409448818898
21
-1.6437007874015748
0
LINE
8
BLACK
6
CONTINUOUS
10
3.7224409448818898
20
-1.6437007874015748
11
3.7578740157480315
21
-1.6437007874015748
0
LINE
8
BLACK
6
CONTINUOUS
10
3.7578740157480315
20
-1.6437007874015748
11
3.7578740157480315
21
-1.7027559055118109
0
LINE
8
BLACK
6
CONTINUOUS
10
3.8078740157480313
20
-1.7027559055118109
11
3.7724409448818896
21
-1.7027559055118109
0
LINE
8
BLACK
6
CONTINUOUS
10
3.7724409448818896
20
-1.7027559055118109
11
3.7724409448818896
21
-1.6437007874015748
0
LINE
8
BLACK
6
CONTINUOUS
10
3.7724409448818896
20
-1.6437007874015748
11
3.8078740157480313
21
-1.6437007874015748
0
LINE
8
BLACK
6
CONTINUOUS
10
3.8078740157480313
20
-1.6437007874015748
11
3.8078740157480313
21
-1.7027559055118109
0
LINE
8
BLACK
6
CONTINUOUS
10
3.8578740157480316
20
-1.7027559055118109
11
3.8224409448818895
21
-1.7027559055118109
0
LINE
8
BLACK
6
CONTINUOUS
10
3.8224409448818895
20
-1.7027559055118109
11
3.8224409448818895
21
-1.6437007874015748
0
LINE
8
BLACK
6
CONTINUOUS
10
3.8224409448818895
20
-1.6437007874015748
11
3.8578740157480316
21
-1.6437007874015748
0
LINE
8
BLACK
6
CONTINUOUS
10
3.8578740157480316
20
-1.6437007874015748
11
3.8578740157480316
21
-1.7027559055118109
0
LINE
8
BLACK
6
CONTINUOUS
10
3.9078740157480314
20
-1.7027559055118109
11
3.8724409448818897
21
-1.7027559055118109
0
LINE
8
BLACK
6
CONTINUOUS
10
3.8724409448818897
20
-1.7027559055118109
11
3.8724409448818897
21
-1.6437007874015748
0
LINE
8
BLACK
6
CONTINUOUS
10
3.8724409448818897
20
-1.6437007874015748
11
3.9078740157480314
21
-1.6437007874015748
0
LINE
8
BLACK
6
CONTINUOUS
10
3.9078740157480314
20
-1.6437007874015748
11
3.9078740157480314
21
-1.7027559055118109
0
LINE
8
BLACK
6
CONTINUOUS
10
3.9578740157480312
20
-1.7027559055118109
11
3.9224409448818895
21
-1.7027559055118109
0
LINE
8
BLACK
6
CONTINUOUS
10
3.9224409448818895
20
-1.7027559055118109
11
3.9224409448818895
21
-1.6437007874015748
0
LINE
8
BLACK
6
CONTINUOUS
10
3.9224409448818895
20
-1.6437007874015748
11
3.9578740157480312
21
-1.6437007874015748
0
LINE
8
BLACK
6
CONTINUOUS
10
3.9578740157480312
20
-1.6437007874015748
11
3.9578740157480312
21
-1.7027559055118109
0
LINE
8
BLACK
6
CONTINUOUS
10
4.0078740157480315
20
-1.7027559055118109
11
3.9724409448818898
21
-1.7027559055118109
0
LINE
8
BLACK
6
CONTINUOUS
10
3.9724409448818898
20
-1.7027559055118109
11
3.9724409448818898
21
-1.6437007874015748
0
LINE
8
BLACK
6
CONTINUOUS
10
3.9724409448818898
20
-1.6437007874015748
11
4.0078740157480315
21
-1.6437007874015748
0
LINE
8
BLACK
6
CONTINUOUS
10
4.0078740157480315
20
-1.6437007874015748
11
4.0078740157480315
21
-1.7027559055118109
0
LINE
8
BLACK
6
CONTINUOUS
10
4.0578740157480313
20
-1.7027559055118109
11
4.0224409448818896
21
-1.7027559055118109
0
LINE
8
BLACK
6
CONTINUOUS
10
4.0224409448818896
20
-1.7027559055118109
11
4.0224409448818896
21
-1.6437007874015748
0
LINE
8
BLACK
6
CONTINUOUS
10
4.0224409448818896
20
-1.6437007874015748
11
4.0578740157480313
21
-1.6437007874015748
0
LINE
8
BLACK
6
CONTINUOUS
10
4.0578740157480313
20
-1.6437007874015748
11
4.0578740157480313
21
-1.7027559055118109
0
LINE
8
BLACK
6
CONTINUOUS
10
3.0177770472440946
20
-1.611819842519685
11
3.0203315354330709
21
-1.6135267322834645
0
LINE
8
BLACK
6
CONTINUOUS
10
3.0203315354330709
20
-1.6135267322834645
11
3.0220384251968504
21
-1.6160812204724408
0
LINE
8
BLACK
6
CONTINUOUS
10
3.0220384251968504
20
-1.6160812204724408
11
3.0226377952755903
21
-1.6190944881889764
0
LINE
8
BLACK
6
CONTINUOUS
10
3.0226377952755903
20
-1.6190944881889764
11
3.0226377952755903
21
-1.6348425196850394
0
LINE
8
BLACK
6
CONTINUOUS
10
3.0226377952755903
20
-1.6348425196850394
11
3.0220384251968504
21
-1.6378557874015747
0
LINE
8
BLACK
6
CONTINUOUS
10
3.0220384251968504
20
-1.6378557874015747
11
3.0203315354330709
21
-1.6404102755905512
0
LINE
8
BLACK
6
CONTINUOUS
10
3.0203315354330709
20
-1.6404102755905512
11
3.0177770472440946
21
-1.6421171653543307
0
LINE
8
BLACK
6
CONTINUOUS
10
3.0177770472440946
20
-1.6421171653543307
11
3.0147637795275588
21
-1.6427165354330708
0
LINE
8
BLACK
6
CONTINUOUS
10
3.0147637795275588
20
-1.6427165354330708
11
2.9931102362204722
21
-1.6427165354330708
0
LINE
8
BLACK
6
CONTINUOUS
10
2.9931102362204722
20
-1.6427165354330708
11
2.9900969685039369
21
-1.6421171653543307
0
LINE
8
BLACK
6
CONTINUOUS
10
2.9900969685039369
20
-1.6421171653543307
11
2.9875424803149606
21
-1.6404102755905512
0
LINE
8
BLACK
6
CONTINUOUS
10
2.9875424803149606
20
-1.6404102755905512
11
2.9858355905511811
21
-1.6378557874015747
0
LINE
8
BLACK
6
CONTINUOUS
10
2.9858355905511811
20
-1.6378557874015747
11
2.9852362204724407
21
-1.6348425196850394
0
LINE
8
BLACK
6
CONTINUOUS
10
2.9852362204724407
20
-1.6348425196850394
11
2.9852362204724407
21
-1.6190944881889764
0
LINE
8
BLACK
6
CONTINUOUS
10
2.9852362204724407
20
-1.6190944881889764
11
2.9858355905511811
21
-1.6160812204724408
0
LINE
8
BLACK
6
CONTINUOUS
10
2.9858355905511811
20
-1.6160812204724408
11
2.9875424803149606
21
-1.6135267322834645
0
LINE
8
BLACK
6
CONTINUOUS
10
2.9875424803149606
20
-1.6135267322834645
11
2.9900969685039369
21
-1.611819842519685
0
LINE
8
BLACK
6
CONTINUOUS
10
2.9900969685039369
20
-1.611819842519685
11
2.9931102362204722
21
-1.6112204724409449
0
LINE
8
BLACK
6
CONTINUOUS
10
2.9931102362204722
20
-1.6112204724409449
11
3.0147637795275588
21
-1.6112204724409449
0
LINE
8
BLACK
6
CONTINUOUS
10
3.0147637795275588
20
-1.6112204724409449
11
3.0177770472440946
21
-1.611819842519685
0
LINE
8
BLACK
6
CONTINUOUS
10
3.0177770472440946
20
-1.5468592125984251
11
3.0203315354330709
21
-1.5485661023622046
0
LINE
8
BLACK
6
CONTINUOUS
10
3.0203315354330709
20
-1.5485661023622046
11
3.0220384251968504
21
-1.5511205905511811
0
LINE
8
BLACK
6
CONTINUOUS
10
3.0220384251968504
20
-1.5511205905511811
11
3.0226377952755903
21
-1.5541338582677164
0
LINE
8
BLACK
6
CONTINUOUS
10
3.0226377952755903
20
-1.5541338582677164
11
3.0226377952755903
21
-1.5698818897637794
0
LINE
8
BLACK
6
CONTINUOUS
10
3.0226377952755903
20
-1.5698818897637794
11
3.0220384251968504
21
-1.5728951574803149
0
LINE
8
BLACK
6
CONTINUOUS
10
3.0220384251968504
20
-1.5728951574803149
11
3.0203315354330709
21
-1.5754496456692912
0
LINE
8
BLACK
6
CONTINUOUS
10
3.0203315354330709
20
-1.5754496456692912
11
3.0177770472440946
21
-1.5771565354330708
0
LINE
8
BLACK
6
CONTINUOUS
10
3.0177770472440946
20
-1.5771565354330708
11
3.0147637795275588
21
-1.5777559055118109
0
LINE
8
BLACK
6
CONTINUOUS
10
3.0147637795275588
20
-1.5777559055118109
11
2.9931102362204722
21
-1.5777559055118109
0
LINE
8
BLACK
6
CONTINUOUS
10
2.9931102362204722
20
-1.5777559055118109
11
2.9900969685039369
21
-1.5771565354330708
0
LINE
8
BLACK
6
CONTINUOUS
10
2.9900969685039369
20
-1.5771565354330708
11
2.9875424803149606
21
-1.5754496456692912
0
LINE
8
BLACK
6
CONTINUOUS
10
2.9875424803149606
20
-1.5754496456692912
11
2.9858355905511811
21
-1.5728951574803149
0
LINE
8
BLACK
6
CONTINUOUS
10
2.9858355905511811
20
-1.5728951574803149
11
2.9852362204724407
21
-1.5698818897637794
0
LINE
8
BLACK
6
CONTINUOUS
10
2.9852362204724407
20
-1.5698818897637794
11
2.9852362204724407
21
-1.5541338582677164
0
LINE
8
BLACK
6
CONTINUOUS
10
2.9852362204724407
20
-1.5541338582677164
11
2.9858355905511811
21
-1.5511205905511811
0
LINE
8
BLACK
6
CONTINUOUS
10
2.9858355905511811
20
-1.5511205905511811
11
2.9875424803149606
21
-1.5485661023622046
0
LINE
8
BLACK
6
CONTINUOUS
10
2.9875424803149606
20
-1.5485661023622046
11
2.9900969685039369
21
-1.5468592125984251
0
LINE
8
BLACK
6
CONTINUOUS
10
2.9900969685039369
20
-1.5468592125984251
11
2.9931102362204722
21
-1.546259842519685
0
LINE
8
BLACK
6
CONTINUOUS
10
2.9931102362204722
20
-1.546259842519685
11
3.0147637795275588
21
-1.546259842519685
0
LINE
8
BLACK
6
CONTINUOUS
10
3.0147637795275588
20
-1.546259842519685
11
3.0177770472440946
21
-1.5468592125984251
0
LINE
8
BLACK
6
CONTINUOUS
10
3.3704724409448819
20
-1.5716535433070866
11
3.3114173228346457
21
-1.5716535433070866
0
LINE
8
BLACK
6
CONTINUOUS
10
3.3114173228346457
20
-1.5716535433070866
11
3.3114173228346457
21
-1.536220472440945
0
LINE
8
BLACK
6
CONTINUOUS
10
3.3114173228346457
20
-1.536220472440945
11
3.3704724409448819
21
-1.536220472440945
0
LINE
8
BLACK
6
CONTINUOUS
10
3.3704724409448819
20
-1.536220472440945
11
3.3704724409448819
21
-1.5716535433070866
0
LINE
8
BLACK
6
CONTINUOUS
10
3.3704724409448819
20
-1.5216535433070866
11
3.3114173228346457
21
-1.5216535433070866
0
LINE
8
BLACK
6
CONTINUOUS
10
3.3114173228346457
20
-1.5216535433070866
11
3.3114173228346457
21
-1.4862204724409449
0
LINE
8
BLACK
6
CONTINUOUS
10
3.3114173228346457
20
-1.4862204724409449
11
3.3704724409448819
21
-1.4862204724409449
0
LINE
8
BLACK
6
CONTINUOUS
10
3.3704724409448819
20
-1.4862204724409449
11
3.3704724409448819
21
-1.5216535433070866
0
LINE
8
BLACK
6
CONTINUOUS
10
3.3704724409448819
20
-1.4716535433070865
11
3.3114173228346457
21
-1.4716535433070865
0
LINE
8
BLACK
6
CONTINUOUS
10
3.3114173228346457
20
-1.4716535433070865
11
3.3114173228346457
21
-1.4362204724409449
0
LINE
8
BLACK
6
CONTINUOUS
10
3.3114173228346457
20
-1.4362204724409449
11
3.3704724409448819
21
-1.4362204724409449
0
LINE
8
BLACK
6
CONTINUOUS
10
3.3704724409448819
20
-1.4362204724409449
11
3.3704724409448819
21
-1.4716535433070865
0
LINE
8
BLACK
6
CONTINUOUS
10
3.3704724409448819
20
-1.4216535433070865
11
3.3114173228346457
21
-1.4216535433070865
0
LINE
8
BLACK
6
CONTINUOUS
10
3.3114173228346457
20
-1.4216535433070865
11
3.3114173228346457
21
-1.3862204724409448
0
LINE
8
BLACK
6
CONTINUOUS
10
3.3114173228346457
20
-1.3862204724409448
11
3.3704724409448819
21
-1.3862204724409448
0
LINE
8
BLACK
6
CONTINUOUS
10
3.3704724409448819
20
-1.3862204724409448
11
3.3704724409448819
21
-1.4216535433070865
0
LINE
8
BLACK
6
CONTINUOUS
10
2.9902179921259844
20
-1.3716623622047244
11
2.9927724803149607
21
-1.3733692519685039
0
LINE
8
BLACK
6
CONTINUOUS
10
2.9927724803149607
20
-1.3733692519685039
11
2.9944793700787402
21
-1.3759237401574802
0
LINE
8
BLACK
6
CONTINUOUS
10
2.9944793700787402
20
-1.3759237401574802
11
2.9950787401574801
21
-1.3789370078740157
0
LINE
8
BLACK
6
CONTINUOUS
10
2.9950787401574801
20
-1.3789370078740157
11
2.9950787401574801
21
-1.3946850393700787
0
LINE
8
BLACK
6
CONTINUOUS
10
2.9950787401574801
20
-1.3946850393700787
11
2.9944793700787402
21
-1.3976983070866142
0
LINE
8
BLACK
6
CONTINUOUS
10
2.9944793700787402
20
-1.3976983070866142
11
2.9927724803149607
21
-1.4002527952755905
0
LINE
8
BLACK
6
CONTINUOUS
10
2.9927724803149607
20
-1.4002527952755905
11
2.9902179921259844
21
-1.4019596850393701
0
LINE
8
BLACK
6
CONTINUOUS
10
2.9902179921259844
20
-1.4019596850393701
11
2.9872047244094486
21
-1.4025590551181102
0
LINE
8
BLACK
6
CONTINUOUS
10
2.9872047244094486
20
-1.4025590551181102
11
2.965551181102362
21
-1.4025590551181102
0
LINE
8
BLACK
6
CONTINUOUS
10
2.965551181102362
20
-1.4025590551181102
11
2.9625379133858267
21
-1.4019596850393701
0
LINE
8
BLACK
6
CONTINUOUS
10
2.9625379133858267
20
-1.4019596850393701
11
2.9599834251968504
21
-1.4002527952755905
0
LINE
8
BLACK
6
CONTINUOUS
10
2.9599834251968504
20
-1.4002527952755905
11
2.9582765354330709
21
-1.3976983070866142
0
LINE
8
BLACK
6
CONTINUOUS
10
2.9582765354330709
20
-1.3976983070866142
11
2.9576771653543306
21
-1.3946850393700787
0
LINE
8
BLACK
6
CONTINUOUS
10
2.9576771653543306
20
-1.3946850393700787
11
2.9576771653543306
21
-1.3789370078740157
0
LINE
8
BLACK
6
CONTINUOUS
10
2.9576771653543306
20
-1.3789370078740157
11
2.9582765354330709
21
-1.3759237401574802
0
LINE
8
BLACK
6
CONTINUOUS
10
2.9582765354330709
20
-1.3759237401574802
11
2.9599834251968504
21
-1.3733692519685039
0
LINE
8
BLACK
6
CONTINUOUS
10
2.9599834251968504
20
-1.3733692519685039
11
2.9625379133858267
21
-1.3716623622047244
0
LINE
8
BLACK
6
CONTINUOUS
10
2.9625379133858267
20
-1.3716623622047244
11
2.965551181102362
21
-1.3710629921259843
0
LINE
8
BLACK
6
CONTINUOUS
10
2.965551181102362
20
-1.3710629921259843
11
2.9872047244094486
21
-1.3710629921259843
0
LINE
8
BLACK
6
CONTINUOUS
10
2.9872047244094486
20
-1.3710629921259843
11
2.9902179921259844
21
-1.3716623622047244
0
LINE
8
BLACK
6
CONTINUOUS
10
3.3704724409448819
20
-1.3716535433070867
11
3.3114173228346457
21
-1.3716535433070867
0
LINE
8
BLACK
6
CONTINUOUS
10
3.3114173228346457
20
-1.3716535433070867
11
3.3114173228346457
21
-1.3362204724409448
0
LINE
8
BLACK
6
CONTINUOUS
10
3.3114173228346457
20
-1.3362204724409448
11
3.3704724409448819
21
-1.3362204724409448
0
LINE
8
BLACK
6
CONTINUOUS
10
3.3704724409448819
20
-1.3362204724409448
11
3.3704724409448819
21
-1.3716535433070867
0
LINE
8
BLACK
6
CONTINUOUS
10
2.9902179921259844
20
-1.3067017322834646
11
2.9927724803149607
21
-1.3084086220472442
0
LINE
8
BLACK
6
CONTINUOUS
10
2.9927724803149607
20
-1.3084086220472442
11
2.9944793700787402
21
-1.3109631102362205
0
LINE
8
BLACK
6
CONTINUOUS
10
2.9944793700787402
20
-1.3109631102362205
11
2.9950787401574801
21
-1.3139763779527558
0
LINE
8
BLACK
6
CONTINUOUS
10
2.9950787401574801
20
-1.3139763779527558
11
2.9950787401574801
21
-1.329724409448819
0
LINE
8
BLACK
6
CONTINUOUS
10
2.9950787401574801
20
-1.329724409448819
11
2.9944793700787402
21
-1.3327376771653543
0
LINE
8
BLACK
6
CONTINUOUS
10
2.9944793700787402
20
-1.3327376771653543
11
2.9927724803149607
21
-1.3352921653543306
0
LINE
8
BLACK
6
CONTINUOUS
10
2.9927724803149607
20
-1.3352921653543306
11
2.9902179921259844
21
-1.3369990551181101
0
LINE
8
BLACK
6
CONTINUOUS
10
2.9902179921259844
20
-1.3369990551181101
11
2.9872047244094486
21
-1.3375984251968505
0
LINE
8
BLACK
6
CONTINUOUS
10
2.9872047244094486
20
-1.3375984251968505
11
2.965551181102362
21
-1.3375984251968505
0
LINE
8
BLACK
6
CONTINUOUS
10
2.965551181102362
20
-1.3375984251968505
11
2.9625379133858267
21
-1.3369990551181101
0
LINE
8
BLACK
6
CONTINUOUS
10
2.9625379133858267
20
-1.3369990551181101
11
2.9599834251968504
21
-1.3352921653543306
0
LINE
8
BLACK
6
CONTINUOUS
10
2.9599834251968504
20
-1.3352921653543306
11
2.9582765354330709
21
-1.3327376771653543
0
LINE
8
BLACK
6
CONTINUOUS
10
2.9582765354330709
20
-1.3327376771653543
11
2.9576771653543306
21
-1.329724409448819
0
LINE
8
BLACK
6
CONTINUOUS
10
2.9576771653543306
20
-1.329724409448819
11
2.9576771653543306
21
-1.3139763779527558
0
LINE
8
BLACK
6
CONTINUOUS
10
2.9576771653543306
20
-1.3139763779527558
11
2.9582765354330709
21
-1.3109631102362205
0
LINE
8
BLACK
6
CONTINUOUS
10
2.9582765354330709
20
-1.3109631102362205
11
2.9599834251968504
21
-1.3084086220472442
0
LINE
8
BLACK
6
CONTINUOUS
10
2.9599834251968504
20
-1.3084086220472442
11
2.9625379133858267
21
-1.3067017322834646
0
LINE
8
BLACK
6
CONTINUOUS
10
2.9625379133858267
20
-1.3067017322834646
11
2.965551181102362
21
-1.3061023622047243
0
LINE
8
BLACK
6
CONTINUOUS
10
2.965551181102362
20
-1.3061023622047243
11
2.9872047244094486
21
-1.3061023622047243
0
LINE
8
BLACK
6
CONTINUOUS
10
2.9872047244094486
20
-1.3061023622047243
11
2.9902179921259844
21
-1.3067017322834646
0
LINE
8
BLACK
6
CONTINUOUS
10
1.199632716535433
20
-1.2920877952755905
11
1.2028258661417321
21
-1.2942213779527558
0
LINE
8
BLACK
6
CONTINUOUS
10
1.2028258661417321
20
-1.2942213779527558
11
1.2049594488188977
21
-1.2974145275590552
0
LINE
8
BLACK
6
CONTINUOUS
10
1.2049594488188977
20
-1.2974145275590552
11
1.2057086614173229
21
-1.3011811023622046
0
LINE
8
BLACK
6
CONTINUOUS
10
1.2057086614173229
20
-1.3011811023622046
11
1.2057086614173229
21
-1.3208661417322833
0
LINE
8
BLACK
6
CONTINUOUS
10
1.2057086614173229
20
-1.3208661417322833
11
1.2049594488188977
21
-1.324632716535433
0
LINE
8
BLACK
6
CONTINUOUS
10
1.2049594488188977
20
-1.324632716535433
11
1.2028258661417321
21
-1.3278258661417321
0
LINE
8
BLACK
6
CONTINUOUS
10
1.2028258661417321
20
-1.3278258661417321
11
1.199632716535433
21
-1.3299594488188977
0
LINE
8
BLACK
6
CONTINUOUS
10
1.199632716535433
20
-1.3299594488188977
11
1.1958661417322833
21
-1.3307086614173229
0
LINE
8
BLACK
6
CONTINUOUS
10
1.1958661417322833
20
-1.3307086614173229
11
1.1584645669291338
21
-1.3307086614173229
0
LINE
8
BLACK
6
CONTINUOUS
10
1.1584645669291338
20
-1.3307086614173229
11
1.1546979921259841
21
-1.3299594488188977
0
LINE
8
BLACK
6
CONTINUOUS
10
1.1546979921259841
20
-1.3299594488188977
11
1.151504842519685
21
-1.3278258661417321
0
LINE
8
BLACK
6
CONTINUOUS
10
1.151504842519685
20
-1.3278258661417321
11
1.1493712598425196
21
-1.324632716535433
0
LINE
8
BLACK
6
CONTINUOUS
10
1.1493712598425196
20
-1.324632716535433
11
1.1486220472440944
21
-1.3208661417322833
0
LINE
8
BLACK
6
CONTINUOUS
10
1.1486220472440944
20
-1.3208661417322833
11
1.1486220472440944
21
-1.3011811023622046
0
LINE
8
BLACK
6
CONTINUOUS
10
1.1486220472440944
20
-1.3011811023622046
11
1.1493712598425196
21
-1.2974145275590552
0
LINE
8
BLACK
6
CONTINUOUS
10
1.1493712598425196
20
-1.2974145275590552
11
1.151504842519685
21
-1.2942213779527558
0
LINE
8
BLACK
6
CONTINUOUS
10
1.151504842519685
20
-1.2942213779527558
11
1.1546979921259841
21
-1.2920877952755905
0
LINE
8
BLACK
6
CONTINUOUS
10
1.1546979921259841
20
-1.2920877952755905
11
1.1584645669291338
21
-1.2913385826771653
0
LINE
8
BLACK
6
CONTINUOUS
10
1.1584645669291338
20
-1.2913385826771653
11
1.1958661417322833
21
-1.2913385826771653
0
LINE
8
BLACK
6
CONTINUOUS
10
1.1958661417322833
20
-1.2913385826771653
11
1.199632716535433
21
-1.2920877952755905
0
LINE
8
BLACK
6
CONTINUOUS
10
3.3704724409448819
20
-1.3216535433070866
11
3.3114173228346457
21
-1.3216535433070866
0
LINE
8
BLACK
6
CONTINUOUS
10
3.3114173228346457
20
-1.3216535433070866
11
3.3114173228346457
21
-1.286220472440945
0
LINE
8
BLACK
6
CONTINUOUS
10
3.3114173228346457
20
-1.286220472440945
11
3.3704724409448819
21
-1.286220472440945
0
LINE
8
BLACK
6
CONTINUOUS
10
3.3704724409448819
20
-1.286220472440945
11
3.3704724409448819
21
-1.3216535433070866
0
LINE
8
BLACK
6
CONTINUOUS
10
3.3704724409448819
20
-1.2716535433070866
11
3.3114173228346457
21
-1.2716535433070866
0
LINE
8
BLACK
6
CONTINUOUS
10
3.3114173228346457
20
-1.2716535433070866
11
3.3114173228346457
21
-1.2362204724409449
0
LINE
8
BLACK
6
CONTINUOUS
10
3.3114173228346457
20
-1.2362204724409449
11
3.3704724409448819
21
-1.2362204724409449
0
LINE
8
BLACK
6
CONTINUOUS
10
3.3704724409448819
20
-1.2362204724409449
11
3.3704724409448819
21
-1.2716535433070866
0
LINE
8
BLACK
6
CONTINUOUS
10
1.2965354724409448
20
-1.2073066929133858
11
1.3009017322834646
21
-1.209441220472441
0
LINE
8
BLACK
6
CONTINUOUS
10
1.3009017322834646
20
-1.209441220472441
11
1.3043383070866141
21
-1.2128777952755905
0
LINE
8
BLACK
6
CONTINUOUS
10
1.3043383070866141
20
-1.2128777952755905
11
1.3064728346456693
21
-1.2172440551181103
0
LINE
8
BLACK
6
CONTINUOUS
10
1.3064728346456693
20
-1.2172440551181103
11
1.3070866141732282
21
-1.2214566929133859
0
LINE
8
BLACK
6
CONTINUOUS
10
1.3070866141732282
20
-1.2214566929133859
11
1.3070866141732282
21
-1.2509842519685039
0
LINE
8
BLACK
6
CONTINUOUS
10
1.3070866141732282
20
-1.2509842519685039
11
1.3064728346456693
21
-1.2551968897637795
0
LINE
8
BLACK
6
CONTINUOUS
10
1.3064728346456693
20
-1.2551968897637795
11
1.3043383070866141
21
-1.2595631496062991
0
LINE
8
BLACK
6
CONTINUOUS
10
1.3043383070866141
20
-1.2595631496062991
11
1.3009017322834646
21
-1.2629997244094489
0
LINE
8
BLACK
6
CONTINUOUS
10
1.3009017322834646
20
-1.2629997244094489
11
1.2965354724409448
21
-1.2651342519685038
0
LINE
8
BLACK
6
CONTINUOUS
10
1.2965354724409448
20
-1.2651342519685038
11
1.2923228346456692
21
-1.265748031496063
0
LINE
8
BLACK
6
CONTINUOUS
10
1.2923228346456692
20
-1.265748031496063
11
1.2431102362204725
21
-1.265748031496063
0
LINE
8
BLACK
6
CONTINUOUS
10
1.2431102362204725
20
-1.265748031496063
11
1.2388975984251969
21
-1.2651342519685038
0
LINE
8
BLACK
6
CONTINUOUS
10
1.2388975984251969
20
-1.2651342519685038
11
1.2345313385826771
21
-1.2629997244094489
0
LINE
8
BLACK
6
CONTINUOUS
10
1.2345313385826771
20
-1.2629997244094489
11
1.2310947637795275
21
-1.2595631496062991
0
LINE
8
BLACK
6
CONTINUOUS
10
1.2310947637795275
20
-1.2595631496062991
11
1.2289602362204723
21
-1.2551968897637795
0
LINE
8
BLACK
6
CONTINUOUS
10
1.2289602362204723
20
-1.2551968897637795
11
1.2283464566929134
21
-1.2509842519685039
0
LINE
8
BLACK
6
CONTINUOUS
10
1.2283464566929134
20
-1.2509842519685039
11
1.2283464566929134
21
-1.2214566929133859
0
LINE
8
BLACK
6
CONTINUOUS
10
1.2283464566929134
20
-1.2214566929133859
11
1.2289602362204723
21
-1.2172440551181103
0
LINE
8
BLACK
6
CONTINUOUS
10
1.2289602362204723
20
-1.2172440551181103
11
1.2310947637795275
21
-1.2128777952755905
0
LINE
8
BLACK
6
CONTINUOUS
10
1.2310947637795275
20
-1.2128777952755905
11
1.2345313385826771
21
-1.209441220472441
0
LINE
8
BLACK
6
CONTINUOUS
10
1.2345313385826771
20
-1.209441220472441
11
1.2388975984251969
21
-1.2073066929133858
0
LINE
8
BLACK
6
CONTINUOUS
10
1.2388975984251969
20
-1.2073066929133858
11
1.2431102362204725
21
-1.2066929133858268
0
LINE
8
BLACK
6
CONTINUOUS
10
1.2431102362204725
20
-1.2066929133858268
11
1.2923228346456692
21
-1.2066929133858268
0
LINE
8
BLACK
6
CONTINUOUS
10
1.2923228346456692
20
-1.2066929133858268
11
1.2965354724409448
21
-1.2073066929133858
0
LINE
8
BLACK
6
CONTINUOUS
10
1.199632716535433
20
-1.2172846456692914
11
1.2028258661417321
21
-1.2194182283464567
0
LINE
8
BLACK
6
CONTINUOUS
10
1.2028258661417321
20
-1.2194182283464567
11
1.2049594488188977
21
-1.2226113779527559
0
LINE
8
BLACK
6
CONTINUOUS
10
1.2049594488188977
20
-1.2226113779527559
11
1.2057086614173229
21
-1.2263779527559056
0
LINE
8
BLACK
6
CONTINUOUS
10
1.2057086614173229
20
-1.2263779527559056
11
1.2057086614173229
21
-1.2460629921259843
0
LINE
8
BLACK
6
CONTINUOUS
10
1.2057086614173229
20
-1.2460629921259843
11
1.2049594488188977
21
-1.2498295669291339
0
LINE
8
BLACK
6
CONTINUOUS
10
1.2049594488188977
20
-1.2498295669291339
11
1.2028258661417321
21
-1.2530227165354331
0
LINE
8
BLACK
6
CONTINUOUS
10
1.2028258661417321
20
-1.2530227165354331
11
1.199632716535433
21
-1.2551562992125984
0
LINE
8
BLACK
6
CONTINUOUS
10
1.199632716535433
20
-1.2551562992125984
11
1.1958661417322833
21
-1.2559055118110236
0
LINE
8
BLACK
6
CONTINUOUS
10
1.1958661417322833
20
-1.2559055118110236
11
1.1584645669291338
21
-1.2559055118110236
0
LINE
8
BLACK
6
CONTINUOUS
10
1.1584645669291338
20
-1.2559055118110236
11
1.1546979921259841
21
-1.2551562992125984
0
LINE
8
BLACK
6
CONTINUOUS
10
1.1546979921259841
20
-1.2551562992125984
11
1.151504842519685
21
-1.2530227165354331
0
LINE
8
BLACK
6
CONTINUOUS
10
1.151504842519685
20
-1.2530227165354331
11
1.1493712598425196
21
-1.2498295669291339
0
LINE
8
BLACK
6
CONTINUOUS
10
1.1493712598425196
20
-1.2498295669291339
11
1.1486220472440944
21
-1.2460629921259843
0
LINE
8
BLACK
6
CONTINUOUS
10
1.1486220472440944
20
-1.2460629921259843
11
1.1486220472440944
21
-1.2263779527559056
0
LINE
8
BLACK
6
CONTINUOUS
10
1.1486220472440944
20
-1.2263779527559056
11
1.1493712598425196
21
-1.2226113779527559
0
LINE
8
BLACK
6
CONTINUOUS
10
1.1493712598425196
20
-1.2226113779527559
11
1.151504842519685
21
-1.2194182283464567
0
LINE
8
BLACK
6
CONTINUOUS
10
1.151504842519685
20
-1.2194182283464567
11
1.1546979921259841
21
-1.2172846456692914
0
LINE
8
BLACK
6
CONTINUOUS
10
1.1546979921259841
20
-1.2172846456692914
11
1.1584645669291338
21
-1.2165354330708662
0
LINE
8
BLACK
6
CONTINUOUS
10
1.1584645669291338
20
-1.2165354330708662
11
1.1958661417322833
21
-1.2165354330708662
0
LINE
8
BLACK
6
CONTINUOUS
10
1.1958661417322833
20
-1.2165354330708662
11
1.199632716535433
21
-1.2172846456692914
0
LINE
8
BLACK
6
CONTINUOUS
10
3.3704724409448819
20
-1.2216535433070865
11
3.3114173228346457
21
-1.2216535433070865
0
LINE
8
BLACK
6
CONTINUOUS
10
3.3114173228346457
20
-1.2216535433070865
11
3.3114173228346457
21
-1.1862204724409449
0
LINE
8
BLACK
6
CONTINUOUS
10
3.3114173228346457
20
-1.1862204724409449
11
3.3704724409448819
21
-1.1862204724409449
0
LINE
8
BLACK
6
CONTINUOUS
10
3.3704724409448819
20
-1.1862204724409449
11
3.3704724409448819
21
-1.2216535433070865
0
LINE
8
BLACK
6
CONTINUOUS
10
1.539617440944882
20
-1.0713160236220471
11
1.5448670866141732
21
-1.0732740551181101
0
LINE
8
BLACK
6
CONTINUOUS
10
1.5448670866141732
20
-1.0732740551181101
11
1.5493524803149605
21
-1.0766317716535432
0
LINE
8
BLACK
6
CONTINUOUS
10
1.5493524803149605
20
-1.0766317716535432
11
1.5527101968503936
21
-1.0811171653543308
0
LINE
8
BLACK
6
CONTINUOUS
10
1.5527101968503936
20
-1.0811171653543308
11
1.5546682283464566
21
-1.086366811023622
0
LINE
8
BLACK
6
CONTINUOUS
10
1.5546682283464566
20
-1.086366811023622
11
1.5551181102362204
21
-1.0905511811023623
0
LINE
8
BLACK
6
CONTINUOUS
10
1.5551181102362204
20
-1.0905511811023623
11
1.5551181102362204
21
-1.200787401574803
0
LINE
8
BLACK
6
CONTINUOUS
10
1.5551181102362204
20
-1.200787401574803
11
1.5546682283464566
21
-1.2049717716535433
0
LINE
8
BLACK
6
CONTINUOUS
10
1.5546682283464566
20
-1.2049717716535433
11
1.5527101968503936
21
-1.2102214173228347
0
LINE
8
BLACK
6
CONTINUOUS
10
1.5527101968503936
20
-1.2102214173228347
11
1.5493524803149605
21
-1.2147068110236221
0
LINE
8
BLACK
6
CONTINUOUS
10
1.5493524803149605
20
-1.2147068110236221
11
1.5448670866141732
21
-1.2180645275590551
0
LINE
8
BLACK
6
CONTINUOUS
10
1.5448670866141732
20
-1.2180645275590551
11
1.539617440944882
21
-1.2200225590551181
0
LINE
8
BLACK
6
CONTINUOUS
10
1.539617440944882
20
-1.2200225590551181
11
1.5354330708661417
21
-1.2204724409448819
0
LINE
8
BLACK
6
CONTINUOUS
10
1.5354330708661417
20
-1.2204724409448819
11
1.4960629921259843
21
-1.2204724409448819
0
LINE
8
BLACK
6
CONTINUOUS
10
1.4960629921259843
20
-1.2204724409448819
11
1.491878622047244
21
-1.2200225590551181
0
LINE
8
BLACK
6
CONTINUOUS
10
1.491878622047244
20
-1.2200225590551181
11
1.4866289763779528
21
-1.2180645275590551
0
LINE
8
BLACK
6
CONTINUOUS
10
1.4866289763779528
20
-1.2180645275590551
11
1.4821435826771654
21
-1.2147068110236221
0
LINE
8
BLACK
6
CONTINUOUS
10
1.4821435826771654
20
-1.2147068110236221
11
1.4787858661417324
21
-1.2102214173228347
0
LINE
8
BLACK
6
CONTINUOUS
10
1.4787858661417324
20
-1.2102214173228347
11
1.4768278346456694
21
-1.2049717716535433
0
LINE
8
BLACK
6
CONTINUOUS
10
1.4768278346456694
20
-1.2049717716535433
11
1.4763779527559056
21
-1.200787401574803
0
LINE
8
BLACK
6
CONTINUOUS
10
1.4763779527559056
20
-1.200787401574803
11
1.4763779527559056
21
-1.0905511811023623
0
LINE
8
BLACK
6
CONTINUOUS
10
1.4763779527559056
20
-1.0905511811023623
11
1.4768278346456694
21
-1.086366811023622
0
LINE
8
BLACK
6
CONTINUOUS
10
1.4768278346456694
20
-1.086366811023622
11
1.4787858661417324
21
-1.0811171653543308
0
LINE
8
BLACK
6
CONTINUOUS
10
1.4787858661417324
20
-1.0811171653543308
11
1.4821435826771654
21
-1.0766317716535432
0
LINE
8
BLACK
6
CONTINUOUS
10
1.4821435826771654
20
-1.0766317716535432
11
1.4866289763779528
21
-1.0732740551181101
0
LINE
8
BLACK
6
CONTINUOUS
10
1.4866289763779528
20
-1.0732740551181101
11
1.491878622047244
21
-1.0713160236220471
0
LINE
8
BLACK
6
CONTINUOUS
10
1.491878622047244
20
-1.0713160236220471
11
1.4960629921259843
21
-1.0708661417322833
0
LINE
8
BLACK
6
CONTINUOUS
10
1.4960629921259843
20
-1.0708661417322833
11
1.5354330708661417
21
-1.0708661417322833
0
LINE
8
BLACK
6
CONTINUOUS
10
1.5354330708661417
20
-1.0708661417322833
11
1.539617440944882
21
-1.0713160236220471
0
LINE
8
BLACK
6
CONTINUOUS
10
1.2965354724409448
20
-1.1167555118110235
11
1.3009017322834646
21
-1.1188900393700787
0
LINE
8
BLACK
6
CONTINUOUS
10
1.3009017322834646
20
-1.1188900393700787
11
1.3043383070866141
21
-1.1223266141732284
0
LINE
8
BLACK
6
CONTINUOUS
10
1.3043383070866141
20
-1.1223266141732284
11
1.3064728346456693
21
-1.126692874015748
0
LINE
8
BLACK
6
CONTINUOUS
10
1.3064728346456693
20
-1.126692874015748
11
1.3070866141732282
21
-1.1309055118110236
0
LINE
8
BLACK
6
CONTINUOUS
10
1.3070866141732282
20
-1.1309055118110236
11
1.3070866141732282
21
-1.1604330708661417
0
LINE
8
BLACK
6
CONTINUOUS
10
1.3070866141732282
20
-1.1604330708661417
11
1.3064728346456693
21
-1.1646457086614173
0
LINE
8
BLACK
6
CONTINUOUS
10
1.3064728346456693
20
-1.1646457086614173
11
1.3043383070866141
21
-1.1690119685039371
0
LINE
8
BLACK
6
CONTINUOUS
10
1.3043383070866141
20
-1.1690119685039371
11
1.3009017322834646
21
-1.1724485433070866
0
LINE
8
BLACK
6
CONTINUOUS
10
1.3009017322834646
20
-1.1724485433070866
11
1.2965354724409448
21
-1.1745830708661418
0
LINE
8
BLACK
6
CONTINUOUS
10
1.2965354724409448
20
-1.1745830708661418
11
1.2923228346456692
21
-1.1751968503937007
0
LINE
8
BLACK
6
CONTINUOUS
10
1.2923228346456692
20
-1.1751968503937007
11
1.2431102362204725
21
-1.1751968503937007
0
LINE
8
BLACK
6
CONTINUOUS
10
1.2431102362204725
20
-1.1751968503937007
11
1.2388975984251969
21
-1.1745830708661418
0
LINE
8
BLACK
6
CONTINUOUS
10
1.2388975984251969
20
-1.1745830708661418
11
1.2345313385826771
21
-1.1724485433070866
0
LINE
8
BLACK
6
CONTINUOUS
10
1.2345313385826771
20
-1.1724485433070866
11
1.2310947637795275
21
-1.1690119685039371
0
LINE
8
BLACK
6
CONTINUOUS
10
1.2310947637795275
20
-1.1690119685039371
11
1.2289602362204723
21
-1.1646457086614173
0
LINE
8
BLACK
6
CONTINUOUS
10
1.2289602362204723
20
-1.1646457086614173
11
1.2283464566929134
21
-1.1604330708661417
0
LINE
8
BLACK
6
CONTINUOUS
10
1.2283464566929134
20
-1.1604330708661417
11
1.2283464566929134
21
-1.1309055118110236
0
LINE
8
BLACK
6
CONTINUOUS
10
1.2283464566929134
20
-1.1309055118110236
11
1.2289602362204723
21
-1.126692874015748
0
LINE
8
BLACK
6
CONTINUOUS
10
1.2289602362204723
20
-1.126692874015748
11
1.2310947637795275
21
-1.1223266141732284
0
LINE
8
BLACK
6
CONTINUOUS
10
1.2310947637795275
20
-1.1223266141732284
11
1.2345313385826771
21
-1.1188900393700787
0
LINE
8
BLACK
6
CONTINUOUS
10
1.2345313385826771
20
-1.1188900393700787
11
1.2388975984251969
21
-1.1167555118110235
0
LINE
8
BLACK
6
CONTINUOUS
10
1.2388975984251969
20
-1.1167555118110235
11
1.2431102362204725
21
-1.1161417322834646
0
LINE
8
BLACK
6
CONTINUOUS
10
1.2431102362204725
20
-1.1161417322834646
11
1.2923228346456692
21
-1.1161417322834646
0
LINE
8
BLACK
6
CONTINUOUS
10
1.2923228346456692
20
-1.1161417322834646
11
1.2965354724409448
21
-1.1167555118110235
0
LINE
8
BLACK
6
CONTINUOUS
10
3.3704724409448819
20
-1.1716535433070865
11
3.3114173228346457
21
-1.1716535433070865
0
LINE
8
BLACK
6
CONTINUOUS
10
3.3114173228346457
20
-1.1716535433070865
11
3.3114173228346457
21
-1.1362204724409448
0
LINE
8
BLACK
6
CONTINUOUS
10
3.3114173228346457
20
-1.1362204724409448
11
3.3704724409448819
21
-1.1362204724409448
0
LINE
8
BLACK
6
CONTINUOUS
10
3.3704724409448819
20
-1.1362204724409448
11
3.3704724409448819
21
-1.1716535433070865
0
LINE
8
BLACK
6
CONTINUOUS
10
1.1897901968503937
20
-1.1149224409448819
11
1.1929833464566928
21
-1.1170560236220473
0
LINE
8
BLACK
6
CONTINUOUS
10
1.1929833464566928
20
-1.1170560236220473
11
1.1951169291338581
21
-1.1202491732283464
0
LINE
8
BLACK
6
CONTINUOUS
10
1.1951169291338581
20
-1.1202491732283464
11
1.1958661417322833
21
-1.1240157480314961
0
LINE
8
BLACK
6
CONTINUOUS
10
1.1958661417322833
20
-1.1240157480314961
11
1.1958661417322833
21
-1.1594488188976377
0
LINE
8
BLACK
6
CONTINUOUS
10
1.1958661417322833
20
-1.1594488188976377
11
1.1951169291338581
21
-1.1632153937007874
0
LINE
8
BLACK
6
CONTINUOUS
10
1.1951169291338581
20
-1.1632153937007874
11
1.1929833464566928
21
-1.1664085433070865
0
LINE
8
BLACK
6
CONTINUOUS
10
1.1929833464566928
20
-1.1664085433070865
11
1.1897901968503937
21
-1.1685421259842519
0
LINE
8
BLACK
6
CONTINUOUS
10
1.1897901968503937
20
-1.1685421259842519
11
1.186023622047244
21
-1.1692913385826771
0
LINE
8
BLACK
6
CONTINUOUS
10
1.186023622047244
20
-1.1692913385826771
11
1.1525590551181102
21
-1.1692913385826771
0
LINE
8
BLACK
6
CONTINUOUS
10
1.1525590551181102
20
-1.1692913385826771
11
1.1487924803149605
21
-1.1685421259842519
0
LINE
8
BLACK
6
CONTINUOUS
10
1.1487924803149605
20
-1.1685421259842519
11
1.1455993307086614
21
-1.1664085433070865
0
LINE
8
BLACK
6
CONTINUOUS
10
1.1455993307086614
20
-1.1664085433070865
11
1.143465748031496
21
-1.1632153937007874
0
LINE
8
BLACK
6
CONTINUOUS
10
1.143465748031496
20
-1.1632153937007874
11
1.1427165354330708
21
-1.1594488188976377
0
LINE
8
BLACK
6
CONTINUOUS
10
1.1427165354330708
20
-1.1594488188976377
11
1.1427165354330708
21
-1.1240157480314961
0
LINE
8
BLACK
6
CONTINUOUS
10
1.1427165354330708
20
-1.1240157480314961
11
1.143465748031496
21
-1.1202491732283464
0
LINE
8
BLACK
6
CONTINUOUS
10
1.143465748031496
20
-1.1202491732283464
11
1.1455993307086614
21
-1.1170560236220473
0
LINE
8
BLACK
6
CONTINUOUS
10
1.1455993307086614
20
-1.1170560236220473
11
1.1487924803149605
21
-1.1149224409448819
0
LINE
8
BLACK
6
CONTINUOUS
10
1.1487924803149605
20
-1.1149224409448819
11
1.1525590551181102
21
-1.1141732283464567
0
LINE
8
BLACK
6
CONTINUOUS
10
1.1525590551181102
20
-1.1141732283464567
11
1.186023622047244
21
-1.1141732283464567
0
LINE
8
BLACK
6
CONTINUOUS
10
1.186023622047244
20
-1.1141732283464567
11
1.1897901968503937
21
-1.1149224409448819
0
LINE
8
BLACK
6
CONTINUOUS
10
3.3704724409448819
20
-1.1216535433070867
11
3.3114173228346457
21
-1.1216535433070867
0
LINE
8
BLACK
6
CONTINUOUS
10
3.3114173228346457
20
-1.1216535433070867
11
3.3114173228346457
21
-1.0862204724409448
0
LINE
8
BLACK
6
CONTINUOUS
10
3.3114173228346457
20
-1.0862204724409448
11
3.3704724409448819
21
-1.0862204724409448
0
LINE
8
BLACK
6
CONTINUOUS
10
3.3704724409448819
20
-1.0862204724409448
11
3.3704724409448819
21
-1.1216535433070867
0
LINE
8
BLACK
6
CONTINUOUS
10
1.2965354724409448
20
-1.0262043307086615
11
1.3009017322834646
21
-1.0283388582677164
0
LINE
8
BLACK
6
CONTINUOUS
10
1.3009017322834646
20
-1.0283388582677164
11
1.3043383070866141
21
-1.0317754330708662
0
LINE
8
BLACK
6
CONTINUOUS
10
1.3043383070866141
20
-1.0317754330708662
11
1.3064728346456693
21
-1.0361416929133858
0
LINE
8
BLACK
6
CONTINUOUS
10
1.3064728346456693
20
-1.0361416929133858
11
1.3070866141732282
21
-1.0403543307086613
0
LINE
8
BLACK
6
CONTINUOUS
10
1.3070866141732282
20
-1.0403543307086613
11
1.3070866141732282
21
-1.0698818897637794
0
LINE
8
BLACK
6
CONTINUOUS
10
1.3070866141732282
20
-1.0698818897637794
11
1.3064728346456693
21
-1.074094527559055
0
LINE
8
BLACK
6
CONTINUOUS
10
1.3064728346456693
20
-1.074094527559055
11
1.3043383070866141
21
-1.0784607874015748
0
LINE
8
BLACK
6
CONTINUOUS
10
1.3043383070866141
20
-1.0784607874015748
11
1.3009017322834646
21
-1.0818973622047243
0
LINE
8
BLACK
6
CONTINUOUS
10
1.3009017322834646
20
-1.0818973622047243
11
1.2965354724409448
21
-1.0840318897637795
0
LINE
8
BLACK
6
CONTINUOUS
10
1.2965354724409448
20
-1.0840318897637795
11
1.2923228346456692
21
-1.0846456692913387
0
LINE
8
BLACK
6
CONTINUOUS
10
1.2923228346456692
20
-1.0846456692913387
11
1.2431102362204725
21
-1.0846456692913387
0
LINE
8
BLACK
6
CONTINUOUS
10
1.2431102362204725
20
-1.0846456692913387
11
1.2388975984251969
21
-1.0840318897637795
0
LINE
8
BLACK
6
CONTINUOUS
10
1.2388975984251969
20
-1.0840318897637795
11
1.2345313385826771
21
-1.0818973622047243
0
LINE
8
BLACK
6
CONTINUOUS
10
1.2345313385826771
20
-1.0818973622047243
11
1.2310947637795275
21
-1.0784607874015748
0
LINE
8
BLACK
6
CONTINUOUS
10
1.2310947637795275
20
-1.0784607874015748
11
1.2289602362204723
21
-1.074094527559055
0
LINE
8
BLACK
6
CONTINUOUS
10
1.2289602362204723
20
-1.074094527559055
11
1.2283464566929134
21
-1.0698818897637794
0
LINE
8
BLACK
6
CONTINUOUS
10
1.2283464566929134
20
-1.0698818897637794
11
1.2283464566929134
21
-1.0403543307086613
0
LINE
8
BLACK
6
CONTINUOUS
10
1.2283464566929134
20
-1.0403543307086613
11
1.2289602362204723
21
-1.0361416929133858
0
LINE
8
BLACK
6
CONTINUOUS
10
1.2289602362204723
20
-1.0361416929133858
11
1.2310947637795275
21
-1.0317754330708662
0
LINE
8
BLACK
6
CONTINUOUS
10
1.2310947637795275
20
-1.0317754330708662
11
1.2345313385826771
21
-1.0283388582677164
0
LINE
8
BLACK
6
CONTINUOUS
10
1.2345313385826771
20
-1.0283388582677164
11
1.2388975984251969
21
-1.0262043307086615
0
LINE
8
BLACK
6
CONTINUOUS
10
1.2388975984251969
20
-1.0262043307086615
11
1.2431102362204725
21
-1.0255905511811023
0
LINE
8
BLACK
6
CONTINUOUS
10
1.2431102362204725
20
-1.0255905511811023
11
1.2923228346456692
21
-1.0255905511811023
0
LINE
8
BLACK
6
CONTINUOUS
10
1.2923228346456692
20
-1.0255905511811023
11
1.2965354724409448
21
-1.0262043307086615
0
LINE
8
BLACK
6
CONTINUOUS
10
1.1897901968503937
20
-1.0086232283464567
11
1.1929833464566928
21
-1.010756811023622
0
LINE
8
BLACK
6
CONTINUOUS
10
1.1929833464566928
20
-1.010756811023622
11
1.1951169291338581
21
-1.0139499606299212
0
LINE
8
BLACK
6
CONTINUOUS
10
1.1951169291338581
20
-1.0139499606299212
11
1.1958661417322833
21
-1.0177165354330708
0
LINE
8
BLACK
6
CONTINUOUS
10
1.1958661417322833
20
-1.0177165354330708
11
1.1958661417322833
21
-1.0531496062992125
0
LINE
8
BLACK
6
CONTINUOUS
10
1.1958661417322833
20
-1.0531496062992125
11
1.1951169291338581
21
-1.0569161811023622
0
LINE
8
BLACK
6
CONTINUOUS
10
1.1951169291338581
20
-1.0569161811023622
11
1.1929833464566928
21
-1.0601093307086613
0
LINE
8
BLACK
6
CONTINUOUS
10
1.1929833464566928
20
-1.0601093307086613
11
1.1897901968503937
21
-1.0622429133858267
0
LINE
8
BLACK
6
CONTINUOUS
10
1.1897901968503937
20
-1.0622429133858267
11
1.186023622047244
21
-1.0629921259842519
0
LINE
8
BLACK
6
CONTINUOUS
10
1.186023622047244
20
-1.0629921259842519
11
1.1525590551181102
21
-1.0629921259842519
0
LINE
8
BLACK
6
CONTINUOUS
10
1.1525590551181102
20
-1.0629921259842519
11
1.1487924803149605
21
-1.0622429133858267
0
LINE
8
BLACK
6
CONTINUOUS
10
1.1487924803149605
20
-1.0622429133858267
11
1.1455993307086614
21
-1.0601093307086613
0
LINE
8
BLACK
6
CONTINUOUS
10
1.1455993307086614
20
-1.0601093307086613
11
1.143465748031496
21
-1.0569161811023622
0
LINE
8
BLACK
6
CONTINUOUS
10
1.143465748031496
20
-1.0569161811023622
11
1.1427165354330708
21
-1.0531496062992125
0
LINE
8
BLACK
6
CONTINUOUS
10
1.1427165354330708
20
-1.0531496062992125
11
1.1427165354330708
21
-1.0177165354330708
0
LINE
8
BLACK
6
CONTINUOUS
10
1.1427165354330708
20
-1.0177165354330708
11
1.143465748031496
21
-1.0139499606299212
0
LINE
8
BLACK
6
CONTINUOUS
10
1.143465748031496
20
-1.0139499606299212
11
1.1455993307086614
21
-1.010756811023622
0
LINE
8
BLACK
6
CONTINUOUS
10
1.1455993307086614
20
-1.010756811023622
11
1.1487924803149605
21
-1.0086232283464567
0
LINE
8
BLACK
6
CONTINUOUS
10
1.1487924803149605
20
-1.0086232283464567
11
1.1525590551181102
21
-1.0078740157480315
0
LINE
8
BLACK
6
CONTINUOUS
10
1.1525590551181102
20
-1.0078740157480315
11
1.186023622047244
21
-1.0078740157480315
0
LINE
8
BLACK
6
CONTINUOUS
10
1.186023622047244
20
-1.0078740157480315
11
1.1897901968503937
21
-1.0086232283464567
0
LINE
8
BLACK
6
CONTINUOUS
10
3.4078740157480314
20
-1.0137795275590551
11
3.3724409448818897
21
-1.0137795275590551
0
LINE
8
BLACK
6
CONTINUOUS
10
3.3724409448818897
20
-1.0137795275590551
11
3.3724409448818897
21
-0.9547244094488189
0
LINE
8
BLACK
6
CONTINUOUS
10
3.3724409448818897
20
-0.9547244094488189
11
3.4078740157480314
21
-0.9547244094488189
0
LINE
8
BLACK
6
CONTINUOUS
10
3.4078740157480314
20
-0.9547244094488189
11
3.4078740157480314
21
-1.0137795275590551
0
LINE
8
BLACK
6
CONTINUOUS
10
3.4578740157480312
20
-1.0137795275590551
11
3.4224409448818895
21
-1.0137795275590551
0
LINE
8
BLACK
6
CONTINUOUS
10
3.4224409448818895
20
-1.0137795275590551
11
3.4224409448818895
21
-0.9547244094488189
0
LINE
8
BLACK
6
CONTINUOUS
10
3.4224409448818895
20
-0.9547244094488189
11
3.4578740157480312
21
-0.9547244094488189
0
LINE
8
BLACK
6
CONTINUOUS
10
3.4578740157480312
20
-0.9547244094488189
11
3.4578740157480312
21
-1.0137795275590551
0
LINE
8
BLACK
6
CONTINUOUS
10
3.5078740157480315
20
-1.0137795275590551
11
3.4724409448818898
21
-1.0137795275590551
0
LINE
8
BLACK
6
CONTINUOUS
10
3.4724409448818898
20
-1.0137795275590551
11
3.4724409448818898
21
-0.9547244094488189
0
LINE
8
BLACK
6
CONTINUOUS
10
3.4724409448818898
20
-0.9547244094488189
11
3.5078740157480315
21
-0.9547244094488189
0
LINE
8
BLACK
6
CONTINUOUS
10
3.5078740157480315
20
-0.9547244094488189
11
3.5078740157480315
21
-1.0137795275590551
0
LINE
8
BLACK
6
CONTINUOUS
10
3.5578740157480313
20
-1.0137795275590551
11
3.5224409448818896
21
-1.0137795275590551
0
LINE
8
BLACK
6
CONTINUOUS
10
3.5224409448818896
20
-1.0137795275590551
11
3.5224409448818896
21
-0.9547244094488189
0
LINE
8
BLACK
6
CONTINUOUS
10
3.5224409448818896
20
-0.9547244094488189
11
3.5578740157480313
21
-0.9547244094488189
0
LINE
8
BLACK
6
CONTINUOUS
10
3.5578740157480313
20
-0.9547244094488189
11
3.5578740157480313
21
-1.0137795275590551
0
LINE
8
BLACK
6
CONTINUOUS
10
3.6078740157480316
20
-1.0137795275590551
11
3.5724409448818899
21
-1.0137795275590551
0
LINE
8
BLACK
6
CONTINUOUS
10
3.5724409448818899
20
-1.0137795275590551
11
3.5724409448818899
21
-0.9547244094488189
0
LINE
8
BLACK
6
CONTINUOUS
10
3.5724409448818899
20
-0.9547244094488189
11
3.6078740157480316
21
-0.9547244094488189
0
LINE
8
BLACK
6
CONTINUOUS
10
3.6078740157480316
20
-0.9547244094488189
11
3.6078740157480316
21
-1.0137795275590551
0
LINE
8
BLACK
6
CONTINUOUS
10
3.6578740157480314
20
-1.0137795275590551
11
3.6224409448818897
21
-1.0137795275590551
0
LINE
8
BLACK
6
CONTINUOUS
10
3.6224409448818897
20
-1.0137795275590551
11
3.6224409448818897
21
-0.9547244094488189
0
LINE
8
BLACK
6
CONTINUOUS
10
3.6224409448818897
20
-0.9547244094488189
11
3.6578740157480314
21
-0.9547244094488189
0
LINE
8
BLACK
6
CONTINUOUS
10
3.6578740157480314
20
-0.9547244094488189
11
3.6578740157480314
21
-1.0137795275590551
0
LINE
8
BLACK
6
CONTINUOUS
10
3.7078740157480312
20
-1.0137795275590551
11
3.6724409448818895
21
-1.0137795275590551
0
LINE
8
BLACK
6
CONTINUOUS
10
3.6724409448818895
20
-1.0137795275590551
11
3.6724409448818895
21
-0.9547244094488189
0
LINE
8
BLACK
6
CONTINUOUS
10
3.6724409448818895
20
-0.9547244094488189
11
3.7078740157480312
21
-0.9547244094488189
0
LINE
8
BLACK
6
CONTINUOUS
10
3.7078740157480312
20
-0.9547244094488189
11
3.7078740157480312
21
-1.0137795275590551
0
LINE
8
BLACK
6
CONTINUOUS
10
3.7578740157480315
20
-1.0137795275590551
11
3.7224409448818898
21
-1.0137795275590551
0
LINE
8
BLACK
6
CONTINUOUS
10
3.7224409448818898
20
-1.0137795275590551
11
3.7224409448818898
21
-0.9547244094488189
0
LINE
8
BLACK
6
CONTINUOUS
10
3.7224409448818898
20
-0.9547244094488189
11
3.7578740157480315
21
-0.9547244094488189
0
LINE
8
BLACK
6
CONTINUOUS
10
3.7578740157480315
20
-0.9547244094488189
11
3.7578740157480315
21
-1.0137795275590551
0
LINE
8
BLACK
6
CONTINUOUS
10
3.8078740157480313
20
-1.0137795275590551
11
3.7724409448818896
21
-1.0137795275590551
0
LINE
8
BLACK
6
CONTINUOUS
10
3.7724409448818896
20
-1.0137795275590551
11
3.7724409448818896
21
-0.9547244094488189
0
LINE
8
BLACK
6
CONTINUOUS
10
3.7724409448818896
20
-0.9547244094488189
11
3.8078740157480313
21
-0.9547244094488189
0
LINE
8
BLACK
6
CONTINUOUS
10
3.8078740157480313
20
-0.9547244094488189
11
3.8078740157480313
21
-1.0137795275590551
0
LINE
8
BLACK
6
CONTINUOUS
10
3.8578740157480316
20
-1.0137795275590551
11
3.8224409448818895
21
-1.0137795275590551
0
LINE
8
BLACK
6
CONTINUOUS
10
3.8224409448818895
20
-1.0137795275590551
11
3.8224409448818895
21
-0.9547244094488189
0
LINE
8
BLACK
6
CONTINUOUS
10
3.8224409448818895
20
-0.9547244094488189
11
3.8578740157480316
21
-0.9547244094488189
0
LINE
8
BLACK
6
CONTINUOUS
10
3.8578740157480316
20
-0.9547244094488189
11
3.8578740157480316
21
-1.0137795275590551
0
LINE
8
BLACK
6
CONTINUOUS
10
3.9078740157480314
20
-1.0137795275590551
11
3.8724409448818897
21
-1.0137795275590551
0
LINE
8
BLACK
6
CONTINUOUS
10
3.8724409448818897
20
-1.0137795275590551
11
3.8724409448818897
21
-0.9547244094488189
0
LINE
8
BLACK
6
CONTINUOUS
10
3.8724409448818897
20
-0.9547244094488189
11
3.9078740157480314
21
-0.9547244094488189
0
LINE
8
BLACK
6
CONTINUOUS
10
3.9078740157480314
20
-0.9547244094488189
11
3.9078740157480314
21
-1.0137795275590551
0
LINE
8
BLACK
6
CONTINUOUS
10
3.9578740157480312
20
-1.0137795275590551
11
3.9224409448818895
21
-1.0137795275590551
0
LINE
8
BLACK
6
CONTINUOUS
10
3.9224409448818895
20
-1.0137795275590551
11
3.9224409448818895
21
-0.9547244094488189
0
LINE
8
BLACK
6
CONTINUOUS
10
3.9224409448818895
20
-0.9547244094488189
11
3.9578740157480312
21
-0.9547244094488189
0
LINE
8
BLACK
6
CONTINUOUS
10
3.9578740157480312
20
-0.9547244094488189
11
3.9578740157480312
21
-1.0137795275590551
0
LINE
8
BLACK
6
CONTINUOUS
10
4.0078740157480315
20
-1.0137795275590551
11
3.9724409448818898
21
-1.0137795275590551
0
LINE
8
BLACK
6
CONTINUOUS
10
3.9724409448818898
20
-1.0137795275590551
11
3.9724409448818898
21
-0.9547244094488189
0
LINE
8
BLACK
6
CONTINUOUS
10
3.9724409448818898
20
-0.9547244094488189
11
4.0078740157480315
21
-0.9547244094488189
0
LINE
8
BLACK
6
CONTINUOUS
10
4.0078740157480315
20
-0.9547244094488189
11
4.0078740157480315
21
-1.0137795275590551
0
LINE
8
BLACK
6
CONTINUOUS
10
4.0578740157480313
20
-1.0137795275590551
11
4.0224409448818896
21
-1.0137795275590551
0
LINE
8
BLACK
6
CONTINUOUS
10
4.0224409448818896
20
-1.0137795275590551
11
4.0224409448818896
21
-0.9547244094488189
0
LINE
8
BLACK
6
CONTINUOUS
10
4.0224409448818896
20
-0.9547244094488189
11
4.0578740157480313
21
-0.9547244094488189
0
LINE
8
BLACK
6
CONTINUOUS
10
4.0578740157480313
20
-0.9547244094488189
11
4.0578740157480313
21
-1.0137795275590551
0
LINE
8
BLACK
6
CONTINUOUS
10
1.3012416141732284
20
-0.9356387401574803
11
1.3037961023622047
21
-0.9373456299212598
0
LINE
8
BLACK
6
CONTINUOUS
10
1.3037961023622047
20
-0.9373456299212598
11
1.3055029921259842
21
-0.9399001181102362
0
LINE
8
BLACK
6
CONTINUOUS
10
1.3055029921259842
20
-0.9399001181102362
11
1.3061023622047243
21
-0.9429133858267716
0
LINE
8
BLACK
6
CONTINUOUS
10
1.3061023622047243
20
-0.9429133858267716
11
1.3061023622047243
21
-0.9586614173228346
0
LINE
8
BLACK
6
CONTINUOUS
10
1.3061023622047243
20
-0.9586614173228346
11
1.3055029921259842
21
-0.96167468503937
0
LINE
8
BLACK
6
CONTINUOUS
10
1.3055029921259842
20
-0.96167468503937
11
1.3037961023622047
21
-0.9642291732283464
0
LINE
8
BLACK
6
CONTINUOUS
10
1.3037961023622047
20
-0.9642291732283464
11
1.3012416141732284
21
-0.965936062992126
0
LINE
8
BLACK
6
CONTINUOUS
10
1.3012416141732284
20
-0.965936062992126
11
1.2982283464566928
21
-0.9665354330708661
0
LINE
8
BLACK
6
CONTINUOUS
10
1.2982283464566928
20
-0.9665354330708661
11
1.2765748031496063
21
-0.9665354330708661
0
LINE
8
BLACK
6
CONTINUOUS
10
1.2765748031496063
20
-0.9665354330708661
11
1.2735615354330709
21
-0.965936062992126
0
LINE
8
BLACK
6
CONTINUOUS
10
1.2735615354330709
20
-0.965936062992126
11
1.2710070472440944
21
-0.9642291732283464
0
LINE
8
BLACK
6
CONTINUOUS
10
1.2710070472440944
20
-0.9642291732283464
11
1.2693001574803149
21
-0.96167468503937
0
LINE
8
BLACK
6
CONTINUOUS
10
1.2693001574803149
20
-0.96167468503937
11
1.2687007874015748
21
-0.9586614173228346
0
LINE
8
BLACK
6
CONTINUOUS
10
1.2687007874015748
20
-0.9586614173228346
11
1.2687007874015748
21
-0.9429133858267716
0
LINE
8
BLACK
6
CONTINUOUS
10
1.2687007874015748
20
-0.9429133858267716
11
1.2693001574803149
21
-0.9399001181102362
0
LINE
8
BLACK
6
CONTINUOUS
10
1.2693001574803149
20
-0.9399001181102362
11
1.2710070472440944
21
-0.9373456299212598
0
LINE
8
BLACK
6
CONTINUOUS
10
1.2710070472440944
20
-0.9373456299212598
11
1.2735615354330709
21
-0.9356387401574803
0
LINE
8
BLACK
6
CONTINUOUS
10
1.2735615354330709
20
-0.9356387401574803
11
1.2765748031496063
21
-0.9350393700787402
0
LINE
8
BLACK
6
CONTINUOUS
10
1.2765748031496063
20
-0.9350393700787402
11
1.2982283464566928
21
-0.9350393700787402
0
LINE
8
BLACK
6
CONTINUOUS
10
1.2982283464566928
20
-0.9350393700787402
11
1.3012416141732284
21
-0.9356387401574803
0
LINE
8
BLACK
6
CONTINUOUS
10
1.5295260629921259
20
-0.9254094881889764
11
1.5323200787401574
21
-0.9272763779527559
0
LINE
8
BLACK
6
CONTINUOUS
10
1.5323200787401574
20
-0.9272763779527559
11
1.5341869685039369
21
-0.9300703937007874
0
LINE
8
BLACK
6
CONTINUOUS
10
1.5341869685039369
20
-0.9300703937007874
11
1.5348425196850393
21
-0.9333661417322835
0
LINE
8
BLACK
6
CONTINUOUS
10
1.5348425196850393
20
-0.9333661417322835
11
1.5348425196850393
21
-0.9505905511811024
0
LINE
8
BLACK
6
CONTINUOUS
10
1.5348425196850393
20
-0.9505905511811024
11
1.5341869685039369
21
-0.9538862992125984
0
LINE
8
BLACK
6
CONTINUOUS
10
1.5341869685039369
20
-0.9538862992125984
11
1.5323200787401574
21
-0.9566803149606299
0
LINE
8
BLACK
6
CONTINUOUS
10
1.5323200787401574
20
-0.9566803149606299
11
1.5295260629921259
21
-0.9585472047244095
0
LINE
8
BLACK
6
CONTINUOUS
10
1.5295260629921259
20
-0.9585472047244095
11
1.52623031496063
21
-0.9592027559055117
0
LINE
8
BLACK
6
CONTINUOUS
10
1.52623031496063
20
-0.9592027559055117
11
1.5060531496062992
21
-0.9592027559055117
0
LINE
8
BLACK
6
CONTINUOUS
10
1.5060531496062992
20
-0.9592027559055117
11
1.5027574015748031
21
-0.9585472047244095
0
LINE
8
BLACK
6
CONTINUOUS
10
1.5027574015748031
20
-0.9585472047244095
11
1.4999633858267716
21
-0.9566803149606299
0
LINE
8
BLACK
6
CONTINUOUS
10
1.4999633858267716
20
-0.9566803149606299
11
1.4980964960629921
21
-0.9538862992125984
0
LINE
8
BLACK
6
CONTINUOUS
10
1.4980964960629921
20
-0.9538862992125984
11
1.4974409448818897
21
-0.9505905511811024
0
LINE
8
BLACK
6
CONTINUOUS
10
1.4974409448818897
20
-0.9505905511811024
11
1.4974409448818897
21
-0.9333661417322835
0
LINE
8
BLACK
6
CONTINUOUS
10
1.4974409448818897
20
-0.9333661417322835
11
1.4980964960629921
21
-0.9300703937007874
0
LINE
8
BLACK
6
CONTINUOUS
10
1.4980964960629921
20
-0.9300703937007874
11
1.4999633858267716
21
-0.9272763779527559
0
LINE
8
BLACK
6
CONTINUOUS
10
1.4999633858267716
20
-0.9272763779527559
11
1.5027574015748031
21
-0.9254094881889764
0
LINE
8
BLACK
6
CONTINUOUS
10
1.5027574015748031
20
-0.9254094881889764
11
1.5060531496062992
21
-0.924753937007874
0
LINE
8
BLACK
6
CONTINUOUS
10
1.5060531496062992
20
-0.924753937007874
11
1.52623031496063
21
-0.924753937007874
0
LINE
8
BLACK
6
CONTINUOUS
10
1.52623031496063
20
-0.924753937007874
11
1.5295260629921259
21
-0.9254094881889764
0
LINE
8
BLACK
6
CONTINUOUS
10
1.6314945669291339
20
-0.9254094881889764
11
1.6342885826771654
21
-0.9272763779527559
0
LINE
8
BLACK
6
CONTINUOUS
10
1.6342885826771654
20
-0.9272763779527559
11
1.6361554724409448
21
-0.9300703937007874
0
LINE
8
BLACK
6
CONTINUOUS
10
1.6361554724409448
20
-0.9300703937007874
11
1.6368110236220472
21
-0.9333661417322835
0
LINE
8
BLACK
6
CONTINUOUS
10
1.6368110236220472
20
-0.9333661417322835
11
1.6368110236220472
21
-0.9505905511811024
0
LINE
8
BLACK
6
CONTINUOUS
10
1.6368110236220472
20
-0.9505905511811024
11
1.6361554724409448
21
-0.9538862992125984
0
LINE
8
BLACK
6
CONTINUOUS
10
1.6361554724409448
20
-0.9538862992125984
11
1.6342885826771654
21
-0.9566803149606299
0
LINE
8
BLACK
6
CONTINUOUS
10
1.6342885826771654
20
-0.9566803149606299
11
1.6314945669291339
21
-0.9585472047244095
0
LINE
8
BLACK
6
CONTINUOUS
10
1.6314945669291339
20
-0.9585472047244095
11
1.6281988188976377
21
-0.9592027559055117
0
LINE
8
BLACK
6
CONTINUOUS
10
1.6281988188976377
20
-0.9592027559055117
11
1.608021653543307
21
-0.9592027559055117
0
LINE
8
BLACK
6
CONTINUOUS
10
1.608021653543307
20
-0.9592027559055117
11
1.604725905511811
21
-0.9585472047244095
0
LINE
8
BLACK
6
CONTINUOUS
10
1.604725905511811
20
-0.9585472047244095
11
1.6019318897637795
21
-0.9566803149606299
0
LINE
8
BLACK
6
CONTINUOUS
10
1.6019318897637795
20
-0.9566803149606299
11
1.6000650000000001
21
-0.9538862992125984
0
LINE
8
BLACK
6
CONTINUOUS
10
1.6000650000000001
20
-0.9538862992125984
11
1.5994094488188977
21
-0.9505905511811024
0
LINE
8
BLACK
6
CONTINUOUS
10
1.5994094488188977
20
-0.9505905511811024
11
1.5994094488188977
21
-0.9333661417322835
0
LINE
8
BLACK
6
CONTINUOUS
10
1.5994094488188977
20
-0.9333661417322835
11
1.6000650000000001
21
-0.9300703937007874
0
LINE
8
BLACK
6
CONTINUOUS
10
1.6000650000000001
20
-0.9300703937007874
11
1.6019318897637795
21
-0.9272763779527559
0
LINE
8
BLACK
6
CONTINUOUS
10
1.6019318897637795
20
-0.9272763779527559
11
1.604725905511811
21
-0.9254094881889764
0
LINE
8
BLACK
6
CONTINUOUS
10
1.604725905511811
20
-0.9254094881889764
11
1.608021653543307
21
-0.924753937007874
0
LINE
8
BLACK
6
CONTINUOUS
10
1.608021653543307
20
-0.924753937007874
11
1.6281988188976377
21
-0.924753937007874
0
LINE
8
BLACK
6
CONTINUOUS
10
1.6281988188976377
20
-0.924753937007874
11
1.6314945669291339
21
-0.9254094881889764
0
LINE
8
BLACK
6
CONTINUOUS
10
1.7381874803149606
20
-0.9254094881889764
11
1.7409814960629921
21
-0.9272763779527559
0
LINE
8
BLACK
6
CONTINUOUS
10
1.7409814960629921
20
-0.9272763779527559
11
1.7428483858267716
21
-0.9300703937007874
0
LINE
8
BLACK
6
CONTINUOUS
10
1.7428483858267716
20
-0.9300703937007874
11
1.743503937007874
21
-0.9333661417322835
0
LINE
8
BLACK
6
CONTINUOUS
10
1.743503937007874
20
-0.9333661417322835
11
1.743503937007874
21
-0.9505905511811024
0
LINE
8
BLACK
6
CONTINUOUS
10
1.743503937007874
20
-0.9505905511811024
11
1.7428483858267716
21
-0.9538862992125984
0
LINE
8
BLACK
6
CONTINUOUS
10
1.7428483858267716
20
-0.9538862992125984
11
1.7409814960629921
21
-0.9566803149606299
0
LINE
8
BLACK
6
CONTINUOUS
10
1.7409814960629921
20
-0.9566803149606299
11
1.7381874803149606
21
-0.9585472047244095
0
LINE
8
BLACK
6
CONTINUOUS
10
1.7381874803149606
20
-0.9585472047244095
11
1.7348917322834645
21
-0.9592027559055117
0
LINE
8
BLACK
6
CONTINUOUS
10
1.7348917322834645
20
-0.9592027559055117
11
1.7147145669291337
21
-0.9592027559055117
0
LINE
8
BLACK
6
CONTINUOUS
10
1.7147145669291337
20
-0.9592027559055117
11
1.7114188188976378
21
-0.9585472047244095
0
LINE
8
BLACK
6
CONTINUOUS
10
1.7114188188976378
20
-0.9585472047244095
11
1.7086248031496063
21
-0.9566803149606299
0
LINE
8
BLACK
6
CONTINUOUS
10
1.7086248031496063
20
-0.9566803149606299
11
1.7067579133858268
21
-0.9538862992125984
0
LINE
8
BLACK
6
CONTINUOUS
10
1.7067579133858268
20
-0.9538862992125984
11
1.7061023622047244
21
-0.9505905511811024
0
LINE
8
BLACK
6
CONTINUOUS
10
1.7061023622047244
20
-0.9505905511811024
11
1.7061023622047244
21
-0.9333661417322835
0
LINE
8
BLACK
6
CONTINUOUS
10
1.7061023622047244
20
-0.9333661417322835
11
1.7067579133858268
21
-0.9300703937007874
0
LINE
8
BLACK
6
CONTINUOUS
10
1.7067579133858268
20
-0.9300703937007874
11
1.7086248031496063
21
-0.9272763779527559
0
LINE
8
BLACK
6
CONTINUOUS
10
1.7086248031496063
20
-0.9272763779527559
11
1.7114188188976378
21
-0.9254094881889764
0
LINE
8
BLACK
6
CONTINUOUS
10
1.7114188188976378
20
-0.9254094881889764
11
1.7147145669291337
21
-0.924753937007874
0
LINE
8
BLACK
6
CONTINUOUS
10
1.7147145669291337
20
-0.924753937007874
11
1.7348917322834645
21
-0.924753937007874
0
LINE
8
BLACK
6
CONTINUOUS
10
1.7348917322834645
20
-0.924753937007874
11
1.7381874803149606
21
-0.9254094881889764
0
LINE
8
BLACK
6
CONTINUOUS
10
1.1105276771653543
20
-0.8916896850393701
11
1.1124435433070865
21
-0.892969842519685
0
LINE
8
BLACK
6
CONTINUOUS
10
1.1124435433070865
20
-0.892969842519685
11
1.1137237007874015
21
-0.8948857086614173
0
LINE
8
BLACK
6
CONTINUOUS
10
1.1137237007874015
20
-0.8948857086614173
11
1.1141732283464567
21
-0.8971456692913385
0
LINE
8
BLACK
6
CONTINUOUS
10
1.1141732283464567
20
-0.8971456692913385
11
1.1141732283464567
21
-0.9375
0
LINE
8
BLACK
6
CONTINUOUS
10
1.1141732283464567
20
-0.9375
11
1.1137237007874015
21
-0.9397599606299213
0
LINE
8
BLACK
6
CONTINUOUS
10
1.1137237007874015
20
-0.9397599606299213
11
1.1124435433070865
21
-0.9416758267716535
0
LINE
8
BLACK
6
CONTINUOUS
10
1.1124435433070865
20
-0.9416758267716535
11
1.1105276771653543
21
-0.9429559842519685
0
LINE
8
BLACK
6
CONTINUOUS
10
1.1105276771653543
20
-0.9429559842519685
11
1.1082677165354331
21
-0.9434055118110236
0
LINE
8
BLACK
6
CONTINUOUS
10
1.1082677165354331
20
-0.9434055118110236
11
1.0964566929133859
21
-0.9434055118110236
0
LINE
8
BLACK
6
CONTINUOUS
10
1.0964566929133859
20
-0.9434055118110236
11
1.0941967322834645
21
-0.9429559842519685
0
LINE
8
BLACK
6
CONTINUOUS
10
1.0941967322834645
20
-0.9429559842519685
11
1.0922808661417323
21
-0.9416758267716535
0
LINE
8
BLACK
6
CONTINUOUS
10
1.0922808661417323
20
-0.9416758267716535
11
1.0910007086614173
21
-0.9397599606299213
0
LINE
8
BLACK
6
CONTINUOUS
10
1.0910007086614173
20
-0.9397599606299213
11
1.0905511811023623
21
-0.9375
0
LINE
8
BLACK
6
CONTINUOUS
10
1.0905511811023623
20
-0.9375
11
1.0905511811023623
21
-0.8971456692913385
0
LINE
8
BLACK
6
CONTINUOUS
10
1.0905511811023623
20
-0.8971456692913385
11
1.0910007086614173
21
-0.8948857086614173
0
LINE
8
BLACK
6
CONTINUOUS
10
1.0910007086614173
20
-0.8948857086614173
11
1.0922808661417323
21
-0.892969842519685
0
LINE
8
BLACK
6
CONTINUOUS
10
1.0922808661417323
20
-0.892969842519685
11
1.0941967322834645
21
-0.8916896850393701
0
LINE
8
BLACK
6
CONTINUOUS
10
1.0941967322834645
20
-0.8916896850393701
11
1.0964566929133859
21
-0.8912401574803149
0
LINE
8
BLACK
6
CONTINUOUS
10
1.0964566929133859
20
-0.8912401574803149
11
1.1082677165354331
21
-0.8912401574803149
0
LINE
8
BLACK
6
CONTINUOUS
10
1.1082677165354331
20
-0.8912401574803149
11
1.1105276771653543
21
-0.8916896850393701
0
LINE
8
BLACK
6
CONTINUOUS
10
1.1853308267716536
20
-0.8916896850393701
11
1.1872466929133858
21
-0.892969842519685
0
LINE
8
BLACK
6
CONTINUOUS
10
1.1872466929133858
20
-0.892969842519685
11
1.1885268503937008
21
-0.8948857086614173
0
LINE
8
BLACK
6
CONTINUOUS
10
1.1885268503937008
20
-0.8948857086614173
11
1.1889763779527558
21
-0.8971456692913385
0
LINE
8
BLACK
6
CONTINUOUS
10
1.1889763779527558
20
-0.8971456692913385
11
1.1889763779527558
21
-0.9375
0
LINE
8
BLACK
6
CONTINUOUS
10
1.1889763779527558
20
-0.9375
11
1.1885268503937008
21
-0.9397599606299213
0
LINE
8
BLACK
6
CONTINUOUS
10
1.1885268503937008
20
-0.9397599606299213
11
1.1872466929133858
21
-0.9416758267716535
0
LINE
8
BLACK
6
CONTINUOUS
10
1.1872466929133858
20
-0.9416758267716535
11
1.1853308267716536
21
-0.9429559842519685
0
LINE
8
BLACK
6
CONTINUOUS
10
1.1853308267716536
20
-0.9429559842519685
11
1.1830708661417322
21
-0.9434055118110236
0
LINE
8
BLACK
6
CONTINUOUS
10
1.1830708661417322
20
-0.9434055118110236
11
1.171259842519685
21
-0.9434055118110236
0
LINE
8
BLACK
6
CONTINUOUS
10
1.171259842519685
20
-0.9434055118110236
11
1.1689998818897638
21
-0.9429559842519685
0
LINE
8
BLACK
6
CONTINUOUS
10
1.1689998818897638
20
-0.9429559842519685
11
1.1670840157480316
21
-0.9416758267716535
0
LINE
8
BLACK
6
CONTINUOUS
10
1.1670840157480316
20
-0.9416758267716535
11
1.1658038582677166
21
-0.9397599606299213
0
LINE
8
BLACK
6
CONTINUOUS
10
1.1658038582677166
20
-0.9397599606299213
11
1.1653543307086613
21
-0.9375
0
LINE
8
BLACK
6
CONTINUOUS
10
1.1653543307086613
20
-0.9375
11
1.1653543307086613
21
-0.8971456692913385
0
LINE
8
BLACK
6
CONTINUOUS
10
1.1653543307086613
20
-0.8971456692913385
11
1.1658038582677166
21
-0.8948857086614173
0
LINE
8
BLACK
6
CONTINUOUS
10
1.1658038582677166
20
-0.8948857086614173
11
1.1670840157480316
21
-0.892969842519685
0
LINE
8
BLACK
6
CONTINUOUS
10
1.1670840157480316
20
-0.892969842519685
11
1.1689998818897638
21
-0.8916896850393701
0
LINE
8
BLACK
6
CONTINUOUS
10
1.1689998818897638
20
-0.8916896850393701
11
1.171259842519685
21
-0.8912401574803149
0
LINE
8
BLACK
6
CONTINUOUS
10
1.171259842519685
20
-0.8912401574803149
11
1.1830708661417322
21
-0.8912401574803149
0
LINE
8
BLACK
6
CONTINUOUS
10
1.1830708661417322
20
-0.8912401574803149
11
1.1853308267716536
21
-0.8916896850393701
0
LINE
8
BLACK
6
CONTINUOUS
10
3.8427587007874013
20
-0.872205905511811
11
3.8459518503937007
21
-0.8743394881889763
0
LINE
8
BLACK
6
CONTINUOUS
10
3.8459518503937007
20
-0.8743394881889763
11
3.848085433070866
21
-0.8775326377952756
0
LINE
8
BLACK
6
CONTINUOUS
10
3.848085433070866
20
-0.8775326377952756
11
3.8488346456692915
21
-0.8812992125984251
0
LINE
8
BLACK
6
CONTINUOUS
10
3.8488346456692915
20
-0.8812992125984251
11
3.8488346456692915
21
-0.9187007874015748
0
LINE
8
BLACK
6
CONTINUOUS
10
3.8488346456692915
20
-0.9187007874015748
11
3.848085433070866
21
-0.9224673622047244
0
LINE
8
BLACK
6
CONTINUOUS
10
3.848085433070866
20
-0.9224673622047244
11
3.8459518503937007
21
-0.9256605118110236
0
LINE
8
BLACK
6
CONTINUOUS
10
3.8459518503937007
20
-0.9256605118110236
11
3.8427587007874013
21
-0.9277940944881889
0
LINE
8
BLACK
6
CONTINUOUS
10
3.8427587007874013
20
-0.9277940944881889
11
3.8389921259842521
21
-0.9285433070866141
0
LINE
8
BLACK
6
CONTINUOUS
10
3.8389921259842521
20
-0.9285433070866141
11
3.819307086614173
21
-0.9285433070866141
0
LINE
8
BLACK
6
CONTINUOUS
10
3.819307086614173
20
-0.9285433070866141
11
3.8155405118110237
21
-0.9277940944881889
0
LINE
8
BLACK
6
CONTINUOUS
10
3.8155405118110237
20
-0.9277940944881889
11
3.8123473622047244
21
-0.9256605118110236
0
LINE
8
BLACK
6
CONTINUOUS
10
3.8123473622047244
20
-0.9256605118110236
11
3.810213779527559
21
-0.9224673622047244
0
LINE
8
BLACK
6
CONTINUOUS
10
3.810213779527559
20
-0.9224673622047244
11
3.8094645669291336
21
-0.9187007874015748
0
LINE
8
BLACK
6
CONTINUOUS
10
3.8094645669291336
20
-0.9187007874015748
11
3.8094645669291336
21
-0.8812992125984251
0
LINE
8
BLACK
6
CONTINUOUS
10
3.8094645669291336
20
-0.8812992125984251
11
3.810213779527559
21
-0.8775326377952756
0
LINE
8
BLACK
6
CONTINUOUS
10
3.810213779527559
20
-0.8775326377952756
11
3.8123473622047244
21
-0.8743394881889763
0
LINE
8
BLACK
6
CONTINUOUS
10
3.8123473622047244
20
-0.8743394881889763
11
3.8155405118110237
21
-0.872205905511811
0
LINE
8
BLACK
6
CONTINUOUS
10
3.8155405118110237
20
-0.872205905511811
11
3.819307086614173
21
-0.8714566929133858
0
LINE
8
BLACK
6
CONTINUOUS
10
3.819307086614173
20
-0.8714566929133858
11
3.8389921259842521
21
-0.8714566929133858
0
LINE
8
BLACK
6
CONTINUOUS
10
3.8389921259842521
20
-0.8714566929133858
11
3.8427587007874013
21
-0.872205905511811
0
LINE
8
BLACK
6
CONTINUOUS
10
3.9175618503937009
20
-0.872205905511811
11
3.9207549999999998
21
-0.8743394881889763
0
LINE
8
BLACK
6
CONTINUOUS
10
3.9207549999999998
20
-0.8743394881889763
11
3.9228885826771651
21
-0.8775326377952756
0
LINE
8
BLACK
6
CONTINUOUS
10
3.9228885826771651
20
-0.8775326377952756
11
3.9236377952755905
21
-0.8812992125984251
0
LINE
8
BLACK
6
CONTINUOUS
10
3.9236377952755905
20
-0.8812992125984251
11
3.9236377952755905
21
-0.9187007874015748
0
LINE
8
BLACK
6
CONTINUOUS
10
3.9236377952755905
20
-0.9187007874015748
11
3.9228885826771651
21
-0.9224673622047244
0
LINE
8
BLACK
6
CONTINUOUS
10
3.9228885826771651
20
-0.9224673622047244
11
3.9207549999999998
21
-0.9256605118110236
0
LINE
8
BLACK
6
CONTINUOUS
10
3.9207549999999998
20
-0.9256605118110236
11
3.9175618503937009
21
-0.9277940944881889
0
LINE
8
BLACK
6
CONTINUOUS
10
3.9175618503937009
20
-0.9277940944881889
11
3.9137952755905512
21
-0.9285433070866141
0
LINE
8
BLACK
6
CONTINUOUS
10
3.9137952755905512
20
-0.9285433070866141
11
3.8941102362204725
21
-0.9285433070866141
0
LINE
8
BLACK
6
CONTINUOUS
10
3.8941102362204725
20
-0.9285433070866141
11
3.8903436614173228
21
-0.9277940944881889
0
LINE
8
BLACK
6
CONTINUOUS
10
3.8903436614173228
20
-0.9277940944881889
11
3.8871505118110234
21
-0.9256605118110236
0
LINE
8
BLACK
6
CONTINUOUS
10
3.8871505118110234
20
-0.9256605118110236
11
3.8850169291338581
21
-0.9224673622047244
0
LINE
8
BLACK
6
CONTINUOUS
10
3.8850169291338581
20
-0.9224673622047244
11
3.8842677165354331
21
-0.9187007874015748
0
LINE
8
BLACK
6
CONTINUOUS
10
3.8842677165354331
20
-0.9187007874015748
11
3.8842677165354331
21
-0.8812992125984251
0
LINE
8
BLACK
6
CONTINUOUS
10
3.8842677165354331
20
-0.8812992125984251
11
3.8850169291338581
21
-0.8775326377952756
0
LINE
8
BLACK
6
CONTINUOUS
10
3.8850169291338581
20
-0.8775326377952756
11
3.8871505118110234
21
-0.8743394881889763
0
LINE
8
BLACK
6
CONTINUOUS
10
3.8871505118110234
20
-0.8743394881889763
11
3.8903436614173228
21
-0.872205905511811
0
LINE
8
BLACK
6
CONTINUOUS
10
3.8903436614173228
20
-0.872205905511811
11
3.8941102362204725
21
-0.8714566929133858
0
LINE
8
BLACK
6
CONTINUOUS
10
3.8941102362204725
20
-0.8714566929133858
11
3.9137952755905512
21
-0.8714566929133858
0
LINE
8
BLACK
6
CONTINUOUS
10
3.9137952755905512
20
-0.8714566929133858
11
3.9175618503937009
21
-0.872205905511811
0
LINE
8
BLACK
6
CONTINUOUS
10
3.9777993700787402
20
-0.8889735039370078
11
3.980673188976378
21
-0.8908937401574802
0
LINE
8
BLACK
6
CONTINUOUS
10
3.980673188976378
20
-0.8908937401574802
11
3.9825934251968502
21
-0.8937675590551181
0
LINE
8
BLACK
6
CONTINUOUS
10
3.9825934251968502
20
-0.8937675590551181
11
3.9832677165354329
21
-0.8971574803149606
0
LINE
8
BLACK
6
CONTINUOUS
10
3.9832677165354329
20
-0.8971574803149606
11
3.9832677165354329
21
-0.9168425196850394
0
LINE
8
BLACK
6
CONTINUOUS
10
3.9832677165354329
20
-0.9168425196850394
11
3.9825934251968502
21
-0.9202324409448819
0
LINE
8
BLACK
6
CONTINUOUS
10
3.9825934251968502
20
-0.9202324409448819
11
3.980673188976378
21
-0.9231062598425197
0
LINE
8
BLACK
6
CONTINUOUS
10
3.980673188976378
20
-0.9231062598425197
11
3.9777993700787402
21
-0.9250264960629921
0
LINE
8
BLACK
6
CONTINUOUS
10
3.9777993700787402
20
-0.9250264960629921
11
3.9744094488188977
21
-0.9257007874015748
0
LINE
8
BLACK
6
CONTINUOUS
10
3.9744094488188977
20
-0.9257007874015748
11
3.9566929133858268
21
-0.9257007874015748
0
LINE
8
BLACK
6
CONTINUOUS
10
3.9566929133858268
20
-0.9257007874015748
11
3.9533029921259843
21
-0.9250264960629921
0
LINE
8
BLACK
6
CONTINUOUS
10
3.9533029921259843
20
-0.9250264960629921
11
3.9504291732283465
21
-0.9231062598425197
0
LINE
8
BLACK
6
CONTINUOUS
10
3.9504291732283465
20
-0.9231062598425197
11
3.9485089370078739
21
-0.9202324409448819
0
LINE
8
BLACK
6
CONTINUOUS
10
3.9485089370078739
20
-0.9202324409448819
11
3.9478346456692912
21
-0.9168425196850394
0
LINE
8
BLACK
6
CONTINUOUS
10
3.9478346456692912
20
-0.9168425196850394
11
3.9478346456692912
21
-0.8971574803149606
0
LINE
8
BLACK
6
CONTINUOUS
10
3.9478346456692912
20
-0.8971574803149606
11
3.9485089370078739
21
-0.8937675590551181
0
LINE
8
BLACK
6
CONTINUOUS
10
3.9485089370078739
20
-0.8937675590551181
11
3.9504291732283465
21
-0.8908937401574802
0
LINE
8
BLACK
6
CONTINUOUS
10
3.9504291732283465
20
-0.8908937401574802
11
3.9533029921259843
21
-0.8889735039370078
0
LINE
8
BLACK
6
CONTINUOUS
10
3.9533029921259843
20
-0.8889735039370078
11
3.9566929133858268
21
-0.8882992125984251
0
LINE
8
BLACK
6
CONTINUOUS
10
3.9566929133858268
20
-0.8882992125984251
11
3.9744094488188977
21
-0.8882992125984251
0
LINE
8
BLACK
6
CONTINUOUS
10
3.9744094488188977
20
-0.8882992125984251
11
3.9777993700787402
21
-0.8889735039370078
0
LINE
8
BLACK
6
CONTINUOUS
10
4.0388229921259837
20
-0.8889735039370078
11
4.0416968110236215
21
-0.8908937401574802
0
LINE
8
BLACK
6
CONTINUOUS
10
4.0416968110236215
20
-0.8908937401574802
11
4.0436170472440942
21
-0.8937675590551181
0
LINE
8
BLACK
6
CONTINUOUS
10
4.0436170472440942
20
-0.8937675590551181
11
4.0442913385826769
21
-0.8971574803149606
0
LINE
8
BLACK
6
CONTINUOUS
10
4.0442913385826769
20
-0.8971574803149606
11
4.0442913385826769
21
-0.9168425196850394
0
LINE
8
BLACK
6
CONTINUOUS
10
4.0442913385826769
20
-0.9168425196850394
11
4.0436170472440942
21
-0.9202324409448819
0
LINE
8
BLACK
6
CONTINUOUS
10
4.0436170472440942
20
-0.9202324409448819
11
4.0416968110236215
21
-0.9231062598425197
0
LINE
8
BLACK
6
CONTINUOUS
10
4.0416968110236215
20
-0.9231062598425197
11
4.0388229921259837
21
-0.9250264960629921
0
LINE
8
BLACK
6
CONTINUOUS
10
4.0388229921259837
20
-0.9250264960629921
11
4.0354330708661417
21
-0.9257007874015748
0
LINE
8
BLACK
6
CONTINUOUS
10
4.0354330708661417
20
-0.9257007874015748
11
4.0177165354330704
21
-0.9257007874015748
0
LINE
8
BLACK
6
CONTINUOUS
10
4.0177165354330704
20
-0.9257007874015748
11
4.0143266141732283
21
-0.9250264960629921
0
LINE
8
BLACK
6
CONTINUOUS
10
4.0143266141732283
20
-0.9250264960629921
11
4.0114527952755905
21
-0.9231062598425197
0
LINE
8
BLACK
6
CONTINUOUS
10
4.0114527952755905
20
-0.9231062598425197
11
4.0095325590551179
21
-0.9202324409448819
0
LINE
8
BLACK
6
CONTINUOUS
10
4.0095325590551179
20
-0.9202324409448819
11
4.0088582677165352
21
-0.9168425196850394
0
LINE
8
BLACK
6
CONTINUOUS
10
4.0088582677165352
20
-0.9168425196850394
11
4.0088582677165352
21
-0.8971574803149606
0
LINE
8
BLACK
6
CONTINUOUS
10
4.0088582677165352
20
-0.8971574803149606
11
4.0095325590551179
21
-0.8937675590551181
0
LINE
8
BLACK
6
CONTINUOUS
10
4.0095325590551179
20
-0.8937675590551181
11
4.0114527952755905
21
-0.8908937401574802
0
LINE
8
BLACK
6
CONTINUOUS
10
4.0114527952755905
20
-0.8908937401574802
11
4.0143266141732283
21
-0.8889735039370078
0
LINE
8
BLACK
6
CONTINUOUS
10
4.0143266141732283
20
-0.8889735039370078
11
4.0177165354330704
21
-0.8882992125984251
0
LINE
8
BLACK
6
CONTINUOUS
10
4.0177165354330704
20
-0.8882992125984251
11
4.0354330708661417
21
-0.8882992125984251
0
LINE
8
BLACK
6
CONTINUOUS
10
4.0354330708661417
20
-0.8882992125984251
11
4.0388229921259837
21
-0.8889735039370078
0
LINE
8
BLACK
6
CONTINUOUS
10
1.3012416141732284
20
-0.8706781102362204
11
1.3037961023622047
21
-0.872385
0
LINE
8
BLACK
6
CONTINUOUS
10
1.3037961023622047
20
-0.872385
11
1.3055029921259842
21
-0.8749394881889764
0
LINE
8
BLACK
6
CONTINUOUS
10
1.3055029921259842
20
-0.8749394881889764
11
1.3061023622047243
21
-0.8779527559055118
0
LINE
8
BLACK
6
CONTINUOUS
10
1.3061023622047243
20
-0.8779527559055118
11
1.3061023622047243
21
-0.8937007874015748
0
LINE
8
BLACK
6
CONTINUOUS
10
1.3061023622047243
20
-0.8937007874015748
11
1.3055029921259842
21
-0.8967140551181102
0
LINE
8
BLACK
6
CONTINUOUS
10
1.3055029921259842
20
-0.8967140551181102
11
1.3037961023622047
21
-0.8992685433070866
0
LINE
8
BLACK
6
CONTINUOUS
10
1.3037961023622047
20
-0.8992685433070866
11
1.3012416141732284
21
-0.9009754330708661
0
LINE
8
BLACK
6
CONTINUOUS
10
1.3012416141732284
20
-0.9009754330708661
11
1.2982283464566928
21
-0.9015748031496063
0
LINE
8
BLACK
6
CONTINUOUS
10
1.2982283464566928
20
-0.9015748031496063
11
1.2765748031496063
21
-0.9015748031496063
0
LINE
8
BLACK
6
CONTINUOUS
10
1.2765748031496063
20
-0.9015748031496063
11
1.2735615354330709
21
-0.9009754330708661
0
LINE
8
BLACK
6
CONTINUOUS
10
1.2735615354330709
20
-0.9009754330708661
11
1.2710070472440944
21
-0.8992685433070866
0
LINE
8
BLACK
6
CONTINUOUS
10
1.2710070472440944
20
-0.8992685433070866
11
1.2693001574803149
21
-0.8967140551181102
0
LINE
8
BLACK
6
CONTINUOUS
10
1.2693001574803149
20
-0.8967140551181102
11
1.2687007874015748
21
-0.8937007874015748
0
LINE
8
BLACK
6
CONTINUOUS
10
1.2687007874015748
20
-0.8937007874015748
11
1.2687007874015748
21
-0.8779527559055118
0
LINE
8
BLACK
6
CONTINUOUS
10
1.2687007874015748
20
-0.8779527559055118
11
1.2693001574803149
21
-0.8749394881889764
0
LINE
8
BLACK
6
CONTINUOUS
10
1.2693001574803149
20
-0.8749394881889764
11
1.2710070472440944
21
-0.872385
0
LINE
8
BLACK
6
CONTINUOUS
10
1.2710070472440944
20
-0.872385
11
1.2735615354330709
21
-0.8706781102362204
0
LINE
8
BLACK
6
CONTINUOUS
10
1.2735615354330709
20
-0.8706781102362204
11
1.2765748031496063
21
-0.8700787401574803
0
LINE
8
BLACK
6
CONTINUOUS
10
1.2765748031496063
20
-0.8700787401574803
11
1.2982283464566928
21
-0.8700787401574803
0
LINE
8
BLACK
6
CONTINUOUS
10
1.2982283464566928
20
-0.8700787401574803
11
1.3012416141732284
21
-0.8706781102362204
0
LINE
8
BLACK
6
CONTINUOUS
10
1.5295260629921259
20
-0.8634016141732284
11
1.5323200787401574
21
-0.8652685039370078
0
LINE
8
BLACK
6
CONTINUOUS
10
1.5323200787401574
20
-0.8652685039370078
11
1.5341869685039369
21
-0.8680625196850393
0
LINE
8
BLACK
6
CONTINUOUS
10
1.5341869685039369
20
-0.8680625196850393
11
1.5348425196850393
21
-0.8713582677165355
0
LINE
8
BLACK
6
CONTINUOUS
10
1.5348425196850393
20
-0.8713582677165355
11
1.5348425196850393
21
-0.8885826771653543
0
LINE
8
BLACK
6
CONTINUOUS
10
1.5348425196850393
20
-0.8885826771653543
11
1.5341869685039369
21
-0.8918784251968503
0
LINE
8
BLACK
6
CONTINUOUS
10
1.5341869685039369
20
-0.8918784251968503
11
1.5323200787401574
21
-0.8946724409448819
0
LINE
8
BLACK
6
CONTINUOUS
10
1.5323200787401574
20
-0.8946724409448819
11
1.5295260629921259
21
-0.8965393307086614
0
LINE
8
BLACK
6
CONTINUOUS
10
1.5295260629921259
20
-0.8965393307086614
11
1.52623031496063
21
-0.8971948818897637
0
LINE
8
BLACK
6
CONTINUOUS
10
1.52623031496063
20
-0.8971948818897637
11
1.5060531496062992
21
-0.8971948818897637
0
LINE
8
BLACK
6
CONTINUOUS
10
1.5060531496062992
20
-0.8971948818897637
11
1.5027574015748031
21
-0.8965393307086614
0
LINE
8
BLACK
6
CONTINUOUS
10
1.5027574015748031
20
-0.8965393307086614
11
1.4999633858267716
21
-0.8946724409448819
0
LINE
8
BLACK
6
CONTINUOUS
10
1.4999633858267716
20
-0.8946724409448819
11
1.4980964960629921
21
-0.8918784251968503
0
LINE
8
BLACK
6
CONTINUOUS
10
1.4980964960629921
20
-0.8918784251968503
11
1.4974409448818897
21
-0.8885826771653543
0
LINE
8
BLACK
6
CONTINUOUS
10
1.4974409448818897
20
-0.8885826771653543
11
1.4974409448818897
21
-0.8713582677165355
0
LINE
8
BLACK
6
CONTINUOUS
10
1.4974409448818897
20
-0.8713582677165355
11
1.4980964960629921
21
-0.8680625196850393
0
LINE
8
BLACK
6
CONTINUOUS
10
1.4980964960629921
20
-0.8680625196850393
11
1.4999633858267716
21
-0.8652685039370078
0
LINE
8
BLACK
6
CONTINUOUS
10
1.4999633858267716
20
-0.8652685039370078
11
1.5027574015748031
21
-0.8634016141732284
0
LINE
8
BLACK
6
CONTINUOUS
10
1.5027574015748031
20
-0.8634016141732284
11
1.5060531496062992
21
-0.862746062992126
0
LINE
8
BLACK
6
CONTINUOUS
10
1.5060531496062992
20
-0.862746062992126
11
1.52623031496063
21
-0.862746062992126
0
LINE
8
BLACK
6
CONTINUOUS
10
1.52623031496063
20
-0.862746062992126
11
1.5295260629921259
21
-0.8634016141732284
0
LINE
8
BLACK
6
CONTINUOUS
10
1.6314945669291339
20
-0.8634016141732284
11
1.6342885826771654
21
-0.8652685039370078
0
LINE
8
BLACK
6
CONTINUOUS
10
1.6342885826771654
20
-0.8652685039370078
11
1.6361554724409448
21
-0.8680625196850393
0
LINE
8
BLACK
6
CONTINUOUS
10
1.6361554724409448
20
-0.8680625196850393
11
1.6368110236220472
21
-0.8713582677165355
0
LINE
8
BLACK
6
CONTINUOUS
10
1.6368110236220472
20
-0.8713582677165355
11
1.6368110236220472
21
-0.8885826771653543
0
LINE
8
BLACK
6
CONTINUOUS
10
1.6368110236220472
20
-0.8885826771653543
11
1.6361554724409448
21
-0.8918784251968503
0
LINE
8
BLACK
6
CONTINUOUS
10
1.6361554724409448
20
-0.8918784251968503
11
1.6342885826771654
21
-0.8946724409448819
0
LINE
8
BLACK
6
CONTINUOUS
10
1.6342885826771654
20
-0.8946724409448819
11
1.6314945669291339
21
-0.8965393307086614
0
LINE
8
BLACK
6
CONTINUOUS
10
1.6314945669291339
20
-0.8965393307086614
11
1.6281988188976377
21
-0.8971948818897637
0
LINE
8
BLACK
6
CONTINUOUS
10
1.6281988188976377
20
-0.8971948818897637
11
1.608021653543307
21
-0.8971948818897637
0
LINE
8
BLACK
6
CONTINUOUS
10
1.608021653543307
20
-0.8971948818897637
11
1.604725905511811
21
-0.8965393307086614
0
LINE
8
BLACK
6
CONTINUOUS
10
1.604725905511811
20
-0.8965393307086614
11
1.6019318897637795
21
-0.8946724409448819
0
LINE
8
BLACK
6
CONTINUOUS
10
1.6019318897637795
20
-0.8946724409448819
11
1.6000650000000001
21
-0.8918784251968503
0
LINE
8
BLACK
6
CONTINUOUS
10
1.6000650000000001
20
-0.8918784251968503
11
1.5994094488188977
21
-0.8885826771653543
0
LINE
8
BLACK
6
CONTINUOUS
10
1.5994094488188977
20
-0.8885826771653543
11
1.5994094488188977
21
-0.8713582677165355
0
LINE
8
BLACK
6
CONTINUOUS
10
1.5994094488188977
20
-0.8713582677165355
11
1.6000650000000001
21
-0.8680625196850393
0
LINE
8
BLACK
6
CONTINUOUS
10
1.6000650000000001
20
-0.8680625196850393
11
1.6019318897637795
21
-0.8652685039370078
0
LINE
8
BLACK
6
CONTINUOUS
10
1.6019318897637795
20
-0.8652685039370078
11
1.604725905511811
21
-0.8634016141732284
0
LINE
8
BLACK
6
CONTINUOUS
10
1.604725905511811
20
-0.8634016141732284
11
1.608021653543307
21
-0.862746062992126
0
LINE
8
BLACK
6
CONTINUOUS
10
1.608021653543307
20
-0.862746062992126
11
1.6281988188976377
21
-0.862746062992126
0
LINE
8
BLACK
6
CONTINUOUS
10
1.6281988188976377
20
-0.862746062992126
11
1.6314945669291339
21
-0.8634016141732284
0
LINE
8
BLACK
6
CONTINUOUS
10
1.7381874803149606
20
-0.8634016141732284
11
1.7409814960629921
21
-0.8652685039370078
0
LINE
8
BLACK
6
CONTINUOUS
10
1.7409814960629921
20
-0.8652685039370078
11
1.7428483858267716
21
-0.8680625196850393
0
LINE
8
BLACK
6
CONTINUOUS
10
1.7428483858267716
20
-0.8680625196850393
11
1.743503937007874
21
-0.8713582677165355
0
LINE
8
BLACK
6
CONTINUOUS
10
1.743503937007874
20
-0.8713582677165355
11
1.743503937007874
21
-0.8885826771653543
0
LINE
8
BLACK
6
CONTINUOUS
10
1.743503937007874
20
-0.8885826771653543
11
1.7428483858267716
21
-0.8918784251968503
0
LINE
8
BLACK
6
CONTINUOUS
10
1.7428483858267716
20
-0.8918784251968503
11
1.7409814960629921
21
-0.8946724409448819
0
LINE
8
BLACK
6
CONTINUOUS
10
1.7409814960629921
20
-0.8946724409448819
11
1.7381874803149606
21
-0.8965393307086614
0
LINE
8
BLACK
6
CONTINUOUS
10
1.7381874803149606
20
-0.8965393307086614
11
1.7348917322834645
21
-0.8971948818897637
0
LINE
8
BLACK
6
CONTINUOUS
10
1.7348917322834645
20
-0.8971948818897637
11
1.7147145669291337
21
-0.8971948818897637
0
LINE
8
BLACK
6
CONTINUOUS
10
1.7147145669291337
20
-0.8971948818897637
11
1.7114188188976378
21
-0.8965393307086614
0
LINE
8
BLACK
6
CONTINUOUS
10
1.7114188188976378
20
-0.8965393307086614
11
1.7086248031496063
21
-0.8946724409448819
0
LINE
8
BLACK
6
CONTINUOUS
10
1.7086248031496063
20
-0.8946724409448819
11
1.7067579133858268
21
-0.8918784251968503
0
LINE
8
BLACK
6
CONTINUOUS
10
1.7067579133858268
20
-0.8918784251968503
11
1.7061023622047244
21
-0.8885826771653543
0
LINE
8
BLACK
6
CONTINUOUS
10
1.7061023622047244
20
-0.8885826771653543
11
1.7061023622047244
21
-0.8713582677165355
0
LINE
8
BLACK
6
CONTINUOUS
10
1.7061023622047244
20
-0.8713582677165355
11
1.7067579133858268
21
-0.8680625196850393
0
LINE
8
BLACK
6
CONTINUOUS
10
1.7067579133858268
20
-0.8680625196850393
11
1.7086248031496063
21
-0.8652685039370078
0
LINE
8
BLACK
6
CONTINUOUS
10
1.7086248031496063
20
-0.8652685039370078
11
1.7114188188976378
21
-0.8634016141732284
0
LINE
8
BLACK
6
CONTINUOUS
10
1.7114188188976378
20
-0.8634016141732284
11
1.7147145669291337
21
-0.862746062992126
0
LINE
8
BLACK
6
CONTINUOUS
10
1.7147145669291337
20
-0.862746062992126
11
1.7348917322834645
21
-0.862746062992126
0
LINE
8
BLACK
6
CONTINUOUS
10
1.7348917322834645
20
-0.862746062992126
11
1.7381874803149606
21
-0.8634016141732284
0
LINE
8
BLACK
6
CONTINUOUS
10
1.1479292519685038
20
-0.8021227559055117
11
1.1498451181102363
21
-0.8034029133858267
0
LINE
8
BLACK
6
CONTINUOUS
10
1.1498451181102363
20
-0.8034029133858267
11
1.1511252755905512
21
-0.805318779527559
0
LINE
8
BLACK
6
CONTINUOUS
10
1.1511252755905512
20
-0.805318779527559
11
1.1515748031496063
21
-0.8075787401574803
0
LINE
8
BLACK
6
CONTINUOUS
10
1.1515748031496063
20
-0.8075787401574803
11
1.1515748031496063
21
-0.8479330708661417
0
LINE
8
BLACK
6
CONTINUOUS
10
1.1515748031496063
20
-0.8479330708661417
11
1.1511252755905512
21
-0.850193031496063
0
LINE
8
BLACK
6
CONTINUOUS
10
1.1511252755905512
20
-0.850193031496063
11
1.1498451181102363
21
-0.8521088976377953
0
LINE
8
BLACK
6
CONTINUOUS
10
1.1498451181102363
20
-0.8521088976377953
11
1.1479292519685038
21
-0.8533890551181103
0
LINE
8
BLACK
6
CONTINUOUS
10
1.1479292519685038
20
-0.8533890551181103
11
1.1456692913385826
21
-0.8538385826771653
0
LINE
8
BLACK
6
CONTINUOUS
10
1.1456692913385826
20
-0.8538385826771653
11
1.1338582677165354
21
-0.8538385826771653
0
LINE
8
BLACK
6
CONTINUOUS
10
1.1338582677165354
20
-0.8538385826771653
11
1.1315983070866142
21
-0.8533890551181103
0
LINE
8
BLACK
6
CONTINUOUS
10
1.1315983070866142
20
-0.8533890551181103
11
1.1296824409448818
21
-0.8521088976377953
0
LINE
8
BLACK
6
CONTINUOUS
10
1.1296824409448818
20
-0.8521088976377953
11
1.1284022834645668
21
-0.850193031496063
0
LINE
8
BLACK
6
CONTINUOUS
10
1.1284022834645668
20
-0.850193031496063
11
1.1279527559055118
21
-0.8479330708661417
0
LINE
8
BLACK
6
CONTINUOUS
10
1.1279527559055118
20
-0.8479330708661417
11
1.1279527559055118
21
-0.8075787401574803
0
LINE
8
BLACK
6
CONTINUOUS
10
1.1279527559055118
20
-0.8075787401574803
11
1.1284022834645668
21
-0.805318779527559
0
LINE
8
BLACK
6
CONTINUOUS
10
1.1284022834645668
20
-0.805318779527559
11
1.1296824409448818
21
-0.8034029133858267
0
LINE
8
BLACK
6
CONTINUOUS
10
1.1296824409448818
20
-0.8034029133858267
11
1.1315983070866142
21
-0.8021227559055117
0
LINE
8
BLACK
6
CONTINUOUS
10
1.1315983070866142
20
-0.8021227559055117
11
1.1338582677165354
21
-0.8016732283464567
0
LINE
8
BLACK
6
CONTINUOUS
10
1.1338582677165354
20
-0.8016732283464567
11
1.1456692913385826
21
-0.8016732283464567
0
LINE
8
BLACK
6
CONTINUOUS
10
1.1456692913385826
20
-0.8016732283464567
11
1.1479292519685038
21
-0.8021227559055117
0
LINE
8
BLACK
6
CONTINUOUS
10
1.3012416141732284
20
-0.8086702362204724
11
1.3037961023622047
21
-0.8103771259842519
0
LINE
8
BLACK
6
CONTINUOUS
10
1.3037961023622047
20
-0.8103771259842519
11
1.3055029921259842
21
-0.8129316141732283
0
LINE
8
BLACK
6
CONTINUOUS
10
1.3055029921259842
20
-0.8129316141732283
11
1.3061023622047243
21
-0.8159448818897638
0
LINE
8
BLACK
6
CONTINUOUS
10
1.3061023622047243
20
-0.8159448818897638
11
1.3061023622047243
21
-0.8316929133858267
0
LINE
8
BLACK
6
CONTINUOUS
10
1.3061023622047243
20
-0.8316929133858267
11
1.3055029921259842
21
-0.8347061811023622
0
LINE
8
BLACK
6
CONTINUOUS
10
1.3055029921259842
20
-0.8347061811023622
11
1.3037961023622047
21
-0.8372606692913386
0
LINE
8
BLACK
6
CONTINUOUS
10
1.3037961023622047
20
-0.8372606692913386
11
1.3012416141732284
21
-0.8389675590551181
0
LINE
8
BLACK
6
CONTINUOUS
10
1.3012416141732284
20
-0.8389675590551181
11
1.2982283464566928
21
-0.8395669291338582
0
LINE
8
BLACK
6
CONTINUOUS
10
1.2982283464566928
20
-0.8395669291338582
11
1.2765748031496063
21
-0.8395669291338582
0
LINE
8
BLACK
6
CONTINUOUS
10
1.2765748031496063
20
-0.8395669291338582
11
1.2735615354330709
21
-0.8389675590551181
0
LINE
8
BLACK
6
CONTINUOUS
10
1.2735615354330709
20
-0.8389675590551181
11
1.2710070472440944
21
-0.8372606692913386
0
LINE
8
BLACK
6
CONTINUOUS
10
1.2710070472440944
20
-0.8372606692913386
11
1.2693001574803149
21
-0.8347061811023622
0
LINE
8
BLACK
6
CONTINUOUS
10
1.2693001574803149
20
-0.8347061811023622
11
1.2687007874015748
21
-0.8316929133858267
0
LINE
8
BLACK
6
CONTINUOUS
10
1.2687007874015748
20
-0.8316929133858267
11
1.2687007874015748
21
-0.8159448818897638
0
LINE
8
BLACK
6
CONTINUOUS
10
1.2687007874015748
20
-0.8159448818897638
11
1.2693001574803149
21
-0.8129316141732283
0
LINE
8
BLACK
6
CONTINUOUS
10
1.2693001574803149
20
-0.8129316141732283
11
1.2710070472440944
21
-0.8103771259842519
0
LINE
8
BLACK
6
CONTINUOUS
10
1.2710070472440944
20
-0.8103771259842519
11
1.2735615354330709
21
-0.8086702362204724
0
LINE
8
BLACK
6
CONTINUOUS
10
1.2735615354330709
20
-0.8086702362204724
11
1.2765748031496063
21
-0.8080708661417323
0
LINE
8
BLACK
6
CONTINUOUS
10
1.2765748031496063
20
-0.8080708661417323
11
1.2982283464566928
21
-0.8080708661417323
0
LINE
8
BLACK
6
CONTINUOUS
10
1.2982283464566928
20
-0.8080708661417323
11
1.3012416141732284
21
-0.8086702362204724
0
LINE
8
BLACK
6
CONTINUOUS
10
1.6319502755905511
20
-0.8007962204724409
11
1.6345047637795276
21
-0.8025031102362205
0
LINE
8
BLACK
6
CONTINUOUS
10
1.6345047637795276
20
-0.8025031102362205
11
1.6362116535433071
21
-0.8050575984251969
0
LINE
8
BLACK
6
CONTINUOUS
10
1.6362116535433071
20
-0.8050575984251969
11
1.6368110236220472
21
-0.8080708661417323
0
LINE
8
BLACK
6
CONTINUOUS
10
1.6368110236220472
20
-0.8080708661417323
11
1.6368110236220472
21
-0.8238188976377953
0
LINE
8
BLACK
6
CONTINUOUS
10
1.6368110236220472
20
-0.8238188976377953
11
1.6362116535433071
21
-0.8268321653543307
0
LINE
8
BLACK
6
CONTINUOUS
10
1.6362116535433071
20
-0.8268321653543307
11
1.6345047637795276
21
-0.8293866535433071
0
LINE
8
BLACK
6
CONTINUOUS
10
1.6345047637795276
20
-0.8293866535433071
11
1.6319502755905511
21
-0.8310935433070866
0
LINE
8
BLACK
6
CONTINUOUS
10
1.6319502755905511
20
-0.8310935433070866
11
1.6289370078740157
21
-0.8316929133858267
0
LINE
8
BLACK
6
CONTINUOUS
10
1.6289370078740157
20
-0.8316929133858267
11
1.6072834645669292
21
-0.8316929133858267
0
LINE
8
BLACK
6
CONTINUOUS
10
1.6072834645669292
20
-0.8316929133858267
11
1.6042701968503936
21
-0.8310935433070866
0
LINE
8
BLACK
6
CONTINUOUS
10
1.6042701968503936
20
-0.8310935433070866
11
1.6017157086614173
21
-0.8293866535433071
0
LINE
8
BLACK
6
CONTINUOUS
10
1.6017157086614173
20
-0.8293866535433071
11
1.6000088188976378
21
-0.8268321653543307
0
LINE
8
BLACK
6
CONTINUOUS
10
1.6000088188976378
20
-0.8268321653543307
11
1.5994094488188977
21
-0.8238188976377953
0
LINE
8
BLACK
6
CONTINUOUS
10
1.5994094488188977
20
-0.8238188976377953
11
1.5994094488188977
21
-0.8080708661417323
0
LINE
8
BLACK
6
CONTINUOUS
10
1.5994094488188977
20
-0.8080708661417323
11
1.6000088188976378
21
-0.8050575984251969
0
LINE
8
BLACK
6
CONTINUOUS
10
1.6000088188976378
20
-0.8050575984251969
11
1.6017157086614173
21
-0.8025031102362205
0
LINE
8
BLACK
6
CONTINUOUS
10
1.6017157086614173
20
-0.8025031102362205
11
1.6042701968503936
21
-0.8007962204724409
0
LINE
8
BLACK
6
CONTINUOUS
10
1.6042701968503936
20
-0.8007962204724409
11
1.6072834645669292
21
-0.8001968503937008
0
LINE
8
BLACK
6
CONTINUOUS
10
1.6072834645669292
20
-0.8001968503937008
11
1.6289370078740157
21
-0.8001968503937008
0
LINE
8
BLACK
6
CONTINUOUS
10
1.6289370078740157
20
-0.8001968503937008
11
1.6319502755905511
21
-0.8007962204724409
0
LINE
8
BLACK
6
CONTINUOUS
10
1.5299817716535433
20
-0.7934635433070866
11
1.5325362598425196
21
-0.7951704330708661
0
LINE
8
BLACK
6
CONTINUOUS
10
1.5325362598425196
20
-0.7951704330708661
11
1.5342431496062992
21
-0.7977249212598425
0
LINE
8
BLACK
6
CONTINUOUS
10
1.5342431496062992
20
-0.7977249212598425
11
1.5348425196850393
21
-0.8007381889763779
0
LINE
8
BLACK
6
CONTINUOUS
10
1.5348425196850393
20
-0.8007381889763779
11
1.5348425196850393
21
-0.8164862204724409
0
LINE
8
BLACK
6
CONTINUOUS
10
1.5348425196850393
20
-0.8164862204724409
11
1.5342431496062992
21
-0.8194994881889763
0
LINE
8
BLACK
6
CONTINUOUS
10
1.5342431496062992
20
-0.8194994881889763
11
1.5325362598425196
21
-0.8220539763779527
0
LINE
8
BLACK
6
CONTINUOUS
10
1.5325362598425196
20
-0.8220539763779527
11
1.5299817716535433
21
-0.8237608661417323
0
LINE
8
BLACK
6
CONTINUOUS
10
1.5299817716535433
20
-0.8237608661417323
11
1.5269685039370078
21
-0.8243602362204724
0
LINE
8
BLACK
6
CONTINUOUS
10
1.5269685039370078
20
-0.8243602362204724
11
1.5053149606299212
21
-0.8243602362204724
0
LINE
8
BLACK
6
CONTINUOUS
10
1.5053149606299212
20
-0.8243602362204724
11
1.5023016929133859
21
-0.8237608661417323
0
LINE
8
BLACK
6
CONTINUOUS
10
1.5023016929133859
20
-0.8237608661417323
11
1.4997472047244094
21
-0.8220539763779527
0
LINE
8
BLACK
6
CONTINUOUS
10
1.4997472047244094
20
-0.8220539763779527
11
1.4980403149606298
21
-0.8194994881889763
0
LINE
8
BLACK
6
CONTINUOUS
10
1.4980403149606298
20
-0.8194994881889763
11
1.4974409448818897
21
-0.8164862204724409
0
LINE
8
BLACK
6
CONTINUOUS
10
1.4974409448818897
20
-0.8164862204724409
11
1.4974409448818897
21
-0.8007381889763779
0
LINE
8
BLACK
6
CONTINUOUS
10
1.4974409448818897
20
-0.8007381889763779
11
1.4980403149606298
21
-0.7977249212598425
0
LINE
8
BLACK
6
CONTINUOUS
10
1.4980403149606298
20
-0.7977249212598425
11
1.4997472047244094
21
-0.7951704330708661
0
LINE
8
BLACK
6
CONTINUOUS
10
1.4997472047244094
20
-0.7951704330708661
11
1.5023016929133859
21
-0.7934635433070866
0
LINE
8
BLACK
6
CONTINUOUS
10
1.5023016929133859
20
-0.7934635433070866
11
1.5053149606299212
21
-0.7928641732283465
0
LINE
8
BLACK
6
CONTINUOUS
10
1.5053149606299212
20
-0.7928641732283465
11
1.5269685039370078
21
-0.7928641732283465
0
LINE
8
BLACK
6
CONTINUOUS
10
1.5269685039370078
20
-0.7928641732283465
11
1.5299817716535433
21
-0.7934635433070866
0
LINE
8
BLACK
6
CONTINUOUS
10
1.7347061811023621
20
-0.7934635433070866
11
1.7372606692913386
21
-0.7951704330708661
0
LINE
8
BLACK
6
CONTINUOUS
10
1.7372606692913386
20
-0.7951704330708661
11
1.7389675590551181
21
-0.7977249212598425
0
LINE
8
BLACK
6
CONTINUOUS
10
1.7389675590551181
20
-0.7977249212598425
11
1.7395669291338582
21
-0.8007381889763779
0
LINE
8
BLACK
6
CONTINUOUS
10
1.7395669291338582
20
-0.8007381889763779
11
1.7395669291338582
21
-0.8164862204724409
0
LINE
8
BLACK
6
CONTINUOUS
10
1.7395669291338582
20
-0.8164862204724409
11
1.7389675590551181
21
-0.8194994881889763
0
LINE
8
BLACK
6
CONTINUOUS
10
1.7389675590551181
20
-0.8194994881889763
11
1.7372606692913386
21
-0.8220539763779527
0
LINE
8
BLACK
6
CONTINUOUS
10
1.7372606692913386
20
-0.8220539763779527
11
1.7347061811023621
21
-0.8237608661417323
0
LINE
8
BLACK
6
CONTINUOUS
10
1.7347061811023621
20
-0.8237608661417323
11
1.7316929133858268
21
-0.8243602362204724
0
LINE
8
BLACK
6
CONTINUOUS
10
1.7316929133858268
20
-0.8243602362204724
11
1.7100393700787402
21
-0.8243602362204724
0
LINE
8
BLACK
6
CONTINUOUS
10
1.7100393700787402
20
-0.8243602362204724
11
1.7070261023622046
21
-0.8237608661417323
0
LINE
8
BLACK
6
CONTINUOUS
10
1.7070261023622046
20
-0.8237608661417323
11
1.7044716141732283
21
-0.8220539763779527
0
LINE
8
BLACK
6
CONTINUOUS
10
1.7044716141732283
20
-0.8220539763779527
11
1.7027647244094488
21
-0.8194994881889763
0
LINE
8
BLACK
6
CONTINUOUS
10
1.7027647244094488
20
-0.8194994881889763
11
1.7021653543307087
21
-0.8164862204724409
0
LINE
8
BLACK
6
CONTINUOUS
10
1.7021653543307087
20
-0.8164862204724409
11
1.7021653543307087
21
-0.8007381889763779
0
LINE
8
BLACK
6
CONTINUOUS
10
1.7021653543307087
20
-0.8007381889763779
11
1.7027647244094488
21
-0.7977249212598425
0
LINE
8
BLACK
6
CONTINUOUS
10
1.7027647244094488
20
-0.7977249212598425
11
1.7044716141732283
21
-0.7951704330708661
0
LINE
8
BLACK
6
CONTINUOUS
10
1.7044716141732283
20
-0.7951704330708661
11
1.7070261023622046
21
-0.7934635433070866
0
LINE
8
BLACK
6
CONTINUOUS
10
1.7070261023622046
20
-0.7934635433070866
11
1.7100393700787402
21
-0.7928641732283465
0
LINE
8
BLACK
6
CONTINUOUS
10
1.7100393700787402
20
-0.7928641732283465
11
1.7316929133858268
21
-0.7928641732283465
0
LINE
8
BLACK
6
CONTINUOUS
10
1.7316929133858268
20
-0.7928641732283465
11
1.7347061811023621
21
-0.7934635433070866
0
LINE
8
BLACK
6
CONTINUOUS
10
1.3012416141732284
20
-0.7437096062992126
11
1.3037961023622047
21
-0.7454164960629921
0
LINE
8
BLACK
6
CONTINUOUS
10
1.3037961023622047
20
-0.7454164960629921
11
1.3055029921259842
21
-0.7479709842519685
0
LINE
8
BLACK
6
CONTINUOUS
10
1.3055029921259842
20
-0.7479709842519685
11
1.3061023622047243
21
-0.7509842519685039
0
LINE
8
BLACK
6
CONTINUOUS
10
1.3061023622047243
20
-0.7509842519685039
11
1.3061023622047243
21
-0.7667322834645669
0
LINE
8
BLACK
6
CONTINUOUS
10
1.3061023622047243
20
-0.7667322834645669
11
1.3055029921259842
21
-0.7697455511811023
0
LINE
8
BLACK
6
CONTINUOUS
10
1.3055029921259842
20
-0.7697455511811023
11
1.3037961023622047
21
-0.7723000393700787
0
LINE
8
BLACK
6
CONTINUOUS
10
1.3037961023622047
20
-0.7723000393700787
11
1.3012416141732284
21
-0.7740069291338583
0
LINE
8
BLACK
6
CONTINUOUS
10
1.3012416141732284
20
-0.7740069291338583
11
1.2982283464566928
21
-0.7746062992125984
0
LINE
8
BLACK
6
CONTINUOUS
10
1.2982283464566928
20
-0.7746062992125984
11
1.2765748031496063
21
-0.7746062992125984
0
LINE
8
BLACK
6
CONTINUOUS
10
1.2765748031496063
20
-0.7746062992125984
11
1.2735615354330709
21
-0.7740069291338583
0
LINE
8
BLACK
6
CONTINUOUS
10
1.2735615354330709
20
-0.7740069291338583
11
1.2710070472440944
21
-0.7723000393700787
0
LINE
8
BLACK
6
CONTINUOUS
10
1.2710070472440944
20
-0.7723000393700787
11
1.2693001574803149
21
-0.7697455511811023
0
LINE
8
BLACK
6
CONTINUOUS
10
1.2693001574803149
20
-0.7697455511811023
11
1.2687007874015748
21
-0.7667322834645669
0
LINE
8
BLACK
6
CONTINUOUS
10
1.2687007874015748
20
-0.7667322834645669
11
1.2687007874015748
21
-0.7509842519685039
0
LINE
8
BLACK
6
CONTINUOUS
10
1.2687007874015748
20
-0.7509842519685039
11
1.2693001574803149
21
-0.7479709842519685
0
LINE
8
BLACK
6
CONTINUOUS
10
1.2693001574803149
20
-0.7479709842519685
11
1.2710070472440944
21
-0.7454164960629921
0
LINE
8
BLACK
6
CONTINUOUS
10
1.2710070472440944
20
-0.7454164960629921
11
1.2735615354330709
21
-0.7437096062992126
0
LINE
8
BLACK
6
CONTINUOUS
10
1.2735615354330709
20
-0.7437096062992126
11
1.2765748031496063
21
-0.7431102362204725
0
LINE
8
BLACK
6
CONTINUOUS
10
1.2765748031496063
20
-0.7431102362204725
11
1.2982283464566928
21
-0.7431102362204725
0
LINE
8
BLACK
6
CONTINUOUS
10
1.2982283464566928
20
-0.7431102362204725
11
1.3012416141732284
21
-0.7437096062992126
0
LINE
8
BLACK
6
CONTINUOUS
10
1.6319502755905511
20
-0.7358355905511811
11
1.6345047637795276
21
-0.7375424803149606
0
LINE
8
BLACK
6
CONTINUOUS
10
1.6345047637795276
20
-0.7375424803149606
11
1.6362116535433071
21
-0.740096968503937
0
LINE
8
BLACK
6
CONTINUOUS
10
1.6362116535433071
20
-0.740096968503937
11
1.6368110236220472
21
-0.7431102362204725
0
LINE
8
BLACK
6
CONTINUOUS
10
1.6368110236220472
20
-0.7431102362204725
11
1.6368110236220472
21
-0.7588582677165354
0
LINE
8
BLACK
6
CONTINUOUS
10
1.6368110236220472
20
-0.7588582677165354
11
1.6362116535433071
21
-0.7618715354330708
0
LINE
8
BLACK
6
CONTINUOUS
10
1.6362116535433071
20
-0.7618715354330708
11
1.6345047637795276
21
-0.7644260236220473
0
LINE
8
BLACK
6
CONTINUOUS
10
1.6345047637795276
20
-0.7644260236220473
11
1.6319502755905511
21
-0.7661329133858268
0
LINE
8
BLACK
6
CONTINUOUS
10
1.6319502755905511
20
-0.7661329133858268
11
1.6289370078740157
21
-0.7667322834645669
0
LINE
8
BLACK
6
CONTINUOUS
10
1.6289370078740157
20
-0.7667322834645669
11
1.6072834645669292
21
-0.7667322834645669
0
LINE
8
BLACK
6
CONTINUOUS
10
1.6072834645669292
20
-0.7667322834645669
11
1.6042701968503936
21
-0.7661329133858268
0
LINE
8
BLACK
6
CONTINUOUS
10
1.6042701968503936
20
-0.7661329133858268
11
1.6017157086614173
21
-0.7644260236220473
0
LINE
8
BLACK
6
CONTINUOUS
10
1.6017157086614173
20
-0.7644260236220473
11
1.6000088188976378
21
-0.7618715354330708
0
LINE
8
BLACK
6
CONTINUOUS
10
1.6000088188976378
20
-0.7618715354330708
11
1.5994094488188977
21
-0.7588582677165354
0
LINE
8
BLACK
6
CONTINUOUS
10
1.5994094488188977
20
-0.7588582677165354
11
1.5994094488188977
21
-0.7431102362204725
0
LINE
8
BLACK
6
CONTINUOUS
10
1.5994094488188977
20
-0.7431102362204725
11
1.6000088188976378
21
-0.740096968503937
0
LINE
8
BLACK
6
CONTINUOUS
10
1.6000088188976378
20
-0.740096968503937
11
1.6017157086614173
21
-0.7375424803149606
0
LINE
8
BLACK
6
CONTINUOUS
10
1.6017157086614173
20
-0.7375424803149606
11
1.6042701968503936
21
-0.7358355905511811
0
LINE
8
BLACK
6
CONTINUOUS
10
1.6042701968503936
20
-0.7358355905511811
11
1.6072834645669292
21
-0.735236220472441
0
LINE
8
BLACK
6
CONTINUOUS
10
1.6072834645669292
20
-0.735236220472441
11
1.6289370078740157
21
-0.735236220472441
0
LINE
8
BLACK
6
CONTINUOUS
10
1.6289370078740157
20
-0.735236220472441
11
1.6319502755905511
21
-0.7358355905511811
0
LINE
8
BLACK
6
CONTINUOUS
10
1.5299817716535433
20
-0.7285029133858267
11
1.5325362598425196
21
-0.7302098031496063
0
LINE
8
BLACK
6
CONTINUOUS
10
1.5325362598425196
20
-0.7302098031496063
11
1.5342431496062992
21
-0.7327642913385827
0
LINE
8
BLACK
6
CONTINUOUS
10
1.5342431496062992
20
-0.7327642913385827
11
1.5348425196850393
21
-0.7357775590551181
0
LINE
8
BLACK
6
CONTINUOUS
10
1.5348425196850393
20
-0.7357775590551181
11
1.5348425196850393
21
-0.7515255905511811
0
LINE
8
BLACK
6
CONTINUOUS
10
1.5348425196850393
20
-0.7515255905511811
11
1.5342431496062992
21
-0.7545388582677165
0
LINE
8
BLACK
6
CONTINUOUS
10
1.5342431496062992
20
-0.7545388582677165
11
1.5325362598425196
21
-0.7570933464566929
0
LINE
8
BLACK
6
CONTINUOUS
10
1.5325362598425196
20
-0.7570933464566929
11
1.5299817716535433
21
-0.7588002362204724
0
LINE
8
BLACK
6
CONTINUOUS
10
1.5299817716535433
20
-0.7588002362204724
11
1.5269685039370078
21
-0.7593996062992125
0
LINE
8
BLACK
6
CONTINUOUS
10
1.5269685039370078
20
-0.7593996062992125
11
1.5053149606299212
21
-0.7593996062992125
0
LINE
8
BLACK
6
CONTINUOUS
10
1.5053149606299212
20
-0.7593996062992125
11
1.5023016929133859
21
-0.7588002362204724
0
LINE
8
BLACK
6
CONTINUOUS
10
1.5023016929133859
20
-0.7588002362204724
11
1.4997472047244094
21
-0.7570933464566929
0
LINE
8
BLACK
6
CONTINUOUS
10
1.4997472047244094
20
-0.7570933464566929
11
1.4980403149606298
21
-0.7545388582677165
0
LINE
8
BLACK
6
CONTINUOUS
10
1.4980403149606298
20
-0.7545388582677165
11
1.4974409448818897
21
-0.7515255905511811
0
LINE
8
BLACK
6
CONTINUOUS
10
1.4974409448818897
20
-0.7515255905511811
11
1.4974409448818897
21
-0.7357775590551181
0
LINE
8
BLACK
6
CONTINUOUS
10
1.4974409448818897
20
-0.7357775590551181
11
1.4980403149606298
21
-0.7327642913385827
0
LINE
8
BLACK
6
CONTINUOUS
10
1.4980403149606298
20
-0.7327642913385827
11
1.4997472047244094
21
-0.7302098031496063
0
LINE
8
BLACK
6
CONTINUOUS
10
1.4997472047244094
20
-0.7302098031496063
11
1.5023016929133859
21
-0.7285029133858267
0
LINE
8
BLACK
6
CONTINUOUS
10
1.5023016929133859
20
-0.7285029133858267
11
1.5053149606299212
21
-0.7279035433070866
0
LINE
8
BLACK
6
CONTINUOUS
10
1.5053149606299212
20
-0.7279035433070866
11
1.5269685039370078
21
-0.7279035433070866
0
LINE
8
BLACK
6
CONTINUOUS
10
1.5269685039370078
20
-0.7279035433070866
11
1.5299817716535433
21
-0.7285029133858267
0
LINE
8
BLACK
6
CONTINUOUS
10
1.7347061811023621
20
-0.7285029133858267
11
1.7372606692913386
21
-0.7302098031496063
0
LINE
8
BLACK
6
CONTINUOUS
10
1.7372606692913386
20
-0.7302098031496063
11
1.7389675590551181
21
-0.7327642913385827
0
LINE
8
BLACK
6
CONTINUOUS
10
1.7389675590551181
20
-0.7327642913385827
11
1.7395669291338582
21
-0.7357775590551181
0
LINE
8
BLACK
6
CONTINUOUS
10
1.7395669291338582
20
-0.7357775590551181
11
1.7395669291338582
21
-0.7515255905511811
0
LINE
8
BLACK
6
CONTINUOUS
10
1.7395669291338582
20
-0.7515255905511811
11
1.7389675590551181
21
-0.7545388582677165
0
LINE
8
BLACK
6
CONTINUOUS
10
1.7389675590551181
20
-0.7545388582677165
11
1.7372606692913386
21
-0.7570933464566929
0
LINE
8
BLACK
6
CONTINUOUS
10
1.7372606692913386
20
-0.7570933464566929
11
1.7347061811023621
21
-0.7588002362204724
0
LINE
8
BLACK
6
CONTINUOUS
10
1.7347061811023621
20
-0.7588002362204724
11
1.7316929133858268
21
-0.7593996062992125
0
LINE
8
BLACK
6
CONTINUOUS
10
1.7316929133858268
20
-0.7593996062992125
11
1.7100393700787402
21
-0.7593996062992125
0
LINE
8
BLACK
6
CONTINUOUS
10
1.7100393700787402
20
-0.7593996062992125
11
1.7070261023622046
21
-0.7588002362204724
0
LINE
8
BLACK
6
CONTINUOUS
10
1.7070261023622046
20
-0.7588002362204724
11
1.7044716141732283
21
-0.7570933464566929
0
LINE
8
BLACK
6
CONTINUOUS
10
1.7044716141732283
20
-0.7570933464566929
11
1.7027647244094488
21
-0.7545388582677165
0
LINE
8
BLACK
6
CONTINUOUS
10
1.7027647244094488
20
-0.7545388582677165
11
1.7021653543307087
21
-0.7515255905511811
0
LINE
8
BLACK
6
CONTINUOUS
10
1.7021653543307087
20
-0.7515255905511811
11
1.7021653543307087
21
-0.7357775590551181
0
LINE
8
BLACK
6
CONTINUOUS
10
1.7021653543307087
20
-0.7357775590551181
11
1.7027647244094488
21
-0.7327642913385827
0
LINE
8
BLACK
6
CONTINUOUS
10
1.7027647244094488
20
-0.7327642913385827
11
1.7044716141732283
21
-0.7302098031496063
0
LINE
8
BLACK
6
CONTINUOUS
10
1.7044716141732283
20
-0.7302098031496063
11
1.7070261023622046
21
-0.7285029133858267
0
LINE
8
BLACK
6
CONTINUOUS
10
1.7070261023622046
20
-0.7285029133858267
11
1.7100393700787402
21
-0.7279035433070866
0
LINE
8
BLACK
6
CONTINUOUS
10
1.7100393700787402
20
-0.7279035433070866
11
1.7316929133858268
21
-0.7279035433070866
0
LINE
8
BLACK
6
CONTINUOUS
10
1.7316929133858268
20
-0.7279035433070866
11
1.7347061811023621
21
-0.7285029133858267
  0
ENDSEC
  0
EOF
