  0
SECTION
  2
HEADER
  9
$ANGBASE
  50
0.0
  9
$ANGDIR
  70
1
  9
$MEASUREMENT
  70
0
  0
ENDSEC
  0
SECTION
  2
TABLES
  0
TABLE
  2
LTYPE
  70
4
  0
LTYPE
  5
40F
  2
CONTINUOUS
  70
0
  3
Solid line
  72
65
  73
0
  40
0.0
  0
LTYPE
  5
410
  2
DASHDOT
 70
0
  3
Dash Dot ____ _ ____ _
 72
65
 73
4
 40
2.0
 49
1.25
 49
-0.25
 49
0.25
 49
-0.25
  0
LTYPE
  5
411
  2
DASHED
 70
0
  3
Dashed __ __ __ __ __
 72
65
 73
2
 40
0.75
 49
0.5
 49
-0.25
  0
LTYPE
  5
43B
  2
DOTTED
 70
0
  3
Dotted .  .  .  .
 72
65
 73
2
 40
0.2
 49
0.0
 49
-0.2
  0
ENDTAB
  0
TABLE
  2
STYLE
  70
4
  0
STYLE
  2
KICAD
  70
0
  40
0
  41
1
  42
1
  50
0
  71
0
  3
isocp.shx
  0
STYLE
  2
KICADB
  70
0
  40
0
  41
1
  42
1
  50
0
  71
0
  3
isocp.shx
  0
STYLE
  2
KICADI
  70
0
  40
0
  41
1
  42
1
  50
15
  71
0
  3
isocp.shx
  0
STYLE
  2
KICADBI
  70
0
  40
0
  41
1
  42
1
  50
15
  71
0
  3
isocp.shx
  0
ENDTAB
  0
TABLE
  2
LAYER
  70
1
  0
LAYER
  2
BLACK
  70
0
  62
7
  6
CONTINUOUS
  0
ENDTAB
  0
ENDSEC
  0
SECTION
  2
ENTITIES
0
LINE
8
BLACK
6
CONTINUOUS
10
4.0751798031496058
20
-0.6093268897637795
11
4.0757124803149605
21
-0.6098595669291338
0
LINE
8
BLACK
6
CONTINUOUS
10
4.0757124803149605
20
-0.6098595669291338
11
4.0757874015748028
21
-0.610236220472441
0
LINE
8
BLACK
6
CONTINUOUS
10
4.0757874015748028
20
-0.610236220472441
11
4.0757874015748028
21
-3.2874015748031495
0
LINE
8
BLACK
6
CONTINUOUS
10
4.0757874015748028
20
-3.2874015748031495
11
4.0757148425196847
21
-3.287766338582677
0
LINE
8
BLACK
6
CONTINUOUS
10
4.0757148425196847
20
-3.287766338582677
11
4.0757148818897635
21
-3.2877723228346456
0
LINE
8
BLACK
6
CONTINUOUS
10
4.0757148818897635
20
-3.2877723228346456
11
4.0757133070866143
21
-3.2877738582677165
0
LINE
8
BLACK
6
CONTINUOUS
10
4.0757133070866143
20
-3.2877738582677165
11
4.0757124803149605
21
-3.2877782283464567
0
LINE
8
BLACK
6
CONTINUOUS
10
4.0757124803149605
20
-3.2877782283464567
11
4.0754457086614169
21
-3.2880449606299211
0
LINE
8
BLACK
6
CONTINUOUS
10
4.0754457086614169
20
-3.2880449606299211
11
4.0751856692913382
21
-3.2883084251968504
0
LINE
8
BLACK
6
CONTINUOUS
10
4.0751856692913382
20
-3.2883084251968504
11
4.0751813779527559
21
-3.2883092913385825
0
LINE
8
BLACK
6
CONTINUOUS
10
4.0751813779527559
20
-3.2883092913385825
11
4.0751798031496058
21
-3.2883109055118109
0
LINE
8
BLACK
6
CONTINUOUS
10
4.0751798031496058
20
-3.2883109055118109
11
4.0751736220472443
21
-3.2883109055118109
0
LINE
8
BLACK
6
CONTINUOUS
10
4.0751736220472443
20
-3.2883109055118109
11
4.0748095275590552
21
-3.2883857874015749
0
LINE
8
BLACK
6
CONTINUOUS
10
4.0748095275590552
20
-3.2883857874015749
11
0.5118174015748032
21
-3.3115312992125983
0
LINE
8
BLACK
6
CONTINUOUS
10
0.5118174015748032
20
-3.3115312992125983
11
0.5114402755905512
21
-3.3114588582677165
0
LINE
8
BLACK
6
CONTINUOUS
10
0.5114402755905512
20
-3.3114588582677165
11
0.5114377952755905
21
-3.3114564173228347
0
LINE
8
BLACK
6
CONTINUOUS
10
0.5114377952755905
20
-3.3114564173228347
11
0.5114343700787402
21
-3.3114564173228347
0
LINE
8
BLACK
6
CONTINUOUS
10
0.5114343700787402
20
-3.3114564173228347
11
0.5111706692913386
21
-3.3111927165354329
0
LINE
8
BLACK
6
CONTINUOUS
10
0.5111706692913386
20
-3.3111927165354329
11
0.5109041732283465
21
-3.3109296456692912
0
LINE
8
BLACK
6
CONTINUOUS
10
0.5109041732283465
20
-3.3109296456692912
11
0.5109041338582677
21
-3.3109261811023623
0
LINE
8
BLACK
6
CONTINUOUS
10
0.5109041338582677
20
-3.3109261811023623
11
0.5109016929133858
21
-3.31092374015748
0
LINE
8
BLACK
6
CONTINUOUS
10
0.5109016929133858
20
-3.31092374015748
11
0.5108267716535433
21
-3.3105470866141733
0
LINE
8
BLACK
6
CONTINUOUS
10
0.5108267716535433
20
-3.3105470866141733
11
0.5108267716535433
21
-0.610236220472441
0
LINE
8
BLACK
6
CONTINUOUS
10
0.5108267716535433
20
-0.610236220472441
11
0.5109016929133858
21
-0.6098595669291338
0
LINE
8
BLACK
6
CONTINUOUS
10
0.5109016929133858
20
-0.6098595669291338
11
0.5114343700787402
21
-0.6093268897637795
0
LINE
8
BLACK
6
CONTINUOUS
10
0.5114343700787402
20
-0.6093268897637795
11
0.5118110236220472
21
-0.609251968503937
0
LINE
8
BLACK
6
CONTINUOUS
10
0.5118110236220472
20
-0.609251968503937
11
4.0748031496062991
21
-0.609251968503937
0
LINE
8
BLACK
6
CONTINUOUS
10
4.0748031496062991
20
-0.609251968503937
11
4.0751798031496058
21
-0.6093268897637795
0
LINE
8
BLACK
6
CONTINUOUS
10
0.5127952755905512
20
-0.6112204724409449
11
0.5127952755905512
21
-3.3095564173228347
0
LINE
8
BLACK
6
CONTINUOUS
10
0.5127952755905512
20
-3.3095564173228347
11
4.0738188976377954
21
-3.2864237007874015
0
LINE
8
BLACK
6
CONTINUOUS
10
4.0738188976377954
20
-3.2864237007874015
11
4.0738188976377954
21
-0.6112204724409449
0
LINE
8
BLACK
6
CONTINUOUS
10
4.0738188976377954
20
-0.6112204724409449
11
0.5127952755905512
21
-0.6112204724409449
  0
ENDSEC
  0
EOF
