  0
SECTION
  2
HEADER
  9
$ANGBASE
  50
0.0
  9
$ANGDIR
  70
1
  9
$MEASUREMENT
  70
0
  0
ENDSEC
  0
SECTION
  2
TABLES
  0
TABLE
  2
LTYPE
  70
4
  0
LTYPE
  5
40F
  2
CONTINUOUS
  70
0
  3
Solid line
  72
65
  73
0
  40
0.0
  0
LTYPE
  5
410
  2
DASHDOT
 70
0
  3
Dash Dot ____ _ ____ _
 72
65
 73
4
 40
2.0
 49
1.25
 49
-0.25
 49
0.25
 49
-0.25
  0
LTYPE
  5
411
  2
DASHED
 70
0
  3
Dashed __ __ __ __ __
 72
65
 73
2
 40
0.75
 49
0.5
 49
-0.25
  0
LTYPE
  5
43B
  2
DOTTED
 70
0
  3
Dotted .  .  .  .
 72
65
 73
2
 40
0.2
 49
0.0
 49
-0.2
  0
ENDTAB
  0
TABLE
  2
STYLE
  70
4
  0
STYLE
  2
KICAD
  70
0
  40
0
  41
1
  42
1
  50
0
  71
0
  3
isocp.shx
  0
STYLE
  2
KICADB
  70
0
  40
0
  41
1
  42
1
  50
0
  71
0
  3
isocp.shx
  0
STYLE
  2
KICADI
  70
0
  40
0
  41
1
  42
1
  50
15
  71
0
  3
isocp.shx
  0
STYLE
  2
KICADBI
  70
0
  40
0
  41
1
  42
1
  50
15
  71
0
  3
isocp.shx
  0
ENDTAB
  0
TABLE
  2
LAYER
  70
1
  0
LAYER
  2
BLACK
  70
0
  62
7
  6
CONTINUOUS
  0
ENDTAB
  0
ENDSEC
  0
SECTION
  2
ENTITIES
0
LINE
8
BLACK
6
CONTINUOUS
10
4.1704724409448817
20
-4.2893700787401574
11
4.1035433070866141
21
-4.2893700787401574
0
LINE
8
BLACK
6
CONTINUOUS
10
4.1035433070866141
20
-4.2893700787401574
11
4.1035433070866141
21
-4.2224409448818898
0
LINE
8
BLACK
6
CONTINUOUS
10
4.1035433070866141
20
-4.2224409448818898
11
4.1704724409448817
21
-4.2224409448818898
0
LINE
8
BLACK
6
CONTINUOUS
10
4.1704724409448817
20
-4.2224409448818898
11
4.1704724409448817
21
-4.2893700787401574
0
LINE
8
BLACK
6
CONTINUOUS
10
3.7473489763779528
20
-4.2240788188976373
11
3.7537401574803151
21
-4.2269243307086617
0
LINE
8
BLACK
6
CONTINUOUS
10
3.7537401574803151
20
-4.2269243307086617
11
3.7594000393700786
21
-4.231036496062992
0
LINE
8
BLACK
6
CONTINUOUS
10
3.7594000393700786
20
-4.231036496062992
11
3.7640812598425195
21
-4.2362355511811023
0
LINE
8
BLACK
6
CONTINUOUS
10
3.7640812598425195
20
-4.2362355511811023
11
3.7675792913385826
21
-4.2422942519685041
0
LINE
8
BLACK
6
CONTINUOUS
10
3.7675792913385826
20
-4.2422942519685041
11
3.7697411417322835
21
-4.2489478346456693
0
LINE
8
BLACK
6
CONTINUOUS
10
3.7697411417322835
20
-4.2489478346456693
11
3.7704724409448818
21
-4.2559055118110232
0
LINE
8
BLACK
6
CONTINUOUS
10
3.7704724409448818
20
-4.2559055118110232
11
3.7697411417322835
21
-4.2628631889763779
0
LINE
8
BLACK
6
CONTINUOUS
10
3.7697411417322835
20
-4.2628631889763779
11
3.7675792913385826
21
-4.2695167716535432
0
LINE
8
BLACK
6
CONTINUOUS
10
3.7675792913385826
20
-4.2695167716535432
11
3.7640812598425195
21
-4.2755754724409449
0
LINE
8
BLACK
6
CONTINUOUS
10
3.7640812598425195
20
-4.2755754724409449
11
3.7594000393700786
21
-4.2807745275590552
0
LINE
8
BLACK
6
CONTINUOUS
10
3.7594000393700786
20
-4.2807745275590552
11
3.7537401574803151
21
-4.2848866929133855
0
LINE
8
BLACK
6
CONTINUOUS
10
3.7537401574803151
20
-4.2848866929133855
11
3.7473489763779528
21
-4.2877322047244091
0
LINE
8
BLACK
6
CONTINUOUS
10
3.7473489763779528
20
-4.2877322047244091
11
3.7405058661417323
21
-4.2891867716535428
0
LINE
8
BLACK
6
CONTINUOUS
10
3.7405058661417323
20
-4.2891867716535428
11
3.7335098818897636
21
-4.2891867716535428
0
LINE
8
BLACK
6
CONTINUOUS
10
3.7335098818897636
20
-4.2891867716535428
11
3.7266667716535431
21
-4.2877322047244091
0
LINE
8
BLACK
6
CONTINUOUS
10
3.7266667716535431
20
-4.2877322047244091
11
3.7202755905511808
21
-4.2848866929133855
0
LINE
8
BLACK
6
CONTINUOUS
10
3.7202755905511808
20
-4.2848866929133855
11
3.7146157086614173
21
-4.2807745275590552
0
LINE
8
BLACK
6
CONTINUOUS
10
3.7146157086614173
20
-4.2807745275590552
11
3.7099344881889764
21
-4.2755754724409449
0
LINE
8
BLACK
6
CONTINUOUS
10
3.7099344881889764
20
-4.2755754724409449
11
3.7064364566929133
21
-4.2695167716535432
0
LINE
8
BLACK
6
CONTINUOUS
10
3.7064364566929133
20
-4.2695167716535432
11
3.7042746062992125
21
-4.2628631889763779
0
LINE
8
BLACK
6
CONTINUOUS
10
3.7042746062992125
20
-4.2628631889763779
11
3.7035433070866142
21
-4.2559055118110232
0
LINE
8
BLACK
6
CONTINUOUS
10
3.7035433070866142
20
-4.2559055118110232
11
3.7042746062992125
21
-4.2489478346456693
0
LINE
8
BLACK
6
CONTINUOUS
10
3.7042746062992125
20
-4.2489478346456693
11
3.7064364566929133
21
-4.2422942519685041
0
LINE
8
BLACK
6
CONTINUOUS
10
3.7064364566929133
20
-4.2422942519685041
11
3.7099344881889764
21
-4.2362355511811023
0
LINE
8
BLACK
6
CONTINUOUS
10
3.7099344881889764
20
-4.2362355511811023
11
3.7146157086614173
21
-4.231036496062992
0
LINE
8
BLACK
6
CONTINUOUS
10
3.7146157086614173
20
-4.231036496062992
11
3.7202755905511808
21
-4.2269243307086617
0
LINE
8
BLACK
6
CONTINUOUS
10
3.7202755905511808
20
-4.2269243307086617
11
3.7266667716535431
21
-4.2240788188976373
0
LINE
8
BLACK
6
CONTINUOUS
10
3.7266667716535431
20
-4.2240788188976373
11
3.7335098818897636
21
-4.2226242519685036
0
LINE
8
BLACK
6
CONTINUOUS
10
3.7335098818897636
20
-4.2226242519685036
11
3.7405058661417323
21
-4.2226242519685036
0
LINE
8
BLACK
6
CONTINUOUS
10
3.7405058661417323
20
-4.2226242519685036
11
3.7473489763779528
21
-4.2240788188976373
0
LINE
8
BLACK
6
CONTINUOUS
10
3.8473489763779525
20
-4.2240788188976373
11
3.8537401574803147
21
-4.2269243307086617
0
LINE
8
BLACK
6
CONTINUOUS
10
3.8537401574803147
20
-4.2269243307086617
11
3.8594000393700787
21
-4.231036496062992
0
LINE
8
BLACK
6
CONTINUOUS
10
3.8594000393700787
20
-4.231036496062992
11
3.8640812598425196
21
-4.2362355511811023
0
LINE
8
BLACK
6
CONTINUOUS
10
3.8640812598425196
20
-4.2362355511811023
11
3.8675792913385827
21
-4.2422942519685041
0
LINE
8
BLACK
6
CONTINUOUS
10
3.8675792913385827
20
-4.2422942519685041
11
3.8697411417322836
21
-4.2489478346456693
0
LINE
8
BLACK
6
CONTINUOUS
10
3.8697411417322836
20
-4.2489478346456693
11
3.8704724409448819
21
-4.2559055118110232
0
LINE
8
BLACK
6
CONTINUOUS
10
3.8704724409448819
20
-4.2559055118110232
11
3.8697411417322836
21
-4.2628631889763779
0
LINE
8
BLACK
6
CONTINUOUS
10
3.8697411417322836
20
-4.2628631889763779
11
3.8675792913385827
21
-4.2695167716535432
0
LINE
8
BLACK
6
CONTINUOUS
10
3.8675792913385827
20
-4.2695167716535432
11
3.8640812598425196
21
-4.2755754724409449
0
LINE
8
BLACK
6
CONTINUOUS
10
3.8640812598425196
20
-4.2755754724409449
11
3.8594000393700787
21
-4.2807745275590552
0
LINE
8
BLACK
6
CONTINUOUS
10
3.8594000393700787
20
-4.2807745275590552
11
3.8537401574803147
21
-4.2848866929133855
0
LINE
8
BLACK
6
CONTINUOUS
10
3.8537401574803147
20
-4.2848866929133855
11
3.8473489763779525
21
-4.2877322047244091
0
LINE
8
BLACK
6
CONTINUOUS
10
3.8473489763779525
20
-4.2877322047244091
11
3.8405058661417324
21
-4.2891867716535428
0
LINE
8
BLACK
6
CONTINUOUS
10
3.8405058661417324
20
-4.2891867716535428
11
3.8335098818897637
21
-4.2891867716535428
0
LINE
8
BLACK
6
CONTINUOUS
10
3.8335098818897637
20
-4.2891867716535428
11
3.8266667716535432
21
-4.2877322047244091
0
LINE
8
BLACK
6
CONTINUOUS
10
3.8266667716535432
20
-4.2877322047244091
11
3.8202755905511809
21
-4.2848866929133855
0
LINE
8
BLACK
6
CONTINUOUS
10
3.8202755905511809
20
-4.2848866929133855
11
3.8146157086614174
21
-4.2807745275590552
0
LINE
8
BLACK
6
CONTINUOUS
10
3.8146157086614174
20
-4.2807745275590552
11
3.8099344881889765
21
-4.2755754724409449
0
LINE
8
BLACK
6
CONTINUOUS
10
3.8099344881889765
20
-4.2755754724409449
11
3.8064364566929134
21
-4.2695167716535432
0
LINE
8
BLACK
6
CONTINUOUS
10
3.8064364566929134
20
-4.2695167716535432
11
3.8042746062992125
21
-4.2628631889763779
0
LINE
8
BLACK
6
CONTINUOUS
10
3.8042746062992125
20
-4.2628631889763779
11
3.8035433070866143
21
-4.2559055118110232
0
LINE
8
BLACK
6
CONTINUOUS
10
3.8035433070866143
20
-4.2559055118110232
11
3.8042746062992125
21
-4.2489478346456693
0
LINE
8
BLACK
6
CONTINUOUS
10
3.8042746062992125
20
-4.2489478346456693
11
3.8064364566929134
21
-4.2422942519685041
0
LINE
8
BLACK
6
CONTINUOUS
10
3.8064364566929134
20
-4.2422942519685041
11
3.8099344881889765
21
-4.2362355511811023
0
LINE
8
BLACK
6
CONTINUOUS
10
3.8099344881889765
20
-4.2362355511811023
11
3.8146157086614174
21
-4.231036496062992
0
LINE
8
BLACK
6
CONTINUOUS
10
3.8146157086614174
20
-4.231036496062992
11
3.8202755905511809
21
-4.2269243307086617
0
LINE
8
BLACK
6
CONTINUOUS
10
3.8202755905511809
20
-4.2269243307086617
11
3.8266667716535432
21
-4.2240788188976373
0
LINE
8
BLACK
6
CONTINUOUS
10
3.8266667716535432
20
-4.2240788188976373
11
3.8335098818897637
21
-4.2226242519685036
0
LINE
8
BLACK
6
CONTINUOUS
10
3.8335098818897637
20
-4.2226242519685036
11
3.8405058661417324
21
-4.2226242519685036
0
LINE
8
BLACK
6
CONTINUOUS
10
3.8405058661417324
20
-4.2226242519685036
11
3.8473489763779525
21
-4.2240788188976373
0
LINE
8
BLACK
6
CONTINUOUS
10
3.9473489763779526
20
-4.2240788188976373
11
3.9537401574803148
21
-4.2269243307086617
0
LINE
8
BLACK
6
CONTINUOUS
10
3.9537401574803148
20
-4.2269243307086617
11
3.9594000393700788
21
-4.231036496062992
0
LINE
8
BLACK
6
CONTINUOUS
10
3.9594000393700788
20
-4.231036496062992
11
3.9640812598425197
21
-4.2362355511811023
0
LINE
8
BLACK
6
CONTINUOUS
10
3.9640812598425197
20
-4.2362355511811023
11
3.9675792913385828
21
-4.2422942519685041
0
LINE
8
BLACK
6
CONTINUOUS
10
3.9675792913385828
20
-4.2422942519685041
11
3.9697411417322832
21
-4.2489478346456693
0
LINE
8
BLACK
6
CONTINUOUS
10
3.9697411417322832
20
-4.2489478346456693
11
3.9704724409448819
21
-4.2559055118110232
0
LINE
8
BLACK
6
CONTINUOUS
10
3.9704724409448819
20
-4.2559055118110232
11
3.9697411417322832
21
-4.2628631889763779
0
LINE
8
BLACK
6
CONTINUOUS
10
3.9697411417322832
20
-4.2628631889763779
11
3.9675792913385828
21
-4.2695167716535432
0
LINE
8
BLACK
6
CONTINUOUS
10
3.9675792913385828
20
-4.2695167716535432
11
3.9640812598425197
21
-4.2755754724409449
0
LINE
8
BLACK
6
CONTINUOUS
10
3.9640812598425197
20
-4.2755754724409449
11
3.9594000393700788
21
-4.2807745275590552
0
LINE
8
BLACK
6
CONTINUOUS
10
3.9594000393700788
20
-4.2807745275590552
11
3.9537401574803148
21
-4.2848866929133855
0
LINE
8
BLACK
6
CONTINUOUS
10
3.9537401574803148
20
-4.2848866929133855
11
3.9473489763779526
21
-4.2877322047244091
0
LINE
8
BLACK
6
CONTINUOUS
10
3.9473489763779526
20
-4.2877322047244091
11
3.940505866141732
21
-4.2891867716535428
0
LINE
8
BLACK
6
CONTINUOUS
10
3.940505866141732
20
-4.2891867716535428
11
3.9335098818897638
21
-4.2891867716535428
0
LINE
8
BLACK
6
CONTINUOUS
10
3.9335098818897638
20
-4.2891867716535428
11
3.9266667716535433
21
-4.2877322047244091
0
LINE
8
BLACK
6
CONTINUOUS
10
3.9266667716535433
20
-4.2877322047244091
11
3.920275590551181
21
-4.2848866929133855
0
LINE
8
BLACK
6
CONTINUOUS
10
3.920275590551181
20
-4.2848866929133855
11
3.9146157086614171
21
-4.2807745275590552
0
LINE
8
BLACK
6
CONTINUOUS
10
3.9146157086614171
20
-4.2807745275590552
11
3.9099344881889762
21
-4.2755754724409449
0
LINE
8
BLACK
6
CONTINUOUS
10
3.9099344881889762
20
-4.2755754724409449
11
3.9064364566929135
21
-4.2695167716535432
0
LINE
8
BLACK
6
CONTINUOUS
10
3.9064364566929135
20
-4.2695167716535432
11
3.9042746062992126
21
-4.2628631889763779
0
LINE
8
BLACK
6
CONTINUOUS
10
3.9042746062992126
20
-4.2628631889763779
11
3.9035433070866139
21
-4.2559055118110232
0
LINE
8
BLACK
6
CONTINUOUS
10
3.9035433070866139
20
-4.2559055118110232
11
3.9042746062992126
21
-4.2489478346456693
0
LINE
8
BLACK
6
CONTINUOUS
10
3.9042746062992126
20
-4.2489478346456693
11
3.9064364566929135
21
-4.2422942519685041
0
LINE
8
BLACK
6
CONTINUOUS
10
3.9064364566929135
20
-4.2422942519685041
11
3.9099344881889762
21
-4.2362355511811023
0
LINE
8
BLACK
6
CONTINUOUS
10
3.9099344881889762
20
-4.2362355511811023
11
3.9146157086614171
21
-4.231036496062992
0
LINE
8
BLACK
6
CONTINUOUS
10
3.9146157086614171
20
-4.231036496062992
11
3.920275590551181
21
-4.2269243307086617
0
LINE
8
BLACK
6
CONTINUOUS
10
3.920275590551181
20
-4.2269243307086617
11
3.9266667716535433
21
-4.2240788188976373
0
LINE
8
BLACK
6
CONTINUOUS
10
3.9266667716535433
20
-4.2240788188976373
11
3.9335098818897638
21
-4.2226242519685036
0
LINE
8
BLACK
6
CONTINUOUS
10
3.9335098818897638
20
-4.2226242519685036
11
3.940505866141732
21
-4.2226242519685036
0
LINE
8
BLACK
6
CONTINUOUS
10
3.940505866141732
20
-4.2226242519685036
11
3.9473489763779526
21
-4.2240788188976373
0
LINE
8
BLACK
6
CONTINUOUS
10
4.0473489763779531
20
-4.2240788188976373
11
4.0537401574803145
21
-4.2269243307086617
0
LINE
8
BLACK
6
CONTINUOUS
10
4.0537401574803145
20
-4.2269243307086617
11
4.0594000393700789
21
-4.231036496062992
0
LINE
8
BLACK
6
CONTINUOUS
10
4.0594000393700789
20
-4.231036496062992
11
4.0640812598425198
21
-4.2362355511811023
0
LINE
8
BLACK
6
CONTINUOUS
10
4.0640812598425198
20
-4.2362355511811023
11
4.0675792913385829
21
-4.2422942519685041
0
LINE
8
BLACK
6
CONTINUOUS
10
4.0675792913385829
20
-4.2422942519685041
11
4.0697411417322833
21
-4.2489478346456693
0
LINE
8
BLACK
6
CONTINUOUS
10
4.0697411417322833
20
-4.2489478346456693
11
4.070472440944882
21
-4.2559055118110232
0
LINE
8
BLACK
6
CONTINUOUS
10
4.070472440944882
20
-4.2559055118110232
11
4.0697411417322833
21
-4.2628631889763779
0
LINE
8
BLACK
6
CONTINUOUS
10
4.0697411417322833
20
-4.2628631889763779
11
4.0675792913385829
21
-4.2695167716535432
0
LINE
8
BLACK
6
CONTINUOUS
10
4.0675792913385829
20
-4.2695167716535432
11
4.0640812598425198
21
-4.2755754724409449
0
LINE
8
BLACK
6
CONTINUOUS
10
4.0640812598425198
20
-4.2755754724409449
11
4.0594000393700789
21
-4.2807745275590552
0
LINE
8
BLACK
6
CONTINUOUS
10
4.0594000393700789
20
-4.2807745275590552
11
4.0537401574803145
21
-4.2848866929133855
0
LINE
8
BLACK
6
CONTINUOUS
10
4.0537401574803145
20
-4.2848866929133855
11
4.0473489763779531
21
-4.2877322047244091
0
LINE
8
BLACK
6
CONTINUOUS
10
4.0473489763779531
20
-4.2877322047244091
11
4.0405058661417321
21
-4.2891867716535428
0
LINE
8
BLACK
6
CONTINUOUS
10
4.0405058661417321
20
-4.2891867716535428
11
4.0335098818897634
21
-4.2891867716535428
0
LINE
8
BLACK
6
CONTINUOUS
10
4.0335098818897634
20
-4.2891867716535428
11
4.0266667716535434
21
-4.2877322047244091
0
LINE
8
BLACK
6
CONTINUOUS
10
4.0266667716535434
20
-4.2877322047244091
11
4.0202755905511811
21
-4.2848866929133855
0
LINE
8
BLACK
6
CONTINUOUS
10
4.0202755905511811
20
-4.2848866929133855
11
4.0146157086614176
21
-4.2807745275590552
0
LINE
8
BLACK
6
CONTINUOUS
10
4.0146157086614176
20
-4.2807745275590552
11
4.0099344881889767
21
-4.2755754724409449
0
LINE
8
BLACK
6
CONTINUOUS
10
4.0099344881889767
20
-4.2755754724409449
11
4.0064364566929136
21
-4.2695167716535432
0
LINE
8
BLACK
6
CONTINUOUS
10
4.0064364566929136
20
-4.2695167716535432
11
4.0042746062992123
21
-4.2628631889763779
0
LINE
8
BLACK
6
CONTINUOUS
10
4.0042746062992123
20
-4.2628631889763779
11
4.0035433070866144
21
-4.2559055118110232
0
LINE
8
BLACK
6
CONTINUOUS
10
4.0035433070866144
20
-4.2559055118110232
11
4.0042746062992123
21
-4.2489478346456693
0
LINE
8
BLACK
6
CONTINUOUS
10
4.0042746062992123
20
-4.2489478346456693
11
4.0064364566929136
21
-4.2422942519685041
0
LINE
8
BLACK
6
CONTINUOUS
10
4.0064364566929136
20
-4.2422942519685041
11
4.0099344881889767
21
-4.2362355511811023
0
LINE
8
BLACK
6
CONTINUOUS
10
4.0099344881889767
20
-4.2362355511811023
11
4.0146157086614176
21
-4.231036496062992
0
LINE
8
BLACK
6
CONTINUOUS
10
4.0146157086614176
20
-4.231036496062992
11
4.0202755905511811
21
-4.2269243307086617
0
LINE
8
BLACK
6
CONTINUOUS
10
4.0202755905511811
20
-4.2269243307086617
11
4.0266667716535434
21
-4.2240788188976373
0
LINE
8
BLACK
6
CONTINUOUS
10
4.0266667716535434
20
-4.2240788188976373
11
4.0335098818897634
21
-4.2226242519685036
0
LINE
8
BLACK
6
CONTINUOUS
10
4.0335098818897634
20
-4.2226242519685036
11
4.0405058661417321
21
-4.2226242519685036
0
LINE
8
BLACK
6
CONTINUOUS
10
4.0405058661417321
20
-4.2226242519685036
11
4.0473489763779531
21
-4.2240788188976373
0
LINE
8
BLACK
6
CONTINUOUS
10
4.1600393700787404
20
-4.0726377952755906
11
4.1403543307086617
21
-4.0726377952755906
0
LINE
8
BLACK
6
CONTINUOUS
10
4.1403543307086617
20
-4.0726377952755906
11
4.1403543307086617
21
-4.0724374409448814
0
LINE
8
BLACK
6
CONTINUOUS
10
4.1403543307086617
20
-4.0724374409448814
11
4.1375528740157481
21
-4.0724374409448814
0
LINE
8
BLACK
6
CONTINUOUS
10
4.1375528740157481
20
-4.0724374409448814
11
4.1321768503937006
21
-4.0708588976377955
0
LINE
8
BLACK
6
CONTINUOUS
10
4.1321768503937006
20
-4.0708588976377955
11
4.127463385826772
21
-4.0678297244094486
0
LINE
8
BLACK
6
CONTINUOUS
10
4.127463385826772
20
-4.0678297244094486
11
4.1237942125984253
21
-4.0635952755905507
0
LINE
8
BLACK
6
CONTINUOUS
10
4.1237942125984253
20
-4.0635952755905507
11
4.1214666929133861
21
-4.0584986614173229
0
LINE
8
BLACK
6
CONTINUOUS
10
4.1214666929133861
20
-4.0584986614173229
11
4.120669291338583
21
-4.0529527559055119
0
LINE
8
BLACK
6
CONTINUOUS
10
4.120669291338583
20
-4.0529527559055119
11
4.120669291338583
21
-4.0332677165354331
0
LINE
8
BLACK
6
CONTINUOUS
10
4.120669291338583
20
-4.0332677165354331
11
4.1214666929133861
21
-4.0277218110236221
0
LINE
8
BLACK
6
CONTINUOUS
10
4.1214666929133861
20
-4.0277218110236221
11
4.1237942125984253
21
-4.0226251968503934
0
LINE
8
BLACK
6
CONTINUOUS
10
4.1237942125984253
20
-4.0226251968503934
11
4.127463385826772
21
-4.0183907480314955
0
LINE
8
BLACK
6
CONTINUOUS
10
4.127463385826772
20
-4.0183907480314955
11
4.1321768503937006
21
-4.0153615748031495
0
LINE
8
BLACK
6
CONTINUOUS
10
4.1321768503937006
20
-4.0153615748031495
11
4.1375528740157481
21
-4.0137830314960627
0
LINE
8
BLACK
6
CONTINUOUS
10
4.1375528740157481
20
-4.0137830314960627
11
4.1403543307086617
21
-4.0137830314960627
0
LINE
8
BLACK
6
CONTINUOUS
10
4.1403543307086617
20
-4.0137830314960627
11
4.1403543307086617
21
-4.0135826771653544
0
LINE
8
BLACK
6
CONTINUOUS
10
4.1403543307086617
20
-4.0135826771653544
11
4.1600393700787404
21
-4.0135826771653544
0
LINE
8
BLACK
6
CONTINUOUS
10
4.1600393700787404
20
-4.0135826771653544
11
4.1600393700787404
21
-4.0726377952755906
0
LINE
8
BLACK
6
CONTINUOUS
10
4.1915354330708663
20
-4.0137830314960627
11
4.1943368897637798
21
-4.0137830314960627
0
LINE
8
BLACK
6
CONTINUOUS
10
4.1943368897637798
20
-4.0137830314960627
11
4.1997129133858264
21
-4.0153615748031495
0
LINE
8
BLACK
6
CONTINUOUS
10
4.1997129133858264
20
-4.0153615748031495
11
4.204426377952756
21
-4.0183907480314955
0
LINE
8
BLACK
6
CONTINUOUS
10
4.204426377952756
20
-4.0183907480314955
11
4.2080955511811027
21
-4.0226251968503934
0
LINE
8
BLACK
6
CONTINUOUS
10
4.2080955511811027
20
-4.0226251968503934
11
4.2104230708661419
21
-4.0277218110236221
0
LINE
8
BLACK
6
CONTINUOUS
10
4.2104230708661419
20
-4.0277218110236221
11
4.211220472440945
21
-4.0332677165354331
0
LINE
8
BLACK
6
CONTINUOUS
10
4.211220472440945
20
-4.0332677165354331
11
4.211220472440945
21
-4.0529527559055119
0
LINE
8
BLACK
6
CONTINUOUS
10
4.211220472440945
20
-4.0529527559055119
11
4.2104230708661419
21
-4.0584986614173229
0
LINE
8
BLACK
6
CONTINUOUS
10
4.2104230708661419
20
-4.0584986614173229
11
4.2080955511811027
21
-4.0635952755905507
0
LINE
8
BLACK
6
CONTINUOUS
10
4.2080955511811027
20
-4.0635952755905507
11
4.204426377952756
21
-4.0678297244094486
0
LINE
8
BLACK
6
CONTINUOUS
10
4.204426377952756
20
-4.0678297244094486
11
4.1997129133858264
21
-4.0708588976377955
0
LINE
8
BLACK
6
CONTINUOUS
10
4.1997129133858264
20
-4.0708588976377955
11
4.1943368897637798
21
-4.0724374409448814
0
LINE
8
BLACK
6
CONTINUOUS
10
4.1943368897637798
20
-4.0724374409448814
11
4.1915354330708663
21
-4.0724374409448814
0
LINE
8
BLACK
6
CONTINUOUS
10
4.1915354330708663
20
-4.0724374409448814
11
4.1915354330708663
21
-4.0726377952755906
0
LINE
8
BLACK
6
CONTINUOUS
10
4.1915354330708663
20
-4.0726377952755906
11
4.1718503937007876
21
-4.0726377952755906
0
LINE
8
BLACK
6
CONTINUOUS
10
4.1718503937007876
20
-4.0726377952755906
11
4.1718503937007876
21
-4.0135826771653544
0
LINE
8
BLACK
6
CONTINUOUS
10
4.1718503937007876
20
-4.0135826771653544
11
4.1915354330708663
21
-4.0135826771653544
0
LINE
8
BLACK
6
CONTINUOUS
10
4.1915354330708663
20
-4.0135826771653544
11
4.1915354330708663
21
-4.0137830314960627
0
LINE
8
BLACK
6
CONTINUOUS
10
3.3636783464566928
20
-3.8541326377952756
11
3.3748027952755906
21
-3.8572495669291338
0
LINE
8
BLACK
6
CONTINUOUS
10
3.3748027952755906
20
-3.8572495669291338
11
3.3853992125984251
21
-3.861852244094488
0
LINE
8
BLACK
6
CONTINUOUS
10
3.3853992125984251
20
-3.861852244094488
11
3.3952701968503938
21
-3.8678549212598425
0
LINE
8
BLACK
6
CONTINUOUS
10
3.3952701968503938
20
-3.8678549212598425
11
3.4042318503937006
21
-3.8751457874015749
0
LINE
8
BLACK
6
CONTINUOUS
10
3.4042318503937006
20
-3.8751457874015749
11
3.4121172834645668
21
-3.8835890157480315
0
LINE
8
BLACK
6
CONTINUOUS
10
3.4121172834645668
20
-3.8835890157480315
11
3.4187796062992124
21
-3.8930273622047245
0
LINE
8
BLACK
6
CONTINUOUS
10
3.4187796062992124
20
-3.8930273622047245
11
3.4240946456692911
21
-3.9032849606299211
0
LINE
8
BLACK
6
CONTINUOUS
10
3.4240946456692911
20
-3.9032849606299211
11
3.427963464566929
21
-3.9141707480314958
0
LINE
8
BLACK
6
CONTINUOUS
10
3.427963464566929
20
-3.9141707480314958
11
3.4303139763779527
21
-3.925481968503937
0
LINE
8
BLACK
6
CONTINUOUS
10
3.4303139763779527
20
-3.925481968503937
11
3.4311023622047245
21
-3.9370078740157481
0
LINE
8
BLACK
6
CONTINUOUS
10
3.4311023622047245
20
-3.9370078740157481
11
3.4303139763779527
21
-3.9485337795275588
0
LINE
8
BLACK
6
CONTINUOUS
10
3.4303139763779527
20
-3.9485337795275588
11
3.427963464566929
21
-3.9598450000000001
0
LINE
8
BLACK
6
CONTINUOUS
10
3.427963464566929
20
-3.9598450000000001
11
3.4240946456692911
21
-3.9707307874015747
0
LINE
8
BLACK
6
CONTINUOUS
10
3.4240946456692911
20
-3.9707307874015747
11
3.4187796062992124
21
-3.9809883858267714
0
LINE
8
BLACK
6
CONTINUOUS
10
3.4187796062992124
20
-3.9809883858267714
11
3.4121172834645668
21
-3.9904267322834643
0
LINE
8
BLACK
6
CONTINUOUS
10
3.4121172834645668
20
-3.9904267322834643
11
3.4042318503937006
21
-3.9988699606299209
0
LINE
8
BLACK
6
CONTINUOUS
10
3.4042318503937006
20
-3.9988699606299209
11
3.3952701968503938
21
-4.0061608267716533
0
LINE
8
BLACK
6
CONTINUOUS
10
3.3952701968503938
20
-4.0061608267716533
11
3.3853992125984251
21
-4.0121635039370078
0
LINE
8
BLACK
6
CONTINUOUS
10
3.3853992125984251
20
-4.0121635039370078
11
3.3748027952755906
21
-4.0167661811023621
0
LINE
8
BLACK
6
CONTINUOUS
10
3.3748027952755906
20
-4.0167661811023621
11
3.3636783464566928
21
-4.0198831102362202
0
LINE
8
BLACK
6
CONTINUOUS
10
3.3636783464566928
20
-4.0198831102362202
11
3.3522331102362206
21
-4.0214562204724409
0
LINE
8
BLACK
6
CONTINUOUS
10
3.3522331102362206
20
-4.0214562204724409
11
3.3406802755905511
21
-4.0214562204724409
0
LINE
8
BLACK
6
CONTINUOUS
10
3.3406802755905511
20
-4.0214562204724409
11
3.3292350393700785
21
-4.0198831102362202
0
LINE
8
BLACK
6
CONTINUOUS
10
3.3292350393700785
20
-4.0198831102362202
11
3.3181105905511812
21
-4.0167661811023621
0
LINE
8
BLACK
6
CONTINUOUS
10
3.3181105905511812
20
-4.0167661811023621
11
3.3075141732283462
21
-4.0121635039370078
0
LINE
8
BLACK
6
CONTINUOUS
10
3.3075141732283462
20
-4.0121635039370078
11
3.297643188976378
21
-4.0061608267716533
0
LINE
8
BLACK
6
CONTINUOUS
10
3.297643188976378
20
-4.0061608267716533
11
3.2886815354330707
21
-3.9988699606299209
0
LINE
8
BLACK
6
CONTINUOUS
10
3.2886815354330707
20
-3.9988699606299209
11
3.2807961023622045
21
-3.9904267322834643
0
LINE
8
BLACK
6
CONTINUOUS
10
3.2807961023622045
20
-3.9904267322834643
11
3.2741337795275589
21
-3.9809883858267714
0
LINE
8
BLACK
6
CONTINUOUS
10
3.2741337795275589
20
-3.9809883858267714
11
3.2688187401574802
21
-3.9707307874015747
0
LINE
8
BLACK
6
CONTINUOUS
10
3.2688187401574802
20
-3.9707307874015747
11
3.2649499212598423
21
-3.9598450000000001
0
LINE
8
BLACK
6
CONTINUOUS
10
3.2649499212598423
20
-3.9598450000000001
11
3.2625994094488187
21
-3.9485337795275588
0
LINE
8
BLACK
6
CONTINUOUS
10
3.2625994094488187
20
-3.9485337795275588
11
3.2618110236220472
21
-3.9370078740157481
0
LINE
8
BLACK
6
CONTINUOUS
10
3.2618110236220472
20
-3.9370078740157481
11
3.2625994094488187
21
-3.925481968503937
0
LINE
8
BLACK
6
CONTINUOUS
10
3.2625994094488187
20
-3.925481968503937
11
3.2649499212598423
21
-3.9141707480314958
0
LINE
8
BLACK
6
CONTINUOUS
10
3.2649499212598423
20
-3.9141707480314958
11
3.2688187401574802
21
-3.9032849606299211
0
LINE
8
BLACK
6
CONTINUOUS
10
3.2688187401574802
20
-3.9032849606299211
11
3.2741337795275589
21
-3.8930273622047245
0
LINE
8
BLACK
6
CONTINUOUS
10
3.2741337795275589
20
-3.8930273622047245
11
3.2807961023622045
21
-3.8835890157480315
0
LINE
8
BLACK
6
CONTINUOUS
10
3.2807961023622045
20
-3.8835890157480315
11
3.2886815354330707
21
-3.8751457874015749
0
LINE
8
BLACK
6
CONTINUOUS
10
3.2886815354330707
20
-3.8751457874015749
11
3.297643188976378
21
-3.8678549212598425
0
LINE
8
BLACK
6
CONTINUOUS
10
3.297643188976378
20
-3.8678549212598425
11
3.3075141732283462
21
-3.861852244094488
0
LINE
8
BLACK
6
CONTINUOUS
10
3.3075141732283462
20
-3.861852244094488
11
3.3181105905511812
21
-3.8572495669291338
0
LINE
8
BLACK
6
CONTINUOUS
10
3.3181105905511812
20
-3.8572495669291338
11
3.3292350393700785
21
-3.8541326377952756
0
LINE
8
BLACK
6
CONTINUOUS
10
3.3292350393700785
20
-3.8541326377952756
11
3.3406802755905511
21
-3.852559527559055
0
LINE
8
BLACK
6
CONTINUOUS
10
3.3406802755905511
20
-3.852559527559055
11
3.3522331102362206
21
-3.852559527559055
0
LINE
8
BLACK
6
CONTINUOUS
10
3.3522331102362206
20
-3.852559527559055
11
3.3636783464566928
21
-3.8541326377952756
0
LINE
8
BLACK
6
CONTINUOUS
10
4.5447807086614169
20
-3.8541326377952756
11
4.5559051574803151
21
-3.8572495669291338
0
LINE
8
BLACK
6
CONTINUOUS
10
4.5559051574803151
20
-3.8572495669291338
11
4.5665015748031497
21
-3.861852244094488
0
LINE
8
BLACK
6
CONTINUOUS
10
4.5665015748031497
20
-3.861852244094488
11
4.5763725590551179
21
-3.8678549212598425
0
LINE
8
BLACK
6
CONTINUOUS
10
4.5763725590551179
20
-3.8678549212598425
11
4.5853342125984247
21
-3.8751457874015749
0
LINE
8
BLACK
6
CONTINUOUS
10
4.5853342125984247
20
-3.8751457874015749
11
4.5932196456692909
21
-3.8835890157480315
0
LINE
8
BLACK
6
CONTINUOUS
10
4.5932196456692909
20
-3.8835890157480315
11
4.5998819685039365
21
-3.8930273622047245
0
LINE
8
BLACK
6
CONTINUOUS
10
4.5998819685039365
20
-3.8930273622047245
11
4.6051970078740156
21
-3.9032849606299211
0
LINE
8
BLACK
6
CONTINUOUS
10
4.6051970078740156
20
-3.9032849606299211
11
4.6090658267716531
21
-3.9141707480314958
0
LINE
8
BLACK
6
CONTINUOUS
10
4.6090658267716531
20
-3.9141707480314958
11
4.6114163385826767
21
-3.925481968503937
0
LINE
8
BLACK
6
CONTINUOUS
10
4.6114163385826767
20
-3.925481968503937
11
4.6122047244094491
21
-3.9370078740157481
0
LINE
8
BLACK
6
CONTINUOUS
10
4.6122047244094491
20
-3.9370078740157481
11
4.6114163385826767
21
-3.9485337795275588
0
LINE
8
BLACK
6
CONTINUOUS
10
4.6114163385826767
20
-3.9485337795275588
11
4.6090658267716531
21
-3.9598450000000001
0
LINE
8
BLACK
6
CONTINUOUS
10
4.6090658267716531
20
-3.9598450000000001
11
4.6051970078740156
21
-3.9707307874015747
0
LINE
8
BLACK
6
CONTINUOUS
10
4.6051970078740156
20
-3.9707307874015747
11
4.5998819685039365
21
-3.9809883858267714
0
LINE
8
BLACK
6
CONTINUOUS
10
4.5998819685039365
20
-3.9809883858267714
11
4.5932196456692909
21
-3.9904267322834643
0
LINE
8
BLACK
6
CONTINUOUS
10
4.5932196456692909
20
-3.9904267322834643
11
4.5853342125984247
21
-3.9988699606299209
0
LINE
8
BLACK
6
CONTINUOUS
10
4.5853342125984247
20
-3.9988699606299209
11
4.5763725590551179
21
-4.0061608267716533
0
LINE
8
BLACK
6
CONTINUOUS
10
4.5763725590551179
20
-4.0061608267716533
11
4.5665015748031497
21
-4.0121635039370078
0
LINE
8
BLACK
6
CONTINUOUS
10
4.5665015748031497
20
-4.0121635039370078
11
4.5559051574803151
21
-4.0167661811023621
0
LINE
8
BLACK
6
CONTINUOUS
10
4.5559051574803151
20
-4.0167661811023621
11
4.5447807086614169
21
-4.0198831102362202
0
LINE
8
BLACK
6
CONTINUOUS
10
4.5447807086614169
20
-4.0198831102362202
11
4.5333354724409451
21
-4.0214562204724409
0
LINE
8
BLACK
6
CONTINUOUS
10
4.5333354724409451
20
-4.0214562204724409
11
4.5217826377952752
21
-4.0214562204724409
0
LINE
8
BLACK
6
CONTINUOUS
10
4.5217826377952752
20
-4.0214562204724409
11
4.5103374015748035
21
-4.0198831102362202
0
LINE
8
BLACK
6
CONTINUOUS
10
4.5103374015748035
20
-4.0198831102362202
11
4.4992129527559053
21
-4.0167661811023621
0
LINE
8
BLACK
6
CONTINUOUS
10
4.4992129527559053
20
-4.0167661811023621
11
4.4886165354330707
21
-4.0121635039370078
0
LINE
8
BLACK
6
CONTINUOUS
10
4.4886165354330707
20
-4.0121635039370078
11
4.4787455511811025
21
-4.0061608267716533
0
LINE
8
BLACK
6
CONTINUOUS
10
4.4787455511811025
20
-4.0061608267716533
11
4.4697838976377948
21
-3.9988699606299209
0
LINE
8
BLACK
6
CONTINUOUS
10
4.4697838976377948
20
-3.9988699606299209
11
4.4618984645669286
21
-3.9904267322834643
0
LINE
8
BLACK
6
CONTINUOUS
10
4.4618984645669286
20
-3.9904267322834643
11
4.455236141732283
21
-3.9809883858267714
0
LINE
8
BLACK
6
CONTINUOUS
10
4.455236141732283
20
-3.9809883858267714
11
4.4499211023622047
21
-3.9707307874015747
0
LINE
8
BLACK
6
CONTINUOUS
10
4.4499211023622047
20
-3.9707307874015747
11
4.4460522834645673
21
-3.9598450000000001
0
LINE
8
BLACK
6
CONTINUOUS
10
4.4460522834645673
20
-3.9598450000000001
11
4.4437017716535436
21
-3.9485337795275588
0
LINE
8
BLACK
6
CONTINUOUS
10
4.4437017716535436
20
-3.9485337795275588
11
4.4429133858267713
21
-3.9370078740157481
0
LINE
8
BLACK
6
CONTINUOUS
10
4.4429133858267713
20
-3.9370078740157481
11
4.4437017716535436
21
-3.925481968503937
0
LINE
8
BLACK
6
CONTINUOUS
10
4.4437017716535436
20
-3.925481968503937
11
4.4460522834645673
21
-3.9141707480314958
0
LINE
8
BLACK
6
CONTINUOUS
10
4.4460522834645673
20
-3.9141707480314958
11
4.4499211023622047
21
-3.9032849606299211
0
LINE
8
BLACK
6
CONTINUOUS
10
4.4499211023622047
20
-3.9032849606299211
11
4.455236141732283
21
-3.8930273622047245
0
LINE
8
BLACK
6
CONTINUOUS
10
4.455236141732283
20
-3.8930273622047245
11
4.4618984645669286
21
-3.8835890157480315
0
LINE
8
BLACK
6
CONTINUOUS
10
4.4618984645669286
20
-3.8835890157480315
11
4.4697838976377948
21
-3.8751457874015749
0
LINE
8
BLACK
6
CONTINUOUS
10
4.4697838976377948
20
-3.8751457874015749
11
4.4787455511811025
21
-3.8678549212598425
0
LINE
8
BLACK
6
CONTINUOUS
10
4.4787455511811025
20
-3.8678549212598425
11
4.4886165354330707
21
-3.861852244094488
0
LINE
8
BLACK
6
CONTINUOUS
10
4.4886165354330707
20
-3.861852244094488
11
4.4992129527559053
21
-3.8572495669291338
0
LINE
8
BLACK
6
CONTINUOUS
10
4.4992129527559053
20
-3.8572495669291338
11
4.5103374015748035
21
-3.8541326377952756
0
LINE
8
BLACK
6
CONTINUOUS
10
4.5103374015748035
20
-3.8541326377952756
11
4.5217826377952752
21
-3.852559527559055
0
LINE
8
BLACK
6
CONTINUOUS
10
4.5217826377952752
20
-3.852559527559055
11
4.5333354724409451
21
-3.852559527559055
0
LINE
8
BLACK
6
CONTINUOUS
10
4.5333354724409451
20
-3.852559527559055
11
4.5447807086614169
21
-3.8541326377952756
0
LINE
8
BLACK
6
CONTINUOUS
10
3.965551181102362
20
-3.9761811023622045
11
3.9653508267716533
21
-3.9761811023622045
0
LINE
8
BLACK
6
CONTINUOUS
10
3.9653508267716533
20
-3.9761811023622045
11
3.9653508267716533
21
-3.978982559055118
0
LINE
8
BLACK
6
CONTINUOUS
10
3.9653508267716533
20
-3.978982559055118
11
3.963772283464567
21
-3.9843585826771655
0
LINE
8
BLACK
6
CONTINUOUS
10
3.963772283464567
20
-3.9843585826771655
11
3.9607431102362205
21
-3.9890720472440946
0
LINE
8
BLACK
6
CONTINUOUS
10
3.9607431102362205
20
-3.9890720472440946
11
3.9565086614173226
21
-3.9927412204724408
0
LINE
8
BLACK
6
CONTINUOUS
10
3.9565086614173226
20
-3.9927412204724408
11
3.9514120472440943
21
-3.99506874015748
0
LINE
8
BLACK
6
CONTINUOUS
10
3.9514120472440943
20
-3.99506874015748
11
3.9458661417322833
21
-3.9958661417322832
0
LINE
8
BLACK
6
CONTINUOUS
10
3.9458661417322833
20
-3.9958661417322832
11
3.9261811023622046
21
-3.9958661417322832
0
LINE
8
BLACK
6
CONTINUOUS
10
3.9261811023622046
20
-3.9958661417322832
11
3.9206351968503936
21
-3.99506874015748
0
LINE
8
BLACK
6
CONTINUOUS
10
3.9206351968503936
20
-3.99506874015748
11
3.9155385826771654
21
-3.9927412204724408
0
LINE
8
BLACK
6
CONTINUOUS
10
3.9155385826771654
20
-3.9927412204724408
11
3.9113041338582675
21
-3.9890720472440946
0
LINE
8
BLACK
6
CONTINUOUS
10
3.9113041338582675
20
-3.9890720472440946
11
3.908274960629921
21
-3.9843585826771655
0
LINE
8
BLACK
6
CONTINUOUS
10
3.908274960629921
20
-3.9843585826771655
11
3.9066964173228347
21
-3.978982559055118
0
LINE
8
BLACK
6
CONTINUOUS
10
3.9066964173228347
20
-3.978982559055118
11
3.9066964173228347
21
-3.9761811023622045
0
LINE
8
BLACK
6
CONTINUOUS
10
3.9066964173228347
20
-3.9761811023622045
11
3.9064960629921259
21
-3.9761811023622045
0
LINE
8
BLACK
6
CONTINUOUS
10
3.9064960629921259
20
-3.9761811023622045
11
3.9064960629921259
21
-3.9564960629921258
0
LINE
8
BLACK
6
CONTINUOUS
10
3.9064960629921259
20
-3.9564960629921258
11
3.965551181102362
21
-3.9564960629921258
0
LINE
8
BLACK
6
CONTINUOUS
10
3.965551181102362
20
-3.9564960629921258
11
3.965551181102362
21
-3.9761811023622045
0
LINE
8
BLACK
6
CONTINUOUS
10
4.1600393700787404
20
-3.9663385826771651
11
4.1403543307086617
21
-3.9663385826771651
0
LINE
8
BLACK
6
CONTINUOUS
10
4.1403543307086617
20
-3.9663385826771651
11
4.1403543307086617
21
-3.9661382283464568
0
LINE
8
BLACK
6
CONTINUOUS
10
4.1403543307086617
20
-3.9661382283464568
11
4.1375528740157481
21
-3.9661382283464568
0
LINE
8
BLACK
6
CONTINUOUS
10
4.1375528740157481
20
-3.9661382283464568
11
4.1321768503937006
21
-3.9645596850393701
0
LINE
8
BLACK
6
CONTINUOUS
10
4.1321768503937006
20
-3.9645596850393701
11
4.127463385826772
21
-3.9615305118110236
0
LINE
8
BLACK
6
CONTINUOUS
10
4.127463385826772
20
-3.9615305118110236
11
4.1237942125984253
21
-3.9572960629921261
0
LINE
8
BLACK
6
CONTINUOUS
10
4.1237942125984253
20
-3.9572960629921261
11
4.1214666929133861
21
-3.9521994488188974
0
LINE
8
BLACK
6
CONTINUOUS
10
4.1214666929133861
20
-3.9521994488188974
11
4.120669291338583
21
-3.9466535433070864
0
LINE
8
BLACK
6
CONTINUOUS
10
4.120669291338583
20
-3.9466535433070864
11
4.120669291338583
21
-3.9269685039370077
0
LINE
8
BLACK
6
CONTINUOUS
10
4.120669291338583
20
-3.9269685039370077
11
4.1214666929133861
21
-3.9214225984251967
0
LINE
8
BLACK
6
CONTINUOUS
10
4.1214666929133861
20
-3.9214225984251967
11
4.1237942125984253
21
-3.9163259842519684
0
LINE
8
BLACK
6
CONTINUOUS
10
4.1237942125984253
20
-3.9163259842519684
11
4.127463385826772
21
-3.912091535433071
0
LINE
8
BLACK
6
CONTINUOUS
10
4.127463385826772
20
-3.912091535433071
11
4.1321768503937006
21
-3.9090623622047245
0
LINE
8
BLACK
6
CONTINUOUS
10
4.1321768503937006
20
-3.9090623622047245
11
4.1375528740157481
21
-3.9074838188976377
0
LINE
8
BLACK
6
CONTINUOUS
10
4.1375528740157481
20
-3.9074838188976377
11
4.1403543307086617
21
-3.9074838188976377
0
LINE
8
BLACK
6
CONTINUOUS
10
4.1403543307086617
20
-3.9074838188976377
11
4.1403543307086617
21
-3.907283464566929
0
LINE
8
BLACK
6
CONTINUOUS
10
4.1403543307086617
20
-3.907283464566929
11
4.1600393700787404
21
-3.907283464566929
0
LINE
8
BLACK
6
CONTINUOUS
10
4.1600393700787404
20
-3.907283464566929
11
4.1600393700787404
21
-3.9663385826771651
0
LINE
8
BLACK
6
CONTINUOUS
10
4.1915354330708663
20
-3.9074838188976377
11
4.1943368897637798
21
-3.9074838188976377
0
LINE
8
BLACK
6
CONTINUOUS
10
4.1943368897637798
20
-3.9074838188976377
11
4.1997129133858264
21
-3.9090623622047245
0
LINE
8
BLACK
6
CONTINUOUS
10
4.1997129133858264
20
-3.9090623622047245
11
4.204426377952756
21
-3.912091535433071
0
LINE
8
BLACK
6
CONTINUOUS
10
4.204426377952756
20
-3.912091535433071
11
4.2080955511811027
21
-3.9163259842519684
0
LINE
8
BLACK
6
CONTINUOUS
10
4.2080955511811027
20
-3.9163259842519684
11
4.2104230708661419
21
-3.9214225984251967
0
LINE
8
BLACK
6
CONTINUOUS
10
4.2104230708661419
20
-3.9214225984251967
11
4.211220472440945
21
-3.9269685039370077
0
LINE
8
BLACK
6
CONTINUOUS
10
4.211220472440945
20
-3.9269685039370077
11
4.211220472440945
21
-3.9466535433070864
0
LINE
8
BLACK
6
CONTINUOUS
10
4.211220472440945
20
-3.9466535433070864
11
4.2104230708661419
21
-3.9521994488188974
0
LINE
8
BLACK
6
CONTINUOUS
10
4.2104230708661419
20
-3.9521994488188974
11
4.2080955511811027
21
-3.9572960629921261
0
LINE
8
BLACK
6
CONTINUOUS
10
4.2080955511811027
20
-3.9572960629921261
11
4.204426377952756
21
-3.9615305118110236
0
LINE
8
BLACK
6
CONTINUOUS
10
4.204426377952756
20
-3.9615305118110236
11
4.1997129133858264
21
-3.9645596850393701
0
LINE
8
BLACK
6
CONTINUOUS
10
4.1997129133858264
20
-3.9645596850393701
11
4.1943368897637798
21
-3.9661382283464568
0
LINE
8
BLACK
6
CONTINUOUS
10
4.1943368897637798
20
-3.9661382283464568
11
4.1915354330708663
21
-3.9661382283464568
0
LINE
8
BLACK
6
CONTINUOUS
10
4.1915354330708663
20
-3.9661382283464568
11
4.1915354330708663
21
-3.9663385826771651
0
LINE
8
BLACK
6
CONTINUOUS
10
4.1915354330708663
20
-3.9663385826771651
11
4.1718503937007876
21
-3.9663385826771651
0
LINE
8
BLACK
6
CONTINUOUS
10
4.1718503937007876
20
-3.9663385826771651
11
4.1718503937007876
21
-3.907283464566929
0
LINE
8
BLACK
6
CONTINUOUS
10
4.1718503937007876
20
-3.907283464566929
11
4.1915354330708663
21
-3.907283464566929
0
LINE
8
BLACK
6
CONTINUOUS
10
4.1915354330708663
20
-3.907283464566929
11
4.1915354330708663
21
-3.9074838188976377
0
LINE
8
BLACK
6
CONTINUOUS
10
3.9514120472440943
20
-3.9061123622047242
11
3.9565086614173226
21
-3.9084398818897639
0
LINE
8
BLACK
6
CONTINUOUS
10
3.9565086614173226
20
-3.9084398818897639
11
3.9607431102362205
21
-3.9121090551181101
0
LINE
8
BLACK
6
CONTINUOUS
10
3.9607431102362205
20
-3.9121090551181101
11
3.963772283464567
21
-3.9168225196850392
0
LINE
8
BLACK
6
CONTINUOUS
10
3.963772283464567
20
-3.9168225196850392
11
3.9653508267716533
21
-3.9221985433070867
0
LINE
8
BLACK
6
CONTINUOUS
10
3.9653508267716533
20
-3.9221985433070867
11
3.9653508267716533
21
-3.9249999999999998
0
LINE
8
BLACK
6
CONTINUOUS
10
3.9653508267716533
20
-3.9249999999999998
11
3.965551181102362
21
-3.9249999999999998
0
LINE
8
BLACK
6
CONTINUOUS
10
3.965551181102362
20
-3.9249999999999998
11
3.965551181102362
21
-3.9446850393700785
0
LINE
8
BLACK
6
CONTINUOUS
10
3.965551181102362
20
-3.9446850393700785
11
3.9064960629921259
21
-3.9446850393700785
0
LINE
8
BLACK
6
CONTINUOUS
10
3.9064960629921259
20
-3.9446850393700785
11
3.9064960629921259
21
-3.9249999999999998
0
LINE
8
BLACK
6
CONTINUOUS
10
3.9064960629921259
20
-3.9249999999999998
11
3.9066964173228347
21
-3.9249999999999998
0
LINE
8
BLACK
6
CONTINUOUS
10
3.9066964173228347
20
-3.9249999999999998
11
3.9066964173228347
21
-3.9221985433070867
0
LINE
8
BLACK
6
CONTINUOUS
10
3.9066964173228347
20
-3.9221985433070867
11
3.908274960629921
21
-3.9168225196850392
0
LINE
8
BLACK
6
CONTINUOUS
10
3.908274960629921
20
-3.9168225196850392
11
3.9113041338582675
21
-3.9121090551181101
0
LINE
8
BLACK
6
CONTINUOUS
10
3.9113041338582675
20
-3.9121090551181101
11
3.9155385826771654
21
-3.9084398818897639
0
LINE
8
BLACK
6
CONTINUOUS
10
3.9155385826771654
20
-3.9084398818897639
11
3.9206351968503936
21
-3.9061123622047242
0
LINE
8
BLACK
6
CONTINUOUS
10
3.9206351968503936
20
-3.9061123622047242
11
3.9261811023622046
21
-3.9053149606299211
0
LINE
8
BLACK
6
CONTINUOUS
10
3.9261811023622046
20
-3.9053149606299211
11
3.9458661417322833
21
-3.9053149606299211
0
LINE
8
BLACK
6
CONTINUOUS
10
3.9458661417322833
20
-3.9053149606299211
11
3.9514120472440943
21
-3.9061123622047242
  0
ENDSEC
  0
EOF
