  0
SECTION
  2
HEADER
  9
$ANGBASE
  50
0.0
  9
$ANGDIR
  70
1
  9
$MEASUREMENT
  70
0
  0
ENDSEC
  0
SECTION
  2
TABLES
  0
TABLE
  2
LTYPE
  70
4
  0
LTYPE
  5
40F
  2
CONTINUOUS
  70
0
  3
Solid line
  72
65
  73
0
  40
0.0
  0
LTYPE
  5
410
  2
DASHDOT
 70
0
  3
Dash Dot ____ _ ____ _
 72
65
 73
4
 40
2.0
 49
1.25
 49
-0.25
 49
0.25
 49
-0.25
  0
LTYPE
  5
411
  2
DASHED
 70
0
  3
Dashed __ __ __ __ __
 72
65
 73
2
 40
0.75
 49
0.5
 49
-0.25
  0
LTYPE
  5
43B
  2
DOTTED
 70
0
  3
Dotted .  .  .  .
 72
65
 73
2
 40
0.2
 49
0.0
 49
-0.2
  0
ENDTAB
  0
TABLE
  2
STYLE
  70
4
  0
STYLE
  2
KICAD
  70
0
  40
0
  41
1
  42
1
  50
0
  71
0
  3
isocp.shx
  0
STYLE
  2
KICADB
  70
0
  40
0
  41
1
  42
1
  50
0
  71
0
  3
isocp.shx
  0
STYLE
  2
KICADI
  70
0
  40
0
  41
1
  42
1
  50
15
  71
0
  3
isocp.shx
  0
STYLE
  2
KICADBI
  70
0
  40
0
  41
1
  42
1
  50
15
  71
0
  3
isocp.shx
  0
ENDTAB
  0
TABLE
  2
LAYER
  70
1
  0
LAYER
  2
BLACK
  70
0
  62
7
  6
CONTINUOUS
  0
ENDTAB
  0
ENDSEC
  0
SECTION
  2
ENTITIES
0
LINE
8
BLACK
6
CONTINUOUS
10
3.857488937007874
20
-4.1002782283464567
11
3.8587673622047243
21
-4.101556653543307
0
LINE
8
BLACK
6
CONTINUOUS
10
3.8587673622047243
20
-4.101556653543307
11
3.8587673622047243
21
-4.1033646062992126
0
LINE
8
BLACK
6
CONTINUOUS
10
3.8587673622047243
20
-4.1033646062992126
11
3.857488937007874
21
-4.1046430314960629
0
LINE
8
BLACK
6
CONTINUOUS
10
3.857488937007874
20
-4.1046430314960629
11
3.8565849606299212
21
-4.1048228346456694
0
LINE
8
BLACK
6
CONTINUOUS
10
3.8565849606299212
20
-4.1048228346456694
11
3.8379032283464567
21
-4.1048228346456694
0
LINE
8
BLACK
6
CONTINUOUS
10
3.8379032283464567
20
-4.1048228346456694
11
3.8369992519685039
21
-4.1046430314960629
0
LINE
8
BLACK
6
CONTINUOUS
10
3.8369992519685039
20
-4.1046430314960629
11
3.8357208267716536
21
-4.1033646062992126
0
LINE
8
BLACK
6
CONTINUOUS
10
3.8357208267716536
20
-4.1033646062992126
11
3.8357208267716536
21
-4.101556653543307
0
LINE
8
BLACK
6
CONTINUOUS
10
3.8357208267716536
20
-4.101556653543307
11
3.8369992519685039
21
-4.1002782283464567
0
LINE
8
BLACK
6
CONTINUOUS
10
3.8369992519685039
20
-4.1002782283464567
11
3.8379032283464567
21
-4.1000984251968502
0
LINE
8
BLACK
6
CONTINUOUS
10
3.8379032283464567
20
-4.1000984251968502
11
3.8565849606299212
21
-4.1000984251968502
0
LINE
8
BLACK
6
CONTINUOUS
10
3.8565849606299212
20
-4.1000984251968502
11
3.857488937007874
21
-4.1002782283464567
0
LINE
8
BLACK
6
CONTINUOUS
10
4.0366227952755906
20
-4.1002782283464567
11
4.0379012204724409
21
-4.101556653543307
0
LINE
8
BLACK
6
CONTINUOUS
10
4.0379012204724409
20
-4.101556653543307
11
4.0379012204724409
21
-4.1033646062992126
0
LINE
8
BLACK
6
CONTINUOUS
10
4.0379012204724409
20
-4.1033646062992126
11
4.0366227952755906
21
-4.1046430314960629
0
LINE
8
BLACK
6
CONTINUOUS
10
4.0366227952755906
20
-4.1046430314960629
11
4.0357188188976378
21
-4.1048228346456694
0
LINE
8
BLACK
6
CONTINUOUS
10
4.0357188188976378
20
-4.1048228346456694
11
4.0170370866141729
21
-4.1048228346456694
0
LINE
8
BLACK
6
CONTINUOUS
10
4.0170370866141729
20
-4.1048228346456694
11
4.0161331102362201
21
-4.1046430314960629
0
LINE
8
BLACK
6
CONTINUOUS
10
4.0161331102362201
20
-4.1046430314960629
11
4.0148546850393698
21
-4.1033646062992126
0
LINE
8
BLACK
6
CONTINUOUS
10
4.0148546850393698
20
-4.1033646062992126
11
4.0148546850393698
21
-4.101556653543307
0
LINE
8
BLACK
6
CONTINUOUS
10
4.0148546850393698
20
-4.101556653543307
11
4.0161331102362201
21
-4.1002782283464567
0
LINE
8
BLACK
6
CONTINUOUS
10
4.0161331102362201
20
-4.1002782283464567
11
4.0170370866141729
21
-4.1000984251968502
0
LINE
8
BLACK
6
CONTINUOUS
10
4.0170370866141729
20
-4.1000984251968502
11
4.0357188188976378
21
-4.1000984251968502
0
LINE
8
BLACK
6
CONTINUOUS
10
4.0357188188976378
20
-4.1000984251968502
11
4.0366227952755906
21
-4.1002782283464567
0
LINE
8
BLACK
6
CONTINUOUS
10
3.857488937007874
20
-4.0591364960629921
11
3.8587673622047243
21
-4.0604149212598424
0
LINE
8
BLACK
6
CONTINUOUS
10
3.8587673622047243
20
-4.0604149212598424
11
3.8587673622047243
21
-4.062222874015748
0
LINE
8
BLACK
6
CONTINUOUS
10
3.8587673622047243
20
-4.062222874015748
11
3.857488937007874
21
-4.0635012992125983
0
LINE
8
BLACK
6
CONTINUOUS
10
3.857488937007874
20
-4.0635012992125983
11
3.8565849606299212
21
-4.0636811023622048
0
LINE
8
BLACK
6
CONTINUOUS
10
3.8565849606299212
20
-4.0636811023622048
11
3.8379032283464567
21
-4.0636811023622048
0
LINE
8
BLACK
6
CONTINUOUS
10
3.8379032283464567
20
-4.0636811023622048
11
3.8369992519685039
21
-4.0635012992125983
0
LINE
8
BLACK
6
CONTINUOUS
10
3.8369992519685039
20
-4.0635012992125983
11
3.8357208267716536
21
-4.062222874015748
0
LINE
8
BLACK
6
CONTINUOUS
10
3.8357208267716536
20
-4.062222874015748
11
3.8357208267716536
21
-4.0604149212598424
0
LINE
8
BLACK
6
CONTINUOUS
10
3.8357208267716536
20
-4.0604149212598424
11
3.8369992519685039
21
-4.0591364960629921
0
LINE
8
BLACK
6
CONTINUOUS
10
3.8369992519685039
20
-4.0591364960629921
11
3.8379032283464567
21
-4.0589566929133856
0
LINE
8
BLACK
6
CONTINUOUS
10
3.8379032283464567
20
-4.0589566929133856
11
3.8565849606299212
21
-4.0589566929133856
0
LINE
8
BLACK
6
CONTINUOUS
10
3.8565849606299212
20
-4.0589566929133856
11
3.857488937007874
21
-4.0591364960629921
0
LINE
8
BLACK
6
CONTINUOUS
10
4.0366227952755906
20
-4.0591364960629921
11
4.0379012204724409
21
-4.0604149212598424
0
LINE
8
BLACK
6
CONTINUOUS
10
4.0379012204724409
20
-4.0604149212598424
11
4.0379012204724409
21
-4.062222874015748
0
LINE
8
BLACK
6
CONTINUOUS
10
4.0379012204724409
20
-4.062222874015748
11
4.0366227952755906
21
-4.0635012992125983
0
LINE
8
BLACK
6
CONTINUOUS
10
4.0366227952755906
20
-4.0635012992125983
11
4.0357188188976378
21
-4.0636811023622048
0
LINE
8
BLACK
6
CONTINUOUS
10
4.0357188188976378
20
-4.0636811023622048
11
4.0170370866141729
21
-4.0636811023622048
0
LINE
8
BLACK
6
CONTINUOUS
10
4.0170370866141729
20
-4.0636811023622048
11
4.0161331102362201
21
-4.0635012992125983
0
LINE
8
BLACK
6
CONTINUOUS
10
4.0161331102362201
20
-4.0635012992125983
11
4.0148546850393698
21
-4.062222874015748
0
LINE
8
BLACK
6
CONTINUOUS
10
4.0148546850393698
20
-4.062222874015748
11
4.0148546850393698
21
-4.0604149212598424
0
LINE
8
BLACK
6
CONTINUOUS
10
4.0148546850393698
20
-4.0604149212598424
11
4.0161331102362201
21
-4.0591364960629921
0
LINE
8
BLACK
6
CONTINUOUS
10
4.0161331102362201
20
-4.0591364960629921
11
4.0170370866141729
21
-4.0589566929133856
0
LINE
8
BLACK
6
CONTINUOUS
10
4.0170370866141729
20
-4.0589566929133856
11
4.0357188188976378
21
-4.0589566929133856
0
LINE
8
BLACK
6
CONTINUOUS
10
4.0357188188976378
20
-4.0589566929133856
11
4.0366227952755906
21
-4.0591364960629921
0
LINE
8
BLACK
6
CONTINUOUS
10
3.675858503937008
20
-4.0485452755905511
11
3.6759334251968503
21
-4.0489219291338578
0
LINE
8
BLACK
6
CONTINUOUS
10
3.6759334251968503
20
-4.0489219291338578
11
3.6759334251968503
21
-4.0535619685039368
0
LINE
8
BLACK
6
CONTINUOUS
10
3.6759334251968503
20
-4.0535619685039368
11
3.6946342125984253
21
-4.0535619685039368
0
LINE
8
BLACK
6
CONTINUOUS
10
3.6946342125984253
20
-4.0535619685039368
11
3.695010866141732
21
-4.0536368897637791
0
LINE
8
BLACK
6
CONTINUOUS
10
3.695010866141732
20
-4.0536368897637791
11
3.6955435433070867
21
-4.0541695669291338
0
LINE
8
BLACK
6
CONTINUOUS
10
3.6955435433070867
20
-4.0541695669291338
11
3.6955435433070867
21
-4.0549228740157481
0
LINE
8
BLACK
6
CONTINUOUS
10
3.6955435433070867
20
-4.0549228740157481
11
3.695010866141732
21
-4.0554555511811019
0
LINE
8
BLACK
6
CONTINUOUS
10
3.695010866141732
20
-4.0554555511811019
11
3.6946342125984253
21
-4.0555304724409451
0
LINE
8
BLACK
6
CONTINUOUS
10
3.6946342125984253
20
-4.0555304724409451
11
3.6759334251968503
21
-4.0555304724409451
0
LINE
8
BLACK
6
CONTINUOUS
10
3.6759334251968503
20
-4.0555304724409451
11
3.6759334251968503
21
-4.0601705118110232
0
LINE
8
BLACK
6
CONTINUOUS
10
3.6759334251968503
20
-4.0601705118110232
11
3.675858503937008
21
-4.0605471653543308
0
LINE
8
BLACK
6
CONTINUOUS
10
3.675858503937008
20
-4.0605471653543308
11
3.6753258267716533
21
-4.0610798425196846
0
LINE
8
BLACK
6
CONTINUOUS
10
3.6753258267716533
20
-4.0610798425196846
11
3.6745725196850394
21
-4.0610798425196846
0
LINE
8
BLACK
6
CONTINUOUS
10
3.6745725196850394
20
-4.0610798425196846
11
3.6740398425196847
21
-4.0605471653543308
0
LINE
8
BLACK
6
CONTINUOUS
10
3.6740398425196847
20
-4.0605471653543308
11
3.6739649212598424
21
-4.0601705118110232
0
LINE
8
BLACK
6
CONTINUOUS
10
3.6739649212598424
20
-4.0601705118110232
11
3.6739649212598424
21
-4.0489219291338578
0
LINE
8
BLACK
6
CONTINUOUS
10
3.6739649212598424
20
-4.0489219291338578
11
3.6740398425196847
21
-4.0485452755905511
0
LINE
8
BLACK
6
CONTINUOUS
10
3.6740398425196847
20
-4.0485452755905511
11
3.6745725196850394
21
-4.0480125984251965
0
LINE
8
BLACK
6
CONTINUOUS
10
3.6745725196850394
20
-4.0480125984251965
11
3.6753258267716533
21
-4.0480125984251965
0
LINE
8
BLACK
6
CONTINUOUS
10
3.6753258267716533
20
-4.0480125984251965
11
3.675858503937008
21
-4.0485452755905511
0
LINE
8
BLACK
6
CONTINUOUS
10
3.675260433070866
20
-4.0311153149606298
11
3.694945433070866
21
-4.0376770078740156
0
LINE
8
BLACK
6
CONTINUOUS
10
3.694945433070866
20
-4.0376770078740156
11
3.695279094488189
21
-4.0378672047244093
0
LINE
8
BLACK
6
CONTINUOUS
10
3.695279094488189
20
-4.0378672047244093
11
3.6953119685039368
21
-4.0379329527559058
0
LINE
8
BLACK
6
CONTINUOUS
10
3.6953119685039368
20
-4.0379329527559058
11
3.6953777559055117
21
-4.0379658661417324
0
LINE
8
BLACK
6
CONTINUOUS
10
3.6953777559055117
20
-4.0379658661417324
11
3.6954764173228347
21
-4.0382618503937007
0
LINE
8
BLACK
6
CONTINUOUS
10
3.6954764173228347
20
-4.0382618503937007
11
3.6956159842519685
21
-4.0385409842519682
0
LINE
8
BLACK
6
CONTINUOUS
10
3.6956159842519685
20
-4.0385409842519682
11
3.6955927165354332
21
-4.0386107480314957
0
LINE
8
BLACK
6
CONTINUOUS
10
3.6955927165354332
20
-4.0386107480314957
11
3.6956159842519685
21
-4.0386805118110232
0
LINE
8
BLACK
6
CONTINUOUS
10
3.6956159842519685
20
-4.0386805118110232
11
3.6954764173228347
21
-4.0389596062992128
0
LINE
8
BLACK
6
CONTINUOUS
10
3.6954764173228347
20
-4.0389596062992128
11
3.6953777559055117
21
-4.0392556299212599
0
LINE
8
BLACK
6
CONTINUOUS
10
3.6953777559055117
20
-4.0392556299212599
11
3.6953119685039368
21
-4.0392885039370077
0
LINE
8
BLACK
6
CONTINUOUS
10
3.6953119685039368
20
-4.0392885039370077
11
3.695279094488189
21
-4.0393542913385829
0
LINE
8
BLACK
6
CONTINUOUS
10
3.695279094488189
20
-4.0393542913385829
11
3.6949454724409447
21
-4.0395444881889766
0
LINE
8
BLACK
6
CONTINUOUS
10
3.6949454724409447
20
-4.0395444881889766
11
3.675260433070866
21
-4.0461061417322837
0
LINE
8
BLACK
6
CONTINUOUS
10
3.675260433070866
20
-4.0461061417322837
11
3.6748794094488186
21
-4.0461541732283468
0
LINE
8
BLACK
6
CONTINUOUS
10
3.6748794094488186
20
-4.0461541732283468
11
3.6742056299212598
21
-4.0458172834645669
0
LINE
8
BLACK
6
CONTINUOUS
10
3.6742056299212598
20
-4.0458172834645669
11
3.6739674015748029
21
-4.0451026377952752
0
LINE
8
BLACK
6
CONTINUOUS
10
3.6739674015748029
20
-4.0451026377952752
11
3.6743042913385824
21
-4.0444288582677164
0
LINE
8
BLACK
6
CONTINUOUS
10
3.6743042913385824
20
-4.0444288582677164
11
3.6746379133858267
21
-4.0442386614173227
0
LINE
8
BLACK
6
CONTINUOUS
10
3.6746379133858267
20
-4.0442386614173227
11
3.6915216929133856
21
-4.0386107086614169
0
LINE
8
BLACK
6
CONTINUOUS
10
3.6915216929133856
20
-4.0386107086614169
11
3.6746379133858267
21
-4.0329827952755908
0
LINE
8
BLACK
6
CONTINUOUS
10
3.6746379133858267
20
-4.0329827952755908
11
3.6743042913385824
21
-4.0327925984251971
0
LINE
8
BLACK
6
CONTINUOUS
10
3.6743042913385824
20
-4.0327925984251971
11
3.6739674015748029
21
-4.0321188188976373
0
LINE
8
BLACK
6
CONTINUOUS
10
3.6739674015748029
20
-4.0321188188976373
11
3.6742056299212598
21
-4.0314041732283465
0
LINE
8
BLACK
6
CONTINUOUS
10
3.6742056299212598
20
-4.0314041732283465
11
3.6748794094488186
21
-4.0310672834645667
0
LINE
8
BLACK
6
CONTINUOUS
10
3.6748794094488186
20
-4.0310672834645667
11
3.675260433070866
21
-4.0311153149606298
0
LINE
8
BLACK
6
CONTINUOUS
10
3.9370078740157481
20
-4.0354330708661417
11
4.0137795275590546
21
-4.0354330708661417
0
LINE
8
BLACK
6
CONTINUOUS
10
4.0137795275590546
20
-4.0354330708661417
11
4.0146835039370075
21
-4.0356128740157482
0
LINE
8
BLACK
6
CONTINUOUS
10
4.0146835039370075
20
-4.0356128740157482
11
4.0159619291338577
21
-4.0368912992125985
0
LINE
8
BLACK
6
CONTINUOUS
10
4.0159619291338577
20
-4.0368912992125985
11
4.0159619291338577
21
-4.0386992519685041
0
LINE
8
BLACK
6
CONTINUOUS
10
4.0159619291338577
20
-4.0386992519685041
11
4.0146835039370075
21
-4.0399776771653544
0
LINE
8
BLACK
6
CONTINUOUS
10
4.0146835039370075
20
-4.0399776771653544
11
4.0137795275590546
21
-4.0401574803149609
0
LINE
8
BLACK
6
CONTINUOUS
10
4.0137795275590546
20
-4.0401574803149609
11
3.9370078740157481
21
-4.0401574803149609
0
LINE
8
BLACK
6
CONTINUOUS
10
3.9370078740157481
20
-4.0401574803149609
11
3.8602362204724407
21
-4.0401574803149609
0
LINE
8
BLACK
6
CONTINUOUS
10
3.8602362204724407
20
-4.0401574803149609
11
3.8593322440944879
21
-4.0399776771653544
0
LINE
8
BLACK
6
CONTINUOUS
10
3.8593322440944879
20
-4.0399776771653544
11
3.8580538188976377
21
-4.0386992519685041
0
LINE
8
BLACK
6
CONTINUOUS
10
3.8580538188976377
20
-4.0386992519685041
11
3.8580538188976377
21
-4.0368912992125985
0
LINE
8
BLACK
6
CONTINUOUS
10
3.8580538188976377
20
-4.0368912992125985
11
3.8593322440944879
21
-4.0356128740157482
0
LINE
8
BLACK
6
CONTINUOUS
10
3.8593322440944879
20
-4.0356128740157482
11
3.8602362204724407
21
-4.0354330708661417
0
LINE
8
BLACK
6
CONTINUOUS
10
3.8602362204724407
20
-4.0354330708661417
11
3.9370078740157481
21
-4.0354330708661417
0
LINE
8
BLACK
6
CONTINUOUS
10
3.7124186220472439
20
-4.0142042125984254
11
3.7125984251968505
21
-4.0151081889763782
0
LINE
8
BLACK
6
CONTINUOUS
10
3.7125984251968505
20
-4.0151081889763782
11
3.7125984251968505
21
-4.0356792125984251
0
LINE
8
BLACK
6
CONTINUOUS
10
3.7125984251968505
20
-4.0356792125984251
11
3.7124186220472439
21
-4.0365831889763779
0
LINE
8
BLACK
6
CONTINUOUS
10
3.7124186220472439
20
-4.0365831889763779
11
3.7111401968503936
21
-4.0378616141732282
0
LINE
8
BLACK
6
CONTINUOUS
10
3.7111401968503936
20
-4.0378616141732282
11
3.709332244094488
21
-4.0378616141732282
0
LINE
8
BLACK
6
CONTINUOUS
10
3.709332244094488
20
-4.0378616141732282
11
3.7080538188976377
21
-4.0365831889763779
0
LINE
8
BLACK
6
CONTINUOUS
10
3.7080538188976377
20
-4.0365831889763779
11
3.7078740157480312
21
-4.0356792125984251
0
LINE
8
BLACK
6
CONTINUOUS
10
3.7078740157480312
20
-4.0356792125984251
11
3.7078740157480312
21
-4.0151081889763782
0
LINE
8
BLACK
6
CONTINUOUS
10
3.7078740157480312
20
-4.0151081889763782
11
3.7080538188976377
21
-4.0142042125984254
0
LINE
8
BLACK
6
CONTINUOUS
10
3.7080538188976377
20
-4.0142042125984254
11
3.709332244094488
21
-4.0129257874015751
0
LINE
8
BLACK
6
CONTINUOUS
10
3.709332244094488
20
-4.0129257874015751
11
3.7111401968503936
21
-4.0129257874015751
0
LINE
8
BLACK
6
CONTINUOUS
10
3.7111401968503936
20
-4.0129257874015751
11
3.7124186220472439
21
-4.0142042125984254
0
LINE
8
BLACK
6
CONTINUOUS
10
3.7702926377952757
20
-4.0142042125984254
11
3.7704724409448818
21
-4.0151081889763782
0
LINE
8
BLACK
6
CONTINUOUS
10
3.7704724409448818
20
-4.0151081889763782
11
3.7704724409448818
21
-4.0356792125984251
0
LINE
8
BLACK
6
CONTINUOUS
10
3.7704724409448818
20
-4.0356792125984251
11
3.7702926377952757
21
-4.0365831889763779
0
LINE
8
BLACK
6
CONTINUOUS
10
3.7702926377952757
20
-4.0365831889763779
11
3.769014212598425
21
-4.0378616141732282
0
LINE
8
BLACK
6
CONTINUOUS
10
3.769014212598425
20
-4.0378616141732282
11
3.7672062598425198
21
-4.0378616141732282
0
LINE
8
BLACK
6
CONTINUOUS
10
3.7672062598425198
20
-4.0378616141732282
11
3.765927834645669
21
-4.0365831889763779
0
LINE
8
BLACK
6
CONTINUOUS
10
3.765927834645669
20
-4.0365831889763779
11
3.765748031496063
21
-4.0356792125984251
0
LINE
8
BLACK
6
CONTINUOUS
10
3.765748031496063
20
-4.0356792125984251
11
3.765748031496063
21
-4.0151081889763782
0
LINE
8
BLACK
6
CONTINUOUS
10
3.765748031496063
20
-4.0151081889763782
11
3.765927834645669
21
-4.0142042125984254
0
LINE
8
BLACK
6
CONTINUOUS
10
3.765927834645669
20
-4.0142042125984254
11
3.7672062598425198
21
-4.0129257874015751
0
LINE
8
BLACK
6
CONTINUOUS
10
3.7672062598425198
20
-4.0129257874015751
11
3.769014212598425
21
-4.0129257874015751
0
LINE
8
BLACK
6
CONTINUOUS
10
3.769014212598425
20
-4.0129257874015751
11
3.7702926377952757
21
-4.0142042125984254
0
LINE
8
BLACK
6
CONTINUOUS
10
3.6909330314960629
20
-4.0142015354330711
11
3.6909544881889764
21
-4.0141944094488187
0
LINE
8
BLACK
6
CONTINUOUS
10
3.6909544881889764
20
-4.0141944094488187
11
3.6911067322834645
21
-4.0142360629921257
0
LINE
8
BLACK
6
CONTINUOUS
10
3.6911067322834645
20
-4.0142360629921257
11
3.6912613385826769
21
-4.0142668503937005
0
LINE
8
BLACK
6
CONTINUOUS
10
3.6912613385826769
20
-4.0142668503937005
11
3.6912772440944881
21
-4.0142827559055121
0
LINE
8
BLACK
6
CONTINUOUS
10
3.6912772440944881
20
-4.0142827559055121
11
3.6913248818897637
21
-4.0142958267716535
0
LINE
8
BLACK
6
CONTINUOUS
10
3.6913248818897637
20
-4.0142958267716535
11
3.6931996456692913
21
-4.0152332283464567
0
LINE
8
BLACK
6
CONTINUOUS
10
3.6931996456692913
20
-4.0152332283464567
11
3.6933245275590552
21
-4.0153301181102359
0
LINE
8
BLACK
6
CONTINUOUS
10
3.6933245275590552
20
-4.0153301181102359
11
3.6934553937007872
21
-4.0154175984251967
0
LINE
8
BLACK
6
CONTINUOUS
10
3.6934553937007872
20
-4.0154175984251967
11
3.6943927952755904
21
-4.0163549606299211
0
LINE
8
BLACK
6
CONTINUOUS
10
3.6943927952755904
20
-4.0163549606299211
11
3.6944803937007875
21
-4.0164860629921257
0
LINE
8
BLACK
6
CONTINUOUS
10
3.6944803937007875
20
-4.0164860629921257
11
3.6945772047244092
21
-4.0166107874015751
0
LINE
8
BLACK
6
CONTINUOUS
10
3.6945772047244092
20
-4.0166107874015751
11
3.6955145669291336
21
-4.0184855118110239
0
LINE
8
BLACK
6
CONTINUOUS
10
3.6955145669291336
20
-4.0184855118110239
11
3.6955275984251967
21
-4.0185331102362207
0
LINE
8
BLACK
6
CONTINUOUS
10
3.6955275984251967
20
-4.0185331102362207
11
3.6955435433070867
21
-4.0185490551181102
0
LINE
8
BLACK
6
CONTINUOUS
10
3.6955435433070867
20
-4.0185490551181102
11
3.6955742913385827
21
-4.0187037007874018
0
LINE
8
BLACK
6
CONTINUOUS
10
3.6955742913385827
20
-4.0187037007874018
11
3.6956159842519685
21
-4.0188559448818895
0
LINE
8
BLACK
6
CONTINUOUS
10
3.6956159842519685
20
-4.0188559448818895
11
3.6956088188976377
21
-4.0188773228346459
0
LINE
8
BLACK
6
CONTINUOUS
10
3.6956088188976377
20
-4.0188773228346459
11
3.695618464566929
21
-4.018925708661417
0
LINE
8
BLACK
6
CONTINUOUS
10
3.695618464566929
20
-4.018925708661417
11
3.695618464566929
21
-4.0236126377952752
0
LINE
8
BLACK
6
CONTINUOUS
10
3.695618464566929
20
-4.0236126377952752
11
3.6955876377952754
21
-4.0237674409448818
0
LINE
8
BLACK
6
CONTINUOUS
10
3.6955876377952754
20
-4.0237674409448818
11
3.6955679527559053
21
-4.0239238582677164
0
LINE
8
BLACK
6
CONTINUOUS
10
3.6955679527559053
20
-4.0239238582677164
11
3.6946305905511809
21
-4.0267360236220471
0
LINE
8
BLACK
6
CONTINUOUS
10
3.6946305905511809
20
-4.0267360236220471
11
3.6944403937007873
21
-4.0270696456692914
0
LINE
8
BLACK
6
CONTINUOUS
10
3.6944403937007873
20
-4.0270696456692914
11
3.6937666141732284
21
-4.0274065354330704
0
LINE
8
BLACK
6
CONTINUOUS
10
3.6937666141732284
20
-4.0274065354330704
11
3.6930519685039371
21
-4.0271683070866144
0
LINE
8
BLACK
6
CONTINUOUS
10
3.6930519685039371
20
-4.0271683070866144
11
3.6927150787401573
21
-4.0264945275590547
0
LINE
8
BLACK
6
CONTINUOUS
10
3.6927150787401573
20
-4.0264945275590547
11
3.6927631102362204
21
-4.0261135039370082
0
LINE
8
BLACK
6
CONTINUOUS
10
3.6927631102362204
20
-4.0261135039370082
11
3.6936499606299211
21
-4.0234529133858263
0
LINE
8
BLACK
6
CONTINUOUS
10
3.6936499606299211
20
-4.0234529133858263
11
3.6936499606299211
21
-4.0191580314960627
0
LINE
8
BLACK
6
CONTINUOUS
10
3.6936499606299211
20
-4.0191580314960627
11
3.6928879133858268
21
-4.017633937007874
0
LINE
8
BLACK
6
CONTINUOUS
10
3.6928879133858268
20
-4.017633937007874
11
3.6921764566929132
21
-4.0169225196850391
0
LINE
8
BLACK
6
CONTINUOUS
10
3.6921764566929132
20
-4.0169225196850391
11
3.690652283464567
21
-4.0161604330708665
0
LINE
8
BLACK
6
CONTINUOUS
10
3.690652283464567
20
-4.0161604330708665
11
3.6892423228346454
21
-4.0161604330708665
0
LINE
8
BLACK
6
CONTINUOUS
10
3.6892423228346454
20
-4.0161604330708665
11
3.6877180708661417
21
-4.0169225590551179
0
LINE
8
BLACK
6
CONTINUOUS
10
3.6877180708661417
20
-4.0169225590551179
11
3.6870066929133856
21
-4.0176338976377952
0
LINE
8
BLACK
6
CONTINUOUS
10
3.6870066929133856
20
-4.0176338976377952
11
3.6861890157480315
21
-4.019269291338583
0
LINE
8
BLACK
6
CONTINUOUS
10
3.6861890157480315
20
-4.019269291338583
11
3.6852778740157479
21
-4.0229139763779527
0
LINE
8
BLACK
6
CONTINUOUS
10
3.6852778740157479
20
-4.0229139763779527
11
3.685231811023622
21
-4.0230114566929132
0
LINE
8
BLACK
6
CONTINUOUS
10
3.685231811023622
20
-4.0230114566929132
11
3.6852033464566927
21
-4.0231154330708661
0
LINE
8
BLACK
6
CONTINUOUS
10
3.6852033464566927
20
-4.0231154330708661
11
3.6842659842519683
21
-4.0249901574803149
0
LINE
8
BLACK
6
CONTINUOUS
10
3.6842659842519683
20
-4.0249901574803149
11
3.6841691732283466
21
-4.0251148425196845
0
LINE
8
BLACK
6
CONTINUOUS
10
3.6841691732283466
20
-4.0251148425196845
11
3.6840815748031495
21
-4.0252459842519688
0
LINE
8
BLACK
6
CONTINUOUS
10
3.6840815748031495
20
-4.0252459842519688
11
3.6831442125984251
21
-4.0261833858267719
0
LINE
8
BLACK
6
CONTINUOUS
10
3.6831442125984251
20
-4.0261833858267719
11
3.683012874015748
21
-4.0262711023622044
0
LINE
8
BLACK
6
CONTINUOUS
10
3.683012874015748
20
-4.0262711023622044
11
3.6828883858267716
21
-4.026367755905512
0
LINE
8
BLACK
6
CONTINUOUS
10
3.6828883858267716
20
-4.026367755905512
11
3.681013622047244
21
-4.0273051181102364
0
LINE
8
BLACK
6
CONTINUOUS
10
3.681013622047244
20
-4.0273051181102364
11
3.6809660629921259
21
-4.0273181102362203
0
LINE
8
BLACK
6
CONTINUOUS
10
3.6809660629921259
20
-4.0273181102362203
11
3.680950118110236
21
-4.0273340944881886
0
LINE
8
BLACK
6
CONTINUOUS
10
3.680950118110236
20
-4.0273340944881886
11
3.6807953543307086
21
-4.0273648425196846
0
LINE
8
BLACK
6
CONTINUOUS
10
3.6807953543307086
20
-4.0273648425196846
11
3.6806432283464567
21
-4.0274065354330704
0
LINE
8
BLACK
6
CONTINUOUS
10
3.6806432283464567
20
-4.0274065354330704
11
3.680621811023622
21
-4.02739937007874
0
LINE
8
BLACK
6
CONTINUOUS
10
3.680621811023622
20
-4.02739937007874
11
3.6805734645669292
21
-4.0274090157480318
0
LINE
8
BLACK
6
CONTINUOUS
10
3.6805734645669292
20
-4.0274090157480318
11
3.6786987007874017
21
-4.0274090157480318
0
LINE
8
BLACK
6
CONTINUOUS
10
3.6786987007874017
20
-4.0274090157480318
11
3.6786503149606298
21
-4.02739937007874
0
LINE
8
BLACK
6
CONTINUOUS
10
3.6786503149606298
20
-4.02739937007874
11
3.6786289370078737
21
-4.0274065354330704
0
LINE
8
BLACK
6
CONTINUOUS
10
3.6786289370078737
20
-4.0274065354330704
11
3.6784766929133856
21
-4.0273648425196846
0
LINE
8
BLACK
6
CONTINUOUS
10
3.6784766929133856
20
-4.0273648425196846
11
3.6783220472440945
21
-4.0273340944881886
0
LINE
8
BLACK
6
CONTINUOUS
10
3.6783220472440945
20
-4.0273340944881886
11
3.6783061023622046
21
-4.0273181496062991
0
LINE
8
BLACK
6
CONTINUOUS
10
3.6783061023622046
20
-4.0273181496062991
11
3.6782585039370077
21
-4.0273051181102364
0
LINE
8
BLACK
6
CONTINUOUS
10
3.6782585039370077
20
-4.0273051181102364
11
3.6763837795275589
21
-4.026367755905512
0
LINE
8
BLACK
6
CONTINUOUS
10
3.6763837795275589
20
-4.026367755905512
11
3.67625905511811
21
-4.0262709448818894
0
LINE
8
BLACK
6
CONTINUOUS
10
3.67625905511811
20
-4.0262709448818894
11
3.6761279527559054
21
-4.0261833464566932
0
LINE
8
BLACK
6
CONTINUOUS
10
3.6761279527559054
20
-4.0261833464566932
11
3.675190590551181
21
-4.02524594488189
0
LINE
8
BLACK
6
CONTINUOUS
10
3.675190590551181
20
-4.02524594488189
11
3.6751031102362206
21
-4.0251150787401571
0
LINE
8
BLACK
6
CONTINUOUS
10
3.6751031102362206
20
-4.0251150787401571
11
3.675006220472441
21
-4.0249901968503936
0
LINE
8
BLACK
6
CONTINUOUS
10
3.675006220472441
20
-4.0249901968503936
11
3.6740688188976378
21
-4.0231154330708661
0
LINE
8
BLACK
6
CONTINUOUS
10
3.6740688188976378
20
-4.0231154330708661
11
3.6740557480314959
21
-4.0230677952755904
0
LINE
8
BLACK
6
CONTINUOUS
10
3.6740557480314959
20
-4.0230677952755904
11
3.6740398425196847
21
-4.0230518897637797
0
LINE
8
BLACK
6
CONTINUOUS
10
3.6740398425196847
20
-4.0230518897637797
11
3.6740090551181099
21
-4.0228972834645669
0
LINE
8
BLACK
6
CONTINUOUS
10
3.6740090551181099
20
-4.0228972834645669
11
3.6739674015748029
21
-4.0227450393700783
0
LINE
8
BLACK
6
CONTINUOUS
10
3.6739674015748029
20
-4.0227450393700783
11
3.673974527559055
21
-4.0227235826771652
0
LINE
8
BLACK
6
CONTINUOUS
10
3.673974527559055
20
-4.0227235826771652
11
3.6739649212598424
21
-4.0226752362204721
0
LINE
8
BLACK
6
CONTINUOUS
10
3.6739649212598424
20
-4.0226752362204721
11
3.6739649212598424
21
-4.0179883464566926
0
LINE
8
BLACK
6
CONTINUOUS
10
3.6739649212598424
20
-4.0179883464566926
11
3.6739956692913385
21
-4.0178335826771656
0
LINE
8
BLACK
6
CONTINUOUS
10
3.6739956692913385
20
-4.0178335826771656
11
3.6740154330708661
21
-4.0176770866141736
0
LINE
8
BLACK
6
CONTINUOUS
10
3.6740154330708661
20
-4.0176770866141736
11
3.6749528346456692
21
-4.0148649212598428
0
LINE
8
BLACK
6
CONTINUOUS
10
3.6749528346456692
20
-4.0148649212598428
11
3.6751430314960629
21
-4.0145312992125985
0
LINE
8
BLACK
6
CONTINUOUS
10
3.6751430314960629
20
-4.0145312992125985
11
3.6758168110236218
21
-4.0141944094488187
0
LINE
8
BLACK
6
CONTINUOUS
10
3.6758168110236218
20
-4.0141944094488187
11
3.6765314566929135
21
-4.0144326377952755
0
LINE
8
BLACK
6
CONTINUOUS
10
3.6765314566929135
20
-4.0144326377952755
11
3.6768683464566929
21
-4.0151064173228344
0
LINE
8
BLACK
6
CONTINUOUS
10
3.6768683464566929
20
-4.0151064173228344
11
3.6768203149606298
21
-4.0154874409448817
0
LINE
8
BLACK
6
CONTINUOUS
10
3.6768203149606298
20
-4.0154874409448817
11
3.6759334251968503
21
-4.0181480708661415
0
LINE
8
BLACK
6
CONTINUOUS
10
3.6759334251968503
20
-4.0181480708661415
11
3.6759334251968503
21
-4.0224428346456689
0
LINE
8
BLACK
6
CONTINUOUS
10
3.6759334251968503
20
-4.0224428346456689
11
3.6766955118110234
21
-4.023967007874016
0
LINE
8
BLACK
6
CONTINUOUS
10
3.6766955118110234
20
-4.023967007874016
11
3.6774069291338582
21
-4.0246784645669287
0
LINE
8
BLACK
6
CONTINUOUS
10
3.6774069291338582
20
-4.0246784645669287
11
3.6789310629921257
21
-4.0254405118110235
0
LINE
8
BLACK
6
CONTINUOUS
10
3.6789310629921257
20
-4.0254405118110235
11
3.6803411023622048
21
-4.0254405118110235
0
LINE
8
BLACK
6
CONTINUOUS
10
3.6803411023622048
20
-4.0254405118110235
11
3.6818651968503935
21
-4.0246784251968499
0
LINE
8
BLACK
6
CONTINUOUS
10
3.6818651968503935
20
-4.0246784251968499
11
3.6825766929133859
21
-4.0239669685039372
0
LINE
8
BLACK
6
CONTINUOUS
10
3.6825766929133859
20
-4.0239669685039372
11
3.6833942913385824
21
-4.0223317716535432
0
LINE
8
BLACK
6
CONTINUOUS
10
3.6833942913385824
20
-4.0223317716535432
11
3.6843055118110235
21
-4.018687007874016
0
LINE
8
BLACK
6
CONTINUOUS
10
3.6843055118110235
20
-4.018687007874016
11
3.6843515354330707
21
-4.0185894881889759
0
LINE
8
BLACK
6
CONTINUOUS
10
3.6843515354330707
20
-4.0185894881889759
11
3.6843800393700787
21
-4.0184855511811026
0
LINE
8
BLACK
6
CONTINUOUS
10
3.6843800393700787
20
-4.0184855511811026
11
3.6853174015748031
21
-4.0166107874015751
0
LINE
8
BLACK
6
CONTINUOUS
10
3.6853174015748031
20
-4.0166107874015751
11
3.685414094488189
21
-4.0164861417322832
0
LINE
8
BLACK
6
CONTINUOUS
10
3.685414094488189
20
-4.0164861417322832
11
3.685501811023622
21
-4.0163549606299211
0
LINE
8
BLACK
6
CONTINUOUS
10
3.685501811023622
20
-4.0163549606299211
11
3.6864392125984251
21
-4.0154175984251967
0
LINE
8
BLACK
6
CONTINUOUS
10
3.6864392125984251
20
-4.0154175984251967
11
3.6865700787401572
21
-4.0153301181102359
0
LINE
8
BLACK
6
CONTINUOUS
10
3.6865700787401572
20
-4.0153301181102359
11
3.6866949606299211
21
-4.0152332283464567
0
LINE
8
BLACK
6
CONTINUOUS
10
3.6866949606299211
20
-4.0152332283464567
11
3.6885697637795274
21
-4.0142958267716535
0
LINE
8
BLACK
6
CONTINUOUS
10
3.6885697637795274
20
-4.0142958267716535
11
3.6886172834645667
21
-4.0142827952755908
0
LINE
8
BLACK
6
CONTINUOUS
10
3.6886172834645667
20
-4.0142827952755908
11
3.6886332677165354
21
-4.0142668503937005
0
LINE
8
BLACK
6
CONTINUOUS
10
3.6886332677165354
20
-4.0142668503937005
11
3.6887879921259841
21
-4.0142360629921257
0
LINE
8
BLACK
6
CONTINUOUS
10
3.6887879921259841
20
-4.0142360629921257
11
3.6889401574803147
21
-4.0141944094488187
0
LINE
8
BLACK
6
CONTINUOUS
10
3.6889401574803147
20
-4.0141944094488187
11
3.6889615354330707
21
-4.0142015354330711
0
LINE
8
BLACK
6
CONTINUOUS
10
3.6889615354330707
20
-4.0142015354330711
11
3.6890099212598426
21
-4.0141919291338581
0
LINE
8
BLACK
6
CONTINUOUS
10
3.6890099212598426
20
-4.0141919291338581
11
3.6908846850393702
21
-4.0141919291338581
0
LINE
8
BLACK
6
CONTINUOUS
10
3.6908846850393702
20
-4.0141919291338581
11
3.6909330314960629
21
-4.0142015354330711
0
LINE
8
BLACK
6
CONTINUOUS
10
3.6955435433070867
20
-3.9960518897637796
11
3.695618464566929
21
-3.9964285433070867
0
LINE
8
BLACK
6
CONTINUOUS
10
3.695618464566929
20
-3.9964285433070867
11
3.695618464566929
21
-4.0076771259842516
0
LINE
8
BLACK
6
CONTINUOUS
10
3.695618464566929
20
-4.0076771259842516
11
3.6955435433070867
21
-4.0080537795275593
0
LINE
8
BLACK
6
CONTINUOUS
10
3.6955435433070867
20
-4.0080537795275593
11
3.695010866141732
21
-4.008586456692913
0
LINE
8
BLACK
6
CONTINUOUS
10
3.695010866141732
20
-4.008586456692913
11
3.6942575590551181
21
-4.008586456692913
0
LINE
8
BLACK
6
CONTINUOUS
10
3.6942575590551181
20
-4.008586456692913
11
3.6937248818897639
21
-4.0080537795275593
0
LINE
8
BLACK
6
CONTINUOUS
10
3.6937248818897639
20
-4.0080537795275593
11
3.6936499606299211
21
-4.0076771259842516
0
LINE
8
BLACK
6
CONTINUOUS
10
3.6936499606299211
20
-4.0076771259842516
11
3.6936499606299211
21
-4.0030370866141736
0
LINE
8
BLACK
6
CONTINUOUS
10
3.6936499606299211
20
-4.0030370866141736
11
3.6781999606299212
21
-4.0030370866141736
0
LINE
8
BLACK
6
CONTINUOUS
10
3.6781999606299212
20
-4.0030370866141736
11
3.6783073228346455
21
-4.0031086614173228
0
LINE
8
BLACK
6
CONTINUOUS
10
3.6783073228346455
20
-4.0031086614173228
11
3.6783762204724408
21
-4.0031774409448815
0
LINE
8
BLACK
6
CONTINUOUS
10
3.6783762204724408
20
-4.0031774409448815
11
3.6784573228346455
21
-4.0032316141732283
0
LINE
8
BLACK
6
CONTINUOUS
10
3.6784573228346455
20
-4.0032316141732283
11
3.6803320472440944
21
-4.0051063779527558
0
LINE
8
BLACK
6
CONTINUOUS
10
3.6803320472440944
20
-4.0051063779527558
11
3.6804196456692915
21
-4.0052374803149604
0
LINE
8
BLACK
6
CONTINUOUS
10
3.6804196456692915
20
-4.0052374803149604
11
3.6805164566929132
21
-4.0053622047244097
0
LINE
8
BLACK
6
CONTINUOUS
10
3.6805164566929132
20
-4.0053622047244097
11
3.6814538188976376
21
-4.0072369291338585
0
LINE
8
BLACK
6
CONTINUOUS
10
3.6814538188976376
20
-4.0072369291338585
11
3.6815552362204724
21
-4.0076073622047241
0
LINE
8
BLACK
6
CONTINUOUS
10
3.6815552362204724
20
-4.0076073622047241
11
3.6813170078740156
21
-4.0083220078740158
0
LINE
8
BLACK
6
CONTINUOUS
10
3.6813170078740156
20
-4.0083220078740158
11
3.6806432283464567
21
-4.0086588976377948
0
LINE
8
BLACK
6
CONTINUOUS
10
3.6806432283464567
20
-4.0086588976377948
11
3.679928582677165
21
-4.0084206692913389
0
LINE
8
BLACK
6
CONTINUOUS
10
3.679928582677165
20
-4.0084206692913389
11
3.6796931102362205
21
-4.0081172834645669
0
LINE
8
BLACK
6
CONTINUOUS
10
3.6796931102362205
20
-4.0081172834645669
11
3.678827125984252
21
-4.0063853543307086
0
LINE
8
BLACK
6
CONTINUOUS
10
3.678827125984252
20
-4.0063853543307086
11
3.6771341338582677
21
-4.0046923622047244
0
LINE
8
BLACK
6
CONTINUOUS
10
3.6771341338582677
20
-4.0046923622047244
11
3.6744032283464567
21
-4.0028717716535436
0
LINE
8
BLACK
6
CONTINUOUS
10
3.6744032283464567
20
-4.0028717716535436
11
3.6741313779527558
21
-4.0026005118110239
0
LINE
8
BLACK
6
CONTINUOUS
10
3.6741313779527558
20
-4.0026005118110239
11
3.6741114960629919
21
-4.0025011417322833
0
LINE
8
BLACK
6
CONTINUOUS
10
3.6741114960629919
20
-4.0025011417322833
11
3.6740398425196847
21
-4.0024294881889766
0
LINE
8
BLACK
6
CONTINUOUS
10
3.6740398425196847
20
-4.0024294881889766
11
3.6740398425196847
21
-4.0021428740157479
0
LINE
8
BLACK
6
CONTINUOUS
10
3.6740398425196847
20
-4.0021428740157479
11
3.6739836220472442
21
-4.0018618110236224
0
LINE
8
BLACK
6
CONTINUOUS
10
3.6739836220472442
20
-4.0018618110236224
11
3.6740398425196847
21
-4.0017774803149608
0
LINE
8
BLACK
6
CONTINUOUS
10
3.6740398425196847
20
-4.0017774803149608
11
3.6740398425196847
21
-4.0016761811023622
0
LINE
8
BLACK
6
CONTINUOUS
10
3.6740398425196847
20
-4.0016761811023622
11
3.6742424803149607
21
-4.0014735039370075
0
LINE
8
BLACK
6
CONTINUOUS
10
3.6742424803149607
20
-4.0014735039370075
11
3.674401496062992
21
-4.0012350393700791
0
LINE
8
BLACK
6
CONTINUOUS
10
3.674401496062992
20
-4.0012350393700791
11
3.6745008267716535
21
-4.0012151574803152
0
LINE
8
BLACK
6
CONTINUOUS
10
3.6745008267716535
20
-4.0012151574803152
11
3.6745725196850394
21
-4.0011435039370076
0
LINE
8
BLACK
6
CONTINUOUS
10
3.6745725196850394
20
-4.0011435039370076
11
3.6749491732283466
21
-4.0010685826771653
0
LINE
8
BLACK
6
CONTINUOUS
10
3.6749491732283466
20
-4.0010685826771653
11
3.6936499606299211
21
-4.0010685826771653
0
LINE
8
BLACK
6
CONTINUOUS
10
3.6936499606299211
20
-4.0010685826771653
11
3.6936499606299211
21
-3.9964285433070867
0
LINE
8
BLACK
6
CONTINUOUS
10
3.6936499606299211
20
-3.9964285433070867
11
3.6937248818897639
21
-3.9960518897637796
0
LINE
8
BLACK
6
CONTINUOUS
10
3.6937248818897639
20
-3.9960518897637796
11
3.6942575590551181
21
-3.9955192125984249
0
LINE
8
BLACK
6
CONTINUOUS
10
3.6942575590551181
20
-3.9955192125984249
11
3.695010866141732
21
-3.9955192125984249
0
LINE
8
BLACK
6
CONTINUOUS
10
3.695010866141732
20
-3.9955192125984249
11
3.6955435433070867
21
-3.9960518897637796
0
LINE
8
BLACK
6
CONTINUOUS
10
3.7092293307086615
20
-3.8964081102362202
11
3.7092293307086615
21
-3.8971614173228346
0
LINE
8
BLACK
6
CONTINUOUS
10
3.7092293307086615
20
-3.8971614173228346
11
3.7090159842519683
21
-3.8974807480314961
0
LINE
8
BLACK
6
CONTINUOUS
10
3.7090159842519683
20
-3.8974807480314961
11
3.708242874015748
21
-3.8982538188976377
0
LINE
8
BLACK
6
CONTINUOUS
10
3.708242874015748
20
-3.8982538188976377
11
3.7074294881889762
21
-3.9006940157480314
0
LINE
8
BLACK
6
CONTINUOUS
10
3.7074294881889762
20
-3.9006940157480314
11
3.7074294881889762
21
-3.9022492913385824
0
LINE
8
BLACK
6
CONTINUOUS
10
3.7074294881889762
20
-3.9022492913385824
11
3.708242874015748
21
-3.9046894488188975
0
LINE
8
BLACK
6
CONTINUOUS
10
3.708242874015748
20
-3.9046894488188975
11
3.7098403543307086
21
-3.9062869685039368
0
LINE
8
BLACK
6
CONTINUOUS
10
3.7098403543307086
20
-3.9062869685039368
11
3.7114757480314959
21
-3.9071046456692913
0
LINE
8
BLACK
6
CONTINUOUS
10
3.7114757480314959
20
-3.9071046456692913
11
3.7150029133858267
21
-3.9079864566929134
0
LINE
8
BLACK
6
CONTINUOUS
10
3.7150029133858267
20
-3.9079864566929134
11
3.7175725984251966
21
-3.9079864566929134
0
LINE
8
BLACK
6
CONTINUOUS
10
3.7175725984251966
20
-3.9079864566929134
11
3.7210997637795273
21
-3.9071046456692913
0
LINE
8
BLACK
6
CONTINUOUS
10
3.7210997637795273
20
-3.9071046456692913
11
3.7227351181102359
21
-3.9062870078740155
0
LINE
8
BLACK
6
CONTINUOUS
10
3.7227351181102359
20
-3.9062870078740155
11
3.7243326377952757
21
-3.9046894488188975
0
LINE
8
BLACK
6
CONTINUOUS
10
3.7243326377952757
20
-3.9046894488188975
11
3.7251460236220471
21
-3.9022493307086612
0
LINE
8
BLACK
6
CONTINUOUS
10
3.7251460236220471
20
-3.9022493307086612
11
3.7251460236220471
21
-3.9006939763779527
0
LINE
8
BLACK
6
CONTINUOUS
10
3.7251460236220471
20
-3.9006939763779527
11
3.7243326377952757
21
-3.8982537795275589
0
LINE
8
BLACK
6
CONTINUOUS
10
3.7243326377952757
20
-3.8982537795275589
11
3.7235595669291337
21
-3.8974807480314961
0
LINE
8
BLACK
6
CONTINUOUS
10
3.7235595669291337
20
-3.8974807480314961
11
3.7233461811023623
21
-3.8971614566929134
0
LINE
8
BLACK
6
CONTINUOUS
10
3.7233461811023623
20
-3.8971614566929134
11
3.7233461811023623
21
-3.8964081102362202
0
LINE
8
BLACK
6
CONTINUOUS
10
3.7233461811023623
20
-3.8964081102362202
11
3.7238788188976377
21
-3.895875433070866
0
LINE
8
BLACK
6
CONTINUOUS
10
3.7238788188976377
20
-3.895875433070866
11
3.7246321653543308
21
-3.895875433070866
0
LINE
8
BLACK
6
CONTINUOUS
10
3.7246321653543308
20
-3.895875433070866
11
3.7249514566929132
21
-3.8960887795275592
0
LINE
8
BLACK
6
CONTINUOUS
10
3.7249514566929132
20
-3.8960887795275592
11
3.7258888582677163
21
-3.8970261417322836
0
LINE
8
BLACK
6
CONTINUOUS
10
3.7258888582677163
20
-3.8970261417322836
11
3.725916220472441
21
-3.897067086614173
0
LINE
8
BLACK
6
CONTINUOUS
10
3.725916220472441
20
-3.897067086614173
11
3.7259364960629919
21
-3.8970772440944881
0
LINE
8
BLACK
6
CONTINUOUS
10
3.7259364960629919
20
-3.8970772440944881
11
3.7260146850393698
21
-3.8972144488188976
0
LINE
8
BLACK
6
CONTINUOUS
10
3.7260146850393698
20
-3.8972144488188976
11
3.7261022440944882
21
-3.8973454724409446
0
LINE
8
BLACK
6
CONTINUOUS
10
3.7261022440944882
20
-3.8973454724409446
11
3.7261022440944882
21
-3.8973680708661416
0
LINE
8
BLACK
6
CONTINUOUS
10
3.7261022440944882
20
-3.8973680708661416
11
3.7261266535433069
21
-3.8974109055118111
0
LINE
8
BLACK
6
CONTINUOUS
10
3.7261266535433069
20
-3.8974109055118111
11
3.7270640157480313
21
-3.9002230708661418
0
LINE
8
BLACK
6
CONTINUOUS
10
3.7270640157480313
20
-3.9002230708661418
11
3.7270837007874014
21
-3.9003794488188976
0
LINE
8
BLACK
6
CONTINUOUS
10
3.7270837007874014
20
-3.9003794488188976
11
3.7271145275590549
21
-3.9005342913385825
0
LINE
8
BLACK
6
CONTINUOUS
10
3.7271145275590549
20
-3.9005342913385825
11
3.7271145275590549
21
-3.9024090551181101
0
LINE
8
BLACK
6
CONTINUOUS
10
3.7271145275590549
20
-3.9024090551181101
11
3.7270837007874014
21
-3.9025638582677162
0
LINE
8
BLACK
6
CONTINUOUS
10
3.7270837007874014
20
-3.9025638582677162
11
3.7270640157480313
21
-3.9027202755905512
0
LINE
8
BLACK
6
CONTINUOUS
10
3.7270640157480313
20
-3.9027202755905512
11
3.7261266535433069
21
-3.9055324409448819
0
LINE
8
BLACK
6
CONTINUOUS
10
3.7261266535433069
20
-3.9055324409448819
11
3.7261022440944882
21
-3.9055752362204723
0
LINE
8
BLACK
6
CONTINUOUS
10
3.7261022440944882
20
-3.9055752362204723
11
3.7261022440944882
21
-3.9055978346456692
0
LINE
8
BLACK
6
CONTINUOUS
10
3.7261022440944882
20
-3.9055978346456692
11
3.7260145669291336
21
-3.9057289763779526
0
LINE
8
BLACK
6
CONTINUOUS
10
3.7260145669291336
20
-3.9057289763779526
11
3.7259364566929132
21
-3.9058660629921258
0
LINE
8
BLACK
6
CONTINUOUS
10
3.7259364566929132
20
-3.9058660629921258
11
3.725916220472441
21
-3.9058761417322834
0
LINE
8
BLACK
6
CONTINUOUS
10
3.725916220472441
20
-3.9058761417322834
11
3.7258888582677163
21
-3.9059171653543308
0
LINE
8
BLACK
6
CONTINUOUS
10
3.7258888582677163
20
-3.9059171653543308
11
3.72401405511811
21
-3.9077919291338583
0
LINE
8
BLACK
6
CONTINUOUS
10
3.72401405511811
20
-3.9077919291338583
11
3.7238831889763779
21
-3.90787937007874
0
LINE
8
BLACK
6
CONTINUOUS
10
3.7238831889763779
20
-3.90787937007874
11
3.723758307086614
21
-3.9079762992125984
0
LINE
8
BLACK
6
CONTINUOUS
10
3.723758307086614
20
-3.9079762992125984
11
3.7218835433070865
21
-3.9089137007874015
0
LINE
8
BLACK
6
CONTINUOUS
10
3.7218835433070865
20
-3.9089137007874015
11
3.7217794881889761
21
-3.9089421653543308
0
LINE
8
BLACK
6
CONTINUOUS
10
3.7217794881889761
20
-3.9089421653543308
11
3.7216820472440943
21
-3.9089882283464568
0
LINE
8
BLACK
6
CONTINUOUS
10
3.7216820472440943
20
-3.9089882283464568
11
3.7179325196850392
21
-3.9099255905511812
0
LINE
8
BLACK
6
CONTINUOUS
10
3.7179325196850392
20
-3.9099255905511812
11
3.7178119685039368
21
-3.9099314173228343
0
LINE
8
BLACK
6
CONTINUOUS
10
3.7178119685039368
20
-3.9099314173228343
11
3.7176938188976378
21
-3.9099549606299213
0
LINE
8
BLACK
6
CONTINUOUS
10
3.7176938188976378
20
-3.9099549606299213
11
3.7148816929133859
21
-3.9099549606299213
0
LINE
8
BLACK
6
CONTINUOUS
10
3.7148816929133859
20
-3.9099549606299213
11
3.7147635039370077
21
-3.9099314173228343
0
LINE
8
BLACK
6
CONTINUOUS
10
3.7147635039370077
20
-3.9099314173228343
11
3.714642992125984
21
-3.9099255905511812
0
LINE
8
BLACK
6
CONTINUOUS
10
3.714642992125984
20
-3.9099255905511812
11
3.7108934645669289
21
-3.9089882283464568
0
LINE
8
BLACK
6
CONTINUOUS
10
3.7108934645669289
20
-3.9089882283464568
11
3.7107959448818897
21
-3.9089421653543308
0
LINE
8
BLACK
6
CONTINUOUS
10
3.7107959448818897
20
-3.9089421653543308
11
3.7106920078740155
21
-3.9089137007874015
0
LINE
8
BLACK
6
CONTINUOUS
10
3.7106920078740155
20
-3.9089137007874015
11
3.7088172047244092
21
-3.9079762992125984
0
LINE
8
BLACK
6
CONTINUOUS
10
3.7088172047244092
20
-3.9079762992125984
11
3.7086923622047245
21
-3.90787937007874
0
LINE
8
BLACK
6
CONTINUOUS
10
3.7086923622047245
20
-3.90787937007874
11
3.7085614173228345
21
-3.9077918897637796
0
LINE
8
BLACK
6
CONTINUOUS
10
3.7085614173228345
20
-3.9077918897637796
11
3.706686653543307
21
-3.9059171653543308
0
LINE
8
BLACK
6
CONTINUOUS
10
3.706686653543307
20
-3.9059171653543308
11
3.7066592125984252
21
-3.9058761023622046
0
LINE
8
BLACK
6
CONTINUOUS
10
3.7066592125984252
20
-3.9058761023622046
11
3.7066390944881888
21
-3.9058660629921258
0
LINE
8
BLACK
6
CONTINUOUS
10
3.7066390944881888
20
-3.9058660629921258
11
3.7065610236220472
21
-3.9057291338582676
0
LINE
8
BLACK
6
CONTINUOUS
10
3.7065610236220472
20
-3.9057291338582676
11
3.7064733070866143
21
-3.9055978346456692
0
LINE
8
BLACK
6
CONTINUOUS
10
3.7064733070866143
20
-3.9055978346456692
11
3.7064733070866143
21
-3.9055752362204723
0
LINE
8
BLACK
6
CONTINUOUS
10
3.7064733070866143
20
-3.9055752362204723
11
3.7064488976377952
21
-3.9055324409448819
0
LINE
8
BLACK
6
CONTINUOUS
10
3.7064488976377952
20
-3.9055324409448819
11
3.705511496062992
21
-3.90272031496063
0
LINE
8
BLACK
6
CONTINUOUS
10
3.705511496062992
20
-3.90272031496063
11
3.7054917322834644
21
-3.9025637795275592
0
LINE
8
BLACK
6
CONTINUOUS
10
3.7054917322834644
20
-3.9025637795275592
11
3.7054609842519683
21
-3.9024090551181101
0
LINE
8
BLACK
6
CONTINUOUS
10
3.7054609842519683
20
-3.9024090551181101
11
3.7054609842519683
21
-3.9005342913385825
0
LINE
8
BLACK
6
CONTINUOUS
10
3.7054609842519683
20
-3.9005342913385825
11
3.7054917322834644
21
-3.9003795275590551
0
LINE
8
BLACK
6
CONTINUOUS
10
3.7054917322834644
20
-3.9003795275590551
11
3.705511496062992
21
-3.9002230314960631
0
LINE
8
BLACK
6
CONTINUOUS
10
3.705511496062992
20
-3.9002230314960631
11
3.7064488976377952
21
-3.8974108661417324
0
LINE
8
BLACK
6
CONTINUOUS
10
3.7064488976377952
20
-3.8974108661417324
11
3.7064733070866143
21
-3.8973680314960628
0
LINE
8
BLACK
6
CONTINUOUS
10
3.7064733070866143
20
-3.8973680314960628
11
3.7064733070866143
21
-3.8973454724409446
0
LINE
8
BLACK
6
CONTINUOUS
10
3.7064733070866143
20
-3.8973454724409446
11
3.7065610236220472
21
-3.8972141338582675
0
LINE
8
BLACK
6
CONTINUOUS
10
3.7065610236220472
20
-3.8972141338582675
11
3.7066390944881888
21
-3.8970772440944881
0
LINE
8
BLACK
6
CONTINUOUS
10
3.7066390944881888
20
-3.8970772440944881
11
3.7066592125984252
21
-3.8970671653543305
0
LINE
8
BLACK
6
CONTINUOUS
10
3.7066592125984252
20
-3.8970671653543305
11
3.706686653543307
21
-3.8970261417322836
0
LINE
8
BLACK
6
CONTINUOUS
10
3.706686653543307
20
-3.8970261417322836
11
3.7076240157480314
21
-3.8960887795275592
0
LINE
8
BLACK
6
CONTINUOUS
10
3.7076240157480314
20
-3.8960887795275592
11
3.7079433464566929
21
-3.895875433070866
0
LINE
8
BLACK
6
CONTINUOUS
10
3.7079433464566929
20
-3.895875433070866
11
3.7086966535433068
21
-3.895875433070866
0
LINE
8
BLACK
6
CONTINUOUS
10
3.7086966535433068
20
-3.895875433070866
11
3.7092293307086615
21
-3.8964081102362202
0
LINE
8
BLACK
6
CONTINUOUS
10
3.7409619291338583
20
-3.8831283070866141
11
3.7411417322834644
21
-3.8840322834645669
0
LINE
8
BLACK
6
CONTINUOUS
10
3.7411417322834644
20
-3.8840322834645669
11
3.7411417322834644
21
-3.8951015748031494
0
LINE
8
BLACK
6
CONTINUOUS
10
3.7411417322834644
20
-3.8951015748031494
11
3.7409619291338583
21
-3.8960055511811023
0
LINE
8
BLACK
6
CONTINUOUS
10
3.7409619291338583
20
-3.8960055511811023
11
3.739683503937008
21
-3.8972839763779525
0
LINE
8
BLACK
6
CONTINUOUS
10
3.739683503937008
20
-3.8972839763779525
11
3.7378755511811024
21
-3.8972839763779525
0
LINE
8
BLACK
6
CONTINUOUS
10
3.7378755511811024
20
-3.8972839763779525
11
3.7365971259842521
21
-3.8960055511811023
0
LINE
8
BLACK
6
CONTINUOUS
10
3.7365971259842521
20
-3.8960055511811023
11
3.7364173228346456
21
-3.8951015748031494
0
LINE
8
BLACK
6
CONTINUOUS
10
3.7364173228346456
20
-3.8951015748031494
11
3.7364173228346456
21
-3.8840322834645669
0
LINE
8
BLACK
6
CONTINUOUS
10
3.7364173228346456
20
-3.8840322834645669
11
3.7365971259842521
21
-3.8831283070866141
0
LINE
8
BLACK
6
CONTINUOUS
10
3.7365971259842521
20
-3.8831283070866141
11
3.7378755511811024
21
-3.8818498818897638
0
LINE
8
BLACK
6
CONTINUOUS
10
3.7378755511811024
20
-3.8818498818897638
11
3.739683503937008
21
-3.8818498818897638
0
LINE
8
BLACK
6
CONTINUOUS
10
3.739683503937008
20
-3.8818498818897638
11
3.7409619291338583
21
-3.8831283070866141
0
LINE
8
BLACK
6
CONTINUOUS
10
3.7811194094488187
20
-3.8831283070866141
11
3.7812992125984253
21
-3.8840322834645669
0
LINE
8
BLACK
6
CONTINUOUS
10
3.7812992125984253
20
-3.8840322834645669
11
3.7812992125984253
21
-3.8951015748031494
0
LINE
8
BLACK
6
CONTINUOUS
10
3.7812992125984253
20
-3.8951015748031494
11
3.7811194094488187
21
-3.8960055511811023
0
LINE
8
BLACK
6
CONTINUOUS
10
3.7811194094488187
20
-3.8960055511811023
11
3.7798409842519685
21
-3.8972839763779525
0
LINE
8
BLACK
6
CONTINUOUS
10
3.7798409842519685
20
-3.8972839763779525
11
3.7780330314960628
21
-3.8972839763779525
0
LINE
8
BLACK
6
CONTINUOUS
10
3.7780330314960628
20
-3.8972839763779525
11
3.7767546062992126
21
-3.8960055511811023
0
LINE
8
BLACK
6
CONTINUOUS
10
3.7767546062992126
20
-3.8960055511811023
11
3.776574803149606
21
-3.8951015748031494
0
LINE
8
BLACK
6
CONTINUOUS
10
3.776574803149606
20
-3.8951015748031494
11
3.776574803149606
21
-3.8840322834645669
0
LINE
8
BLACK
6
CONTINUOUS
10
3.776574803149606
20
-3.8840322834645669
11
3.7767546062992126
21
-3.8831283070866141
0
LINE
8
BLACK
6
CONTINUOUS
10
3.7767546062992126
20
-3.8831283070866141
11
3.7780330314960628
21
-3.8818498818897638
0
LINE
8
BLACK
6
CONTINUOUS
10
3.7780330314960628
20
-3.8818498818897638
11
3.7798409842519685
21
-3.8818498818897638
0
LINE
8
BLACK
6
CONTINUOUS
10
3.7798409842519685
20
-3.8818498818897638
11
3.7811194094488187
21
-3.8831283070866141
0
LINE
8
BLACK
6
CONTINUOUS
10
3.7270396062992126
20
-3.8776604330708659
11
3.7271145275590549
21
-3.8780370866141731
0
LINE
8
BLACK
6
CONTINUOUS
10
3.7271145275590549
20
-3.8780370866141731
11
3.7271145275590549
21
-3.8892856692913385
0
LINE
8
BLACK
6
CONTINUOUS
10
3.7271145275590549
20
-3.8892856692913385
11
3.7270396062992126
21
-3.8896623228346456
0
LINE
8
BLACK
6
CONTINUOUS
10
3.7270396062992126
20
-3.8896623228346456
11
3.7265069291338584
21
-3.8901949999999998
0
LINE
8
BLACK
6
CONTINUOUS
10
3.7265069291338584
20
-3.8901949999999998
11
3.725753622047244
21
-3.8901949999999998
0
LINE
8
BLACK
6
CONTINUOUS
10
3.725753622047244
20
-3.8901949999999998
11
3.7252209448818898
21
-3.8896623228346456
0
LINE
8
BLACK
6
CONTINUOUS
10
3.7252209448818898
20
-3.8896623228346456
11
3.7251460236220471
21
-3.8892856692913385
0
LINE
8
BLACK
6
CONTINUOUS
10
3.7251460236220471
20
-3.8892856692913385
11
3.7251460236220471
21
-3.8846456299212599
0
LINE
8
BLACK
6
CONTINUOUS
10
3.7251460236220471
20
-3.8846456299212599
11
3.7096960236220471
21
-3.8846456299212599
0
LINE
8
BLACK
6
CONTINUOUS
10
3.7096960236220471
20
-3.8846456299212599
11
3.7098033858267714
21
-3.8847172047244092
0
LINE
8
BLACK
6
CONTINUOUS
10
3.7098033858267714
20
-3.8847172047244092
11
3.7098722834645668
21
-3.8847859842519683
0
LINE
8
BLACK
6
CONTINUOUS
10
3.7098722834645668
20
-3.8847859842519683
11
3.7099533858267715
21
-3.8848401574803151
0
LINE
8
BLACK
6
CONTINUOUS
10
3.7099533858267715
20
-3.8848401574803151
11
3.7118281102362203
21
-3.8867149212598426
0
LINE
8
BLACK
6
CONTINUOUS
10
3.7118281102362203
20
-3.8867149212598426
11
3.7119157086614174
21
-3.8868460236220472
0
LINE
8
BLACK
6
CONTINUOUS
10
3.7119157086614174
20
-3.8868460236220472
11
3.7120125196850391
21
-3.8869707480314961
0
LINE
8
BLACK
6
CONTINUOUS
10
3.7120125196850391
20
-3.8869707480314961
11
3.7129498818897635
21
-3.8888454724409449
0
LINE
8
BLACK
6
CONTINUOUS
10
3.7129498818897635
20
-3.8888454724409449
11
3.7130512992125984
21
-3.889215905511811
0
LINE
8
BLACK
6
CONTINUOUS
10
3.7130512992125984
20
-3.889215905511811
11
3.7128130708661415
21
-3.8899305511811022
0
LINE
8
BLACK
6
CONTINUOUS
10
3.7128130708661415
20
-3.8899305511811022
11
3.7121392913385827
21
-3.8902674409448816
0
LINE
8
BLACK
6
CONTINUOUS
10
3.7121392913385827
20
-3.8902674409448816
11
3.7114246456692914
21
-3.8900292125984253
0
LINE
8
BLACK
6
CONTINUOUS
10
3.7114246456692914
20
-3.8900292125984253
11
3.7111891732283464
21
-3.8897258267716532
0
LINE
8
BLACK
6
CONTINUOUS
10
3.7111891732283464
20
-3.8897258267716532
11
3.7103231889763779
21
-3.887993897637795
0
LINE
8
BLACK
6
CONTINUOUS
10
3.7103231889763779
20
-3.887993897637795
11
3.7086301968503936
21
-3.8863009055118107
0
LINE
8
BLACK
6
CONTINUOUS
10
3.7086301968503936
20
-3.8863009055118107
11
3.7058992913385826
21
-3.88448031496063
0
LINE
8
BLACK
6
CONTINUOUS
10
3.7058992913385826
20
-3.88448031496063
11
3.7056274409448817
21
-3.8842090551181103
0
LINE
8
BLACK
6
CONTINUOUS
10
3.7056274409448817
20
-3.8842090551181103
11
3.7056075590551179
21
-3.8841096850393702
0
LINE
8
BLACK
6
CONTINUOUS
10
3.7056075590551179
20
-3.8841096850393702
11
3.7055359055118111
21
-3.884038031496063
0
LINE
8
BLACK
6
CONTINUOUS
10
3.7055359055118111
20
-3.884038031496063
11
3.7055359055118111
21
-3.8837514173228347
0
LINE
8
BLACK
6
CONTINUOUS
10
3.7055359055118111
20
-3.8837514173228347
11
3.7054796850393701
21
-3.8834703543307088
0
LINE
8
BLACK
6
CONTINUOUS
10
3.7054796850393701
20
-3.8834703543307088
11
3.7055359055118111
21
-3.8833860236220472
0
LINE
8
BLACK
6
CONTINUOUS
10
3.7055359055118111
20
-3.8833860236220472
11
3.7055359055118111
21
-3.8832847244094486
0
LINE
8
BLACK
6
CONTINUOUS
10
3.7055359055118111
20
-3.8832847244094486
11
3.7057385433070866
21
-3.8830820472440943
0
LINE
8
BLACK
6
CONTINUOUS
10
3.7057385433070866
20
-3.8830820472440943
11
3.705897559055118
21
-3.8828435826771655
0
LINE
8
BLACK
6
CONTINUOUS
10
3.705897559055118
20
-3.8828435826771655
11
3.7059968897637794
21
-3.8828237007874016
0
LINE
8
BLACK
6
CONTINUOUS
10
3.7059968897637794
20
-3.8828237007874016
11
3.7060685826771653
21
-3.8827520472440944
0
LINE
8
BLACK
6
CONTINUOUS
10
3.7060685826771653
20
-3.8827520472440944
11
3.7064452362204725
21
-3.8826771259842521
0
LINE
8
BLACK
6
CONTINUOUS
10
3.7064452362204725
20
-3.8826771259842521
11
3.7251460236220471
21
-3.8826771259842521
0
LINE
8
BLACK
6
CONTINUOUS
10
3.7251460236220471
20
-3.8826771259842521
11
3.7251460236220471
21
-3.8780370866141731
0
LINE
8
BLACK
6
CONTINUOUS
10
3.7251460236220471
20
-3.8780370866141731
11
3.7252209448818898
21
-3.8776604330708659
0
LINE
8
BLACK
6
CONTINUOUS
10
3.7252209448818898
20
-3.8776604330708659
11
3.725753622047244
21
-3.8771277559055117
0
LINE
8
BLACK
6
CONTINUOUS
10
3.725753622047244
20
-3.8771277559055117
11
3.7265069291338584
21
-3.8771277559055117
0
LINE
8
BLACK
6
CONTINUOUS
10
3.7265069291338584
20
-3.8771277559055117
11
3.7270396062992126
21
-3.8776604330708659
0
LINE
8
BLACK
6
CONTINUOUS
10
3.907667834645669
20
-3.8420259448818896
11
3.9084824803149605
21
-3.8428405905511811
0
LINE
8
BLACK
6
CONTINUOUS
10
3.9084824803149605
20
-3.8428405905511811
11
3.9089233858267716
21
-3.8439049999999999
0
LINE
8
BLACK
6
CONTINUOUS
10
3.9089233858267716
20
-3.8439049999999999
11
3.9089801181102359
21
-3.8444810629921258
0
LINE
8
BLACK
6
CONTINUOUS
10
3.9089801181102359
20
-3.8444810629921258
11
3.9089801181102359
21
-3.8756550000000001
0
LINE
8
BLACK
6
CONTINUOUS
10
3.9089801181102359
20
-3.8756550000000001
11
3.9103288582677163
21
-3.8783524803149607
0
LINE
8
BLACK
6
CONTINUOUS
10
3.9103288582677163
20
-3.8783524803149607
11
3.9115259842519685
21
-3.8795496456692913
0
LINE
8
BLACK
6
CONTINUOUS
10
3.9115259842519685
20
-3.8795496456692913
11
3.9142234645669292
21
-3.8808983858267716
0
LINE
8
BLACK
6
CONTINUOUS
10
3.9142234645669292
20
-3.8808983858267716
11
3.9203284251968502
21
-3.8808983858267716
0
LINE
8
BLACK
6
CONTINUOUS
10
3.9203284251968502
20
-3.8808983858267716
11
3.9230258661417321
21
-3.8795496456692913
0
LINE
8
BLACK
6
CONTINUOUS
10
3.9230258661417321
20
-3.8795496456692913
11
3.9242229921259844
21
-3.8783524803149607
0
LINE
8
BLACK
6
CONTINUOUS
10
3.9242229921259844
20
-3.8783524803149607
11
3.9255717716535434
21
-3.8756550000000001
0
LINE
8
BLACK
6
CONTINUOUS
10
3.9255717716535434
20
-3.8756550000000001
11
3.9255717716535434
21
-3.8444810629921258
0
LINE
8
BLACK
6
CONTINUOUS
10
3.9255717716535434
20
-3.8444810629921258
11
3.9256285039370078
21
-3.8439049999999999
0
LINE
8
BLACK
6
CONTINUOUS
10
3.9256285039370078
20
-3.8439049999999999
11
3.9260694094488189
21
-3.8428405905511811
0
LINE
8
BLACK
6
CONTINUOUS
10
3.9260694094488189
20
-3.8428405905511811
11
3.9268840551181103
21
-3.8420259448818896
0
LINE
8
BLACK
6
CONTINUOUS
10
3.9268840551181103
20
-3.8420259448818896
11
3.9279484645669291
21
-3.8415850393700786
0
LINE
8
BLACK
6
CONTINUOUS
10
3.9279484645669291
20
-3.8415850393700786
11
3.9291005905511809
21
-3.8415850393700786
0
LINE
8
BLACK
6
CONTINUOUS
10
3.9291005905511809
20
-3.8415850393700786
11
3.9301650000000001
21
-3.8420259448818896
0
LINE
8
BLACK
6
CONTINUOUS
10
3.9301650000000001
20
-3.8420259448818896
11
3.9309796456692911
21
-3.8428405905511811
0
LINE
8
BLACK
6
CONTINUOUS
10
3.9309796456692911
20
-3.8428405905511811
11
3.9314205511811022
21
-3.8439049999999999
0
LINE
8
BLACK
6
CONTINUOUS
10
3.9314205511811022
20
-3.8439049999999999
11
3.931477283464567
21
-3.8444810629921258
0
LINE
8
BLACK
6
CONTINUOUS
10
3.931477283464567
20
-3.8444810629921258
11
3.931477283464567
21
-3.8763520472440942
0
LINE
8
BLACK
6
CONTINUOUS
10
3.931477283464567
20
-3.8763520472440942
11
3.9314205511811022
21
-3.8769281102362205
0
LINE
8
BLACK
6
CONTINUOUS
10
3.9314205511811022
20
-3.8769281102362205
11
3.9313799606299211
21
-3.877026062992126
0
LINE
8
BLACK
6
CONTINUOUS
10
3.9313799606299211
20
-3.877026062992126
11
3.9313724409448816
21
-3.8771319685039369
0
LINE
8
BLACK
6
CONTINUOUS
10
3.9313724409448816
20
-3.8771319685039369
11
3.9311655511811021
21
-3.8776725590551182
0
LINE
8
BLACK
6
CONTINUOUS
10
3.9311655511811021
20
-3.8776725590551182
11
3.9292907874015746
21
-3.8814220866141733
0
LINE
8
BLACK
6
CONTINUOUS
10
3.9292907874015746
20
-3.8814220866141733
11
3.9291347244094488
21
-3.881669960629921
0
LINE
8
BLACK
6
CONTINUOUS
10
3.9291347244094488
20
-3.881669960629921
11
3.9291049212598423
21
-3.8817420078740157
0
LINE
8
BLACK
6
CONTINUOUS
10
3.9291049212598423
20
-3.8817420078740157
11
3.9290383858267717
21
-3.8818230314960629
0
LINE
8
BLACK
6
CONTINUOUS
10
3.9290383858267717
20
-3.8818230314960629
11
3.9289824409448819
21
-3.8819119685039367
0
LINE
8
BLACK
6
CONTINUOUS
10
3.9289824409448819
20
-3.8819119685039367
11
3.9289234251968503
21
-3.8819631102362204
0
LINE
8
BLACK
6
CONTINUOUS
10
3.9289234251968503
20
-3.8819631102362204
11
3.9287376771653544
21
-3.8821894881889762
0
LINE
8
BLACK
6
CONTINUOUS
10
3.9287376771653544
20
-3.8821894881889762
11
3.9268629527559056
21
-3.8840642519685038
0
LINE
8
BLACK
6
CONTINUOUS
10
3.9268629527559056
20
-3.8840642519685038
11
3.9266365748031493
21
-3.8842499999999998
0
LINE
8
BLACK
6
CONTINUOUS
10
3.9266365748031493
20
-3.8842499999999998
11
3.9265853937007873
21
-3.8843090551181101
0
LINE
8
BLACK
6
CONTINUOUS
10
3.9265853937007873
20
-3.8843090551181101
11
3.9264964173228347
21
-3.8843650393700786
0
LINE
8
BLACK
6
CONTINUOUS
10
3.9264964173228347
20
-3.8843650393700786
11
3.9264154724409446
21
-3.8844314960629922
0
LINE
8
BLACK
6
CONTINUOUS
10
3.9264154724409446
20
-3.8844314960629922
11
3.9263435039370078
21
-3.8844612992125982
0
LINE
8
BLACK
6
CONTINUOUS
10
3.9263435039370078
20
-3.8844612992125982
11
3.9260955118110235
21
-3.8846174015748032
0
LINE
8
BLACK
6
CONTINUOUS
10
3.9260955118110235
20
-3.8846174015748032
11
3.9223459842519683
21
-3.8864921653543307
0
LINE
8
BLACK
6
CONTINUOUS
10
3.9223459842519683
20
-3.8864921653543307
11
3.9218053543307088
21
-3.8866990551181102
0
LINE
8
BLACK
6
CONTINUOUS
10
3.9218053543307088
20
-3.8866990551181102
11
3.9216995275590549
21
-3.886706535433071
0
LINE
8
BLACK
6
CONTINUOUS
10
3.9216995275590549
20
-3.886706535433071
11
3.9216015354330707
21
-3.8867471653543304
0
LINE
8
BLACK
6
CONTINUOUS
10
3.9216015354330707
20
-3.8867471653543304
11
3.9210254724409448
21
-3.8868038976377952
0
LINE
8
BLACK
6
CONTINUOUS
10
3.9210254724409448
20
-3.8868038976377952
11
3.9135264173228346
21
-3.8868038976377952
0
LINE
8
BLACK
6
CONTINUOUS
10
3.9135264173228346
20
-3.8868038976377952
11
3.9129503543307087
21
-3.8867471653543304
0
LINE
8
BLACK
6
CONTINUOUS
10
3.9129503543307087
20
-3.8867471653543304
11
3.9128523622047244
21
-3.8867065748031497
0
LINE
8
BLACK
6
CONTINUOUS
10
3.9128523622047244
20
-3.8867065748031497
11
3.9127464960629919
21
-3.8866990551181102
0
LINE
8
BLACK
6
CONTINUOUS
10
3.9127464960629919
20
-3.8866990551181102
11
3.912205905511811
21
-3.8864921653543307
0
LINE
8
BLACK
6
CONTINUOUS
10
3.912205905511811
20
-3.8864921653543307
11
3.9084563779527559
21
-3.8846174015748032
0
LINE
8
BLACK
6
CONTINUOUS
10
3.9084563779527559
20
-3.8846174015748032
11
3.9082083464566928
21
-3.8844612992125982
0
LINE
8
BLACK
6
CONTINUOUS
10
3.9082083464566928
20
-3.8844612992125982
11
3.9081364173228343
21
-3.8844314960629922
0
LINE
8
BLACK
6
CONTINUOUS
10
3.9081364173228343
20
-3.8844314960629922
11
3.9080554330708659
21
-3.8843650393700786
0
LINE
8
BLACK
6
CONTINUOUS
10
3.9080554330708659
20
-3.8843650393700786
11
3.9079664960629921
21
-3.8843090551181101
0
LINE
8
BLACK
6
CONTINUOUS
10
3.9079664960629921
20
-3.8843090551181101
11
3.9079152755905513
21
-3.8842499999999998
0
LINE
8
BLACK
6
CONTINUOUS
10
3.9079152755905513
20
-3.8842499999999998
11
3.9076889370078738
21
-3.8840642519685038
0
LINE
8
BLACK
6
CONTINUOUS
10
3.9076889370078738
20
-3.8840642519685038
11
3.9058141732283462
21
-3.8821894488188975
0
LINE
8
BLACK
6
CONTINUOUS
10
3.9058141732283462
20
-3.8821894488188975
11
3.9056284251968503
21
-3.8819631102362204
0
LINE
8
BLACK
6
CONTINUOUS
10
3.9056284251968503
20
-3.8819631102362204
11
3.9055694488188974
21
-3.8819119685039367
0
LINE
8
BLACK
6
CONTINUOUS
10
3.9055694488188974
20
-3.8819119685039367
11
3.9055134645669289
21
-3.8818230314960629
0
LINE
8
BLACK
6
CONTINUOUS
10
3.9055134645669289
20
-3.8818230314960629
11
3.905446968503937
21
-3.8817420078740157
0
LINE
8
BLACK
6
CONTINUOUS
10
3.905446968503937
20
-3.8817420078740157
11
3.9054171259842518
21
-3.881669960629921
0
LINE
8
BLACK
6
CONTINUOUS
10
3.9054171259842518
20
-3.881669960629921
11
3.9052611023622048
21
-3.8814220866141733
0
LINE
8
BLACK
6
CONTINUOUS
10
3.9052611023622048
20
-3.8814220866141733
11
3.9033863385826773
21
-3.8776725590551182
0
LINE
8
BLACK
6
CONTINUOUS
10
3.9033863385826773
20
-3.8776725590551182
11
3.9031794488188973
21
-3.8771319291338582
0
LINE
8
BLACK
6
CONTINUOUS
10
3.9031794488188973
20
-3.8771319291338582
11
3.9031719291338582
21
-3.8770261023622048
0
LINE
8
BLACK
6
CONTINUOUS
10
3.9031719291338582
20
-3.8770261023622048
11
3.9031313385826771
21
-3.8769281102362205
0
LINE
8
BLACK
6
CONTINUOUS
10
3.9031313385826771
20
-3.8769281102362205
11
3.9030746062992123
21
-3.8763520472440942
0
LINE
8
BLACK
6
CONTINUOUS
10
3.9030746062992123
20
-3.8763520472440942
11
3.9030746062992123
21
-3.8444810629921258
0
LINE
8
BLACK
6
CONTINUOUS
10
3.9030746062992123
20
-3.8444810629921258
11
3.9031313385826771
21
-3.8439049999999999
0
LINE
8
BLACK
6
CONTINUOUS
10
3.9031313385826771
20
-3.8439049999999999
11
3.9035722440944882
21
-3.8428405905511811
0
LINE
8
BLACK
6
CONTINUOUS
10
3.9035722440944882
20
-3.8428405905511811
11
3.9043868897637792
21
-3.8420259448818896
0
LINE
8
BLACK
6
CONTINUOUS
10
3.9043868897637792
20
-3.8420259448818896
11
3.9054512992125985
21
-3.8415850393700786
0
LINE
8
BLACK
6
CONTINUOUS
10
3.9054512992125985
20
-3.8415850393700786
11
3.9066034251968502
21
-3.8415850393700786
0
LINE
8
BLACK
6
CONTINUOUS
10
3.9066034251968502
20
-3.8415850393700786
11
3.907667834645669
21
-3.8420259448818896
0
LINE
8
BLACK
6
CONTINUOUS
10
3.9569296850393698
20
-3.8415850393700786
11
3.957222086614173
21
-3.8415850393700786
0
LINE
8
BLACK
6
CONTINUOUS
10
3.957222086614173
20
-3.8415850393700786
11
3.9574893307086612
21
-3.8416957480314959
0
LINE
8
BLACK
6
CONTINUOUS
10
3.9574893307086612
20
-3.8416957480314959
11
3.9577731496062993
21
-3.8417518897637795
0
LINE
8
BLACK
6
CONTINUOUS
10
3.9577731496062993
20
-3.8417518897637795
11
3.9580164173228347
21
-3.8419140551181101
0
LINE
8
BLACK
6
CONTINUOUS
10
3.9580164173228347
20
-3.8419140551181101
11
3.9582864960629922
21
-3.8420259448818896
0
LINE
8
BLACK
6
CONTINUOUS
10
3.9582864960629922
20
-3.8420259448818896
11
3.9584909448818895
21
-3.8422303937007873
0
LINE
8
BLACK
6
CONTINUOUS
10
3.9584909448818895
20
-3.8422303937007873
11
3.9587317716535431
21
-3.8423909448818896
0
LINE
8
BLACK
6
CONTINUOUS
10
3.9587317716535431
20
-3.8423909448818896
11
3.9588944881889763
21
-3.8426339370078741
0
LINE
8
BLACK
6
CONTINUOUS
10
3.9588944881889763
20
-3.8426339370078741
11
3.9591011417322832
21
-3.8428405905511811
0
LINE
8
BLACK
6
CONTINUOUS
10
3.9591011417322832
20
-3.8428405905511811
11
3.9592118110236219
21
-3.8431077952755905
0
LINE
8
BLACK
6
CONTINUOUS
10
3.9592118110236219
20
-3.8431077952755905
11
3.9593728346456691
21
-3.8433482283464566
0
LINE
8
BLACK
6
CONTINUOUS
10
3.9593728346456691
20
-3.8433482283464566
11
3.9594301574803148
21
-3.8436348818897637
0
LINE
8
BLACK
6
CONTINUOUS
10
3.9594301574803148
20
-3.8436348818897637
11
3.9595420472440943
21
-3.8439049999999999
0
LINE
8
BLACK
6
CONTINUOUS
10
3.9595420472440943
20
-3.8439049999999999
11
3.9595981496062991
21
-3.8444749212598426
0
LINE
8
BLACK
6
CONTINUOUS
10
3.9595981496062991
20
-3.8444749212598426
11
3.9595987795275591
21
-3.8444779527559052
0
LINE
8
BLACK
6
CONTINUOUS
10
3.9595987795275591
20
-3.8444779527559052
11
3.9595985433070866
21
-3.8444789763779528
0
LINE
8
BLACK
6
CONTINUOUS
10
3.9595985433070866
20
-3.8444789763779528
11
3.9595987795275591
21
-3.8444810629921258
0
LINE
8
BLACK
6
CONTINUOUS
10
3.9595987795275591
20
-3.8444810629921258
11
3.9595987795275591
21
-3.8808983858267716
0
LINE
8
BLACK
6
CONTINUOUS
10
3.9595987795275591
20
-3.8808983858267716
11
3.9678946062992124
21
-3.8808983858267716
0
LINE
8
BLACK
6
CONTINUOUS
10
3.9678946062992124
20
-3.8808983858267716
11
3.9684706692913383
21
-3.880955118110236
0
LINE
8
BLACK
6
CONTINUOUS
10
3.9684706692913383
20
-3.880955118110236
11
3.9695350787401575
21
-3.8813960236220471
0
LINE
8
BLACK
6
CONTINUOUS
10
3.9695350787401575
20
-3.8813960236220471
11
3.9703497244094486
21
-3.8822106692913385
0
LINE
8
BLACK
6
CONTINUOUS
10
3.9703497244094486
20
-3.8822106692913385
11
3.9707906299212596
21
-3.8832750787401573
0
LINE
8
BLACK
6
CONTINUOUS
10
3.9707906299212596
20
-3.8832750787401573
11
3.9707906299212596
21
-3.8844272047244095
0
LINE
8
BLACK
6
CONTINUOUS
10
3.9707906299212596
20
-3.8844272047244095
11
3.9703497244094486
21
-3.8854916141732283
0
LINE
8
BLACK
6
CONTINUOUS
10
3.9703497244094486
20
-3.8854916141732283
11
3.9695350787401575
21
-3.8863062598425198
0
LINE
8
BLACK
6
CONTINUOUS
10
3.9695350787401575
20
-3.8863062598425198
11
3.9684706692913383
21
-3.8867471653543304
0
LINE
8
BLACK
6
CONTINUOUS
10
3.9684706692913383
20
-3.8867471653543304
11
3.9678946062992124
21
-3.8868038976377952
0
LINE
8
BLACK
6
CONTINUOUS
10
3.9678946062992124
20
-3.8868038976377952
11
3.9453974409448818
21
-3.8868038976377952
0
LINE
8
BLACK
6
CONTINUOUS
10
3.9453974409448818
20
-3.8868038976377952
11
3.9448213779527559
21
-3.8867471653543304
0
LINE
8
BLACK
6
CONTINUOUS
10
3.9448213779527559
20
-3.8867471653543304
11
3.9437569685039371
21
-3.8863062598425198
0
LINE
8
BLACK
6
CONTINUOUS
10
3.9437569685039371
20
-3.8863062598425198
11
3.9429423228346456
21
-3.8854916141732283
0
LINE
8
BLACK
6
CONTINUOUS
10
3.9429423228346456
20
-3.8854916141732283
11
3.9425014173228345
21
-3.8844272047244095
0
LINE
8
BLACK
6
CONTINUOUS
10
3.9425014173228345
20
-3.8844272047244095
11
3.9425014173228345
21
-3.8832750787401573
0
LINE
8
BLACK
6
CONTINUOUS
10
3.9425014173228345
20
-3.8832750787401573
11
3.9429423228346456
21
-3.8822106692913385
0
LINE
8
BLACK
6
CONTINUOUS
10
3.9429423228346456
20
-3.8822106692913385
11
3.9437569685039371
21
-3.8813960236220471
0
LINE
8
BLACK
6
CONTINUOUS
10
3.9437569685039371
20
-3.8813960236220471
11
3.9448213779527559
21
-3.880955118110236
0
LINE
8
BLACK
6
CONTINUOUS
10
3.9448213779527559
20
-3.880955118110236
11
3.9453974409448818
21
-3.8808983858267716
0
LINE
8
BLACK
6
CONTINUOUS
10
3.9453974409448818
20
-3.8808983858267716
11
3.9536932677165355
21
-3.8808983858267716
0
LINE
8
BLACK
6
CONTINUOUS
10
3.9536932677165355
20
-3.8808983858267716
11
3.9536932677165355
21
-3.8534844094488188
0
LINE
8
BLACK
6
CONTINUOUS
10
3.9536932677165355
20
-3.8534844094488188
11
3.9512348818897638
21
-3.8559427952755905
0
LINE
8
BLACK
6
CONTINUOUS
10
3.9512348818897638
20
-3.8559427952755905
11
3.951008503937008
21
-3.8561285433070864
0
LINE
8
BLACK
6
CONTINUOUS
10
3.951008503937008
20
-3.8561285433070864
11
3.9509573622047243
21
-3.856187559055118
0
LINE
8
BLACK
6
CONTINUOUS
10
3.9509573622047243
20
-3.856187559055118
11
3.9508683858267717
21
-3.8562435039370078
0
LINE
8
BLACK
6
CONTINUOUS
10
3.9508683858267717
20
-3.8562435039370078
11
3.950787440944882
21
-3.8563100000000001
0
LINE
8
BLACK
6
CONTINUOUS
10
3.950787440944882
20
-3.8563100000000001
11
3.9507154724409448
21
-3.8563398031496061
0
LINE
8
BLACK
6
CONTINUOUS
10
3.9507154724409448
20
-3.8563398031496061
11
3.9504674803149604
21
-3.8564959055118111
0
LINE
8
BLACK
6
CONTINUOUS
10
3.9504674803149604
20
-3.8564959055118111
11
3.9467179527559053
21
-3.8583706692913387
0
LINE
8
BLACK
6
CONTINUOUS
10
3.9467179527559053
20
-3.8583706692913387
11
3.9461773228346457
21
-3.8585775590551181
0
LINE
8
BLACK
6
CONTINUOUS
10
3.9461773228346457
20
-3.8585775590551181
11
3.9450281102362204
21
-3.8586592125984249
0
LINE
8
BLACK
6
CONTINUOUS
10
3.9450281102362204
20
-3.8586592125984249
11
3.9439351574803148
21
-3.8582948818897638
0
LINE
8
BLACK
6
CONTINUOUS
10
3.9439351574803148
20
-3.8582948818897638
11
3.9430647637795273
21
-3.8575400393700785
0
LINE
8
BLACK
6
CONTINUOUS
10
3.9430647637795273
20
-3.8575400393700785
11
3.9425495275590552
21
-3.8565095275590551
0
LINE
8
BLACK
6
CONTINUOUS
10
3.9425495275590552
20
-3.8565095275590551
11
3.9424678740157479
21
-3.8553603149606297
0
LINE
8
BLACK
6
CONTINUOUS
10
3.9424678740157479
20
-3.8553603149606297
11
3.9428322047244095
21
-3.8542673622047241
0
LINE
8
BLACK
6
CONTINUOUS
10
3.9428322047244095
20
-3.8542673622047241
11
3.9435870472440944
21
-3.8533969685039371
0
LINE
8
BLACK
6
CONTINUOUS
10
3.9435870472440944
20
-3.8533969685039371
11
3.9440769291338582
21
-3.853088622047244
0
LINE
8
BLACK
6
CONTINUOUS
10
3.9440769291338582
20
-3.853088622047244
11
3.9473978740157478
21
-3.8514281496062992
0
LINE
8
BLACK
6
CONTINUOUS
10
3.9473978740157478
20
-3.8514281496062992
11
3.9506017716535431
21
-3.8482242519685039
0
LINE
8
BLACK
6
CONTINUOUS
10
3.9506017716535431
20
-3.8482242519685039
11
3.9541891732283463
21
-3.8428431496062991
0
LINE
8
BLACK
6
CONTINUOUS
10
3.9541891732283463
20
-3.8428431496062991
11
3.9541905118110234
21
-3.8428414566929132
0
LINE
8
BLACK
6
CONTINUOUS
10
3.9541905118110234
20
-3.8428414566929132
11
3.954190905511811
21
-3.8428405905511811
0
LINE
8
BLACK
6
CONTINUOUS
10
3.954190905511811
20
-3.8428405905511811
11
3.9541929133858269
21
-3.8428385433070864
0
LINE
8
BLACK
6
CONTINUOUS
10
3.9541929133858269
20
-3.8428385433070864
11
3.9545559448818897
21
-3.8423953149606298
0
LINE
8
BLACK
6
CONTINUOUS
10
3.9545559448818897
20
-3.8423953149606298
11
3.9547988188976375
21
-3.8422326377952754
0
LINE
8
BLACK
6
CONTINUOUS
10
3.9547988188976375
20
-3.8422326377952754
11
3.9550055511811024
21
-3.8420259448818896
0
LINE
8
BLACK
6
CONTINUOUS
10
3.9550055511811024
20
-3.8420259448818896
11
3.9552728346456694
21
-3.8419151968503935
0
LINE
8
BLACK
6
CONTINUOUS
10
3.9552728346456694
20
-3.8419151968503935
11
3.9555132283464567
21
-3.8417542519685037
0
LINE
8
BLACK
6
CONTINUOUS
10
3.9555132283464567
20
-3.8417542519685037
11
3.955799842519685
21
-3.8416968897637793
0
LINE
8
BLACK
6
CONTINUOUS
10
3.955799842519685
20
-3.8416968897637793
11
3.9560699606299212
21
-3.8415850393700786
0
LINE
8
BLACK
6
CONTINUOUS
10
3.9560699606299212
20
-3.8415850393700786
11
3.9563592519685038
21
-3.8415850393700786
0
LINE
8
BLACK
6
CONTINUOUS
10
3.9563592519685038
20
-3.8415850393700786
11
3.9566429133858265
21
-3.8415283070866142
0
LINE
8
BLACK
6
CONTINUOUS
10
3.9566429133858265
20
-3.8415283070866142
11
3.9569296850393698
21
-3.8415850393700786
0
LINE
8
BLACK
6
CONTINUOUS
10
3.8418277952755906
20
-3.8252981889763777
11
3.8425196850393699
21
-3.8269685039370076
0
LINE
8
BLACK
6
CONTINUOUS
10
3.8425196850393699
20
-3.8269685039370076
11
3.8420678740157479
21
-3.8283578740157478
0
LINE
8
BLACK
6
CONTINUOUS
10
3.8420678740157479
20
-3.8283578740157478
11
3.8326190551181103
21
-3.8413499999999998
0
LINE
8
BLACK
6
CONTINUOUS
10
3.8326190551181103
20
-3.8413499999999998
11
3.8310770866141732
21
-3.8422939370078741
0
LINE
8
BLACK
6
CONTINUOUS
10
3.8310770866141732
20
-3.8422939370078741
11
3.8293192913385825
21
-3.8418710236220472
0
LINE
8
BLACK
6
CONTINUOUS
10
3.8293192913385825
20
-3.8418710236220472
11
3.8287982677165355
21
-3.8413499999999998
0
LINE
8
BLACK
6
CONTINUOUS
10
3.8287982677165355
20
-3.8413499999999998
11
3.8193494488188975
21
-3.8283578740157478
0
LINE
8
BLACK
6
CONTINUOUS
10
3.8193494488188975
20
-3.8283578740157478
11
3.8189265354330706
21
-3.8266000787401575
0
LINE
8
BLACK
6
CONTINUOUS
10
3.8189265354330706
20
-3.8266000787401575
11
3.8198704724409449
21
-3.8250581102362204
0
LINE
8
BLACK
6
CONTINUOUS
10
3.8198704724409449
20
-3.8250581102362204
11
3.8212598425196851
21
-3.8246062992125984
0
LINE
8
BLACK
6
CONTINUOUS
10
3.8212598425196851
20
-3.8246062992125984
11
3.8401574803149607
21
-3.8246062992125984
0
LINE
8
BLACK
6
CONTINUOUS
10
3.8401574803149607
20
-3.8246062992125984
11
3.8418277952755906
21
-3.8252981889763777
0
LINE
8
BLACK
6
CONTINUOUS
10
3.9370078740157481
20
-3.8338582677165354
11
4.0137795275590546
21
-3.8338582677165354
0
LINE
8
BLACK
6
CONTINUOUS
10
4.0137795275590546
20
-3.8338582677165354
11
4.0146835039370075
21
-3.8340380708661415
0
LINE
8
BLACK
6
CONTINUOUS
10
4.0146835039370075
20
-3.8340380708661415
11
4.0159619291338577
21
-3.8353164960629922
0
LINE
8
BLACK
6
CONTINUOUS
10
4.0159619291338577
20
-3.8353164960629922
11
4.0159619291338577
21
-3.8371244488188974
0
LINE
8
BLACK
6
CONTINUOUS
10
4.0159619291338577
20
-3.8371244488188974
11
4.0146835039370075
21
-3.8384028740157481
0
LINE
8
BLACK
6
CONTINUOUS
10
4.0146835039370075
20
-3.8384028740157481
11
4.0137795275590546
21
-3.8385826771653542
0
LINE
8
BLACK
6
CONTINUOUS
10
4.0137795275590546
20
-3.8385826771653542
11
3.9370078740157481
21
-3.8385826771653542
0
LINE
8
BLACK
6
CONTINUOUS
10
3.9370078740157481
20
-3.8385826771653542
11
3.8602362204724407
21
-3.8385826771653542
0
LINE
8
BLACK
6
CONTINUOUS
10
3.8602362204724407
20
-3.8385826771653542
11
3.8593322440944879
21
-3.8384028740157481
0
LINE
8
BLACK
6
CONTINUOUS
10
3.8593322440944879
20
-3.8384028740157481
11
3.8580538188976377
21
-3.8371244488188974
0
LINE
8
BLACK
6
CONTINUOUS
10
3.8580538188976377
20
-3.8371244488188974
11
3.8580538188976377
21
-3.8353164960629922
0
LINE
8
BLACK
6
CONTINUOUS
10
3.8580538188976377
20
-3.8353164960629922
11
3.8593322440944879
21
-3.8340380708661415
0
LINE
8
BLACK
6
CONTINUOUS
10
3.8593322440944879
20
-3.8340380708661415
11
3.8602362204724407
21
-3.8338582677165354
0
LINE
8
BLACK
6
CONTINUOUS
10
3.8602362204724407
20
-3.8338582677165354
11
3.9370078740157481
21
-3.8338582677165354
  0
ENDSEC
  0
EOF
