  0
SECTION
  2
HEADER
  9
$ANGBASE
  50
0.0
  9
$ANGDIR
  70
1
  9
$MEASUREMENT
  70
0
  0
ENDSEC
  0
SECTION
  2
TABLES
  0
TABLE
  2
LTYPE
  70
4
  0
LTYPE
  5
40F
  2
CONTINUOUS
  70
0
  3
Solid line
  72
65
  73
0
  40
0.0
  0
LTYPE
  5
410
  2
DASHDOT
 70
0
  3
Dash Dot ____ _ ____ _
 72
65
 73
4
 40
2.0
 49
1.25
 49
-0.25
 49
0.25
 49
-0.25
  0
LTYPE
  5
411
  2
DASHED
 70
0
  3
Dashed __ __ __ __ __
 72
65
 73
2
 40
0.75
 49
0.5
 49
-0.25
  0
LTYPE
  5
43B
  2
DOTTED
 70
0
  3
Dotted .  .  .  .
 72
65
 73
2
 40
0.2
 49
0.0
 49
-0.2
  0
ENDTAB
  0
TABLE
  2
STYLE
  70
4
  0
STYLE
  2
KICAD
  70
0
  40
0
  41
1
  42
1
  50
0
  71
0
  3
isocp.shx
  0
STYLE
  2
KICADB
  70
0
  40
0
  41
1
  42
1
  50
0
  71
0
  3
isocp.shx
  0
STYLE
  2
KICADI
  70
0
  40
0
  41
1
  42
1
  50
15
  71
0
  3
isocp.shx
  0
STYLE
  2
KICADBI
  70
0
  40
0
  41
1
  42
1
  50
15
  71
0
  3
isocp.shx
  0
ENDTAB
  0
TABLE
  2
LAYER
  70
1
  0
LAYER
  2
BLACK
  70
0
  62
7
  6
CONTINUOUS
  0
ENDTAB
  0
ENDSEC
  0
SECTION
  2
ENTITIES
0
LINE
8
BLACK
6
CONTINUOUS
10
4.2654739763779528
20
-3.7682946850393702
11
4.2672753543307085
21
-3.7703735826771654
0
LINE
8
BLACK
6
CONTINUOUS
10
4.2672753543307085
20
-3.7703735826771654
11
4.2677165354330704
21
-3.7724015748031494
0
LINE
8
BLACK
6
CONTINUOUS
10
4.2677165354330704
20
-3.7724015748031494
11
4.2677165354330704
21
-4.2981020472440941
0
LINE
8
BLACK
6
CONTINUOUS
10
4.2677165354330704
20
-4.2981020472440941
11
4.2669415354330704
21
-4.3007413779527557
0
LINE
8
BLACK
6
CONTINUOUS
10
4.2669415354330704
20
-4.3007413779527557
11
4.2648626377952752
21
-4.3025427559055114
0
LINE
8
BLACK
6
CONTINUOUS
10
4.2648626377952752
20
-4.3025427559055114
11
4.2628659448818897
21
-4.3029838188976379
0
LINE
8
BLACK
6
CONTINUOUS
10
4.2628659448818897
20
-4.3029838188976379
11
4.0757398425196847
21
-4.3041833464566928
0
LINE
8
BLACK
6
CONTINUOUS
10
4.0757398425196847
20
-4.3041833464566928
11
4.0730955905511808
21
-4.3034253149606299
0
LINE
8
BLACK
6
CONTINUOUS
10
4.0730955905511808
20
-4.3034253149606299
11
4.0712809055118111
21
-4.3013579921259844
0
LINE
8
BLACK
6
CONTINUOUS
10
4.0712809055118111
20
-4.3013579921259844
11
4.0708720078740157
21
-4.2986377952755905
0
LINE
8
BLACK
6
CONTINUOUS
10
4.0708720078740157
20
-4.2986377952755905
11
4.0719986220472437
21
-4.2961283464566931
0
LINE
8
BLACK
6
CONTINUOUS
10
4.0719986220472437
20
-4.2961283464566931
11
4.0722555511811018
21
-4.2958505511811023
0
LINE
8
BLACK
6
CONTINUOUS
10
4.0722555511811018
20
-4.2958505511811023
11
4.0778935039370081
21
-4.2902126377952756
0
LINE
8
BLACK
6
CONTINUOUS
10
4.0778935039370081
20
-4.2902126377952756
11
4.0832297244094491
21
-4.2825917322834641
0
LINE
8
BLACK
6
CONTINUOUS
10
4.0832297244094491
20
-4.2825917322834641
11
4.0871615354330704
21
-4.2741599606299214
0
LINE
8
BLACK
6
CONTINUOUS
10
4.0871615354330704
20
-4.2741599606299214
11
4.0895694094488189
21
-4.2651735433070863
0
LINE
8
BLACK
6
CONTINUOUS
10
4.0895694094488189
20
-4.2651735433070863
11
4.090380275590551
21
-4.2559055118110232
0
LINE
8
BLACK
6
CONTINUOUS
10
4.090380275590551
20
-4.2559055118110232
11
4.0895694094488189
21
-4.2466374803149609
0
LINE
8
BLACK
6
CONTINUOUS
10
4.0895694094488189
20
-4.2466374803149609
11
4.0882153937007875
21
-4.2415842125984247
0
LINE
8
BLACK
6
CONTINUOUS
10
4.0882153937007875
20
-4.2415842125984247
11
4.0882808661417318
21
-4.2388343700787399
0
LINE
8
BLACK
6
CONTINUOUS
10
4.0882808661417318
20
-4.2388343700787399
11
4.0894788582677162
21
-4.2368688976377955
0
LINE
8
BLACK
6
CONTINUOUS
10
4.0894788582677162
20
-4.2368688976377955
11
4.1035433070866141
21
-4.2228044881889764
0
LINE
8
BLACK
6
CONTINUOUS
10
4.1035433070866141
20
-4.2228044881889764
11
4.1035433070866141
21
-4.2224409448818898
0
LINE
8
BLACK
6
CONTINUOUS
10
4.1035433070866141
20
-4.2224409448818898
11
4.1039068897637794
21
-4.2224409448818898
0
LINE
8
BLACK
6
CONTINUOUS
10
4.1039068897637794
20
-4.2224409448818898
11
4.1126188976377955
21
-4.2137289763779524
0
LINE
8
BLACK
6
CONTINUOUS
10
4.1126188976377955
20
-4.2137289763779524
11
4.1157313779527556
21
-4.2083379527559055
0
LINE
8
BLACK
6
CONTINUOUS
10
4.1157313779527556
20
-4.2083379527559055
11
4.1173425590551176
21
-4.2023250787401576
0
LINE
8
BLACK
6
CONTINUOUS
10
4.1173425590551176
20
-4.2023250787401576
11
4.1173425590551176
21
-4.196100078740157
0
LINE
8
BLACK
6
CONTINUOUS
10
4.1173425590551176
20
-4.196100078740157
11
4.1173425590551176
21
-4.1958010629921256
0
LINE
8
BLACK
6
CONTINUOUS
10
4.1173425590551176
20
-4.1958010629921256
11
4.1173425196850388
21
-4.195800354330709
0
LINE
8
BLACK
6
CONTINUOUS
10
4.1173425196850388
20
-4.195800354330709
11
4.1173425196850388
21
-4.0134164173228344
0
LINE
8
BLACK
6
CONTINUOUS
10
4.1173425196850388
20
-4.0134164173228344
11
4.1181175196850397
21
-4.0107770866141728
0
LINE
8
BLACK
6
CONTINUOUS
10
4.1181175196850397
20
-4.0107770866141728
11
4.1197833858267714
21
-4.0091886220472439
0
LINE
8
BLACK
6
CONTINUOUS
10
4.1197833858267714
20
-4.0091886220472439
11
4.1247525984251965
21
-4.0063196850393696
0
LINE
8
BLACK
6
CONTINUOUS
10
4.1247525984251965
20
-4.0063196850393696
11
4.1291543307086611
21
-4.001917952755905
0
LINE
8
BLACK
6
CONTINUOUS
10
4.1291543307086611
20
-4.001917952755905
11
4.132266811023622
21
-3.9965269685039368
0
LINE
8
BLACK
6
CONTINUOUS
10
4.132266811023622
20
-3.9965269685039368
11
4.1338779921259841
21
-3.9905140944881889
0
LINE
8
BLACK
6
CONTINUOUS
10
4.1338779921259841
20
-3.9905140944881889
11
4.1338779921259841
21
-3.9842890944881888
0
LINE
8
BLACK
6
CONTINUOUS
10
4.1338779921259841
20
-3.9842890944881888
11
4.132266811023622
21
-3.9782762204724409
0
LINE
8
BLACK
6
CONTINUOUS
10
4.132266811023622
20
-3.9782762204724409
11
4.1310568110236217
21
-3.9761804330708661
0
LINE
8
BLACK
6
CONTINUOUS
10
4.1310568110236217
20
-3.9761804330708661
11
4.1291544881889761
21
-3.9728854330708661
0
LINE
8
BLACK
6
CONTINUOUS
10
4.1291544881889761
20
-3.9728854330708661
11
4.1291543700787399
21
-3.972885275590551
0
LINE
8
BLACK
6
CONTINUOUS
10
4.1291543700787399
20
-3.972885275590551
11
4.1291543307086611
21
-3.9728851968503935
0
LINE
8
BLACK
6
CONTINUOUS
10
4.1291543307086611
20
-3.9728851968503935
11
4.1265464566929131
21
-3.9702773228346455
0
LINE
8
BLACK
6
CONTINUOUS
10
4.1265464566929131
20
-3.9702773228346455
11
4.1238464566929132
21
-3.9675773228346456
0
LINE
8
BLACK
6
CONTINUOUS
10
4.1238464566929132
20
-3.9675773228346456
11
4.1225281496062989
21
-3.9651630314960631
0
LINE
8
BLACK
6
CONTINUOUS
10
4.1225281496062989
20
-3.9651630314960631
11
4.1224473228346454
21
-3.964672559055118
0
LINE
8
BLACK
6
CONTINUOUS
10
4.1224473228346454
20
-3.964672559055118
11
4.1220617322834645
21
-3.9612498031496064
0
LINE
8
BLACK
6
CONTINUOUS
10
4.1220617322834645
20
-3.9612498031496064
11
4.1197161023622044
21
-3.9545463779527559
0
LINE
8
BLACK
6
CONTINUOUS
10
4.1197161023622044
20
-3.9545463779527559
11
4.1159376377952759
21
-3.9485329921259842
0
LINE
8
BLACK
6
CONTINUOUS
10
4.1159376377952759
20
-3.9485329921259842
11
4.1133698818897635
21
-3.9459652362204722
0
LINE
8
BLACK
6
CONTINUOUS
10
4.1133698818897635
20
-3.9459652362204722
11
4.1120515748031492
21
-3.9435509448818897
0
LINE
8
BLACK
6
CONTINUOUS
10
4.1120515748031492
20
-3.9435509448818897
11
4.1122477952755903
21
-3.9408071653543306
0
LINE
8
BLACK
6
CONTINUOUS
10
4.1122477952755903
20
-3.9408071653543306
11
4.1138962992125983
21
-3.9386050787401574
0
LINE
8
BLACK
6
CONTINUOUS
10
4.1138962992125983
20
-3.9386050787401574
11
4.1142246850393702
21
-3.9383795669291337
0
LINE
8
BLACK
6
CONTINUOUS
10
4.1142246850393702
20
-3.9383795669291337
11
4.114852834645669
21
-3.9379848818897636
0
LINE
8
BLACK
6
CONTINUOUS
10
4.114852834645669
20
-3.9379848818897636
11
4.1198746456692916
21
-3.9329630708661418
0
LINE
8
BLACK
6
CONTINUOUS
10
4.1198746456692916
20
-3.9329630708661418
11
4.1236531102362202
21
-3.9269496850393701
0
LINE
8
BLACK
6
CONTINUOUS
10
4.1236531102362202
20
-3.9269496850393701
11
4.1259987401574802
21
-3.9202462598425196
0
LINE
8
BLACK
6
CONTINUOUS
10
4.1259987401574802
20
-3.9202462598425196
11
4.1261042125984249
21
-3.9193101574803149
0
LINE
8
BLACK
6
CONTINUOUS
10
4.1261042125984249
20
-3.9193101574803149
11
4.1267938976377954
21
-3.9131890944881889
0
LINE
8
BLACK
6
CONTINUOUS
10
4.1267938976377954
20
-3.9131890944881889
11
4.1267938976377954
21
-3.9131888188976376
0
LINE
8
BLACK
6
CONTINUOUS
10
4.1267938976377954
20
-3.9131888188976376
11
4.125998779527559
21
-3.9061318897637793
0
LINE
8
BLACK
6
CONTINUOUS
10
4.125998779527559
20
-3.9061318897637793
11
4.1259987401574802
21
-3.9061316929133856
0
LINE
8
BLACK
6
CONTINUOUS
10
4.1259987401574802
20
-3.9061316929133856
11
4.1245743307086613
21
-3.9020609448818897
0
LINE
8
BLACK
6
CONTINUOUS
10
4.1245743307086613
20
-3.9020609448818897
11
4.1236531102362202
21
-3.8994282677165355
0
LINE
8
BLACK
6
CONTINUOUS
10
4.1236531102362202
20
-3.8994282677165355
11
4.1234259055118105
21
-3.8990666929133857
0
LINE
8
BLACK
6
CONTINUOUS
10
4.1234259055118105
20
-3.8990666929133857
11
4.1214050000000002
21
-3.8958504330708661
0
LINE
8
BLACK
6
CONTINUOUS
10
4.1214050000000002
20
-3.8958504330708661
11
4.1198746456692916
21
-3.8934148818897638
0
LINE
8
BLACK
6
CONTINUOUS
10
4.1198746456692916
20
-3.8934148818897638
11
4.114852834645669
21
-3.8883930708661416
0
LINE
8
BLACK
6
CONTINUOUS
10
4.114852834645669
20
-3.8883930708661416
11
4.108839488188976
21
-3.8846146062992126
0
LINE
8
BLACK
6
CONTINUOUS
10
4.108839488188976
20
-3.8846146062992126
11
4.1021359842519685
21
-3.8822689370078738
0
LINE
8
BLACK
6
CONTINUOUS
10
4.1021359842519685
20
-3.8822689370078738
11
4.1021358267716534
21
-3.882268897637795
0
LINE
8
BLACK
6
CONTINUOUS
10
4.1021358267716534
20
-3.882268897637795
11
4.0955884645669292
21
-3.881531220472441
0
LINE
8
BLACK
6
CONTINUOUS
10
4.0955884645669292
20
-3.881531220472441
11
4.0930524803149604
21
-3.8804655905511809
0
LINE
8
BLACK
6
CONTINUOUS
10
4.0930524803149604
20
-3.8804655905511809
11
4.0914951968503939
21
-3.8781981102362204
0
LINE
8
BLACK
6
CONTINUOUS
10
4.0914951968503939
20
-3.8781981102362204
11
4.0914110629921261
21
-3.8754486220472439
0
LINE
8
BLACK
6
CONTINUOUS
10
4.0914110629921261
20
-3.8754486220472439
11
4.0914470472440945
21
-3.8753179921259844
0
LINE
8
BLACK
6
CONTINUOUS
10
4.0914470472440945
20
-3.8753179921259844
11
4.0924251181102358
21
-3.8719515354330709
0
LINE
8
BLACK
6
CONTINUOUS
10
4.0924251181102358
20
-3.8719515354330709
11
4.0925393700787405
21
-3.8704997637795273
0
LINE
8
BLACK
6
CONTINUOUS
10
4.0925393700787405
20
-3.8704997637795273
11
4.0925393700787405
21
-3.8535159842519686
0
LINE
8
BLACK
6
CONTINUOUS
10
4.0925393700787405
20
-3.8535159842519686
11
4.0924251181102358
21
-3.852064212598425
0
LINE
8
BLACK
6
CONTINUOUS
10
4.0924251181102358
20
-3.852064212598425
11
4.0906198425196854
21
-3.8458504724409446
0
LINE
8
BLACK
6
CONTINUOUS
10
4.0906198425196854
20
-3.8458504724409446
11
4.0873260236220474
21
-3.8402809055118108
0
LINE
8
BLACK
6
CONTINUOUS
10
4.0873260236220474
20
-3.8402809055118108
11
4.0873259448818899
21
-3.8402808267716533
0
LINE
8
BLACK
6
CONTINUOUS
10
4.0873259448818899
20
-3.8402808267716533
11
4.0873258267716537
21
-3.8402806692913387
0
LINE
8
BLACK
6
CONTINUOUS
10
4.0873258267716537
20
-3.8402806692913387
11
4.0827507874015749
21
-3.83570562992126
0
LINE
8
BLACK
6
CONTINUOUS
10
4.0827507874015749
20
-3.83570562992126
11
4.0827504724409449
21
-3.8357053937007874
0
LINE
8
BLACK
6
CONTINUOUS
10
4.0827504724409449
20
-3.8357053937007874
11
4.0771809448818894
21
-3.8324116141732283
0
LINE
8
BLACK
6
CONTINUOUS
10
4.0771809448818894
20
-3.8324116141732283
11
4.0771808267716532
21
-3.8324115748031495
0
LINE
8
BLACK
6
CONTINUOUS
10
4.0771808267716532
20
-3.8324115748031495
11
4.0709674409448819
21
-3.8306063779527557
0
LINE
8
BLACK
6
CONTINUOUS
10
4.0709674409448819
20
-3.8306063779527557
11
4.0709672047244094
21
-3.830606338582677
0
LINE
8
BLACK
6
CONTINUOUS
10
4.0709672047244094
20
-3.830606338582677
11
4.069515787401575
21
-3.8304921259842519
0
LINE
8
BLACK
6
CONTINUOUS
10
4.069515787401575
20
-3.8304921259842519
11
4.0695155118110238
21
-3.8304921259842519
0
LINE
8
BLACK
6
CONTINUOUS
10
4.0695155118110238
20
-3.8304921259842519
11
4.0072561417322836
21
-3.8304921259842519
0
LINE
8
BLACK
6
CONTINUOUS
10
4.0072561417322836
20
-3.8304921259842519
11
4.0072558267716536
21
-3.8304921259842519
0
LINE
8
BLACK
6
CONTINUOUS
10
4.0072558267716536
20
-3.8304921259842519
11
4.0058044094488192
21
-3.830606338582677
0
LINE
8
BLACK
6
CONTINUOUS
10
4.0058044094488192
20
-3.830606338582677
11
4.0058041732283467
21
-3.8306063779527557
0
LINE
8
BLACK
6
CONTINUOUS
10
4.0058041732283467
20
-3.8306063779527557
11
3.9995907874015746
21
-3.8324115748031495
0
LINE
8
BLACK
6
CONTINUOUS
10
3.9995907874015746
20
-3.8324115748031495
11
3.9995906692913383
21
-3.8324116141732283
0
LINE
8
BLACK
6
CONTINUOUS
10
3.9995906692913383
20
-3.8324116141732283
11
3.9940211417322833
21
-3.8357053937007874
0
LINE
8
BLACK
6
CONTINUOUS
10
3.9940211417322833
20
-3.8357053937007874
11
3.9940208267716533
21
-3.83570562992126
0
LINE
8
BLACK
6
CONTINUOUS
10
3.9940208267716533
20
-3.83570562992126
11
3.9894457874015745
21
-3.8402806692913387
0
LINE
8
BLACK
6
CONTINUOUS
10
3.9894457874015745
20
-3.8402806692913387
11
3.9894455118110237
21
-3.840281023622047
0
LINE
8
BLACK
6
CONTINUOUS
10
3.9894455118110237
20
-3.840281023622047
11
3.9861516929133858
21
-3.8458505905511808
0
LINE
8
BLACK
6
CONTINUOUS
10
3.9861516929133858
20
-3.8458505905511808
11
3.9861337795275591
21
-3.8458920472440945
0
LINE
8
BLACK
6
CONTINUOUS
10
3.9861337795275591
20
-3.8458920472440945
11
3.9860831102362204
21
-3.8459665748031497
0
LINE
8
BLACK
6
CONTINUOUS
10
3.9860831102362204
20
-3.8459665748031497
11
3.985995472440945
21
-3.8461148031496064
0
LINE
8
BLACK
6
CONTINUOUS
10
3.985995472440945
20
-3.8461148031496064
11
3.9859861417322833
21
-3.8461092913385824
0
LINE
8
BLACK
6
CONTINUOUS
10
3.9859861417322833
20
-3.8461092913385824
11
3.9851063779527558
21
-3.8474040157480314
0
LINE
8
BLACK
6
CONTINUOUS
10
3.9851063779527558
20
-3.8474040157480314
11
3.9850197244094487
21
-3.8474907086614172
0
LINE
8
BLACK
6
CONTINUOUS
10
3.9850197244094487
20
-3.8474907086614172
11
3.9850189370078741
21
-3.8474914960629922
0
LINE
8
BLACK
6
CONTINUOUS
10
3.9850189370078741
20
-3.8474914960629922
11
3.9732079133858265
21
-3.8593024803149607
0
LINE
8
BLACK
6
CONTINUOUS
10
3.9732079133858265
20
-3.8593024803149607
11
3.9732078346456694
21
-3.859302598425197
0
LINE
8
BLACK
6
CONTINUOUS
10
3.9732078346456694
20
-3.859302598425197
11
3.97123468503937
21
-3.8627202755905512
0
LINE
8
BLACK
6
CONTINUOUS
10
3.97123468503937
20
-3.8627202755905512
11
3.9712346062992125
21
-3.8627203543307087
0
LINE
8
BLACK
6
CONTINUOUS
10
3.9712346062992125
20
-3.8627203543307087
11
3.9700954724409447
21
-3.8646933070866143
0
LINE
8
BLACK
6
CONTINUOUS
10
3.9700954724409447
20
-3.8646933070866143
11
3.970095433070866
21
-3.864693346456693
0
LINE
8
BLACK
6
CONTINUOUS
10
3.970095433070866
20
-3.864693346456693
11
3.9700953937007872
21
-3.8646935433070864
0
LINE
8
BLACK
6
CONTINUOUS
10
3.9700953937007872
20
-3.8646935433070864
11
3.9684842125984252
21
-3.8707064566929135
0
LINE
8
BLACK
6
CONTINUOUS
10
3.9684842125984252
20
-3.8707064566929135
11
3.9684842125984252
21
-3.870706535433071
0
LINE
8
BLACK
6
CONTINUOUS
10
3.9684842125984252
20
-3.870706535433071
11
3.9684842125984252
21
-3.8773246850393699
0
LINE
8
BLACK
6
CONTINUOUS
10
3.9684842125984252
20
-3.8773246850393699
11
3.968484251968504
21
-3.8773251968503937
0
LINE
8
BLACK
6
CONTINUOUS
10
3.968484251968504
20
-3.8773251968503937
11
3.968484251968504
21
-3.9145143307086614
0
LINE
8
BLACK
6
CONTINUOUS
10
3.968484251968504
20
-3.9145143307086614
11
3.967709251968504
21
-3.9171536614173226
0
LINE
8
BLACK
6
CONTINUOUS
10
3.967709251968504
20
-3.9171536614173226
11
3.9670543700787402
21
-3.9179663385826773
0
LINE
8
BLACK
6
CONTINUOUS
10
3.9670543700787402
20
-3.9179663385826773
11
3.9147433464566928
21
-3.9702773228346455
0
LINE
8
BLACK
6
CONTINUOUS
10
3.9147433464566928
20
-3.9702773228346455
11
3.9147432677165352
21
-3.970277401574803
0
LINE
8
BLACK
6
CONTINUOUS
10
3.9147432677165352
20
-3.970277401574803
11
3.913776811023622
21
-3.9719514566929135
0
LINE
8
BLACK
6
CONTINUOUS
10
3.913776811023622
20
-3.9719514566929135
11
3.9132377165354328
21
-3.9728851968503935
0
LINE
8
BLACK
6
CONTINUOUS
10
3.9132377165354328
20
-3.9728851968503935
11
3.9116308267716535
21
-3.9756683858267716
0
LINE
8
BLACK
6
CONTINUOUS
10
3.9116308267716535
20
-3.9756683858267716
11
3.9100196456692911
21
-3.9816812992125983
0
LINE
8
BLACK
6
CONTINUOUS
10
3.9100196456692911
20
-3.9816812992125983
11
3.9100196456692911
21
-3.9816813779527558
0
LINE
8
BLACK
6
CONTINUOUS
10
3.9100196456692911
20
-3.9816813779527558
11
3.9100196456692911
21
-3.9882995275590551
0
LINE
8
BLACK
6
CONTINUOUS
10
3.9100196456692911
20
-3.9882995275590551
11
3.9100196850393698
21
-3.9883000393700785
0
LINE
8
BLACK
6
CONTINUOUS
10
3.9100196850393698
20
-3.9883000393700785
11
3.9100196850393698
21
-4.0345935826771653
0
LINE
8
BLACK
6
CONTINUOUS
10
3.9100196850393698
20
-4.0345935826771653
11
3.9092446850393698
21
-4.0372329133858269
0
LINE
8
BLACK
6
CONTINUOUS
10
3.9092446850393698
20
-4.0372329133858269
11
3.9071657874015746
21
-4.0390342913385826
0
LINE
8
BLACK
6
CONTINUOUS
10
3.9071657874015746
20
-4.0390342913385826
11
3.9056844094488188
21
-4.0394447637795272
0
LINE
8
BLACK
6
CONTINUOUS
10
3.9056844094488188
20
-4.0394447637795272
11
3.9029822834645667
21
-4.0397492125984247
0
LINE
8
BLACK
6
CONTINUOUS
10
3.9029822834645667
20
-4.0397492125984247
11
3.8962786220472441
21
-4.0420949212598423
0
LINE
8
BLACK
6
CONTINUOUS
10
3.8962786220472441
20
-4.0420949212598423
11
3.8949282283464566
21
-4.0429434251968503
0
LINE
8
BLACK
6
CONTINUOUS
10
3.8949282283464566
20
-4.0429434251968503
11
3.8922811023622046
21
-4.0436914173228349
0
LINE
8
BLACK
6
CONTINUOUS
10
3.8922811023622046
20
-4.0436914173228349
11
3.8918891732283463
21
-4.0436716141732285
0
LINE
8
BLACK
6
CONTINUOUS
10
3.8918891732283463
20
-4.0436716141732285
11
3.8914951181102362
21
-4.0436357874015751
0
LINE
8
BLACK
6
CONTINUOUS
10
3.8914951181102362
20
-4.0436357874015751
11
3.8898274015748031
21
-4.0434842519685041
0
LINE
8
BLACK
6
CONTINUOUS
10
3.8898274015748031
20
-4.0434842519685041
11
3.886606653543307
21
-4.0434842519685041
0
LINE
8
BLACK
6
CONTINUOUS
10
3.886606653543307
20
-4.0434842519685041
11
3.8839673228346454
21
-4.0427092519685042
0
LINE
8
BLACK
6
CONTINUOUS
10
3.8839673228346454
20
-4.0427092519685042
11
3.8821659448818897
21
-4.0406303543307089
0
LINE
8
BLACK
6
CONTINUOUS
10
3.8821659448818897
20
-4.0406303543307089
11
3.8817744488188977
21
-4.0379075984251971
0
LINE
8
BLACK
6
CONTINUOUS
10
3.8817744488188977
20
-4.0379075984251971
11
3.8829171653543306
21
-4.0354053937007874
0
LINE
8
BLACK
6
CONTINUOUS
10
3.8829171653543306
20
-4.0354053937007874
11
3.8831546456692911
21
-4.0351503543307086
0
LINE
8
BLACK
6
CONTINUOUS
10
3.8831546456692911
20
-4.0351503543307086
11
3.8845699212598426
21
-4.0337350393700788
0
LINE
8
BLACK
6
CONTINUOUS
10
3.8845699212598426
20
-4.0337350393700788
11
3.8845701181102363
21
-4.0337348425196851
0
LINE
8
BLACK
6
CONTINUOUS
10
3.8845701181102363
20
-4.0337348425196851
11
3.8878639370078738
21
-4.0281652755905508
0
LINE
8
BLACK
6
CONTINUOUS
10
3.8878639370078738
20
-4.0281652755905508
11
3.8896692125984251
21
-4.0219515354330708
0
LINE
8
BLACK
6
CONTINUOUS
10
3.8896692125984251
20
-4.0219515354330708
11
3.8897834645669289
21
-4.0204997637795277
0
LINE
8
BLACK
6
CONTINUOUS
10
3.8897834645669289
20
-4.0204997637795277
11
3.8897834645669289
21
-4.0035159842519681
0
LINE
8
BLACK
6
CONTINUOUS
10
3.8897834645669289
20
-4.0035159842519681
11
3.8896692125984251
21
-4.0020642125984249
0
LINE
8
BLACK
6
CONTINUOUS
10
3.8896692125984251
20
-4.0020642125984249
11
3.8896267322834643
21
-4.0019180314960625
0
LINE
8
BLACK
6
CONTINUOUS
10
3.8896267322834643
20
-4.0019180314960625
11
3.8878639763779526
21
-3.9958506299212599
0
LINE
8
BLACK
6
CONTINUOUS
10
3.8878639763779526
20
-3.9958506299212599
11
3.8878639370078738
21
-3.9958505118110237
0
LINE
8
BLACK
6
CONTINUOUS
10
3.8878639370078738
20
-3.9958505118110237
11
3.8878639370078738
21
-3.9958504724409449
0
LINE
8
BLACK
6
CONTINUOUS
10
3.8878639370078738
20
-3.9958504724409449
11
3.8845701181102363
21
-3.9902809055118111
0
LINE
8
BLACK
6
CONTINUOUS
10
3.8845701181102363
20
-3.9902809055118111
11
3.8845700000000001
21
-3.9902807874015749
0
LINE
8
BLACK
6
CONTINUOUS
10
3.8845700000000001
20
-3.9902807874015749
11
3.8843818110236219
21
-3.9900381496062991
0
LINE
8
BLACK
6
CONTINUOUS
10
3.8843818110236219
20
-3.9900381496062991
11
3.8844783464566928
21
-3.9899632283464568
0
LINE
8
BLACK
6
CONTINUOUS
10
3.8844783464566928
20
-3.9899632283464568
11
3.8834312992125986
21
-3.9880480708661414
0
LINE
8
BLACK
6
CONTINUOUS
10
3.8834312992125986
20
-3.9880480708661414
11
3.8836261417322833
21
-3.9853041732283465
0
LINE
8
BLACK
6
CONTINUOUS
10
3.8836261417322833
20
-3.9853041732283465
11
3.8844464566929133
21
-3.984027716535433
0
LINE
8
BLACK
6
CONTINUOUS
10
3.8844464566929133
20
-3.984027716535433
11
3.8843818110236219
21
-3.9839775984251968
0
LINE
8
BLACK
6
CONTINUOUS
10
3.8843818110236219
20
-3.9839775984251968
11
3.8845698818897638
21
-3.9837350393700786
0
LINE
8
BLACK
6
CONTINUOUS
10
3.8845698818897638
20
-3.9837350393700786
11
3.8845701181102363
21
-3.9837348425196848
0
LINE
8
BLACK
6
CONTINUOUS
10
3.8845701181102363
20
-3.9837348425196848
11
3.8878639370078738
21
-3.978165275590551
0
LINE
8
BLACK
6
CONTINUOUS
10
3.8878639370078738
20
-3.978165275590551
11
3.8893979921259842
21
-3.972885118110236
0
LINE
8
BLACK
6
CONTINUOUS
10
3.8893979921259842
20
-3.972885118110236
11
3.8896691732283464
21
-3.9719516929133856
0
LINE
8
BLACK
6
CONTINUOUS
10
3.8896691732283464
20
-3.9719516929133856
11
3.8896692125984251
21
-3.9719514566929135
0
LINE
8
BLACK
6
CONTINUOUS
10
3.8896692125984251
20
-3.9719514566929135
11
3.8897834251968502
21
-3.9705000393700787
0
LINE
8
BLACK
6
CONTINUOUS
10
3.8897834251968502
20
-3.9705000393700787
11
3.8897834645669289
21
-3.9704997637795274
0
LINE
8
BLACK
6
CONTINUOUS
10
3.8897834645669289
20
-3.9704997637795274
11
3.8897834645669289
21
-3.9685396850393699
0
LINE
8
BLACK
6
CONTINUOUS
10
3.8897834645669289
20
-3.9685396850393699
11
3.8905584645669289
21
-3.9659003543307088
0
LINE
8
BLACK
6
CONTINUOUS
10
3.8905584645669289
20
-3.9659003543307088
11
3.8926373622047241
21
-3.9640989763779526
0
LINE
8
BLACK
6
CONTINUOUS
10
3.8926373622047241
20
-3.9640989763779526
11
3.8930525984251969
21
-3.9639318503937009
0
LINE
8
BLACK
6
CONTINUOUS
10
3.8930525984251969
20
-3.9639318503937009
11
3.8995874803149606
21
-3.9616452362204724
0
LINE
8
BLACK
6
CONTINUOUS
10
3.8995874803149606
20
-3.9616452362204724
11
3.9056008661417323
21
-3.9578667716535434
0
LINE
8
BLACK
6
CONTINUOUS
10
3.9056008661417323
20
-3.9578667716535434
11
3.9106226771653541
21
-3.9528449606299212
0
LINE
8
BLACK
6
CONTINUOUS
10
3.9106226771653541
20
-3.9528449606299212
11
3.9144011417322835
21
-3.9468315748031495
0
LINE
8
BLACK
6
CONTINUOUS
10
3.9144011417322835
20
-3.9468315748031495
11
3.9167467716535431
21
-3.940128149606299
0
LINE
8
BLACK
6
CONTINUOUS
10
3.9167467716535431
20
-3.940128149606299
11
3.9169183858267718
21
-3.9386050787401574
0
LINE
8
BLACK
6
CONTINUOUS
10
3.9169183858267718
20
-3.9386050787401574
11
3.9175419291338582
21
-3.9330709842519682
0
LINE
8
BLACK
6
CONTINUOUS
10
3.9175419291338582
20
-3.9330709842519682
11
3.9175419291338582
21
-3.9330707086614174
0
LINE
8
BLACK
6
CONTINUOUS
10
3.9175419291338582
20
-3.9330707086614174
11
3.9167468110236219
21
-3.9260137795275591
0
LINE
8
BLACK
6
CONTINUOUS
10
3.9167468110236219
20
-3.9260137795275591
11
3.9167467716535431
21
-3.9260135826771654
0
LINE
8
BLACK
6
CONTINUOUS
10
3.9167467716535431
20
-3.9260135826771654
11
3.9147287007874016
21
-3.9202462598425196
0
LINE
8
BLACK
6
CONTINUOUS
10
3.9147287007874016
20
-3.9202462598425196
11
3.9144011417322835
21
-3.9193101574803149
0
LINE
8
BLACK
6
CONTINUOUS
10
3.9144011417322835
20
-3.9193101574803149
11
3.9106226771653541
21
-3.9132967716535432
0
LINE
8
BLACK
6
CONTINUOUS
10
3.9106226771653541
20
-3.9132967716535432
11
3.9056008661417323
21
-3.908274960629921
0
LINE
8
BLACK
6
CONTINUOUS
10
3.9056008661417323
20
-3.908274960629921
11
3.902106062992126
21
-3.9060790157480314
0
LINE
8
BLACK
6
CONTINUOUS
10
3.902106062992126
20
-3.9060790157480314
11
3.8995874409448819
21
-3.9044964566929132
0
LINE
8
BLACK
6
CONTINUOUS
10
3.8995874409448819
20
-3.9044964566929132
11
3.8956238188976378
21
-3.9031095275590548
0
LINE
8
BLACK
6
CONTINUOUS
10
3.8956238188976378
20
-3.9031095275590548
11
3.8928840551181101
21
-3.9021508661417323
0
LINE
8
BLACK
6
CONTINUOUS
10
3.8928840551181101
20
-3.9021508661417323
11
3.8928839763779526
21
-3.9021508267716536
0
LINE
8
BLACK
6
CONTINUOUS
10
3.8928839763779526
20
-3.9021508267716536
11
3.8928837795275588
21
-3.9021507874015748
0
LINE
8
BLACK
6
CONTINUOUS
10
3.8928837795275588
20
-3.9021507874015748
11
3.8928194881889762
21
-3.9021435433070866
0
LINE
8
BLACK
6
CONTINUOUS
10
3.8928194881889762
20
-3.9021435433070866
11
3.892780748031496
21
-3.9021272440944883
0
LINE
8
BLACK
6
CONTINUOUS
10
3.892780748031496
20
-3.9021272440944883
11
3.8926164960629919
21
-3.9020897637795273
0
LINE
8
BLACK
6
CONTINUOUS
10
3.8926164960629919
20
-3.9020897637795273
11
3.892623031496063
21
-3.9020609448818897
0
LINE
8
BLACK
6
CONTINUOUS
10
3.892623031496063
20
-3.9020609448818897
11
3.8902836220472441
21
-3.9010776771653544
0
LINE
8
BLACK
6
CONTINUOUS
10
3.8902836220472441
20
-3.9010776771653544
11
3.8887265748031496
21
-3.8988100000000001
0
LINE
8
BLACK
6
CONTINUOUS
10
3.8887265748031496
20
-3.8988100000000001
11
3.8886791732283466
21
-3.8986565354330707
0
LINE
8
BLACK
6
CONTINUOUS
10
3.8886791732283466
20
-3.8986565354330707
11
3.8878639370078738
21
-3.8958504724409448
0
LINE
8
BLACK
6
CONTINUOUS
10
3.8878639370078738
20
-3.8958504724409448
11
3.8845701181102363
21
-3.890280905511811
0
LINE
8
BLACK
6
CONTINUOUS
10
3.8845701181102363
20
-3.890280905511811
11
3.8845700393700788
21
-3.8902808267716535
0
LINE
8
BLACK
6
CONTINUOUS
10
3.8845700393700788
20
-3.8902808267716535
11
3.8845699212598426
21
-3.8902806692913385
0
LINE
8
BLACK
6
CONTINUOUS
10
3.8845699212598426
20
-3.8902806692913385
11
3.8799948818897638
21
-3.8857056299212598
0
LINE
8
BLACK
6
CONTINUOUS
10
3.8799948818897638
20
-3.8857056299212598
11
3.8799945275590551
21
-3.8857053543307085
0
LINE
8
BLACK
6
CONTINUOUS
10
3.8799945275590551
20
-3.8857053543307085
11
3.8770031102362204
21
-3.8839362598425198
0
LINE
8
BLACK
6
CONTINUOUS
10
3.8770031102362204
20
-3.8839362598425198
11
3.8751258267716535
21
-3.8819256692913386
0
LINE
8
BLACK
6
CONTINUOUS
10
3.8751258267716535
20
-3.8819256692913386
11
3.8746062992125982
21
-3.8797342125984251
0
LINE
8
BLACK
6
CONTINUOUS
10
3.8746062992125982
20
-3.8797342125984251
11
3.8746062992125982
21
-3.8383858267716535
0
LINE
8
BLACK
6
CONTINUOUS
10
3.8746062992125982
20
-3.8383858267716535
11
3.7627952755905509
21
-3.8383858267716535
0
LINE
8
BLACK
6
CONTINUOUS
10
3.7627952755905509
20
-3.8383858267716535
11
3.7627952755905509
21
-3.8413385826771651
0
LINE
8
BLACK
6
CONTINUOUS
10
3.7627952755905509
20
-3.8413385826771651
11
3.7687007874015745
21
-3.8413385826771651
0
LINE
8
BLACK
6
CONTINUOUS
10
3.7687007874015745
20
-3.8413385826771651
11
3.772090708661417
21
-3.8420128740157478
0
LINE
8
BLACK
6
CONTINUOUS
10
3.772090708661417
20
-3.8420128740157478
11
3.7749645275590549
21
-3.8439331102362204
0
LINE
8
BLACK
6
CONTINUOUS
10
3.7749645275590549
20
-3.8439331102362204
11
3.7768847637795275
21
-3.8468069291338582
0
LINE
8
BLACK
6
CONTINUOUS
10
3.7768847637795275
20
-3.8468069291338582
11
3.7775590551181102
21
-3.8501968503937007
0
LINE
8
BLACK
6
CONTINUOUS
10
3.7775590551181102
20
-3.8501968503937007
11
3.7775590551181102
21
-3.8580708661417322
0
LINE
8
BLACK
6
CONTINUOUS
10
3.7775590551181102
20
-3.8580708661417322
11
3.8011811023622046
21
-3.8580708661417322
0
LINE
8
BLACK
6
CONTINUOUS
10
3.8011811023622046
20
-3.8580708661417322
11
3.8011811023622046
21
-3.8561023622047244
0
LINE
8
BLACK
6
CONTINUOUS
10
3.8011811023622046
20
-3.8561023622047244
11
3.8016306299212599
21
-3.853842401574803
0
LINE
8
BLACK
6
CONTINUOUS
10
3.8016306299212599
20
-3.853842401574803
11
3.8029107874015748
21
-3.851926535433071
0
LINE
8
BLACK
6
CONTINUOUS
10
3.8029107874015748
20
-3.851926535433071
11
3.8048266535433068
21
-3.850646377952756
0
LINE
8
BLACK
6
CONTINUOUS
10
3.8048266535433068
20
-3.850646377952756
11
3.8070866141732282
21
-3.8501968503937007
0
LINE
8
BLACK
6
CONTINUOUS
10
3.8070866141732282
20
-3.8501968503937007
11
3.8641732283464565
21
-3.8501968503937007
0
LINE
8
BLACK
6
CONTINUOUS
10
3.8641732283464565
20
-3.8501968503937007
11
3.8664331889763779
21
-3.850646377952756
0
LINE
8
BLACK
6
CONTINUOUS
10
3.8664331889763779
20
-3.850646377952756
11
3.8683490551181103
21
-3.851926535433071
0
LINE
8
BLACK
6
CONTINUOUS
10
3.8683490551181103
20
-3.851926535433071
11
3.8696292125984253
21
-3.853842401574803
0
LINE
8
BLACK
6
CONTINUOUS
10
3.8696292125984253
20
-3.853842401574803
11
3.8700787401574801
21
-3.8561023622047244
0
LINE
8
BLACK
6
CONTINUOUS
10
3.8700787401574801
20
-3.8561023622047244
11
3.8700787401574801
21
-3.8679133858267716
0
LINE
8
BLACK
6
CONTINUOUS
10
3.8700787401574801
20
-3.8679133858267716
11
3.8696292125984253
21
-3.870173346456693
0
LINE
8
BLACK
6
CONTINUOUS
10
3.8696292125984253
20
-3.870173346456693
11
3.8683490551181103
21
-3.872089212598425
0
LINE
8
BLACK
6
CONTINUOUS
10
3.8683490551181103
20
-3.872089212598425
11
3.8664331889763779
21
-3.8733693700787399
0
LINE
8
BLACK
6
CONTINUOUS
10
3.8664331889763779
20
-3.8733693700787399
11
3.8641732283464565
21
-3.8738188976377952
0
LINE
8
BLACK
6
CONTINUOUS
10
3.8641732283464565
20
-3.8738188976377952
11
3.8070866141732282
21
-3.8738188976377952
0
LINE
8
BLACK
6
CONTINUOUS
10
3.8070866141732282
20
-3.8738188976377952
11
3.8048266535433068
21
-3.8733693700787399
0
LINE
8
BLACK
6
CONTINUOUS
10
3.8048266535433068
20
-3.8733693700787399
11
3.8029107874015748
21
-3.872089212598425
0
LINE
8
BLACK
6
CONTINUOUS
10
3.8029107874015748
20
-3.872089212598425
11
3.8016306299212599
21
-3.870173346456693
0
LINE
8
BLACK
6
CONTINUOUS
10
3.8016306299212599
20
-3.870173346456693
11
3.8011811023622046
21
-3.8679133858267716
0
LINE
8
BLACK
6
CONTINUOUS
10
3.8011811023622046
20
-3.8679133858267716
11
3.8011811023622046
21
-3.8659448818897637
0
LINE
8
BLACK
6
CONTINUOUS
10
3.8011811023622046
20
-3.8659448818897637
11
3.7775590551181102
21
-3.8659448818897637
0
LINE
8
BLACK
6
CONTINUOUS
10
3.7775590551181102
20
-3.8659448818897637
11
3.7775590551181102
21
-3.8679133858267716
0
LINE
8
BLACK
6
CONTINUOUS
10
3.7775590551181102
20
-3.8679133858267716
11
3.7768847637795275
21
-3.8713033070866141
0
LINE
8
BLACK
6
CONTINUOUS
10
3.7768847637795275
20
-3.8713033070866141
11
3.7749645275590549
21
-3.8741771259842519
0
LINE
8
BLACK
6
CONTINUOUS
10
3.7749645275590549
20
-3.8741771259842519
11
3.772090708661417
21
-3.8760973622047241
0
LINE
8
BLACK
6
CONTINUOUS
10
3.772090708661417
20
-3.8760973622047241
11
3.7687007874015745
21
-3.8767716535433072
0
LINE
8
BLACK
6
CONTINUOUS
10
3.7687007874015745
20
-3.8767716535433072
11
3.7490157480314958
21
-3.8767716535433072
0
LINE
8
BLACK
6
CONTINUOUS
10
3.7490157480314958
20
-3.8767716535433072
11
3.7456258267716533
21
-3.8760973622047241
0
LINE
8
BLACK
6
CONTINUOUS
10
3.7456258267716533
20
-3.8760973622047241
11
3.7427520078740155
21
-3.8741771259842519
0
LINE
8
BLACK
6
CONTINUOUS
10
3.7427520078740155
20
-3.8741771259842519
11
3.7408317716535433
21
-3.8713033070866141
0
LINE
8
BLACK
6
CONTINUOUS
10
3.7408317716535433
20
-3.8713033070866141
11
3.7407480314960631
21
-3.8708822834645669
0
LINE
8
BLACK
6
CONTINUOUS
10
3.7407480314960631
20
-3.8708822834645669
11
3.7407480314960631
21
-3.8803445275590551
0
LINE
8
BLACK
6
CONTINUOUS
10
3.7407480314960631
20
-3.8803445275590551
11
3.7399730314960631
21
-3.8829838582677163
0
LINE
8
BLACK
6
CONTINUOUS
10
3.7399730314960631
20
-3.8829838582677163
11
3.7378941338582679
21
-3.8847852362204724
0
LINE
8
BLACK
6
CONTINUOUS
10
3.7378941338582679
20
-3.8847852362204724
11
3.7374018110236218
21
-3.8849785826771654
0
LINE
8
BLACK
6
CONTINUOUS
10
3.7374018110236218
20
-3.8849785826771654
11
3.7368625590551181
21
-3.8851572440944881
0
LINE
8
BLACK
6
CONTINUOUS
10
3.7368625590551181
20
-3.8851572440944881
11
3.7368619685039368
21
-3.8851575196850394
0
LINE
8
BLACK
6
CONTINUOUS
10
3.7368619685039368
20
-3.8851575196850394
11
3.7311794881889764
21
-3.8886625590551178
0
LINE
8
BLACK
6
CONTINUOUS
10
3.7311794881889764
20
-3.8886625590551178
11
3.7311793307086614
21
-3.8886626771653541
0
LINE
8
BLACK
6
CONTINUOUS
10
3.7311793307086614
20
-3.8886626771653541
11
3.7264579527559056
21
-3.8933840551181103
0
LINE
8
BLACK
6
CONTINUOUS
10
3.7264579527559056
20
-3.8933840551181103
11
3.7264578346456694
21
-3.8933842125984253
0
LINE
8
BLACK
6
CONTINUOUS
10
3.7264578346456694
20
-3.8933842125984253
11
3.7229527952755905
21
-3.8990666929133857
0
LINE
8
BLACK
6
CONTINUOUS
10
3.7229527952755905
20
-3.8990666929133857
11
3.7229526377952755
21
-3.8990670472440945
0
LINE
8
BLACK
6
CONTINUOUS
10
3.7229526377952755
20
-3.8990670472440945
11
3.7219209842519683
21
-3.9021803937007875
0
LINE
8
BLACK
6
CONTINUOUS
10
3.7219209842519683
20
-3.9021803937007875
11
3.7203551181102363
21
-3.9044419685039369
0
LINE
8
BLACK
6
CONTINUOUS
10
3.7203551181102363
20
-3.9044419685039369
11
3.7178151181102361
21
-3.905497992125984
0
LINE
8
BLACK
6
CONTINUOUS
10
3.7178151181102361
20
-3.905497992125984
11
3.7167403543307085
21
-3.9054959448818898
0
LINE
8
BLACK
6
CONTINUOUS
10
3.7167403543307085
20
-3.9054959448818898
11
3.7131891732283462
21
-3.9050958661417323
0
LINE
8
BLACK
6
CONTINUOUS
10
3.7131891732283462
20
-3.9050958661417323
11
3.7131888188976379
21
-3.9050958661417323
0
LINE
8
BLACK
6
CONTINUOUS
10
3.7131888188976379
20
-3.9050958661417323
11
3.7061318897637796
21
-3.9058909448818895
0
LINE
8
BLACK
6
CONTINUOUS
10
3.7061318897637796
20
-3.9058909448818895
11
3.7061316929133858
21
-3.9058909842519682
0
LINE
8
BLACK
6
CONTINUOUS
10
3.7061316929133858
20
-3.9058909842519682
11
3.6994281889763778
21
-3.9082366535433071
0
LINE
8
BLACK
6
CONTINUOUS
10
3.6994281889763778
20
-3.9082366535433071
11
3.6934148425196849
21
-3.9120151181102361
0
LINE
8
BLACK
6
CONTINUOUS
10
3.6934148425196849
20
-3.9120151181102361
11
3.6883930708661414
21
-3.9170368897637795
0
LINE
8
BLACK
6
CONTINUOUS
10
3.6883930708661414
20
-3.9170368897637795
11
3.6846146062992124
21
-3.9230502362204724
0
LINE
8
BLACK
6
CONTINUOUS
10
3.6846146062992124
20
-3.9230502362204724
11
3.6822689370078741
21
-3.92975374015748
0
LINE
8
BLACK
6
CONTINUOUS
10
3.6822689370078741
20
-3.92975374015748
11
3.6822688976377953
21
-3.9297539370078738
0
LINE
8
BLACK
6
CONTINUOUS
10
3.6822688976377953
20
-3.9297539370078738
11
3.6814738188976377
21
-3.936810866141732
0
LINE
8
BLACK
6
CONTINUOUS
10
3.6814738188976377
20
-3.936810866141732
11
3.6814738188976377
21
-3.9368111417322833
0
LINE
8
BLACK
6
CONTINUOUS
10
3.6814738188976377
20
-3.9368111417322833
11
3.6822688976377953
21
-3.9438680708661416
0
LINE
8
BLACK
6
CONTINUOUS
10
3.6822688976377953
20
-3.9438680708661416
11
3.6822689370078741
21
-3.9438682677165353
0
LINE
8
BLACK
6
CONTINUOUS
10
3.6822689370078741
20
-3.9438682677165353
11
3.6846146062992124
21
-3.9505717716535433
0
LINE
8
BLACK
6
CONTINUOUS
10
3.6846146062992124
20
-3.9505717716535433
11
3.6883930708661414
21
-3.9565851181102363
0
LINE
8
BLACK
6
CONTINUOUS
10
3.6883930708661414
20
-3.9565851181102363
11
3.6923462204724409
21
-3.9605382677165353
0
LINE
8
BLACK
6
CONTINUOUS
10
3.6923462204724409
20
-3.9605382677165353
11
3.6936645275590552
21
-3.9629525590551182
0
LINE
8
BLACK
6
CONTINUOUS
10
3.6936645275590552
20
-3.9629525590551182
11
3.6935283070866141
21
-3.9655258267716533
0
LINE
8
BLACK
6
CONTINUOUS
10
3.6935283070866141
20
-3.9655258267716533
11
3.6913386220472439
21
-3.9721338582677164
0
LINE
8
BLACK
6
CONTINUOUS
10
3.6913386220472439
20
-3.9721338582677164
11
3.6913385826771652
21
-3.9721340157480314
0
LINE
8
BLACK
6
CONTINUOUS
10
3.6913385826771652
20
-3.9721340157480314
11
3.6909251968503938
21
-3.9761804330708661
0
LINE
8
BLACK
6
CONTINUOUS
10
3.6909251968503938
20
-3.9761804330708661
11
3.6909251968503938
21
-3.9998031889763777
0
LINE
8
BLACK
6
CONTINUOUS
10
3.6909251968503938
20
-3.9998031889763777
11
3.6909252362204725
21
-3.9998038976377952
0
LINE
8
BLACK
6
CONTINUOUS
10
3.6909252362204725
20
-3.9998038976377952
11
3.6913385826771652
21
-4.0038502362204724
0
LINE
8
BLACK
6
CONTINUOUS
10
3.6913385826771652
20
-4.0038502362204724
11
3.6913386220472439
21
-4.0038503543307087
0
LINE
8
BLACK
6
CONTINUOUS
10
3.6913386220472439
20
-4.0038503543307087
11
3.6921568897637793
21
-4.0063196850393696
0
LINE
8
BLACK
6
CONTINUOUS
10
3.6921568897637793
20
-4.0063196850393696
11
3.6935112598425195
21
-4.0104068503937009
0
LINE
8
BLACK
6
CONTINUOUS
10
3.6935112598425195
20
-4.0104068503937009
11
3.6971373228346458
21
-4.0162856692913387
0
LINE
8
BLACK
6
CONTINUOUS
10
3.6971373228346458
20
-4.0162856692913387
11
3.7020214173228347
21
-4.0211697637795272
0
LINE
8
BLACK
6
CONTINUOUS
10
3.7020214173228347
20
-4.0211697637795272
11
3.7079002362204725
21
-4.024795826771653
0
LINE
8
BLACK
6
CONTINUOUS
10
3.7079002362204725
20
-4.024795826771653
11
3.7144568110236218
21
-4.026968464566929
0
LINE
8
BLACK
6
CONTINUOUS
10
3.7144568110236218
20
-4.026968464566929
11
3.7185035826771653
21
-4.0273818897637792
0
LINE
8
BLACK
6
CONTINUOUS
10
3.7185035826771653
20
-4.0273818897637792
11
3.7431063385826771
21
-4.0273818503937004
0
LINE
8
BLACK
6
CONTINUOUS
10
3.7431063385826771
20
-4.0273818503937004
11
3.7457456692913387
21
-4.0281568110236217
0
LINE
8
BLACK
6
CONTINUOUS
10
3.7457456692913387
20
-4.0281568110236217
11
3.7465583464566929
21
-4.0288117322834642
0
LINE
8
BLACK
6
CONTINUOUS
10
3.7465583464566929
20
-4.0288117322834642
11
3.748672598425197
21
-4.0309259842519687
0
LINE
8
BLACK
6
CONTINUOUS
10
3.748672598425197
20
-4.0309259842519687
11
3.7520903543307087
21
-4.0328991732283468
0
LINE
8
BLACK
6
CONTINUOUS
10
3.7520903543307087
20
-4.0328991732283468
11
3.7520904330708662
21
-4.0328992519685034
0
LINE
8
BLACK
6
CONTINUOUS
10
3.7520904330708662
20
-4.0328992519685034
11
3.7540635039370076
21
-4.03403842519685
0
LINE
8
BLACK
6
CONTINUOUS
10
3.7540635039370076
20
-4.03403842519685
11
3.7540635826771651
21
-4.0340384645669287
0
LINE
8
BLACK
6
CONTINUOUS
10
3.7540635826771651
20
-4.0340384645669287
11
3.7600764566929135
21
-4.0356496062992129
0
LINE
8
BLACK
6
CONTINUOUS
10
3.7600764566929135
20
-4.0356496062992129
11
3.7600764960629922
21
-4.0356496062992129
0
LINE
8
BLACK
6
CONTINUOUS
10
3.7600764960629922
20
-4.0356496062992129
11
3.7865823622047241
21
-4.0356496062992129
0
LINE
8
BLACK
6
CONTINUOUS
10
3.7865823622047241
20
-4.0356496062992129
11
3.7892216929133857
21
-4.0364246062992128
0
LINE
8
BLACK
6
CONTINUOUS
10
3.7892216929133857
20
-4.0364246062992128
11
3.7900344094488188
21
-4.0370795275590554
0
LINE
8
BLACK
6
CONTINUOUS
10
3.7900344094488188
20
-4.0370795275590554
11
3.7912649212598426
21
-4.0383100787401576
0
LINE
8
BLACK
6
CONTINUOUS
10
3.7912649212598426
20
-4.0383100787401576
11
3.7912650787401576
21
-4.0383101968503938
0
LINE
8
BLACK
6
CONTINUOUS
10
3.7912650787401576
20
-4.0383101968503938
11
3.7912651574803147
21
-4.0383102755905513
0
LINE
8
BLACK
6
CONTINUOUS
10
3.7912651574803147
20
-4.0383102755905513
11
3.7968347244094489
21
-4.0416040944881892
0
LINE
8
BLACK
6
CONTINUOUS
10
3.7968347244094489
20
-4.0416040944881892
11
3.7984733858267714
21
-4.0420801574803145
0
LINE
8
BLACK
6
CONTINUOUS
10
3.7984733858267714
20
-4.0420801574803145
11
3.8030482677165351
21
-4.0434093307086609
0
LINE
8
BLACK
6
CONTINUOUS
10
3.8030482677165351
20
-4.0434093307086609
11
3.8030483858267714
21
-4.0434093307086609
0
LINE
8
BLACK
6
CONTINUOUS
10
3.8030483858267714
20
-4.0434093307086609
11
3.8030484645669289
21
-4.0434093700787397
0
LINE
8
BLACK
6
CONTINUOUS
10
3.8030484645669289
20
-4.0434093700787397
11
3.8045002362204725
21
-4.0435236220472444
0
LINE
8
BLACK
6
CONTINUOUS
10
3.8045002362204725
20
-4.0435236220472444
11
3.8045005511811021
21
-4.0435236220472444
0
LINE
8
BLACK
6
CONTINUOUS
10
3.8045005511811021
20
-4.0435236220472444
11
3.8486015748031495
21
-4.0435236220472444
0
LINE
8
BLACK
6
CONTINUOUS
10
3.8486015748031495
20
-4.0435236220472444
11
3.8512409055118111
21
-4.0442986220472443
0
LINE
8
BLACK
6
CONTINUOUS
10
3.8512409055118111
20
-4.0442986220472443
11
3.8530422834645668
21
-4.0463775196850396
0
LINE
8
BLACK
6
CONTINUOUS
10
3.8530422834645668
20
-4.0463775196850396
11
3.8534337795275588
21
-4.0491002755905514
0
LINE
8
BLACK
6
CONTINUOUS
10
3.8534337795275588
20
-4.0491002755905514
11
3.8522910629921259
21
-4.0516024803149602
0
LINE
8
BLACK
6
CONTINUOUS
10
3.8522910629921259
20
-4.0516024803149602
11
3.8520535826771654
21
-4.051857519685039
0
LINE
8
BLACK
6
CONTINUOUS
10
3.8520535826771654
20
-4.051857519685039
11
3.8499815354330709
21
-4.0539295275590552
0
LINE
8
BLACK
6
CONTINUOUS
10
3.8499815354330709
20
-4.0539295275590552
11
3.8499814960629921
21
-4.053929566929134
0
LINE
8
BLACK
6
CONTINUOUS
10
3.8499814960629921
20
-4.053929566929134
11
3.8465166141732281
21
-4.059661141732283
0
LINE
8
BLACK
6
CONTINUOUS
10
3.8465166141732281
20
-4.059661141732283
11
3.8445241338582674
21
-4.0660553937007871
0
LINE
8
BLACK
6
CONTINUOUS
10
3.8445241338582674
20
-4.0660553937007871
11
3.844271653543307
21
-4.0688340944881887
0
LINE
8
BLACK
6
CONTINUOUS
10
3.844271653543307
20
-4.0688340944881887
11
3.844271653543307
21
-4.0949453937007876
0
LINE
8
BLACK
6
CONTINUOUS
10
3.844271653543307
20
-4.0949453937007876
11
3.8445241338582674
21
-4.0977240944881892
0
LINE
8
BLACK
6
CONTINUOUS
10
3.8445241338582674
20
-4.0977240944881892
11
3.8445241338582674
21
-4.0977241732283467
0
LINE
8
BLACK
6
CONTINUOUS
10
3.8445241338582674
20
-4.0977241732283467
11
3.8445241732283462
21
-4.0977242519685042
0
LINE
8
BLACK
6
CONTINUOUS
10
3.8445241732283462
20
-4.0977242519685042
11
3.8465166141732281
21
-4.1041183464566924
0
LINE
8
BLACK
6
CONTINUOUS
10
3.8465166141732281
20
-4.1041183464566924
11
3.849429094488189
21
-4.1089361811023624
0
LINE
8
BLACK
6
CONTINUOUS
10
3.849429094488189
20
-4.1089361811023624
11
3.8499814960629921
21
-4.1098499212598423
0
LINE
8
BLACK
6
CONTINUOUS
10
3.8499814960629921
20
-4.1098499212598423
11
3.8547169685039369
21
-4.1145853937007875
0
LINE
8
BLACK
6
CONTINUOUS
10
3.8547169685039369
20
-4.1145853937007875
11
3.8547170472440944
21
-4.1145854330708662
0
LINE
8
BLACK
6
CONTINUOUS
10
3.8547170472440944
20
-4.1145854330708662
11
3.8547171259842519
21
-4.1145855118110237
0
LINE
8
BLACK
6
CONTINUOUS
10
3.8547171259842519
20
-4.1145855118110237
11
3.8604485826771651
21
-4.1180503149606302
0
LINE
8
BLACK
6
CONTINUOUS
10
3.8604485826771651
20
-4.1180503149606302
11
3.8668426771653541
21
-4.1200427559055113
0
LINE
8
BLACK
6
CONTINUOUS
10
3.8668426771653541
20
-4.1200427559055113
11
3.8696214173228345
21
-4.1202952755905509
0
LINE
8
BLACK
6
CONTINUOUS
10
3.8696214173228345
20
-4.1202952755905509
11
3.8696215354330707
21
-4.1202952755905509
0
LINE
8
BLACK
6
CONTINUOUS
10
3.8696215354330707
20
-4.1202952755905509
11
3.8898272834645669
21
-4.1202952755905509
0
LINE
8
BLACK
6
CONTINUOUS
10
3.8898272834645669
20
-4.1202952755905509
11
3.8898274015748031
21
-4.1202952755905509
0
LINE
8
BLACK
6
CONTINUOUS
10
3.8898274015748031
20
-4.1202952755905509
11
3.8926061417322835
21
-4.1200427559055113
0
LINE
8
BLACK
6
CONTINUOUS
10
3.8926061417322835
20
-4.1200427559055113
11
3.8990002362204725
21
-4.1180503149606302
0
LINE
8
BLACK
6
CONTINUOUS
10
3.8990002362204725
20
-4.1180503149606302
11
3.9026122440944881
21
-4.1158667322834646
0
LINE
8
BLACK
6
CONTINUOUS
10
3.9026122440944881
20
-4.1158667322834646
11
3.905271811023622
21
-4.1151645669291339
0
LINE
8
BLACK
6
CONTINUOUS
10
3.905271811023622
20
-4.1151645669291339
11
3.907888897637795
21
-4.1160116929133856
0
LINE
8
BLACK
6
CONTINUOUS
10
3.907888897637795
20
-4.1160116929133856
11
3.9096325196850392
21
-4.1181392913385828
0
LINE
8
BLACK
6
CONTINUOUS
10
3.9096325196850392
20
-4.1181392913385828
11
3.9100196850393698
21
-4.1200446062992127
0
LINE
8
BLACK
6
CONTINUOUS
10
3.9100196850393698
20
-4.1200446062992127
11
3.9100196850393698
21
-4.1474370866141728
0
LINE
8
BLACK
6
CONTINUOUS
10
3.9100196850393698
20
-4.1474370866141728
11
3.9092446850393698
21
-4.1500764173228344
0
LINE
8
BLACK
6
CONTINUOUS
10
3.9092446850393698
20
-4.1500764173228344
11
3.908589803149606
21
-4.1508890944881891
0
LINE
8
BLACK
6
CONTINUOUS
10
3.908589803149606
20
-4.1508890944881891
11
3.8560444881889762
21
-4.2034343700787398
0
LINE
8
BLACK
6
CONTINUOUS
10
3.8560444881889762
20
-4.2034343700787398
11
3.8536301968503937
21
-4.2047526771653541
0
LINE
8
BLACK
6
CONTINUOUS
10
3.8536301968503937
20
-4.2047526771653541
11
3.8513289763779528
21
-4.2046979133858269
0
LINE
8
BLACK
6
CONTINUOUS
10
3.8513289763779528
20
-4.2046979133858269
11
3.8462761023622045
21
-4.2033440157480317
0
LINE
8
BLACK
6
CONTINUOUS
10
3.8462761023622045
20
-4.2033440157480317
11
3.8462757086614174
21
-4.2033439370078742
0
LINE
8
BLACK
6
CONTINUOUS
10
3.8462757086614174
20
-4.2033439370078742
11
3.8370079133858268
21
-4.20253311023622
0
LINE
8
BLACK
6
CONTINUOUS
10
3.8370079133858268
20
-4.20253311023622
11
3.8370078346456693
21
-4.20253311023622
0
LINE
8
BLACK
6
CONTINUOUS
10
3.8370078346456693
20
-4.20253311023622
11
3.8277399999999999
21
-4.2033439370078742
0
LINE
8
BLACK
6
CONTINUOUS
10
3.8277399999999999
20
-4.2033439370078742
11
3.8277396062992124
21
-4.2033440157480317
0
LINE
8
BLACK
6
CONTINUOUS
10
3.8277396062992124
20
-4.2033440157480317
11
3.8187537007874015
21
-4.2057517322834643
0
LINE
8
BLACK
6
CONTINUOUS
10
3.8187537007874015
20
-4.2057517322834643
11
3.8187533464566927
21
-4.2057518897637793
0
LINE
8
BLACK
6
CONTINUOUS
10
3.8187533464566927
20
-4.2057518897637793
11
3.8103216929133858
21
-4.209683622047244
0
LINE
8
BLACK
6
CONTINUOUS
10
3.8103216929133858
20
-4.209683622047244
11
3.8103216141732283
21
-4.2096836614173228
0
LINE
8
BLACK
6
CONTINUOUS
10
3.8103216141732283
20
-4.2096836614173228
11
3.8027006692913385
21
-4.2150198818897637
0
LINE
8
BLACK
6
CONTINUOUS
10
3.8027006692913385
20
-4.2150198818897637
11
3.7961222440944882
21
-4.2215983070866141
0
LINE
8
BLACK
6
CONTINUOUS
10
3.7961222440944882
20
-4.2215983070866141
11
3.7910068897637794
21
-4.2289038582677163
0
LINE
8
BLACK
6
CONTINUOUS
10
3.7910068897637794
20
-4.2289038582677163
11
3.7888581889763779
21
-4.2306213779527555
0
LINE
8
BLACK
6
CONTINUOUS
10
3.7888581889763779
20
-4.2306213779527555
11
3.7861220472440946
21
-4.2309046062992124
0
LINE
8
BLACK
6
CONTINUOUS
10
3.7861220472440946
20
-4.2309046062992124
11
3.7836671259842518
21
-4.2296635433070868
0
LINE
8
BLACK
6
CONTINUOUS
10
3.7836671259842518
20
-4.2296635433070868
11
3.7830088582677166
21
-4.2289038582677163
0
LINE
8
BLACK
6
CONTINUOUS
10
3.7830088582677166
20
-4.2289038582677163
11
3.7778934645669291
21
-4.2215983070866141
0
LINE
8
BLACK
6
CONTINUOUS
10
3.7778934645669291
20
-4.2215983070866141
11
3.7713150393700787
21
-4.2150199212598425
0
LINE
8
BLACK
6
CONTINUOUS
10
3.7713150393700787
20
-4.2150199212598425
11
3.7713147637795275
21
-4.2150197244094487
0
LINE
8
BLACK
6
CONTINUOUS
10
3.7713147637795275
20
-4.2150197244094487
11
3.7636942519685039
21
-4.2096837401574803
0
LINE
8
BLACK
6
CONTINUOUS
10
3.7636942519685039
20
-4.2096837401574803
11
3.7636940944881889
21
-4.2096836614173228
0
LINE
8
BLACK
6
CONTINUOUS
10
3.7636940944881889
20
-4.2096836614173228
11
3.7636940157480314
21
-4.209683622047244
0
LINE
8
BLACK
6
CONTINUOUS
10
3.7636940157480314
20
-4.209683622047244
11
3.7552623228346458
21
-4.2057518503937006
0
LINE
8
BLACK
6
CONTINUOUS
10
3.7552623228346458
20
-4.2057518503937006
11
3.7552621653543308
21
-4.2057518110236218
0
LINE
8
BLACK
6
CONTINUOUS
10
3.7552621653543308
20
-4.2057518110236218
11
3.7552620078740158
21
-4.2057517322834643
0
LINE
8
BLACK
6
CONTINUOUS
10
3.7552620078740158
20
-4.2057517322834643
11
3.7462761023622044
21
-4.2033440157480317
0
LINE
8
BLACK
6
CONTINUOUS
10
3.7462761023622044
20
-4.2033440157480317
11
3.7462757086614173
21
-4.2033439370078742
0
LINE
8
BLACK
6
CONTINUOUS
10
3.7462757086614173
20
-4.2033439370078742
11
3.7370079133858267
21
-4.20253311023622
0
LINE
8
BLACK
6
CONTINUOUS
10
3.7370079133858267
20
-4.20253311023622
11
3.7370078346456692
21
-4.20253311023622
0
LINE
8
BLACK
6
CONTINUOUS
10
3.7370078346456692
20
-4.20253311023622
11
3.7277399999999998
21
-4.2033439370078742
0
LINE
8
BLACK
6
CONTINUOUS
10
3.7277399999999998
20
-4.2033439370078742
11
3.7277396062992123
21
-4.2033440157480317
0
LINE
8
BLACK
6
CONTINUOUS
10
3.7277396062992123
20
-4.2033440157480317
11
3.7187537007874014
21
-4.2057517322834643
0
LINE
8
BLACK
6
CONTINUOUS
10
3.7187537007874014
20
-4.2057517322834643
11
3.7187533464566926
21
-4.2057518897637793
0
LINE
8
BLACK
6
CONTINUOUS
10
3.7187533464566926
20
-4.2057518897637793
11
3.7103216929133858
21
-4.209683622047244
0
LINE
8
BLACK
6
CONTINUOUS
10
3.7103216929133858
20
-4.209683622047244
11
3.7103216141732283
21
-4.2096836614173228
0
LINE
8
BLACK
6
CONTINUOUS
10
3.7103216141732283
20
-4.2096836614173228
11
3.7027006692913385
21
-4.2150198818897637
0
LINE
8
BLACK
6
CONTINUOUS
10
3.7027006692913385
20
-4.2150198818897637
11
3.6961222440944881
21
-4.2215983070866141
0
LINE
8
BLACK
6
CONTINUOUS
10
3.6961222440944881
20
-4.2215983070866141
11
3.6907860236220471
21
-4.2292192519685035
0
LINE
8
BLACK
6
CONTINUOUS
10
3.6907860236220471
20
-4.2292192519685035
11
3.6907859842519684
21
-4.229219330708661
0
LINE
8
BLACK
6
CONTINUOUS
10
3.6907859842519684
20
-4.229219330708661
11
3.6868542519685037
21
-4.2376509842519683
0
LINE
8
BLACK
6
CONTINUOUS
10
3.6868542519685037
20
-4.2376509842519683
11
3.6868540944881887
21
-4.2376513385826771
0
LINE
8
BLACK
6
CONTINUOUS
10
3.6868540944881887
20
-4.2376513385826771
11
3.6844463779527556
21
-4.2466372440944884
0
LINE
8
BLACK
6
CONTINUOUS
10
3.6844463779527556
20
-4.2466372440944884
11
3.6844462992125981
21
-4.2466376377952759
0
LINE
8
BLACK
6
CONTINUOUS
10
3.6844462992125981
20
-4.2466376377952759
11
3.6836354724409448
21
-4.2559054724409444
0
LINE
8
BLACK
6
CONTINUOUS
10
3.6836354724409448
20
-4.2559054724409444
11
3.6836354724409448
21
-4.2559055118110232
0
LINE
8
BLACK
6
CONTINUOUS
10
3.6836354724409448
20
-4.2559055118110232
11
3.6844462992125981
21
-4.2651733464566925
0
LINE
8
BLACK
6
CONTINUOUS
10
3.6844462992125981
20
-4.2651733464566925
11
3.6844463779527556
21
-4.2651737401574801
0
LINE
8
BLACK
6
CONTINUOUS
10
3.6844463779527556
20
-4.2651737401574801
11
3.6868540944881887
21
-4.2741596456692914
0
LINE
8
BLACK
6
CONTINUOUS
10
3.6868540944881887
20
-4.2741596456692914
11
3.6868541732283462
21
-4.2741598031496064
0
LINE
8
BLACK
6
CONTINUOUS
10
3.6868541732283462
20
-4.2741598031496064
11
3.6868542125984249
21
-4.2741599606299214
0
LINE
8
BLACK
6
CONTINUOUS
10
3.6868542125984249
20
-4.2741599606299214
11
3.690000157480315
21
-4.2809064173228348
0
LINE
8
BLACK
6
CONTINUOUS
10
3.690000157480315
20
-4.2809064173228348
11
3.6907860236220471
21
-4.2825917322834641
0
LINE
8
BLACK
6
CONTINUOUS
10
3.6907860236220471
20
-4.2825917322834641
11
3.6907861023622046
21
-4.2825918897637791
0
LINE
8
BLACK
6
CONTINUOUS
10
3.6907861023622046
20
-4.2825918897637791
11
3.695050433070866
21
-4.2886819291338583
0
LINE
8
BLACK
6
CONTINUOUS
10
3.695050433070866
20
-4.2886819291338583
11
3.6961222440944881
21
-4.2902126377952756
0
LINE
8
BLACK
6
CONTINUOUS
10
3.6961222440944881
20
-4.2902126377952756
11
3.702700748031496
21
-4.2967911417322835
0
LINE
8
BLACK
6
CONTINUOUS
10
3.702700748031496
20
-4.2967911417322835
11
3.7033415748031495
21
-4.2972398425196854
0
LINE
8
BLACK
6
CONTINUOUS
10
3.7033415748031495
20
-4.2972398425196854
11
3.7040033464566928
21
-4.2977032283464567
0
LINE
8
BLACK
6
CONTINUOUS
10
3.7040033464566928
20
-4.2977032283464567
11
3.705720866141732
21
-4.2998519291338582
0
LINE
8
BLACK
6
CONTINUOUS
10
3.705720866141732
20
-4.2998519291338582
11
3.7060040157480314
21
-4.3025881102362202
0
LINE
8
BLACK
6
CONTINUOUS
10
3.7060040157480314
20
-4.3025881102362202
11
3.7047629921259841
21
-4.3050429921259843
0
LINE
8
BLACK
6
CONTINUOUS
10
3.7047629921259841
20
-4.3050429921259843
11
3.7023917322834645
21
-4.3064372440944885
0
LINE
8
BLACK
6
CONTINUOUS
10
3.7023917322834645
20
-4.3064372440944885
11
3.7012344881889763
21
-4.3065840157480313
0
LINE
8
BLACK
6
CONTINUOUS
10
3.7012344881889763
20
-4.3065840157480313
11
3.6584564960629922
21
-4.3068582283464565
0
LINE
8
BLACK
6
CONTINUOUS
10
3.6584564960629922
20
-4.3068582283464565
11
3.6558122440944882
21
-4.3061001968503936
0
LINE
8
BLACK
6
CONTINUOUS
10
3.6558122440944882
20
-4.3061001968503936
11
3.6539975590551181
21
-4.3040328740157481
0
LINE
8
BLACK
6
CONTINUOUS
10
3.6539975590551181
20
-4.3040328740157481
11
3.6535433070866139
21
-4.3019764566929135
0
LINE
8
BLACK
6
CONTINUOUS
10
3.6535433070866139
20
-4.3019764566929135
11
3.6535433070866139
21
-3.7724015748031494
0
LINE
8
BLACK
6
CONTINUOUS
10
3.6535433070866139
20
-3.7724015748031494
11
3.6543183070866139
21
-3.7697622440944882
0
LINE
8
BLACK
6
CONTINUOUS
10
3.6543183070866139
20
-3.7697622440944882
11
3.6563972047244095
21
-3.7679608661417321
0
LINE
8
BLACK
6
CONTINUOUS
10
3.6563972047244095
20
-3.7679608661417321
11
3.6584251968503936
21
-3.7675196850393702
0
LINE
8
BLACK
6
CONTINUOUS
10
3.6584251968503936
20
-3.7675196850393702
11
4.2628346456692912
21
-3.7675196850393702
0
LINE
8
BLACK
6
CONTINUOUS
10
4.2628346456692912
20
-3.7675196850393702
11
4.2654739763779528
21
-3.7682946850393702
0
LINE
8
BLACK
6
CONTINUOUS
10
3.7407480314960631
20
-3.8472279133858267
11
3.7408317716535433
21
-3.8468069291338582
0
LINE
8
BLACK
6
CONTINUOUS
10
3.7408317716535433
20
-3.8468069291338582
11
3.7427520078740155
21
-3.8439331102362204
0
LINE
8
BLACK
6
CONTINUOUS
10
3.7427520078740155
20
-3.8439331102362204
11
3.7456258267716533
21
-3.8420128740157478
0
LINE
8
BLACK
6
CONTINUOUS
10
3.7456258267716533
20
-3.8420128740157478
11
3.7490157480314958
21
-3.8413385826771651
0
LINE
8
BLACK
6
CONTINUOUS
10
3.7490157480314958
20
-3.8413385826771651
11
3.7549212598425195
21
-3.8413385826771651
0
LINE
8
BLACK
6
CONTINUOUS
10
3.7549212598425195
20
-3.8413385826771651
11
3.7549212598425195
21
-3.8383858267716535
0
LINE
8
BLACK
6
CONTINUOUS
10
3.7549212598425195
20
-3.8383858267716535
11
3.7407480314960631
21
-3.8383858267716535
0
LINE
8
BLACK
6
CONTINUOUS
10
3.7407480314960631
20
-3.8383858267716535
11
3.7407480314960631
21
-3.8472279133858267
0
LINE
8
BLACK
6
CONTINUOUS
10
3.7473489763779528
20
-4.2240788188976373
11
3.7537401574803151
21
-4.2269243307086617
0
LINE
8
BLACK
6
CONTINUOUS
10
3.7537401574803151
20
-4.2269243307086617
11
3.7594000393700786
21
-4.231036496062992
0
LINE
8
BLACK
6
CONTINUOUS
10
3.7594000393700786
20
-4.231036496062992
11
3.7640812598425195
21
-4.2362355511811023
0
LINE
8
BLACK
6
CONTINUOUS
10
3.7640812598425195
20
-4.2362355511811023
11
3.7675792913385826
21
-4.2422942519685041
0
LINE
8
BLACK
6
CONTINUOUS
10
3.7675792913385826
20
-4.2422942519685041
11
3.7697411417322835
21
-4.2489478346456693
0
LINE
8
BLACK
6
CONTINUOUS
10
3.7697411417322835
20
-4.2489478346456693
11
3.7704724409448818
21
-4.2559055118110232
0
LINE
8
BLACK
6
CONTINUOUS
10
3.7704724409448818
20
-4.2559055118110232
11
3.7697411417322835
21
-4.2628631889763779
0
LINE
8
BLACK
6
CONTINUOUS
10
3.7697411417322835
20
-4.2628631889763779
11
3.7675792913385826
21
-4.2695167716535432
0
LINE
8
BLACK
6
CONTINUOUS
10
3.7675792913385826
20
-4.2695167716535432
11
3.7640812598425195
21
-4.2755754724409449
0
LINE
8
BLACK
6
CONTINUOUS
10
3.7640812598425195
20
-4.2755754724409449
11
3.7594000393700786
21
-4.2807745275590552
0
LINE
8
BLACK
6
CONTINUOUS
10
3.7594000393700786
20
-4.2807745275590552
11
3.7537401574803151
21
-4.2848866929133855
0
LINE
8
BLACK
6
CONTINUOUS
10
3.7537401574803151
20
-4.2848866929133855
11
3.7473489763779528
21
-4.2877322047244091
0
LINE
8
BLACK
6
CONTINUOUS
10
3.7473489763779528
20
-4.2877322047244091
11
3.7405058661417323
21
-4.2891867716535428
0
LINE
8
BLACK
6
CONTINUOUS
10
3.7405058661417323
20
-4.2891867716535428
11
3.7335098818897636
21
-4.2891867716535428
0
LINE
8
BLACK
6
CONTINUOUS
10
3.7335098818897636
20
-4.2891867716535428
11
3.7266667716535431
21
-4.2877322047244091
0
LINE
8
BLACK
6
CONTINUOUS
10
3.7266667716535431
20
-4.2877322047244091
11
3.7202755905511808
21
-4.2848866929133855
0
LINE
8
BLACK
6
CONTINUOUS
10
3.7202755905511808
20
-4.2848866929133855
11
3.7146157086614173
21
-4.2807745275590552
0
LINE
8
BLACK
6
CONTINUOUS
10
3.7146157086614173
20
-4.2807745275590552
11
3.7099344881889764
21
-4.2755754724409449
0
LINE
8
BLACK
6
CONTINUOUS
10
3.7099344881889764
20
-4.2755754724409449
11
3.7064364566929133
21
-4.2695167716535432
0
LINE
8
BLACK
6
CONTINUOUS
10
3.7064364566929133
20
-4.2695167716535432
11
3.7042746062992125
21
-4.2628631889763779
0
LINE
8
BLACK
6
CONTINUOUS
10
3.7042746062992125
20
-4.2628631889763779
11
3.7035433070866142
21
-4.2559055118110232
0
LINE
8
BLACK
6
CONTINUOUS
10
3.7035433070866142
20
-4.2559055118110232
11
3.7042746062992125
21
-4.2489478346456693
0
LINE
8
BLACK
6
CONTINUOUS
10
3.7042746062992125
20
-4.2489478346456693
11
3.7064364566929133
21
-4.2422942519685041
0
LINE
8
BLACK
6
CONTINUOUS
10
3.7064364566929133
20
-4.2422942519685041
11
3.7099344881889764
21
-4.2362355511811023
0
LINE
8
BLACK
6
CONTINUOUS
10
3.7099344881889764
20
-4.2362355511811023
11
3.7146157086614173
21
-4.231036496062992
0
LINE
8
BLACK
6
CONTINUOUS
10
3.7146157086614173
20
-4.231036496062992
11
3.7202755905511808
21
-4.2269243307086617
0
LINE
8
BLACK
6
CONTINUOUS
10
3.7202755905511808
20
-4.2269243307086617
11
3.7266667716535431
21
-4.2240788188976373
0
LINE
8
BLACK
6
CONTINUOUS
10
3.7266667716535431
20
-4.2240788188976373
11
3.7335098818897636
21
-4.2226242519685036
0
LINE
8
BLACK
6
CONTINUOUS
10
3.7335098818897636
20
-4.2226242519685036
11
3.7405058661417323
21
-4.2226242519685036
0
LINE
8
BLACK
6
CONTINUOUS
10
3.7405058661417323
20
-4.2226242519685036
11
3.7473489763779528
21
-4.2240788188976373
0
LINE
8
BLACK
6
CONTINUOUS
10
4.0691890944881886
20
-3.850646377952756
11
4.0711049606299214
21
-3.851926535433071
0
LINE
8
BLACK
6
CONTINUOUS
10
4.0711049606299214
20
-3.851926535433071
11
4.072385118110236
21
-3.853842401574803
0
LINE
8
BLACK
6
CONTINUOUS
10
4.072385118110236
20
-3.853842401574803
11
4.0728346456692917
21
-3.8561023622047244
0
LINE
8
BLACK
6
CONTINUOUS
10
4.0728346456692917
20
-3.8561023622047244
11
4.0728346456692917
21
-3.8679133858267716
0
LINE
8
BLACK
6
CONTINUOUS
10
4.0728346456692917
20
-3.8679133858267716
11
4.072385118110236
21
-3.870173346456693
0
LINE
8
BLACK
6
CONTINUOUS
10
4.072385118110236
20
-3.870173346456693
11
4.0711049606299214
21
-3.872089212598425
0
LINE
8
BLACK
6
CONTINUOUS
10
4.0711049606299214
20
-3.872089212598425
11
4.0691890944881886
21
-3.8733693700787399
0
LINE
8
BLACK
6
CONTINUOUS
10
4.0691890944881886
20
-3.8733693700787399
11
4.0669291338582676
21
-3.8738188976377952
0
LINE
8
BLACK
6
CONTINUOUS
10
4.0669291338582676
20
-3.8738188976377952
11
4.0098425196850389
21
-3.8738188976377952
0
LINE
8
BLACK
6
CONTINUOUS
10
4.0098425196850389
20
-3.8738188976377952
11
4.007582559055118
21
-3.8733693700787399
0
LINE
8
BLACK
6
CONTINUOUS
10
4.007582559055118
20
-3.8733693700787399
11
4.005666692913386
21
-3.872089212598425
0
LINE
8
BLACK
6
CONTINUOUS
10
4.005666692913386
20
-3.872089212598425
11
4.0043865354330705
21
-3.870173346456693
0
LINE
8
BLACK
6
CONTINUOUS
10
4.0043865354330705
20
-3.870173346456693
11
4.0039370078740157
21
-3.8679133858267716
0
LINE
8
BLACK
6
CONTINUOUS
10
4.0039370078740157
20
-3.8679133858267716
11
4.0039370078740157
21
-3.8675756692913383
0
LINE
8
BLACK
6
CONTINUOUS
10
4.0039370078740157
20
-3.8675756692913383
11
3.9960629921259843
21
-3.8754496850393698
0
LINE
8
BLACK
6
CONTINUOUS
10
3.9960629921259843
20
-3.8754496850393698
11
3.9960629921259843
21
-3.926329212598425
0
LINE
8
BLACK
6
CONTINUOUS
10
3.9960629921259843
20
-3.926329212598425
11
3.9959873622047244
21
-3.9270972834645668
0
LINE
8
BLACK
6
CONTINUOUS
10
3.9959873622047244
20
-3.9270972834645668
11
3.9953994881889763
21
-3.9285164960629921
0
LINE
8
BLACK
6
CONTINUOUS
10
3.9953994881889763
20
-3.9285164960629921
11
3.9949098818897637
21
-3.9291131102362202
0
LINE
8
BLACK
6
CONTINUOUS
10
3.9949098818897637
20
-3.9291131102362202
11
3.9375984251968501
21
-3.9864245669291338
0
LINE
8
BLACK
6
CONTINUOUS
10
3.9375984251968501
20
-3.9864245669291338
11
3.9375984251968501
21
-4.1299212598425195
0
LINE
8
BLACK
6
CONTINUOUS
10
3.9375984251968501
20
-4.1299212598425195
11
3.9375984251968501
21
-4.1592519685039369
0
LINE
8
BLACK
6
CONTINUOUS
10
3.9375984251968501
20
-4.1592519685039369
11
3.9375227952755907
21
-4.160020039370079
0
LINE
8
BLACK
6
CONTINUOUS
10
3.9375227952755907
20
-4.160020039370079
11
3.9371070866141733
21
-4.1610235826771653
0
LINE
8
BLACK
6
CONTINUOUS
10
3.9371070866141733
20
-4.1610235826771653
11
3.9369349212598426
21
-4.1614392913385823
0
LINE
8
BLACK
6
CONTINUOUS
10
3.9369349212598426
20
-4.1614392913385823
11
3.9364452755905512
21
-4.162035866141732
0
LINE
8
BLACK
6
CONTINUOUS
10
3.9364452755905512
20
-4.162035866141732
11
3.8632115354330709
21
-4.2352696062992123
0
LINE
8
BLACK
6
CONTINUOUS
10
3.8632115354330709
20
-4.2352696062992123
11
3.8640812598425196
21
-4.2362355511811023
0
LINE
8
BLACK
6
CONTINUOUS
10
3.8640812598425196
20
-4.2362355511811023
11
3.8675792913385827
21
-4.2422942519685041
0
LINE
8
BLACK
6
CONTINUOUS
10
3.8675792913385827
20
-4.2422942519685041
11
3.8697411417322836
21
-4.2489478346456693
0
LINE
8
BLACK
6
CONTINUOUS
10
3.8697411417322836
20
-4.2489478346456693
11
3.8704724409448819
21
-4.2559055118110232
0
LINE
8
BLACK
6
CONTINUOUS
10
3.8704724409448819
20
-4.2559055118110232
11
3.8697411417322836
21
-4.2628631889763779
0
LINE
8
BLACK
6
CONTINUOUS
10
3.8697411417322836
20
-4.2628631889763779
11
3.8675792913385827
21
-4.2695167716535432
0
LINE
8
BLACK
6
CONTINUOUS
10
3.8675792913385827
20
-4.2695167716535432
11
3.8640812598425196
21
-4.2755754724409449
0
LINE
8
BLACK
6
CONTINUOUS
10
3.8640812598425196
20
-4.2755754724409449
11
3.8594000393700787
21
-4.2807745275590552
0
LINE
8
BLACK
6
CONTINUOUS
10
3.8594000393700787
20
-4.2807745275590552
11
3.8537401574803147
21
-4.2848866929133855
0
LINE
8
BLACK
6
CONTINUOUS
10
3.8537401574803147
20
-4.2848866929133855
11
3.8473489763779525
21
-4.2877322047244091
0
LINE
8
BLACK
6
CONTINUOUS
10
3.8473489763779525
20
-4.2877322047244091
11
3.8405058661417324
21
-4.2891867716535428
0
LINE
8
BLACK
6
CONTINUOUS
10
3.8405058661417324
20
-4.2891867716535428
11
3.8335098818897637
21
-4.2891867716535428
0
LINE
8
BLACK
6
CONTINUOUS
10
3.8335098818897637
20
-4.2891867716535428
11
3.8266667716535432
21
-4.2877322047244091
0
LINE
8
BLACK
6
CONTINUOUS
10
3.8266667716535432
20
-4.2877322047244091
11
3.8202755905511809
21
-4.2848866929133855
0
LINE
8
BLACK
6
CONTINUOUS
10
3.8202755905511809
20
-4.2848866929133855
11
3.8146157086614174
21
-4.2807745275590552
0
LINE
8
BLACK
6
CONTINUOUS
10
3.8146157086614174
20
-4.2807745275590552
11
3.8099344881889765
21
-4.2755754724409449
0
LINE
8
BLACK
6
CONTINUOUS
10
3.8099344881889765
20
-4.2755754724409449
11
3.8064364566929134
21
-4.2695167716535432
0
LINE
8
BLACK
6
CONTINUOUS
10
3.8064364566929134
20
-4.2695167716535432
11
3.8042746062992125
21
-4.2628631889763779
0
LINE
8
BLACK
6
CONTINUOUS
10
3.8042746062992125
20
-4.2628631889763779
11
3.8035433070866143
21
-4.2559055118110232
0
LINE
8
BLACK
6
CONTINUOUS
10
3.8035433070866143
20
-4.2559055118110232
11
3.8042746062992125
21
-4.2489478346456693
0
LINE
8
BLACK
6
CONTINUOUS
10
3.8042746062992125
20
-4.2489478346456693
11
3.8064364566929134
21
-4.2422942519685041
0
LINE
8
BLACK
6
CONTINUOUS
10
3.8064364566929134
20
-4.2422942519685041
11
3.8099344881889765
21
-4.2362355511811023
0
LINE
8
BLACK
6
CONTINUOUS
10
3.8099344881889765
20
-4.2362355511811023
11
3.8146157086614174
21
-4.231036496062992
0
LINE
8
BLACK
6
CONTINUOUS
10
3.8146157086614174
20
-4.231036496062992
11
3.8202755905511809
21
-4.2269243307086617
0
LINE
8
BLACK
6
CONTINUOUS
10
3.8202755905511809
20
-4.2269243307086617
11
3.8266667716535432
21
-4.2240788188976373
0
LINE
8
BLACK
6
CONTINUOUS
10
3.8266667716535432
20
-4.2240788188976373
11
3.8335098818897637
21
-4.2226242519685036
0
LINE
8
BLACK
6
CONTINUOUS
10
3.8335098818897637
20
-4.2226242519685036
11
3.8405058661417324
21
-4.2226242519685036
0
LINE
8
BLACK
6
CONTINUOUS
10
3.8405058661417324
20
-4.2226242519685036
11
3.8473489763779525
21
-4.2240788188976373
0
LINE
8
BLACK
6
CONTINUOUS
10
3.8473489763779525
20
-4.2240788188976373
11
3.8537401574803147
21
-4.2269243307086617
0
LINE
8
BLACK
6
CONTINUOUS
10
3.8537401574803147
20
-4.2269243307086617
11
3.8576097637795277
21
-4.2297357874015749
0
LINE
8
BLACK
6
CONTINUOUS
10
3.8576097637795277
20
-4.2297357874015749
11
3.9297244094488186
21
-4.1576211811023622
0
LINE
8
BLACK
6
CONTINUOUS
10
3.9297244094488186
20
-4.1576211811023622
11
3.9297244094488186
21
-4.1299212598425195
0
LINE
8
BLACK
6
CONTINUOUS
10
3.9297244094488186
20
-4.1299212598425195
11
3.9297244094488186
21
-3.9847937795275588
0
LINE
8
BLACK
6
CONTINUOUS
10
3.9297244094488186
20
-3.9847937795275588
11
3.9298000393700785
21
-3.984025708661417
0
LINE
8
BLACK
6
CONTINUOUS
10
3.9298000393700785
20
-3.984025708661417
11
3.9303879133858266
21
-3.9826064960629921
0
LINE
8
BLACK
6
CONTINUOUS
10
3.9303879133858266
20
-3.9826064960629921
11
3.9308775196850392
21
-3.9820098818897636
0
LINE
8
BLACK
6
CONTINUOUS
10
3.9308775196850392
20
-3.9820098818897636
11
3.9881889763779528
21
-3.9246984251968504
0
LINE
8
BLACK
6
CONTINUOUS
10
3.9881889763779528
20
-3.9246984251968504
11
3.9881889763779528
21
-3.8738189370078739
0
LINE
8
BLACK
6
CONTINUOUS
10
3.9881889763779528
20
-3.8738189370078739
11
3.9882646062992126
21
-3.8730508661417322
0
LINE
8
BLACK
6
CONTINUOUS
10
3.9882646062992126
20
-3.8730508661417322
11
3.9888524803149608
21
-3.8716316535433069
0
LINE
8
BLACK
6
CONTINUOUS
10
3.9888524803149608
20
-3.8716316535433069
11
3.9893420866141733
21
-3.8710350393700788
0
LINE
8
BLACK
6
CONTINUOUS
10
3.9893420866141733
20
-3.8710350393700788
11
4.0011531496062993
21
-3.8592240157480315
0
LINE
8
BLACK
6
CONTINUOUS
10
4.0011531496062993
20
-3.8592240157480315
11
4.0017497244094491
21
-3.8587343700787402
0
LINE
8
BLACK
6
CONTINUOUS
10
4.0017497244094491
20
-3.8587343700787402
11
4.0021653937007873
21
-3.8585621653543307
0
LINE
8
BLACK
6
CONTINUOUS
10
4.0021653937007873
20
-3.8585621653543307
11
4.0031689763779523
21
-3.8581464960629921
0
LINE
8
BLACK
6
CONTINUOUS
10
4.0031689763779523
20
-3.8581464960629921
11
4.0039370078740157
21
-3.8580708661417322
0
LINE
8
BLACK
6
CONTINUOUS
10
4.0039370078740157
20
-3.8580708661417322
11
4.0039370078740157
21
-3.8561023622047244
0
LINE
8
BLACK
6
CONTINUOUS
10
4.0039370078740157
20
-3.8561023622047244
11
4.0043865354330705
21
-3.853842401574803
0
LINE
8
BLACK
6
CONTINUOUS
10
4.0043865354330705
20
-3.853842401574803
11
4.005666692913386
21
-3.851926535433071
0
LINE
8
BLACK
6
CONTINUOUS
10
4.005666692913386
20
-3.851926535433071
11
4.007582559055118
21
-3.850646377952756
0
LINE
8
BLACK
6
CONTINUOUS
10
4.007582559055118
20
-3.850646377952756
11
4.0098425196850389
21
-3.8501968503937007
0
LINE
8
BLACK
6
CONTINUOUS
10
4.0098425196850389
20
-3.8501968503937007
11
4.0669291338582676
21
-3.8501968503937007
0
LINE
8
BLACK
6
CONTINUOUS
10
4.0669291338582676
20
-3.8501968503937007
11
4.0691890944881886
21
-3.850646377952756
0
LINE
8
BLACK
6
CONTINUOUS
10
4.0691890944881886
20
-3.9006463779527558
11
4.0711049606299214
21
-3.9019265354330708
0
LINE
8
BLACK
6
CONTINUOUS
10
4.0711049606299214
20
-3.9019265354330708
11
4.072385118110236
21
-3.9038424015748032
0
LINE
8
BLACK
6
CONTINUOUS
10
4.072385118110236
20
-3.9038424015748032
11
4.0728346456692917
21
-3.9061023622047242
0
LINE
8
BLACK
6
CONTINUOUS
10
4.0728346456692917
20
-3.9061023622047242
11
4.0728346456692917
21
-3.908070866141732
0
LINE
8
BLACK
6
CONTINUOUS
10
4.0728346456692917
20
-3.908070866141732
11
4.0846026771653543
21
-3.908070866141732
0
LINE
8
BLACK
6
CONTINUOUS
10
4.0846026771653543
20
-3.908070866141732
11
4.086030984251968
21
-3.9055970078740159
0
LINE
8
BLACK
6
CONTINUOUS
10
4.086030984251968
20
-3.9055970078740159
11
4.089173228346457
21
-3.9029603149606298
0
LINE
8
BLACK
6
CONTINUOUS
10
4.089173228346457
20
-3.9029603149606298
11
4.0930277952755905
21
-3.9015574015748031
0
LINE
8
BLACK
6
CONTINUOUS
10
4.0930277952755905
20
-3.9015574015748031
11
4.0971296850393699
21
-3.9015574015748031
0
LINE
8
BLACK
6
CONTINUOUS
10
4.0971296850393699
20
-3.9015574015748031
11
4.1009842519685042
21
-3.9029603149606298
0
LINE
8
BLACK
6
CONTINUOUS
10
4.1009842519685042
20
-3.9029603149606298
11
4.1041264960629924
21
-3.9055970078740159
0
LINE
8
BLACK
6
CONTINUOUS
10
4.1041264960629924
20
-3.9055970078740159
11
4.1061774803149609
21
-3.9091493700787399
0
LINE
8
BLACK
6
CONTINUOUS
10
4.1061774803149609
20
-3.9091493700787399
11
4.1068897637795274
21
-3.9131889763779526
0
LINE
8
BLACK
6
CONTINUOUS
10
4.1068897637795274
20
-3.9131889763779526
11
4.1061774803149609
21
-3.9172285826771653
0
LINE
8
BLACK
6
CONTINUOUS
10
4.1061774803149609
20
-3.9172285826771653
11
4.1041264960629924
21
-3.9207809448818898
0
LINE
8
BLACK
6
CONTINUOUS
10
4.1041264960629924
20
-3.9207809448818898
11
4.1009842519685042
21
-3.9234176377952754
0
LINE
8
BLACK
6
CONTINUOUS
10
4.1009842519685042
20
-3.9234176377952754
11
4.0971296850393699
21
-3.9248205511811021
0
LINE
8
BLACK
6
CONTINUOUS
10
4.0971296850393699
20
-3.9248205511811021
11
4.0930277952755905
21
-3.9248205511811021
0
LINE
8
BLACK
6
CONTINUOUS
10
4.0930277952755905
20
-3.9248205511811021
11
4.089173228346457
21
-3.9234176377952754
0
LINE
8
BLACK
6
CONTINUOUS
10
4.089173228346457
20
-3.9234176377952754
11
4.086030984251968
21
-3.9207809448818898
0
LINE
8
BLACK
6
CONTINUOUS
10
4.086030984251968
20
-3.9207809448818898
11
4.0839799999999995
21
-3.9172285826771653
0
LINE
8
BLACK
6
CONTINUOUS
10
4.0839799999999995
20
-3.9172285826771653
11
4.0837536614173224
21
-3.9159448818897635
0
LINE
8
BLACK
6
CONTINUOUS
10
4.0837536614173224
20
-3.9159448818897635
11
4.0728346456692917
21
-3.9159448818897635
0
LINE
8
BLACK
6
CONTINUOUS
10
4.0728346456692917
20
-3.9159448818897635
11
4.0728346456692917
21
-3.9179133858267714
0
LINE
8
BLACK
6
CONTINUOUS
10
4.0728346456692917
20
-3.9179133858267714
11
4.072385118110236
21
-3.9201733464566928
0
LINE
8
BLACK
6
CONTINUOUS
10
4.072385118110236
20
-3.9201733464566928
11
4.0711049606299214
21
-3.9220892125984252
0
LINE
8
BLACK
6
CONTINUOUS
10
4.0711049606299214
20
-3.9220892125984252
11
4.0691890944881886
21
-3.9233693700787402
0
LINE
8
BLACK
6
CONTINUOUS
10
4.0691890944881886
20
-3.9233693700787402
11
4.0669291338582676
21
-3.923818897637795
0
LINE
8
BLACK
6
CONTINUOUS
10
4.0669291338582676
20
-3.923818897637795
11
4.022475157480315
21
-3.923818897637795
0
LINE
8
BLACK
6
CONTINUOUS
10
4.022475157480315
20
-3.923818897637795
11
3.9533464566929135
21
-3.992947598425197
0
LINE
8
BLACK
6
CONTINUOUS
10
3.9533464566929135
20
-3.992947598425197
11
3.9533464566929135
21
-4.2267490157480312
0
LINE
8
BLACK
6
CONTINUOUS
10
3.9533464566929135
20
-4.2267490157480312
11
3.9537401574803148
21
-4.2269243307086617
0
LINE
8
BLACK
6
CONTINUOUS
10
3.9537401574803148
20
-4.2269243307086617
11
3.9594000393700788
21
-4.231036496062992
0
LINE
8
BLACK
6
CONTINUOUS
10
3.9594000393700788
20
-4.231036496062992
11
3.9640812598425197
21
-4.2362355511811023
0
LINE
8
BLACK
6
CONTINUOUS
10
3.9640812598425197
20
-4.2362355511811023
11
3.9675792913385828
21
-4.2422942519685041
0
LINE
8
BLACK
6
CONTINUOUS
10
3.9675792913385828
20
-4.2422942519685041
11
3.9697411417322832
21
-4.2489478346456693
0
LINE
8
BLACK
6
CONTINUOUS
10
3.9697411417322832
20
-4.2489478346456693
11
3.9704724409448819
21
-4.2559055118110232
0
LINE
8
BLACK
6
CONTINUOUS
10
3.9704724409448819
20
-4.2559055118110232
11
3.9697411417322832
21
-4.2628631889763779
0
LINE
8
BLACK
6
CONTINUOUS
10
3.9697411417322832
20
-4.2628631889763779
11
3.9675792913385828
21
-4.2695167716535432
0
LINE
8
BLACK
6
CONTINUOUS
10
3.9675792913385828
20
-4.2695167716535432
11
3.9640812598425197
21
-4.2755754724409449
0
LINE
8
BLACK
6
CONTINUOUS
10
3.9640812598425197
20
-4.2755754724409449
11
3.9594000393700788
21
-4.2807745275590552
0
LINE
8
BLACK
6
CONTINUOUS
10
3.9594000393700788
20
-4.2807745275590552
11
3.9537401574803148
21
-4.2848866929133855
0
LINE
8
BLACK
6
CONTINUOUS
10
3.9537401574803148
20
-4.2848866929133855
11
3.9473489763779526
21
-4.2877322047244091
0
LINE
8
BLACK
6
CONTINUOUS
10
3.9473489763779526
20
-4.2877322047244091
11
3.940505866141732
21
-4.2891867716535428
0
LINE
8
BLACK
6
CONTINUOUS
10
3.940505866141732
20
-4.2891867716535428
11
3.9335098818897638
21
-4.2891867716535428
0
LINE
8
BLACK
6
CONTINUOUS
10
3.9335098818897638
20
-4.2891867716535428
11
3.9266667716535433
21
-4.2877322047244091
0
LINE
8
BLACK
6
CONTINUOUS
10
3.9266667716535433
20
-4.2877322047244091
11
3.920275590551181
21
-4.2848866929133855
0
LINE
8
BLACK
6
CONTINUOUS
10
3.920275590551181
20
-4.2848866929133855
11
3.9146157086614171
21
-4.2807745275590552
0
LINE
8
BLACK
6
CONTINUOUS
10
3.9146157086614171
20
-4.2807745275590552
11
3.9099344881889762
21
-4.2755754724409449
0
LINE
8
BLACK
6
CONTINUOUS
10
3.9099344881889762
20
-4.2755754724409449
11
3.9064364566929135
21
-4.2695167716535432
0
LINE
8
BLACK
6
CONTINUOUS
10
3.9064364566929135
20
-4.2695167716535432
11
3.9042746062992126
21
-4.2628631889763779
0
LINE
8
BLACK
6
CONTINUOUS
10
3.9042746062992126
20
-4.2628631889763779
11
3.9035433070866139
21
-4.2559055118110232
0
LINE
8
BLACK
6
CONTINUOUS
10
3.9035433070866139
20
-4.2559055118110232
11
3.9042746062992126
21
-4.2489478346456693
0
LINE
8
BLACK
6
CONTINUOUS
10
3.9042746062992126
20
-4.2489478346456693
11
3.9064364566929135
21
-4.2422942519685041
0
LINE
8
BLACK
6
CONTINUOUS
10
3.9064364566929135
20
-4.2422942519685041
11
3.9099344881889762
21
-4.2362355511811023
0
LINE
8
BLACK
6
CONTINUOUS
10
3.9099344881889762
20
-4.2362355511811023
11
3.9146157086614171
21
-4.231036496062992
0
LINE
8
BLACK
6
CONTINUOUS
10
3.9146157086614171
20
-4.231036496062992
11
3.920275590551181
21
-4.2269243307086617
0
LINE
8
BLACK
6
CONTINUOUS
10
3.920275590551181
20
-4.2269243307086617
11
3.9266667716535433
21
-4.2240788188976373
0
LINE
8
BLACK
6
CONTINUOUS
10
3.9266667716535433
20
-4.2240788188976373
11
3.9335098818897638
21
-4.2226242519685036
0
LINE
8
BLACK
6
CONTINUOUS
10
3.9335098818897638
20
-4.2226242519685036
11
3.940505866141732
21
-4.2226242519685036
0
LINE
8
BLACK
6
CONTINUOUS
10
3.940505866141732
20
-4.2226242519685036
11
3.9454724409448816
21
-4.2236799212598424
0
LINE
8
BLACK
6
CONTINUOUS
10
3.9454724409448816
20
-4.2236799212598424
11
3.9454724409448816
21
-3.9913168503937007
0
LINE
8
BLACK
6
CONTINUOUS
10
3.9454724409448816
20
-3.9913168503937007
11
3.9455480708661415
21
-3.9905487795275589
0
LINE
8
BLACK
6
CONTINUOUS
10
3.9455480708661415
20
-3.9905487795275589
11
3.9461359448818896
21
-3.9891295669291336
0
LINE
8
BLACK
6
CONTINUOUS
10
3.9461359448818896
20
-3.9891295669291336
11
3.9466255511811021
21
-3.9885329527559055
0
LINE
8
BLACK
6
CONTINUOUS
10
3.9466255511811021
20
-3.9885329527559055
11
4.0113396456692909
21
-3.923818897637795
0
LINE
8
BLACK
6
CONTINUOUS
10
4.0113396456692909
20
-3.923818897637795
11
4.0098425196850389
21
-3.923818897637795
0
LINE
8
BLACK
6
CONTINUOUS
10
4.0098425196850389
20
-3.923818897637795
11
4.007582559055118
21
-3.9233693700787402
0
LINE
8
BLACK
6
CONTINUOUS
10
4.007582559055118
20
-3.9233693700787402
11
4.005666692913386
21
-3.9220892125984252
0
LINE
8
BLACK
6
CONTINUOUS
10
4.005666692913386
20
-3.9220892125984252
11
4.0043865354330705
21
-3.9201733464566928
0
LINE
8
BLACK
6
CONTINUOUS
10
4.0043865354330705
20
-3.9201733464566928
11
4.0039370078740157
21
-3.9179133858267714
0
LINE
8
BLACK
6
CONTINUOUS
10
4.0039370078740157
20
-3.9179133858267714
11
4.0039370078740157
21
-3.9061023622047242
0
LINE
8
BLACK
6
CONTINUOUS
10
4.0039370078740157
20
-3.9061023622047242
11
4.0043865354330705
21
-3.9038424015748032
0
LINE
8
BLACK
6
CONTINUOUS
10
4.0043865354330705
20
-3.9038424015748032
11
4.005666692913386
21
-3.9019265354330708
0
LINE
8
BLACK
6
CONTINUOUS
10
4.005666692913386
20
-3.9019265354330708
11
4.007582559055118
21
-3.9006463779527558
0
LINE
8
BLACK
6
CONTINUOUS
10
4.007582559055118
20
-3.9006463779527558
11
4.0098425196850389
21
-3.9001968503937006
0
LINE
8
BLACK
6
CONTINUOUS
10
4.0098425196850389
20
-3.9001968503937006
11
4.0669291338582676
21
-3.9001968503937006
0
LINE
8
BLACK
6
CONTINUOUS
10
4.0669291338582676
20
-3.9001968503937006
11
4.0691890944881886
21
-3.9006463779527558
0
LINE
8
BLACK
6
CONTINUOUS
10
4.0691890944881886
20
-3.9506463779527556
11
4.0711049606299214
21
-3.9519265354330706
0
LINE
8
BLACK
6
CONTINUOUS
10
4.0711049606299214
20
-3.9519265354330706
11
4.072385118110236
21
-3.953842401574803
0
LINE
8
BLACK
6
CONTINUOUS
10
4.072385118110236
20
-3.953842401574803
11
4.0728346456692917
21
-3.9561023622047244
0
LINE
8
BLACK
6
CONTINUOUS
10
4.0728346456692917
20
-3.9561023622047244
11
4.0728346456692917
21
-3.9643700787401572
0
LINE
8
BLACK
6
CONTINUOUS
10
4.0728346456692917
20
-3.9643700787401572
11
4.0800248818897638
21
-3.9643700787401572
0
LINE
8
BLACK
6
CONTINUOUS
10
4.0800248818897638
20
-3.9643700787401572
11
4.0800429921259838
21
-3.9642674803149607
0
LINE
8
BLACK
6
CONTINUOUS
10
4.0800429921259838
20
-3.9642674803149607
11
4.0820939763779522
21
-3.9607151181102362
0
LINE
8
BLACK
6
CONTINUOUS
10
4.0820939763779522
20
-3.9607151181102362
11
4.0852362204724413
21
-3.9580784251968502
0
LINE
8
BLACK
6
CONTINUOUS
10
4.0852362204724413
20
-3.9580784251968502
11
4.0890907874015747
21
-3.9566755118110235
0
LINE
8
BLACK
6
CONTINUOUS
10
4.0890907874015747
20
-3.9566755118110235
11
4.0931926771653542
21
-3.9566755118110235
0
LINE
8
BLACK
6
CONTINUOUS
10
4.0931926771653542
20
-3.9566755118110235
11
4.0970472440944885
21
-3.9580784251968502
0
LINE
8
BLACK
6
CONTINUOUS
10
4.0970472440944885
20
-3.9580784251968502
11
4.1001894881889767
21
-3.9607151181102362
0
LINE
8
BLACK
6
CONTINUOUS
10
4.1001894881889767
20
-3.9607151181102362
11
4.1022404724409451
21
-3.9642674803149607
0
LINE
8
BLACK
6
CONTINUOUS
10
4.1022404724409451
20
-3.9642674803149607
11
4.1029527559055117
21
-3.968307086614173
0
LINE
8
BLACK
6
CONTINUOUS
10
4.1029527559055117
20
-3.968307086614173
11
4.1022404724409451
21
-3.9723466929133857
0
LINE
8
BLACK
6
CONTINUOUS
10
4.1022404724409451
20
-3.9723466929133857
11
4.101694566929134
21
-3.9732921653543305
0
LINE
8
BLACK
6
CONTINUOUS
10
4.101694566929134
20
-3.9732921653543305
11
4.1130201181102359
21
-3.9846177165354328
0
LINE
8
BLACK
6
CONTINUOUS
10
4.1130201181102359
20
-3.9846177165354328
11
4.1135097637795273
21
-3.9852142913385826
0
LINE
8
BLACK
6
CONTINUOUS
10
4.1135097637795273
20
-3.9852142913385826
11
4.1140975984251966
21
-3.986633503937008
0
LINE
8
BLACK
6
CONTINUOUS
10
4.1140975984251966
20
-3.986633503937008
11
4.1140975984251966
21
-3.9881696456692914
0
LINE
8
BLACK
6
CONTINUOUS
10
4.1140975984251966
20
-3.9881696456692914
11
4.1135097637795273
21
-3.9895888976377951
0
LINE
8
BLACK
6
CONTINUOUS
10
4.1135097637795273
20
-3.9895888976377951
11
4.1124235433070861
21
-3.9906751181102362
0
LINE
8
BLACK
6
CONTINUOUS
10
4.1124235433070861
20
-3.9906751181102362
11
4.1110042913385829
21
-3.9912629527559056
0
LINE
8
BLACK
6
CONTINUOUS
10
4.1110042913385829
20
-3.9912629527559056
11
4.1094681496062995
21
-3.9912629527559056
0
LINE
8
BLACK
6
CONTINUOUS
10
4.1094681496062995
20
-3.9912629527559056
11
4.1080489370078741
21
-3.9906751181102362
0
LINE
8
BLACK
6
CONTINUOUS
10
4.1080489370078741
20
-3.9906751181102362
11
4.1074523622047243
21
-3.9901854724409449
0
LINE
8
BLACK
6
CONTINUOUS
10
4.1074523622047243
20
-3.9901854724409449
11
4.096134724409449
21
-3.9788678346456692
0
LINE
8
BLACK
6
CONTINUOUS
10
4.096134724409449
20
-3.9788678346456692
11
4.0931926771653542
21
-3.9799386614173229
0
LINE
8
BLACK
6
CONTINUOUS
10
4.0931926771653542
20
-3.9799386614173229
11
4.0890907874015747
21
-3.9799386614173229
0
LINE
8
BLACK
6
CONTINUOUS
10
4.0890907874015747
20
-3.9799386614173229
11
4.0852362204724413
21
-3.9785357480314958
0
LINE
8
BLACK
6
CONTINUOUS
10
4.0852362204724413
20
-3.9785357480314958
11
4.0820939763779522
21
-3.9758990551181101
0
LINE
8
BLACK
6
CONTINUOUS
10
4.0820939763779522
20
-3.9758990551181101
11
4.0800429921259838
21
-3.9723466929133857
0
LINE
8
BLACK
6
CONTINUOUS
10
4.0800429921259838
20
-3.9723466929133857
11
4.0800248818897638
21
-3.9722440944881887
0
LINE
8
BLACK
6
CONTINUOUS
10
4.0800248818897638
20
-3.9722440944881887
11
4.0708731496062995
21
-3.9722440944881887
0
LINE
8
BLACK
6
CONTINUOUS
10
4.0708731496062995
20
-3.9722440944881887
11
4.0691890944881886
21
-3.97336937007874
0
LINE
8
BLACK
6
CONTINUOUS
10
4.0691890944881886
20
-3.97336937007874
11
4.0669291338582676
21
-3.9738188976377953
0
LINE
8
BLACK
6
CONTINUOUS
10
4.0669291338582676
20
-3.9738188976377953
11
4.0660008661417324
21
-3.9738188976377953
0
LINE
8
BLACK
6
CONTINUOUS
10
4.0660008661417324
20
-3.9738188976377953
11
4.0964846850393704
21
-4.0043027559055115
0
LINE
8
BLACK
6
CONTINUOUS
10
4.0964846850393704
20
-4.0043027559055115
11
4.0969743307086617
21
-4.0048993307086613
0
LINE
8
BLACK
6
CONTINUOUS
10
4.0969743307086617
20
-4.0048993307086613
11
4.097562165354331
21
-4.0063185433070867
0
LINE
8
BLACK
6
CONTINUOUS
10
4.097562165354331
20
-4.0063185433070867
11
4.09763779527559
21
-4.007086614173228
0
LINE
8
BLACK
6
CONTINUOUS
10
4.09763779527559
20
-4.007086614173228
11
4.09763779527559
21
-4.1535433070866139
0
LINE
8
BLACK
6
CONTINUOUS
10
4.09763779527559
20
-4.1535433070866139
11
4.09763779527559
21
-4.1992125984251967
0
LINE
8
BLACK
6
CONTINUOUS
10
4.09763779527559
20
-4.1992125984251967
11
4.097562165354331
21
-4.1999806692913388
0
LINE
8
BLACK
6
CONTINUOUS
10
4.097562165354331
20
-4.1999806692913388
11
4.0969743307086617
21
-4.2013998818897633
0
LINE
8
BLACK
6
CONTINUOUS
10
4.0969743307086617
20
-4.2013998818897633
11
4.0964846850393704
21
-4.2019964566929131
0
LINE
8
BLACK
6
CONTINUOUS
10
4.0964846850393704
20
-4.2019964566929131
11
4.0632115354330711
21
-4.2352696062992123
0
LINE
8
BLACK
6
CONTINUOUS
10
4.0632115354330711
20
-4.2352696062992123
11
4.0640812598425198
21
-4.2362355511811023
0
LINE
8
BLACK
6
CONTINUOUS
10
4.0640812598425198
20
-4.2362355511811023
11
4.0675792913385829
21
-4.2422942519685041
0
LINE
8
BLACK
6
CONTINUOUS
10
4.0675792913385829
20
-4.2422942519685041
11
4.0697411417322833
21
-4.2489478346456693
0
LINE
8
BLACK
6
CONTINUOUS
10
4.0697411417322833
20
-4.2489478346456693
11
4.070472440944882
21
-4.2559055118110232
0
LINE
8
BLACK
6
CONTINUOUS
10
4.070472440944882
20
-4.2559055118110232
11
4.0697411417322833
21
-4.2628631889763779
0
LINE
8
BLACK
6
CONTINUOUS
10
4.0697411417322833
20
-4.2628631889763779
11
4.0675792913385829
21
-4.2695167716535432
0
LINE
8
BLACK
6
CONTINUOUS
10
4.0675792913385829
20
-4.2695167716535432
11
4.0640812598425198
21
-4.2755754724409449
0
LINE
8
BLACK
6
CONTINUOUS
10
4.0640812598425198
20
-4.2755754724409449
11
4.0594000393700789
21
-4.2807745275590552
0
LINE
8
BLACK
6
CONTINUOUS
10
4.0594000393700789
20
-4.2807745275590552
11
4.0537401574803145
21
-4.2848866929133855
0
LINE
8
BLACK
6
CONTINUOUS
10
4.0537401574803145
20
-4.2848866929133855
11
4.0473489763779531
21
-4.2877322047244091
0
LINE
8
BLACK
6
CONTINUOUS
10
4.0473489763779531
20
-4.2877322047244091
11
4.0405058661417321
21
-4.2891867716535428
0
LINE
8
BLACK
6
CONTINUOUS
10
4.0405058661417321
20
-4.2891867716535428
11
4.0335098818897634
21
-4.2891867716535428
0
LINE
8
BLACK
6
CONTINUOUS
10
4.0335098818897634
20
-4.2891867716535428
11
4.0266667716535434
21
-4.2877322047244091
0
LINE
8
BLACK
6
CONTINUOUS
10
4.0266667716535434
20
-4.2877322047244091
11
4.0202755905511811
21
-4.2848866929133855
0
LINE
8
BLACK
6
CONTINUOUS
10
4.0202755905511811
20
-4.2848866929133855
11
4.0146157086614176
21
-4.2807745275590552
0
LINE
8
BLACK
6
CONTINUOUS
10
4.0146157086614176
20
-4.2807745275590552
11
4.0099344881889767
21
-4.2755754724409449
0
LINE
8
BLACK
6
CONTINUOUS
10
4.0099344881889767
20
-4.2755754724409449
11
4.0064364566929136
21
-4.2695167716535432
0
LINE
8
BLACK
6
CONTINUOUS
10
4.0064364566929136
20
-4.2695167716535432
11
4.0042746062992123
21
-4.2628631889763779
0
LINE
8
BLACK
6
CONTINUOUS
10
4.0042746062992123
20
-4.2628631889763779
11
4.0035433070866144
21
-4.2559055118110232
0
LINE
8
BLACK
6
CONTINUOUS
10
4.0035433070866144
20
-4.2559055118110232
11
4.0042746062992123
21
-4.2489478346456693
0
LINE
8
BLACK
6
CONTINUOUS
10
4.0042746062992123
20
-4.2489478346456693
11
4.0064364566929136
21
-4.2422942519685041
0
LINE
8
BLACK
6
CONTINUOUS
10
4.0064364566929136
20
-4.2422942519685041
11
4.0099344881889767
21
-4.2362355511811023
0
LINE
8
BLACK
6
CONTINUOUS
10
4.0099344881889767
20
-4.2362355511811023
11
4.0146157086614176
21
-4.231036496062992
0
LINE
8
BLACK
6
CONTINUOUS
10
4.0146157086614176
20
-4.231036496062992
11
4.0202755905511811
21
-4.2269243307086617
0
LINE
8
BLACK
6
CONTINUOUS
10
4.0202755905511811
20
-4.2269243307086617
11
4.0266667716535434
21
-4.2240788188976373
0
LINE
8
BLACK
6
CONTINUOUS
10
4.0266667716535434
20
-4.2240788188976373
11
4.0335098818897634
21
-4.2226242519685036
0
LINE
8
BLACK
6
CONTINUOUS
10
4.0335098818897634
20
-4.2226242519685036
11
4.0405058661417321
21
-4.2226242519685036
0
LINE
8
BLACK
6
CONTINUOUS
10
4.0405058661417321
20
-4.2226242519685036
11
4.0473489763779531
21
-4.2240788188976373
0
LINE
8
BLACK
6
CONTINUOUS
10
4.0473489763779531
20
-4.2240788188976373
11
4.0537401574803145
21
-4.2269243307086617
0
LINE
8
BLACK
6
CONTINUOUS
10
4.0537401574803145
20
-4.2269243307086617
11
4.0576097637795279
21
-4.2297357874015749
0
LINE
8
BLACK
6
CONTINUOUS
10
4.0576097637795279
20
-4.2297357874015749
11
4.0897637795275585
21
-4.197581811023622
0
LINE
8
BLACK
6
CONTINUOUS
10
4.0897637795275585
20
-4.197581811023622
11
4.0897637795275585
21
-4.1535433070866139
0
LINE
8
BLACK
6
CONTINUOUS
10
4.0897637795275585
20
-4.1535433070866139
11
4.0897637795275585
21
-4.0087173622047247
0
LINE
8
BLACK
6
CONTINUOUS
10
4.0897637795275585
20
-4.0087173622047247
11
4.0548652755905508
21
-3.9738188976377953
0
LINE
8
BLACK
6
CONTINUOUS
10
4.0548652755905508
20
-3.9738188976377953
11
4.0098425196850389
21
-3.9738188976377953
0
LINE
8
BLACK
6
CONTINUOUS
10
4.0098425196850389
20
-3.9738188976377953
11
4.007582559055118
21
-3.97336937007874
0
LINE
8
BLACK
6
CONTINUOUS
10
4.007582559055118
20
-3.97336937007874
11
4.005666692913386
21
-3.9720892125984251
0
LINE
8
BLACK
6
CONTINUOUS
10
4.005666692913386
20
-3.9720892125984251
11
4.0043865354330705
21
-3.9701733464566926
0
LINE
8
BLACK
6
CONTINUOUS
10
4.0043865354330705
20
-3.9701733464566926
11
4.0039370078740157
21
-3.9679133858267717
0
LINE
8
BLACK
6
CONTINUOUS
10
4.0039370078740157
20
-3.9679133858267717
11
4.0039370078740157
21
-3.9561023622047244
0
LINE
8
BLACK
6
CONTINUOUS
10
4.0039370078740157
20
-3.9561023622047244
11
4.0043865354330705
21
-3.953842401574803
0
LINE
8
BLACK
6
CONTINUOUS
10
4.0043865354330705
20
-3.953842401574803
11
4.005666692913386
21
-3.9519265354330706
0
LINE
8
BLACK
6
CONTINUOUS
10
4.005666692913386
20
-3.9519265354330706
11
4.007582559055118
21
-3.9506463779527556
0
LINE
8
BLACK
6
CONTINUOUS
10
4.007582559055118
20
-3.9506463779527556
11
4.0098425196850389
21
-3.9501968503937008
0
LINE
8
BLACK
6
CONTINUOUS
10
4.0098425196850389
20
-3.9501968503937008
11
4.0669291338582676
21
-3.9501968503937008
0
LINE
8
BLACK
6
CONTINUOUS
10
4.0669291338582676
20
-3.9501968503937008
11
4.0691890944881886
21
-3.9506463779527556
0
LINE
8
BLACK
6
CONTINUOUS
10
3.9811939370078737
20
-3.9970027559055117
11
3.9833960236220474
21
-3.9986512598425197
0
LINE
8
BLACK
6
CONTINUOUS
10
3.9833960236220474
20
-3.9986512598425197
11
3.9843573228346454
21
-4.0012285826771654
0
LINE
8
BLACK
6
CONTINUOUS
10
3.9843573228346454
20
-4.0012285826771654
11
3.9843547244094486
21
-4.0019598031496066
0
LINE
8
BLACK
6
CONTINUOUS
10
3.9843547244094486
20
-4.0019598031496066
11
3.9842322834645669
21
-4.0035155511811027
0
LINE
8
BLACK
6
CONTINUOUS
10
3.9842322834645669
20
-4.0035155511811027
11
3.9842322834645669
21
-4.0205000393700789
0
LINE
8
BLACK
6
CONTINUOUS
10
3.9842322834645669
20
-4.0205000393700789
11
3.984346496062992
21
-4.0219514566929133
0
LINE
8
BLACK
6
CONTINUOUS
10
3.984346496062992
20
-4.0219514566929133
11
3.9843465354330707
21
-4.0219516929133858
0
LINE
8
BLACK
6
CONTINUOUS
10
3.9843465354330707
20
-4.0219516929133858
11
3.9861517322834645
21
-4.0281650787401571
0
LINE
8
BLACK
6
CONTINUOUS
10
3.9861517322834645
20
-4.0281650787401571
11
3.9861517716535433
21
-4.0281651968503933
0
LINE
8
BLACK
6
CONTINUOUS
10
3.9861517716535433
20
-4.0281651968503933
11
3.9894455511811024
21
-4.0337347244094488
0
LINE
8
BLACK
6
CONTINUOUS
10
3.9894455511811024
20
-4.0337347244094488
11
3.9894457874015745
21
-4.0337350393700788
0
LINE
8
BLACK
6
CONTINUOUS
10
3.9894457874015745
20
-4.0337350393700788
11
3.9940208267716533
21
-4.0383100787401576
0
LINE
8
BLACK
6
CONTINUOUS
10
3.9940208267716533
20
-4.0383100787401576
11
3.9940209842519683
21
-4.0383101968503938
0
LINE
8
BLACK
6
CONTINUOUS
10
3.9940209842519683
20
-4.0383101968503938
11
3.9940210629921258
21
-4.0383102755905513
0
LINE
8
BLACK
6
CONTINUOUS
10
3.9940210629921258
20
-4.0383102755905513
11
3.9995906299212596
21
-4.0416040944881892
0
LINE
8
BLACK
6
CONTINUOUS
10
3.9995906299212596
20
-4.0416040944881892
11
4.001229291338583
21
-4.0420801574803145
0
LINE
8
BLACK
6
CONTINUOUS
10
4.001229291338583
20
-4.0420801574803145
11
4.0058041732283467
21
-4.0434093307086609
0
LINE
8
BLACK
6
CONTINUOUS
10
4.0058041732283467
20
-4.0434093307086609
11
4.005804291338583
21
-4.0434093307086609
0
LINE
8
BLACK
6
CONTINUOUS
10
4.005804291338583
20
-4.0434093307086609
11
4.0058043700787405
21
-4.0434093700787397
0
LINE
8
BLACK
6
CONTINUOUS
10
4.0058043700787405
20
-4.0434093700787397
11
4.0072561417322836
21
-4.0435236220472444
0
LINE
8
BLACK
6
CONTINUOUS
10
4.0072561417322836
20
-4.0435236220472444
11
4.0277354330708661
21
-4.0435236220472444
0
LINE
8
BLACK
6
CONTINUOUS
10
4.0277354330708661
20
-4.0435236220472444
11
4.0303747637795277
21
-4.0442986220472443
0
LINE
8
BLACK
6
CONTINUOUS
10
4.0303747637795277
20
-4.0442986220472443
11
4.0321761417322834
21
-4.0463775196850396
0
LINE
8
BLACK
6
CONTINUOUS
10
4.0321761417322834
20
-4.0463775196850396
11
4.0325676377952755
21
-4.0491002755905514
0
LINE
8
BLACK
6
CONTINUOUS
10
4.0325676377952755
20
-4.0491002755905514
11
4.0314249212598421
21
-4.0516024803149602
0
LINE
8
BLACK
6
CONTINUOUS
10
4.0314249212598421
20
-4.0516024803149602
11
4.0311874409448816
21
-4.051857519685039
0
LINE
8
BLACK
6
CONTINUOUS
10
4.0311874409448816
20
-4.051857519685039
11
4.0291153937007875
21
-4.0539295275590552
0
LINE
8
BLACK
6
CONTINUOUS
10
4.0291153937007875
20
-4.0539295275590552
11
4.0291153543307088
21
-4.053929566929134
0
LINE
8
BLACK
6
CONTINUOUS
10
4.0291153543307088
20
-4.053929566929134
11
4.0256504724409448
21
-4.059661141732283
0
LINE
8
BLACK
6
CONTINUOUS
10
4.0256504724409448
20
-4.059661141732283
11
4.0236579921259841
21
-4.0660553937007871
0
LINE
8
BLACK
6
CONTINUOUS
10
4.0236579921259841
20
-4.0660553937007871
11
4.0234055118110232
21
-4.0688340944881887
0
LINE
8
BLACK
6
CONTINUOUS
10
4.0234055118110232
20
-4.0688340944881887
11
4.0234055118110232
21
-4.0949453937007876
0
LINE
8
BLACK
6
CONTINUOUS
10
4.0234055118110232
20
-4.0949453937007876
11
4.0236579921259841
21
-4.0977240944881892
0
LINE
8
BLACK
6
CONTINUOUS
10
4.0236579921259841
20
-4.0977240944881892
11
4.0236579921259841
21
-4.0977241732283467
0
LINE
8
BLACK
6
CONTINUOUS
10
4.0236579921259841
20
-4.0977241732283467
11
4.0236580314960628
21
-4.0977242519685042
0
LINE
8
BLACK
6
CONTINUOUS
10
4.0236580314960628
20
-4.0977242519685042
11
4.0256504724409448
21
-4.1041183464566924
0
LINE
8
BLACK
6
CONTINUOUS
10
4.0256504724409448
20
-4.1041183464566924
11
4.0285629527559053
21
-4.1089361811023624
0
LINE
8
BLACK
6
CONTINUOUS
10
4.0285629527559053
20
-4.1089361811023624
11
4.0291153543307088
21
-4.1098499212598423
0
LINE
8
BLACK
6
CONTINUOUS
10
4.0291153543307088
20
-4.1098499212598423
11
4.0338508267716531
21
-4.1145853937007875
0
LINE
8
BLACK
6
CONTINUOUS
10
4.0338508267716531
20
-4.1145853937007875
11
4.0338509055118106
21
-4.1145854330708662
0
LINE
8
BLACK
6
CONTINUOUS
10
4.0338509055118106
20
-4.1145854330708662
11
4.0338509842519681
21
-4.1145855118110237
0
LINE
8
BLACK
6
CONTINUOUS
10
4.0338509842519681
20
-4.1145855118110237
11
4.0395824409448817
21
-4.1180503149606302
0
LINE
8
BLACK
6
CONTINUOUS
10
4.0395824409448817
20
-4.1180503149606302
11
4.0459765354330708
21
-4.1200427559055113
0
LINE
8
BLACK
6
CONTINUOUS
10
4.0459765354330708
20
-4.1200427559055113
11
4.0487552755905512
21
-4.1202952755905509
0
LINE
8
BLACK
6
CONTINUOUS
10
4.0487552755905512
20
-4.1202952755905509
11
4.0487553937007874
21
-4.1202952755905509
0
LINE
8
BLACK
6
CONTINUOUS
10
4.0487553937007874
20
-4.1202952755905509
11
4.0651771653543305
21
-4.1202952755905509
0
LINE
8
BLACK
6
CONTINUOUS
10
4.0651771653543305
20
-4.1202952755905509
11
4.0678164960629921
21
-4.1210702755905508
0
LINE
8
BLACK
6
CONTINUOUS
10
4.0678164960629921
20
-4.1210702755905508
11
4.0696178740157478
21
-4.1231491732283461
0
LINE
8
BLACK
6
CONTINUOUS
10
4.0696178740157478
20
-4.1231491732283461
11
4.0700590551181097
21
-4.125177165354331
0
LINE
8
BLACK
6
CONTINUOUS
10
4.0700590551181097
20
-4.125177165354331
11
4.0700590551181097
21
-4.1873977165354326
0
LINE
8
BLACK
6
CONTINUOUS
10
4.0700590551181097
20
-4.1873977165354326
11
4.0692840551181098
21
-4.1900370472440942
0
LINE
8
BLACK
6
CONTINUOUS
10
4.0692840551181098
20
-4.1900370472440942
11
4.0686291732283459
21
-4.1908497244094489
0
LINE
8
BLACK
6
CONTINUOUS
10
4.0686291732283459
20
-4.1908497244094489
11
4.0560444881889763
21
-4.2034343700787398
0
LINE
8
BLACK
6
CONTINUOUS
10
4.0560444881889763
20
-4.2034343700787398
11
4.0536301968503938
21
-4.2047526771653541
0
LINE
8
BLACK
6
CONTINUOUS
10
4.0536301968503938
20
-4.2047526771653541
11
4.0513289763779525
21
-4.2046979133858269
0
LINE
8
BLACK
6
CONTINUOUS
10
4.0513289763779525
20
-4.2046979133858269
11
4.0462761023622047
21
-4.2033440157480317
0
LINE
8
BLACK
6
CONTINUOUS
10
4.0462761023622047
20
-4.2033440157480317
11
4.0462757086614172
21
-4.2033439370078742
0
LINE
8
BLACK
6
CONTINUOUS
10
4.0462757086614172
20
-4.2033439370078742
11
4.0370079133858265
21
-4.20253311023622
0
LINE
8
BLACK
6
CONTINUOUS
10
4.0370079133858265
20
-4.20253311023622
11
4.037007834645669
21
-4.20253311023622
0
LINE
8
BLACK
6
CONTINUOUS
10
4.037007834645669
20
-4.20253311023622
11
4.0277399999999997
21
-4.2033439370078742
0
LINE
8
BLACK
6
CONTINUOUS
10
4.0277399999999997
20
-4.2033439370078742
11
4.0277396062992121
21
-4.2033440157480317
0
LINE
8
BLACK
6
CONTINUOUS
10
4.0277396062992121
20
-4.2033440157480317
11
4.0187537007874017
21
-4.2057517322834643
0
LINE
8
BLACK
6
CONTINUOUS
10
4.0187537007874017
20
-4.2057517322834643
11
4.0187533464566929
21
-4.2057518897637793
0
LINE
8
BLACK
6
CONTINUOUS
10
4.0187533464566929
20
-4.2057518897637793
11
4.0103216929133856
21
-4.209683622047244
0
LINE
8
BLACK
6
CONTINUOUS
10
4.0103216929133856
20
-4.209683622047244
11
4.0103216141732281
21
-4.2096836614173228
0
LINE
8
BLACK
6
CONTINUOUS
10
4.0103216141732281
20
-4.2096836614173228
11
4.0027006692913387
21
-4.2150198818897637
0
LINE
8
BLACK
6
CONTINUOUS
10
4.0027006692913387
20
-4.2150198818897637
11
3.9961222440944879
21
-4.2215983070866141
0
LINE
8
BLACK
6
CONTINUOUS
10
3.9961222440944879
20
-4.2215983070866141
11
3.9910068897637796
21
-4.2289038582677163
0
LINE
8
BLACK
6
CONTINUOUS
10
3.9910068897637796
20
-4.2289038582677163
11
3.9888581889763777
21
-4.2306213779527555
0
LINE
8
BLACK
6
CONTINUOUS
10
3.9888581889763777
20
-4.2306213779527555
11
3.9861220472440944
21
-4.2309046062992124
0
LINE
8
BLACK
6
CONTINUOUS
10
3.9861220472440944
20
-4.2309046062992124
11
3.983667125984252
21
-4.2296635433070868
0
LINE
8
BLACK
6
CONTINUOUS
10
3.983667125984252
20
-4.2296635433070868
11
3.9830088582677163
21
-4.2289038582677163
0
LINE
8
BLACK
6
CONTINUOUS
10
3.9830088582677163
20
-4.2289038582677163
11
3.9778934645669288
21
-4.2215983070866141
0
LINE
8
BLACK
6
CONTINUOUS
10
3.9778934645669288
20
-4.2215983070866141
11
3.9744810629921261
21
-4.2181859055118105
0
LINE
8
BLACK
6
CONTINUOUS
10
3.9744810629921261
20
-4.2181859055118105
11
3.9731627559055118
21
-4.215771614173228
0
LINE
8
BLACK
6
CONTINUOUS
10
3.9731627559055118
20
-4.215771614173228
11
3.9730511811023623
21
-4.214733897637795
0
LINE
8
BLACK
6
CONTINUOUS
10
3.9730511811023623
20
-4.214733897637795
11
3.9730511811023623
21
-4.1271991338582676
0
LINE
8
BLACK
6
CONTINUOUS
10
3.9730511811023623
20
-4.1271991338582676
11
3.9712672047244095
21
-4.1257022047244094
0
LINE
8
BLACK
6
CONTINUOUS
10
3.9712672047244095
20
-4.1257022047244094
11
3.969216220472441
21
-4.1221498425196845
0
LINE
8
BLACK
6
CONTINUOUS
10
3.969216220472441
20
-4.1221498425196845
11
3.9685039370078741
21
-4.1181102362204722
0
LINE
8
BLACK
6
CONTINUOUS
10
3.9685039370078741
20
-4.1181102362204722
11
3.969216220472441
21
-4.1140706299212599
0
LINE
8
BLACK
6
CONTINUOUS
10
3.969216220472441
20
-4.1140706299212599
11
3.9712672047244095
21
-4.1105182677165351
0
LINE
8
BLACK
6
CONTINUOUS
10
3.9712672047244095
20
-4.1105182677165351
11
3.9730511811023623
21
-4.1090212992125981
0
LINE
8
BLACK
6
CONTINUOUS
10
3.9730511811023623
20
-4.1090212992125981
11
3.9730511811023623
21
-4.0031316535433072
0
LINE
8
BLACK
6
CONTINUOUS
10
3.9730511811023623
20
-4.0031316535433072
11
3.9738261811023623
21
-4.0004923228346456
0
LINE
8
BLACK
6
CONTINUOUS
10
3.9738261811023623
20
-4.0004923228346456
11
3.9744809055118111
21
-3.9996798031496064
0
LINE
8
BLACK
6
CONTINUOUS
10
3.9744809055118111
20
-3.9996798031496064
11
3.9760359055118109
21
-3.9981248031496062
0
LINE
8
BLACK
6
CONTINUOUS
10
3.9760359055118109
20
-3.9981248031496062
11
3.9784501574803151
21
-3.9968065354330706
0
LINE
8
BLACK
6
CONTINUOUS
10
3.9784501574803151
20
-3.9968065354330706
11
3.9811939370078737
21
-3.9970027559055117
0
LINE
8
BLACK
6
CONTINUOUS
10
3.9159448818897635
20
-4.0604406299212599
11
3.9190871259842517
21
-4.063077322834646
0
LINE
8
BLACK
6
CONTINUOUS
10
3.9190871259842517
20
-4.063077322834646
11
3.9211381102362202
21
-4.0666296850393699
0
LINE
8
BLACK
6
CONTINUOUS
10
3.9211381102362202
20
-4.0666296850393699
11
3.9218503937007871
21
-4.0706692913385822
0
LINE
8
BLACK
6
CONTINUOUS
10
3.9218503937007871
20
-4.0706692913385822
11
3.9211381102362202
21
-4.0747088976377954
0
LINE
8
BLACK
6
CONTINUOUS
10
3.9211381102362202
20
-4.0747088976377954
11
3.9190871259842517
21
-4.0782612598425194
0
LINE
8
BLACK
6
CONTINUOUS
10
3.9190871259842517
20
-4.0782612598425194
11
3.9159448818897635
21
-4.0808979527559055
0
LINE
8
BLACK
6
CONTINUOUS
10
3.9159448818897635
20
-4.0808979527559055
11
3.9120903149606296
21
-4.0823008661417326
0
LINE
8
BLACK
6
CONTINUOUS
10
3.9120903149606296
20
-4.0823008661417326
11
3.9079884251968502
21
-4.0823008661417326
0
LINE
8
BLACK
6
CONTINUOUS
10
3.9079884251968502
20
-4.0823008661417326
11
3.9041338582677163
21
-4.0808979527559055
0
LINE
8
BLACK
6
CONTINUOUS
10
3.9041338582677163
20
-4.0808979527559055
11
3.9009916141732282
21
-4.0782612598425194
0
LINE
8
BLACK
6
CONTINUOUS
10
3.9009916141732282
20
-4.0782612598425194
11
3.8989406299212597
21
-4.0747088976377954
0
LINE
8
BLACK
6
CONTINUOUS
10
3.8989406299212597
20
-4.0747088976377954
11
3.8989225196850392
21
-4.074606299212598
0
LINE
8
BLACK
6
CONTINUOUS
10
3.8989225196850392
20
-4.074606299212598
11
3.8954724409448818
21
-4.074606299212598
0
LINE
8
BLACK
6
CONTINUOUS
10
3.8954724409448818
20
-4.074606299212598
11
3.8954724409448818
21
-4.0927165354330706
0
LINE
8
BLACK
6
CONTINUOUS
10
3.8954724409448818
20
-4.0927165354330706
11
3.8948730708661414
21
-4.0957298031496059
0
LINE
8
BLACK
6
CONTINUOUS
10
3.8948730708661414
20
-4.0957298031496059
11
3.8931661811023619
21
-4.0982842913385822
0
LINE
8
BLACK
6
CONTINUOUS
10
3.8931661811023619
20
-4.0982842913385822
11
3.8906116929133856
21
-4.0999911811023617
0
LINE
8
BLACK
6
CONTINUOUS
10
3.8906116929133856
20
-4.0999911811023617
11
3.8875984251968503
21
-4.1005905511811021
0
LINE
8
BLACK
6
CONTINUOUS
10
3.8875984251968503
20
-4.1005905511811021
11
3.8718503937007873
21
-4.1005905511811021
0
LINE
8
BLACK
6
CONTINUOUS
10
3.8718503937007873
20
-4.1005905511811021
11
3.868837125984252
21
-4.0999911811023617
0
LINE
8
BLACK
6
CONTINUOUS
10
3.868837125984252
20
-4.0999911811023617
11
3.8662826377952757
21
-4.0982842913385822
0
LINE
8
BLACK
6
CONTINUOUS
10
3.8662826377952757
20
-4.0982842913385822
11
3.8645757480314962
21
-4.0957298031496059
0
LINE
8
BLACK
6
CONTINUOUS
10
3.8645757480314962
20
-4.0957298031496059
11
3.8639763779527558
21
-4.0927165354330706
0
LINE
8
BLACK
6
CONTINUOUS
10
3.8639763779527558
20
-4.0927165354330706
11
3.8639763779527558
21
-4.0710629921259844
0
LINE
8
BLACK
6
CONTINUOUS
10
3.8639763779527558
20
-4.0710629921259844
11
3.8645757480314962
21
-4.0680497244094491
0
LINE
8
BLACK
6
CONTINUOUS
10
3.8645757480314962
20
-4.0680497244094491
11
3.8662826377952757
21
-4.0654952362204719
0
LINE
8
BLACK
6
CONTINUOUS
10
3.8662826377952757
20
-4.0654952362204719
11
3.868837125984252
21
-4.0637883464566924
0
LINE
8
BLACK
6
CONTINUOUS
10
3.868837125984252
20
-4.0637883464566924
11
3.8718503937007873
21
-4.063188976377953
0
LINE
8
BLACK
6
CONTINUOUS
10
3.8718503937007873
20
-4.063188976377953
11
3.8875984251968503
21
-4.063188976377953
0
LINE
8
BLACK
6
CONTINUOUS
10
3.8875984251968503
20
-4.063188976377953
11
3.8906116929133856
21
-4.0637883464566924
0
LINE
8
BLACK
6
CONTINUOUS
10
3.8906116929133856
20
-4.0637883464566924
11
3.8931661811023619
21
-4.0654952362204719
0
LINE
8
BLACK
6
CONTINUOUS
10
3.8931661811023619
20
-4.0654952362204719
11
3.8939927559055119
21
-4.0667322834645665
0
LINE
8
BLACK
6
CONTINUOUS
10
3.8939927559055119
20
-4.0667322834645665
11
3.8989225196850392
21
-4.0667322834645665
0
LINE
8
BLACK
6
CONTINUOUS
10
3.8989225196850392
20
-4.0667322834645665
11
3.8989406299212597
21
-4.0666296850393699
0
LINE
8
BLACK
6
CONTINUOUS
10
3.8989406299212597
20
-4.0666296850393699
11
3.9009916141732282
21
-4.063077322834646
0
LINE
8
BLACK
6
CONTINUOUS
10
3.9009916141732282
20
-4.063077322834646
11
3.9041338582677163
21
-4.0604406299212599
0
LINE
8
BLACK
6
CONTINUOUS
10
3.9041338582677163
20
-4.0604406299212599
11
3.9079884251968502
21
-4.0590377165354328
0
LINE
8
BLACK
6
CONTINUOUS
10
3.9079884251968502
20
-4.0590377165354328
11
3.9120903149606296
21
-4.0590377165354328
0
LINE
8
BLACK
6
CONTINUOUS
10
3.9120903149606296
20
-4.0590377165354328
11
3.9159448818897635
21
-4.0604406299212599
0
LINE
8
BLACK
6
CONTINUOUS
10
4.0697455511811027
20
-4.0637883464566924
11
4.072300039370079
21
-4.0654952362204719
0
LINE
8
BLACK
6
CONTINUOUS
10
4.072300039370079
20
-4.0654952362204719
11
4.0740069291338585
21
-4.0680497244094491
0
LINE
8
BLACK
6
CONTINUOUS
10
4.0740069291338585
20
-4.0680497244094491
11
4.074606299212598
21
-4.0710629921259844
0
LINE
8
BLACK
6
CONTINUOUS
10
4.074606299212598
20
-4.0710629921259844
11
4.074606299212598
21
-4.0927165354330706
0
LINE
8
BLACK
6
CONTINUOUS
10
4.074606299212598
20
-4.0927165354330706
11
4.0740069291338585
21
-4.0957298031496059
0
LINE
8
BLACK
6
CONTINUOUS
10
4.0740069291338585
20
-4.0957298031496059
11
4.072300039370079
21
-4.0982842913385822
0
LINE
8
BLACK
6
CONTINUOUS
10
4.072300039370079
20
-4.0982842913385822
11
4.0697455511811027
21
-4.0999911811023617
0
LINE
8
BLACK
6
CONTINUOUS
10
4.0697455511811027
20
-4.0999911811023617
11
4.0667322834645665
21
-4.1005905511811021
0
LINE
8
BLACK
6
CONTINUOUS
10
4.0667322834645665
20
-4.1005905511811021
11
4.0509842519685035
21
-4.1005905511811021
0
LINE
8
BLACK
6
CONTINUOUS
10
4.0509842519685035
20
-4.1005905511811021
11
4.0479709842519682
21
-4.0999911811023617
0
LINE
8
BLACK
6
CONTINUOUS
10
4.0479709842519682
20
-4.0999911811023617
11
4.0454164960629919
21
-4.0982842913385822
0
LINE
8
BLACK
6
CONTINUOUS
10
4.0454164960629919
20
-4.0982842913385822
11
4.0437096062992124
21
-4.0957298031496059
0
LINE
8
BLACK
6
CONTINUOUS
10
4.0437096062992124
20
-4.0957298031496059
11
4.0431102362204721
21
-4.0927165354330706
0
LINE
8
BLACK
6
CONTINUOUS
10
4.0431102362204721
20
-4.0927165354330706
11
4.0431102362204721
21
-4.0710629921259844
0
LINE
8
BLACK
6
CONTINUOUS
10
4.0431102362204721
20
-4.0710629921259844
11
4.0437096062992124
21
-4.0680497244094491
0
LINE
8
BLACK
6
CONTINUOUS
10
4.0437096062992124
20
-4.0680497244094491
11
4.0454164960629919
21
-4.0654952362204719
0
LINE
8
BLACK
6
CONTINUOUS
10
4.0454164960629919
20
-4.0654952362204719
11
4.0479709842519682
21
-4.0637883464566924
0
LINE
8
BLACK
6
CONTINUOUS
10
4.0479709842519682
20
-4.0637883464566924
11
4.0509842519685035
21
-4.063188976377953
0
LINE
8
BLACK
6
CONTINUOUS
10
4.0509842519685035
20
-4.063188976377953
11
4.0667322834645665
21
-4.063188976377953
0
LINE
8
BLACK
6
CONTINUOUS
10
4.0667322834645665
20
-4.063188976377953
11
4.0697455511811027
21
-4.0637883464566924
0
LINE
8
BLACK
6
CONTINUOUS
10
3.772090708661417
20
-3.9030364960629922
11
3.7749645275590549
21
-3.9049567322834644
0
LINE
8
BLACK
6
CONTINUOUS
10
3.7749645275590549
20
-3.9049567322834644
11
3.7768847637795275
21
-3.9078305511811022
0
LINE
8
BLACK
6
CONTINUOUS
10
3.7768847637795275
20
-3.9078305511811022
11
3.7775590551181102
21
-3.9112204724409447
0
LINE
8
BLACK
6
CONTINUOUS
10
3.7775590551181102
20
-3.9112204724409447
11
3.7775590551181102
21
-3.9289370078740156
0
LINE
8
BLACK
6
CONTINUOUS
10
3.7775590551181102
20
-3.9289370078740156
11
3.7768847637795275
21
-3.9323269291338581
0
LINE
8
BLACK
6
CONTINUOUS
10
3.7768847637795275
20
-3.9323269291338581
11
3.7749645275590549
21
-3.9352007480314959
0
LINE
8
BLACK
6
CONTINUOUS
10
3.7749645275590549
20
-3.9352007480314959
11
3.772090708661417
21
-3.9371209842519685
0
LINE
8
BLACK
6
CONTINUOUS
10
3.772090708661417
20
-3.9371209842519685
11
3.7687007874015745
21
-3.9377952755905512
0
LINE
8
BLACK
6
CONTINUOUS
10
3.7687007874015745
20
-3.9377952755905512
11
3.7627952755905509
21
-3.9377952755905512
0
LINE
8
BLACK
6
CONTINUOUS
10
3.7627952755905509
20
-3.9377952755905512
11
3.7627952755905509
21
-3.968307086614173
0
LINE
8
BLACK
6
CONTINUOUS
10
3.7627952755905509
20
-3.968307086614173
11
3.7627196456692911
21
-3.9690751574803147
0
LINE
8
BLACK
6
CONTINUOUS
10
3.7627196456692911
20
-3.9690751574803147
11
3.7624918110236218
21
-3.9696250787401572
0
LINE
8
BLACK
6
CONTINUOUS
10
3.7624918110236218
20
-3.9696250787401572
11
3.7648337401574801
21
-3.9711898818897637
0
LINE
8
BLACK
6
CONTINUOUS
10
3.7648337401574801
20
-3.9711898818897637
11
3.7669673228346454
21
-3.9743830314960631
0
LINE
8
BLACK
6
CONTINUOUS
10
3.7669673228346454
20
-3.9743830314960631
11
3.7677165354330708
21
-3.9781496062992123
0
LINE
8
BLACK
6
CONTINUOUS
10
3.7677165354330708
20
-3.9781496062992123
11
3.7677165354330708
21
-3.997834645669291
0
LINE
8
BLACK
6
CONTINUOUS
10
3.7677165354330708
20
-3.997834645669291
11
3.7669673228346454
21
-4.0016012204724412
0
LINE
8
BLACK
6
CONTINUOUS
10
3.7669673228346454
20
-4.0016012204724412
11
3.7648337401574801
21
-4.0047943700787405
0
LINE
8
BLACK
6
CONTINUOUS
10
3.7648337401574801
20
-4.0047943700787405
11
3.7628612204724408
21
-4.0061123228346451
0
LINE
8
BLACK
6
CONTINUOUS
10
3.7628612204724408
20
-4.0061123228346451
11
3.7648197244094486
21
-4.0080708661417326
0
LINE
8
BLACK
6
CONTINUOUS
10
3.7648197244094486
20
-4.0080708661417326
11
3.8011811023622046
21
-4.0080708661417326
0
LINE
8
BLACK
6
CONTINUOUS
10
3.8011811023622046
20
-4.0080708661417326
11
3.8011811023622046
21
-4.0061023622047243
0
LINE
8
BLACK
6
CONTINUOUS
10
3.8011811023622046
20
-4.0061023622047243
11
3.8016306299212599
21
-4.0038424015748033
0
LINE
8
BLACK
6
CONTINUOUS
10
3.8016306299212599
20
-4.0038424015748033
11
3.8029107874015748
21
-4.0019265354330704
0
LINE
8
BLACK
6
CONTINUOUS
10
3.8029107874015748
20
-4.0019265354330704
11
3.8048266535433068
21
-4.0006463779527559
0
LINE
8
BLACK
6
CONTINUOUS
10
3.8048266535433068
20
-4.0006463779527559
11
3.8070866141732282
21
-4.0001968503937011
0
LINE
8
BLACK
6
CONTINUOUS
10
3.8070866141732282
20
-4.0001968503937011
11
3.8641732283464565
21
-4.0001968503937011
0
LINE
8
BLACK
6
CONTINUOUS
10
3.8641732283464565
20
-4.0001968503937011
11
3.8664331889763779
21
-4.0006463779527559
0
LINE
8
BLACK
6
CONTINUOUS
10
3.8664331889763779
20
-4.0006463779527559
11
3.8683490551181103
21
-4.0019265354330704
0
LINE
8
BLACK
6
CONTINUOUS
10
3.8683490551181103
20
-4.0019265354330704
11
3.8696292125984253
21
-4.0038424015748033
0
LINE
8
BLACK
6
CONTINUOUS
10
3.8696292125984253
20
-4.0038424015748033
11
3.8700787401574801
21
-4.0061023622047243
0
LINE
8
BLACK
6
CONTINUOUS
10
3.8700787401574801
20
-4.0061023622047243
11
3.8700787401574801
21
-4.0179133858267715
0
LINE
8
BLACK
6
CONTINUOUS
10
3.8700787401574801
20
-4.0179133858267715
11
3.8696292125984253
21
-4.0201733464566924
0
LINE
8
BLACK
6
CONTINUOUS
10
3.8696292125984253
20
-4.0201733464566924
11
3.8683490551181103
21
-4.0220892125984253
0
LINE
8
BLACK
6
CONTINUOUS
10
3.8683490551181103
20
-4.0220892125984253
11
3.8664331889763779
21
-4.0233693700787398
0
LINE
8
BLACK
6
CONTINUOUS
10
3.8664331889763779
20
-4.0233693700787398
11
3.8641732283464565
21
-4.0238188976377955
0
LINE
8
BLACK
6
CONTINUOUS
10
3.8641732283464565
20
-4.0238188976377955
11
3.8070866141732282
21
-4.0238188976377955
0
LINE
8
BLACK
6
CONTINUOUS
10
3.8070866141732282
20
-4.0238188976377955
11
3.8048266535433068
21
-4.0233693700787398
0
LINE
8
BLACK
6
CONTINUOUS
10
3.8048266535433068
20
-4.0233693700787398
11
3.8029107874015748
21
-4.0220892125984253
0
LINE
8
BLACK
6
CONTINUOUS
10
3.8029107874015748
20
-4.0220892125984253
11
3.8016306299212599
21
-4.0201733464566924
0
LINE
8
BLACK
6
CONTINUOUS
10
3.8016306299212599
20
-4.0201733464566924
11
3.8011811023622046
21
-4.0179133858267715
0
LINE
8
BLACK
6
CONTINUOUS
10
3.8011811023622046
20
-4.0179133858267715
11
3.8011811023622046
21
-4.0159448818897641
0
LINE
8
BLACK
6
CONTINUOUS
10
3.8011811023622046
20
-4.0159448818897641
11
3.7631889763779527
21
-4.0159448818897641
0
LINE
8
BLACK
6
CONTINUOUS
10
3.7631889763779527
20
-4.0159448818897641
11
3.762420905511811
21
-4.0158692519685042
0
LINE
8
BLACK
6
CONTINUOUS
10
3.762420905511811
20
-4.0158692519685042
11
3.7614173228346455
21
-4.0154535433070864
0
LINE
8
BLACK
6
CONTINUOUS
10
3.7614173228346455
20
-4.0154535433070864
11
3.7610016535433068
21
-4.0152813779527561
0
LINE
8
BLACK
6
CONTINUOUS
10
3.7610016535433068
20
-4.0152813779527561
11
3.7604050787401575
21
-4.0147917322834648
0
LINE
8
BLACK
6
CONTINUOUS
10
3.7604050787401575
20
-4.0147917322834648
11
3.7532905118110236
21
-4.0076771653543304
0
LINE
8
BLACK
6
CONTINUOUS
10
3.7532905118110236
20
-4.0076771653543304
11
3.7204724409448819
21
-4.0076771653543304
0
LINE
8
BLACK
6
CONTINUOUS
10
3.7204724409448819
20
-4.0076771653543304
11
3.7167058661417323
21
-4.0069279527559054
0
LINE
8
BLACK
6
CONTINUOUS
10
3.7167058661417323
20
-4.0069279527559054
11
3.7135127165354329
21
-4.0047943700787405
0
LINE
8
BLACK
6
CONTINUOUS
10
3.7135127165354329
20
-4.0047943700787405
11
3.7113791338582676
21
-4.0016012204724412
0
LINE
8
BLACK
6
CONTINUOUS
10
3.7113791338582676
20
-4.0016012204724412
11
3.7106299212598426
21
-3.997834645669291
0
LINE
8
BLACK
6
CONTINUOUS
10
3.7106299212598426
20
-3.997834645669291
11
3.7106299212598426
21
-3.9781496062992123
0
LINE
8
BLACK
6
CONTINUOUS
10
3.7106299212598426
20
-3.9781496062992123
11
3.7113791338582676
21
-3.9743830314960631
0
LINE
8
BLACK
6
CONTINUOUS
10
3.7113791338582676
20
-3.9743830314960631
11
3.7135127165354329
21
-3.9711898818897637
0
LINE
8
BLACK
6
CONTINUOUS
10
3.7135127165354329
20
-3.9711898818897637
11
3.7167058661417323
21
-3.9690562992125984
0
LINE
8
BLACK
6
CONTINUOUS
10
3.7167058661417323
20
-3.9690562992125984
11
3.7204724409448819
21
-3.968307086614173
0
LINE
8
BLACK
6
CONTINUOUS
10
3.7204724409448819
20
-3.968307086614173
11
3.7352362204724407
21
-3.968307086614173
0
LINE
8
BLACK
6
CONTINUOUS
10
3.7352362204724407
20
-3.968307086614173
11
3.7352362204724407
21
-3.9644260629921257
0
LINE
8
BLACK
6
CONTINUOUS
10
3.7352362204724407
20
-3.9644260629921257
11
3.7181819291338583
21
-3.9473717716535432
0
LINE
8
BLACK
6
CONTINUOUS
10
3.7181819291338583
20
-3.9473717716535432
11
3.7152399212598426
21
-3.948442598425197
0
LINE
8
BLACK
6
CONTINUOUS
10
3.7152399212598426
20
-3.948442598425197
11
3.7111380314960627
21
-3.948442598425197
0
LINE
8
BLACK
6
CONTINUOUS
10
3.7111380314960627
20
-3.948442598425197
11
3.7072834645669293
21
-3.9470396850393699
0
LINE
8
BLACK
6
CONTINUOUS
10
3.7072834645669293
20
-3.9470396850393699
11
3.7041412204724407
21
-3.9444029921259842
0
LINE
8
BLACK
6
CONTINUOUS
10
3.7041412204724407
20
-3.9444029921259842
11
3.7020902362204722
21
-3.9408506299212598
0
LINE
8
BLACK
6
CONTINUOUS
10
3.7020902362204722
20
-3.9408506299212598
11
3.7013779527559056
21
-3.936811023622047
0
LINE
8
BLACK
6
CONTINUOUS
10
3.7013779527559056
20
-3.936811023622047
11
3.7020902362204722
21
-3.9327714173228348
0
LINE
8
BLACK
6
CONTINUOUS
10
3.7020902362204722
20
-3.9327714173228348
11
3.7041412204724407
21
-3.9292190551181103
0
LINE
8
BLACK
6
CONTINUOUS
10
3.7041412204724407
20
-3.9292190551181103
11
3.7072834645669293
21
-3.9265823622047242
0
LINE
8
BLACK
6
CONTINUOUS
10
3.7072834645669293
20
-3.9265823622047242
11
3.7111380314960627
21
-3.9251794488188976
0
LINE
8
BLACK
6
CONTINUOUS
10
3.7111380314960627
20
-3.9251794488188976
11
3.7152399212598426
21
-3.9251794488188976
0
LINE
8
BLACK
6
CONTINUOUS
10
3.7152399212598426
20
-3.9251794488188976
11
3.7190944881889765
21
-3.9265823622047242
0
LINE
8
BLACK
6
CONTINUOUS
10
3.7190944881889765
20
-3.9265823622047242
11
3.7222367322834646
21
-3.9292190551181103
0
LINE
8
BLACK
6
CONTINUOUS
10
3.7222367322834646
20
-3.9292190551181103
11
3.7242877165354331
21
-3.9327714173228348
0
LINE
8
BLACK
6
CONTINUOUS
10
3.7242877165354331
20
-3.9327714173228348
11
3.7250000000000001
21
-3.936811023622047
0
LINE
8
BLACK
6
CONTINUOUS
10
3.7250000000000001
20
-3.936811023622047
11
3.7242877165354331
21
-3.9408506299212598
0
LINE
8
BLACK
6
CONTINUOUS
10
3.7242877165354331
20
-3.9408506299212598
11
3.723741811023622
21
-3.9417960629921258
0
LINE
8
BLACK
6
CONTINUOUS
10
3.723741811023622
20
-3.9417960629921258
11
3.7419571259842517
21
-3.9600113779527559
0
LINE
8
BLACK
6
CONTINUOUS
10
3.7419571259842517
20
-3.9600113779527559
11
3.7424467322834647
21
-3.960607992125984
0
LINE
8
BLACK
6
CONTINUOUS
10
3.7424467322834647
20
-3.960607992125984
11
3.7430346062992124
21
-3.9620272047244094
0
LINE
8
BLACK
6
CONTINUOUS
10
3.7430346062992124
20
-3.9620272047244094
11
3.7431102362204722
21
-3.9627952755905511
0
LINE
8
BLACK
6
CONTINUOUS
10
3.7431102362204722
20
-3.9627952755905511
11
3.7431102362204722
21
-3.968307086614173
0
LINE
8
BLACK
6
CONTINUOUS
10
3.7431102362204722
20
-3.968307086614173
11
3.7532904724409448
21
-3.968307086614173
0
LINE
8
BLACK
6
CONTINUOUS
10
3.7532904724409448
20
-3.968307086614173
11
3.7549212598425195
21
-3.9666762992125983
0
LINE
8
BLACK
6
CONTINUOUS
10
3.7549212598425195
20
-3.9666762992125983
11
3.7549212598425195
21
-3.9377952755905512
0
LINE
8
BLACK
6
CONTINUOUS
10
3.7549212598425195
20
-3.9377952755905512
11
3.7490157480314958
21
-3.9377952755905512
0
LINE
8
BLACK
6
CONTINUOUS
10
3.7490157480314958
20
-3.9377952755905512
11
3.7456258267716533
21
-3.9371209842519685
0
LINE
8
BLACK
6
CONTINUOUS
10
3.7456258267716533
20
-3.9371209842519685
11
3.7427520078740155
21
-3.9352007480314959
0
LINE
8
BLACK
6
CONTINUOUS
10
3.7427520078740155
20
-3.9352007480314959
11
3.7408317716535433
21
-3.9323269291338581
0
LINE
8
BLACK
6
CONTINUOUS
10
3.7408317716535433
20
-3.9323269291338581
11
3.7401574803149606
21
-3.9289370078740156
0
LINE
8
BLACK
6
CONTINUOUS
10
3.7401574803149606
20
-3.9289370078740156
11
3.7401574803149606
21
-3.9112204724409447
0
LINE
8
BLACK
6
CONTINUOUS
10
3.7401574803149606
20
-3.9112204724409447
11
3.7408317716535433
21
-3.9078305511811022
0
LINE
8
BLACK
6
CONTINUOUS
10
3.7408317716535433
20
-3.9078305511811022
11
3.7427520078740155
21
-3.9049567322834644
0
LINE
8
BLACK
6
CONTINUOUS
10
3.7427520078740155
20
-3.9049567322834644
11
3.7456258267716533
21
-3.9030364960629922
0
LINE
8
BLACK
6
CONTINUOUS
10
3.7456258267716533
20
-3.9030364960629922
11
3.7490157480314958
21
-3.9023622047244095
0
LINE
8
BLACK
6
CONTINUOUS
10
3.7490157480314958
20
-3.9023622047244095
11
3.7687007874015745
21
-3.9023622047244095
0
LINE
8
BLACK
6
CONTINUOUS
10
3.7687007874015745
20
-3.9023622047244095
11
3.772090708661417
21
-3.9030364960629922
0
LINE
8
BLACK
6
CONTINUOUS
10
4.0691890944881886
20
-4.0006463779527559
11
4.0711049606299214
21
-4.0019265354330704
0
LINE
8
BLACK
6
CONTINUOUS
10
4.0711049606299214
20
-4.0019265354330704
11
4.072385118110236
21
-4.0038424015748033
0
LINE
8
BLACK
6
CONTINUOUS
10
4.072385118110236
20
-4.0038424015748033
11
4.0728346456692917
21
-4.0061023622047243
0
LINE
8
BLACK
6
CONTINUOUS
10
4.0728346456692917
20
-4.0061023622047243
11
4.0728346456692917
21
-4.0179133858267715
0
LINE
8
BLACK
6
CONTINUOUS
10
4.0728346456692917
20
-4.0179133858267715
11
4.072385118110236
21
-4.0201733464566924
0
LINE
8
BLACK
6
CONTINUOUS
10
4.072385118110236
20
-4.0201733464566924
11
4.0711049606299214
21
-4.0220892125984253
0
LINE
8
BLACK
6
CONTINUOUS
10
4.0711049606299214
20
-4.0220892125984253
11
4.0691890944881886
21
-4.0233693700787398
0
LINE
8
BLACK
6
CONTINUOUS
10
4.0691890944881886
20
-4.0233693700787398
11
4.0669291338582676
21
-4.0238188976377955
0
LINE
8
BLACK
6
CONTINUOUS
10
4.0669291338582676
20
-4.0238188976377955
11
4.0098425196850389
21
-4.0238188976377955
0
LINE
8
BLACK
6
CONTINUOUS
10
4.0098425196850389
20
-4.0238188976377955
11
4.007582559055118
21
-4.0233693700787398
0
LINE
8
BLACK
6
CONTINUOUS
10
4.007582559055118
20
-4.0233693700787398
11
4.005666692913386
21
-4.0220892125984253
0
LINE
8
BLACK
6
CONTINUOUS
10
4.005666692913386
20
-4.0220892125984253
11
4.0043865354330705
21
-4.0201733464566924
0
LINE
8
BLACK
6
CONTINUOUS
10
4.0043865354330705
20
-4.0201733464566924
11
4.0039370078740157
21
-4.0179133858267715
0
LINE
8
BLACK
6
CONTINUOUS
10
4.0039370078740157
20
-4.0179133858267715
11
4.0039370078740157
21
-4.0061023622047243
0
LINE
8
BLACK
6
CONTINUOUS
10
4.0039370078740157
20
-4.0061023622047243
11
4.0043865354330705
21
-4.0038424015748033
0
LINE
8
BLACK
6
CONTINUOUS
10
4.0043865354330705
20
-4.0038424015748033
11
4.005666692913386
21
-4.0019265354330704
0
LINE
8
BLACK
6
CONTINUOUS
10
4.005666692913386
20
-4.0019265354330704
11
4.007582559055118
21
-4.0006463779527559
0
LINE
8
BLACK
6
CONTINUOUS
10
4.007582559055118
20
-4.0006463779527559
11
4.0098425196850389
21
-4.0001968503937011
0
LINE
8
BLACK
6
CONTINUOUS
10
4.0098425196850389
20
-4.0001968503937011
11
4.0669291338582676
21
-4.0001968503937011
0
LINE
8
BLACK
6
CONTINUOUS
10
4.0669291338582676
20
-4.0001968503937011
11
4.0691890944881886
21
-4.0006463779527559
0
LINE
8
BLACK
6
CONTINUOUS
10
3.8664331889763779
20
-3.9506463779527556
11
3.8683490551181103
21
-3.9519265354330706
0
LINE
8
BLACK
6
CONTINUOUS
10
3.8683490551181103
20
-3.9519265354330706
11
3.8696292125984253
21
-3.953842401574803
0
LINE
8
BLACK
6
CONTINUOUS
10
3.8696292125984253
20
-3.953842401574803
11
3.8700787401574801
21
-3.9561023622047244
0
LINE
8
BLACK
6
CONTINUOUS
10
3.8700787401574801
20
-3.9561023622047244
11
3.8700787401574801
21
-3.9679133858267717
0
LINE
8
BLACK
6
CONTINUOUS
10
3.8700787401574801
20
-3.9679133858267717
11
3.8696292125984253
21
-3.9701733464566926
0
LINE
8
BLACK
6
CONTINUOUS
10
3.8696292125984253
20
-3.9701733464566926
11
3.8683490551181103
21
-3.9720892125984251
0
LINE
8
BLACK
6
CONTINUOUS
10
3.8683490551181103
20
-3.9720892125984251
11
3.8664331889763779
21
-3.97336937007874
0
LINE
8
BLACK
6
CONTINUOUS
10
3.8664331889763779
20
-3.97336937007874
11
3.8641732283464565
21
-3.9738188976377953
0
LINE
8
BLACK
6
CONTINUOUS
10
3.8641732283464565
20
-3.9738188976377953
11
3.8070866141732282
21
-3.9738188976377953
0
LINE
8
BLACK
6
CONTINUOUS
10
3.8070866141732282
20
-3.9738188976377953
11
3.8048266535433068
21
-3.97336937007874
0
LINE
8
BLACK
6
CONTINUOUS
10
3.8048266535433068
20
-3.97336937007874
11
3.8029107874015748
21
-3.9720892125984251
0
LINE
8
BLACK
6
CONTINUOUS
10
3.8029107874015748
20
-3.9720892125984251
11
3.8016306299212599
21
-3.9701733464566926
0
LINE
8
BLACK
6
CONTINUOUS
10
3.8016306299212599
20
-3.9701733464566926
11
3.8011811023622046
21
-3.9679133858267717
0
LINE
8
BLACK
6
CONTINUOUS
10
3.8011811023622046
20
-3.9679133858267717
11
3.8011811023622046
21
-3.9561023622047244
0
LINE
8
BLACK
6
CONTINUOUS
10
3.8011811023622046
20
-3.9561023622047244
11
3.8016306299212599
21
-3.953842401574803
0
LINE
8
BLACK
6
CONTINUOUS
10
3.8016306299212599
20
-3.953842401574803
11
3.8029107874015748
21
-3.9519265354330706
0
LINE
8
BLACK
6
CONTINUOUS
10
3.8029107874015748
20
-3.9519265354330706
11
3.8048266535433068
21
-3.9506463779527556
0
LINE
8
BLACK
6
CONTINUOUS
10
3.8048266535433068
20
-3.9506463779527556
11
3.8070866141732282
21
-3.9501968503937008
0
LINE
8
BLACK
6
CONTINUOUS
10
3.8070866141732282
20
-3.9501968503937008
11
3.8641732283464565
21
-3.9501968503937008
0
LINE
8
BLACK
6
CONTINUOUS
10
3.8641732283464565
20
-3.9501968503937008
11
3.8664331889763779
21
-3.9506463779527556
0
LINE
8
BLACK
6
CONTINUOUS
10
3.8664331889763779
20
-3.9006463779527558
11
3.8683490551181103
21
-3.9019265354330708
0
LINE
8
BLACK
6
CONTINUOUS
10
3.8683490551181103
20
-3.9019265354330708
11
3.8696292125984253
21
-3.9038424015748032
0
LINE
8
BLACK
6
CONTINUOUS
10
3.8696292125984253
20
-3.9038424015748032
11
3.8700787401574801
21
-3.9061023622047242
0
LINE
8
BLACK
6
CONTINUOUS
10
3.8700787401574801
20
-3.9061023622047242
11
3.8700787401574801
21
-3.9117550393700786
0
LINE
8
BLACK
6
CONTINUOUS
10
3.8700787401574801
20
-3.9117550393700786
11
3.8808337401574802
21
-3.9225100787401574
0
LINE
8
BLACK
6
CONTINUOUS
10
3.8808337401574802
20
-3.9225100787401574
11
3.8837758267716533
21
-3.9214392913385825
0
LINE
8
BLACK
6
CONTINUOUS
10
3.8837758267716533
20
-3.9214392913385825
11
3.8878777165354328
21
-3.9214392913385825
0
LINE
8
BLACK
6
CONTINUOUS
10
3.8878777165354328
20
-3.9214392913385825
11
3.8917322834645667
21
-3.9228422047244091
0
LINE
8
BLACK
6
CONTINUOUS
10
3.8917322834645667
20
-3.9228422047244091
11
3.8948745275590548
21
-3.9254788976377952
0
LINE
8
BLACK
6
CONTINUOUS
10
3.8948745275590548
20
-3.9254788976377952
11
3.8969255118110233
21
-3.9290312598425197
0
LINE
8
BLACK
6
CONTINUOUS
10
3.8969255118110233
20
-3.9290312598425197
11
3.8976377952755903
21
-3.9330708661417324
0
LINE
8
BLACK
6
CONTINUOUS
10
3.8976377952755903
20
-3.9330708661417324
11
3.8969255118110233
21
-3.9371104724409447
0
LINE
8
BLACK
6
CONTINUOUS
10
3.8969255118110233
20
-3.9371104724409447
11
3.8948745275590548
21
-3.9406628346456691
0
LINE
8
BLACK
6
CONTINUOUS
10
3.8948745275590548
20
-3.9406628346456691
11
3.8917322834645667
21
-3.9432995275590552
0
LINE
8
BLACK
6
CONTINUOUS
10
3.8917322834645667
20
-3.9432995275590552
11
3.8878777165354328
21
-3.9447024409448819
0
LINE
8
BLACK
6
CONTINUOUS
10
3.8878777165354328
20
-3.9447024409448819
11
3.8837758267716533
21
-3.9447024409448819
0
LINE
8
BLACK
6
CONTINUOUS
10
3.8837758267716533
20
-3.9447024409448819
11
3.8799212598425195
21
-3.9432995275590552
0
LINE
8
BLACK
6
CONTINUOUS
10
3.8799212598425195
20
-3.9432995275590552
11
3.8767790157480313
21
-3.9406628346456691
0
LINE
8
BLACK
6
CONTINUOUS
10
3.8767790157480313
20
-3.9406628346456691
11
3.8747280314960628
21
-3.9371104724409447
0
LINE
8
BLACK
6
CONTINUOUS
10
3.8747280314960628
20
-3.9371104724409447
11
3.8740157480314958
21
-3.9330708661417324
0
LINE
8
BLACK
6
CONTINUOUS
10
3.8740157480314958
20
-3.9330708661417324
11
3.8747280314960628
21
-3.9290312598425197
0
LINE
8
BLACK
6
CONTINUOUS
10
3.8747280314960628
20
-3.9290312598425197
11
3.8752738976377952
21
-3.9280857480314961
0
LINE
8
BLACK
6
CONTINUOUS
10
3.8752738976377952
20
-3.9280857480314961
11
3.8687208661417323
21
-3.9215327165354328
0
LINE
8
BLACK
6
CONTINUOUS
10
3.8687208661417323
20
-3.9215327165354328
11
3.8683490551181103
21
-3.9220892125984252
0
LINE
8
BLACK
6
CONTINUOUS
10
3.8683490551181103
20
-3.9220892125984252
11
3.8664331889763779
21
-3.9233693700787402
0
LINE
8
BLACK
6
CONTINUOUS
10
3.8664331889763779
20
-3.9233693700787402
11
3.8641732283464565
21
-3.923818897637795
0
LINE
8
BLACK
6
CONTINUOUS
10
3.8641732283464565
20
-3.923818897637795
11
3.8070866141732282
21
-3.923818897637795
0
LINE
8
BLACK
6
CONTINUOUS
10
3.8070866141732282
20
-3.923818897637795
11
3.8048266535433068
21
-3.9233693700787402
0
LINE
8
BLACK
6
CONTINUOUS
10
3.8048266535433068
20
-3.9233693700787402
11
3.8029107874015748
21
-3.9220892125984252
0
LINE
8
BLACK
6
CONTINUOUS
10
3.8029107874015748
20
-3.9220892125984252
11
3.8016306299212599
21
-3.9201733464566928
0
LINE
8
BLACK
6
CONTINUOUS
10
3.8016306299212599
20
-3.9201733464566928
11
3.8011811023622046
21
-3.9179133858267714
0
LINE
8
BLACK
6
CONTINUOUS
10
3.8011811023622046
20
-3.9179133858267714
11
3.8011811023622046
21
-3.9061023622047242
0
LINE
8
BLACK
6
CONTINUOUS
10
3.8011811023622046
20
-3.9061023622047242
11
3.8016306299212599
21
-3.9038424015748032
0
LINE
8
BLACK
6
CONTINUOUS
10
3.8016306299212599
20
-3.9038424015748032
11
3.8029107874015748
21
-3.9019265354330708
0
LINE
8
BLACK
6
CONTINUOUS
10
3.8029107874015748
20
-3.9019265354330708
11
3.8048266535433068
21
-3.9006463779527558
0
LINE
8
BLACK
6
CONTINUOUS
10
3.8048266535433068
20
-3.9006463779527558
11
3.8070866141732282
21
-3.9001968503937006
0
LINE
8
BLACK
6
CONTINUOUS
10
3.8070866141732282
20
-3.9001968503937006
11
3.8641732283464565
21
-3.9001968503937006
0
LINE
8
BLACK
6
CONTINUOUS
10
3.8641732283464565
20
-3.9001968503937006
11
3.8664331889763779
21
-3.9006463779527558
0
CIRCLE
8
BLACK
10
3.8307086614173227
20
-4.122047244094488
40
0.0059055118110236
0
CIRCLE
8
BLACK
10
3.9803149606299213
20
-4.1181102362204722
40
0.0059055118110236
0
CIRCLE
8
BLACK
10
3.7131889763779529
20
-3.936811023622047
40
0.0059055118110236
0
CIRCLE
8
BLACK
10
4.0911417322834644
20
-3.968307086614173
40
0.0059055118110236
0
CIRCLE
8
BLACK
10
4.0950787401574802
20
-3.9131889763779526
40
0.0059055118110236
0
CIRCLE
8
BLACK
10
3.8858267716535431
20
-3.9330708661417324
40
0.0059055118110236
0
CIRCLE
8
BLACK
10
3.9100393700787399
20
-4.0706692913385822
40
0.0059055118110236
0
CIRCLE
8
BLACK
10
4.058858267716535
20
-4.0818897637795271
40
0.0059055118110236
  0
ENDSEC
  0
EOF
