  0
SECTION
  2
HEADER
  9
$ANGBASE
  50
0.0
  9
$ANGDIR
  70
1
  9
$MEASUREMENT
  70
0
  0
ENDSEC
  0
SECTION
  2
TABLES
  0
TABLE
  2
LTYPE
  70
4
  0
LTYPE
  5
40F
  2
CONTINUOUS
  70
0
  3
Solid line
  72
65
  73
0
  40
0.0
  0
LTYPE
  5
410
  2
DASHDOT
 70
0
  3
Dash Dot ____ _ ____ _
 72
65
 73
4
 40
2.0
 49
1.25
 49
-0.25
 49
0.25
 49
-0.25
  0
LTYPE
  5
411
  2
DASHED
 70
0
  3
Dashed __ __ __ __ __
 72
65
 73
2
 40
0.75
 49
0.5
 49
-0.25
  0
LTYPE
  5
43B
  2
DOTTED
 70
0
  3
Dotted .  .  .  .
 72
65
 73
2
 40
0.2
 49
0.0
 49
-0.2
  0
ENDTAB
  0
TABLE
  2
STYLE
  70
4
  0
STYLE
  2
KICAD
  70
0
  40
0
  41
1
  42
1
  50
0
  71
0
  3
isocp.shx
  0
STYLE
  2
KICADB
  70
0
  40
0
  41
1
  42
1
  50
0
  71
0
  3
isocp.shx
  0
STYLE
  2
KICADI
  70
0
  40
0
  41
1
  42
1
  50
15
  71
0
  3
isocp.shx
  0
STYLE
  2
KICADBI
  70
0
  40
0
  41
1
  42
1
  50
15
  71
0
  3
isocp.shx
  0
ENDTAB
  0
TABLE
  2
LAYER
  70
1
  0
LAYER
  2
BLACK
  70
0
  62
7
  6
CONTINUOUS
  0
ENDTAB
  0
ENDSEC
  0
SECTION
  2
ENTITIES
0
LINE
8
BLACK
6
CONTINUOUS
10
4.1704724409448817
20
-4.2893700787401574
11
4.1035433070866141
21
-4.2893700787401574
0
LINE
8
BLACK
6
CONTINUOUS
10
4.1035433070866141
20
-4.2893700787401574
11
4.1035433070866141
21
-4.2224409448818898
0
LINE
8
BLACK
6
CONTINUOUS
10
4.1035433070866141
20
-4.2224409448818898
11
4.1704724409448817
21
-4.2224409448818898
0
LINE
8
BLACK
6
CONTINUOUS
10
4.1704724409448817
20
-4.2224409448818898
11
4.1704724409448817
21
-4.2893700787401574
0
LINE
8
BLACK
6
CONTINUOUS
10
3.7473489763779528
20
-4.2240788188976373
11
3.7537401574803151
21
-4.2269243307086617
0
LINE
8
BLACK
6
CONTINUOUS
10
3.7537401574803151
20
-4.2269243307086617
11
3.7594000393700786
21
-4.231036496062992
0
LINE
8
BLACK
6
CONTINUOUS
10
3.7594000393700786
20
-4.231036496062992
11
3.7640812598425195
21
-4.2362355511811023
0
LINE
8
BLACK
6
CONTINUOUS
10
3.7640812598425195
20
-4.2362355511811023
11
3.7675792913385826
21
-4.2422942519685041
0
LINE
8
BLACK
6
CONTINUOUS
10
3.7675792913385826
20
-4.2422942519685041
11
3.7697411417322835
21
-4.2489478346456693
0
LINE
8
BLACK
6
CONTINUOUS
10
3.7697411417322835
20
-4.2489478346456693
11
3.7704724409448818
21
-4.2559055118110232
0
LINE
8
BLACK
6
CONTINUOUS
10
3.7704724409448818
20
-4.2559055118110232
11
3.7697411417322835
21
-4.2628631889763779
0
LINE
8
BLACK
6
CONTINUOUS
10
3.7697411417322835
20
-4.2628631889763779
11
3.7675792913385826
21
-4.2695167716535432
0
LINE
8
BLACK
6
CONTINUOUS
10
3.7675792913385826
20
-4.2695167716535432
11
3.7640812598425195
21
-4.2755754724409449
0
LINE
8
BLACK
6
CONTINUOUS
10
3.7640812598425195
20
-4.2755754724409449
11
3.7594000393700786
21
-4.2807745275590552
0
LINE
8
BLACK
6
CONTINUOUS
10
3.7594000393700786
20
-4.2807745275590552
11
3.7537401574803151
21
-4.2848866929133855
0
LINE
8
BLACK
6
CONTINUOUS
10
3.7537401574803151
20
-4.2848866929133855
11
3.7473489763779528
21
-4.2877322047244091
0
LINE
8
BLACK
6
CONTINUOUS
10
3.7473489763779528
20
-4.2877322047244091
11
3.7405058661417323
21
-4.2891867716535428
0
LINE
8
BLACK
6
CONTINUOUS
10
3.7405058661417323
20
-4.2891867716535428
11
3.7335098818897636
21
-4.2891867716535428
0
LINE
8
BLACK
6
CONTINUOUS
10
3.7335098818897636
20
-4.2891867716535428
11
3.7266667716535431
21
-4.2877322047244091
0
LINE
8
BLACK
6
CONTINUOUS
10
3.7266667716535431
20
-4.2877322047244091
11
3.7202755905511808
21
-4.2848866929133855
0
LINE
8
BLACK
6
CONTINUOUS
10
3.7202755905511808
20
-4.2848866929133855
11
3.7146157086614173
21
-4.2807745275590552
0
LINE
8
BLACK
6
CONTINUOUS
10
3.7146157086614173
20
-4.2807745275590552
11
3.7099344881889764
21
-4.2755754724409449
0
LINE
8
BLACK
6
CONTINUOUS
10
3.7099344881889764
20
-4.2755754724409449
11
3.7064364566929133
21
-4.2695167716535432
0
LINE
8
BLACK
6
CONTINUOUS
10
3.7064364566929133
20
-4.2695167716535432
11
3.7042746062992125
21
-4.2628631889763779
0
LINE
8
BLACK
6
CONTINUOUS
10
3.7042746062992125
20
-4.2628631889763779
11
3.7035433070866142
21
-4.2559055118110232
0
LINE
8
BLACK
6
CONTINUOUS
10
3.7035433070866142
20
-4.2559055118110232
11
3.7042746062992125
21
-4.2489478346456693
0
LINE
8
BLACK
6
CONTINUOUS
10
3.7042746062992125
20
-4.2489478346456693
11
3.7064364566929133
21
-4.2422942519685041
0
LINE
8
BLACK
6
CONTINUOUS
10
3.7064364566929133
20
-4.2422942519685041
11
3.7099344881889764
21
-4.2362355511811023
0
LINE
8
BLACK
6
CONTINUOUS
10
3.7099344881889764
20
-4.2362355511811023
11
3.7146157086614173
21
-4.231036496062992
0
LINE
8
BLACK
6
CONTINUOUS
10
3.7146157086614173
20
-4.231036496062992
11
3.7202755905511808
21
-4.2269243307086617
0
LINE
8
BLACK
6
CONTINUOUS
10
3.7202755905511808
20
-4.2269243307086617
11
3.7266667716535431
21
-4.2240788188976373
0
LINE
8
BLACK
6
CONTINUOUS
10
3.7266667716535431
20
-4.2240788188976373
11
3.7335098818897636
21
-4.2226242519685036
0
LINE
8
BLACK
6
CONTINUOUS
10
3.7335098818897636
20
-4.2226242519685036
11
3.7405058661417323
21
-4.2226242519685036
0
LINE
8
BLACK
6
CONTINUOUS
10
3.7405058661417323
20
-4.2226242519685036
11
3.7473489763779528
21
-4.2240788188976373
0
LINE
8
BLACK
6
CONTINUOUS
10
3.8473489763779525
20
-4.2240788188976373
11
3.8537401574803147
21
-4.2269243307086617
0
LINE
8
BLACK
6
CONTINUOUS
10
3.8537401574803147
20
-4.2269243307086617
11
3.8594000393700787
21
-4.231036496062992
0
LINE
8
BLACK
6
CONTINUOUS
10
3.8594000393700787
20
-4.231036496062992
11
3.8640812598425196
21
-4.2362355511811023
0
LINE
8
BLACK
6
CONTINUOUS
10
3.8640812598425196
20
-4.2362355511811023
11
3.8675792913385827
21
-4.2422942519685041
0
LINE
8
BLACK
6
CONTINUOUS
10
3.8675792913385827
20
-4.2422942519685041
11
3.8697411417322836
21
-4.2489478346456693
0
LINE
8
BLACK
6
CONTINUOUS
10
3.8697411417322836
20
-4.2489478346456693
11
3.8704724409448819
21
-4.2559055118110232
0
LINE
8
BLACK
6
CONTINUOUS
10
3.8704724409448819
20
-4.2559055118110232
11
3.8697411417322836
21
-4.2628631889763779
0
LINE
8
BLACK
6
CONTINUOUS
10
3.8697411417322836
20
-4.2628631889763779
11
3.8675792913385827
21
-4.2695167716535432
0
LINE
8
BLACK
6
CONTINUOUS
10
3.8675792913385827
20
-4.2695167716535432
11
3.8640812598425196
21
-4.2755754724409449
0
LINE
8
BLACK
6
CONTINUOUS
10
3.8640812598425196
20
-4.2755754724409449
11
3.8594000393700787
21
-4.2807745275590552
0
LINE
8
BLACK
6
CONTINUOUS
10
3.8594000393700787
20
-4.2807745275590552
11
3.8537401574803147
21
-4.2848866929133855
0
LINE
8
BLACK
6
CONTINUOUS
10
3.8537401574803147
20
-4.2848866929133855
11
3.8473489763779525
21
-4.2877322047244091
0
LINE
8
BLACK
6
CONTINUOUS
10
3.8473489763779525
20
-4.2877322047244091
11
3.8405058661417324
21
-4.2891867716535428
0
LINE
8
BLACK
6
CONTINUOUS
10
3.8405058661417324
20
-4.2891867716535428
11
3.8335098818897637
21
-4.2891867716535428
0
LINE
8
BLACK
6
CONTINUOUS
10
3.8335098818897637
20
-4.2891867716535428
11
3.8266667716535432
21
-4.2877322047244091
0
LINE
8
BLACK
6
CONTINUOUS
10
3.8266667716535432
20
-4.2877322047244091
11
3.8202755905511809
21
-4.2848866929133855
0
LINE
8
BLACK
6
CONTINUOUS
10
3.8202755905511809
20
-4.2848866929133855
11
3.8146157086614174
21
-4.2807745275590552
0
LINE
8
BLACK
6
CONTINUOUS
10
3.8146157086614174
20
-4.2807745275590552
11
3.8099344881889765
21
-4.2755754724409449
0
LINE
8
BLACK
6
CONTINUOUS
10
3.8099344881889765
20
-4.2755754724409449
11
3.8064364566929134
21
-4.2695167716535432
0
LINE
8
BLACK
6
CONTINUOUS
10
3.8064364566929134
20
-4.2695167716535432
11
3.8042746062992125
21
-4.2628631889763779
0
LINE
8
BLACK
6
CONTINUOUS
10
3.8042746062992125
20
-4.2628631889763779
11
3.8035433070866143
21
-4.2559055118110232
0
LINE
8
BLACK
6
CONTINUOUS
10
3.8035433070866143
20
-4.2559055118110232
11
3.8042746062992125
21
-4.2489478346456693
0
LINE
8
BLACK
6
CONTINUOUS
10
3.8042746062992125
20
-4.2489478346456693
11
3.8064364566929134
21
-4.2422942519685041
0
LINE
8
BLACK
6
CONTINUOUS
10
3.8064364566929134
20
-4.2422942519685041
11
3.8099344881889765
21
-4.2362355511811023
0
LINE
8
BLACK
6
CONTINUOUS
10
3.8099344881889765
20
-4.2362355511811023
11
3.8146157086614174
21
-4.231036496062992
0
LINE
8
BLACK
6
CONTINUOUS
10
3.8146157086614174
20
-4.231036496062992
11
3.8202755905511809
21
-4.2269243307086617
0
LINE
8
BLACK
6
CONTINUOUS
10
3.8202755905511809
20
-4.2269243307086617
11
3.8266667716535432
21
-4.2240788188976373
0
LINE
8
BLACK
6
CONTINUOUS
10
3.8266667716535432
20
-4.2240788188976373
11
3.8335098818897637
21
-4.2226242519685036
0
LINE
8
BLACK
6
CONTINUOUS
10
3.8335098818897637
20
-4.2226242519685036
11
3.8405058661417324
21
-4.2226242519685036
0
LINE
8
BLACK
6
CONTINUOUS
10
3.8405058661417324
20
-4.2226242519685036
11
3.8473489763779525
21
-4.2240788188976373
0
LINE
8
BLACK
6
CONTINUOUS
10
3.9473489763779526
20
-4.2240788188976373
11
3.9537401574803148
21
-4.2269243307086617
0
LINE
8
BLACK
6
CONTINUOUS
10
3.9537401574803148
20
-4.2269243307086617
11
3.9594000393700788
21
-4.231036496062992
0
LINE
8
BLACK
6
CONTINUOUS
10
3.9594000393700788
20
-4.231036496062992
11
3.9640812598425197
21
-4.2362355511811023
0
LINE
8
BLACK
6
CONTINUOUS
10
3.9640812598425197
20
-4.2362355511811023
11
3.9675792913385828
21
-4.2422942519685041
0
LINE
8
BLACK
6
CONTINUOUS
10
3.9675792913385828
20
-4.2422942519685041
11
3.9697411417322832
21
-4.2489478346456693
0
LINE
8
BLACK
6
CONTINUOUS
10
3.9697411417322832
20
-4.2489478346456693
11
3.9704724409448819
21
-4.2559055118110232
0
LINE
8
BLACK
6
CONTINUOUS
10
3.9704724409448819
20
-4.2559055118110232
11
3.9697411417322832
21
-4.2628631889763779
0
LINE
8
BLACK
6
CONTINUOUS
10
3.9697411417322832
20
-4.2628631889763779
11
3.9675792913385828
21
-4.2695167716535432
0
LINE
8
BLACK
6
CONTINUOUS
10
3.9675792913385828
20
-4.2695167716535432
11
3.9640812598425197
21
-4.2755754724409449
0
LINE
8
BLACK
6
CONTINUOUS
10
3.9640812598425197
20
-4.2755754724409449
11
3.9594000393700788
21
-4.2807745275590552
0
LINE
8
BLACK
6
CONTINUOUS
10
3.9594000393700788
20
-4.2807745275590552
11
3.9537401574803148
21
-4.2848866929133855
0
LINE
8
BLACK
6
CONTINUOUS
10
3.9537401574803148
20
-4.2848866929133855
11
3.9473489763779526
21
-4.2877322047244091
0
LINE
8
BLACK
6
CONTINUOUS
10
3.9473489763779526
20
-4.2877322047244091
11
3.940505866141732
21
-4.2891867716535428
0
LINE
8
BLACK
6
CONTINUOUS
10
3.940505866141732
20
-4.2891867716535428
11
3.9335098818897638
21
-4.2891867716535428
0
LINE
8
BLACK
6
CONTINUOUS
10
3.9335098818897638
20
-4.2891867716535428
11
3.9266667716535433
21
-4.2877322047244091
0
LINE
8
BLACK
6
CONTINUOUS
10
3.9266667716535433
20
-4.2877322047244091
11
3.920275590551181
21
-4.2848866929133855
0
LINE
8
BLACK
6
CONTINUOUS
10
3.920275590551181
20
-4.2848866929133855
11
3.9146157086614171
21
-4.2807745275590552
0
LINE
8
BLACK
6
CONTINUOUS
10
3.9146157086614171
20
-4.2807745275590552
11
3.9099344881889762
21
-4.2755754724409449
0
LINE
8
BLACK
6
CONTINUOUS
10
3.9099344881889762
20
-4.2755754724409449
11
3.9064364566929135
21
-4.2695167716535432
0
LINE
8
BLACK
6
CONTINUOUS
10
3.9064364566929135
20
-4.2695167716535432
11
3.9042746062992126
21
-4.2628631889763779
0
LINE
8
BLACK
6
CONTINUOUS
10
3.9042746062992126
20
-4.2628631889763779
11
3.9035433070866139
21
-4.2559055118110232
0
LINE
8
BLACK
6
CONTINUOUS
10
3.9035433070866139
20
-4.2559055118110232
11
3.9042746062992126
21
-4.2489478346456693
0
LINE
8
BLACK
6
CONTINUOUS
10
3.9042746062992126
20
-4.2489478346456693
11
3.9064364566929135
21
-4.2422942519685041
0
LINE
8
BLACK
6
CONTINUOUS
10
3.9064364566929135
20
-4.2422942519685041
11
3.9099344881889762
21
-4.2362355511811023
0
LINE
8
BLACK
6
CONTINUOUS
10
3.9099344881889762
20
-4.2362355511811023
11
3.9146157086614171
21
-4.231036496062992
0
LINE
8
BLACK
6
CONTINUOUS
10
3.9146157086614171
20
-4.231036496062992
11
3.920275590551181
21
-4.2269243307086617
0
LINE
8
BLACK
6
CONTINUOUS
10
3.920275590551181
20
-4.2269243307086617
11
3.9266667716535433
21
-4.2240788188976373
0
LINE
8
BLACK
6
CONTINUOUS
10
3.9266667716535433
20
-4.2240788188976373
11
3.9335098818897638
21
-4.2226242519685036
0
LINE
8
BLACK
6
CONTINUOUS
10
3.9335098818897638
20
-4.2226242519685036
11
3.940505866141732
21
-4.2226242519685036
0
LINE
8
BLACK
6
CONTINUOUS
10
3.940505866141732
20
-4.2226242519685036
11
3.9473489763779526
21
-4.2240788188976373
0
LINE
8
BLACK
6
CONTINUOUS
10
4.0473489763779531
20
-4.2240788188976373
11
4.0537401574803145
21
-4.2269243307086617
0
LINE
8
BLACK
6
CONTINUOUS
10
4.0537401574803145
20
-4.2269243307086617
11
4.0594000393700789
21
-4.231036496062992
0
LINE
8
BLACK
6
CONTINUOUS
10
4.0594000393700789
20
-4.231036496062992
11
4.0640812598425198
21
-4.2362355511811023
0
LINE
8
BLACK
6
CONTINUOUS
10
4.0640812598425198
20
-4.2362355511811023
11
4.0675792913385829
21
-4.2422942519685041
0
LINE
8
BLACK
6
CONTINUOUS
10
4.0675792913385829
20
-4.2422942519685041
11
4.0697411417322833
21
-4.2489478346456693
0
LINE
8
BLACK
6
CONTINUOUS
10
4.0697411417322833
20
-4.2489478346456693
11
4.070472440944882
21
-4.2559055118110232
0
LINE
8
BLACK
6
CONTINUOUS
10
4.070472440944882
20
-4.2559055118110232
11
4.0697411417322833
21
-4.2628631889763779
0
LINE
8
BLACK
6
CONTINUOUS
10
4.0697411417322833
20
-4.2628631889763779
11
4.0675792913385829
21
-4.2695167716535432
0
LINE
8
BLACK
6
CONTINUOUS
10
4.0675792913385829
20
-4.2695167716535432
11
4.0640812598425198
21
-4.2755754724409449
0
LINE
8
BLACK
6
CONTINUOUS
10
4.0640812598425198
20
-4.2755754724409449
11
4.0594000393700789
21
-4.2807745275590552
0
LINE
8
BLACK
6
CONTINUOUS
10
4.0594000393700789
20
-4.2807745275590552
11
4.0537401574803145
21
-4.2848866929133855
0
LINE
8
BLACK
6
CONTINUOUS
10
4.0537401574803145
20
-4.2848866929133855
11
4.0473489763779531
21
-4.2877322047244091
0
LINE
8
BLACK
6
CONTINUOUS
10
4.0473489763779531
20
-4.2877322047244091
11
4.0405058661417321
21
-4.2891867716535428
0
LINE
8
BLACK
6
CONTINUOUS
10
4.0405058661417321
20
-4.2891867716535428
11
4.0335098818897634
21
-4.2891867716535428
0
LINE
8
BLACK
6
CONTINUOUS
10
4.0335098818897634
20
-4.2891867716535428
11
4.0266667716535434
21
-4.2877322047244091
0
LINE
8
BLACK
6
CONTINUOUS
10
4.0266667716535434
20
-4.2877322047244091
11
4.0202755905511811
21
-4.2848866929133855
0
LINE
8
BLACK
6
CONTINUOUS
10
4.0202755905511811
20
-4.2848866929133855
11
4.0146157086614176
21
-4.2807745275590552
0
LINE
8
BLACK
6
CONTINUOUS
10
4.0146157086614176
20
-4.2807745275590552
11
4.0099344881889767
21
-4.2755754724409449
0
LINE
8
BLACK
6
CONTINUOUS
10
4.0099344881889767
20
-4.2755754724409449
11
4.0064364566929136
21
-4.2695167716535432
0
LINE
8
BLACK
6
CONTINUOUS
10
4.0064364566929136
20
-4.2695167716535432
11
4.0042746062992123
21
-4.2628631889763779
0
LINE
8
BLACK
6
CONTINUOUS
10
4.0042746062992123
20
-4.2628631889763779
11
4.0035433070866144
21
-4.2559055118110232
0
LINE
8
BLACK
6
CONTINUOUS
10
4.0035433070866144
20
-4.2559055118110232
11
4.0042746062992123
21
-4.2489478346456693
0
LINE
8
BLACK
6
CONTINUOUS
10
4.0042746062992123
20
-4.2489478346456693
11
4.0064364566929136
21
-4.2422942519685041
0
LINE
8
BLACK
6
CONTINUOUS
10
4.0064364566929136
20
-4.2422942519685041
11
4.0099344881889767
21
-4.2362355511811023
0
LINE
8
BLACK
6
CONTINUOUS
10
4.0099344881889767
20
-4.2362355511811023
11
4.0146157086614176
21
-4.231036496062992
0
LINE
8
BLACK
6
CONTINUOUS
10
4.0146157086614176
20
-4.231036496062992
11
4.0202755905511811
21
-4.2269243307086617
0
LINE
8
BLACK
6
CONTINUOUS
10
4.0202755905511811
20
-4.2269243307086617
11
4.0266667716535434
21
-4.2240788188976373
0
LINE
8
BLACK
6
CONTINUOUS
10
4.0266667716535434
20
-4.2240788188976373
11
4.0335098818897634
21
-4.2226242519685036
0
LINE
8
BLACK
6
CONTINUOUS
10
4.0335098818897634
20
-4.2226242519685036
11
4.0405058661417321
21
-4.2226242519685036
0
LINE
8
BLACK
6
CONTINUOUS
10
4.0405058661417321
20
-4.2226242519685036
11
4.0473489763779531
21
-4.2240788188976373
0
LINE
8
BLACK
6
CONTINUOUS
10
3.8256510629921259
20
-4.0637883464566924
11
3.8282055511811022
21
-4.0654952362204719
0
LINE
8
BLACK
6
CONTINUOUS
10
3.8282055511811022
20
-4.0654952362204719
11
3.8299124409448817
21
-4.0680497244094491
0
LINE
8
BLACK
6
CONTINUOUS
10
3.8299124409448817
20
-4.0680497244094491
11
3.830511811023622
21
-4.0710629921259844
0
LINE
8
BLACK
6
CONTINUOUS
10
3.830511811023622
20
-4.0710629921259844
11
3.830511811023622
21
-4.0927165354330706
0
LINE
8
BLACK
6
CONTINUOUS
10
3.830511811023622
20
-4.0927165354330706
11
3.8299124409448817
21
-4.0957298031496059
0
LINE
8
BLACK
6
CONTINUOUS
10
3.8299124409448817
20
-4.0957298031496059
11
3.8282055511811022
21
-4.0982842913385822
0
LINE
8
BLACK
6
CONTINUOUS
10
3.8282055511811022
20
-4.0982842913385822
11
3.8256510629921259
21
-4.0999911811023617
0
LINE
8
BLACK
6
CONTINUOUS
10
3.8256510629921259
20
-4.0999911811023617
11
3.8226377952755906
21
-4.1005905511811021
0
LINE
8
BLACK
6
CONTINUOUS
10
3.8226377952755906
20
-4.1005905511811021
11
3.8068897637795276
21
-4.1005905511811021
0
LINE
8
BLACK
6
CONTINUOUS
10
3.8068897637795276
20
-4.1005905511811021
11
3.8038764960629918
21
-4.0999911811023617
0
LINE
8
BLACK
6
CONTINUOUS
10
3.8038764960629918
20
-4.0999911811023617
11
3.8013220078740155
21
-4.0982842913385822
0
LINE
8
BLACK
6
CONTINUOUS
10
3.8013220078740155
20
-4.0982842913385822
11
3.799615118110236
21
-4.0957298031496059
0
LINE
8
BLACK
6
CONTINUOUS
10
3.799615118110236
20
-4.0957298031496059
11
3.7990157480314961
21
-4.0927165354330706
0
LINE
8
BLACK
6
CONTINUOUS
10
3.7990157480314961
20
-4.0927165354330706
11
3.7990157480314961
21
-4.0710629921259844
0
LINE
8
BLACK
6
CONTINUOUS
10
3.7990157480314961
20
-4.0710629921259844
11
3.799615118110236
21
-4.0680497244094491
0
LINE
8
BLACK
6
CONTINUOUS
10
3.799615118110236
20
-4.0680497244094491
11
3.8013220078740155
21
-4.0654952362204719
0
LINE
8
BLACK
6
CONTINUOUS
10
3.8013220078740155
20
-4.0654952362204719
11
3.8038764960629918
21
-4.0637883464566924
0
LINE
8
BLACK
6
CONTINUOUS
10
3.8038764960629918
20
-4.0637883464566924
11
3.8068897637795276
21
-4.063188976377953
0
LINE
8
BLACK
6
CONTINUOUS
10
3.8068897637795276
20
-4.063188976377953
11
3.8226377952755906
21
-4.063188976377953
0
LINE
8
BLACK
6
CONTINUOUS
10
3.8226377952755906
20
-4.063188976377953
11
3.8256510629921259
21
-4.0637883464566924
0
LINE
8
BLACK
6
CONTINUOUS
10
3.8906116929133856
20
-4.0637883464566924
11
3.8931661811023619
21
-4.0654952362204719
0
LINE
8
BLACK
6
CONTINUOUS
10
3.8931661811023619
20
-4.0654952362204719
11
3.8948730708661414
21
-4.0680497244094491
0
LINE
8
BLACK
6
CONTINUOUS
10
3.8948730708661414
20
-4.0680497244094491
11
3.8954724409448818
21
-4.0710629921259844
0
LINE
8
BLACK
6
CONTINUOUS
10
3.8954724409448818
20
-4.0710629921259844
11
3.8954724409448818
21
-4.0927165354330706
0
LINE
8
BLACK
6
CONTINUOUS
10
3.8954724409448818
20
-4.0927165354330706
11
3.8948730708661414
21
-4.0957298031496059
0
LINE
8
BLACK
6
CONTINUOUS
10
3.8948730708661414
20
-4.0957298031496059
11
3.8931661811023619
21
-4.0982842913385822
0
LINE
8
BLACK
6
CONTINUOUS
10
3.8931661811023619
20
-4.0982842913385822
11
3.8906116929133856
21
-4.0999911811023617
0
LINE
8
BLACK
6
CONTINUOUS
10
3.8906116929133856
20
-4.0999911811023617
11
3.8875984251968503
21
-4.1005905511811021
0
LINE
8
BLACK
6
CONTINUOUS
10
3.8875984251968503
20
-4.1005905511811021
11
3.8718503937007873
21
-4.1005905511811021
0
LINE
8
BLACK
6
CONTINUOUS
10
3.8718503937007873
20
-4.1005905511811021
11
3.868837125984252
21
-4.0999911811023617
0
LINE
8
BLACK
6
CONTINUOUS
10
3.868837125984252
20
-4.0999911811023617
11
3.8662826377952757
21
-4.0982842913385822
0
LINE
8
BLACK
6
CONTINUOUS
10
3.8662826377952757
20
-4.0982842913385822
11
3.8645757480314962
21
-4.0957298031496059
0
LINE
8
BLACK
6
CONTINUOUS
10
3.8645757480314962
20
-4.0957298031496059
11
3.8639763779527558
21
-4.0927165354330706
0
LINE
8
BLACK
6
CONTINUOUS
10
3.8639763779527558
20
-4.0927165354330706
11
3.8639763779527558
21
-4.0710629921259844
0
LINE
8
BLACK
6
CONTINUOUS
10
3.8639763779527558
20
-4.0710629921259844
11
3.8645757480314962
21
-4.0680497244094491
0
LINE
8
BLACK
6
CONTINUOUS
10
3.8645757480314962
20
-4.0680497244094491
11
3.8662826377952757
21
-4.0654952362204719
0
LINE
8
BLACK
6
CONTINUOUS
10
3.8662826377952757
20
-4.0654952362204719
11
3.868837125984252
21
-4.0637883464566924
0
LINE
8
BLACK
6
CONTINUOUS
10
3.868837125984252
20
-4.0637883464566924
11
3.8718503937007873
21
-4.063188976377953
0
LINE
8
BLACK
6
CONTINUOUS
10
3.8718503937007873
20
-4.063188976377953
11
3.8875984251968503
21
-4.063188976377953
0
LINE
8
BLACK
6
CONTINUOUS
10
3.8875984251968503
20
-4.063188976377953
11
3.8906116929133856
21
-4.0637883464566924
0
LINE
8
BLACK
6
CONTINUOUS
10
4.0047849212598425
20
-4.0637883464566924
11
4.0073394094488188
21
-4.0654952362204719
0
LINE
8
BLACK
6
CONTINUOUS
10
4.0073394094488188
20
-4.0654952362204719
11
4.0090462992125984
21
-4.0680497244094491
0
LINE
8
BLACK
6
CONTINUOUS
10
4.0090462992125984
20
-4.0680497244094491
11
4.0096456692913387
21
-4.0710629921259844
0
LINE
8
BLACK
6
CONTINUOUS
10
4.0096456692913387
20
-4.0710629921259844
11
4.0096456692913387
21
-4.0927165354330706
0
LINE
8
BLACK
6
CONTINUOUS
10
4.0096456692913387
20
-4.0927165354330706
11
4.0090462992125984
21
-4.0957298031496059
0
LINE
8
BLACK
6
CONTINUOUS
10
4.0090462992125984
20
-4.0957298031496059
11
4.0073394094488188
21
-4.0982842913385822
0
LINE
8
BLACK
6
CONTINUOUS
10
4.0073394094488188
20
-4.0982842913385822
11
4.0047849212598425
21
-4.0999911811023617
0
LINE
8
BLACK
6
CONTINUOUS
10
4.0047849212598425
20
-4.0999911811023617
11
4.0017716535433072
21
-4.1005905511811021
0
LINE
8
BLACK
6
CONTINUOUS
10
4.0017716535433072
20
-4.1005905511811021
11
3.9860236220472438
21
-4.1005905511811021
0
LINE
8
BLACK
6
CONTINUOUS
10
3.9860236220472438
20
-4.1005905511811021
11
3.9830103543307085
21
-4.0999911811023617
0
LINE
8
BLACK
6
CONTINUOUS
10
3.9830103543307085
20
-4.0999911811023617
11
3.9804558661417322
21
-4.0982842913385822
0
LINE
8
BLACK
6
CONTINUOUS
10
3.9804558661417322
20
-4.0982842913385822
11
3.9787489763779527
21
-4.0957298031496059
0
LINE
8
BLACK
6
CONTINUOUS
10
3.9787489763779527
20
-4.0957298031496059
11
3.9781496062992123
21
-4.0927165354330706
0
LINE
8
BLACK
6
CONTINUOUS
10
3.9781496062992123
20
-4.0927165354330706
11
3.9781496062992123
21
-4.0710629921259844
0
LINE
8
BLACK
6
CONTINUOUS
10
3.9781496062992123
20
-4.0710629921259844
11
3.9787489763779527
21
-4.0680497244094491
0
LINE
8
BLACK
6
CONTINUOUS
10
3.9787489763779527
20
-4.0680497244094491
11
3.9804558661417322
21
-4.0654952362204719
0
LINE
8
BLACK
6
CONTINUOUS
10
3.9804558661417322
20
-4.0654952362204719
11
3.9830103543307085
21
-4.0637883464566924
0
LINE
8
BLACK
6
CONTINUOUS
10
3.9830103543307085
20
-4.0637883464566924
11
3.9860236220472438
21
-4.063188976377953
0
LINE
8
BLACK
6
CONTINUOUS
10
3.9860236220472438
20
-4.063188976377953
11
4.0017716535433072
21
-4.063188976377953
0
LINE
8
BLACK
6
CONTINUOUS
10
4.0017716535433072
20
-4.063188976377953
11
4.0047849212598425
21
-4.0637883464566924
0
LINE
8
BLACK
6
CONTINUOUS
10
4.0697455511811027
20
-4.0637883464566924
11
4.072300039370079
21
-4.0654952362204719
0
LINE
8
BLACK
6
CONTINUOUS
10
4.072300039370079
20
-4.0654952362204719
11
4.0740069291338585
21
-4.0680497244094491
0
LINE
8
BLACK
6
CONTINUOUS
10
4.0740069291338585
20
-4.0680497244094491
11
4.074606299212598
21
-4.0710629921259844
0
LINE
8
BLACK
6
CONTINUOUS
10
4.074606299212598
20
-4.0710629921259844
11
4.074606299212598
21
-4.0927165354330706
0
LINE
8
BLACK
6
CONTINUOUS
10
4.074606299212598
20
-4.0927165354330706
11
4.0740069291338585
21
-4.0957298031496059
0
LINE
8
BLACK
6
CONTINUOUS
10
4.0740069291338585
20
-4.0957298031496059
11
4.072300039370079
21
-4.0982842913385822
0
LINE
8
BLACK
6
CONTINUOUS
10
4.072300039370079
20
-4.0982842913385822
11
4.0697455511811027
21
-4.0999911811023617
0
LINE
8
BLACK
6
CONTINUOUS
10
4.0697455511811027
20
-4.0999911811023617
11
4.0667322834645665
21
-4.1005905511811021
0
LINE
8
BLACK
6
CONTINUOUS
10
4.0667322834645665
20
-4.1005905511811021
11
4.0509842519685035
21
-4.1005905511811021
0
LINE
8
BLACK
6
CONTINUOUS
10
4.0509842519685035
20
-4.1005905511811021
11
4.0479709842519682
21
-4.0999911811023617
0
LINE
8
BLACK
6
CONTINUOUS
10
4.0479709842519682
20
-4.0999911811023617
11
4.0454164960629919
21
-4.0982842913385822
0
LINE
8
BLACK
6
CONTINUOUS
10
4.0454164960629919
20
-4.0982842913385822
11
4.0437096062992124
21
-4.0957298031496059
0
LINE
8
BLACK
6
CONTINUOUS
10
4.0437096062992124
20
-4.0957298031496059
11
4.0431102362204721
21
-4.0927165354330706
0
LINE
8
BLACK
6
CONTINUOUS
10
4.0431102362204721
20
-4.0927165354330706
11
4.0431102362204721
21
-4.0710629921259844
0
LINE
8
BLACK
6
CONTINUOUS
10
4.0431102362204721
20
-4.0710629921259844
11
4.0437096062992124
21
-4.0680497244094491
0
LINE
8
BLACK
6
CONTINUOUS
10
4.0437096062992124
20
-4.0680497244094491
11
4.0454164960629919
21
-4.0654952362204719
0
LINE
8
BLACK
6
CONTINUOUS
10
4.0454164960629919
20
-4.0654952362204719
11
4.0479709842519682
21
-4.0637883464566924
0
LINE
8
BLACK
6
CONTINUOUS
10
4.0479709842519682
20
-4.0637883464566924
11
4.0509842519685035
21
-4.063188976377953
0
LINE
8
BLACK
6
CONTINUOUS
10
4.0509842519685035
20
-4.063188976377953
11
4.0667322834645665
21
-4.063188976377953
0
LINE
8
BLACK
6
CONTINUOUS
10
4.0667322834645665
20
-4.063188976377953
11
4.0697455511811027
21
-4.0637883464566924
0
LINE
8
BLACK
6
CONTINUOUS
10
3.7616405905511812
20
-4.0438594488188979
11
3.7648337401574801
21
-4.0459930314960628
0
LINE
8
BLACK
6
CONTINUOUS
10
3.7648337401574801
20
-4.0459930314960628
11
3.7669673228346454
21
-4.0491861811023622
0
LINE
8
BLACK
6
CONTINUOUS
10
3.7669673228346454
20
-4.0491861811023622
11
3.7677165354330708
21
-4.0529527559055119
0
LINE
8
BLACK
6
CONTINUOUS
10
3.7677165354330708
20
-4.0529527559055119
11
3.7677165354330708
21
-4.0726377952755906
0
LINE
8
BLACK
6
CONTINUOUS
10
3.7677165354330708
20
-4.0726377952755906
11
3.7669673228346454
21
-4.0764043700787402
0
LINE
8
BLACK
6
CONTINUOUS
10
3.7669673228346454
20
-4.0764043700787402
11
3.7648337401574801
21
-4.0795975196850396
0
LINE
8
BLACK
6
CONTINUOUS
10
3.7648337401574801
20
-4.0795975196850396
11
3.7616405905511812
21
-4.0817311023622045
0
LINE
8
BLACK
6
CONTINUOUS
10
3.7616405905511812
20
-4.0817311023622045
11
3.7578740157480315
21
-4.0824803149606295
0
LINE
8
BLACK
6
CONTINUOUS
10
3.7578740157480315
20
-4.0824803149606295
11
3.7204724409448819
21
-4.0824803149606295
0
LINE
8
BLACK
6
CONTINUOUS
10
3.7204724409448819
20
-4.0824803149606295
11
3.7167058661417323
21
-4.0817311023622045
0
LINE
8
BLACK
6
CONTINUOUS
10
3.7167058661417323
20
-4.0817311023622045
11
3.7135127165354329
21
-4.0795975196850396
0
LINE
8
BLACK
6
CONTINUOUS
10
3.7135127165354329
20
-4.0795975196850396
11
3.7113791338582676
21
-4.0764043700787402
0
LINE
8
BLACK
6
CONTINUOUS
10
3.7113791338582676
20
-4.0764043700787402
11
3.7106299212598426
21
-4.0726377952755906
0
LINE
8
BLACK
6
CONTINUOUS
10
3.7106299212598426
20
-4.0726377952755906
11
3.7106299212598426
21
-4.0529527559055119
0
LINE
8
BLACK
6
CONTINUOUS
10
3.7106299212598426
20
-4.0529527559055119
11
3.7113791338582676
21
-4.0491861811023622
0
LINE
8
BLACK
6
CONTINUOUS
10
3.7113791338582676
20
-4.0491861811023622
11
3.7135127165354329
21
-4.0459930314960628
0
LINE
8
BLACK
6
CONTINUOUS
10
3.7135127165354329
20
-4.0459930314960628
11
3.7167058661417323
21
-4.0438594488188979
0
LINE
8
BLACK
6
CONTINUOUS
10
3.7167058661417323
20
-4.0438594488188979
11
3.7204724409448819
21
-4.0431102362204721
0
LINE
8
BLACK
6
CONTINUOUS
10
3.7204724409448819
20
-4.0431102362204721
11
3.7578740157480315
21
-4.0431102362204721
0
LINE
8
BLACK
6
CONTINUOUS
10
3.7578740157480315
20
-4.0431102362204721
11
3.7616405905511812
21
-4.0438594488188979
0
LINE
8
BLACK
6
CONTINUOUS
10
3.8664331889763779
20
-4.0006463779527559
11
3.8683490551181103
21
-4.0019265354330704
0
LINE
8
BLACK
6
CONTINUOUS
10
3.8683490551181103
20
-4.0019265354330704
11
3.8696292125984253
21
-4.0038424015748033
0
LINE
8
BLACK
6
CONTINUOUS
10
3.8696292125984253
20
-4.0038424015748033
11
3.8700787401574801
21
-4.0061023622047243
0
LINE
8
BLACK
6
CONTINUOUS
10
3.8700787401574801
20
-4.0061023622047243
11
3.8700787401574801
21
-4.0179133858267715
0
LINE
8
BLACK
6
CONTINUOUS
10
3.8700787401574801
20
-4.0179133858267715
11
3.8696292125984253
21
-4.0201733464566924
0
LINE
8
BLACK
6
CONTINUOUS
10
3.8696292125984253
20
-4.0201733464566924
11
3.8683490551181103
21
-4.0220892125984253
0
LINE
8
BLACK
6
CONTINUOUS
10
3.8683490551181103
20
-4.0220892125984253
11
3.8664331889763779
21
-4.0233693700787398
0
LINE
8
BLACK
6
CONTINUOUS
10
3.8664331889763779
20
-4.0233693700787398
11
3.8641732283464565
21
-4.0238188976377955
0
LINE
8
BLACK
6
CONTINUOUS
10
3.8641732283464565
20
-4.0238188976377955
11
3.8070866141732282
21
-4.0238188976377955
0
LINE
8
BLACK
6
CONTINUOUS
10
3.8070866141732282
20
-4.0238188976377955
11
3.8048266535433068
21
-4.0233693700787398
0
LINE
8
BLACK
6
CONTINUOUS
10
3.8048266535433068
20
-4.0233693700787398
11
3.8029107874015748
21
-4.0220892125984253
0
LINE
8
BLACK
6
CONTINUOUS
10
3.8029107874015748
20
-4.0220892125984253
11
3.8016306299212599
21
-4.0201733464566924
0
LINE
8
BLACK
6
CONTINUOUS
10
3.8016306299212599
20
-4.0201733464566924
11
3.8011811023622046
21
-4.0179133858267715
0
LINE
8
BLACK
6
CONTINUOUS
10
3.8011811023622046
20
-4.0179133858267715
11
3.8011811023622046
21
-4.0061023622047243
0
LINE
8
BLACK
6
CONTINUOUS
10
3.8011811023622046
20
-4.0061023622047243
11
3.8016306299212599
21
-4.0038424015748033
0
LINE
8
BLACK
6
CONTINUOUS
10
3.8016306299212599
20
-4.0038424015748033
11
3.8029107874015748
21
-4.0019265354330704
0
LINE
8
BLACK
6
CONTINUOUS
10
3.8029107874015748
20
-4.0019265354330704
11
3.8048266535433068
21
-4.0006463779527559
0
LINE
8
BLACK
6
CONTINUOUS
10
3.8048266535433068
20
-4.0006463779527559
11
3.8070866141732282
21
-4.0001968503937011
0
LINE
8
BLACK
6
CONTINUOUS
10
3.8070866141732282
20
-4.0001968503937011
11
3.8641732283464565
21
-4.0001968503937011
0
LINE
8
BLACK
6
CONTINUOUS
10
3.8641732283464565
20
-4.0001968503937011
11
3.8664331889763779
21
-4.0006463779527559
0
LINE
8
BLACK
6
CONTINUOUS
10
4.0691890944881886
20
-4.0006463779527559
11
4.0711049606299214
21
-4.0019265354330704
0
LINE
8
BLACK
6
CONTINUOUS
10
4.0711049606299214
20
-4.0019265354330704
11
4.072385118110236
21
-4.0038424015748033
0
LINE
8
BLACK
6
CONTINUOUS
10
4.072385118110236
20
-4.0038424015748033
11
4.0728346456692917
21
-4.0061023622047243
0
LINE
8
BLACK
6
CONTINUOUS
10
4.0728346456692917
20
-4.0061023622047243
11
4.0728346456692917
21
-4.0179133858267715
0
LINE
8
BLACK
6
CONTINUOUS
10
4.0728346456692917
20
-4.0179133858267715
11
4.072385118110236
21
-4.0201733464566924
0
LINE
8
BLACK
6
CONTINUOUS
10
4.072385118110236
20
-4.0201733464566924
11
4.0711049606299214
21
-4.0220892125984253
0
LINE
8
BLACK
6
CONTINUOUS
10
4.0711049606299214
20
-4.0220892125984253
11
4.0691890944881886
21
-4.0233693700787398
0
LINE
8
BLACK
6
CONTINUOUS
10
4.0691890944881886
20
-4.0233693700787398
11
4.0669291338582676
21
-4.0238188976377955
0
LINE
8
BLACK
6
CONTINUOUS
10
4.0669291338582676
20
-4.0238188976377955
11
4.0098425196850389
21
-4.0238188976377955
0
LINE
8
BLACK
6
CONTINUOUS
10
4.0098425196850389
20
-4.0238188976377955
11
4.007582559055118
21
-4.0233693700787398
0
LINE
8
BLACK
6
CONTINUOUS
10
4.007582559055118
20
-4.0233693700787398
11
4.005666692913386
21
-4.0220892125984253
0
LINE
8
BLACK
6
CONTINUOUS
10
4.005666692913386
20
-4.0220892125984253
11
4.0043865354330705
21
-4.0201733464566924
0
LINE
8
BLACK
6
CONTINUOUS
10
4.0043865354330705
20
-4.0201733464566924
11
4.0039370078740157
21
-4.0179133858267715
0
LINE
8
BLACK
6
CONTINUOUS
10
4.0039370078740157
20
-4.0179133858267715
11
4.0039370078740157
21
-4.0061023622047243
0
LINE
8
BLACK
6
CONTINUOUS
10
4.0039370078740157
20
-4.0061023622047243
11
4.0043865354330705
21
-4.0038424015748033
0
LINE
8
BLACK
6
CONTINUOUS
10
4.0043865354330705
20
-4.0038424015748033
11
4.005666692913386
21
-4.0019265354330704
0
LINE
8
BLACK
6
CONTINUOUS
10
4.005666692913386
20
-4.0019265354330704
11
4.007582559055118
21
-4.0006463779527559
0
LINE
8
BLACK
6
CONTINUOUS
10
4.007582559055118
20
-4.0006463779527559
11
4.0098425196850389
21
-4.0001968503937011
0
LINE
8
BLACK
6
CONTINUOUS
10
4.0098425196850389
20
-4.0001968503937011
11
4.0669291338582676
21
-4.0001968503937011
0
LINE
8
BLACK
6
CONTINUOUS
10
4.0669291338582676
20
-4.0001968503937011
11
4.0691890944881886
21
-4.0006463779527559
0
LINE
8
BLACK
6
CONTINUOUS
10
3.3636783464566928
20
-3.8541326377952756
11
3.3748027952755906
21
-3.8572495669291338
0
LINE
8
BLACK
6
CONTINUOUS
10
3.3748027952755906
20
-3.8572495669291338
11
3.3853992125984251
21
-3.861852244094488
0
LINE
8
BLACK
6
CONTINUOUS
10
3.3853992125984251
20
-3.861852244094488
11
3.3952701968503938
21
-3.8678549212598425
0
LINE
8
BLACK
6
CONTINUOUS
10
3.3952701968503938
20
-3.8678549212598425
11
3.4042318503937006
21
-3.8751457874015749
0
LINE
8
BLACK
6
CONTINUOUS
10
3.4042318503937006
20
-3.8751457874015749
11
3.4121172834645668
21
-3.8835890157480315
0
LINE
8
BLACK
6
CONTINUOUS
10
3.4121172834645668
20
-3.8835890157480315
11
3.4187796062992124
21
-3.8930273622047245
0
LINE
8
BLACK
6
CONTINUOUS
10
3.4187796062992124
20
-3.8930273622047245
11
3.4240946456692911
21
-3.9032849606299211
0
LINE
8
BLACK
6
CONTINUOUS
10
3.4240946456692911
20
-3.9032849606299211
11
3.427963464566929
21
-3.9141707480314958
0
LINE
8
BLACK
6
CONTINUOUS
10
3.427963464566929
20
-3.9141707480314958
11
3.4303139763779527
21
-3.925481968503937
0
LINE
8
BLACK
6
CONTINUOUS
10
3.4303139763779527
20
-3.925481968503937
11
3.4311023622047245
21
-3.9370078740157481
0
LINE
8
BLACK
6
CONTINUOUS
10
3.4311023622047245
20
-3.9370078740157481
11
3.4303139763779527
21
-3.9485337795275588
0
LINE
8
BLACK
6
CONTINUOUS
10
3.4303139763779527
20
-3.9485337795275588
11
3.427963464566929
21
-3.9598450000000001
0
LINE
8
BLACK
6
CONTINUOUS
10
3.427963464566929
20
-3.9598450000000001
11
3.4240946456692911
21
-3.9707307874015747
0
LINE
8
BLACK
6
CONTINUOUS
10
3.4240946456692911
20
-3.9707307874015747
11
3.4187796062992124
21
-3.9809883858267714
0
LINE
8
BLACK
6
CONTINUOUS
10
3.4187796062992124
20
-3.9809883858267714
11
3.4121172834645668
21
-3.9904267322834643
0
LINE
8
BLACK
6
CONTINUOUS
10
3.4121172834645668
20
-3.9904267322834643
11
3.4042318503937006
21
-3.9988699606299209
0
LINE
8
BLACK
6
CONTINUOUS
10
3.4042318503937006
20
-3.9988699606299209
11
3.3952701968503938
21
-4.0061608267716533
0
LINE
8
BLACK
6
CONTINUOUS
10
3.3952701968503938
20
-4.0061608267716533
11
3.3853992125984251
21
-4.0121635039370078
0
LINE
8
BLACK
6
CONTINUOUS
10
3.3853992125984251
20
-4.0121635039370078
11
3.3748027952755906
21
-4.0167661811023621
0
LINE
8
BLACK
6
CONTINUOUS
10
3.3748027952755906
20
-4.0167661811023621
11
3.3636783464566928
21
-4.0198831102362202
0
LINE
8
BLACK
6
CONTINUOUS
10
3.3636783464566928
20
-4.0198831102362202
11
3.3522331102362206
21
-4.0214562204724409
0
LINE
8
BLACK
6
CONTINUOUS
10
3.3522331102362206
20
-4.0214562204724409
11
3.3406802755905511
21
-4.0214562204724409
0
LINE
8
BLACK
6
CONTINUOUS
10
3.3406802755905511
20
-4.0214562204724409
11
3.3292350393700785
21
-4.0198831102362202
0
LINE
8
BLACK
6
CONTINUOUS
10
3.3292350393700785
20
-4.0198831102362202
11
3.3181105905511812
21
-4.0167661811023621
0
LINE
8
BLACK
6
CONTINUOUS
10
3.3181105905511812
20
-4.0167661811023621
11
3.3075141732283462
21
-4.0121635039370078
0
LINE
8
BLACK
6
CONTINUOUS
10
3.3075141732283462
20
-4.0121635039370078
11
3.297643188976378
21
-4.0061608267716533
0
LINE
8
BLACK
6
CONTINUOUS
10
3.297643188976378
20
-4.0061608267716533
11
3.2886815354330707
21
-3.9988699606299209
0
LINE
8
BLACK
6
CONTINUOUS
10
3.2886815354330707
20
-3.9988699606299209
11
3.2807961023622045
21
-3.9904267322834643
0
LINE
8
BLACK
6
CONTINUOUS
10
3.2807961023622045
20
-3.9904267322834643
11
3.2741337795275589
21
-3.9809883858267714
0
LINE
8
BLACK
6
CONTINUOUS
10
3.2741337795275589
20
-3.9809883858267714
11
3.2688187401574802
21
-3.9707307874015747
0
LINE
8
BLACK
6
CONTINUOUS
10
3.2688187401574802
20
-3.9707307874015747
11
3.2649499212598423
21
-3.9598450000000001
0
LINE
8
BLACK
6
CONTINUOUS
10
3.2649499212598423
20
-3.9598450000000001
11
3.2625994094488187
21
-3.9485337795275588
0
LINE
8
BLACK
6
CONTINUOUS
10
3.2625994094488187
20
-3.9485337795275588
11
3.2618110236220472
21
-3.9370078740157481
0
LINE
8
BLACK
6
CONTINUOUS
10
3.2618110236220472
20
-3.9370078740157481
11
3.2625994094488187
21
-3.925481968503937
0
LINE
8
BLACK
6
CONTINUOUS
10
3.2625994094488187
20
-3.925481968503937
11
3.2649499212598423
21
-3.9141707480314958
0
LINE
8
BLACK
6
CONTINUOUS
10
3.2649499212598423
20
-3.9141707480314958
11
3.2688187401574802
21
-3.9032849606299211
0
LINE
8
BLACK
6
CONTINUOUS
10
3.2688187401574802
20
-3.9032849606299211
11
3.2741337795275589
21
-3.8930273622047245
0
LINE
8
BLACK
6
CONTINUOUS
10
3.2741337795275589
20
-3.8930273622047245
11
3.2807961023622045
21
-3.8835890157480315
0
LINE
8
BLACK
6
CONTINUOUS
10
3.2807961023622045
20
-3.8835890157480315
11
3.2886815354330707
21
-3.8751457874015749
0
LINE
8
BLACK
6
CONTINUOUS
10
3.2886815354330707
20
-3.8751457874015749
11
3.297643188976378
21
-3.8678549212598425
0
LINE
8
BLACK
6
CONTINUOUS
10
3.297643188976378
20
-3.8678549212598425
11
3.3075141732283462
21
-3.861852244094488
0
LINE
8
BLACK
6
CONTINUOUS
10
3.3075141732283462
20
-3.861852244094488
11
3.3181105905511812
21
-3.8572495669291338
0
LINE
8
BLACK
6
CONTINUOUS
10
3.3181105905511812
20
-3.8572495669291338
11
3.3292350393700785
21
-3.8541326377952756
0
LINE
8
BLACK
6
CONTINUOUS
10
3.3292350393700785
20
-3.8541326377952756
11
3.3406802755905511
21
-3.852559527559055
0
LINE
8
BLACK
6
CONTINUOUS
10
3.3406802755905511
20
-3.852559527559055
11
3.3522331102362206
21
-3.852559527559055
0
LINE
8
BLACK
6
CONTINUOUS
10
3.3522331102362206
20
-3.852559527559055
11
3.3636783464566928
21
-3.8541326377952756
0
LINE
8
BLACK
6
CONTINUOUS
10
4.5447807086614169
20
-3.8541326377952756
11
4.5559051574803151
21
-3.8572495669291338
0
LINE
8
BLACK
6
CONTINUOUS
10
4.5559051574803151
20
-3.8572495669291338
11
4.5665015748031497
21
-3.861852244094488
0
LINE
8
BLACK
6
CONTINUOUS
10
4.5665015748031497
20
-3.861852244094488
11
4.5763725590551179
21
-3.8678549212598425
0
LINE
8
BLACK
6
CONTINUOUS
10
4.5763725590551179
20
-3.8678549212598425
11
4.5853342125984247
21
-3.8751457874015749
0
LINE
8
BLACK
6
CONTINUOUS
10
4.5853342125984247
20
-3.8751457874015749
11
4.5932196456692909
21
-3.8835890157480315
0
LINE
8
BLACK
6
CONTINUOUS
10
4.5932196456692909
20
-3.8835890157480315
11
4.5998819685039365
21
-3.8930273622047245
0
LINE
8
BLACK
6
CONTINUOUS
10
4.5998819685039365
20
-3.8930273622047245
11
4.6051970078740156
21
-3.9032849606299211
0
LINE
8
BLACK
6
CONTINUOUS
10
4.6051970078740156
20
-3.9032849606299211
11
4.6090658267716531
21
-3.9141707480314958
0
LINE
8
BLACK
6
CONTINUOUS
10
4.6090658267716531
20
-3.9141707480314958
11
4.6114163385826767
21
-3.925481968503937
0
LINE
8
BLACK
6
CONTINUOUS
10
4.6114163385826767
20
-3.925481968503937
11
4.6122047244094491
21
-3.9370078740157481
0
LINE
8
BLACK
6
CONTINUOUS
10
4.6122047244094491
20
-3.9370078740157481
11
4.6114163385826767
21
-3.9485337795275588
0
LINE
8
BLACK
6
CONTINUOUS
10
4.6114163385826767
20
-3.9485337795275588
11
4.6090658267716531
21
-3.9598450000000001
0
LINE
8
BLACK
6
CONTINUOUS
10
4.6090658267716531
20
-3.9598450000000001
11
4.6051970078740156
21
-3.9707307874015747
0
LINE
8
BLACK
6
CONTINUOUS
10
4.6051970078740156
20
-3.9707307874015747
11
4.5998819685039365
21
-3.9809883858267714
0
LINE
8
BLACK
6
CONTINUOUS
10
4.5998819685039365
20
-3.9809883858267714
11
4.5932196456692909
21
-3.9904267322834643
0
LINE
8
BLACK
6
CONTINUOUS
10
4.5932196456692909
20
-3.9904267322834643
11
4.5853342125984247
21
-3.9988699606299209
0
LINE
8
BLACK
6
CONTINUOUS
10
4.5853342125984247
20
-3.9988699606299209
11
4.5763725590551179
21
-4.0061608267716533
0
LINE
8
BLACK
6
CONTINUOUS
10
4.5763725590551179
20
-4.0061608267716533
11
4.5665015748031497
21
-4.0121635039370078
0
LINE
8
BLACK
6
CONTINUOUS
10
4.5665015748031497
20
-4.0121635039370078
11
4.5559051574803151
21
-4.0167661811023621
0
LINE
8
BLACK
6
CONTINUOUS
10
4.5559051574803151
20
-4.0167661811023621
11
4.5447807086614169
21
-4.0198831102362202
0
LINE
8
BLACK
6
CONTINUOUS
10
4.5447807086614169
20
-4.0198831102362202
11
4.5333354724409451
21
-4.0214562204724409
0
LINE
8
BLACK
6
CONTINUOUS
10
4.5333354724409451
20
-4.0214562204724409
11
4.5217826377952752
21
-4.0214562204724409
0
LINE
8
BLACK
6
CONTINUOUS
10
4.5217826377952752
20
-4.0214562204724409
11
4.5103374015748035
21
-4.0198831102362202
0
LINE
8
BLACK
6
CONTINUOUS
10
4.5103374015748035
20
-4.0198831102362202
11
4.4992129527559053
21
-4.0167661811023621
0
LINE
8
BLACK
6
CONTINUOUS
10
4.4992129527559053
20
-4.0167661811023621
11
4.4886165354330707
21
-4.0121635039370078
0
LINE
8
BLACK
6
CONTINUOUS
10
4.4886165354330707
20
-4.0121635039370078
11
4.4787455511811025
21
-4.0061608267716533
0
LINE
8
BLACK
6
CONTINUOUS
10
4.4787455511811025
20
-4.0061608267716533
11
4.4697838976377948
21
-3.9988699606299209
0
LINE
8
BLACK
6
CONTINUOUS
10
4.4697838976377948
20
-3.9988699606299209
11
4.4618984645669286
21
-3.9904267322834643
0
LINE
8
BLACK
6
CONTINUOUS
10
4.4618984645669286
20
-3.9904267322834643
11
4.455236141732283
21
-3.9809883858267714
0
LINE
8
BLACK
6
CONTINUOUS
10
4.455236141732283
20
-3.9809883858267714
11
4.4499211023622047
21
-3.9707307874015747
0
LINE
8
BLACK
6
CONTINUOUS
10
4.4499211023622047
20
-3.9707307874015747
11
4.4460522834645673
21
-3.9598450000000001
0
LINE
8
BLACK
6
CONTINUOUS
10
4.4460522834645673
20
-3.9598450000000001
11
4.4437017716535436
21
-3.9485337795275588
0
LINE
8
BLACK
6
CONTINUOUS
10
4.4437017716535436
20
-3.9485337795275588
11
4.4429133858267713
21
-3.9370078740157481
0
LINE
8
BLACK
6
CONTINUOUS
10
4.4429133858267713
20
-3.9370078740157481
11
4.4437017716535436
21
-3.925481968503937
0
LINE
8
BLACK
6
CONTINUOUS
10
4.4437017716535436
20
-3.925481968503937
11
4.4460522834645673
21
-3.9141707480314958
0
LINE
8
BLACK
6
CONTINUOUS
10
4.4460522834645673
20
-3.9141707480314958
11
4.4499211023622047
21
-3.9032849606299211
0
LINE
8
BLACK
6
CONTINUOUS
10
4.4499211023622047
20
-3.9032849606299211
11
4.455236141732283
21
-3.8930273622047245
0
LINE
8
BLACK
6
CONTINUOUS
10
4.455236141732283
20
-3.8930273622047245
11
4.4618984645669286
21
-3.8835890157480315
0
LINE
8
BLACK
6
CONTINUOUS
10
4.4618984645669286
20
-3.8835890157480315
11
4.4697838976377948
21
-3.8751457874015749
0
LINE
8
BLACK
6
CONTINUOUS
10
4.4697838976377948
20
-3.8751457874015749
11
4.4787455511811025
21
-3.8678549212598425
0
LINE
8
BLACK
6
CONTINUOUS
10
4.4787455511811025
20
-3.8678549212598425
11
4.4886165354330707
21
-3.861852244094488
0
LINE
8
BLACK
6
CONTINUOUS
10
4.4886165354330707
20
-3.861852244094488
11
4.4992129527559053
21
-3.8572495669291338
0
LINE
8
BLACK
6
CONTINUOUS
10
4.4992129527559053
20
-3.8572495669291338
11
4.5103374015748035
21
-3.8541326377952756
0
LINE
8
BLACK
6
CONTINUOUS
10
4.5103374015748035
20
-3.8541326377952756
11
4.5217826377952752
21
-3.852559527559055
0
LINE
8
BLACK
6
CONTINUOUS
10
4.5217826377952752
20
-3.852559527559055
11
4.5333354724409451
21
-3.852559527559055
0
LINE
8
BLACK
6
CONTINUOUS
10
4.5333354724409451
20
-3.852559527559055
11
4.5447807086614169
21
-3.8541326377952756
0
LINE
8
BLACK
6
CONTINUOUS
10
3.7616405905511812
20
-3.9690562992125984
11
3.7648337401574801
21
-3.9711898818897637
0
LINE
8
BLACK
6
CONTINUOUS
10
3.7648337401574801
20
-3.9711898818897637
11
3.7669673228346454
21
-3.9743830314960631
0
LINE
8
BLACK
6
CONTINUOUS
10
3.7669673228346454
20
-3.9743830314960631
11
3.7677165354330708
21
-3.9781496062992123
0
LINE
8
BLACK
6
CONTINUOUS
10
3.7677165354330708
20
-3.9781496062992123
11
3.7677165354330708
21
-3.997834645669291
0
LINE
8
BLACK
6
CONTINUOUS
10
3.7677165354330708
20
-3.997834645669291
11
3.7669673228346454
21
-4.0016012204724412
0
LINE
8
BLACK
6
CONTINUOUS
10
3.7669673228346454
20
-4.0016012204724412
11
3.7648337401574801
21
-4.0047943700787405
0
LINE
8
BLACK
6
CONTINUOUS
10
3.7648337401574801
20
-4.0047943700787405
11
3.7616405905511812
21
-4.0069279527559054
0
LINE
8
BLACK
6
CONTINUOUS
10
3.7616405905511812
20
-4.0069279527559054
11
3.7578740157480315
21
-4.0076771653543304
0
LINE
8
BLACK
6
CONTINUOUS
10
3.7578740157480315
20
-4.0076771653543304
11
3.7204724409448819
21
-4.0076771653543304
0
LINE
8
BLACK
6
CONTINUOUS
10
3.7204724409448819
20
-4.0076771653543304
11
3.7167058661417323
21
-4.0069279527559054
0
LINE
8
BLACK
6
CONTINUOUS
10
3.7167058661417323
20
-4.0069279527559054
11
3.7135127165354329
21
-4.0047943700787405
0
LINE
8
BLACK
6
CONTINUOUS
10
3.7135127165354329
20
-4.0047943700787405
11
3.7113791338582676
21
-4.0016012204724412
0
LINE
8
BLACK
6
CONTINUOUS
10
3.7113791338582676
20
-4.0016012204724412
11
3.7106299212598426
21
-3.997834645669291
0
LINE
8
BLACK
6
CONTINUOUS
10
3.7106299212598426
20
-3.997834645669291
11
3.7106299212598426
21
-3.9781496062992123
0
LINE
8
BLACK
6
CONTINUOUS
10
3.7106299212598426
20
-3.9781496062992123
11
3.7113791338582676
21
-3.9743830314960631
0
LINE
8
BLACK
6
CONTINUOUS
10
3.7113791338582676
20
-3.9743830314960631
11
3.7135127165354329
21
-3.9711898818897637
0
LINE
8
BLACK
6
CONTINUOUS
10
3.7135127165354329
20
-3.9711898818897637
11
3.7167058661417323
21
-3.9690562992125984
0
LINE
8
BLACK
6
CONTINUOUS
10
3.7167058661417323
20
-3.9690562992125984
11
3.7204724409448819
21
-3.968307086614173
0
LINE
8
BLACK
6
CONTINUOUS
10
3.7204724409448819
20
-3.968307086614173
11
3.7578740157480315
21
-3.968307086614173
0
LINE
8
BLACK
6
CONTINUOUS
10
3.7578740157480315
20
-3.968307086614173
11
3.7616405905511812
21
-3.9690562992125984
0
LINE
8
BLACK
6
CONTINUOUS
10
3.8664331889763779
20
-3.9506463779527556
11
3.8683490551181103
21
-3.9519265354330706
0
LINE
8
BLACK
6
CONTINUOUS
10
3.8683490551181103
20
-3.9519265354330706
11
3.8696292125984253
21
-3.953842401574803
0
LINE
8
BLACK
6
CONTINUOUS
10
3.8696292125984253
20
-3.953842401574803
11
3.8700787401574801
21
-3.9561023622047244
0
LINE
8
BLACK
6
CONTINUOUS
10
3.8700787401574801
20
-3.9561023622047244
11
3.8700787401574801
21
-3.9679133858267717
0
LINE
8
BLACK
6
CONTINUOUS
10
3.8700787401574801
20
-3.9679133858267717
11
3.8696292125984253
21
-3.9701733464566926
0
LINE
8
BLACK
6
CONTINUOUS
10
3.8696292125984253
20
-3.9701733464566926
11
3.8683490551181103
21
-3.9720892125984251
0
LINE
8
BLACK
6
CONTINUOUS
10
3.8683490551181103
20
-3.9720892125984251
11
3.8664331889763779
21
-3.97336937007874
0
LINE
8
BLACK
6
CONTINUOUS
10
3.8664331889763779
20
-3.97336937007874
11
3.8641732283464565
21
-3.9738188976377953
0
LINE
8
BLACK
6
CONTINUOUS
10
3.8641732283464565
20
-3.9738188976377953
11
3.8070866141732282
21
-3.9738188976377953
0
LINE
8
BLACK
6
CONTINUOUS
10
3.8070866141732282
20
-3.9738188976377953
11
3.8048266535433068
21
-3.97336937007874
0
LINE
8
BLACK
6
CONTINUOUS
10
3.8048266535433068
20
-3.97336937007874
11
3.8029107874015748
21
-3.9720892125984251
0
LINE
8
BLACK
6
CONTINUOUS
10
3.8029107874015748
20
-3.9720892125984251
11
3.8016306299212599
21
-3.9701733464566926
0
LINE
8
BLACK
6
CONTINUOUS
10
3.8016306299212599
20
-3.9701733464566926
11
3.8011811023622046
21
-3.9679133858267717
0
LINE
8
BLACK
6
CONTINUOUS
10
3.8011811023622046
20
-3.9679133858267717
11
3.8011811023622046
21
-3.9561023622047244
0
LINE
8
BLACK
6
CONTINUOUS
10
3.8011811023622046
20
-3.9561023622047244
11
3.8016306299212599
21
-3.953842401574803
0
LINE
8
BLACK
6
CONTINUOUS
10
3.8016306299212599
20
-3.953842401574803
11
3.8029107874015748
21
-3.9519265354330706
0
LINE
8
BLACK
6
CONTINUOUS
10
3.8029107874015748
20
-3.9519265354330706
11
3.8048266535433068
21
-3.9506463779527556
0
LINE
8
BLACK
6
CONTINUOUS
10
3.8048266535433068
20
-3.9506463779527556
11
3.8070866141732282
21
-3.9501968503937008
0
LINE
8
BLACK
6
CONTINUOUS
10
3.8070866141732282
20
-3.9501968503937008
11
3.8641732283464565
21
-3.9501968503937008
0
LINE
8
BLACK
6
CONTINUOUS
10
3.8641732283464565
20
-3.9501968503937008
11
3.8664331889763779
21
-3.9506463779527556
0
LINE
8
BLACK
6
CONTINUOUS
10
4.0691890944881886
20
-3.9506463779527556
11
4.0711049606299214
21
-3.9519265354330706
0
LINE
8
BLACK
6
CONTINUOUS
10
4.0711049606299214
20
-3.9519265354330706
11
4.072385118110236
21
-3.953842401574803
0
LINE
8
BLACK
6
CONTINUOUS
10
4.072385118110236
20
-3.953842401574803
11
4.0728346456692917
21
-3.9561023622047244
0
LINE
8
BLACK
6
CONTINUOUS
10
4.0728346456692917
20
-3.9561023622047244
11
4.0728346456692917
21
-3.9679133858267717
0
LINE
8
BLACK
6
CONTINUOUS
10
4.0728346456692917
20
-3.9679133858267717
11
4.072385118110236
21
-3.9701733464566926
0
LINE
8
BLACK
6
CONTINUOUS
10
4.072385118110236
20
-3.9701733464566926
11
4.0711049606299214
21
-3.9720892125984251
0
LINE
8
BLACK
6
CONTINUOUS
10
4.0711049606299214
20
-3.9720892125984251
11
4.0691890944881886
21
-3.97336937007874
0
LINE
8
BLACK
6
CONTINUOUS
10
4.0691890944881886
20
-3.97336937007874
11
4.0669291338582676
21
-3.9738188976377953
0
LINE
8
BLACK
6
CONTINUOUS
10
4.0669291338582676
20
-3.9738188976377953
11
4.0098425196850389
21
-3.9738188976377953
0
LINE
8
BLACK
6
CONTINUOUS
10
4.0098425196850389
20
-3.9738188976377953
11
4.007582559055118
21
-3.97336937007874
0
LINE
8
BLACK
6
CONTINUOUS
10
4.007582559055118
20
-3.97336937007874
11
4.005666692913386
21
-3.9720892125984251
0
LINE
8
BLACK
6
CONTINUOUS
10
4.005666692913386
20
-3.9720892125984251
11
4.0043865354330705
21
-3.9701733464566926
0
LINE
8
BLACK
6
CONTINUOUS
10
4.0043865354330705
20
-3.9701733464566926
11
4.0039370078740157
21
-3.9679133858267717
0
LINE
8
BLACK
6
CONTINUOUS
10
4.0039370078740157
20
-3.9679133858267717
11
4.0039370078740157
21
-3.9561023622047244
0
LINE
8
BLACK
6
CONTINUOUS
10
4.0039370078740157
20
-3.9561023622047244
11
4.0043865354330705
21
-3.953842401574803
0
LINE
8
BLACK
6
CONTINUOUS
10
4.0043865354330705
20
-3.953842401574803
11
4.005666692913386
21
-3.9519265354330706
0
LINE
8
BLACK
6
CONTINUOUS
10
4.005666692913386
20
-3.9519265354330706
11
4.007582559055118
21
-3.9506463779527556
0
LINE
8
BLACK
6
CONTINUOUS
10
4.007582559055118
20
-3.9506463779527556
11
4.0098425196850389
21
-3.9501968503937008
0
LINE
8
BLACK
6
CONTINUOUS
10
4.0098425196850389
20
-3.9501968503937008
11
4.0669291338582676
21
-3.9501968503937008
0
LINE
8
BLACK
6
CONTINUOUS
10
4.0669291338582676
20
-3.9501968503937008
11
4.0691890944881886
21
-3.9506463779527556
0
LINE
8
BLACK
6
CONTINUOUS
10
3.772090708661417
20
-3.9030364960629922
11
3.7749645275590549
21
-3.9049567322834644
0
LINE
8
BLACK
6
CONTINUOUS
10
3.7749645275590549
20
-3.9049567322834644
11
3.7768847637795275
21
-3.9078305511811022
0
LINE
8
BLACK
6
CONTINUOUS
10
3.7768847637795275
20
-3.9078305511811022
11
3.7775590551181102
21
-3.9112204724409447
0
LINE
8
BLACK
6
CONTINUOUS
10
3.7775590551181102
20
-3.9112204724409447
11
3.7775590551181102
21
-3.9289370078740156
0
LINE
8
BLACK
6
CONTINUOUS
10
3.7775590551181102
20
-3.9289370078740156
11
3.7768847637795275
21
-3.9323269291338581
0
LINE
8
BLACK
6
CONTINUOUS
10
3.7768847637795275
20
-3.9323269291338581
11
3.7749645275590549
21
-3.9352007480314959
0
LINE
8
BLACK
6
CONTINUOUS
10
3.7749645275590549
20
-3.9352007480314959
11
3.772090708661417
21
-3.9371209842519685
0
LINE
8
BLACK
6
CONTINUOUS
10
3.772090708661417
20
-3.9371209842519685
11
3.7687007874015745
21
-3.9377952755905512
0
LINE
8
BLACK
6
CONTINUOUS
10
3.7687007874015745
20
-3.9377952755905512
11
3.7490157480314958
21
-3.9377952755905512
0
LINE
8
BLACK
6
CONTINUOUS
10
3.7490157480314958
20
-3.9377952755905512
11
3.7456258267716533
21
-3.9371209842519685
0
LINE
8
BLACK
6
CONTINUOUS
10
3.7456258267716533
20
-3.9371209842519685
11
3.7427520078740155
21
-3.9352007480314959
0
LINE
8
BLACK
6
CONTINUOUS
10
3.7427520078740155
20
-3.9352007480314959
11
3.7408317716535433
21
-3.9323269291338581
0
LINE
8
BLACK
6
CONTINUOUS
10
3.7408317716535433
20
-3.9323269291338581
11
3.7401574803149606
21
-3.9289370078740156
0
LINE
8
BLACK
6
CONTINUOUS
10
3.7401574803149606
20
-3.9289370078740156
11
3.7401574803149606
21
-3.9112204724409447
0
LINE
8
BLACK
6
CONTINUOUS
10
3.7401574803149606
20
-3.9112204724409447
11
3.7408317716535433
21
-3.9078305511811022
0
LINE
8
BLACK
6
CONTINUOUS
10
3.7408317716535433
20
-3.9078305511811022
11
3.7427520078740155
21
-3.9049567322834644
0
LINE
8
BLACK
6
CONTINUOUS
10
3.7427520078740155
20
-3.9049567322834644
11
3.7456258267716533
21
-3.9030364960629922
0
LINE
8
BLACK
6
CONTINUOUS
10
3.7456258267716533
20
-3.9030364960629922
11
3.7490157480314958
21
-3.9023622047244095
0
LINE
8
BLACK
6
CONTINUOUS
10
3.7490157480314958
20
-3.9023622047244095
11
3.7687007874015745
21
-3.9023622047244095
0
LINE
8
BLACK
6
CONTINUOUS
10
3.7687007874015745
20
-3.9023622047244095
11
3.772090708661417
21
-3.9030364960629922
0
LINE
8
BLACK
6
CONTINUOUS
10
3.8664331889763779
20
-3.9006463779527558
11
3.8683490551181103
21
-3.9019265354330708
0
LINE
8
BLACK
6
CONTINUOUS
10
3.8683490551181103
20
-3.9019265354330708
11
3.8696292125984253
21
-3.9038424015748032
0
LINE
8
BLACK
6
CONTINUOUS
10
3.8696292125984253
20
-3.9038424015748032
11
3.8700787401574801
21
-3.9061023622047242
0
LINE
8
BLACK
6
CONTINUOUS
10
3.8700787401574801
20
-3.9061023622047242
11
3.8700787401574801
21
-3.9179133858267714
0
LINE
8
BLACK
6
CONTINUOUS
10
3.8700787401574801
20
-3.9179133858267714
11
3.8696292125984253
21
-3.9201733464566928
0
LINE
8
BLACK
6
CONTINUOUS
10
3.8696292125984253
20
-3.9201733464566928
11
3.8683490551181103
21
-3.9220892125984252
0
LINE
8
BLACK
6
CONTINUOUS
10
3.8683490551181103
20
-3.9220892125984252
11
3.8664331889763779
21
-3.9233693700787402
0
LINE
8
BLACK
6
CONTINUOUS
10
3.8664331889763779
20
-3.9233693700787402
11
3.8641732283464565
21
-3.923818897637795
0
LINE
8
BLACK
6
CONTINUOUS
10
3.8641732283464565
20
-3.923818897637795
11
3.8070866141732282
21
-3.923818897637795
0
LINE
8
BLACK
6
CONTINUOUS
10
3.8070866141732282
20
-3.923818897637795
11
3.8048266535433068
21
-3.9233693700787402
0
LINE
8
BLACK
6
CONTINUOUS
10
3.8048266535433068
20
-3.9233693700787402
11
3.8029107874015748
21
-3.9220892125984252
0
LINE
8
BLACK
6
CONTINUOUS
10
3.8029107874015748
20
-3.9220892125984252
11
3.8016306299212599
21
-3.9201733464566928
0
LINE
8
BLACK
6
CONTINUOUS
10
3.8016306299212599
20
-3.9201733464566928
11
3.8011811023622046
21
-3.9179133858267714
0
LINE
8
BLACK
6
CONTINUOUS
10
3.8011811023622046
20
-3.9179133858267714
11
3.8011811023622046
21
-3.9061023622047242
0
LINE
8
BLACK
6
CONTINUOUS
10
3.8011811023622046
20
-3.9061023622047242
11
3.8016306299212599
21
-3.9038424015748032
0
LINE
8
BLACK
6
CONTINUOUS
10
3.8016306299212599
20
-3.9038424015748032
11
3.8029107874015748
21
-3.9019265354330708
0
LINE
8
BLACK
6
CONTINUOUS
10
3.8029107874015748
20
-3.9019265354330708
11
3.8048266535433068
21
-3.9006463779527558
0
LINE
8
BLACK
6
CONTINUOUS
10
3.8048266535433068
20
-3.9006463779527558
11
3.8070866141732282
21
-3.9001968503937006
0
LINE
8
BLACK
6
CONTINUOUS
10
3.8070866141732282
20
-3.9001968503937006
11
3.8641732283464565
21
-3.9001968503937006
0
LINE
8
BLACK
6
CONTINUOUS
10
3.8641732283464565
20
-3.9001968503937006
11
3.8664331889763779
21
-3.9006463779527558
0
LINE
8
BLACK
6
CONTINUOUS
10
4.0691890944881886
20
-3.9006463779527558
11
4.0711049606299214
21
-3.9019265354330708
0
LINE
8
BLACK
6
CONTINUOUS
10
4.0711049606299214
20
-3.9019265354330708
11
4.072385118110236
21
-3.9038424015748032
0
LINE
8
BLACK
6
CONTINUOUS
10
4.072385118110236
20
-3.9038424015748032
11
4.0728346456692917
21
-3.9061023622047242
0
LINE
8
BLACK
6
CONTINUOUS
10
4.0728346456692917
20
-3.9061023622047242
11
4.0728346456692917
21
-3.9179133858267714
0
LINE
8
BLACK
6
CONTINUOUS
10
4.0728346456692917
20
-3.9179133858267714
11
4.072385118110236
21
-3.9201733464566928
0
LINE
8
BLACK
6
CONTINUOUS
10
4.072385118110236
20
-3.9201733464566928
11
4.0711049606299214
21
-3.9220892125984252
0
LINE
8
BLACK
6
CONTINUOUS
10
4.0711049606299214
20
-3.9220892125984252
11
4.0691890944881886
21
-3.9233693700787402
0
LINE
8
BLACK
6
CONTINUOUS
10
4.0691890944881886
20
-3.9233693700787402
11
4.0669291338582676
21
-3.923818897637795
0
LINE
8
BLACK
6
CONTINUOUS
10
4.0669291338582676
20
-3.923818897637795
11
4.0098425196850389
21
-3.923818897637795
0
LINE
8
BLACK
6
CONTINUOUS
10
4.0098425196850389
20
-3.923818897637795
11
4.007582559055118
21
-3.9233693700787402
0
LINE
8
BLACK
6
CONTINUOUS
10
4.007582559055118
20
-3.9233693700787402
11
4.005666692913386
21
-3.9220892125984252
0
LINE
8
BLACK
6
CONTINUOUS
10
4.005666692913386
20
-3.9220892125984252
11
4.0043865354330705
21
-3.9201733464566928
0
LINE
8
BLACK
6
CONTINUOUS
10
4.0043865354330705
20
-3.9201733464566928
11
4.0039370078740157
21
-3.9179133858267714
0
LINE
8
BLACK
6
CONTINUOUS
10
4.0039370078740157
20
-3.9179133858267714
11
4.0039370078740157
21
-3.9061023622047242
0
LINE
8
BLACK
6
CONTINUOUS
10
4.0039370078740157
20
-3.9061023622047242
11
4.0043865354330705
21
-3.9038424015748032
0
LINE
8
BLACK
6
CONTINUOUS
10
4.0043865354330705
20
-3.9038424015748032
11
4.005666692913386
21
-3.9019265354330708
0
LINE
8
BLACK
6
CONTINUOUS
10
4.005666692913386
20
-3.9019265354330708
11
4.007582559055118
21
-3.9006463779527558
0
LINE
8
BLACK
6
CONTINUOUS
10
4.007582559055118
20
-3.9006463779527558
11
4.0098425196850389
21
-3.9001968503937006
0
LINE
8
BLACK
6
CONTINUOUS
10
4.0098425196850389
20
-3.9001968503937006
11
4.0669291338582676
21
-3.9001968503937006
0
LINE
8
BLACK
6
CONTINUOUS
10
4.0669291338582676
20
-3.9001968503937006
11
4.0691890944881886
21
-3.9006463779527558
0
LINE
8
BLACK
6
CONTINUOUS
10
3.772090708661417
20
-3.8420128740157478
11
3.7749645275590549
21
-3.8439331102362204
0
LINE
8
BLACK
6
CONTINUOUS
10
3.7749645275590549
20
-3.8439331102362204
11
3.7768847637795275
21
-3.8468069291338582
0
LINE
8
BLACK
6
CONTINUOUS
10
3.7768847637795275
20
-3.8468069291338582
11
3.7775590551181102
21
-3.8501968503937007
0
LINE
8
BLACK
6
CONTINUOUS
10
3.7775590551181102
20
-3.8501968503937007
11
3.7775590551181102
21
-3.8679133858267716
0
LINE
8
BLACK
6
CONTINUOUS
10
3.7775590551181102
20
-3.8679133858267716
11
3.7768847637795275
21
-3.8713033070866141
0
LINE
8
BLACK
6
CONTINUOUS
10
3.7768847637795275
20
-3.8713033070866141
11
3.7749645275590549
21
-3.8741771259842519
0
LINE
8
BLACK
6
CONTINUOUS
10
3.7749645275590549
20
-3.8741771259842519
11
3.772090708661417
21
-3.8760973622047241
0
LINE
8
BLACK
6
CONTINUOUS
10
3.772090708661417
20
-3.8760973622047241
11
3.7687007874015745
21
-3.8767716535433072
0
LINE
8
BLACK
6
CONTINUOUS
10
3.7687007874015745
20
-3.8767716535433072
11
3.7490157480314958
21
-3.8767716535433072
0
LINE
8
BLACK
6
CONTINUOUS
10
3.7490157480314958
20
-3.8767716535433072
11
3.7456258267716533
21
-3.8760973622047241
0
LINE
8
BLACK
6
CONTINUOUS
10
3.7456258267716533
20
-3.8760973622047241
11
3.7427520078740155
21
-3.8741771259842519
0
LINE
8
BLACK
6
CONTINUOUS
10
3.7427520078740155
20
-3.8741771259842519
11
3.7408317716535433
21
-3.8713033070866141
0
LINE
8
BLACK
6
CONTINUOUS
10
3.7408317716535433
20
-3.8713033070866141
11
3.7401574803149606
21
-3.8679133858267716
0
LINE
8
BLACK
6
CONTINUOUS
10
3.7401574803149606
20
-3.8679133858267716
11
3.7401574803149606
21
-3.8501968503937007
0
LINE
8
BLACK
6
CONTINUOUS
10
3.7401574803149606
20
-3.8501968503937007
11
3.7408317716535433
21
-3.8468069291338582
0
LINE
8
BLACK
6
CONTINUOUS
10
3.7408317716535433
20
-3.8468069291338582
11
3.7427520078740155
21
-3.8439331102362204
0
LINE
8
BLACK
6
CONTINUOUS
10
3.7427520078740155
20
-3.8439331102362204
11
3.7456258267716533
21
-3.8420128740157478
0
LINE
8
BLACK
6
CONTINUOUS
10
3.7456258267716533
20
-3.8420128740157478
11
3.7490157480314958
21
-3.8413385826771651
0
LINE
8
BLACK
6
CONTINUOUS
10
3.7490157480314958
20
-3.8413385826771651
11
3.7687007874015745
21
-3.8413385826771651
0
LINE
8
BLACK
6
CONTINUOUS
10
3.7687007874015745
20
-3.8413385826771651
11
3.772090708661417
21
-3.8420128740157478
0
LINE
8
BLACK
6
CONTINUOUS
10
3.8664331889763779
20
-3.850646377952756
11
3.8683490551181103
21
-3.851926535433071
0
LINE
8
BLACK
6
CONTINUOUS
10
3.8683490551181103
20
-3.851926535433071
11
3.8696292125984253
21
-3.853842401574803
0
LINE
8
BLACK
6
CONTINUOUS
10
3.8696292125984253
20
-3.853842401574803
11
3.8700787401574801
21
-3.8561023622047244
0
LINE
8
BLACK
6
CONTINUOUS
10
3.8700787401574801
20
-3.8561023622047244
11
3.8700787401574801
21
-3.8679133858267716
0
LINE
8
BLACK
6
CONTINUOUS
10
3.8700787401574801
20
-3.8679133858267716
11
3.8696292125984253
21
-3.870173346456693
0
LINE
8
BLACK
6
CONTINUOUS
10
3.8696292125984253
20
-3.870173346456693
11
3.8683490551181103
21
-3.872089212598425
0
LINE
8
BLACK
6
CONTINUOUS
10
3.8683490551181103
20
-3.872089212598425
11
3.8664331889763779
21
-3.8733693700787399
0
LINE
8
BLACK
6
CONTINUOUS
10
3.8664331889763779
20
-3.8733693700787399
11
3.8641732283464565
21
-3.8738188976377952
0
LINE
8
BLACK
6
CONTINUOUS
10
3.8641732283464565
20
-3.8738188976377952
11
3.8070866141732282
21
-3.8738188976377952
0
LINE
8
BLACK
6
CONTINUOUS
10
3.8070866141732282
20
-3.8738188976377952
11
3.8048266535433068
21
-3.8733693700787399
0
LINE
8
BLACK
6
CONTINUOUS
10
3.8048266535433068
20
-3.8733693700787399
11
3.8029107874015748
21
-3.872089212598425
0
LINE
8
BLACK
6
CONTINUOUS
10
3.8029107874015748
20
-3.872089212598425
11
3.8016306299212599
21
-3.870173346456693
0
LINE
8
BLACK
6
CONTINUOUS
10
3.8016306299212599
20
-3.870173346456693
11
3.8011811023622046
21
-3.8679133858267716
0
LINE
8
BLACK
6
CONTINUOUS
10
3.8011811023622046
20
-3.8679133858267716
11
3.8011811023622046
21
-3.8561023622047244
0
LINE
8
BLACK
6
CONTINUOUS
10
3.8011811023622046
20
-3.8561023622047244
11
3.8016306299212599
21
-3.853842401574803
0
LINE
8
BLACK
6
CONTINUOUS
10
3.8016306299212599
20
-3.853842401574803
11
3.8029107874015748
21
-3.851926535433071
0
LINE
8
BLACK
6
CONTINUOUS
10
3.8029107874015748
20
-3.851926535433071
11
3.8048266535433068
21
-3.850646377952756
0
LINE
8
BLACK
6
CONTINUOUS
10
3.8048266535433068
20
-3.850646377952756
11
3.8070866141732282
21
-3.8501968503937007
0
LINE
8
BLACK
6
CONTINUOUS
10
3.8070866141732282
20
-3.8501968503937007
11
3.8641732283464565
21
-3.8501968503937007
0
LINE
8
BLACK
6
CONTINUOUS
10
3.8641732283464565
20
-3.8501968503937007
11
3.8664331889763779
21
-3.850646377952756
0
LINE
8
BLACK
6
CONTINUOUS
10
4.0691890944881886
20
-3.850646377952756
11
4.0711049606299214
21
-3.851926535433071
0
LINE
8
BLACK
6
CONTINUOUS
10
4.0711049606299214
20
-3.851926535433071
11
4.072385118110236
21
-3.853842401574803
0
LINE
8
BLACK
6
CONTINUOUS
10
4.072385118110236
20
-3.853842401574803
11
4.0728346456692917
21
-3.8561023622047244
0
LINE
8
BLACK
6
CONTINUOUS
10
4.0728346456692917
20
-3.8561023622047244
11
4.0728346456692917
21
-3.8679133858267716
0
LINE
8
BLACK
6
CONTINUOUS
10
4.0728346456692917
20
-3.8679133858267716
11
4.072385118110236
21
-3.870173346456693
0
LINE
8
BLACK
6
CONTINUOUS
10
4.072385118110236
20
-3.870173346456693
11
4.0711049606299214
21
-3.872089212598425
0
LINE
8
BLACK
6
CONTINUOUS
10
4.0711049606299214
20
-3.872089212598425
11
4.0691890944881886
21
-3.8733693700787399
0
LINE
8
BLACK
6
CONTINUOUS
10
4.0691890944881886
20
-3.8733693700787399
11
4.0669291338582676
21
-3.8738188976377952
0
LINE
8
BLACK
6
CONTINUOUS
10
4.0669291338582676
20
-3.8738188976377952
11
4.0098425196850389
21
-3.8738188976377952
0
LINE
8
BLACK
6
CONTINUOUS
10
4.0098425196850389
20
-3.8738188976377952
11
4.007582559055118
21
-3.8733693700787399
0
LINE
8
BLACK
6
CONTINUOUS
10
4.007582559055118
20
-3.8733693700787399
11
4.005666692913386
21
-3.872089212598425
0
LINE
8
BLACK
6
CONTINUOUS
10
4.005666692913386
20
-3.872089212598425
11
4.0043865354330705
21
-3.870173346456693
0
LINE
8
BLACK
6
CONTINUOUS
10
4.0043865354330705
20
-3.870173346456693
11
4.0039370078740157
21
-3.8679133858267716
0
LINE
8
BLACK
6
CONTINUOUS
10
4.0039370078740157
20
-3.8679133858267716
11
4.0039370078740157
21
-3.8561023622047244
0
LINE
8
BLACK
6
CONTINUOUS
10
4.0039370078740157
20
-3.8561023622047244
11
4.0043865354330705
21
-3.853842401574803
0
LINE
8
BLACK
6
CONTINUOUS
10
4.0043865354330705
20
-3.853842401574803
11
4.005666692913386
21
-3.851926535433071
0
LINE
8
BLACK
6
CONTINUOUS
10
4.005666692913386
20
-3.851926535433071
11
4.007582559055118
21
-3.850646377952756
0
LINE
8
BLACK
6
CONTINUOUS
10
4.007582559055118
20
-3.850646377952756
11
4.0098425196850389
21
-3.8501968503937007
0
LINE
8
BLACK
6
CONTINUOUS
10
4.0098425196850389
20
-3.8501968503937007
11
4.0669291338582676
21
-3.8501968503937007
0
LINE
8
BLACK
6
CONTINUOUS
10
4.0669291338582676
20
-3.8501968503937007
11
4.0691890944881886
21
-3.850646377952756
  0
ENDSEC
  0
EOF
