  0
SECTION
  2
HEADER
  9
$ANGBASE
  50
0.0
  9
$ANGDIR
  70
1
  9
$MEASUREMENT
  70
0
  0
ENDSEC
  0
SECTION
  2
TABLES
  0
TABLE
  2
LTYPE
  70
4
  0
LTYPE
  5
40F
  2
CONTINUOUS
  70
0
  3
Solid line
  72
65
  73
0
  40
0.0
  0
LTYPE
  5
410
  2
DASHDOT
 70
0
  3
Dash Dot ____ _ ____ _
 72
65
 73
4
 40
2.0
 49
1.25
 49
-0.25
 49
0.25
 49
-0.25
  0
LTYPE
  5
411
  2
DASHED
 70
0
  3
Dashed __ __ __ __ __
 72
65
 73
2
 40
0.75
 49
0.5
 49
-0.25
  0
LTYPE
  5
43B
  2
DOTTED
 70
0
  3
Dotted .  .  .  .
 72
65
 73
2
 40
0.2
 49
0.0
 49
-0.2
  0
ENDTAB
  0
TABLE
  2
STYLE
  70
4
  0
STYLE
  2
KICAD
  70
0
  40
0
  41
1
  42
1
  50
0
  71
0
  3
isocp.shx
  0
STYLE
  2
KICADB
  70
0
  40
0
  41
1
  42
1
  50
0
  71
0
  3
isocp.shx
  0
STYLE
  2
KICADI
  70
0
  40
0
  41
1
  42
1
  50
15
  71
0
  3
isocp.shx
  0
STYLE
  2
KICADBI
  70
0
  40
0
  41
1
  42
1
  50
15
  71
0
  3
isocp.shx
  0
ENDTAB
  0
TABLE
  2
LAYER
  70
1
  0
LAYER
  2
BLACK
  70
0
  62
7
  6
CONTINUOUS
  0
ENDTAB
  0
ENDSEC
  0
SECTION
  2
ENTITIES
0
LINE
8
BLACK
6
CONTINUOUS
10
3.9862204724409449
20
-4.1078815748031499
11
3.9893627165354331
21
-4.1105182677165351
0
LINE
8
BLACK
6
CONTINUOUS
10
3.9893627165354331
20
-4.1105182677165351
11
3.9914137007874015
21
-4.1140706299212599
0
LINE
8
BLACK
6
CONTINUOUS
10
3.9914137007874015
20
-4.1140706299212599
11
3.9921259842519685
21
-4.1181102362204722
0
LINE
8
BLACK
6
CONTINUOUS
10
3.9921259842519685
20
-4.1181102362204722
11
3.9914137007874015
21
-4.1221498425196845
0
LINE
8
BLACK
6
CONTINUOUS
10
3.9914137007874015
20
-4.1221498425196845
11
3.9893627165354331
21
-4.1257022047244094
0
LINE
8
BLACK
6
CONTINUOUS
10
3.9893627165354331
20
-4.1257022047244094
11
3.9862204724409449
21
-4.1283388976377955
0
LINE
8
BLACK
6
CONTINUOUS
10
3.9862204724409449
20
-4.1283388976377955
11
3.982365905511811
21
-4.1297418110236217
0
LINE
8
BLACK
6
CONTINUOUS
10
3.982365905511811
20
-4.1297418110236217
11
3.9782640157480316
21
-4.1297418110236217
0
LINE
8
BLACK
6
CONTINUOUS
10
3.9782640157480316
20
-4.1297418110236217
11
3.9744094488188977
21
-4.1283388976377955
0
LINE
8
BLACK
6
CONTINUOUS
10
3.9744094488188977
20
-4.1283388976377955
11
3.9712672047244095
21
-4.1257022047244094
0
LINE
8
BLACK
6
CONTINUOUS
10
3.9712672047244095
20
-4.1257022047244094
11
3.969216220472441
21
-4.1221498425196845
0
LINE
8
BLACK
6
CONTINUOUS
10
3.969216220472441
20
-4.1221498425196845
11
3.9691981102362206
21
-4.122047244094488
0
LINE
8
BLACK
6
CONTINUOUS
10
3.9691981102362206
20
-4.122047244094488
11
3.8425196850393699
21
-4.122047244094488
0
LINE
8
BLACK
6
CONTINUOUS
10
3.8425196850393699
20
-4.122047244094488
11
3.8418074015748029
21
-4.1260868503937003
0
LINE
8
BLACK
6
CONTINUOUS
10
3.8418074015748029
20
-4.1260868503937003
11
3.8397564173228345
21
-4.1296392125984251
0
LINE
8
BLACK
6
CONTINUOUS
10
3.8397564173228345
20
-4.1296392125984251
11
3.8366141732283463
21
-4.1322759055118112
0
LINE
8
BLACK
6
CONTINUOUS
10
3.8366141732283463
20
-4.1322759055118112
11
3.8327596062992124
21
-4.1336788188976374
0
LINE
8
BLACK
6
CONTINUOUS
10
3.8327596062992124
20
-4.1336788188976374
11
3.828657716535433
21
-4.1336788188976374
0
LINE
8
BLACK
6
CONTINUOUS
10
3.828657716535433
20
-4.1336788188976374
11
3.8248031496062991
21
-4.1322759055118112
0
LINE
8
BLACK
6
CONTINUOUS
10
3.8248031496062991
20
-4.1322759055118112
11
3.8216609055118109
21
-4.1296392125984251
0
LINE
8
BLACK
6
CONTINUOUS
10
3.8216609055118109
20
-4.1296392125984251
11
3.8196099212598424
21
-4.1260868503937003
0
LINE
8
BLACK
6
CONTINUOUS
10
3.8196099212598424
20
-4.1260868503937003
11
3.8188976377952755
21
-4.122047244094488
0
LINE
8
BLACK
6
CONTINUOUS
10
3.8188976377952755
20
-4.122047244094488
11
3.8196099212598424
21
-4.1180076377952757
0
LINE
8
BLACK
6
CONTINUOUS
10
3.8196099212598424
20
-4.1180076377952757
11
3.8216609055118109
21
-4.1144552755905508
0
LINE
8
BLACK
6
CONTINUOUS
10
3.8216609055118109
20
-4.1144552755905508
11
3.8248031496062991
21
-4.1118185826771656
0
LINE
8
BLACK
6
CONTINUOUS
10
3.8248031496062991
20
-4.1118185826771656
11
3.828657716535433
21
-4.1104156692913385
0
LINE
8
BLACK
6
CONTINUOUS
10
3.828657716535433
20
-4.1104156692913385
11
3.8327596062992124
21
-4.1104156692913385
0
LINE
8
BLACK
6
CONTINUOUS
10
3.8327596062992124
20
-4.1104156692913385
11
3.8366141732283463
21
-4.1118185826771656
0
LINE
8
BLACK
6
CONTINUOUS
10
3.8366141732283463
20
-4.1118185826771656
11
3.8394202755905509
21
-4.1141732283464565
0
LINE
8
BLACK
6
CONTINUOUS
10
3.8394202755905509
20
-4.1141732283464565
11
3.9691981102362206
21
-4.1141732283464565
0
LINE
8
BLACK
6
CONTINUOUS
10
3.9691981102362206
20
-4.1141732283464565
11
3.969216220472441
21
-4.1140706299212599
0
LINE
8
BLACK
6
CONTINUOUS
10
3.969216220472441
20
-4.1140706299212599
11
3.9712672047244095
21
-4.1105182677165351
0
LINE
8
BLACK
6
CONTINUOUS
10
3.9712672047244095
20
-4.1105182677165351
11
3.9744094488188977
21
-4.1078815748031499
0
LINE
8
BLACK
6
CONTINUOUS
10
3.9744094488188977
20
-4.1078815748031499
11
3.9782640157480316
21
-4.1064786614173228
0
LINE
8
BLACK
6
CONTINUOUS
10
3.9782640157480316
20
-4.1064786614173228
11
3.982365905511811
21
-4.1064786614173228
0
LINE
8
BLACK
6
CONTINUOUS
10
3.982365905511811
20
-4.1064786614173228
11
3.9862204724409449
21
-4.1078815748031499
0
LINE
8
BLACK
6
CONTINUOUS
10
4.1915354330708663
20
-3.9074838188976377
11
4.1943368897637798
21
-3.9074838188976377
0
LINE
8
BLACK
6
CONTINUOUS
10
4.1943368897637798
20
-3.9074838188976377
11
4.1997129133858264
21
-3.9090623622047245
0
LINE
8
BLACK
6
CONTINUOUS
10
4.1997129133858264
20
-3.9090623622047245
11
4.204426377952756
21
-3.912091535433071
0
LINE
8
BLACK
6
CONTINUOUS
10
4.204426377952756
20
-3.912091535433071
11
4.2080955511811027
21
-3.9163259842519684
0
LINE
8
BLACK
6
CONTINUOUS
10
4.2080955511811027
20
-3.9163259842519684
11
4.2104230708661419
21
-3.9214225984251967
0
LINE
8
BLACK
6
CONTINUOUS
10
4.2104230708661419
20
-3.9214225984251967
11
4.211220472440945
21
-3.9269685039370077
0
LINE
8
BLACK
6
CONTINUOUS
10
4.211220472440945
20
-3.9269685039370077
11
4.211220472440945
21
-3.9466535433070864
0
LINE
8
BLACK
6
CONTINUOUS
10
4.211220472440945
20
-3.9466535433070864
11
4.2106830708661418
21
-3.9503909055118109
0
LINE
8
BLACK
6
CONTINUOUS
10
4.2106830708661418
20
-3.9503909055118109
11
4.2262126771653543
21
-3.9659205118110235
0
LINE
8
BLACK
6
CONTINUOUS
10
4.2262126771653543
20
-3.9659205118110235
11
4.2267022834645669
21
-3.9665170866141732
0
LINE
8
BLACK
6
CONTINUOUS
10
4.2267022834645669
20
-3.9665170866141732
11
4.227290157480315
21
-3.9679362992125982
0
LINE
8
BLACK
6
CONTINUOUS
10
4.227290157480315
20
-3.9679362992125982
11
4.2273657874015749
21
-3.9687043700787399
0
LINE
8
BLACK
6
CONTINUOUS
10
4.2273657874015749
20
-3.9687043700787399
11
4.2273657874015749
21
-4.0879885433070866
0
LINE
8
BLACK
6
CONTINUOUS
10
4.2273657874015749
20
-4.0879885433070866
11
4.227290157480315
21
-4.0887566141732279
0
LINE
8
BLACK
6
CONTINUOUS
10
4.227290157480315
20
-4.0887566141732279
11
4.2267022834645669
21
-4.0901758267716533
0
LINE
8
BLACK
6
CONTINUOUS
10
4.2267022834645669
20
-4.0901758267716533
11
4.2262126771653543
21
-4.0907724409448818
0
LINE
8
BLACK
6
CONTINUOUS
10
4.2262126771653543
20
-4.0907724409448818
11
4.1962878346456689
21
-4.1206972834645672
0
LINE
8
BLACK
6
CONTINUOUS
10
4.1962878346456689
20
-4.1206972834645672
11
4.1956912204724413
21
-4.1211868897637798
0
LINE
8
BLACK
6
CONTINUOUS
10
4.1956912204724413
20
-4.1211868897637798
11
4.1942720078740159
21
-4.1217747637795279
0
LINE
8
BLACK
6
CONTINUOUS
10
4.1942720078740159
20
-4.1217747637795279
11
4.1935039370078737
21
-4.1218503937007869
0
LINE
8
BLACK
6
CONTINUOUS
10
4.1935039370078737
20
-4.1218503937007869
11
4.0948818897637791
21
-4.1218503937007869
0
LINE
8
BLACK
6
CONTINUOUS
10
4.0948818897637791
20
-4.1218503937007869
11
4.0941138188976378
21
-4.1217747637795279
0
LINE
8
BLACK
6
CONTINUOUS
10
4.0941138188976378
20
-4.1217747637795279
11
4.0931102362204728
21
-4.1213590551181101
0
LINE
8
BLACK
6
CONTINUOUS
10
4.0931102362204728
20
-4.1213590551181101
11
4.0926945669291337
21
-4.1211868897637798
0
LINE
8
BLACK
6
CONTINUOUS
10
4.0926945669291337
20
-4.1211868897637798
11
4.0920979921259839
21
-4.1206972440944885
0
LINE
8
BLACK
6
CONTINUOUS
10
4.0920979921259839
20
-4.1206972440944885
11
4.0638512598425196
21
-4.0924505118110233
0
LINE
8
BLACK
6
CONTINUOUS
10
4.0638512598425196
20
-4.0924505118110233
11
4.0609092125984247
21
-4.0935213385826774
0
LINE
8
BLACK
6
CONTINUOUS
10
4.0609092125984247
20
-4.0935213385826774
11
4.0568073228346453
21
-4.0935213385826774
0
LINE
8
BLACK
6
CONTINUOUS
10
4.0568073228346453
20
-4.0935213385826774
11
4.0529527559055119
21
-4.0921184251968503
0
LINE
8
BLACK
6
CONTINUOUS
10
4.0529527559055119
20
-4.0921184251968503
11
4.0498105118110237
21
-4.0894817322834642
0
LINE
8
BLACK
6
CONTINUOUS
10
4.0498105118110237
20
-4.0894817322834642
11
4.0477595275590552
21
-4.0859293700787402
0
LINE
8
BLACK
6
CONTINUOUS
10
4.0477595275590552
20
-4.0859293700787402
11
4.0470472440944878
21
-4.0818897637795271
0
LINE
8
BLACK
6
CONTINUOUS
10
4.0470472440944878
20
-4.0818897637795271
11
4.0477595275590552
21
-4.0778501574803148
0
LINE
8
BLACK
6
CONTINUOUS
10
4.0477595275590552
20
-4.0778501574803148
11
4.0498105118110237
21
-4.0742977952755908
0
LINE
8
BLACK
6
CONTINUOUS
10
4.0498105118110237
20
-4.0742977952755908
11
4.0529527559055119
21
-4.0716611023622047
0
LINE
8
BLACK
6
CONTINUOUS
10
4.0529527559055119
20
-4.0716611023622047
11
4.0568073228346453
21
-4.0702581889763776
0
LINE
8
BLACK
6
CONTINUOUS
10
4.0568073228346453
20
-4.0702581889763776
11
4.0609092125984247
21
-4.0702581889763776
0
LINE
8
BLACK
6
CONTINUOUS
10
4.0609092125984247
20
-4.0702581889763776
11
4.0647637795275591
21
-4.0716611023622047
0
LINE
8
BLACK
6
CONTINUOUS
10
4.0647637795275591
20
-4.0716611023622047
11
4.0679060236220472
21
-4.0742977952755908
0
LINE
8
BLACK
6
CONTINUOUS
10
4.0679060236220472
20
-4.0742977952755908
11
4.0699570078740157
21
-4.0778501574803148
0
LINE
8
BLACK
6
CONTINUOUS
10
4.0699570078740157
20
-4.0778501574803148
11
4.0706692913385822
21
-4.0818897637795271
0
LINE
8
BLACK
6
CONTINUOUS
10
4.0706692913385822
20
-4.0818897637795271
11
4.0699570078740157
21
-4.0859293700787402
0
LINE
8
BLACK
6
CONTINUOUS
10
4.0699570078740157
20
-4.0859293700787402
11
4.0694111023622046
21
-4.0868748031496063
0
LINE
8
BLACK
6
CONTINUOUS
10
4.0694111023622046
20
-4.0868748031496063
11
4.0965126377952759
21
-4.1139763779527554
0
LINE
8
BLACK
6
CONTINUOUS
10
4.0965126377952759
20
-4.1139763779527554
11
4.1918731496062991
21
-4.1139763779527554
0
LINE
8
BLACK
6
CONTINUOUS
10
4.1918731496062991
20
-4.1139763779527554
11
4.2194917716535434
21
-4.086357755905512
0
LINE
8
BLACK
6
CONTINUOUS
10
4.2194917716535434
20
-4.086357755905512
11
4.2194917716535434
21
-3.9703351181102362
0
LINE
8
BLACK
6
CONTINUOUS
10
4.2194917716535434
20
-3.9703351181102362
11
4.2073328740157478
21
-3.9581762204724407
0
LINE
8
BLACK
6
CONTINUOUS
10
4.2073328740157478
20
-3.9581762204724407
11
4.204426377952756
21
-3.9615305118110236
0
LINE
8
BLACK
6
CONTINUOUS
10
4.204426377952756
20
-3.9615305118110236
11
4.1997129133858264
21
-3.9645596850393701
0
LINE
8
BLACK
6
CONTINUOUS
10
4.1997129133858264
20
-3.9645596850393701
11
4.1943368897637798
21
-3.9661382283464568
0
LINE
8
BLACK
6
CONTINUOUS
10
4.1943368897637798
20
-3.9661382283464568
11
4.1915354330708663
21
-3.9661382283464568
0
LINE
8
BLACK
6
CONTINUOUS
10
4.1915354330708663
20
-3.9661382283464568
11
4.1915354330708663
21
-3.9663385826771651
0
LINE
8
BLACK
6
CONTINUOUS
10
4.1915354330708663
20
-3.9663385826771651
11
4.1718503937007876
21
-3.9663385826771651
0
LINE
8
BLACK
6
CONTINUOUS
10
4.1718503937007876
20
-3.9663385826771651
11
4.1718503937007876
21
-3.907283464566929
0
LINE
8
BLACK
6
CONTINUOUS
10
4.1718503937007876
20
-3.907283464566929
11
4.1915354330708663
21
-3.907283464566929
0
LINE
8
BLACK
6
CONTINUOUS
10
4.1915354330708663
20
-3.907283464566929
11
4.1915354330708663
21
-3.9074838188976377
0
LINE
8
BLACK
6
CONTINUOUS
10
4.1915354330708663
20
-4.0137830314960627
11
4.1943368897637798
21
-4.0137830314960627
0
LINE
8
BLACK
6
CONTINUOUS
10
4.1943368897637798
20
-4.0137830314960627
11
4.1997129133858264
21
-4.0153615748031495
0
LINE
8
BLACK
6
CONTINUOUS
10
4.1997129133858264
20
-4.0153615748031495
11
4.204426377952756
21
-4.0183907480314955
0
LINE
8
BLACK
6
CONTINUOUS
10
4.204426377952756
20
-4.0183907480314955
11
4.2080955511811027
21
-4.0226251968503934
0
LINE
8
BLACK
6
CONTINUOUS
10
4.2080955511811027
20
-4.0226251968503934
11
4.2104230708661419
21
-4.0277218110236221
0
LINE
8
BLACK
6
CONTINUOUS
10
4.2104230708661419
20
-4.0277218110236221
11
4.211220472440945
21
-4.0332677165354331
0
LINE
8
BLACK
6
CONTINUOUS
10
4.211220472440945
20
-4.0332677165354331
11
4.211220472440945
21
-4.0529527559055119
0
LINE
8
BLACK
6
CONTINUOUS
10
4.211220472440945
20
-4.0529527559055119
11
4.2104230708661419
21
-4.0584986614173229
0
LINE
8
BLACK
6
CONTINUOUS
10
4.2104230708661419
20
-4.0584986614173229
11
4.2080955511811027
21
-4.0635952755905507
0
LINE
8
BLACK
6
CONTINUOUS
10
4.2080955511811027
20
-4.0635952755905507
11
4.204426377952756
21
-4.0678297244094486
0
LINE
8
BLACK
6
CONTINUOUS
10
4.204426377952756
20
-4.0678297244094486
11
4.1997129133858264
21
-4.0708588976377955
0
LINE
8
BLACK
6
CONTINUOUS
10
4.1997129133858264
20
-4.0708588976377955
11
4.195472440944882
21
-4.072103976377953
0
LINE
8
BLACK
6
CONTINUOUS
10
4.195472440944882
20
-4.072103976377953
11
4.195472440944882
21
-4.0728346456692917
0
LINE
8
BLACK
6
CONTINUOUS
10
4.195472440944882
20
-4.0728346456692917
11
4.1953968110236222
21
-4.0736027165354329
0
LINE
8
BLACK
6
CONTINUOUS
10
4.1953968110236222
20
-4.0736027165354329
11
4.1948089370078741
21
-4.0750219291338583
0
LINE
8
BLACK
6
CONTINUOUS
10
4.1948089370078741
20
-4.0750219291338583
11
4.1943193307086615
21
-4.0756185039370081
0
LINE
8
BLACK
6
CONTINUOUS
10
4.1943193307086615
20
-4.0756185039370081
11
4.180736653543307
21
-4.0892012204724413
0
LINE
8
BLACK
6
CONTINUOUS
10
4.180736653543307
20
-4.0892012204724413
11
4.1801400393700785
21
-4.0896908267716539
0
LINE
8
BLACK
6
CONTINUOUS
10
4.1801400393700785
20
-4.0896908267716539
11
4.1787208267716531
21
-4.0902787007874011
0
LINE
8
BLACK
6
CONTINUOUS
10
4.1787208267716531
20
-4.0902787007874011
11
4.1779527559055119
21
-4.0903543307086609
0
LINE
8
BLACK
6
CONTINUOUS
10
4.1779527559055119
20
-4.0903543307086609
11
4.1287843700787397
21
-4.0903543307086609
0
LINE
8
BLACK
6
CONTINUOUS
10
4.1287843700787397
20
-4.0903543307086609
11
4.1280162992125984
21
-4.0902787007874011
0
LINE
8
BLACK
6
CONTINUOUS
10
4.1280162992125984
20
-4.0902787007874011
11
4.126597086614173
21
-4.0896908267716539
0
LINE
8
BLACK
6
CONTINUOUS
10
4.126597086614173
20
-4.0896908267716539
11
4.1260004724409445
21
-4.0892012204724413
0
LINE
8
BLACK
6
CONTINUOUS
10
4.1260004724409445
20
-4.0892012204724413
11
4.0956575196850391
21
-4.058858267716535
0
LINE
8
BLACK
6
CONTINUOUS
10
4.0956575196850391
20
-4.058858267716535
11
3.9274181496062992
21
-4.058858267716535
0
LINE
8
BLACK
6
CONTINUOUS
10
3.9274181496062992
20
-4.058858267716535
11
3.9205922047244095
21
-4.0656841732283464
0
LINE
8
BLACK
6
CONTINUOUS
10
3.9205922047244095
20
-4.0656841732283464
11
3.9211381102362202
21
-4.0666296850393699
0
LINE
8
BLACK
6
CONTINUOUS
10
3.9211381102362202
20
-4.0666296850393699
11
3.9218503937007871
21
-4.0706692913385822
0
LINE
8
BLACK
6
CONTINUOUS
10
3.9218503937007871
20
-4.0706692913385822
11
3.9211381102362202
21
-4.0747088976377954
0
LINE
8
BLACK
6
CONTINUOUS
10
3.9211381102362202
20
-4.0747088976377954
11
3.9190871259842517
21
-4.0782612598425194
0
LINE
8
BLACK
6
CONTINUOUS
10
3.9190871259842517
20
-4.0782612598425194
11
3.9159448818897635
21
-4.0808979527559055
0
LINE
8
BLACK
6
CONTINUOUS
10
3.9159448818897635
20
-4.0808979527559055
11
3.9120903149606296
21
-4.0823008661417326
0
LINE
8
BLACK
6
CONTINUOUS
10
3.9120903149606296
20
-4.0823008661417326
11
3.9079884251968502
21
-4.0823008661417326
0
LINE
8
BLACK
6
CONTINUOUS
10
3.9079884251968502
20
-4.0823008661417326
11
3.9041338582677163
21
-4.0808979527559055
0
LINE
8
BLACK
6
CONTINUOUS
10
3.9041338582677163
20
-4.0808979527559055
11
3.9009916141732282
21
-4.0782612598425194
0
LINE
8
BLACK
6
CONTINUOUS
10
3.9009916141732282
20
-4.0782612598425194
11
3.8989406299212597
21
-4.0747088976377954
0
LINE
8
BLACK
6
CONTINUOUS
10
3.8989406299212597
20
-4.0747088976377954
11
3.8982283464566927
21
-4.0706692913385822
0
LINE
8
BLACK
6
CONTINUOUS
10
3.8982283464566927
20
-4.0706692913385822
11
3.8989406299212597
21
-4.0666296850393699
0
LINE
8
BLACK
6
CONTINUOUS
10
3.8989406299212597
20
-4.0666296850393699
11
3.9009916141732282
21
-4.063077322834646
0
LINE
8
BLACK
6
CONTINUOUS
10
3.9009916141732282
20
-4.063077322834646
11
3.9041338582677163
21
-4.0604406299212599
0
LINE
8
BLACK
6
CONTINUOUS
10
3.9041338582677163
20
-4.0604406299212599
11
3.9079884251968502
21
-4.0590377165354328
0
LINE
8
BLACK
6
CONTINUOUS
10
3.9079884251968502
20
-4.0590377165354328
11
3.9120903149606296
21
-4.0590377165354328
0
LINE
8
BLACK
6
CONTINUOUS
10
3.9120903149606296
20
-4.0590377165354328
11
3.9150323622047245
21
-4.0601085039370082
0
LINE
8
BLACK
6
CONTINUOUS
10
3.9150323622047245
20
-4.0601085039370082
11
3.9230035039370077
21
-4.0521374015748028
0
LINE
8
BLACK
6
CONTINUOUS
10
3.9230035039370077
20
-4.0521374015748028
11
3.9236000787401575
21
-4.0516477559055115
0
LINE
8
BLACK
6
CONTINUOUS
10
3.9236000787401575
20
-4.0516477559055115
11
3.9240157480314961
21
-4.0514755511811025
0
LINE
8
BLACK
6
CONTINUOUS
10
3.9240157480314961
20
-4.0514755511811025
11
3.9250193307086612
21
-4.0510598818897634
0
LINE
8
BLACK
6
CONTINUOUS
10
3.9250193307086612
20
-4.0510598818897634
11
3.9257874015748029
21
-4.0509842519685035
0
LINE
8
BLACK
6
CONTINUOUS
10
3.9257874015748029
20
-4.0509842519685035
11
4.0972883070866137
21
-4.0509842519685035
0
LINE
8
BLACK
6
CONTINUOUS
10
4.0972883070866137
20
-4.0509842519685035
11
4.0980563779527559
21
-4.0510598818897634
0
LINE
8
BLACK
6
CONTINUOUS
10
4.0980563779527559
20
-4.0510598818897634
11
4.0994755905511813
21
-4.0516477559055115
0
LINE
8
BLACK
6
CONTINUOUS
10
4.0994755905511813
20
-4.0516477559055115
11
4.1000722047244089
21
-4.0521373622047241
0
LINE
8
BLACK
6
CONTINUOUS
10
4.1000722047244089
20
-4.0521373622047241
11
4.1304151574803152
21
-4.0824803149606295
0
LINE
8
BLACK
6
CONTINUOUS
10
4.1304151574803152
20
-4.0824803149606295
11
4.1763219685039372
21
-4.0824803149606295
0
LINE
8
BLACK
6
CONTINUOUS
10
4.1763219685039372
20
-4.0824803149606295
11
4.1861645275590549
21
-4.0726377952755906
0
LINE
8
BLACK
6
CONTINUOUS
10
4.1861645275590549
20
-4.0726377952755906
11
4.1718503937007876
21
-4.0726377952755906
0
LINE
8
BLACK
6
CONTINUOUS
10
4.1718503937007876
20
-4.0726377952755906
11
4.1718503937007876
21
-4.0135826771653544
0
LINE
8
BLACK
6
CONTINUOUS
10
4.1718503937007876
20
-4.0135826771653544
11
4.1915354330708663
21
-4.0135826771653544
0
LINE
8
BLACK
6
CONTINUOUS
10
4.1915354330708663
20
-4.0135826771653544
11
4.1915354330708663
21
-4.0137830314960627
0
LINE
8
BLACK
6
CONTINUOUS
10
4.0970472440944885
20
-3.9580784251968502
11
4.1001894881889767
21
-3.9607151181102362
0
LINE
8
BLACK
6
CONTINUOUS
10
4.1001894881889767
20
-3.9607151181102362
11
4.1022404724409451
21
-3.9642674803149607
0
LINE
8
BLACK
6
CONTINUOUS
10
4.1022404724409451
20
-3.9642674803149607
11
4.1029527559055117
21
-3.968307086614173
0
LINE
8
BLACK
6
CONTINUOUS
10
4.1029527559055117
20
-3.968307086614173
11
4.1022404724409451
21
-3.9723466929133857
0
LINE
8
BLACK
6
CONTINUOUS
10
4.1022404724409451
20
-3.9723466929133857
11
4.1001894881889767
21
-3.9758990551181101
0
LINE
8
BLACK
6
CONTINUOUS
10
4.1001894881889767
20
-3.9758990551181101
11
4.0970472440944885
21
-3.9785357480314958
0
LINE
8
BLACK
6
CONTINUOUS
10
4.0970472440944885
20
-3.9785357480314958
11
4.0950787401574802
21
-3.9792522047244092
0
LINE
8
BLACK
6
CONTINUOUS
10
4.0950787401574802
20
-3.9792522047244092
11
4.0950787401574802
21
-3.9922668503937007
0
LINE
8
BLACK
6
CONTINUOUS
10
4.0950787401574802
20
-3.9922668503937007
11
4.1245568897637792
21
-4.0217450000000001
0
LINE
8
BLACK
6
CONTINUOUS
10
4.1245568897637792
20
-4.0217450000000001
11
4.127463385826772
21
-4.0183907480314955
0
LINE
8
BLACK
6
CONTINUOUS
10
4.127463385826772
20
-4.0183907480314955
11
4.1321768503937006
21
-4.0153615748031495
0
LINE
8
BLACK
6
CONTINUOUS
10
4.1321768503937006
20
-4.0153615748031495
11
4.1375528740157481
21
-4.0137830314960627
0
LINE
8
BLACK
6
CONTINUOUS
10
4.1375528740157481
20
-4.0137830314960627
11
4.1403543307086617
21
-4.0137830314960627
0
LINE
8
BLACK
6
CONTINUOUS
10
4.1403543307086617
20
-4.0137830314960627
11
4.1403543307086617
21
-4.0135826771653544
0
LINE
8
BLACK
6
CONTINUOUS
10
4.1403543307086617
20
-4.0135826771653544
11
4.1600393700787404
21
-4.0135826771653544
0
LINE
8
BLACK
6
CONTINUOUS
10
4.1600393700787404
20
-4.0135826771653544
11
4.1600393700787404
21
-4.0726377952755906
0
LINE
8
BLACK
6
CONTINUOUS
10
4.1600393700787404
20
-4.0726377952755906
11
4.1403543307086617
21
-4.0726377952755906
0
LINE
8
BLACK
6
CONTINUOUS
10
4.1403543307086617
20
-4.0726377952755906
11
4.1403543307086617
21
-4.0724374409448814
0
LINE
8
BLACK
6
CONTINUOUS
10
4.1403543307086617
20
-4.0724374409448814
11
4.1375528740157481
21
-4.0724374409448814
0
LINE
8
BLACK
6
CONTINUOUS
10
4.1375528740157481
20
-4.0724374409448814
11
4.1321768503937006
21
-4.0708588976377955
0
LINE
8
BLACK
6
CONTINUOUS
10
4.1321768503937006
20
-4.0708588976377955
11
4.127463385826772
21
-4.0678297244094486
0
LINE
8
BLACK
6
CONTINUOUS
10
4.127463385826772
20
-4.0678297244094486
11
4.1237942125984253
21
-4.0635952755905507
0
LINE
8
BLACK
6
CONTINUOUS
10
4.1237942125984253
20
-4.0635952755905507
11
4.1214666929133861
21
-4.0584986614173229
0
LINE
8
BLACK
6
CONTINUOUS
10
4.1214666929133861
20
-4.0584986614173229
11
4.120669291338583
21
-4.0529527559055119
0
LINE
8
BLACK
6
CONTINUOUS
10
4.120669291338583
20
-4.0529527559055119
11
4.120669291338583
21
-4.0332677165354331
0
LINE
8
BLACK
6
CONTINUOUS
10
4.120669291338583
20
-4.0332677165354331
11
4.1212066535433074
21
-4.0295303543307082
0
LINE
8
BLACK
6
CONTINUOUS
10
4.1212066535433074
20
-4.0295303543307082
11
4.0883578346456693
21
-3.9966815354330709
0
LINE
8
BLACK
6
CONTINUOUS
10
4.0883578346456693
20
-3.9966815354330709
11
4.0878682283464567
21
-3.9960849212598424
0
LINE
8
BLACK
6
CONTINUOUS
10
4.0878682283464567
20
-3.9960849212598424
11
4.0872803543307086
21
-3.994665708661417
0
LINE
8
BLACK
6
CONTINUOUS
10
4.0872803543307086
20
-3.994665708661417
11
4.0872047244094487
21
-3.9938976377952753
0
LINE
8
BLACK
6
CONTINUOUS
10
4.0872047244094487
20
-3.9938976377952753
11
4.0872047244094487
21
-3.9792522047244092
0
LINE
8
BLACK
6
CONTINUOUS
10
4.0872047244094487
20
-3.9792522047244092
11
4.0852362204724413
21
-3.9785357480314958
0
LINE
8
BLACK
6
CONTINUOUS
10
4.0852362204724413
20
-3.9785357480314958
11
4.0820939763779522
21
-3.9758990551181101
0
LINE
8
BLACK
6
CONTINUOUS
10
4.0820939763779522
20
-3.9758990551181101
11
4.0800429921259838
21
-3.9723466929133857
0
LINE
8
BLACK
6
CONTINUOUS
10
4.0800429921259838
20
-3.9723466929133857
11
4.0793307086614172
21
-3.968307086614173
0
LINE
8
BLACK
6
CONTINUOUS
10
4.0793307086614172
20
-3.968307086614173
11
4.0800429921259838
21
-3.9642674803149607
0
LINE
8
BLACK
6
CONTINUOUS
10
4.0800429921259838
20
-3.9642674803149607
11
4.0820939763779522
21
-3.9607151181102362
0
LINE
8
BLACK
6
CONTINUOUS
10
4.0820939763779522
20
-3.9607151181102362
11
4.0852362204724413
21
-3.9580784251968502
0
LINE
8
BLACK
6
CONTINUOUS
10
4.0852362204724413
20
-3.9580784251968502
11
4.0890907874015747
21
-3.9566755118110235
0
LINE
8
BLACK
6
CONTINUOUS
10
4.0890907874015747
20
-3.9566755118110235
11
4.0931926771653542
21
-3.9566755118110235
0
LINE
8
BLACK
6
CONTINUOUS
10
4.0931926771653542
20
-3.9566755118110235
11
4.0970472440944885
21
-3.9580784251968502
0
LINE
8
BLACK
6
CONTINUOUS
10
4.1009842519685042
20
-3.9029603149606298
11
4.1041264960629924
21
-3.9055970078740159
0
LINE
8
BLACK
6
CONTINUOUS
10
4.1041264960629924
20
-3.9055970078740159
11
4.1061774803149609
21
-3.9091493700787399
0
LINE
8
BLACK
6
CONTINUOUS
10
4.1061774803149609
20
-3.9091493700787399
11
4.1068897637795274
21
-3.9131889763779526
0
LINE
8
BLACK
6
CONTINUOUS
10
4.1068897637795274
20
-3.9131889763779526
11
4.1061774803149609
21
-3.9172285826771653
0
LINE
8
BLACK
6
CONTINUOUS
10
4.1061774803149609
20
-3.9172285826771653
11
4.1056315748031498
21
-3.9181740157480314
0
LINE
8
BLACK
6
CONTINUOUS
10
4.1056315748031498
20
-3.9181740157480314
11
4.1203315748031493
21
-3.9328740157480313
0
LINE
8
BLACK
6
CONTINUOUS
10
4.1203315748031493
20
-3.9328740157480313
11
4.120669291338583
21
-3.9328740157480313
0
LINE
8
BLACK
6
CONTINUOUS
10
4.120669291338583
20
-3.9328740157480313
11
4.120669291338583
21
-3.9269685039370077
0
LINE
8
BLACK
6
CONTINUOUS
10
4.120669291338583
20
-3.9269685039370077
11
4.1214666929133861
21
-3.9214225984251967
0
LINE
8
BLACK
6
CONTINUOUS
10
4.1214666929133861
20
-3.9214225984251967
11
4.1237942125984253
21
-3.9163259842519684
0
LINE
8
BLACK
6
CONTINUOUS
10
4.1237942125984253
20
-3.9163259842519684
11
4.127463385826772
21
-3.912091535433071
0
LINE
8
BLACK
6
CONTINUOUS
10
4.127463385826772
20
-3.912091535433071
11
4.1321768503937006
21
-3.9090623622047245
0
LINE
8
BLACK
6
CONTINUOUS
10
4.1321768503937006
20
-3.9090623622047245
11
4.1375528740157481
21
-3.9074838188976377
0
LINE
8
BLACK
6
CONTINUOUS
10
4.1375528740157481
20
-3.9074838188976377
11
4.1403543307086617
21
-3.9074838188976377
0
LINE
8
BLACK
6
CONTINUOUS
10
4.1403543307086617
20
-3.9074838188976377
11
4.1403543307086617
21
-3.907283464566929
0
LINE
8
BLACK
6
CONTINUOUS
10
4.1403543307086617
20
-3.907283464566929
11
4.1600393700787404
21
-3.907283464566929
0
LINE
8
BLACK
6
CONTINUOUS
10
4.1600393700787404
20
-3.907283464566929
11
4.1600393700787404
21
-3.9663385826771651
0
LINE
8
BLACK
6
CONTINUOUS
10
4.1600393700787404
20
-3.9663385826771651
11
4.1403543307086617
21
-3.9663385826771651
0
LINE
8
BLACK
6
CONTINUOUS
10
4.1403543307086617
20
-3.9663385826771651
11
4.1403543307086617
21
-3.9661382283464568
0
LINE
8
BLACK
6
CONTINUOUS
10
4.1403543307086617
20
-3.9661382283464568
11
4.1375528740157481
21
-3.9661382283464568
0
LINE
8
BLACK
6
CONTINUOUS
10
4.1375528740157481
20
-3.9661382283464568
11
4.1321768503937006
21
-3.9645596850393701
0
LINE
8
BLACK
6
CONTINUOUS
10
4.1321768503937006
20
-3.9645596850393701
11
4.127463385826772
21
-3.9615305118110236
0
LINE
8
BLACK
6
CONTINUOUS
10
4.127463385826772
20
-3.9615305118110236
11
4.1237942125984253
21
-3.9572960629921261
0
LINE
8
BLACK
6
CONTINUOUS
10
4.1237942125984253
20
-3.9572960629921261
11
4.1214666929133861
21
-3.9521994488188974
0
LINE
8
BLACK
6
CONTINUOUS
10
4.1214666929133861
20
-3.9521994488188974
11
4.120669291338583
21
-3.9466535433070864
0
LINE
8
BLACK
6
CONTINUOUS
10
4.120669291338583
20
-3.9466535433070864
11
4.120669291338583
21
-3.9407480314960628
0
LINE
8
BLACK
6
CONTINUOUS
10
4.120669291338583
20
-3.9407480314960628
11
4.1187007874015746
21
-3.9407480314960628
0
LINE
8
BLACK
6
CONTINUOUS
10
4.1187007874015746
20
-3.9407480314960628
11
4.1179327165354334
21
-3.9406724015748029
0
LINE
8
BLACK
6
CONTINUOUS
10
4.1179327165354334
20
-3.9406724015748029
11
4.116513503937008
21
-3.9400845275590552
0
LINE
8
BLACK
6
CONTINUOUS
10
4.116513503937008
20
-3.9400845275590552
11
4.1159168897637795
21
-3.9395949212598422
0
LINE
8
BLACK
6
CONTINUOUS
10
4.1159168897637795
20
-3.9395949212598422
11
4.100071692913386
21
-3.9237497244094488
0
LINE
8
BLACK
6
CONTINUOUS
10
4.100071692913386
20
-3.9237497244094488
11
4.0971296850393699
21
-3.9248205511811021
0
LINE
8
BLACK
6
CONTINUOUS
10
4.0971296850393699
20
-3.9248205511811021
11
4.0930277952755905
21
-3.9248205511811021
0
LINE
8
BLACK
6
CONTINUOUS
10
4.0930277952755905
20
-3.9248205511811021
11
4.089173228346457
21
-3.9234176377952754
0
LINE
8
BLACK
6
CONTINUOUS
10
4.089173228346457
20
-3.9234176377952754
11
4.086030984251968
21
-3.9207809448818898
0
LINE
8
BLACK
6
CONTINUOUS
10
4.086030984251968
20
-3.9207809448818898
11
4.0839799999999995
21
-3.9172285826771653
0
LINE
8
BLACK
6
CONTINUOUS
10
4.0839799999999995
20
-3.9172285826771653
11
4.083267716535433
21
-3.9131889763779526
0
LINE
8
BLACK
6
CONTINUOUS
10
4.083267716535433
20
-3.9131889763779526
11
4.0839799999999995
21
-3.9091493700787399
0
LINE
8
BLACK
6
CONTINUOUS
10
4.0839799999999995
20
-3.9091493700787399
11
4.086030984251968
21
-3.9055970078740159
0
LINE
8
BLACK
6
CONTINUOUS
10
4.086030984251968
20
-3.9055970078740159
11
4.089173228346457
21
-3.9029603149606298
0
LINE
8
BLACK
6
CONTINUOUS
10
4.089173228346457
20
-3.9029603149606298
11
4.0930277952755905
21
-3.9015574015748031
0
LINE
8
BLACK
6
CONTINUOUS
10
4.0930277952755905
20
-3.9015574015748031
11
4.0971296850393699
21
-3.9015574015748031
0
LINE
8
BLACK
6
CONTINUOUS
10
4.0971296850393699
20
-3.9015574015748031
11
4.1009842519685042
21
-3.9029603149606298
0
LINE
8
BLACK
6
CONTINUOUS
10
3.9514120472440943
20
-3.9061123622047242
11
3.9565086614173226
21
-3.9084398818897639
0
LINE
8
BLACK
6
CONTINUOUS
10
3.9565086614173226
20
-3.9084398818897639
11
3.9607431102362205
21
-3.9121090551181101
0
LINE
8
BLACK
6
CONTINUOUS
10
3.9607431102362205
20
-3.9121090551181101
11
3.963772283464567
21
-3.9168225196850392
0
LINE
8
BLACK
6
CONTINUOUS
10
3.963772283464567
20
-3.9168225196850392
11
3.9653508267716533
21
-3.9221985433070867
0
LINE
8
BLACK
6
CONTINUOUS
10
3.9653508267716533
20
-3.9221985433070867
11
3.9653508267716533
21
-3.9249999999999998
0
LINE
8
BLACK
6
CONTINUOUS
10
3.9653508267716533
20
-3.9249999999999998
11
3.965551181102362
21
-3.9249999999999998
0
LINE
8
BLACK
6
CONTINUOUS
10
3.965551181102362
20
-3.9249999999999998
11
3.965551181102362
21
-3.9446850393700785
0
LINE
8
BLACK
6
CONTINUOUS
10
3.965551181102362
20
-3.9446850393700785
11
3.9064960629921259
21
-3.9446850393700785
0
LINE
8
BLACK
6
CONTINUOUS
10
3.9064960629921259
20
-3.9446850393700785
11
3.9064960629921259
21
-3.9370078740157481
0
LINE
8
BLACK
6
CONTINUOUS
10
3.9064960629921259
20
-3.9370078740157481
11
3.8969436220472442
21
-3.9370078740157481
0
LINE
8
BLACK
6
CONTINUOUS
10
3.8969436220472442
20
-3.9370078740157481
11
3.8969255118110233
21
-3.9371104724409447
0
LINE
8
BLACK
6
CONTINUOUS
10
3.8969255118110233
20
-3.9371104724409447
11
3.8948745275590548
21
-3.9406628346456691
0
LINE
8
BLACK
6
CONTINUOUS
10
3.8948745275590548
20
-3.9406628346456691
11
3.8917322834645667
21
-3.9432995275590552
0
LINE
8
BLACK
6
CONTINUOUS
10
3.8917322834645667
20
-3.9432995275590552
11
3.8878777165354328
21
-3.9447024409448819
0
LINE
8
BLACK
6
CONTINUOUS
10
3.8878777165354328
20
-3.9447024409448819
11
3.8837758267716533
21
-3.9447024409448819
0
LINE
8
BLACK
6
CONTINUOUS
10
3.8837758267716533
20
-3.9447024409448819
11
3.8799212598425195
21
-3.9432995275590552
0
LINE
8
BLACK
6
CONTINUOUS
10
3.8799212598425195
20
-3.9432995275590552
11
3.8767790157480313
21
-3.9406628346456691
0
LINE
8
BLACK
6
CONTINUOUS
10
3.8767790157480313
20
-3.9406628346456691
11
3.8747280314960628
21
-3.9371104724409447
0
LINE
8
BLACK
6
CONTINUOUS
10
3.8747280314960628
20
-3.9371104724409447
11
3.8740157480314958
21
-3.9330708661417324
0
LINE
8
BLACK
6
CONTINUOUS
10
3.8740157480314958
20
-3.9330708661417324
11
3.8747280314960628
21
-3.9290312598425197
0
LINE
8
BLACK
6
CONTINUOUS
10
3.8747280314960628
20
-3.9290312598425197
11
3.8767790157480313
21
-3.9254788976377952
0
LINE
8
BLACK
6
CONTINUOUS
10
3.8767790157480313
20
-3.9254788976377952
11
3.8799212598425195
21
-3.9228422047244091
0
LINE
8
BLACK
6
CONTINUOUS
10
3.8799212598425195
20
-3.9228422047244091
11
3.8837758267716533
21
-3.9214392913385825
0
LINE
8
BLACK
6
CONTINUOUS
10
3.8837758267716533
20
-3.9214392913385825
11
3.8878777165354328
21
-3.9214392913385825
0
LINE
8
BLACK
6
CONTINUOUS
10
3.8878777165354328
20
-3.9214392913385825
11
3.8917322834645667
21
-3.9228422047244091
0
LINE
8
BLACK
6
CONTINUOUS
10
3.8917322834645667
20
-3.9228422047244091
11
3.8948745275590548
21
-3.9254788976377952
0
LINE
8
BLACK
6
CONTINUOUS
10
3.8948745275590548
20
-3.9254788976377952
11
3.8969255118110233
21
-3.9290312598425197
0
LINE
8
BLACK
6
CONTINUOUS
10
3.8969255118110233
20
-3.9290312598425197
11
3.8969436220472442
21
-3.9291338582677167
0
LINE
8
BLACK
6
CONTINUOUS
10
3.8969436220472442
20
-3.9291338582677167
11
3.9064960629921259
21
-3.9291338582677167
0
LINE
8
BLACK
6
CONTINUOUS
10
3.9064960629921259
20
-3.9291338582677167
11
3.9064960629921259
21
-3.9249999999999998
0
LINE
8
BLACK
6
CONTINUOUS
10
3.9064960629921259
20
-3.9249999999999998
11
3.9066964173228347
21
-3.9249999999999998
0
LINE
8
BLACK
6
CONTINUOUS
10
3.9066964173228347
20
-3.9249999999999998
11
3.9066964173228347
21
-3.9221985433070867
0
LINE
8
BLACK
6
CONTINUOUS
10
3.9066964173228347
20
-3.9221985433070867
11
3.908274960629921
21
-3.9168225196850392
0
LINE
8
BLACK
6
CONTINUOUS
10
3.908274960629921
20
-3.9168225196850392
11
3.9113041338582675
21
-3.9121090551181101
0
LINE
8
BLACK
6
CONTINUOUS
10
3.9113041338582675
20
-3.9121090551181101
11
3.9155385826771654
21
-3.9084398818897639
0
LINE
8
BLACK
6
CONTINUOUS
10
3.9155385826771654
20
-3.9084398818897639
11
3.9206351968503936
21
-3.9061123622047242
0
LINE
8
BLACK
6
CONTINUOUS
10
3.9206351968503936
20
-3.9061123622047242
11
3.9261811023622046
21
-3.9053149606299211
0
LINE
8
BLACK
6
CONTINUOUS
10
3.9261811023622046
20
-3.9053149606299211
11
3.9458661417322833
21
-3.9053149606299211
0
LINE
8
BLACK
6
CONTINUOUS
10
3.9458661417322833
20
-3.9053149606299211
11
3.9514120472440943
21
-3.9061123622047242
0
LINE
8
BLACK
6
CONTINUOUS
10
4.2673937007874017
20
-3.7674883858267716
11
4.2700279921259838
21
-3.7682803543307086
0
LINE
8
BLACK
6
CONTINUOUS
10
4.2700279921259838
20
-3.7682803543307086
11
4.2718159055118106
21
-3.7703708267716536
0
LINE
8
BLACK
6
CONTINUOUS
10
4.2718159055118106
20
-3.7703708267716536
11
4.2722440944881885
21
-3.772370157480315
0
LINE
8
BLACK
6
CONTINUOUS
10
4.2722440944881885
20
-3.772370157480315
11
4.2722440944881885
21
-4.3019762598425197
0
LINE
8
BLACK
6
CONTINUOUS
10
4.2722440944881885
20
-4.3019762598425197
11
4.2714690944881886
21
-4.3046155905511814
0
LINE
8
BLACK
6
CONTINUOUS
10
4.2714690944881886
20
-4.3046155905511814
11
4.2693901968503933
21
-4.3064169685039371
0
LINE
8
BLACK
6
CONTINUOUS
10
4.2693901968503933
20
-4.3064169685039371
11
4.2673307086614169
21
-4.3068580314960627
0
LINE
8
BLACK
6
CONTINUOUS
10
4.2673307086614169
20
-4.3068580314960627
11
4.1920666929133859
21
-4.306372440944882
0
LINE
8
BLACK
6
CONTINUOUS
10
4.1920666929133859
20
-4.306372440944882
11
4.1894324015748028
21
-4.305580472440945
0
LINE
8
BLACK
6
CONTINUOUS
10
4.1894324015748028
20
-4.305580472440945
11
4.1876444881889761
21
-4.30349
0
LINE
8
BLACK
6
CONTINUOUS
10
4.1876444881889761
20
-4.30349
11
4.1872705905511811
21
-4.3007647244094489
0
LINE
8
BLACK
6
CONTINUOUS
10
4.1872705905511811
20
-4.3007647244094489
11
4.1878135826771654
21
-4.2991507874015751
0
LINE
8
BLACK
6
CONTINUOUS
10
4.1878135826771654
20
-4.2991507874015751
11
4.187944527559055
21
-4.2989108661417319
0
LINE
8
BLACK
6
CONTINUOUS
10
4.187944527559055
20
-4.2989108661417319
11
4.1879447244094488
21
-4.2989106692913381
0
LINE
8
BLACK
6
CONTINUOUS
10
4.1879447244094488
20
-4.2989106692913381
11
4.1899248425196847
21
-4.293601692913386
0
LINE
8
BLACK
6
CONTINUOUS
10
4.1899248425196847
20
-4.293601692913386
11
4.1901771653543305
21
-4.2912548425196846
0
LINE
8
BLACK
6
CONTINUOUS
10
4.1901771653543305
20
-4.2912548425196846
11
4.1901771259842517
21
-4.2205562204724405
0
LINE
8
BLACK
6
CONTINUOUS
10
4.1901771259842517
20
-4.2205562204724405
11
4.1899248425196847
21
-4.2182093307086612
0
LINE
8
BLACK
6
CONTINUOUS
10
4.1899248425196847
20
-4.2182093307086612
11
4.1898744094488185
21
-4.2180741338582672
0
LINE
8
BLACK
6
CONTINUOUS
10
4.1898744094488185
20
-4.2180741338582672
11
4.1879447637795275
21
-4.2129004330708657
0
LINE
8
BLACK
6
CONTINUOUS
10
4.1879447637795275
20
-4.2129004330708657
11
4.1879446062992125
21
-4.2129001574803144
0
LINE
8
BLACK
6
CONTINUOUS
10
4.1879446062992125
20
-4.2129001574803144
11
4.1845490944881885
21
-4.2083643700787396
0
LINE
8
BLACK
6
CONTINUOUS
10
4.1845490944881885
20
-4.2083643700787396
11
4.1845489763779531
21
-4.2083642519685043
0
LINE
8
BLACK
6
CONTINUOUS
10
4.1845489763779531
20
-4.2083642519685043
11
4.1800131889763774
21
-4.2049687401574802
0
LINE
8
BLACK
6
CONTINUOUS
10
4.1800131889763774
20
-4.2049687401574802
11
4.180012913385827
21
-4.2049685826771652
0
LINE
8
BLACK
6
CONTINUOUS
10
4.180012913385827
20
-4.2049685826771652
11
4.1747040157480315
21
-4.2029885039370081
0
LINE
8
BLACK
6
CONTINUOUS
10
4.1747040157480315
20
-4.2029885039370081
11
4.1747040551181103
21
-4.2029885039370081
0
LINE
8
BLACK
6
CONTINUOUS
10
4.1747040551181103
20
-4.2029885039370081
11
4.1723575984251964
21
-4.2027362598425198
0
LINE
8
BLACK
6
CONTINUOUS
10
4.1723575984251964
20
-4.2027362598425198
11
4.1723575196850389
21
-4.202736220472441
0
LINE
8
BLACK
6
CONTINUOUS
10
4.1723575196850389
20
-4.202736220472441
11
4.1723572047244097
21
-4.202736220472441
0
LINE
8
BLACK
6
CONTINUOUS
10
4.1723572047244097
20
-4.202736220472441
11
4.172356850393701
21
-4.202736220472441
0
LINE
8
BLACK
6
CONTINUOUS
10
4.172356850393701
20
-4.202736220472441
11
4.1016586220472444
21
-4.202736220472441
0
LINE
8
BLACK
6
CONTINUOUS
10
4.1016586220472444
20
-4.202736220472441
11
4.1016583858267719
21
-4.2027362598425198
0
LINE
8
BLACK
6
CONTINUOUS
10
4.1016583858267719
20
-4.2027362598425198
11
4.0993116535433067
21
-4.2029885039370081
0
LINE
8
BLACK
6
CONTINUOUS
10
4.0993116535433067
20
-4.2029885039370081
11
4.0940027952755909
21
-4.2049685826771652
0
LINE
8
BLACK
6
CONTINUOUS
10
4.0940027952755909
20
-4.2049685826771652
11
4.0940025196850396
21
-4.2049687401574802
0
LINE
8
BLACK
6
CONTINUOUS
10
4.0940025196850396
20
-4.2049687401574802
11
4.0894667322834648
21
-4.2083642519685043
0
LINE
8
BLACK
6
CONTINUOUS
10
4.0894667322834648
20
-4.2083642519685043
11
4.0894666141732285
21
-4.2083643700787396
0
LINE
8
BLACK
6
CONTINUOUS
10
4.0894666141732285
20
-4.2083643700787396
11
4.0860711023622045
21
-4.2129001574803144
0
LINE
8
BLACK
6
CONTINUOUS
10
4.0860711023622045
20
-4.2129001574803144
11
4.0860709842519682
21
-4.2129003543307082
0
LINE
8
BLACK
6
CONTINUOUS
10
4.0860709842519682
20
-4.2129003543307082
11
4.0841412992125985
21
-4.2180741338582672
0
LINE
8
BLACK
6
CONTINUOUS
10
4.0841412992125985
20
-4.2180741338582672
11
4.0824927952755905
21
-4.2202762204724404
0
LINE
8
BLACK
6
CONTINUOUS
10
4.0824927952755905
20
-4.2202762204724404
11
4.0799154724409448
21
-4.2212375196850394
0
LINE
8
BLACK
6
CONTINUOUS
10
4.0799154724409448
20
-4.2212375196850394
11
4.0772275590551184
21
-4.2206527952755906
0
LINE
8
BLACK
6
CONTINUOUS
10
4.0772275590551184
20
-4.2206527952755906
11
4.0761151968503935
21
-4.219820078740157
0
LINE
8
BLACK
6
CONTINUOUS
10
4.0761151968503935
20
-4.219820078740157
11
4.071315039370079
21
-4.2150199212598425
0
LINE
8
BLACK
6
CONTINUOUS
10
4.071315039370079
20
-4.2150199212598425
11
4.0713147637795277
21
-4.2150197244094487
0
LINE
8
BLACK
6
CONTINUOUS
10
4.0713147637795277
20
-4.2150197244094487
11
4.0636942519685038
21
-4.2096837401574803
0
LINE
8
BLACK
6
CONTINUOUS
10
4.0636942519685038
20
-4.2096837401574803
11
4.0636940944881887
21
-4.2096836614173228
0
LINE
8
BLACK
6
CONTINUOUS
10
4.0636940944881887
20
-4.2096836614173228
11
4.0636940157480312
21
-4.209683622047244
0
LINE
8
BLACK
6
CONTINUOUS
10
4.0636940157480312
20
-4.209683622047244
11
4.0552623228346452
21
-4.2057518503937006
0
LINE
8
BLACK
6
CONTINUOUS
10
4.0552623228346452
20
-4.2057518503937006
11
4.055262165354331
21
-4.2057518110236218
0
LINE
8
BLACK
6
CONTINUOUS
10
4.055262165354331
20
-4.2057518110236218
11
4.055262007874016
21
-4.2057517322834643
0
LINE
8
BLACK
6
CONTINUOUS
10
4.055262007874016
20
-4.2057517322834643
11
4.0462761023622047
21
-4.2033440157480317
0
LINE
8
BLACK
6
CONTINUOUS
10
4.0462761023622047
20
-4.2033440157480317
11
4.0462757086614172
21
-4.2033439370078742
0
LINE
8
BLACK
6
CONTINUOUS
10
4.0462757086614172
20
-4.2033439370078742
11
4.0370079133858265
21
-4.20253311023622
0
LINE
8
BLACK
6
CONTINUOUS
10
4.0370079133858265
20
-4.20253311023622
11
4.037007834645669
21
-4.20253311023622
0
LINE
8
BLACK
6
CONTINUOUS
10
4.037007834645669
20
-4.20253311023622
11
4.0277399999999997
21
-4.2033439370078742
0
LINE
8
BLACK
6
CONTINUOUS
10
4.0277399999999997
20
-4.2033439370078742
11
4.0277396062992121
21
-4.2033440157480317
0
LINE
8
BLACK
6
CONTINUOUS
10
4.0277396062992121
20
-4.2033440157480317
11
4.0187537007874017
21
-4.2057517322834643
0
LINE
8
BLACK
6
CONTINUOUS
10
4.0187537007874017
20
-4.2057517322834643
11
4.0187533464566929
21
-4.2057518897637793
0
LINE
8
BLACK
6
CONTINUOUS
10
4.0187533464566929
20
-4.2057518897637793
11
4.0103216929133856
21
-4.209683622047244
0
LINE
8
BLACK
6
CONTINUOUS
10
4.0103216929133856
20
-4.209683622047244
11
4.0103216141732281
21
-4.2096836614173228
0
LINE
8
BLACK
6
CONTINUOUS
10
4.0103216141732281
20
-4.2096836614173228
11
4.0027006692913387
21
-4.2150198818897637
0
LINE
8
BLACK
6
CONTINUOUS
10
4.0027006692913387
20
-4.2150198818897637
11
3.9961222440944879
21
-4.2215983070866141
0
LINE
8
BLACK
6
CONTINUOUS
10
3.9961222440944879
20
-4.2215983070866141
11
3.9910068897637796
21
-4.2289038582677163
0
LINE
8
BLACK
6
CONTINUOUS
10
3.9910068897637796
20
-4.2289038582677163
11
3.9888581889763777
21
-4.2306213779527555
0
LINE
8
BLACK
6
CONTINUOUS
10
3.9888581889763777
20
-4.2306213779527555
11
3.9861220472440944
21
-4.2309046062992124
0
LINE
8
BLACK
6
CONTINUOUS
10
3.9861220472440944
20
-4.2309046062992124
11
3.983667125984252
21
-4.2296635433070868
0
LINE
8
BLACK
6
CONTINUOUS
10
3.983667125984252
20
-4.2296635433070868
11
3.9830088582677163
21
-4.2289038582677163
0
LINE
8
BLACK
6
CONTINUOUS
10
3.9830088582677163
20
-4.2289038582677163
11
3.9778934645669288
21
-4.2215983070866141
0
LINE
8
BLACK
6
CONTINUOUS
10
3.9778934645669288
20
-4.2215983070866141
11
3.9713150393700785
21
-4.2150199212598425
0
LINE
8
BLACK
6
CONTINUOUS
10
3.9713150393700785
20
-4.2150199212598425
11
3.9713147637795276
21
-4.2150197244094487
0
LINE
8
BLACK
6
CONTINUOUS
10
3.9713147637795276
20
-4.2150197244094487
11
3.9636942519685037
21
-4.2096837401574803
0
LINE
8
BLACK
6
CONTINUOUS
10
3.9636942519685037
20
-4.2096837401574803
11
3.9636940944881891
21
-4.2096836614173228
0
LINE
8
BLACK
6
CONTINUOUS
10
3.9636940944881891
20
-4.2096836614173228
11
3.9636940157480316
21
-4.209683622047244
0
LINE
8
BLACK
6
CONTINUOUS
10
3.9636940157480316
20
-4.209683622047244
11
3.9552623228346455
21
-4.2057518503937006
0
LINE
8
BLACK
6
CONTINUOUS
10
3.9552623228346455
20
-4.2057518503937006
11
3.9552621653543305
21
-4.2057518110236218
0
LINE
8
BLACK
6
CONTINUOUS
10
3.9552621653543305
20
-4.2057518110236218
11
3.9552620078740155
21
-4.2057517322834643
0
LINE
8
BLACK
6
CONTINUOUS
10
3.9552620078740155
20
-4.2057517322834643
11
3.9462761023622046
21
-4.2033440157480317
0
LINE
8
BLACK
6
CONTINUOUS
10
3.9462761023622046
20
-4.2033440157480317
11
3.9462757086614171
21
-4.2033439370078742
0
LINE
8
BLACK
6
CONTINUOUS
10
3.9462757086614171
20
-4.2033439370078742
11
3.9370079133858269
21
-4.20253311023622
0
LINE
8
BLACK
6
CONTINUOUS
10
3.9370079133858269
20
-4.20253311023622
11
3.9370078346456694
21
-4.20253311023622
0
LINE
8
BLACK
6
CONTINUOUS
10
3.9370078346456694
20
-4.20253311023622
11
3.92774
21
-4.2033439370078742
0
LINE
8
BLACK
6
CONTINUOUS
10
3.92774
20
-4.2033439370078742
11
3.9277396062992125
21
-4.2033440157480317
0
LINE
8
BLACK
6
CONTINUOUS
10
3.9277396062992125
20
-4.2033440157480317
11
3.9187537007874016
21
-4.2057517322834643
0
LINE
8
BLACK
6
CONTINUOUS
10
3.9187537007874016
20
-4.2057517322834643
11
3.9187533464566928
21
-4.2057518897637793
0
LINE
8
BLACK
6
CONTINUOUS
10
3.9187533464566928
20
-4.2057518897637793
11
3.9103216929133859
21
-4.209683622047244
0
LINE
8
BLACK
6
CONTINUOUS
10
3.9103216929133859
20
-4.209683622047244
11
3.9103216141732284
21
-4.2096836614173228
0
LINE
8
BLACK
6
CONTINUOUS
10
3.9103216141732284
20
-4.2096836614173228
11
3.9027006692913386
21
-4.2150198818897637
0
LINE
8
BLACK
6
CONTINUOUS
10
3.9027006692913386
20
-4.2150198818897637
11
3.8961222440944883
21
-4.2215983070866141
0
LINE
8
BLACK
6
CONTINUOUS
10
3.8961222440944883
20
-4.2215983070866141
11
3.8910068897637795
21
-4.2289038582677163
0
LINE
8
BLACK
6
CONTINUOUS
10
3.8910068897637795
20
-4.2289038582677163
11
3.888858188976378
21
-4.2306213779527555
0
LINE
8
BLACK
6
CONTINUOUS
10
3.888858188976378
20
-4.2306213779527555
11
3.8861220472440943
21
-4.2309046062992124
0
LINE
8
BLACK
6
CONTINUOUS
10
3.8861220472440943
20
-4.2309046062992124
11
3.8836671259842519
21
-4.2296635433070868
0
LINE
8
BLACK
6
CONTINUOUS
10
3.8836671259842519
20
-4.2296635433070868
11
3.8830088582677162
21
-4.2289038582677163
0
LINE
8
BLACK
6
CONTINUOUS
10
3.8830088582677162
20
-4.2289038582677163
11
3.8778934645669292
21
-4.2215983070866141
0
LINE
8
BLACK
6
CONTINUOUS
10
3.8778934645669292
20
-4.2215983070866141
11
3.8713150393700788
21
-4.2150199212598425
0
LINE
8
BLACK
6
CONTINUOUS
10
3.8713150393700788
20
-4.2150199212598425
11
3.8713147637795275
21
-4.2150197244094487
0
LINE
8
BLACK
6
CONTINUOUS
10
3.8713147637795275
20
-4.2150197244094487
11
3.863694251968504
21
-4.2096837401574803
0
LINE
8
BLACK
6
CONTINUOUS
10
3.863694251968504
20
-4.2096837401574803
11
3.863694094488189
21
-4.2096836614173228
0
LINE
8
BLACK
6
CONTINUOUS
10
3.863694094488189
20
-4.2096836614173228
11
3.8636940157480315
21
-4.209683622047244
0
LINE
8
BLACK
6
CONTINUOUS
10
3.8636940157480315
20
-4.209683622047244
11
3.8552623228346454
21
-4.2057518503937006
0
LINE
8
BLACK
6
CONTINUOUS
10
3.8552623228346454
20
-4.2057518503937006
11
3.8552621653543304
21
-4.2057518110236218
0
LINE
8
BLACK
6
CONTINUOUS
10
3.8552621653543304
20
-4.2057518110236218
11
3.8552620078740159
21
-4.2057517322834643
0
LINE
8
BLACK
6
CONTINUOUS
10
3.8552620078740159
20
-4.2057517322834643
11
3.8462761023622045
21
-4.2033440157480317
0
LINE
8
BLACK
6
CONTINUOUS
10
3.8462761023622045
20
-4.2033440157480317
11
3.8462757086614174
21
-4.2033439370078742
0
LINE
8
BLACK
6
CONTINUOUS
10
3.8462757086614174
20
-4.2033439370078742
11
3.8370079133858268
21
-4.20253311023622
0
LINE
8
BLACK
6
CONTINUOUS
10
3.8370079133858268
20
-4.20253311023622
11
3.8370078346456693
21
-4.20253311023622
0
LINE
8
BLACK
6
CONTINUOUS
10
3.8370078346456693
20
-4.20253311023622
11
3.8277399999999999
21
-4.2033439370078742
0
LINE
8
BLACK
6
CONTINUOUS
10
3.8277399999999999
20
-4.2033439370078742
11
3.8277396062992124
21
-4.2033440157480317
0
LINE
8
BLACK
6
CONTINUOUS
10
3.8277396062992124
20
-4.2033440157480317
11
3.8187537007874015
21
-4.2057517322834643
0
LINE
8
BLACK
6
CONTINUOUS
10
3.8187537007874015
20
-4.2057517322834643
11
3.8187533464566927
21
-4.2057518897637793
0
LINE
8
BLACK
6
CONTINUOUS
10
3.8187533464566927
20
-4.2057518897637793
11
3.8103216929133858
21
-4.209683622047244
0
LINE
8
BLACK
6
CONTINUOUS
10
3.8103216929133858
20
-4.209683622047244
11
3.8103216141732283
21
-4.2096836614173228
0
LINE
8
BLACK
6
CONTINUOUS
10
3.8103216141732283
20
-4.2096836614173228
11
3.8027006692913385
21
-4.2150198818897637
0
LINE
8
BLACK
6
CONTINUOUS
10
3.8027006692913385
20
-4.2150198818897637
11
3.7961222440944882
21
-4.2215983070866141
0
LINE
8
BLACK
6
CONTINUOUS
10
3.7961222440944882
20
-4.2215983070866141
11
3.7907860236220472
21
-4.2292192519685035
0
LINE
8
BLACK
6
CONTINUOUS
10
3.7907860236220472
20
-4.2292192519685035
11
3.7907859842519684
21
-4.229219330708661
0
LINE
8
BLACK
6
CONTINUOUS
10
3.7907859842519684
20
-4.229219330708661
11
3.7868542519685038
21
-4.2376509842519683
0
LINE
8
BLACK
6
CONTINUOUS
10
3.7868542519685038
20
-4.2376509842519683
11
3.7868540944881888
21
-4.2376513385826771
0
LINE
8
BLACK
6
CONTINUOUS
10
3.7868540944881888
20
-4.2376513385826771
11
3.7844463779527557
21
-4.2466372440944884
0
LINE
8
BLACK
6
CONTINUOUS
10
3.7844463779527557
20
-4.2466372440944884
11
3.7844462992125982
21
-4.2466376377952759
0
LINE
8
BLACK
6
CONTINUOUS
10
3.7844462992125982
20
-4.2466376377952759
11
3.7836354724409449
21
-4.2559054724409444
0
LINE
8
BLACK
6
CONTINUOUS
10
3.7836354724409449
20
-4.2559054724409444
11
3.7836354724409449
21
-4.2559055118110232
0
LINE
8
BLACK
6
CONTINUOUS
10
3.7836354724409449
20
-4.2559055118110232
11
3.7844462992125982
21
-4.2651733464566925
0
LINE
8
BLACK
6
CONTINUOUS
10
3.7844462992125982
20
-4.2651733464566925
11
3.7844463779527557
21
-4.2651737401574801
0
LINE
8
BLACK
6
CONTINUOUS
10
3.7844463779527557
20
-4.2651737401574801
11
3.7868540944881888
21
-4.2741596456692914
0
LINE
8
BLACK
6
CONTINUOUS
10
3.7868540944881888
20
-4.2741596456692914
11
3.7868541732283463
21
-4.2741598031496064
0
LINE
8
BLACK
6
CONTINUOUS
10
3.7868541732283463
20
-4.2741598031496064
11
3.786854212598425
21
-4.2741599606299214
0
LINE
8
BLACK
6
CONTINUOUS
10
3.786854212598425
20
-4.2741599606299214
11
3.790000157480315
21
-4.2809064173228348
0
LINE
8
BLACK
6
CONTINUOUS
10
3.790000157480315
20
-4.2809064173228348
11
3.7907860236220472
21
-4.2825917322834641
0
LINE
8
BLACK
6
CONTINUOUS
10
3.7907860236220472
20
-4.2825917322834641
11
3.7907861023622047
21
-4.2825918897637791
0
LINE
8
BLACK
6
CONTINUOUS
10
3.7907861023622047
20
-4.2825918897637791
11
3.7950504330708661
21
-4.2886819291338583
0
LINE
8
BLACK
6
CONTINUOUS
10
3.7950504330708661
20
-4.2886819291338583
11
3.7961220866141732
21
-4.2902124409448819
0
LINE
8
BLACK
6
CONTINUOUS
10
3.7961220866141732
20
-4.2902124409448819
11
3.7961222834645669
21
-4.2902126771653544
0
LINE
8
BLACK
6
CONTINUOUS
10
3.7961222834645669
20
-4.2902126771653544
11
3.8014053937007874
21
-4.2954957874015749
0
LINE
8
BLACK
6
CONTINUOUS
10
3.8014053937007874
20
-4.2954957874015749
11
3.8027237007874013
21
-4.2979100787401574
0
LINE
8
BLACK
6
CONTINUOUS
10
3.8027237007874013
20
-4.2979100787401574
11
3.8025274803149607
21
-4.3006538582677161
0
LINE
8
BLACK
6
CONTINUOUS
10
3.8025274803149607
20
-4.3006538582677161
11
3.8008789763779527
21
-4.3028559448818893
0
LINE
8
BLACK
6
CONTINUOUS
10
3.8008789763779527
20
-4.3028559448818893
11
3.798301653543307
21
-4.3038172440944882
0
LINE
8
BLACK
6
CONTINUOUS
10
3.798301653543307
20
-4.3038172440944882
11
3.7979218897637796
21
-4.3038295669291333
0
LINE
8
BLACK
6
CONTINUOUS
10
3.7979218897637796
20
-4.3038295669291333
11
3.6668582677165356
21
-4.3029840157480317
0
LINE
8
BLACK
6
CONTINUOUS
10
3.6668582677165356
20
-4.3029840157480317
11
3.6642239763779525
21
-4.3021920472440947
0
LINE
8
BLACK
6
CONTINUOUS
10
3.6642239763779525
20
-4.3021920472440947
11
3.6624360629921258
21
-4.3001015748031497
0
LINE
8
BLACK
6
CONTINUOUS
10
3.6624360629921258
20
-4.3001015748031497
11
3.6620078740157478
21
-4.2981022440944878
0
LINE
8
BLACK
6
CONTINUOUS
10
3.6620078740157478
20
-4.2981022440944878
11
3.6620078740157478
21
-4.122047086614173
0
LINE
8
BLACK
6
CONTINUOUS
10
3.6620078740157478
20
-4.122047086614173
11
3.6620078740157478
21
-3.9330707086614174
0
LINE
8
BLACK
6
CONTINUOUS
10
3.6620078740157478
20
-3.9330707086614174
11
3.6620078740157478
21
-3.7684961417322835
0
LINE
8
BLACK
6
CONTINUOUS
10
3.6620078740157478
20
-3.7684961417322835
11
3.6627828740157478
21
-3.7658568110236219
0
LINE
8
BLACK
6
CONTINUOUS
10
3.6627828740157478
20
-3.7658568110236219
11
3.6648617716535434
21
-3.7640554330708662
0
LINE
8
BLACK
6
CONTINUOUS
10
3.6648617716535434
20
-3.7640554330708662
11
3.6669212204724411
21
-3.7636143700787401
0
LINE
8
BLACK
6
CONTINUOUS
10
3.6669212204724411
20
-3.7636143700787401
11
4.2673937007874017
21
-3.7674883858267716
0
LINE
8
BLACK
6
CONTINUOUS
10
3.798993503937008
20
-4.1220473622047242
11
3.7997885826771651
21
-4.1291042913385825
0
LINE
8
BLACK
6
CONTINUOUS
10
3.7997885826771651
20
-4.1291042913385825
11
3.7997886220472439
21
-4.1291044881889762
0
LINE
8
BLACK
6
CONTINUOUS
10
3.7997886220472439
20
-4.1291044881889762
11
3.8021342913385827
21
-4.1358079921259838
0
LINE
8
BLACK
6
CONTINUOUS
10
3.8021342913385827
20
-4.1358079921259838
11
3.805745472440945
21
-4.1415551181102357
0
LINE
8
BLACK
6
CONTINUOUS
10
3.805745472440945
20
-4.1415551181102357
11
3.8059127559055117
21
-4.1418213385826768
0
LINE
8
BLACK
6
CONTINUOUS
10
3.8059127559055117
20
-4.1418213385826768
11
3.8109345669291339
21
-4.1468431496062994
0
LINE
8
BLACK
6
CONTINUOUS
10
3.8109345669291339
20
-4.1468431496062994
11
3.8169479527559056
21
-4.1506216141732279
0
LINE
8
BLACK
6
CONTINUOUS
10
3.8169479527559056
20
-4.1506216141732279
11
3.8236513779527557
21
-4.152967244094488
0
LINE
8
BLACK
6
CONTINUOUS
10
3.8236513779527557
20
-4.152967244094488
11
3.8236515748031494
21
-4.1529672834645668
0
LINE
8
BLACK
6
CONTINUOUS
10
3.8236515748031494
20
-4.1529672834645668
11
3.8307085039370077
21
-4.1537624015748031
0
LINE
8
BLACK
6
CONTINUOUS
10
3.8307085039370077
20
-4.1537624015748031
11
3.8307086614173227
21
-4.1537624015748031
0
LINE
8
BLACK
6
CONTINUOUS
10
3.8307086614173227
20
-4.1537624015748031
11
3.8307088188976377
21
-4.1537624015748031
0
LINE
8
BLACK
6
CONTINUOUS
10
3.8307088188976377
20
-4.1537624015748031
11
3.8377657086614172
21
-4.1529672834645668
0
LINE
8
BLACK
6
CONTINUOUS
10
3.8377657086614172
20
-4.1529672834645668
11
3.8377658267716535
21
-4.152967244094488
0
LINE
8
BLACK
6
CONTINUOUS
10
3.8377658267716535
20
-4.152967244094488
11
3.8377659448818897
21
-4.152967244094488
0
LINE
8
BLACK
6
CONTINUOUS
10
3.8377659448818897
20
-4.152967244094488
11
3.8444693700787402
21
-4.1506216141732279
0
LINE
8
BLACK
6
CONTINUOUS
10
3.8444693700787402
20
-4.1506216141732279
11
3.8504827559055119
21
-4.1468431496062994
0
LINE
8
BLACK
6
CONTINUOUS
10
3.8504827559055119
20
-4.1468431496062994
11
3.8541440944881891
21
-4.1431818110236218
0
LINE
8
BLACK
6
CONTINUOUS
10
3.8541440944881891
20
-4.1431818110236218
11
3.8565584251968503
21
-4.1418635433070863
0
LINE
8
BLACK
6
CONTINUOUS
10
3.8565584251968503
20
-4.1418635433070863
11
3.8575961023622045
21
-4.1417519685039368
0
LINE
8
BLACK
6
CONTINUOUS
10
3.8575961023622045
20
-4.1417519685039368
11
3.9573853543307087
21
-4.1417519685039368
0
LINE
8
BLACK
6
CONTINUOUS
10
3.9573853543307087
20
-4.1417519685039368
11
3.9600246850393699
21
-4.1425269685039368
0
LINE
8
BLACK
6
CONTINUOUS
10
3.9600246850393699
20
-4.1425269685039368
11
3.9604292519685038
21
-4.1428171259842514
0
LINE
8
BLACK
6
CONTINUOUS
10
3.9604292519685038
20
-4.1428171259842514
11
3.9605407874015746
21
-4.1429060629921262
0
LINE
8
BLACK
6
CONTINUOUS
10
3.9605407874015746
20
-4.1429060629921262
11
3.9605408661417321
21
-4.1429061417322837
0
LINE
8
BLACK
6
CONTINUOUS
10
3.9605408661417321
20
-4.1429061417322837
11
3.9665542519685038
21
-4.1466846062992122
0
LINE
8
BLACK
6
CONTINUOUS
10
3.9665542519685038
20
-4.1466846062992122
11
3.9670072440944879
21
-4.1468431102362207
0
LINE
8
BLACK
6
CONTINUOUS
10
3.9670072440944879
20
-4.1468431102362207
11
3.9732576771653543
21
-4.1490302362204723
0
LINE
8
BLACK
6
CONTINUOUS
10
3.9732576771653543
20
-4.1490302362204723
11
3.973257874015748
21
-4.149030275590551
0
LINE
8
BLACK
6
CONTINUOUS
10
3.973257874015748
20
-4.149030275590551
11
3.9803148031496063
21
-4.1498253937007874
0
LINE
8
BLACK
6
CONTINUOUS
10
3.9803148031496063
20
-4.1498253937007874
11
3.9803149606299213
21
-4.1498253937007874
0
LINE
8
BLACK
6
CONTINUOUS
10
3.9803149606299213
20
-4.1498253937007874
11
3.9803151181102363
21
-4.1498253937007874
0
LINE
8
BLACK
6
CONTINUOUS
10
3.9803151181102363
20
-4.1498253937007874
11
3.9873720078740158
21
-4.149030275590551
0
LINE
8
BLACK
6
CONTINUOUS
10
3.9873720078740158
20
-4.149030275590551
11
3.9873721259842521
21
-4.1490302362204723
0
LINE
8
BLACK
6
CONTINUOUS
10
3.9873721259842521
20
-4.1490302362204723
11
3.9873722440944883
21
-4.1490302362204723
0
LINE
8
BLACK
6
CONTINUOUS
10
3.9873722440944883
20
-4.1490302362204723
11
3.9940756692913384
21
-4.1466846062992122
0
LINE
8
BLACK
6
CONTINUOUS
10
3.9940756692913384
20
-4.1466846062992122
11
4.0000890551181101
21
-4.1429061417322837
0
LINE
8
BLACK
6
CONTINUOUS
10
4.0000890551181101
20
-4.1429061417322837
11
4.0051108661417318
21
-4.137884330708661
0
LINE
8
BLACK
6
CONTINUOUS
10
4.0051108661417318
20
-4.137884330708661
11
4.0088893307086613
21
-4.1318709448818893
0
LINE
8
BLACK
6
CONTINUOUS
10
4.0088893307086613
20
-4.1318709448818893
11
4.0112349606299214
21
-4.1251675196850393
0
LINE
8
BLACK
6
CONTINUOUS
10
4.0112349606299214
20
-4.1251675196850393
11
4.0114411417322833
21
-4.1233377559055118
0
LINE
8
BLACK
6
CONTINUOUS
10
4.0114411417322833
20
-4.1233377559055118
11
4.0120301181102365
21
-4.1181103543307085
0
LINE
8
BLACK
6
CONTINUOUS
10
4.0120301181102365
20
-4.1181103543307085
11
4.0120301181102365
21
-4.1181100787401572
0
LINE
8
BLACK
6
CONTINUOUS
10
4.0120301181102365
20
-4.1181100787401572
11
4.0112350000000001
21
-4.111053149606299
0
LINE
8
BLACK
6
CONTINUOUS
10
4.0112350000000001
20
-4.111053149606299
11
4.0112349606299214
21
-4.1110529527559052
0
LINE
8
BLACK
6
CONTINUOUS
10
4.0112349606299214
20
-4.1110529527559052
11
4.0110289370078736
21
-4.1104641338582679
0
LINE
8
BLACK
6
CONTINUOUS
10
4.0110289370078736
20
-4.1104641338582679
11
4.0088893307086613
21
-4.1043495275590551
0
LINE
8
BLACK
6
CONTINUOUS
10
4.0088893307086613
20
-4.1043495275590551
11
4.0051108661417318
21
-4.0983361417322834
0
LINE
8
BLACK
6
CONTINUOUS
10
4.0051108661417318
20
-4.0983361417322834
11
4.0000890551181101
21
-4.0933143307086617
0
LINE
8
BLACK
6
CONTINUOUS
10
4.0000890551181101
20
-4.0933143307086617
11
3.9966083464566928
21
-4.0911272440944879
0
LINE
8
BLACK
6
CONTINUOUS
10
3.9966083464566928
20
-4.0911272440944879
11
3.9940757086614171
21
-4.0895358661417323
0
LINE
8
BLACK
6
CONTINUOUS
10
3.9940757086614171
20
-4.0895358661417323
11
3.9898374015748033
21
-4.0880528346456693
0
LINE
8
BLACK
6
CONTINUOUS
10
3.9898374015748033
20
-4.0880528346456693
11
3.9876021259842518
21
-4.0864496062992126
0
LINE
8
BLACK
6
CONTINUOUS
10
3.9876021259842518
20
-4.0864496062992126
11
3.9865884645669292
21
-4.0838924015748033
0
LINE
8
BLACK
6
CONTINUOUS
10
3.9865884645669292
20
-4.0838924015748033
11
3.9871182283464566
21
-4.0811931496062988
0
LINE
8
BLACK
6
CONTINUOUS
10
3.9871182283464566
20
-4.0811931496062988
11
3.9890232283464564
21
-4.0792087795275593
0
LINE
8
BLACK
6
CONTINUOUS
10
3.9890232283464564
20
-4.0792087795275593
11
3.9914498031496062
21
-4.0785629921259838
0
LINE
8
BLACK
6
CONTINUOUS
10
3.9914498031496062
20
-4.0785629921259838
11
4.0224055511811025
21
-4.0785629921259838
0
LINE
8
BLACK
6
CONTINUOUS
10
4.0224055511811025
20
-4.0785629921259838
11
4.0250448818897633
21
-4.0793379921259838
0
LINE
8
BLACK
6
CONTINUOUS
10
4.0250448818897633
20
-4.0793379921259838
11
4.0268462598425199
21
-4.081416889763779
0
LINE
8
BLACK
6
CONTINUOUS
10
4.0268462598425199
20
-4.081416889763779
11
4.0272567322834645
21
-4.0828983070866141
0
LINE
8
BLACK
6
CONTINUOUS
10
4.0272567322834645
20
-4.0828983070866141
11
4.0279381889763775
21
-4.0889468110236216
0
LINE
8
BLACK
6
CONTINUOUS
10
4.0279381889763775
20
-4.0889468110236216
11
4.0279382283464562
21
-4.0889470078740153
0
LINE
8
BLACK
6
CONTINUOUS
10
4.0279382283464562
20
-4.0889470078740153
11
4.030283897637795
21
-4.0956505118110238
0
LINE
8
BLACK
6
CONTINUOUS
10
4.030283897637795
20
-4.0956505118110238
11
4.0321447637795274
21
-4.0986120472440941
0
LINE
8
BLACK
6
CONTINUOUS
10
4.0321447637795274
20
-4.0986120472440941
11
4.0340623622047245
21
-4.1016638582677167
0
LINE
8
BLACK
6
CONTINUOUS
10
4.0340623622047245
20
-4.1016638582677167
11
4.0390841732283462
21
-4.1066856692913385
0
LINE
8
BLACK
6
CONTINUOUS
10
4.0390841732283462
20
-4.1066856692913385
11
4.0450975590551179
21
-4.1104641338582679
0
LINE
8
BLACK
6
CONTINUOUS
10
4.0450975590551179
20
-4.1104641338582679
11
4.051800984251968
21
-4.1128097637795271
0
LINE
8
BLACK
6
CONTINUOUS
10
4.051800984251968
20
-4.1128097637795271
11
4.0552231889763775
21
-4.1131953149606302
0
LINE
8
BLACK
6
CONTINUOUS
10
4.0552231889763775
20
-4.1131953149606302
11
4.05775905511811
21
-4.1142608661417324
0
LINE
8
BLACK
6
CONTINUOUS
10
4.05775905511811
20
-4.1142608661417324
11
4.0581285433070864
21
-4.1145944881889767
0
LINE
8
BLACK
6
CONTINUOUS
10
4.0581285433070864
20
-4.1145944881889767
11
4.0757928740157476
21
-4.1322588188976379
0
LINE
8
BLACK
6
CONTINUOUS
10
4.0757928740157476
20
-4.1322588188976379
11
4.0757932677165352
21
-4.1322592519685042
0
LINE
8
BLACK
6
CONTINUOUS
10
4.0757932677165352
20
-4.1322592519685042
11
4.07596374015748
21
-4.132429724409449
0
LINE
8
BLACK
6
CONTINUOUS
10
4.07596374015748
20
-4.132429724409449
11
4.0759637795275587
21
-4.1324297637795278
0
LINE
8
BLACK
6
CONTINUOUS
10
4.0759637795275587
20
-4.1324297637795278
11
4.0803655118110234
21
-4.1368314960629924
0
LINE
8
BLACK
6
CONTINUOUS
10
4.0803655118110234
20
-4.1368314960629924
11
4.0803655905511809
21
-4.1368315354330711
0
LINE
8
BLACK
6
CONTINUOUS
10
4.0803655905511809
20
-4.1368315354330711
11
4.0803657480314959
21
-4.1368316535433074
0
LINE
8
BLACK
6
CONTINUOUS
10
4.0803657480314959
20
-4.1368316535433074
11
4.0857562598425199
21
-4.1399438188976374
0
LINE
8
BLACK
6
CONTINUOUS
10
4.0857562598425199
20
-4.1399438188976374
11
4.0857565354330712
21
-4.1399439763779524
0
LINE
8
BLACK
6
CONTINUOUS
10
4.0857565354330712
20
-4.1399439763779524
11
4.0895682283464563
21
-4.1409653149606296
0
LINE
8
BLACK
6
CONTINUOUS
10
4.0895682283464563
20
-4.1409653149606296
11
4.0895681889763775
21
-4.1409653149606296
0
LINE
8
BLACK
6
CONTINUOUS
10
4.0895681889763775
20
-4.1409653149606296
11
4.0900333464566927
21
-4.1410899212598427
0
LINE
8
BLACK
6
CONTINUOUS
10
4.0900333464566927
20
-4.1410899212598427
11
4.0917693700787403
21
-4.1415551181102357
0
LINE
8
BLACK
6
CONTINUOUS
10
4.0917693700787403
20
-4.1415551181102357
11
4.0917694094488191
21
-4.1415551181102357
0
LINE
8
BLACK
6
CONTINUOUS
10
4.0917694094488191
20
-4.1415551181102357
11
4.1900917716535435
21
-4.1415551181102357
0
LINE
8
BLACK
6
CONTINUOUS
10
4.1900917716535435
20
-4.1415551181102357
11
4.1900924015748027
21
-4.1415551574803144
0
LINE
8
BLACK
6
CONTINUOUS
10
4.1900924015748027
20
-4.1415551574803144
11
4.1903914566929137
21
-4.1415551574803144
0
LINE
8
BLACK
6
CONTINUOUS
10
4.1903914566929137
20
-4.1415551574803144
11
4.1966162992125984
21
-4.1415551574803144
0
LINE
8
BLACK
6
CONTINUOUS
10
4.1966162992125984
20
-4.1415551574803144
11
4.1966164173228346
21
-4.1415551574803144
0
LINE
8
BLACK
6
CONTINUOUS
10
4.1966164173228346
20
-4.1415551574803144
11
4.2026293307086613
21
-4.1399439763779524
0
LINE
8
BLACK
6
CONTINUOUS
10
4.2026293307086613
20
-4.1399439763779524
11
4.2046025196850394
21
-4.1388046850393696
0
LINE
8
BLACK
6
CONTINUOUS
10
4.2046025196850394
20
-4.1388046850393696
11
4.2080203149606294
21
-4.1368314960629924
0
LINE
8
BLACK
6
CONTINUOUS
10
4.2080203149606294
20
-4.1368314960629924
11
4.2124220472440941
21
-4.1324297637795278
0
LINE
8
BLACK
6
CONTINUOUS
10
4.2124220472440941
20
-4.1324297637795278
11
4.2124220472440941
21
-4.1324296850393702
0
LINE
8
BLACK
6
CONTINUOUS
10
4.2124220472440941
20
-4.1324296850393702
11
4.2128239370078742
21
-4.1320278346456689
0
LINE
8
BLACK
6
CONTINUOUS
10
4.2128239370078742
20
-4.1320278346456689
11
4.2128240157480317
21
-4.1320277165354327
0
LINE
8
BLACK
6
CONTINUOUS
10
4.2128240157480317
20
-4.1320277165354327
11
4.2375431889763782
21
-4.1073085433070862
0
LINE
8
BLACK
6
CONTINUOUS
10
4.2375431889763782
20
-4.1073085433070862
11
4.2375433858267719
21
-4.1073083858267712
0
LINE
8
BLACK
6
CONTINUOUS
10
4.2375433858267719
20
-4.1073083858267712
11
4.2379450787401574
21
-4.106906653543307
0
LINE
8
BLACK
6
CONTINUOUS
10
4.2379450787401574
20
-4.106906653543307
11
4.2379451574803149
21
-4.106906653543307
0
LINE
8
BLACK
6
CONTINUOUS
10
4.2379451574803149
20
-4.106906653543307
11
4.2423468897637795
21
-4.1025049212598423
0
LINE
8
BLACK
6
CONTINUOUS
10
4.2423468897637795
20
-4.1025049212598423
11
4.2428324803149602
21
-4.1016638582677167
0
LINE
8
BLACK
6
CONTINUOUS
10
4.2428324803149602
20
-4.1016638582677167
11
4.2445940551181103
21
-4.0986127165354329
0
LINE
8
BLACK
6
CONTINUOUS
10
4.2445940551181103
20
-4.0986127165354329
11
4.2445941732283465
21
-4.0986123622047241
0
LINE
8
BLACK
6
CONTINUOUS
10
4.2445941732283465
20
-4.0986123622047241
11
4.2445944094488191
21
-4.0986120472440941
0
LINE
8
BLACK
6
CONTINUOUS
10
4.2445944094488191
20
-4.0986120472440941
11
4.2454593700787404
21
-4.0971139370078742
0
LINE
8
BLACK
6
CONTINUOUS
10
4.2454593700787404
20
-4.0971139370078742
11
4.2470705511811024
21
-4.0911010236220475
0
LINE
8
BLACK
6
CONTINUOUS
10
4.2470705511811024
20
-4.0911010236220475
11
4.2470705511811024
21
-4.0848760629921257
0
LINE
8
BLACK
6
CONTINUOUS
10
4.2470705511811024
20
-4.0848760629921257
11
4.2470705511811024
21
-4.0845770472440943
0
LINE
8
BLACK
6
CONTINUOUS
10
4.2470705511811024
20
-4.0845770472440943
11
4.2470705118110237
21
-4.0845763385826768
0
LINE
8
BLACK
6
CONTINUOUS
10
4.2470705118110237
20
-4.0845763385826768
11
4.2470705118110237
21
-3.9722106692913384
0
LINE
8
BLACK
6
CONTINUOUS
10
4.2470705118110237
20
-3.9722106692913384
11
4.2470705511811024
21
-3.972210157480315
0
LINE
8
BLACK
6
CONTINUOUS
10
4.2470705511811024
20
-3.972210157480315
11
4.2470705511811024
21
-3.9655919291338582
0
LINE
8
BLACK
6
CONTINUOUS
10
4.2470705511811024
20
-3.9655919291338582
11
4.246801181102362
21
-3.9645866141732284
0
LINE
8
BLACK
6
CONTINUOUS
10
4.246801181102362
20
-3.9645866141732284
11
4.2454593700787404
21
-3.9595790157480315
0
LINE
8
BLACK
6
CONTINUOUS
10
4.2454593700787404
20
-3.9595790157480315
11
4.2444707874015748
21
-3.9578667322834646
0
LINE
8
BLACK
6
CONTINUOUS
10
4.2444707874015748
20
-3.9578667322834646
11
4.2423470472440945
21
-3.9541882283464567
0
LINE
8
BLACK
6
CONTINUOUS
10
4.2423470472440945
20
-3.9541882283464567
11
4.242346811023622
21
-3.9541879133858266
0
LINE
8
BLACK
6
CONTINUOUS
10
4.242346811023622
20
-3.9541879133858266
11
4.2325519291338578
21
-3.9443930314960629
0
LINE
8
BLACK
6
CONTINUOUS
10
4.2325519291338578
20
-3.9443930314960629
11
4.2312336220472444
21
-3.9419787401574804
0
LINE
8
BLACK
6
CONTINUOUS
10
4.2312336220472444
20
-3.9419787401574804
11
4.231122047244094
21
-3.940941023622047
0
LINE
8
BLACK
6
CONTINUOUS
10
4.231122047244094
20
-3.940941023622047
11
4.231122047244094
21
-3.9263553543307084
0
LINE
8
BLACK
6
CONTINUOUS
10
4.231122047244094
20
-3.9263553543307084
11
4.2311219291338578
21
-3.9263542913385825
0
LINE
8
BLACK
6
CONTINUOUS
10
4.2311219291338578
20
-3.9263542913385825
11
4.2311219291338578
21
-3.924136220472441
0
LINE
8
BLACK
6
CONTINUOUS
10
4.2311219291338578
20
-3.924136220472441
11
4.2303163385826767
21
-3.9185332283464565
0
LINE
8
BLACK
6
CONTINUOUS
10
4.2303163385826767
20
-3.9185332283464565
11
4.230316299212598
21
-3.9185330314960627
0
LINE
8
BLACK
6
CONTINUOUS
10
4.230316299212598
20
-3.9185330314960627
11
4.2297377165354328
21
-3.9165626377952756
0
LINE
8
BLACK
6
CONTINUOUS
10
4.2297377165354328
20
-3.9165626377952756
11
4.2287203937007876
21
-3.9130980708661416
0
LINE
8
BLACK
6
CONTINUOUS
10
4.2287203937007876
20
-3.9130980708661416
11
4.2287203149606301
21
-3.9130978740157478
0
LINE
8
BLACK
6
CONTINUOUS
10
4.2287203149606301
20
-3.9130978740157478
11
4.2263691338582676
21
-3.907949527559055
0
LINE
8
BLACK
6
CONTINUOUS
10
4.2263691338582676
20
-3.907949527559055
11
4.2263690157480314
21
-3.90794937007874
0
LINE
8
BLACK
6
CONTINUOUS
10
4.2263690157480314
20
-3.90794937007874
11
4.2263688976377951
21
-3.90794905511811
0
LINE
8
BLACK
6
CONTINUOUS
10
4.2263688976377951
20
-3.90794905511811
11
4.2233065354330703
21
-3.9031838582677163
0
LINE
8
BLACK
6
CONTINUOUS
10
4.2233065354330703
20
-3.9031838582677163
11
4.2233064960629925
21
-3.9031838188976375
0
LINE
8
BLACK
6
CONTINUOUS
10
4.2233064960629925
20
-3.9031838188976375
11
4.2233064566929137
21
-3.90318374015748
0
LINE
8
BLACK
6
CONTINUOUS
10
4.2233064566929137
20
-3.90318374015748
11
4.2233063385826775
21
-3.9031835826771655
0
LINE
8
BLACK
6
CONTINUOUS
10
4.2233063385826775
20
-3.9031835826771655
11
4.2196002755905511
21
-3.898906535433071
0
LINE
8
BLACK
6
CONTINUOUS
10
4.2196002755905511
20
-3.898906535433071
11
4.2195996062992123
21
-3.8989057874015747
0
LINE
8
BLACK
6
CONTINUOUS
10
4.2195996062992123
20
-3.8989057874015747
11
4.2195995669291335
21
-3.8989057480314959
0
LINE
8
BLACK
6
CONTINUOUS
10
4.2195995669291335
20
-3.8989057480314959
11
4.2153185433070863
21
-3.8951962598425194
0
LINE
8
BLACK
6
CONTINUOUS
10
4.2153185433070863
20
-3.8951962598425194
11
4.2139314173228346
21
-3.8943048031496064
0
LINE
8
BLACK
6
CONTINUOUS
10
4.2139314173228346
20
-3.8943048031496064
11
4.2105567716535433
21
-3.8921360236220472
0
LINE
8
BLACK
6
CONTINUOUS
10
4.2105567716535433
20
-3.8921360236220472
11
4.2105565354330707
21
-3.892135905511811
0
LINE
8
BLACK
6
CONTINUOUS
10
4.2105565354330707
20
-3.892135905511811
11
4.207187559055118
21
-3.8905973622047245
0
LINE
8
BLACK
6
CONTINUOUS
10
4.207187559055118
20
-3.8905973622047245
11
4.2054038976377948
21
-3.8897827952755906
0
LINE
8
BLACK
6
CONTINUOUS
10
4.2054038976377948
20
-3.8897827952755906
11
4.200670905511811
21
-3.8883930708661416
0
LINE
8
BLACK
6
CONTINUOUS
10
4.200670905511811
20
-3.8883930708661416
11
4.1999727559055113
21
-3.8881880708661418
0
LINE
8
BLACK
6
CONTINUOUS
10
4.1999727559055113
20
-3.8881880708661418
11
4.1999722834645672
21
-3.8881879527559056
0
LINE
8
BLACK
6
CONTINUOUS
10
4.1999722834645672
20
-3.8881879527559056
11
4.194365708661417
21
-3.8873818897637795
0
LINE
8
BLACK
6
CONTINUOUS
10
4.194365708661417
20
-3.8873818897637795
11
4.1718503937007876
21
-3.8873818897637795
0
LINE
8
BLACK
6
CONTINUOUS
10
4.1718503937007876
20
-3.8873818897637795
11
4.1718502755905513
21
-3.8873818897637795
0
LINE
8
BLACK
6
CONTINUOUS
10
4.1718502755905513
20
-3.8873818897637795
11
4.1690181496062992
21
-3.8875844094488188
0
LINE
8
BLACK
6
CONTINUOUS
10
4.1690181496062992
20
-3.8875844094488188
11
4.1690179527559055
21
-3.8875844488188975
0
LINE
8
BLACK
6
CONTINUOUS
10
4.1690179527559055
20
-3.8875844488188975
11
4.167548622047244
21
-3.8880158661417323
0
LINE
8
BLACK
6
CONTINUOUS
10
4.167548622047244
20
-3.8880158661417323
11
4.1654786614173229
21
-3.8881638976377952
0
LINE
8
BLACK
6
CONTINUOUS
10
4.1654786614173229
20
-3.8881638976377952
11
4.1600394094488191
21
-3.8873818897637795
0
LINE
8
BLACK
6
CONTINUOUS
10
4.1600394094488191
20
-3.8873818897637795
11
4.1600393700787404
21
-3.8873818897637795
0
LINE
8
BLACK
6
CONTINUOUS
10
4.1600393700787404
20
-3.8873818897637795
11
4.1375240551181101
21
-3.8873818897637795
0
LINE
8
BLACK
6
CONTINUOUS
10
4.1375240551181101
20
-3.8873818897637795
11
4.1375240157480313
21
-3.8873818897637795
0
LINE
8
BLACK
6
CONTINUOUS
10
4.1375240157480313
20
-3.8873818897637795
11
4.131917440944882
21
-3.8881879527559056
0
LINE
8
BLACK
6
CONTINUOUS
10
4.131917440944882
20
-3.8881879527559056
11
4.131916968503937
21
-3.8881880708661418
0
LINE
8
BLACK
6
CONTINUOUS
10
4.131916968503937
20
-3.8881880708661418
11
4.126485748031496
21
-3.8897827952755906
0
LINE
8
BLACK
6
CONTINUOUS
10
4.126485748031496
20
-3.8897827952755906
11
4.1225370866141731
21
-3.8915861023622047
0
LINE
8
BLACK
6
CONTINUOUS
10
4.1225370866141731
20
-3.8915861023622047
11
4.1198143307086612
21
-3.891977559055118
0
LINE
8
BLACK
6
CONTINUOUS
10
4.1198143307086612
20
-3.891977559055118
11
4.1173121259842516
21
-3.8908348031496063
0
LINE
8
BLACK
6
CONTINUOUS
10
4.1173121259842516
20
-3.8908348031496063
11
4.1170571259842514
21
-3.8905973622047245
0
LINE
8
BLACK
6
CONTINUOUS
10
4.1170571259842514
20
-3.8905973622047245
11
4.114852834645669
21
-3.8883930708661416
0
LINE
8
BLACK
6
CONTINUOUS
10
4.114852834645669
20
-3.8883930708661416
11
4.108839488188976
21
-3.8846146062992126
0
LINE
8
BLACK
6
CONTINUOUS
10
4.108839488188976
20
-3.8846146062992126
11
4.1021359842519685
21
-3.8822689370078738
0
LINE
8
BLACK
6
CONTINUOUS
10
4.1021359842519685
20
-3.8822689370078738
11
4.1021357874015747
21
-3.882268897637795
0
LINE
8
BLACK
6
CONTINUOUS
10
4.1021357874015747
20
-3.882268897637795
11
4.0950788976377952
21
-3.8814738188976379
0
LINE
8
BLACK
6
CONTINUOUS
10
4.0950788976377952
20
-3.8814738188976379
11
4.0950785826771652
21
-3.8814738188976379
0
LINE
8
BLACK
6
CONTINUOUS
10
4.0950785826771652
20
-3.8814738188976379
11
4.0880216535433069
21
-3.882268897637795
0
LINE
8
BLACK
6
CONTINUOUS
10
4.0880216535433069
20
-3.882268897637795
11
4.0880214566929132
21
-3.8822689370078738
0
LINE
8
BLACK
6
CONTINUOUS
10
4.0880214566929132
20
-3.8822689370078738
11
4.0813179527559056
21
-3.8846146062992126
0
LINE
8
BLACK
6
CONTINUOUS
10
4.0813179527559056
20
-3.8846146062992126
11
4.0753046062992127
21
-3.8883930708661416
0
LINE
8
BLACK
6
CONTINUOUS
10
4.0753046062992127
20
-3.8883930708661416
11
4.0702828346456688
21
-3.8934148425196851
0
LINE
8
BLACK
6
CONTINUOUS
10
4.0702828346456688
20
-3.8934148425196851
11
4.0665043700787402
21
-3.899428188976378
0
LINE
8
BLACK
6
CONTINUOUS
10
4.0665043700787402
20
-3.899428188976378
11
4.0641587007874014
21
-3.9061316929133856
0
LINE
8
BLACK
6
CONTINUOUS
10
4.0641587007874014
20
-3.9061316929133856
11
4.0641586614173226
21
-3.9061318897637793
0
LINE
8
BLACK
6
CONTINUOUS
10
4.0641586614173226
20
-3.9061318897637793
11
4.063363582677165
21
-3.9131888188976376
0
LINE
8
BLACK
6
CONTINUOUS
10
4.063363582677165
20
-3.9131888188976376
11
4.063363582677165
21
-3.9131890944881889
0
LINE
8
BLACK
6
CONTINUOUS
10
4.063363582677165
20
-3.9131890944881889
11
4.0641586614173226
21
-3.9202460236220471
0
LINE
8
BLACK
6
CONTINUOUS
10
4.0641586614173226
20
-3.9202460236220471
11
4.0641587007874014
21
-3.9202462204724409
0
LINE
8
BLACK
6
CONTINUOUS
10
4.0641587007874014
20
-3.9202462204724409
11
4.0665043700787402
21
-3.9269497244094489
0
LINE
8
BLACK
6
CONTINUOUS
10
4.0665043700787402
20
-3.9269497244094489
11
4.0702828346456688
21
-3.9329630708661418
0
LINE
8
BLACK
6
CONTINUOUS
10
4.0702828346456688
20
-3.9329630708661418
11
4.0728505511811024
21
-3.9355307874015746
0
LINE
8
BLACK
6
CONTINUOUS
10
4.0728505511811024
20
-3.9355307874015746
11
4.0741688582677167
21
-3.9379450787401575
0
LINE
8
BLACK
6
CONTINUOUS
10
4.0741688582677167
20
-3.9379450787401575
11
4.0739726377952756
21
-3.9406888582677166
0
LINE
8
BLACK
6
CONTINUOUS
10
4.0739726377952756
20
-3.9406888582677166
11
4.0723241338582676
21
-3.9428909448818898
0
LINE
8
BLACK
6
CONTINUOUS
10
4.0723241338582676
20
-3.9428909448818898
11
4.0719959842519682
21
-3.9431163385826773
0
LINE
8
BLACK
6
CONTINUOUS
10
4.0719959842519682
20
-3.9431163385826773
11
4.0713676771653544
21
-3.9435111417322832
0
LINE
8
BLACK
6
CONTINUOUS
10
4.0713676771653544
20
-3.9435111417322832
11
4.0713675984251969
21
-3.943511181102362
0
LINE
8
BLACK
6
CONTINUOUS
10
4.0713675984251969
20
-3.943511181102362
11
4.066345826771653
21
-3.9485329527559054
0
LINE
8
BLACK
6
CONTINUOUS
10
4.066345826771653
20
-3.9485329527559054
11
4.0625673622047245
21
-3.9545462992125984
0
LINE
8
BLACK
6
CONTINUOUS
10
4.0625673622047245
20
-3.9545462992125984
11
4.0602216929133856
21
-3.9612498031496064
0
LINE
8
BLACK
6
CONTINUOUS
10
4.0602216929133856
20
-3.9612498031496064
11
4.0602216535433069
21
-3.9612499999999997
0
LINE
8
BLACK
6
CONTINUOUS
10
4.0602216535433069
20
-3.9612499999999997
11
4.0594265748031493
21
-3.968306929133858
0
LINE
8
BLACK
6
CONTINUOUS
10
4.0594265748031493
20
-3.968306929133858
11
4.0594265748031493
21
-3.9683072047244092
0
LINE
8
BLACK
6
CONTINUOUS
10
4.0594265748031493
20
-3.9683072047244092
11
4.0602216535433069
21
-3.9753641338582675
0
LINE
8
BLACK
6
CONTINUOUS
10
4.0602216535433069
20
-3.9753641338582675
11
4.0602216929133856
21
-3.9753643307086612
0
LINE
8
BLACK
6
CONTINUOUS
10
4.0602216929133856
20
-3.9753643307086612
11
4.0625673622047245
21
-3.9820678346456693
0
LINE
8
BLACK
6
CONTINUOUS
10
4.0625673622047245
20
-3.9820678346456693
11
4.0663457480314964
21
-3.9880810629921259
0
LINE
8
BLACK
6
CONTINUOUS
10
4.0663457480314964
20
-3.9880810629921259
11
4.0664346850393702
21
-3.9881925590551179
0
LINE
8
BLACK
6
CONTINUOUS
10
4.0664346850393702
20
-3.9881925590551179
11
4.0664696850393698
21
-3.9882782677165354
0
LINE
8
BLACK
6
CONTINUOUS
10
4.0664696850393698
20
-3.9882782677165354
11
4.0664916929133854
21
-3.9883133070866141
0
LINE
8
BLACK
6
CONTINUOUS
10
4.0664916929133854
20
-3.9883133070866141
11
4.0664855511811027
21
-3.9883171259842518
0
LINE
8
BLACK
6
CONTINUOUS
10
4.0664855511811027
20
-3.9883171259842518
11
4.0674745669291337
21
-3.9907392125984251
0
LINE
8
BLACK
6
CONTINUOUS
10
4.0674745669291337
20
-3.9907392125984251
11
4.0674999606299211
21
-3.9912366141732281
0
LINE
8
BLACK
6
CONTINUOUS
10
4.0674999606299211
20
-3.9912366141732281
11
4.0674999606299211
21
-3.99701
0
LINE
8
BLACK
6
CONTINUOUS
10
4.0674999606299211
20
-3.99701
11
4.0674999212598424
21
-3.99701
0
LINE
8
BLACK
6
CONTINUOUS
10
4.0674999212598424
20
-3.99701
11
4.0691111417322832
21
-4.0030230314960633
0
LINE
8
BLACK
6
CONTINUOUS
10
4.0691111417322832
20
-4.0030230314960633
11
4.0702503149606297
21
-4.0049960629921255
0
LINE
8
BLACK
6
CONTINUOUS
10
4.0702503149606297
20
-4.0049960629921255
11
4.0702503543307085
21
-4.0049962204724405
0
LINE
8
BLACK
6
CONTINUOUS
10
4.0702503543307085
20
-4.0049962204724405
11
4.0702503937007872
21
-4.0049962204724405
0
LINE
8
BLACK
6
CONTINUOUS
10
4.0702503937007872
20
-4.0049962204724405
11
4.0722235826771653
21
-4.008413937007874
0
LINE
8
BLACK
6
CONTINUOUS
10
4.0722235826771653
20
-4.008413937007874
11
4.0722236614173228
21
-4.0084140551181102
0
LINE
8
BLACK
6
CONTINUOUS
10
4.0722236614173228
20
-4.0084140551181102
11
4.0769035039370074
21
-4.0130938976377948
0
LINE
8
BLACK
6
CONTINUOUS
10
4.0769035039370074
20
-4.0130938976377948
11
4.0769037401574799
21
-4.0130940944881885
0
LINE
8
BLACK
6
CONTINUOUS
10
4.0769037401574799
20
-4.0130940944881885
11
4.0867552755905514
21
-4.02294562992126
0
LINE
8
BLACK
6
CONTINUOUS
10
4.0867552755905514
20
-4.02294562992126
11
4.0880735826771657
21
-4.0253599212598425
0
LINE
8
BLACK
6
CONTINUOUS
10
4.0880735826771657
20
-4.0253599212598425
11
4.0878773622047246
21
-4.0281037007874012
0
LINE
8
BLACK
6
CONTINUOUS
10
4.0878773622047246
20
-4.0281037007874012
11
4.0862288582677166
21
-4.0303057874015744
0
LINE
8
BLACK
6
CONTINUOUS
10
4.0862288582677166
20
-4.0303057874015744
11
4.0836515354330709
21
-4.0312670866141733
0
LINE
8
BLACK
6
CONTINUOUS
10
4.0836515354330709
20
-4.0312670866141733
11
4.0833032677165351
21
-4.0312795275590547
0
LINE
8
BLACK
6
CONTINUOUS
10
4.0833032677165351
20
-4.0312795275590547
11
3.9226748031496061
21
-4.0312795275590547
0
LINE
8
BLACK
6
CONTINUOUS
10
3.9226748031496061
20
-4.0312795275590547
11
3.9210637401574804
21
-4.031711181102362
0
LINE
8
BLACK
6
CONTINUOUS
10
3.9210637401574804
20
-4.031711181102362
11
3.9210637401574804
21
-4.0317112204724408
0
LINE
8
BLACK
6
CONTINUOUS
10
3.9210637401574804
20
-4.0317112204724408
11
3.9195964960629919
21
-4.0321043700787405
0
LINE
8
BLACK
6
CONTINUOUS
10
3.9195964960629919
20
-4.0321043700787405
11
3.916661968503937
21
-4.0328906692913389
0
LINE
8
BLACK
6
CONTINUOUS
10
3.916661968503937
20
-4.0328906692913389
11
3.9166617716535432
21
-4.0328907874015751
0
LINE
8
BLACK
6
CONTINUOUS
10
3.9166617716535432
20
-4.0328907874015751
11
3.9112710629921259
21
-4.0360030708661414
0
LINE
8
BLACK
6
CONTINUOUS
10
3.9112710629921259
20
-4.0360030708661414
11
3.909309527559055
21
-4.0379645669291335
0
LINE
8
BLACK
6
CONTINUOUS
10
3.909309527559055
20
-4.0379645669291335
11
3.9068951968503938
21
-4.0392828346456691
0
LINE
8
BLACK
6
CONTINUOUS
10
3.9068951968503938
20
-4.0392828346456691
11
3.9064041732283465
21
-4.0393636614173225
0
LINE
8
BLACK
6
CONTINUOUS
10
3.9064041732283465
20
-4.0393636614173225
11
3.9029822834645667
21
-4.0397492125984247
0
LINE
8
BLACK
6
CONTINUOUS
10
3.9029822834645667
20
-4.0397492125984247
11
3.8962786614173228
21
-4.0420948818897635
0
LINE
8
BLACK
6
CONTINUOUS
10
3.8962786614173228
20
-4.0420948818897635
11
3.8902652362204724
21
-4.0458733858267717
0
LINE
8
BLACK
6
CONTINUOUS
10
3.8902652362204724
20
-4.0458733858267717
11
3.8852434645669289
21
-4.0508951574803147
0
LINE
8
BLACK
6
CONTINUOUS
10
3.8852434645669289
20
-4.0508951574803147
11
3.8814649999999999
21
-4.0569085039370076
0
LINE
8
BLACK
6
CONTINUOUS
10
3.8814649999999999
20
-4.0569085039370076
11
3.8791193307086616
21
-4.0636120078740152
0
LINE
8
BLACK
6
CONTINUOUS
10
3.8791193307086616
20
-4.0636120078740152
11
3.8791192913385828
21
-4.063612204724409
0
LINE
8
BLACK
6
CONTINUOUS
10
3.8791192913385828
20
-4.063612204724409
11
3.8783242125984252
21
-4.0706691338582672
0
LINE
8
BLACK
6
CONTINUOUS
10
3.8783242125984252
20
-4.0706691338582672
11
3.8783242125984252
21
-4.0706694094488185
0
LINE
8
BLACK
6
CONTINUOUS
10
3.8783242125984252
20
-4.0706694094488185
11
3.8791192913385828
21
-4.0777263385826767
0
LINE
8
BLACK
6
CONTINUOUS
10
3.8791192913385828
20
-4.0777263385826767
11
3.8791193307086616
21
-4.0777265354330705
0
LINE
8
BLACK
6
CONTINUOUS
10
3.8791193307086616
20
-4.0777265354330705
11
3.8814649999999999
21
-4.0844300000000002
0
LINE
8
BLACK
6
CONTINUOUS
10
3.8814649999999999
20
-4.0844300000000002
11
3.8830731102362206
21
-4.0869892913385826
0
LINE
8
BLACK
6
CONTINUOUS
10
3.8830731102362206
20
-4.0869892913385826
11
3.8838211417322834
21
-4.0896363779527558
0
LINE
8
BLACK
6
CONTINUOUS
10
3.8838211417322834
20
-4.0896363779527558
11
3.8830192519685038
21
-4.0922677165354333
0
LINE
8
BLACK
6
CONTINUOUS
10
3.8830192519685038
20
-4.0922677165354333
11
3.8809221259842519
21
-4.09404779527559
0
LINE
8
BLACK
6
CONTINUOUS
10
3.8809221259842519
20
-4.09404779527559
11
3.8789394881889763
21
-4.0944685039370077
0
LINE
8
BLACK
6
CONTINUOUS
10
3.8789394881889763
20
-4.0944685039370077
11
3.8474603937007874
21
-4.0944685039370077
0
LINE
8
BLACK
6
CONTINUOUS
10
3.8474603937007874
20
-4.0944685039370077
11
3.8448631102362203
21
-4.0937202362204728
0
LINE
8
BLACK
6
CONTINUOUS
10
3.8448631102362203
20
-4.0937202362204728
11
3.8444694881889765
21
-4.0934729133858268
0
LINE
8
BLACK
6
CONTINUOUS
10
3.8444694881889765
20
-4.0934729133858268
11
3.837765905511811
21
-4.0911272047244092
0
LINE
8
BLACK
6
CONTINUOUS
10
3.837765905511811
20
-4.0911272047244092
11
3.8377657086614172
21
-4.0911271653543304
0
LINE
8
BLACK
6
CONTINUOUS
10
3.8377657086614172
20
-4.0911271653543304
11
3.8307088188976377
21
-4.0903320866141728
0
LINE
8
BLACK
6
CONTINUOUS
10
3.8307088188976377
20
-4.0903320866141728
11
3.8307085039370077
21
-4.0903320866141728
0
LINE
8
BLACK
6
CONTINUOUS
10
3.8307085039370077
20
-4.0903320866141728
11
3.8236515748031494
21
-4.0911271653543304
0
LINE
8
BLACK
6
CONTINUOUS
10
3.8236515748031494
20
-4.0911271653543304
11
3.8236513779527557
21
-4.0911272047244092
0
LINE
8
BLACK
6
CONTINUOUS
10
3.8236513779527557
20
-4.0911272047244092
11
3.8169478740157481
21
-4.093472874015748
0
LINE
8
BLACK
6
CONTINUOUS
10
3.8169478740157481
20
-4.093472874015748
11
3.8109345275590552
21
-4.0972513385826774
0
LINE
8
BLACK
6
CONTINUOUS
10
3.8109345275590552
20
-4.0972513385826774
11
3.8059127559055117
21
-4.1022731102362204
0
LINE
8
BLACK
6
CONTINUOUS
10
3.8059127559055117
20
-4.1022731102362204
11
3.8021342913385827
21
-4.1082864566929134
0
LINE
8
BLACK
6
CONTINUOUS
10
3.8021342913385827
20
-4.1082864566929134
11
3.7997886220472439
21
-4.114989960629921
0
LINE
8
BLACK
6
CONTINUOUS
10
3.7997886220472439
20
-4.114989960629921
11
3.7997885826771651
21
-4.1149901574803147
0
LINE
8
BLACK
6
CONTINUOUS
10
3.7997885826771651
20
-4.1149901574803147
11
3.798993503937008
21
-4.122047086614173
0
LINE
8
BLACK
6
CONTINUOUS
10
3.798993503937008
20
-4.122047086614173
11
3.798993503937008
21
-4.1220473622047242
0
LINE
8
BLACK
6
CONTINUOUS
10
3.9255668897637794
20
-3.8854135039370079
11
3.9233487795275588
21
-3.8854135039370079
0
LINE
8
BLACK
6
CONTINUOUS
10
3.9233487795275588
20
-3.8854135039370079
11
3.9180913779527557
21
-3.8861694094488186
0
LINE
8
BLACK
6
CONTINUOUS
10
3.9180913779527557
20
-3.8861694094488186
11
3.9180912992125982
21
-3.8861694094488186
0
LINE
8
BLACK
6
CONTINUOUS
10
3.9180912992125982
20
-3.8861694094488186
11
3.9177458267716534
21
-3.8862190551181102
0
LINE
8
BLACK
6
CONTINUOUS
10
3.9177458267716534
20
-3.8862190551181102
11
3.9123104724409448
21
-3.8878150787401573
0
LINE
8
BLACK
6
CONTINUOUS
10
3.9123104724409448
20
-3.8878150787401573
11
3.9071621259842519
21
-3.8901662598425197
0
LINE
8
BLACK
6
CONTINUOUS
10
3.9071621259842519
20
-3.8901662598425197
11
3.9071617322834644
21
-3.8901664566929135
0
LINE
8
BLACK
6
CONTINUOUS
10
3.9071617322834644
20
-3.8901664566929135
11
3.9071616535433069
21
-3.8901665354330706
0
LINE
8
BLACK
6
CONTINUOUS
10
3.9071616535433069
20
-3.8901665354330706
11
3.9064912598425194
21
-3.8905973622047245
0
LINE
8
BLACK
6
CONTINUOUS
10
3.9064912598425194
20
-3.8905973622047245
11
3.902396338582677
21
-3.8932289370078741
0
LINE
8
BLACK
6
CONTINUOUS
10
3.902396338582677
20
-3.8932289370078741
11
3.902396181102362
21
-3.8932290551181103
0
LINE
8
BLACK
6
CONTINUOUS
10
3.902396181102362
20
-3.8932290551181103
11
3.8981191338582675
21
-3.8969351181102363
0
LINE
8
BLACK
6
CONTINUOUS
10
3.8981191338582675
20
-3.8969351181102363
11
3.8981183858267716
21
-3.8969357874015746
0
LINE
8
BLACK
6
CONTINUOUS
10
3.8981183858267716
20
-3.8969357874015746
11
3.8981181889763779
21
-3.8969359842519684
0
LINE
8
BLACK
6
CONTINUOUS
10
3.8981181889763779
20
-3.8969359842519684
11
3.8952185826771655
21
-3.9002823622047242
0
LINE
8
BLACK
6
CONTINUOUS
10
3.8952185826771655
20
-3.9002823622047242
11
3.8929044881889765
21
-3.9017695275590549
0
LINE
8
BLACK
6
CONTINUOUS
10
3.8929044881889765
20
-3.9017695275590549
11
3.8909825196850392
21
-3.9019365748031496
0
LINE
8
BLACK
6
CONTINUOUS
10
3.8909825196850392
20
-3.9019365748031496
11
3.8858269291338581
21
-3.9013557086614172
0
LINE
8
BLACK
6
CONTINUOUS
10
3.8858269291338581
20
-3.9013557086614172
11
3.8858266141732281
21
-3.9013557086614172
0
LINE
8
BLACK
6
CONTINUOUS
10
3.8858266141732281
20
-3.9013557086614172
11
3.8787696850393698
21
-3.9021507874015748
0
LINE
8
BLACK
6
CONTINUOUS
10
3.8787696850393698
20
-3.9021507874015748
11
3.8787694881889765
21
-3.9021508267716536
0
LINE
8
BLACK
6
CONTINUOUS
10
3.8787694881889765
20
-3.9021508267716536
11
3.8720659842519685
21
-3.904496496062992
0
LINE
8
BLACK
6
CONTINUOUS
10
3.8720659842519685
20
-3.904496496062992
11
3.8660526377952755
21
-3.908274960629921
0
LINE
8
BLACK
6
CONTINUOUS
10
3.8660526377952755
20
-3.908274960629921
11
3.8610308661417321
21
-3.9132967322834644
0
LINE
8
BLACK
6
CONTINUOUS
10
3.8610308661417321
20
-3.9132967322834644
11
3.8572524015748031
21
-3.9193100787401574
0
LINE
8
BLACK
6
CONTINUOUS
10
3.8572524015748031
20
-3.9193100787401574
11
3.8549067322834647
21
-3.9260135826771654
0
LINE
8
BLACK
6
CONTINUOUS
10
3.8549067322834647
20
-3.9260135826771654
11
3.8549066929133859
21
-3.9260137795275591
0
LINE
8
BLACK
6
CONTINUOUS
10
3.8549066929133859
20
-3.9260137795275591
11
3.8541116141732283
21
-3.9330707086614174
0
LINE
8
BLACK
6
CONTINUOUS
10
3.8541116141732283
20
-3.9330707086614174
11
3.8541116141732283
21
-3.9330709842519682
0
LINE
8
BLACK
6
CONTINUOUS
10
3.8541116141732283
20
-3.9330709842519682
11
3.8549066929133859
21
-3.9401279133858265
0
LINE
8
BLACK
6
CONTINUOUS
10
3.8549066929133859
20
-3.9401279133858265
11
3.8549067322834647
21
-3.9401281102362202
0
LINE
8
BLACK
6
CONTINUOUS
10
3.8549067322834647
20
-3.9401281102362202
11
3.8572524015748031
21
-3.9468316141732283
0
LINE
8
BLACK
6
CONTINUOUS
10
3.8572524015748031
20
-3.9468316141732283
11
3.8594267716535433
21
-3.9502920866141733
0
LINE
8
BLACK
6
CONTINUOUS
10
3.8594267716535433
20
-3.9502920866141733
11
3.8610308661417321
21
-3.9528449606299212
0
LINE
8
BLACK
6
CONTINUOUS
10
3.8610308661417321
20
-3.9528449606299212
11
3.8660526771653543
21
-3.9578667716535434
0
LINE
8
BLACK
6
CONTINUOUS
10
3.8660526771653543
20
-3.9578667716535434
11
3.872066062992126
21
-3.9616452362204724
0
LINE
8
BLACK
6
CONTINUOUS
10
3.872066062992126
20
-3.9616452362204724
11
3.8781682283464565
21
-3.9637804724409449
0
LINE
8
BLACK
6
CONTINUOUS
10
3.8781682283464565
20
-3.9637804724409449
11
3.8787694881889765
21
-3.963990866141732
0
LINE
8
BLACK
6
CONTINUOUS
10
3.8787694881889765
20
-3.963990866141732
11
3.8787696850393698
21
-3.9639909055118108
0
LINE
8
BLACK
6
CONTINUOUS
10
3.8787696850393698
20
-3.9639909055118108
11
3.8858266141732281
21
-3.9647860236220471
0
LINE
8
BLACK
6
CONTINUOUS
10
3.8858266141732281
20
-3.9647860236220471
11
3.8858267716535431
21
-3.9647860236220471
0
LINE
8
BLACK
6
CONTINUOUS
10
3.8858267716535431
20
-3.9647860236220471
11
3.8858269291338581
21
-3.9647860236220471
0
LINE
8
BLACK
6
CONTINUOUS
10
3.8858269291338581
20
-3.9647860236220471
11
3.8928838188976376
21
-3.9639909055118108
0
LINE
8
BLACK
6
CONTINUOUS
10
3.8928838188976376
20
-3.9639909055118108
11
3.8928838582677163
21
-3.963990866141732
0
LINE
8
BLACK
6
CONTINUOUS
10
3.8928838582677163
20
-3.963990866141732
11
3.8928840551181101
21
-3.963990866141732
0
LINE
8
BLACK
6
CONTINUOUS
10
3.8928840551181101
20
-3.963990866141732
11
3.8958233858267715
21
-3.962962283464567
0
LINE
8
BLACK
6
CONTINUOUS
10
3.8958233858267715
20
-3.962962283464567
11
3.8985705118110237
21
-3.9628220472440945
0
LINE
8
BLACK
6
CONTINUOUS
10
3.8985705118110237
20
-3.9628220472440945
11
3.8994638188976376
21
-3.963129527559055
0
LINE
8
BLACK
6
CONTINUOUS
10
3.8994638188976376
20
-3.963129527559055
11
3.9008891338582674
21
-3.9637804724409449
0
LINE
8
BLACK
6
CONTINUOUS
10
3.9008891338582674
20
-3.9637804724409449
11
3.9064960629921259
21
-3.9645866141732284
0
LINE
8
BLACK
6
CONTINUOUS
10
3.9064960629921259
20
-3.9645866141732284
11
3.9064960629921259
21
-3.9564960629921258
0
LINE
8
BLACK
6
CONTINUOUS
10
3.9064960629921259
20
-3.9564960629921258
11
3.965551181102362
21
-3.9564960629921258
0
LINE
8
BLACK
6
CONTINUOUS
10
3.965551181102362
20
-3.9564960629921258
11
3.965551181102362
21
-3.9645866141732284
0
LINE
8
BLACK
6
CONTINUOUS
10
3.965551181102362
20
-3.9645866141732284
11
3.9683834645669291
21
-3.96438405511811
0
LINE
8
BLACK
6
CONTINUOUS
10
3.9683834645669291
20
-3.96438405511811
11
3.9738185826771653
21
-3.9627881496062991
0
LINE
8
BLACK
6
CONTINUOUS
10
3.9738185826771653
20
-3.9627881496062991
11
3.9785839370078739
21
-3.9597256299212598
0
LINE
8
BLACK
6
CONTINUOUS
10
3.9785839370078739
20
-3.9597256299212598
11
3.9822934645669292
21
-3.9554446456692913
0
LINE
8
BLACK
6
CONTINUOUS
10
3.9822934645669292
20
-3.9554446456692913
11
3.9846466141732284
21
-3.950291968503937
0
LINE
8
BLACK
6
CONTINUOUS
10
3.9846466141732284
20
-3.950291968503937
11
3.9854527559055115
21
-3.9446850393700785
0
LINE
8
BLACK
6
CONTINUOUS
10
3.9854527559055115
20
-3.9446850393700785
11
3.9854527559055115
21
-3.9221697244094487
0
LINE
8
BLACK
6
CONTINUOUS
10
3.9854527559055115
20
-3.9221697244094487
11
3.9846466141732284
21
-3.9165628346456693
0
LINE
8
BLACK
6
CONTINUOUS
10
3.9846466141732284
20
-3.9165628346456693
11
3.9830518503937009
21
-3.9111315354330709
0
LINE
8
BLACK
6
CONTINUOUS
10
3.9830518503937009
20
-3.9111315354330709
11
3.9806987007874013
21
-3.9059788582677166
0
LINE
8
BLACK
6
CONTINUOUS
10
3.9806987007874013
20
-3.9059788582677166
11
3.9782385433070866
21
-3.9021507874015748
0
LINE
8
BLACK
6
CONTINUOUS
10
3.9782385433070866
20
-3.9021507874015748
11
3.9777804330708659
21
-3.9014379133858266
0
LINE
8
BLACK
6
CONTINUOUS
10
3.9777804330708659
20
-3.9014379133858266
11
3.9777481102362202
21
-3.9013811417322835
0
LINE
8
BLACK
6
CONTINUOUS
10
3.9777481102362202
20
-3.9013811417322835
11
3.9776382283464566
21
-3.9012165748031493
0
LINE
8
BLACK
6
CONTINUOUS
10
3.9776382283464566
20
-3.9012165748031493
11
3.9739288188976376
21
-3.8969357874015746
0
LINE
8
BLACK
6
CONTINUOUS
10
3.9739288188976376
20
-3.8969357874015746
11
3.9739287007874013
21
-3.8969356692913384
0
LINE
8
BLACK
6
CONTINUOUS
10
3.9739287007874013
20
-3.8969356692913384
11
3.9696509842519685
21
-3.8932290551181103
0
LINE
8
BLACK
6
CONTINUOUS
10
3.9696509842519685
20
-3.8932290551181103
11
3.9696508661417322
21
-3.8932289370078741
0
LINE
8
BLACK
6
CONTINUOUS
10
3.9696508661417322
20
-3.8932289370078741
11
3.9685930708661417
21
-3.8925491732283461
0
LINE
8
BLACK
6
CONTINUOUS
10
3.9685930708661417
20
-3.8925491732283461
11
3.9648855905511811
21
-3.8901665354330706
0
LINE
8
BLACK
6
CONTINUOUS
10
3.9648855905511811
20
-3.8901665354330706
11
3.9648853149606298
21
-3.8901664173228347
0
LINE
8
BLACK
6
CONTINUOUS
10
3.9648853149606298
20
-3.8901664173228347
11
3.9648850787401573
21
-3.8901662598425197
0
LINE
8
BLACK
6
CONTINUOUS
10
3.9648850787401573
20
-3.8901662598425197
11
3.9599746456692912
21
-3.8879237401574804
0
LINE
8
BLACK
6
CONTINUOUS
10
3.9599746456692912
20
-3.8879237401574804
11
3.9598053937007873
21
-3.8878351968503937
0
LINE
8
BLACK
6
CONTINUOUS
10
3.9598053937007873
20
-3.8878351968503937
11
3.9543016141732283
21
-3.8862191338582677
0
LINE
8
BLACK
6
CONTINUOUS
10
3.9543016141732283
20
-3.8862191338582677
11
3.9543012204724408
21
-3.8862190157480314
0
LINE
8
BLACK
6
CONTINUOUS
10
3.9543012204724408
20
-3.8862190157480314
11
3.9492637795275591
21
-3.8854947637795276
0
LINE
8
BLACK
6
CONTINUOUS
10
3.9492637795275591
20
-3.8854947637795276
11
3.9486984645669292
21
-3.8854135039370079
0
LINE
8
BLACK
6
CONTINUOUS
10
3.9486984645669292
20
-3.8854135039370079
11
3.9486984251968504
21
-3.8854135039370079
0
LINE
8
BLACK
6
CONTINUOUS
10
3.9486984251968504
20
-3.8854135039370079
11
3.9464803543307085
21
-3.8854135039370079
0
LINE
8
BLACK
6
CONTINUOUS
10
3.9464803543307085
20
-3.8854135039370079
11
3.946479960629921
21
-3.8854133858267716
0
LINE
8
BLACK
6
CONTINUOUS
10
3.946479960629921
20
-3.8854133858267716
11
3.9444581102362202
21
-3.8854133858267716
0
LINE
8
BLACK
6
CONTINUOUS
10
3.9444581102362202
20
-3.8854133858267716
11
3.9275891338582678
21
-3.8854133858267716
0
LINE
8
BLACK
6
CONTINUOUS
10
3.9275891338582678
20
-3.8854133858267716
11
3.9255679921259841
21
-3.8854133858267716
0
LINE
8
BLACK
6
CONTINUOUS
10
3.9255679921259841
20
-3.8854133858267716
11
3.9255668897637794
21
-3.8854135039370079
0
LINE
8
BLACK
6
CONTINUOUS
10
4.1704724409448817
20
-4.2893700787401574
11
4.1035433070866141
21
-4.2893700787401574
0
LINE
8
BLACK
6
CONTINUOUS
10
4.1035433070866141
20
-4.2893700787401574
11
4.1035433070866141
21
-4.2224409448818898
0
LINE
8
BLACK
6
CONTINUOUS
10
4.1035433070866141
20
-4.2224409448818898
11
4.1704724409448817
21
-4.2224409448818898
0
LINE
8
BLACK
6
CONTINUOUS
10
4.1704724409448817
20
-4.2224409448818898
11
4.1704724409448817
21
-4.2893700787401574
0
LINE
8
BLACK
6
CONTINUOUS
10
3.8473489763779525
20
-4.2240788188976373
11
3.8537401574803147
21
-4.2269243307086617
0
LINE
8
BLACK
6
CONTINUOUS
10
3.8537401574803147
20
-4.2269243307086617
11
3.8594000393700787
21
-4.231036496062992
0
LINE
8
BLACK
6
CONTINUOUS
10
3.8594000393700787
20
-4.231036496062992
11
3.8640812598425196
21
-4.2362355511811023
0
LINE
8
BLACK
6
CONTINUOUS
10
3.8640812598425196
20
-4.2362355511811023
11
3.8675792913385827
21
-4.2422942519685041
0
LINE
8
BLACK
6
CONTINUOUS
10
3.8675792913385827
20
-4.2422942519685041
11
3.8697411417322836
21
-4.2489478346456693
0
LINE
8
BLACK
6
CONTINUOUS
10
3.8697411417322836
20
-4.2489478346456693
11
3.8704724409448819
21
-4.2559055118110232
0
LINE
8
BLACK
6
CONTINUOUS
10
3.8704724409448819
20
-4.2559055118110232
11
3.8697411417322836
21
-4.2628631889763779
0
LINE
8
BLACK
6
CONTINUOUS
10
3.8697411417322836
20
-4.2628631889763779
11
3.8675792913385827
21
-4.2695167716535432
0
LINE
8
BLACK
6
CONTINUOUS
10
3.8675792913385827
20
-4.2695167716535432
11
3.8640812598425196
21
-4.2755754724409449
0
LINE
8
BLACK
6
CONTINUOUS
10
3.8640812598425196
20
-4.2755754724409449
11
3.8594000393700787
21
-4.2807745275590552
0
LINE
8
BLACK
6
CONTINUOUS
10
3.8594000393700787
20
-4.2807745275590552
11
3.8537401574803147
21
-4.2848866929133855
0
LINE
8
BLACK
6
CONTINUOUS
10
3.8537401574803147
20
-4.2848866929133855
11
3.8473489763779525
21
-4.2877322047244091
0
LINE
8
BLACK
6
CONTINUOUS
10
3.8473489763779525
20
-4.2877322047244091
11
3.8405058661417324
21
-4.2891867716535428
0
LINE
8
BLACK
6
CONTINUOUS
10
3.8405058661417324
20
-4.2891867716535428
11
3.8335098818897637
21
-4.2891867716535428
0
LINE
8
BLACK
6
CONTINUOUS
10
3.8335098818897637
20
-4.2891867716535428
11
3.8266667716535432
21
-4.2877322047244091
0
LINE
8
BLACK
6
CONTINUOUS
10
3.8266667716535432
20
-4.2877322047244091
11
3.8202755905511809
21
-4.2848866929133855
0
LINE
8
BLACK
6
CONTINUOUS
10
3.8202755905511809
20
-4.2848866929133855
11
3.8146157086614174
21
-4.2807745275590552
0
LINE
8
BLACK
6
CONTINUOUS
10
3.8146157086614174
20
-4.2807745275590552
11
3.8099344881889765
21
-4.2755754724409449
0
LINE
8
BLACK
6
CONTINUOUS
10
3.8099344881889765
20
-4.2755754724409449
11
3.8064364566929134
21
-4.2695167716535432
0
LINE
8
BLACK
6
CONTINUOUS
10
3.8064364566929134
20
-4.2695167716535432
11
3.8042746062992125
21
-4.2628631889763779
0
LINE
8
BLACK
6
CONTINUOUS
10
3.8042746062992125
20
-4.2628631889763779
11
3.8035433070866143
21
-4.2559055118110232
0
LINE
8
BLACK
6
CONTINUOUS
10
3.8035433070866143
20
-4.2559055118110232
11
3.8042746062992125
21
-4.2489478346456693
0
LINE
8
BLACK
6
CONTINUOUS
10
3.8042746062992125
20
-4.2489478346456693
11
3.8064364566929134
21
-4.2422942519685041
0
LINE
8
BLACK
6
CONTINUOUS
10
3.8064364566929134
20
-4.2422942519685041
11
3.8099344881889765
21
-4.2362355511811023
0
LINE
8
BLACK
6
CONTINUOUS
10
3.8099344881889765
20
-4.2362355511811023
11
3.8146157086614174
21
-4.231036496062992
0
LINE
8
BLACK
6
CONTINUOUS
10
3.8146157086614174
20
-4.231036496062992
11
3.8202755905511809
21
-4.2269243307086617
0
LINE
8
BLACK
6
CONTINUOUS
10
3.8202755905511809
20
-4.2269243307086617
11
3.8266667716535432
21
-4.2240788188976373
0
LINE
8
BLACK
6
CONTINUOUS
10
3.8266667716535432
20
-4.2240788188976373
11
3.8335098818897637
21
-4.2226242519685036
0
LINE
8
BLACK
6
CONTINUOUS
10
3.8335098818897637
20
-4.2226242519685036
11
3.8405058661417324
21
-4.2226242519685036
0
LINE
8
BLACK
6
CONTINUOUS
10
3.8405058661417324
20
-4.2226242519685036
11
3.8473489763779525
21
-4.2240788188976373
0
LINE
8
BLACK
6
CONTINUOUS
10
3.9473489763779526
20
-4.2240788188976373
11
3.9537401574803148
21
-4.2269243307086617
0
LINE
8
BLACK
6
CONTINUOUS
10
3.9537401574803148
20
-4.2269243307086617
11
3.9594000393700788
21
-4.231036496062992
0
LINE
8
BLACK
6
CONTINUOUS
10
3.9594000393700788
20
-4.231036496062992
11
3.9640812598425197
21
-4.2362355511811023
0
LINE
8
BLACK
6
CONTINUOUS
10
3.9640812598425197
20
-4.2362355511811023
11
3.9675792913385828
21
-4.2422942519685041
0
LINE
8
BLACK
6
CONTINUOUS
10
3.9675792913385828
20
-4.2422942519685041
11
3.9697411417322832
21
-4.2489478346456693
0
LINE
8
BLACK
6
CONTINUOUS
10
3.9697411417322832
20
-4.2489478346456693
11
3.9704724409448819
21
-4.2559055118110232
0
LINE
8
BLACK
6
CONTINUOUS
10
3.9704724409448819
20
-4.2559055118110232
11
3.9697411417322832
21
-4.2628631889763779
0
LINE
8
BLACK
6
CONTINUOUS
10
3.9697411417322832
20
-4.2628631889763779
11
3.9675792913385828
21
-4.2695167716535432
0
LINE
8
BLACK
6
CONTINUOUS
10
3.9675792913385828
20
-4.2695167716535432
11
3.9640812598425197
21
-4.2755754724409449
0
LINE
8
BLACK
6
CONTINUOUS
10
3.9640812598425197
20
-4.2755754724409449
11
3.9594000393700788
21
-4.2807745275590552
0
LINE
8
BLACK
6
CONTINUOUS
10
3.9594000393700788
20
-4.2807745275590552
11
3.9537401574803148
21
-4.2848866929133855
0
LINE
8
BLACK
6
CONTINUOUS
10
3.9537401574803148
20
-4.2848866929133855
11
3.9473489763779526
21
-4.2877322047244091
0
LINE
8
BLACK
6
CONTINUOUS
10
3.9473489763779526
20
-4.2877322047244091
11
3.940505866141732
21
-4.2891867716535428
0
LINE
8
BLACK
6
CONTINUOUS
10
3.940505866141732
20
-4.2891867716535428
11
3.9335098818897638
21
-4.2891867716535428
0
LINE
8
BLACK
6
CONTINUOUS
10
3.9335098818897638
20
-4.2891867716535428
11
3.9266667716535433
21
-4.2877322047244091
0
LINE
8
BLACK
6
CONTINUOUS
10
3.9266667716535433
20
-4.2877322047244091
11
3.920275590551181
21
-4.2848866929133855
0
LINE
8
BLACK
6
CONTINUOUS
10
3.920275590551181
20
-4.2848866929133855
11
3.9146157086614171
21
-4.2807745275590552
0
LINE
8
BLACK
6
CONTINUOUS
10
3.9146157086614171
20
-4.2807745275590552
11
3.9099344881889762
21
-4.2755754724409449
0
LINE
8
BLACK
6
CONTINUOUS
10
3.9099344881889762
20
-4.2755754724409449
11
3.9064364566929135
21
-4.2695167716535432
0
LINE
8
BLACK
6
CONTINUOUS
10
3.9064364566929135
20
-4.2695167716535432
11
3.9042746062992126
21
-4.2628631889763779
0
LINE
8
BLACK
6
CONTINUOUS
10
3.9042746062992126
20
-4.2628631889763779
11
3.9035433070866139
21
-4.2559055118110232
0
LINE
8
BLACK
6
CONTINUOUS
10
3.9035433070866139
20
-4.2559055118110232
11
3.9042746062992126
21
-4.2489478346456693
0
LINE
8
BLACK
6
CONTINUOUS
10
3.9042746062992126
20
-4.2489478346456693
11
3.9064364566929135
21
-4.2422942519685041
0
LINE
8
BLACK
6
CONTINUOUS
10
3.9064364566929135
20
-4.2422942519685041
11
3.9099344881889762
21
-4.2362355511811023
0
LINE
8
BLACK
6
CONTINUOUS
10
3.9099344881889762
20
-4.2362355511811023
11
3.9146157086614171
21
-4.231036496062992
0
LINE
8
BLACK
6
CONTINUOUS
10
3.9146157086614171
20
-4.231036496062992
11
3.920275590551181
21
-4.2269243307086617
0
LINE
8
BLACK
6
CONTINUOUS
10
3.920275590551181
20
-4.2269243307086617
11
3.9266667716535433
21
-4.2240788188976373
0
LINE
8
BLACK
6
CONTINUOUS
10
3.9266667716535433
20
-4.2240788188976373
11
3.9335098818897638
21
-4.2226242519685036
0
LINE
8
BLACK
6
CONTINUOUS
10
3.9335098818897638
20
-4.2226242519685036
11
3.940505866141732
21
-4.2226242519685036
0
LINE
8
BLACK
6
CONTINUOUS
10
3.940505866141732
20
-4.2226242519685036
11
3.9473489763779526
21
-4.2240788188976373
0
LINE
8
BLACK
6
CONTINUOUS
10
4.0473489763779531
20
-4.2240788188976373
11
4.0537401574803145
21
-4.2269243307086617
0
LINE
8
BLACK
6
CONTINUOUS
10
4.0537401574803145
20
-4.2269243307086617
11
4.0594000393700789
21
-4.231036496062992
0
LINE
8
BLACK
6
CONTINUOUS
10
4.0594000393700789
20
-4.231036496062992
11
4.0640812598425198
21
-4.2362355511811023
0
LINE
8
BLACK
6
CONTINUOUS
10
4.0640812598425198
20
-4.2362355511811023
11
4.0675792913385829
21
-4.2422942519685041
0
LINE
8
BLACK
6
CONTINUOUS
10
4.0675792913385829
20
-4.2422942519685041
11
4.0697411417322833
21
-4.2489478346456693
0
LINE
8
BLACK
6
CONTINUOUS
10
4.0697411417322833
20
-4.2489478346456693
11
4.070472440944882
21
-4.2559055118110232
0
LINE
8
BLACK
6
CONTINUOUS
10
4.070472440944882
20
-4.2559055118110232
11
4.0697411417322833
21
-4.2628631889763779
0
LINE
8
BLACK
6
CONTINUOUS
10
4.0697411417322833
20
-4.2628631889763779
11
4.0675792913385829
21
-4.2695167716535432
0
LINE
8
BLACK
6
CONTINUOUS
10
4.0675792913385829
20
-4.2695167716535432
11
4.0640812598425198
21
-4.2755754724409449
0
LINE
8
BLACK
6
CONTINUOUS
10
4.0640812598425198
20
-4.2755754724409449
11
4.0594000393700789
21
-4.2807745275590552
0
LINE
8
BLACK
6
CONTINUOUS
10
4.0594000393700789
20
-4.2807745275590552
11
4.0537401574803145
21
-4.2848866929133855
0
LINE
8
BLACK
6
CONTINUOUS
10
4.0537401574803145
20
-4.2848866929133855
11
4.0473489763779531
21
-4.2877322047244091
0
LINE
8
BLACK
6
CONTINUOUS
10
4.0473489763779531
20
-4.2877322047244091
11
4.0405058661417321
21
-4.2891867716535428
0
LINE
8
BLACK
6
CONTINUOUS
10
4.0405058661417321
20
-4.2891867716535428
11
4.0335098818897634
21
-4.2891867716535428
0
LINE
8
BLACK
6
CONTINUOUS
10
4.0335098818897634
20
-4.2891867716535428
11
4.0266667716535434
21
-4.2877322047244091
0
LINE
8
BLACK
6
CONTINUOUS
10
4.0266667716535434
20
-4.2877322047244091
11
4.0202755905511811
21
-4.2848866929133855
0
LINE
8
BLACK
6
CONTINUOUS
10
4.0202755905511811
20
-4.2848866929133855
11
4.0146157086614176
21
-4.2807745275590552
0
LINE
8
BLACK
6
CONTINUOUS
10
4.0146157086614176
20
-4.2807745275590552
11
4.0099344881889767
21
-4.2755754724409449
0
LINE
8
BLACK
6
CONTINUOUS
10
4.0099344881889767
20
-4.2755754724409449
11
4.0064364566929136
21
-4.2695167716535432
0
LINE
8
BLACK
6
CONTINUOUS
10
4.0064364566929136
20
-4.2695167716535432
11
4.0042746062992123
21
-4.2628631889763779
0
LINE
8
BLACK
6
CONTINUOUS
10
4.0042746062992123
20
-4.2628631889763779
11
4.0035433070866144
21
-4.2559055118110232
0
LINE
8
BLACK
6
CONTINUOUS
10
4.0035433070866144
20
-4.2559055118110232
11
4.0042746062992123
21
-4.2489478346456693
0
LINE
8
BLACK
6
CONTINUOUS
10
4.0042746062992123
20
-4.2489478346456693
11
4.0064364566929136
21
-4.2422942519685041
0
LINE
8
BLACK
6
CONTINUOUS
10
4.0064364566929136
20
-4.2422942519685041
11
4.0099344881889767
21
-4.2362355511811023
0
LINE
8
BLACK
6
CONTINUOUS
10
4.0099344881889767
20
-4.2362355511811023
11
4.0146157086614176
21
-4.231036496062992
0
LINE
8
BLACK
6
CONTINUOUS
10
4.0146157086614176
20
-4.231036496062992
11
4.0202755905511811
21
-4.2269243307086617
0
LINE
8
BLACK
6
CONTINUOUS
10
4.0202755905511811
20
-4.2269243307086617
11
4.0266667716535434
21
-4.2240788188976373
0
LINE
8
BLACK
6
CONTINUOUS
10
4.0266667716535434
20
-4.2240788188976373
11
4.0335098818897634
21
-4.2226242519685036
0
LINE
8
BLACK
6
CONTINUOUS
10
4.0335098818897634
20
-4.2226242519685036
11
4.0405058661417321
21
-4.2226242519685036
0
LINE
8
BLACK
6
CONTINUOUS
10
4.0405058661417321
20
-4.2226242519685036
11
4.0473489763779531
21
-4.2240788188976373
0
CIRCLE
8
BLACK
10
3.8307086614173227
20
-4.122047244094488
40
0.0059055118110236
0
CIRCLE
8
BLACK
10
3.9803149606299213
20
-4.1181102362204722
40
0.0059055118110236
0
CIRCLE
8
BLACK
10
3.7131889763779529
20
-3.936811023622047
40
0.0059055118110236
0
CIRCLE
8
BLACK
10
4.0911417322834644
20
-3.968307086614173
40
0.0059055118110236
0
CIRCLE
8
BLACK
10
4.0950787401574802
20
-3.9131889763779526
40
0.0059055118110236
0
CIRCLE
8
BLACK
10
3.8858267716535431
20
-3.9330708661417324
40
0.0059055118110236
0
CIRCLE
8
BLACK
10
3.9100393700787399
20
-4.0706692913385822
40
0.0059055118110236
0
CIRCLE
8
BLACK
10
4.058858267716535
20
-4.0818897637795271
40
0.0059055118110236
  0
ENDSEC
  0
EOF
