  0
SECTION
  2
HEADER
  9
$ANGBASE
  50
0.0
  9
$ANGDIR
  70
1
  9
$MEASUREMENT
  70
0
  0
ENDSEC
  0
SECTION
  2
TABLES
  0
TABLE
  2
LTYPE
  70
4
  0
LTYPE
  5
40F
  2
CONTINUOUS
  70
0
  3
Solid line
  72
65
  73
0
  40
0.0
  0
LTYPE
  5
410
  2
DASHDOT
 70
0
  3
Dash Dot ____ _ ____ _
 72
65
 73
4
 40
2.0
 49
1.25
 49
-0.25
 49
0.25
 49
-0.25
  0
LTYPE
  5
411
  2
DASHED
 70
0
  3
Dashed __ __ __ __ __
 72
65
 73
2
 40
0.75
 49
0.5
 49
-0.25
  0
LTYPE
  5
43B
  2
DOTTED
 70
0
  3
Dotted .  .  .  .
 72
65
 73
2
 40
0.2
 49
0.0
 49
-0.2
  0
ENDTAB
  0
TABLE
  2
STYLE
  70
4
  0
STYLE
  2
KICAD
  70
0
  40
0
  41
1
  42
1
  50
0
  71
0
  3
isocp.shx
  0
STYLE
  2
KICADB
  70
0
  40
0
  41
1
  42
1
  50
0
  71
0
  3
isocp.shx
  0
STYLE
  2
KICADI
  70
0
  40
0
  41
1
  42
1
  50
15
  71
0
  3
isocp.shx
  0
STYLE
  2
KICADBI
  70
0
  40
0
  41
1
  42
1
  50
15
  71
0
  3
isocp.shx
  0
ENDTAB
  0
TABLE
  2
LAYER
  70
1
  0
LAYER
  2
BLACK
  70
0
  62
7
  6
CONTINUOUS
  0
ENDTAB
  0
ENDSEC
  0
SECTION
  2
ENTITIES
0
LINE
8
BLACK
6
CONTINUOUS
10
3.8256510629921259
20
-4.0637883464566924
11
3.8282055511811022
21
-4.0654952362204719
0
LINE
8
BLACK
6
CONTINUOUS
10
3.8282055511811022
20
-4.0654952362204719
11
3.8299124409448817
21
-4.0680497244094491
0
LINE
8
BLACK
6
CONTINUOUS
10
3.8299124409448817
20
-4.0680497244094491
11
3.830511811023622
21
-4.0710629921259844
0
LINE
8
BLACK
6
CONTINUOUS
10
3.830511811023622
20
-4.0710629921259844
11
3.830511811023622
21
-4.0927165354330706
0
LINE
8
BLACK
6
CONTINUOUS
10
3.830511811023622
20
-4.0927165354330706
11
3.8299124409448817
21
-4.0957298031496059
0
LINE
8
BLACK
6
CONTINUOUS
10
3.8299124409448817
20
-4.0957298031496059
11
3.8282055511811022
21
-4.0982842913385822
0
LINE
8
BLACK
6
CONTINUOUS
10
3.8282055511811022
20
-4.0982842913385822
11
3.8256510629921259
21
-4.0999911811023617
0
LINE
8
BLACK
6
CONTINUOUS
10
3.8256510629921259
20
-4.0999911811023617
11
3.8226377952755906
21
-4.1005905511811021
0
LINE
8
BLACK
6
CONTINUOUS
10
3.8226377952755906
20
-4.1005905511811021
11
3.8068897637795276
21
-4.1005905511811021
0
LINE
8
BLACK
6
CONTINUOUS
10
3.8068897637795276
20
-4.1005905511811021
11
3.8038764960629918
21
-4.0999911811023617
0
LINE
8
BLACK
6
CONTINUOUS
10
3.8038764960629918
20
-4.0999911811023617
11
3.8013220078740155
21
-4.0982842913385822
0
LINE
8
BLACK
6
CONTINUOUS
10
3.8013220078740155
20
-4.0982842913385822
11
3.799615118110236
21
-4.0957298031496059
0
LINE
8
BLACK
6
CONTINUOUS
10
3.799615118110236
20
-4.0957298031496059
11
3.7990157480314961
21
-4.0927165354330706
0
LINE
8
BLACK
6
CONTINUOUS
10
3.7990157480314961
20
-4.0927165354330706
11
3.7990157480314961
21
-4.0710629921259844
0
LINE
8
BLACK
6
CONTINUOUS
10
3.7990157480314961
20
-4.0710629921259844
11
3.799615118110236
21
-4.0680497244094491
0
LINE
8
BLACK
6
CONTINUOUS
10
3.799615118110236
20
-4.0680497244094491
11
3.8013220078740155
21
-4.0654952362204719
0
LINE
8
BLACK
6
CONTINUOUS
10
3.8013220078740155
20
-4.0654952362204719
11
3.8038764960629918
21
-4.0637883464566924
0
LINE
8
BLACK
6
CONTINUOUS
10
3.8038764960629918
20
-4.0637883464566924
11
3.8068897637795276
21
-4.063188976377953
0
LINE
8
BLACK
6
CONTINUOUS
10
3.8068897637795276
20
-4.063188976377953
11
3.8226377952755906
21
-4.063188976377953
0
LINE
8
BLACK
6
CONTINUOUS
10
3.8226377952755906
20
-4.063188976377953
11
3.8256510629921259
21
-4.0637883464566924
0
LINE
8
BLACK
6
CONTINUOUS
10
3.8906116929133856
20
-4.0637883464566924
11
3.8931661811023619
21
-4.0654952362204719
0
LINE
8
BLACK
6
CONTINUOUS
10
3.8931661811023619
20
-4.0654952362204719
11
3.8948730708661414
21
-4.0680497244094491
0
LINE
8
BLACK
6
CONTINUOUS
10
3.8948730708661414
20
-4.0680497244094491
11
3.8954724409448818
21
-4.0710629921259844
0
LINE
8
BLACK
6
CONTINUOUS
10
3.8954724409448818
20
-4.0710629921259844
11
3.8954724409448818
21
-4.0927165354330706
0
LINE
8
BLACK
6
CONTINUOUS
10
3.8954724409448818
20
-4.0927165354330706
11
3.8948730708661414
21
-4.0957298031496059
0
LINE
8
BLACK
6
CONTINUOUS
10
3.8948730708661414
20
-4.0957298031496059
11
3.8931661811023619
21
-4.0982842913385822
0
LINE
8
BLACK
6
CONTINUOUS
10
3.8931661811023619
20
-4.0982842913385822
11
3.8906116929133856
21
-4.0999911811023617
0
LINE
8
BLACK
6
CONTINUOUS
10
3.8906116929133856
20
-4.0999911811023617
11
3.8875984251968503
21
-4.1005905511811021
0
LINE
8
BLACK
6
CONTINUOUS
10
3.8875984251968503
20
-4.1005905511811021
11
3.8718503937007873
21
-4.1005905511811021
0
LINE
8
BLACK
6
CONTINUOUS
10
3.8718503937007873
20
-4.1005905511811021
11
3.868837125984252
21
-4.0999911811023617
0
LINE
8
BLACK
6
CONTINUOUS
10
3.868837125984252
20
-4.0999911811023617
11
3.8662826377952757
21
-4.0982842913385822
0
LINE
8
BLACK
6
CONTINUOUS
10
3.8662826377952757
20
-4.0982842913385822
11
3.8645757480314962
21
-4.0957298031496059
0
LINE
8
BLACK
6
CONTINUOUS
10
3.8645757480314962
20
-4.0957298031496059
11
3.8639763779527558
21
-4.0927165354330706
0
LINE
8
BLACK
6
CONTINUOUS
10
3.8639763779527558
20
-4.0927165354330706
11
3.8639763779527558
21
-4.0710629921259844
0
LINE
8
BLACK
6
CONTINUOUS
10
3.8639763779527558
20
-4.0710629921259844
11
3.8645757480314962
21
-4.0680497244094491
0
LINE
8
BLACK
6
CONTINUOUS
10
3.8645757480314962
20
-4.0680497244094491
11
3.8662826377952757
21
-4.0654952362204719
0
LINE
8
BLACK
6
CONTINUOUS
10
3.8662826377952757
20
-4.0654952362204719
11
3.868837125984252
21
-4.0637883464566924
0
LINE
8
BLACK
6
CONTINUOUS
10
3.868837125984252
20
-4.0637883464566924
11
3.8718503937007873
21
-4.063188976377953
0
LINE
8
BLACK
6
CONTINUOUS
10
3.8718503937007873
20
-4.063188976377953
11
3.8875984251968503
21
-4.063188976377953
0
LINE
8
BLACK
6
CONTINUOUS
10
3.8875984251968503
20
-4.063188976377953
11
3.8906116929133856
21
-4.0637883464566924
0
LINE
8
BLACK
6
CONTINUOUS
10
4.0047849212598425
20
-4.0637883464566924
11
4.0073394094488188
21
-4.0654952362204719
0
LINE
8
BLACK
6
CONTINUOUS
10
4.0073394094488188
20
-4.0654952362204719
11
4.0090462992125984
21
-4.0680497244094491
0
LINE
8
BLACK
6
CONTINUOUS
10
4.0090462992125984
20
-4.0680497244094491
11
4.0096456692913387
21
-4.0710629921259844
0
LINE
8
BLACK
6
CONTINUOUS
10
4.0096456692913387
20
-4.0710629921259844
11
4.0096456692913387
21
-4.0927165354330706
0
LINE
8
BLACK
6
CONTINUOUS
10
4.0096456692913387
20
-4.0927165354330706
11
4.0090462992125984
21
-4.0957298031496059
0
LINE
8
BLACK
6
CONTINUOUS
10
4.0090462992125984
20
-4.0957298031496059
11
4.0073394094488188
21
-4.0982842913385822
0
LINE
8
BLACK
6
CONTINUOUS
10
4.0073394094488188
20
-4.0982842913385822
11
4.0047849212598425
21
-4.0999911811023617
0
LINE
8
BLACK
6
CONTINUOUS
10
4.0047849212598425
20
-4.0999911811023617
11
4.0017716535433072
21
-4.1005905511811021
0
LINE
8
BLACK
6
CONTINUOUS
10
4.0017716535433072
20
-4.1005905511811021
11
3.9860236220472438
21
-4.1005905511811021
0
LINE
8
BLACK
6
CONTINUOUS
10
3.9860236220472438
20
-4.1005905511811021
11
3.9830103543307085
21
-4.0999911811023617
0
LINE
8
BLACK
6
CONTINUOUS
10
3.9830103543307085
20
-4.0999911811023617
11
3.9804558661417322
21
-4.0982842913385822
0
LINE
8
BLACK
6
CONTINUOUS
10
3.9804558661417322
20
-4.0982842913385822
11
3.9787489763779527
21
-4.0957298031496059
0
LINE
8
BLACK
6
CONTINUOUS
10
3.9787489763779527
20
-4.0957298031496059
11
3.9781496062992123
21
-4.0927165354330706
0
LINE
8
BLACK
6
CONTINUOUS
10
3.9781496062992123
20
-4.0927165354330706
11
3.9781496062992123
21
-4.0710629921259844
0
LINE
8
BLACK
6
CONTINUOUS
10
3.9781496062992123
20
-4.0710629921259844
11
3.9787489763779527
21
-4.0680497244094491
0
LINE
8
BLACK
6
CONTINUOUS
10
3.9787489763779527
20
-4.0680497244094491
11
3.9804558661417322
21
-4.0654952362204719
0
LINE
8
BLACK
6
CONTINUOUS
10
3.9804558661417322
20
-4.0654952362204719
11
3.9830103543307085
21
-4.0637883464566924
0
LINE
8
BLACK
6
CONTINUOUS
10
3.9830103543307085
20
-4.0637883464566924
11
3.9860236220472438
21
-4.063188976377953
0
LINE
8
BLACK
6
CONTINUOUS
10
3.9860236220472438
20
-4.063188976377953
11
4.0017716535433072
21
-4.063188976377953
0
LINE
8
BLACK
6
CONTINUOUS
10
4.0017716535433072
20
-4.063188976377953
11
4.0047849212598425
21
-4.0637883464566924
0
LINE
8
BLACK
6
CONTINUOUS
10
4.0697455511811027
20
-4.0637883464566924
11
4.072300039370079
21
-4.0654952362204719
0
LINE
8
BLACK
6
CONTINUOUS
10
4.072300039370079
20
-4.0654952362204719
11
4.0740069291338585
21
-4.0680497244094491
0
LINE
8
BLACK
6
CONTINUOUS
10
4.0740069291338585
20
-4.0680497244094491
11
4.074606299212598
21
-4.0710629921259844
0
LINE
8
BLACK
6
CONTINUOUS
10
4.074606299212598
20
-4.0710629921259844
11
4.074606299212598
21
-4.0927165354330706
0
LINE
8
BLACK
6
CONTINUOUS
10
4.074606299212598
20
-4.0927165354330706
11
4.0740069291338585
21
-4.0957298031496059
0
LINE
8
BLACK
6
CONTINUOUS
10
4.0740069291338585
20
-4.0957298031496059
11
4.072300039370079
21
-4.0982842913385822
0
LINE
8
BLACK
6
CONTINUOUS
10
4.072300039370079
20
-4.0982842913385822
11
4.0697455511811027
21
-4.0999911811023617
0
LINE
8
BLACK
6
CONTINUOUS
10
4.0697455511811027
20
-4.0999911811023617
11
4.0667322834645665
21
-4.1005905511811021
0
LINE
8
BLACK
6
CONTINUOUS
10
4.0667322834645665
20
-4.1005905511811021
11
4.0509842519685035
21
-4.1005905511811021
0
LINE
8
BLACK
6
CONTINUOUS
10
4.0509842519685035
20
-4.1005905511811021
11
4.0479709842519682
21
-4.0999911811023617
0
LINE
8
BLACK
6
CONTINUOUS
10
4.0479709842519682
20
-4.0999911811023617
11
4.0454164960629919
21
-4.0982842913385822
0
LINE
8
BLACK
6
CONTINUOUS
10
4.0454164960629919
20
-4.0982842913385822
11
4.0437096062992124
21
-4.0957298031496059
0
LINE
8
BLACK
6
CONTINUOUS
10
4.0437096062992124
20
-4.0957298031496059
11
4.0431102362204721
21
-4.0927165354330706
0
LINE
8
BLACK
6
CONTINUOUS
10
4.0431102362204721
20
-4.0927165354330706
11
4.0431102362204721
21
-4.0710629921259844
0
LINE
8
BLACK
6
CONTINUOUS
10
4.0431102362204721
20
-4.0710629921259844
11
4.0437096062992124
21
-4.0680497244094491
0
LINE
8
BLACK
6
CONTINUOUS
10
4.0437096062992124
20
-4.0680497244094491
11
4.0454164960629919
21
-4.0654952362204719
0
LINE
8
BLACK
6
CONTINUOUS
10
4.0454164960629919
20
-4.0654952362204719
11
4.0479709842519682
21
-4.0637883464566924
0
LINE
8
BLACK
6
CONTINUOUS
10
4.0479709842519682
20
-4.0637883464566924
11
4.0509842519685035
21
-4.063188976377953
0
LINE
8
BLACK
6
CONTINUOUS
10
4.0509842519685035
20
-4.063188976377953
11
4.0667322834645665
21
-4.063188976377953
0
LINE
8
BLACK
6
CONTINUOUS
10
4.0667322834645665
20
-4.063188976377953
11
4.0697455511811027
21
-4.0637883464566924
0
LINE
8
BLACK
6
CONTINUOUS
10
3.7616405905511812
20
-4.0438594488188979
11
3.7648337401574801
21
-4.0459930314960628
0
LINE
8
BLACK
6
CONTINUOUS
10
3.7648337401574801
20
-4.0459930314960628
11
3.7669673228346454
21
-4.0491861811023622
0
LINE
8
BLACK
6
CONTINUOUS
10
3.7669673228346454
20
-4.0491861811023622
11
3.7677165354330708
21
-4.0529527559055119
0
LINE
8
BLACK
6
CONTINUOUS
10
3.7677165354330708
20
-4.0529527559055119
11
3.7677165354330708
21
-4.0726377952755906
0
LINE
8
BLACK
6
CONTINUOUS
10
3.7677165354330708
20
-4.0726377952755906
11
3.7669673228346454
21
-4.0764043700787402
0
LINE
8
BLACK
6
CONTINUOUS
10
3.7669673228346454
20
-4.0764043700787402
11
3.7648337401574801
21
-4.0795975196850396
0
LINE
8
BLACK
6
CONTINUOUS
10
3.7648337401574801
20
-4.0795975196850396
11
3.7616405905511812
21
-4.0817311023622045
0
LINE
8
BLACK
6
CONTINUOUS
10
3.7616405905511812
20
-4.0817311023622045
11
3.7578740157480315
21
-4.0824803149606295
0
LINE
8
BLACK
6
CONTINUOUS
10
3.7578740157480315
20
-4.0824803149606295
11
3.7204724409448819
21
-4.0824803149606295
0
LINE
8
BLACK
6
CONTINUOUS
10
3.7204724409448819
20
-4.0824803149606295
11
3.7167058661417323
21
-4.0817311023622045
0
LINE
8
BLACK
6
CONTINUOUS
10
3.7167058661417323
20
-4.0817311023622045
11
3.7135127165354329
21
-4.0795975196850396
0
LINE
8
BLACK
6
CONTINUOUS
10
3.7135127165354329
20
-4.0795975196850396
11
3.7113791338582676
21
-4.0764043700787402
0
LINE
8
BLACK
6
CONTINUOUS
10
3.7113791338582676
20
-4.0764043700787402
11
3.7106299212598426
21
-4.0726377952755906
0
LINE
8
BLACK
6
CONTINUOUS
10
3.7106299212598426
20
-4.0726377952755906
11
3.7106299212598426
21
-4.0529527559055119
0
LINE
8
BLACK
6
CONTINUOUS
10
3.7106299212598426
20
-4.0529527559055119
11
3.7113791338582676
21
-4.0491861811023622
0
LINE
8
BLACK
6
CONTINUOUS
10
3.7113791338582676
20
-4.0491861811023622
11
3.7135127165354329
21
-4.0459930314960628
0
LINE
8
BLACK
6
CONTINUOUS
10
3.7135127165354329
20
-4.0459930314960628
11
3.7167058661417323
21
-4.0438594488188979
0
LINE
8
BLACK
6
CONTINUOUS
10
3.7167058661417323
20
-4.0438594488188979
11
3.7204724409448819
21
-4.0431102362204721
0
LINE
8
BLACK
6
CONTINUOUS
10
3.7204724409448819
20
-4.0431102362204721
11
3.7578740157480315
21
-4.0431102362204721
0
LINE
8
BLACK
6
CONTINUOUS
10
3.7578740157480315
20
-4.0431102362204721
11
3.7616405905511812
21
-4.0438594488188979
0
LINE
8
BLACK
6
CONTINUOUS
10
3.8664331889763779
20
-4.0006463779527559
11
3.8683490551181103
21
-4.0019265354330704
0
LINE
8
BLACK
6
CONTINUOUS
10
3.8683490551181103
20
-4.0019265354330704
11
3.8696292125984253
21
-4.0038424015748033
0
LINE
8
BLACK
6
CONTINUOUS
10
3.8696292125984253
20
-4.0038424015748033
11
3.8700787401574801
21
-4.0061023622047243
0
LINE
8
BLACK
6
CONTINUOUS
10
3.8700787401574801
20
-4.0061023622047243
11
3.8700787401574801
21
-4.0179133858267715
0
LINE
8
BLACK
6
CONTINUOUS
10
3.8700787401574801
20
-4.0179133858267715
11
3.8696292125984253
21
-4.0201733464566924
0
LINE
8
BLACK
6
CONTINUOUS
10
3.8696292125984253
20
-4.0201733464566924
11
3.8683490551181103
21
-4.0220892125984253
0
LINE
8
BLACK
6
CONTINUOUS
10
3.8683490551181103
20
-4.0220892125984253
11
3.8664331889763779
21
-4.0233693700787398
0
LINE
8
BLACK
6
CONTINUOUS
10
3.8664331889763779
20
-4.0233693700787398
11
3.8641732283464565
21
-4.0238188976377955
0
LINE
8
BLACK
6
CONTINUOUS
10
3.8641732283464565
20
-4.0238188976377955
11
3.8070866141732282
21
-4.0238188976377955
0
LINE
8
BLACK
6
CONTINUOUS
10
3.8070866141732282
20
-4.0238188976377955
11
3.8048266535433068
21
-4.0233693700787398
0
LINE
8
BLACK
6
CONTINUOUS
10
3.8048266535433068
20
-4.0233693700787398
11
3.8029107874015748
21
-4.0220892125984253
0
LINE
8
BLACK
6
CONTINUOUS
10
3.8029107874015748
20
-4.0220892125984253
11
3.8016306299212599
21
-4.0201733464566924
0
LINE
8
BLACK
6
CONTINUOUS
10
3.8016306299212599
20
-4.0201733464566924
11
3.8011811023622046
21
-4.0179133858267715
0
LINE
8
BLACK
6
CONTINUOUS
10
3.8011811023622046
20
-4.0179133858267715
11
3.8011811023622046
21
-4.0061023622047243
0
LINE
8
BLACK
6
CONTINUOUS
10
3.8011811023622046
20
-4.0061023622047243
11
3.8016306299212599
21
-4.0038424015748033
0
LINE
8
BLACK
6
CONTINUOUS
10
3.8016306299212599
20
-4.0038424015748033
11
3.8029107874015748
21
-4.0019265354330704
0
LINE
8
BLACK
6
CONTINUOUS
10
3.8029107874015748
20
-4.0019265354330704
11
3.8048266535433068
21
-4.0006463779527559
0
LINE
8
BLACK
6
CONTINUOUS
10
3.8048266535433068
20
-4.0006463779527559
11
3.8070866141732282
21
-4.0001968503937011
0
LINE
8
BLACK
6
CONTINUOUS
10
3.8070866141732282
20
-4.0001968503937011
11
3.8641732283464565
21
-4.0001968503937011
0
LINE
8
BLACK
6
CONTINUOUS
10
3.8641732283464565
20
-4.0001968503937011
11
3.8664331889763779
21
-4.0006463779527559
0
LINE
8
BLACK
6
CONTINUOUS
10
4.0691890944881886
20
-4.0006463779527559
11
4.0711049606299214
21
-4.0019265354330704
0
LINE
8
BLACK
6
CONTINUOUS
10
4.0711049606299214
20
-4.0019265354330704
11
4.072385118110236
21
-4.0038424015748033
0
LINE
8
BLACK
6
CONTINUOUS
10
4.072385118110236
20
-4.0038424015748033
11
4.0728346456692917
21
-4.0061023622047243
0
LINE
8
BLACK
6
CONTINUOUS
10
4.0728346456692917
20
-4.0061023622047243
11
4.0728346456692917
21
-4.0179133858267715
0
LINE
8
BLACK
6
CONTINUOUS
10
4.0728346456692917
20
-4.0179133858267715
11
4.072385118110236
21
-4.0201733464566924
0
LINE
8
BLACK
6
CONTINUOUS
10
4.072385118110236
20
-4.0201733464566924
11
4.0711049606299214
21
-4.0220892125984253
0
LINE
8
BLACK
6
CONTINUOUS
10
4.0711049606299214
20
-4.0220892125984253
11
4.0691890944881886
21
-4.0233693700787398
0
LINE
8
BLACK
6
CONTINUOUS
10
4.0691890944881886
20
-4.0233693700787398
11
4.0669291338582676
21
-4.0238188976377955
0
LINE
8
BLACK
6
CONTINUOUS
10
4.0669291338582676
20
-4.0238188976377955
11
4.0098425196850389
21
-4.0238188976377955
0
LINE
8
BLACK
6
CONTINUOUS
10
4.0098425196850389
20
-4.0238188976377955
11
4.007582559055118
21
-4.0233693700787398
0
LINE
8
BLACK
6
CONTINUOUS
10
4.007582559055118
20
-4.0233693700787398
11
4.005666692913386
21
-4.0220892125984253
0
LINE
8
BLACK
6
CONTINUOUS
10
4.005666692913386
20
-4.0220892125984253
11
4.0043865354330705
21
-4.0201733464566924
0
LINE
8
BLACK
6
CONTINUOUS
10
4.0043865354330705
20
-4.0201733464566924
11
4.0039370078740157
21
-4.0179133858267715
0
LINE
8
BLACK
6
CONTINUOUS
10
4.0039370078740157
20
-4.0179133858267715
11
4.0039370078740157
21
-4.0061023622047243
0
LINE
8
BLACK
6
CONTINUOUS
10
4.0039370078740157
20
-4.0061023622047243
11
4.0043865354330705
21
-4.0038424015748033
0
LINE
8
BLACK
6
CONTINUOUS
10
4.0043865354330705
20
-4.0038424015748033
11
4.005666692913386
21
-4.0019265354330704
0
LINE
8
BLACK
6
CONTINUOUS
10
4.005666692913386
20
-4.0019265354330704
11
4.007582559055118
21
-4.0006463779527559
0
LINE
8
BLACK
6
CONTINUOUS
10
4.007582559055118
20
-4.0006463779527559
11
4.0098425196850389
21
-4.0001968503937011
0
LINE
8
BLACK
6
CONTINUOUS
10
4.0098425196850389
20
-4.0001968503937011
11
4.0669291338582676
21
-4.0001968503937011
0
LINE
8
BLACK
6
CONTINUOUS
10
4.0669291338582676
20
-4.0001968503937011
11
4.0691890944881886
21
-4.0006463779527559
0
LINE
8
BLACK
6
CONTINUOUS
10
3.7616405905511812
20
-3.9690562992125984
11
3.7648337401574801
21
-3.9711898818897637
0
LINE
8
BLACK
6
CONTINUOUS
10
3.7648337401574801
20
-3.9711898818897637
11
3.7669673228346454
21
-3.9743830314960631
0
LINE
8
BLACK
6
CONTINUOUS
10
3.7669673228346454
20
-3.9743830314960631
11
3.7677165354330708
21
-3.9781496062992123
0
LINE
8
BLACK
6
CONTINUOUS
10
3.7677165354330708
20
-3.9781496062992123
11
3.7677165354330708
21
-3.997834645669291
0
LINE
8
BLACK
6
CONTINUOUS
10
3.7677165354330708
20
-3.997834645669291
11
3.7669673228346454
21
-4.0016012204724412
0
LINE
8
BLACK
6
CONTINUOUS
10
3.7669673228346454
20
-4.0016012204724412
11
3.7648337401574801
21
-4.0047943700787405
0
LINE
8
BLACK
6
CONTINUOUS
10
3.7648337401574801
20
-4.0047943700787405
11
3.7616405905511812
21
-4.0069279527559054
0
LINE
8
BLACK
6
CONTINUOUS
10
3.7616405905511812
20
-4.0069279527559054
11
3.7578740157480315
21
-4.0076771653543304
0
LINE
8
BLACK
6
CONTINUOUS
10
3.7578740157480315
20
-4.0076771653543304
11
3.7204724409448819
21
-4.0076771653543304
0
LINE
8
BLACK
6
CONTINUOUS
10
3.7204724409448819
20
-4.0076771653543304
11
3.7167058661417323
21
-4.0069279527559054
0
LINE
8
BLACK
6
CONTINUOUS
10
3.7167058661417323
20
-4.0069279527559054
11
3.7135127165354329
21
-4.0047943700787405
0
LINE
8
BLACK
6
CONTINUOUS
10
3.7135127165354329
20
-4.0047943700787405
11
3.7113791338582676
21
-4.0016012204724412
0
LINE
8
BLACK
6
CONTINUOUS
10
3.7113791338582676
20
-4.0016012204724412
11
3.7106299212598426
21
-3.997834645669291
0
LINE
8
BLACK
6
CONTINUOUS
10
3.7106299212598426
20
-3.997834645669291
11
3.7106299212598426
21
-3.9781496062992123
0
LINE
8
BLACK
6
CONTINUOUS
10
3.7106299212598426
20
-3.9781496062992123
11
3.7113791338582676
21
-3.9743830314960631
0
LINE
8
BLACK
6
CONTINUOUS
10
3.7113791338582676
20
-3.9743830314960631
11
3.7135127165354329
21
-3.9711898818897637
0
LINE
8
BLACK
6
CONTINUOUS
10
3.7135127165354329
20
-3.9711898818897637
11
3.7167058661417323
21
-3.9690562992125984
0
LINE
8
BLACK
6
CONTINUOUS
10
3.7167058661417323
20
-3.9690562992125984
11
3.7204724409448819
21
-3.968307086614173
0
LINE
8
BLACK
6
CONTINUOUS
10
3.7204724409448819
20
-3.968307086614173
11
3.7578740157480315
21
-3.968307086614173
0
LINE
8
BLACK
6
CONTINUOUS
10
3.7578740157480315
20
-3.968307086614173
11
3.7616405905511812
21
-3.9690562992125984
0
LINE
8
BLACK
6
CONTINUOUS
10
3.8664331889763779
20
-3.9506463779527556
11
3.8683490551181103
21
-3.9519265354330706
0
LINE
8
BLACK
6
CONTINUOUS
10
3.8683490551181103
20
-3.9519265354330706
11
3.8696292125984253
21
-3.953842401574803
0
LINE
8
BLACK
6
CONTINUOUS
10
3.8696292125984253
20
-3.953842401574803
11
3.8700787401574801
21
-3.9561023622047244
0
LINE
8
BLACK
6
CONTINUOUS
10
3.8700787401574801
20
-3.9561023622047244
11
3.8700787401574801
21
-3.9679133858267717
0
LINE
8
BLACK
6
CONTINUOUS
10
3.8700787401574801
20
-3.9679133858267717
11
3.8696292125984253
21
-3.9701733464566926
0
LINE
8
BLACK
6
CONTINUOUS
10
3.8696292125984253
20
-3.9701733464566926
11
3.8683490551181103
21
-3.9720892125984251
0
LINE
8
BLACK
6
CONTINUOUS
10
3.8683490551181103
20
-3.9720892125984251
11
3.8664331889763779
21
-3.97336937007874
0
LINE
8
BLACK
6
CONTINUOUS
10
3.8664331889763779
20
-3.97336937007874
11
3.8641732283464565
21
-3.9738188976377953
0
LINE
8
BLACK
6
CONTINUOUS
10
3.8641732283464565
20
-3.9738188976377953
11
3.8070866141732282
21
-3.9738188976377953
0
LINE
8
BLACK
6
CONTINUOUS
10
3.8070866141732282
20
-3.9738188976377953
11
3.8048266535433068
21
-3.97336937007874
0
LINE
8
BLACK
6
CONTINUOUS
10
3.8048266535433068
20
-3.97336937007874
11
3.8029107874015748
21
-3.9720892125984251
0
LINE
8
BLACK
6
CONTINUOUS
10
3.8029107874015748
20
-3.9720892125984251
11
3.8016306299212599
21
-3.9701733464566926
0
LINE
8
BLACK
6
CONTINUOUS
10
3.8016306299212599
20
-3.9701733464566926
11
3.8011811023622046
21
-3.9679133858267717
0
LINE
8
BLACK
6
CONTINUOUS
10
3.8011811023622046
20
-3.9679133858267717
11
3.8011811023622046
21
-3.9561023622047244
0
LINE
8
BLACK
6
CONTINUOUS
10
3.8011811023622046
20
-3.9561023622047244
11
3.8016306299212599
21
-3.953842401574803
0
LINE
8
BLACK
6
CONTINUOUS
10
3.8016306299212599
20
-3.953842401574803
11
3.8029107874015748
21
-3.9519265354330706
0
LINE
8
BLACK
6
CONTINUOUS
10
3.8029107874015748
20
-3.9519265354330706
11
3.8048266535433068
21
-3.9506463779527556
0
LINE
8
BLACK
6
CONTINUOUS
10
3.8048266535433068
20
-3.9506463779527556
11
3.8070866141732282
21
-3.9501968503937008
0
LINE
8
BLACK
6
CONTINUOUS
10
3.8070866141732282
20
-3.9501968503937008
11
3.8641732283464565
21
-3.9501968503937008
0
LINE
8
BLACK
6
CONTINUOUS
10
3.8641732283464565
20
-3.9501968503937008
11
3.8664331889763779
21
-3.9506463779527556
0
LINE
8
BLACK
6
CONTINUOUS
10
4.0691890944881886
20
-3.9506463779527556
11
4.0711049606299214
21
-3.9519265354330706
0
LINE
8
BLACK
6
CONTINUOUS
10
4.0711049606299214
20
-3.9519265354330706
11
4.072385118110236
21
-3.953842401574803
0
LINE
8
BLACK
6
CONTINUOUS
10
4.072385118110236
20
-3.953842401574803
11
4.0728346456692917
21
-3.9561023622047244
0
LINE
8
BLACK
6
CONTINUOUS
10
4.0728346456692917
20
-3.9561023622047244
11
4.0728346456692917
21
-3.9679133858267717
0
LINE
8
BLACK
6
CONTINUOUS
10
4.0728346456692917
20
-3.9679133858267717
11
4.072385118110236
21
-3.9701733464566926
0
LINE
8
BLACK
6
CONTINUOUS
10
4.072385118110236
20
-3.9701733464566926
11
4.0711049606299214
21
-3.9720892125984251
0
LINE
8
BLACK
6
CONTINUOUS
10
4.0711049606299214
20
-3.9720892125984251
11
4.0691890944881886
21
-3.97336937007874
0
LINE
8
BLACK
6
CONTINUOUS
10
4.0691890944881886
20
-3.97336937007874
11
4.0669291338582676
21
-3.9738188976377953
0
LINE
8
BLACK
6
CONTINUOUS
10
4.0669291338582676
20
-3.9738188976377953
11
4.0098425196850389
21
-3.9738188976377953
0
LINE
8
BLACK
6
CONTINUOUS
10
4.0098425196850389
20
-3.9738188976377953
11
4.007582559055118
21
-3.97336937007874
0
LINE
8
BLACK
6
CONTINUOUS
10
4.007582559055118
20
-3.97336937007874
11
4.005666692913386
21
-3.9720892125984251
0
LINE
8
BLACK
6
CONTINUOUS
10
4.005666692913386
20
-3.9720892125984251
11
4.0043865354330705
21
-3.9701733464566926
0
LINE
8
BLACK
6
CONTINUOUS
10
4.0043865354330705
20
-3.9701733464566926
11
4.0039370078740157
21
-3.9679133858267717
0
LINE
8
BLACK
6
CONTINUOUS
10
4.0039370078740157
20
-3.9679133858267717
11
4.0039370078740157
21
-3.9561023622047244
0
LINE
8
BLACK
6
CONTINUOUS
10
4.0039370078740157
20
-3.9561023622047244
11
4.0043865354330705
21
-3.953842401574803
0
LINE
8
BLACK
6
CONTINUOUS
10
4.0043865354330705
20
-3.953842401574803
11
4.005666692913386
21
-3.9519265354330706
0
LINE
8
BLACK
6
CONTINUOUS
10
4.005666692913386
20
-3.9519265354330706
11
4.007582559055118
21
-3.9506463779527556
0
LINE
8
BLACK
6
CONTINUOUS
10
4.007582559055118
20
-3.9506463779527556
11
4.0098425196850389
21
-3.9501968503937008
0
LINE
8
BLACK
6
CONTINUOUS
10
4.0098425196850389
20
-3.9501968503937008
11
4.0669291338582676
21
-3.9501968503937008
0
LINE
8
BLACK
6
CONTINUOUS
10
4.0669291338582676
20
-3.9501968503937008
11
4.0691890944881886
21
-3.9506463779527556
0
LINE
8
BLACK
6
CONTINUOUS
10
3.772090708661417
20
-3.9030364960629922
11
3.7749645275590549
21
-3.9049567322834644
0
LINE
8
BLACK
6
CONTINUOUS
10
3.7749645275590549
20
-3.9049567322834644
11
3.7768847637795275
21
-3.9078305511811022
0
LINE
8
BLACK
6
CONTINUOUS
10
3.7768847637795275
20
-3.9078305511811022
11
3.7775590551181102
21
-3.9112204724409447
0
LINE
8
BLACK
6
CONTINUOUS
10
3.7775590551181102
20
-3.9112204724409447
11
3.7775590551181102
21
-3.9289370078740156
0
LINE
8
BLACK
6
CONTINUOUS
10
3.7775590551181102
20
-3.9289370078740156
11
3.7768847637795275
21
-3.9323269291338581
0
LINE
8
BLACK
6
CONTINUOUS
10
3.7768847637795275
20
-3.9323269291338581
11
3.7749645275590549
21
-3.9352007480314959
0
LINE
8
BLACK
6
CONTINUOUS
10
3.7749645275590549
20
-3.9352007480314959
11
3.772090708661417
21
-3.9371209842519685
0
LINE
8
BLACK
6
CONTINUOUS
10
3.772090708661417
20
-3.9371209842519685
11
3.7687007874015745
21
-3.9377952755905512
0
LINE
8
BLACK
6
CONTINUOUS
10
3.7687007874015745
20
-3.9377952755905512
11
3.7490157480314958
21
-3.9377952755905512
0
LINE
8
BLACK
6
CONTINUOUS
10
3.7490157480314958
20
-3.9377952755905512
11
3.7456258267716533
21
-3.9371209842519685
0
LINE
8
BLACK
6
CONTINUOUS
10
3.7456258267716533
20
-3.9371209842519685
11
3.7427520078740155
21
-3.9352007480314959
0
LINE
8
BLACK
6
CONTINUOUS
10
3.7427520078740155
20
-3.9352007480314959
11
3.7408317716535433
21
-3.9323269291338581
0
LINE
8
BLACK
6
CONTINUOUS
10
3.7408317716535433
20
-3.9323269291338581
11
3.7401574803149606
21
-3.9289370078740156
0
LINE
8
BLACK
6
CONTINUOUS
10
3.7401574803149606
20
-3.9289370078740156
11
3.7401574803149606
21
-3.9112204724409447
0
LINE
8
BLACK
6
CONTINUOUS
10
3.7401574803149606
20
-3.9112204724409447
11
3.7408317716535433
21
-3.9078305511811022
0
LINE
8
BLACK
6
CONTINUOUS
10
3.7408317716535433
20
-3.9078305511811022
11
3.7427520078740155
21
-3.9049567322834644
0
LINE
8
BLACK
6
CONTINUOUS
10
3.7427520078740155
20
-3.9049567322834644
11
3.7456258267716533
21
-3.9030364960629922
0
LINE
8
BLACK
6
CONTINUOUS
10
3.7456258267716533
20
-3.9030364960629922
11
3.7490157480314958
21
-3.9023622047244095
0
LINE
8
BLACK
6
CONTINUOUS
10
3.7490157480314958
20
-3.9023622047244095
11
3.7687007874015745
21
-3.9023622047244095
0
LINE
8
BLACK
6
CONTINUOUS
10
3.7687007874015745
20
-3.9023622047244095
11
3.772090708661417
21
-3.9030364960629922
0
LINE
8
BLACK
6
CONTINUOUS
10
3.8664331889763779
20
-3.9006463779527558
11
3.8683490551181103
21
-3.9019265354330708
0
LINE
8
BLACK
6
CONTINUOUS
10
3.8683490551181103
20
-3.9019265354330708
11
3.8696292125984253
21
-3.9038424015748032
0
LINE
8
BLACK
6
CONTINUOUS
10
3.8696292125984253
20
-3.9038424015748032
11
3.8700787401574801
21
-3.9061023622047242
0
LINE
8
BLACK
6
CONTINUOUS
10
3.8700787401574801
20
-3.9061023622047242
11
3.8700787401574801
21
-3.9179133858267714
0
LINE
8
BLACK
6
CONTINUOUS
10
3.8700787401574801
20
-3.9179133858267714
11
3.8696292125984253
21
-3.9201733464566928
0
LINE
8
BLACK
6
CONTINUOUS
10
3.8696292125984253
20
-3.9201733464566928
11
3.8683490551181103
21
-3.9220892125984252
0
LINE
8
BLACK
6
CONTINUOUS
10
3.8683490551181103
20
-3.9220892125984252
11
3.8664331889763779
21
-3.9233693700787402
0
LINE
8
BLACK
6
CONTINUOUS
10
3.8664331889763779
20
-3.9233693700787402
11
3.8641732283464565
21
-3.923818897637795
0
LINE
8
BLACK
6
CONTINUOUS
10
3.8641732283464565
20
-3.923818897637795
11
3.8070866141732282
21
-3.923818897637795
0
LINE
8
BLACK
6
CONTINUOUS
10
3.8070866141732282
20
-3.923818897637795
11
3.8048266535433068
21
-3.9233693700787402
0
LINE
8
BLACK
6
CONTINUOUS
10
3.8048266535433068
20
-3.9233693700787402
11
3.8029107874015748
21
-3.9220892125984252
0
LINE
8
BLACK
6
CONTINUOUS
10
3.8029107874015748
20
-3.9220892125984252
11
3.8016306299212599
21
-3.9201733464566928
0
LINE
8
BLACK
6
CONTINUOUS
10
3.8016306299212599
20
-3.9201733464566928
11
3.8011811023622046
21
-3.9179133858267714
0
LINE
8
BLACK
6
CONTINUOUS
10
3.8011811023622046
20
-3.9179133858267714
11
3.8011811023622046
21
-3.9061023622047242
0
LINE
8
BLACK
6
CONTINUOUS
10
3.8011811023622046
20
-3.9061023622047242
11
3.8016306299212599
21
-3.9038424015748032
0
LINE
8
BLACK
6
CONTINUOUS
10
3.8016306299212599
20
-3.9038424015748032
11
3.8029107874015748
21
-3.9019265354330708
0
LINE
8
BLACK
6
CONTINUOUS
10
3.8029107874015748
20
-3.9019265354330708
11
3.8048266535433068
21
-3.9006463779527558
0
LINE
8
BLACK
6
CONTINUOUS
10
3.8048266535433068
20
-3.9006463779527558
11
3.8070866141732282
21
-3.9001968503937006
0
LINE
8
BLACK
6
CONTINUOUS
10
3.8070866141732282
20
-3.9001968503937006
11
3.8641732283464565
21
-3.9001968503937006
0
LINE
8
BLACK
6
CONTINUOUS
10
3.8641732283464565
20
-3.9001968503937006
11
3.8664331889763779
21
-3.9006463779527558
0
LINE
8
BLACK
6
CONTINUOUS
10
4.0691890944881886
20
-3.9006463779527558
11
4.0711049606299214
21
-3.9019265354330708
0
LINE
8
BLACK
6
CONTINUOUS
10
4.0711049606299214
20
-3.9019265354330708
11
4.072385118110236
21
-3.9038424015748032
0
LINE
8
BLACK
6
CONTINUOUS
10
4.072385118110236
20
-3.9038424015748032
11
4.0728346456692917
21
-3.9061023622047242
0
LINE
8
BLACK
6
CONTINUOUS
10
4.0728346456692917
20
-3.9061023622047242
11
4.0728346456692917
21
-3.9179133858267714
0
LINE
8
BLACK
6
CONTINUOUS
10
4.0728346456692917
20
-3.9179133858267714
11
4.072385118110236
21
-3.9201733464566928
0
LINE
8
BLACK
6
CONTINUOUS
10
4.072385118110236
20
-3.9201733464566928
11
4.0711049606299214
21
-3.9220892125984252
0
LINE
8
BLACK
6
CONTINUOUS
10
4.0711049606299214
20
-3.9220892125984252
11
4.0691890944881886
21
-3.9233693700787402
0
LINE
8
BLACK
6
CONTINUOUS
10
4.0691890944881886
20
-3.9233693700787402
11
4.0669291338582676
21
-3.923818897637795
0
LINE
8
BLACK
6
CONTINUOUS
10
4.0669291338582676
20
-3.923818897637795
11
4.0098425196850389
21
-3.923818897637795
0
LINE
8
BLACK
6
CONTINUOUS
10
4.0098425196850389
20
-3.923818897637795
11
4.007582559055118
21
-3.9233693700787402
0
LINE
8
BLACK
6
CONTINUOUS
10
4.007582559055118
20
-3.9233693700787402
11
4.005666692913386
21
-3.9220892125984252
0
LINE
8
BLACK
6
CONTINUOUS
10
4.005666692913386
20
-3.9220892125984252
11
4.0043865354330705
21
-3.9201733464566928
0
LINE
8
BLACK
6
CONTINUOUS
10
4.0043865354330705
20
-3.9201733464566928
11
4.0039370078740157
21
-3.9179133858267714
0
LINE
8
BLACK
6
CONTINUOUS
10
4.0039370078740157
20
-3.9179133858267714
11
4.0039370078740157
21
-3.9061023622047242
0
LINE
8
BLACK
6
CONTINUOUS
10
4.0039370078740157
20
-3.9061023622047242
11
4.0043865354330705
21
-3.9038424015748032
0
LINE
8
BLACK
6
CONTINUOUS
10
4.0043865354330705
20
-3.9038424015748032
11
4.005666692913386
21
-3.9019265354330708
0
LINE
8
BLACK
6
CONTINUOUS
10
4.005666692913386
20
-3.9019265354330708
11
4.007582559055118
21
-3.9006463779527558
0
LINE
8
BLACK
6
CONTINUOUS
10
4.007582559055118
20
-3.9006463779527558
11
4.0098425196850389
21
-3.9001968503937006
0
LINE
8
BLACK
6
CONTINUOUS
10
4.0098425196850389
20
-3.9001968503937006
11
4.0669291338582676
21
-3.9001968503937006
0
LINE
8
BLACK
6
CONTINUOUS
10
4.0669291338582676
20
-3.9001968503937006
11
4.0691890944881886
21
-3.9006463779527558
0
LINE
8
BLACK
6
CONTINUOUS
10
3.772090708661417
20
-3.8420128740157478
11
3.7749645275590549
21
-3.8439331102362204
0
LINE
8
BLACK
6
CONTINUOUS
10
3.7749645275590549
20
-3.8439331102362204
11
3.7768847637795275
21
-3.8468069291338582
0
LINE
8
BLACK
6
CONTINUOUS
10
3.7768847637795275
20
-3.8468069291338582
11
3.7775590551181102
21
-3.8501968503937007
0
LINE
8
BLACK
6
CONTINUOUS
10
3.7775590551181102
20
-3.8501968503937007
11
3.7775590551181102
21
-3.8679133858267716
0
LINE
8
BLACK
6
CONTINUOUS
10
3.7775590551181102
20
-3.8679133858267716
11
3.7768847637795275
21
-3.8713033070866141
0
LINE
8
BLACK
6
CONTINUOUS
10
3.7768847637795275
20
-3.8713033070866141
11
3.7749645275590549
21
-3.8741771259842519
0
LINE
8
BLACK
6
CONTINUOUS
10
3.7749645275590549
20
-3.8741771259842519
11
3.772090708661417
21
-3.8760973622047241
0
LINE
8
BLACK
6
CONTINUOUS
10
3.772090708661417
20
-3.8760973622047241
11
3.7687007874015745
21
-3.8767716535433072
0
LINE
8
BLACK
6
CONTINUOUS
10
3.7687007874015745
20
-3.8767716535433072
11
3.7490157480314958
21
-3.8767716535433072
0
LINE
8
BLACK
6
CONTINUOUS
10
3.7490157480314958
20
-3.8767716535433072
11
3.7456258267716533
21
-3.8760973622047241
0
LINE
8
BLACK
6
CONTINUOUS
10
3.7456258267716533
20
-3.8760973622047241
11
3.7427520078740155
21
-3.8741771259842519
0
LINE
8
BLACK
6
CONTINUOUS
10
3.7427520078740155
20
-3.8741771259842519
11
3.7408317716535433
21
-3.8713033070866141
0
LINE
8
BLACK
6
CONTINUOUS
10
3.7408317716535433
20
-3.8713033070866141
11
3.7401574803149606
21
-3.8679133858267716
0
LINE
8
BLACK
6
CONTINUOUS
10
3.7401574803149606
20
-3.8679133858267716
11
3.7401574803149606
21
-3.8501968503937007
0
LINE
8
BLACK
6
CONTINUOUS
10
3.7401574803149606
20
-3.8501968503937007
11
3.7408317716535433
21
-3.8468069291338582
0
LINE
8
BLACK
6
CONTINUOUS
10
3.7408317716535433
20
-3.8468069291338582
11
3.7427520078740155
21
-3.8439331102362204
0
LINE
8
BLACK
6
CONTINUOUS
10
3.7427520078740155
20
-3.8439331102362204
11
3.7456258267716533
21
-3.8420128740157478
0
LINE
8
BLACK
6
CONTINUOUS
10
3.7456258267716533
20
-3.8420128740157478
11
3.7490157480314958
21
-3.8413385826771651
0
LINE
8
BLACK
6
CONTINUOUS
10
3.7490157480314958
20
-3.8413385826771651
11
3.7687007874015745
21
-3.8413385826771651
0
LINE
8
BLACK
6
CONTINUOUS
10
3.7687007874015745
20
-3.8413385826771651
11
3.772090708661417
21
-3.8420128740157478
0
LINE
8
BLACK
6
CONTINUOUS
10
3.8664331889763779
20
-3.850646377952756
11
3.8683490551181103
21
-3.851926535433071
0
LINE
8
BLACK
6
CONTINUOUS
10
3.8683490551181103
20
-3.851926535433071
11
3.8696292125984253
21
-3.853842401574803
0
LINE
8
BLACK
6
CONTINUOUS
10
3.8696292125984253
20
-3.853842401574803
11
3.8700787401574801
21
-3.8561023622047244
0
LINE
8
BLACK
6
CONTINUOUS
10
3.8700787401574801
20
-3.8561023622047244
11
3.8700787401574801
21
-3.8679133858267716
0
LINE
8
BLACK
6
CONTINUOUS
10
3.8700787401574801
20
-3.8679133858267716
11
3.8696292125984253
21
-3.870173346456693
0
LINE
8
BLACK
6
CONTINUOUS
10
3.8696292125984253
20
-3.870173346456693
11
3.8683490551181103
21
-3.872089212598425
0
LINE
8
BLACK
6
CONTINUOUS
10
3.8683490551181103
20
-3.872089212598425
11
3.8664331889763779
21
-3.8733693700787399
0
LINE
8
BLACK
6
CONTINUOUS
10
3.8664331889763779
20
-3.8733693700787399
11
3.8641732283464565
21
-3.8738188976377952
0
LINE
8
BLACK
6
CONTINUOUS
10
3.8641732283464565
20
-3.8738188976377952
11
3.8070866141732282
21
-3.8738188976377952
0
LINE
8
BLACK
6
CONTINUOUS
10
3.8070866141732282
20
-3.8738188976377952
11
3.8048266535433068
21
-3.8733693700787399
0
LINE
8
BLACK
6
CONTINUOUS
10
3.8048266535433068
20
-3.8733693700787399
11
3.8029107874015748
21
-3.872089212598425
0
LINE
8
BLACK
6
CONTINUOUS
10
3.8029107874015748
20
-3.872089212598425
11
3.8016306299212599
21
-3.870173346456693
0
LINE
8
BLACK
6
CONTINUOUS
10
3.8016306299212599
20
-3.870173346456693
11
3.8011811023622046
21
-3.8679133858267716
0
LINE
8
BLACK
6
CONTINUOUS
10
3.8011811023622046
20
-3.8679133858267716
11
3.8011811023622046
21
-3.8561023622047244
0
LINE
8
BLACK
6
CONTINUOUS
10
3.8011811023622046
20
-3.8561023622047244
11
3.8016306299212599
21
-3.853842401574803
0
LINE
8
BLACK
6
CONTINUOUS
10
3.8016306299212599
20
-3.853842401574803
11
3.8029107874015748
21
-3.851926535433071
0
LINE
8
BLACK
6
CONTINUOUS
10
3.8029107874015748
20
-3.851926535433071
11
3.8048266535433068
21
-3.850646377952756
0
LINE
8
BLACK
6
CONTINUOUS
10
3.8048266535433068
20
-3.850646377952756
11
3.8070866141732282
21
-3.8501968503937007
0
LINE
8
BLACK
6
CONTINUOUS
10
3.8070866141732282
20
-3.8501968503937007
11
3.8641732283464565
21
-3.8501968503937007
0
LINE
8
BLACK
6
CONTINUOUS
10
3.8641732283464565
20
-3.8501968503937007
11
3.8664331889763779
21
-3.850646377952756
0
LINE
8
BLACK
6
CONTINUOUS
10
4.0691890944881886
20
-3.850646377952756
11
4.0711049606299214
21
-3.851926535433071
0
LINE
8
BLACK
6
CONTINUOUS
10
4.0711049606299214
20
-3.851926535433071
11
4.072385118110236
21
-3.853842401574803
0
LINE
8
BLACK
6
CONTINUOUS
10
4.072385118110236
20
-3.853842401574803
11
4.0728346456692917
21
-3.8561023622047244
0
LINE
8
BLACK
6
CONTINUOUS
10
4.0728346456692917
20
-3.8561023622047244
11
4.0728346456692917
21
-3.8679133858267716
0
LINE
8
BLACK
6
CONTINUOUS
10
4.0728346456692917
20
-3.8679133858267716
11
4.072385118110236
21
-3.870173346456693
0
LINE
8
BLACK
6
CONTINUOUS
10
4.072385118110236
20
-3.870173346456693
11
4.0711049606299214
21
-3.872089212598425
0
LINE
8
BLACK
6
CONTINUOUS
10
4.0711049606299214
20
-3.872089212598425
11
4.0691890944881886
21
-3.8733693700787399
0
LINE
8
BLACK
6
CONTINUOUS
10
4.0691890944881886
20
-3.8733693700787399
11
4.0669291338582676
21
-3.8738188976377952
0
LINE
8
BLACK
6
CONTINUOUS
10
4.0669291338582676
20
-3.8738188976377952
11
4.0098425196850389
21
-3.8738188976377952
0
LINE
8
BLACK
6
CONTINUOUS
10
4.0098425196850389
20
-3.8738188976377952
11
4.007582559055118
21
-3.8733693700787399
0
LINE
8
BLACK
6
CONTINUOUS
10
4.007582559055118
20
-3.8733693700787399
11
4.005666692913386
21
-3.872089212598425
0
LINE
8
BLACK
6
CONTINUOUS
10
4.005666692913386
20
-3.872089212598425
11
4.0043865354330705
21
-3.870173346456693
0
LINE
8
BLACK
6
CONTINUOUS
10
4.0043865354330705
20
-3.870173346456693
11
4.0039370078740157
21
-3.8679133858267716
0
LINE
8
BLACK
6
CONTINUOUS
10
4.0039370078740157
20
-3.8679133858267716
11
4.0039370078740157
21
-3.8561023622047244
0
LINE
8
BLACK
6
CONTINUOUS
10
4.0039370078740157
20
-3.8561023622047244
11
4.0043865354330705
21
-3.853842401574803
0
LINE
8
BLACK
6
CONTINUOUS
10
4.0043865354330705
20
-3.853842401574803
11
4.005666692913386
21
-3.851926535433071
0
LINE
8
BLACK
6
CONTINUOUS
10
4.005666692913386
20
-3.851926535433071
11
4.007582559055118
21
-3.850646377952756
0
LINE
8
BLACK
6
CONTINUOUS
10
4.007582559055118
20
-3.850646377952756
11
4.0098425196850389
21
-3.8501968503937007
0
LINE
8
BLACK
6
CONTINUOUS
10
4.0098425196850389
20
-3.8501968503937007
11
4.0669291338582676
21
-3.8501968503937007
0
LINE
8
BLACK
6
CONTINUOUS
10
4.0669291338582676
20
-3.8501968503937007
11
4.0691890944881886
21
-3.850646377952756
  0
ENDSEC
  0
EOF
