  0
SECTION
  2
HEADER
  9
$ANGBASE
  50
0.0
  9
$ANGDIR
  70
1
  9
$MEASUREMENT
  70
0
  0
ENDSEC
  0
SECTION
  2
TABLES
  0
TABLE
  2
LTYPE
  70
4
  0
LTYPE
  5
40F
  2
CONTINUOUS
  70
0
  3
Solid line
  72
65
  73
0
  40
0.0
  0
LTYPE
  5
410
  2
DASHDOT
 70
0
  3
Dash Dot ____ _ ____ _
 72
65
 73
4
 40
2.0
 49
1.25
 49
-0.25
 49
0.25
 49
-0.25
  0
LTYPE
  5
411
  2
DASHED
 70
0
  3
Dashed __ __ __ __ __
 72
65
 73
2
 40
0.75
 49
0.5
 49
-0.25
  0
LTYPE
  5
43B
  2
DOTTED
 70
0
  3
Dotted .  .  .  .
 72
65
 73
2
 40
0.2
 49
0.0
 49
-0.2
  0
ENDTAB
  0
TABLE
  2
STYLE
  70
4
  0
STYLE
  2
KICAD
  70
0
  40
0
  41
1
  42
1
  50
0
  71
0
  3
isocp.shx
  0
STYLE
  2
KICADB
  70
0
  40
0
  41
1
  42
1
  50
0
  71
0
  3
isocp.shx
  0
STYLE
  2
KICADI
  70
0
  40
0
  41
1
  42
1
  50
15
  71
0
  3
isocp.shx
  0
STYLE
  2
KICADBI
  70
0
  40
0
  41
1
  42
1
  50
15
  71
0
  3
isocp.shx
  0
ENDTAB
  0
TABLE
  2
LAYER
  70
1
  0
LAYER
  2
BLACK
  70
0
  62
7
  6
CONTINUOUS
  0
ENDTAB
  0
ENDSEC
  0
SECTION
  2
ENTITIES
0
LINE
8
BLACK
6
CONTINUOUS
10
3.3632778740157478
20
-3.8552785826771654
11
3.3741435826771653
21
-3.858323031496063
0
LINE
8
BLACK
6
CONTINUOUS
10
3.3741435826771653
20
-3.858323031496063
11
3.3844935826771652
21
-3.8628186614173226
0
LINE
8
BLACK
6
CONTINUOUS
10
3.3844935826771652
20
-3.8628186614173226
11
3.3941349999999999
21
-3.8686817322834646
0
LINE
8
BLACK
6
CONTINUOUS
10
3.3941349999999999
20
-3.8686817322834646
11
3.4028882677165355
21
-3.875803031496063
0
LINE
8
BLACK
6
CONTINUOUS
10
3.4028882677165355
20
-3.875803031496063
11
3.41059031496063
21
-3.8840499212598423
0
LINE
8
BLACK
6
CONTINUOUS
10
3.41059031496063
20
-3.8840499212598423
11
3.4170976771653541
21
-3.8932687795275589
0
LINE
8
BLACK
6
CONTINUOUS
10
3.4170976771653541
20
-3.8932687795275589
11
3.4222891338582677
21
-3.9032878346456692
0
LINE
8
BLACK
6
CONTINUOUS
10
3.4222891338582677
20
-3.9032878346456692
11
3.4260679527559055
21
-3.9139204724409447
0
LINE
8
BLACK
6
CONTINUOUS
10
3.4260679527559055
20
-3.9139204724409447
11
3.428363779527559
21
-3.9249686220472442
0
LINE
8
BLACK
6
CONTINUOUS
10
3.428363779527559
20
-3.9249686220472442
11
3.4291338582677167
21
-3.936226496062992
0
LINE
8
BLACK
6
CONTINUOUS
10
3.4291338582677167
20
-3.936226496062992
11
3.428363779527559
21
-3.9474843700787399
0
LINE
8
BLACK
6
CONTINUOUS
10
3.428363779527559
20
-3.9474843700787399
11
3.4260679527559055
21
-3.9585325196850394
0
LINE
8
BLACK
6
CONTINUOUS
10
3.4260679527559055
20
-3.9585325196850394
11
3.4222891338582677
21
-3.9691651574803148
0
LINE
8
BLACK
6
CONTINUOUS
10
3.4222891338582677
20
-3.9691651574803148
11
3.4170976771653541
21
-3.9791842125984251
0
LINE
8
BLACK
6
CONTINUOUS
10
3.4170976771653541
20
-3.9791842125984251
11
3.41059031496063
21
-3.9884030708661418
0
LINE
8
BLACK
6
CONTINUOUS
10
3.41059031496063
20
-3.9884030708661418
11
3.4028882677165355
21
-3.9966499606299211
0
LINE
8
BLACK
6
CONTINUOUS
10
3.4028882677165355
20
-3.9966499606299211
11
3.3941349999999999
21
-4.0037712598425195
0
LINE
8
BLACK
6
CONTINUOUS
10
3.3941349999999999
20
-4.0037712598425195
11
3.3844935826771652
21
-4.0096343307086615
0
LINE
8
BLACK
6
CONTINUOUS
10
3.3844935826771652
20
-4.0096343307086615
11
3.3741435826771653
21
-4.014129960629921
0
LINE
8
BLACK
6
CONTINUOUS
10
3.3741435826771653
20
-4.014129960629921
11
3.3632778740157478
21
-4.0171744094488187
0
LINE
8
BLACK
6
CONTINUOUS
10
3.3632778740157478
20
-4.0171744094488187
11
3.3520987795275592
21
-4.0187109055118109
0
LINE
8
BLACK
6
CONTINUOUS
10
3.3520987795275592
20
-4.0187109055118109
11
3.3408146062992126
21
-4.0187109055118109
0
LINE
8
BLACK
6
CONTINUOUS
10
3.3408146062992126
20
-4.0187109055118109
11
3.3296355118110235
21
-4.0171744094488187
0
LINE
8
BLACK
6
CONTINUOUS
10
3.3296355118110235
20
-4.0171744094488187
11
3.318769803149606
21
-4.014129960629921
0
LINE
8
BLACK
6
CONTINUOUS
10
3.318769803149606
20
-4.014129960629921
11
3.3084198031496062
21
-4.0096343307086615
0
LINE
8
BLACK
6
CONTINUOUS
10
3.3084198031496062
20
-4.0096343307086615
11
3.2987783858267714
21
-4.0037712598425195
0
LINE
8
BLACK
6
CONTINUOUS
10
3.2987783858267714
20
-4.0037712598425195
11
3.2900251181102362
21
-3.9966499606299211
0
LINE
8
BLACK
6
CONTINUOUS
10
3.2900251181102362
20
-3.9966499606299211
11
3.2823230708661417
21
-3.9884030708661418
0
LINE
8
BLACK
6
CONTINUOUS
10
3.2823230708661417
20
-3.9884030708661418
11
3.2758157086614172
21
-3.9791842125984251
0
LINE
8
BLACK
6
CONTINUOUS
10
3.2758157086614172
20
-3.9791842125984251
11
3.270624251968504
21
-3.9691651574803148
0
LINE
8
BLACK
6
CONTINUOUS
10
3.270624251968504
20
-3.9691651574803148
11
3.2668454330708663
21
-3.9585325196850394
0
LINE
8
BLACK
6
CONTINUOUS
10
3.2668454330708663
20
-3.9585325196850394
11
3.2645496062992123
21
-3.9474843700787399
0
LINE
8
BLACK
6
CONTINUOUS
10
3.2645496062992123
20
-3.9474843700787399
11
3.2637795275590551
21
-3.936226496062992
0
LINE
8
BLACK
6
CONTINUOUS
10
3.2637795275590551
20
-3.936226496062992
11
3.2645496062992123
21
-3.9249686220472442
0
LINE
8
BLACK
6
CONTINUOUS
10
3.2645496062992123
20
-3.9249686220472442
11
3.2668454330708663
21
-3.9139204724409447
0
LINE
8
BLACK
6
CONTINUOUS
10
3.2668454330708663
20
-3.9139204724409447
11
3.270624251968504
21
-3.9032878346456692
0
LINE
8
BLACK
6
CONTINUOUS
10
3.270624251968504
20
-3.9032878346456692
11
3.2758157086614172
21
-3.8932687795275589
0
LINE
8
BLACK
6
CONTINUOUS
10
3.2758157086614172
20
-3.8932687795275589
11
3.2823230708661417
21
-3.8840499212598423
0
LINE
8
BLACK
6
CONTINUOUS
10
3.2823230708661417
20
-3.8840499212598423
11
3.2900251181102362
21
-3.875803031496063
0
LINE
8
BLACK
6
CONTINUOUS
10
3.2900251181102362
20
-3.875803031496063
11
3.2987783858267714
21
-3.8686817322834646
0
LINE
8
BLACK
6
CONTINUOUS
10
3.2987783858267714
20
-3.8686817322834646
11
3.3084198031496062
21
-3.8628186614173226
0
LINE
8
BLACK
6
CONTINUOUS
10
3.3084198031496062
20
-3.8628186614173226
11
3.318769803149606
21
-3.858323031496063
0
LINE
8
BLACK
6
CONTINUOUS
10
3.318769803149606
20
-3.858323031496063
11
3.3296355118110235
21
-3.8552785826771654
0
LINE
8
BLACK
6
CONTINUOUS
10
3.3296355118110235
20
-3.8552785826771654
11
3.3408146062992126
21
-3.8537420866141732
0
LINE
8
BLACK
6
CONTINUOUS
10
3.3408146062992126
20
-3.8537420866141732
11
3.3520987795275592
21
-3.8537420866141732
0
LINE
8
BLACK
6
CONTINUOUS
10
3.3520987795275592
20
-3.8537420866141732
11
3.3632778740157478
21
-3.8552785826771654
0
LINE
8
BLACK
6
CONTINUOUS
10
3.2722258267716535
20
-3.9468992913385827
11
3.274500275590551
21
-3.9573548031496064
0
LINE
8
BLACK
6
CONTINUOUS
10
3.274500275590551
20
-3.9573548031496064
11
3.278239566929134
21
-3.9673802362204724
0
LINE
8
BLACK
6
CONTINUOUS
10
3.278239566929134
20
-3.9673802362204724
11
3.2833675590551179
21
-3.9767714173228343
0
LINE
8
BLACK
6
CONTINUOUS
10
3.2833675590551179
20
-3.9767714173228343
11
3.2897798425196849
21
-3.9853372440944881
0
LINE
8
BLACK
6
CONTINUOUS
10
3.2897798425196849
20
-3.9853372440944881
11
3.2973459448818896
21
-3.9929033464566928
0
LINE
8
BLACK
6
CONTINUOUS
10
3.2973459448818896
20
-3.9929033464566928
11
3.3059117716535433
21
-3.9993156299212598
0
LINE
8
BLACK
6
CONTINUOUS
10
3.3059117716535433
20
-3.9993156299212598
11
3.3153029527559053
21
-4.0044436220472441
0
LINE
8
BLACK
6
CONTINUOUS
10
3.3153029527559053
20
-4.0044436220472441
11
3.3253283858267717
21
-4.0081829133858271
0
LINE
8
BLACK
6
CONTINUOUS
10
3.3253283858267717
20
-4.0081829133858271
11
3.3357838976377954
21
-4.0104573622047246
0
LINE
8
BLACK
6
CONTINUOUS
10
3.3357838976377954
20
-4.0104573622047246
11
3.3464566929133857
21
-4.0112207086614173
0
LINE
8
BLACK
6
CONTINUOUS
10
3.3464566929133857
20
-4.0112207086614173
11
3.3571294881889764
21
-4.0104573622047246
0
LINE
8
BLACK
6
CONTINUOUS
10
3.3571294881889764
20
-4.0104573622047246
11
3.3675850000000001
21
-4.0081829133858271
0
LINE
8
BLACK
6
CONTINUOUS
10
3.3675850000000001
20
-4.0081829133858271
11
3.3776104330708661
21
-4.0044436220472441
0
LINE
8
BLACK
6
CONTINUOUS
10
3.3776104330708661
20
-4.0044436220472441
11
3.3870016141732284
21
-3.9993156299212598
0
LINE
8
BLACK
6
CONTINUOUS
10
3.3870016141732284
20
-3.9993156299212598
11
3.3955674409448817
21
-3.9929033464566928
0
LINE
8
BLACK
6
CONTINUOUS
10
3.3955674409448817
20
-3.9929033464566928
11
3.4031335433070864
21
-3.9853372440944881
0
LINE
8
BLACK
6
CONTINUOUS
10
3.4031335433070864
20
-3.9853372440944881
11
3.4095458267716534
21
-3.9767714173228343
0
LINE
8
BLACK
6
CONTINUOUS
10
3.4095458267716534
20
-3.9767714173228343
11
3.4146738188976378
21
-3.9673802362204724
0
LINE
8
BLACK
6
CONTINUOUS
10
3.4146738188976378
20
-3.9673802362204724
11
3.4184131102362203
21
-3.9573548031496064
0
LINE
8
BLACK
6
CONTINUOUS
10
3.4184131102362203
20
-3.9573548031496064
11
3.4206875590551182
21
-3.9468992913385827
0
LINE
8
BLACK
6
CONTINUOUS
10
3.4206875590551182
20
-3.9468992913385827
11
3.421450905511811
21
-3.936226496062992
0
LINE
8
BLACK
6
CONTINUOUS
10
3.421450905511811
20
-3.936226496062992
11
3.4206875590551182
21
-3.9255537007874013
0
LINE
8
BLACK
6
CONTINUOUS
10
3.4206875590551182
20
-3.9255537007874013
11
3.4184131102362203
21
-3.9150981889763781
0
LINE
8
BLACK
6
CONTINUOUS
10
3.4184131102362203
20
-3.9150981889763781
11
3.4146738188976378
21
-3.9050727559055116
0
LINE
8
BLACK
6
CONTINUOUS
10
3.4146738188976378
20
-3.9050727559055116
11
3.4095458267716534
21
-3.8956815748031497
0
LINE
8
BLACK
6
CONTINUOUS
10
3.4095458267716534
20
-3.8956815748031497
11
3.4031335433070864
21
-3.887115748031496
0
LINE
8
BLACK
6
CONTINUOUS
10
3.4031335433070864
20
-3.887115748031496
11
3.3955674409448817
21
-3.8795496456692913
0
LINE
8
BLACK
6
CONTINUOUS
10
3.3955674409448817
20
-3.8795496456692913
11
3.3870016141732284
21
-3.8731373622047243
0
LINE
8
BLACK
6
CONTINUOUS
10
3.3870016141732284
20
-3.8731373622047243
11
3.3776104330708661
21
-3.8680093700787399
0
LINE
8
BLACK
6
CONTINUOUS
10
3.3776104330708661
20
-3.8680093700787399
11
3.3675850000000001
21
-3.8642700787401574
0
LINE
8
BLACK
6
CONTINUOUS
10
3.3675850000000001
20
-3.8642700787401574
11
3.3571294881889764
21
-3.8619956299212599
0
LINE
8
BLACK
6
CONTINUOUS
10
3.3571294881889764
20
-3.8619956299212599
11
3.3464566929133857
21
-3.8612322834645667
0
LINE
8
BLACK
6
CONTINUOUS
10
3.3464566929133857
20
-3.8612322834645667
11
3.3357838976377954
21
-3.8619956299212599
0
LINE
8
BLACK
6
CONTINUOUS
10
3.3357838976377954
20
-3.8619956299212599
11
3.3253283858267717
21
-3.8642700787401574
0
LINE
8
BLACK
6
CONTINUOUS
10
3.3253283858267717
20
-3.8642700787401574
11
3.3153029527559053
21
-3.8680093700787399
0
LINE
8
BLACK
6
CONTINUOUS
10
3.3153029527559053
20
-3.8680093700787399
11
3.3059117716535433
21
-3.8731373622047243
0
LINE
8
BLACK
6
CONTINUOUS
10
3.3059117716535433
20
-3.8731373622047243
11
3.2973459448818896
21
-3.8795496456692913
0
LINE
8
BLACK
6
CONTINUOUS
10
3.2973459448818896
20
-3.8795496456692913
11
3.2897798425196849
21
-3.887115748031496
0
LINE
8
BLACK
6
CONTINUOUS
10
3.2897798425196849
20
-3.887115748031496
11
3.2833675590551179
21
-3.8956815748031497
0
LINE
8
BLACK
6
CONTINUOUS
10
3.2833675590551179
20
-3.8956815748031497
11
3.278239566929134
21
-3.9050727559055116
0
LINE
8
BLACK
6
CONTINUOUS
10
3.278239566929134
20
-3.9050727559055116
11
3.274500275590551
21
-3.9150981889763781
0
LINE
8
BLACK
6
CONTINUOUS
10
3.274500275590551
20
-3.9150981889763781
11
3.2722258267716535
21
-3.9255537007874013
0
LINE
8
BLACK
6
CONTINUOUS
10
3.2722258267716535
20
-3.9255537007874013
11
3.2714624803149603
21
-3.936226496062992
0
LINE
8
BLACK
6
CONTINUOUS
10
3.2714624803149603
20
-3.936226496062992
11
3.2722258267716535
21
-3.9468992913385827
0
LINE
8
BLACK
6
CONTINUOUS
10
4.5443802362204719
20
-3.8552785826771654
11
4.5552459448818894
21
-3.858323031496063
0
LINE
8
BLACK
6
CONTINUOUS
10
4.5552459448818894
20
-3.858323031496063
11
4.5655959448818892
21
-3.8628186614173226
0
LINE
8
BLACK
6
CONTINUOUS
10
4.5655959448818892
20
-3.8628186614173226
11
4.5752373622047244
21
-3.8686817322834646
0
LINE
8
BLACK
6
CONTINUOUS
10
4.5752373622047244
20
-3.8686817322834646
11
4.5839906299212601
21
-3.875803031496063
0
LINE
8
BLACK
6
CONTINUOUS
10
4.5839906299212601
20
-3.875803031496063
11
4.5916926771653541
21
-3.8840499212598423
0
LINE
8
BLACK
6
CONTINUOUS
10
4.5916926771653541
20
-3.8840499212598423
11
4.598200039370079
21
-3.8932687795275589
0
LINE
8
BLACK
6
CONTINUOUS
10
4.598200039370079
20
-3.8932687795275589
11
4.6033914960629918
21
-3.9032878346456692
0
LINE
8
BLACK
6
CONTINUOUS
10
4.6033914960629918
20
-3.9032878346456692
11
4.60717031496063
21
-3.9139204724409447
0
LINE
8
BLACK
6
CONTINUOUS
10
4.60717031496063
20
-3.9139204724409447
11
4.6094661417322831
21
-3.9249686220472442
0
LINE
8
BLACK
6
CONTINUOUS
10
4.6094661417322831
20
-3.9249686220472442
11
4.6102362204724407
21
-3.936226496062992
0
LINE
8
BLACK
6
CONTINUOUS
10
4.6102362204724407
20
-3.936226496062992
11
4.6094661417322831
21
-3.9474843700787399
0
LINE
8
BLACK
6
CONTINUOUS
10
4.6094661417322831
20
-3.9474843700787399
11
4.60717031496063
21
-3.9585325196850394
0
LINE
8
BLACK
6
CONTINUOUS
10
4.60717031496063
20
-3.9585325196850394
11
4.6033914960629918
21
-3.9691651574803148
0
LINE
8
BLACK
6
CONTINUOUS
10
4.6033914960629918
20
-3.9691651574803148
11
4.598200039370079
21
-3.9791842125984251
0
LINE
8
BLACK
6
CONTINUOUS
10
4.598200039370079
20
-3.9791842125984251
11
4.5916926771653541
21
-3.9884030708661418
0
LINE
8
BLACK
6
CONTINUOUS
10
4.5916926771653541
20
-3.9884030708661418
11
4.5839906299212601
21
-3.9966499606299211
0
LINE
8
BLACK
6
CONTINUOUS
10
4.5839906299212601
20
-3.9966499606299211
11
4.5752373622047244
21
-4.0037712598425195
0
LINE
8
BLACK
6
CONTINUOUS
10
4.5752373622047244
20
-4.0037712598425195
11
4.5655959448818892
21
-4.0096343307086615
0
LINE
8
BLACK
6
CONTINUOUS
10
4.5655959448818892
20
-4.0096343307086615
11
4.5552459448818894
21
-4.014129960629921
0
LINE
8
BLACK
6
CONTINUOUS
10
4.5552459448818894
20
-4.014129960629921
11
4.5443802362204719
21
-4.0171744094488187
0
LINE
8
BLACK
6
CONTINUOUS
10
4.5443802362204719
20
-4.0171744094488187
11
4.5332011417322837
21
-4.0187109055118109
0
LINE
8
BLACK
6
CONTINUOUS
10
4.5332011417322837
20
-4.0187109055118109
11
4.5219169685039367
21
-4.0187109055118109
0
LINE
8
BLACK
6
CONTINUOUS
10
4.5219169685039367
20
-4.0187109055118109
11
4.5107378740157476
21
-4.0171744094488187
0
LINE
8
BLACK
6
CONTINUOUS
10
4.5107378740157476
20
-4.0171744094488187
11
4.499872165354331
21
-4.014129960629921
0
LINE
8
BLACK
6
CONTINUOUS
10
4.499872165354331
20
-4.014129960629921
11
4.4895221653543302
21
-4.0096343307086615
0
LINE
8
BLACK
6
CONTINUOUS
10
4.4895221653543302
20
-4.0096343307086615
11
4.4798807480314959
21
-4.0037712598425195
0
LINE
8
BLACK
6
CONTINUOUS
10
4.4798807480314959
20
-4.0037712598425195
11
4.4711274803149603
21
-3.9966499606299211
0
LINE
8
BLACK
6
CONTINUOUS
10
4.4711274803149603
20
-3.9966499606299211
11
4.4634254330708663
21
-3.9884030708661418
0
LINE
8
BLACK
6
CONTINUOUS
10
4.4634254330708663
20
-3.9884030708661418
11
4.4569180708661413
21
-3.9791842125984251
0
LINE
8
BLACK
6
CONTINUOUS
10
4.4569180708661413
20
-3.9791842125984251
11
4.4517266141732286
21
-3.9691651574803148
0
LINE
8
BLACK
6
CONTINUOUS
10
4.4517266141732286
20
-3.9691651574803148
11
4.4479477952755904
21
-3.9585325196850394
0
LINE
8
BLACK
6
CONTINUOUS
10
4.4479477952755904
20
-3.9585325196850394
11
4.4456519685039373
21
-3.9474843700787399
0
LINE
8
BLACK
6
CONTINUOUS
10
4.4456519685039373
20
-3.9474843700787399
11
4.4448818897637796
21
-3.936226496062992
0
LINE
8
BLACK
6
CONTINUOUS
10
4.4448818897637796
20
-3.936226496062992
11
4.4456519685039373
21
-3.9249686220472442
0
LINE
8
BLACK
6
CONTINUOUS
10
4.4456519685039373
20
-3.9249686220472442
11
4.4479477952755904
21
-3.9139204724409447
0
LINE
8
BLACK
6
CONTINUOUS
10
4.4479477952755904
20
-3.9139204724409447
11
4.4517266141732286
21
-3.9032878346456692
0
LINE
8
BLACK
6
CONTINUOUS
10
4.4517266141732286
20
-3.9032878346456692
11
4.4569180708661413
21
-3.8932687795275589
0
LINE
8
BLACK
6
CONTINUOUS
10
4.4569180708661413
20
-3.8932687795275589
11
4.4634254330708663
21
-3.8840499212598423
0
LINE
8
BLACK
6
CONTINUOUS
10
4.4634254330708663
20
-3.8840499212598423
11
4.4711274803149603
21
-3.875803031496063
0
LINE
8
BLACK
6
CONTINUOUS
10
4.4711274803149603
20
-3.875803031496063
11
4.4798807480314959
21
-3.8686817322834646
0
LINE
8
BLACK
6
CONTINUOUS
10
4.4798807480314959
20
-3.8686817322834646
11
4.4895221653543302
21
-3.8628186614173226
0
LINE
8
BLACK
6
CONTINUOUS
10
4.4895221653543302
20
-3.8628186614173226
11
4.499872165354331
21
-3.858323031496063
0
LINE
8
BLACK
6
CONTINUOUS
10
4.499872165354331
20
-3.858323031496063
11
4.5107378740157476
21
-3.8552785826771654
0
LINE
8
BLACK
6
CONTINUOUS
10
4.5107378740157476
20
-3.8552785826771654
11
4.5219169685039367
21
-3.8537420866141732
0
LINE
8
BLACK
6
CONTINUOUS
10
4.5219169685039367
20
-3.8537420866141732
11
4.5332011417322837
21
-3.8537420866141732
0
LINE
8
BLACK
6
CONTINUOUS
10
4.5332011417322837
20
-3.8537420866141732
11
4.5443802362204719
21
-3.8552785826771654
0
LINE
8
BLACK
6
CONTINUOUS
10
4.4533281889763776
20
-3.9468992913385827
11
4.4556026377952751
21
-3.9573548031496064
0
LINE
8
BLACK
6
CONTINUOUS
10
4.4556026377952751
20
-3.9573548031496064
11
4.4593419291338581
21
-3.9673802362204724
0
LINE
8
BLACK
6
CONTINUOUS
10
4.4593419291338581
20
-3.9673802362204724
11
4.464469921259842
21
-3.9767714173228343
0
LINE
8
BLACK
6
CONTINUOUS
10
4.464469921259842
20
-3.9767714173228343
11
4.4708822047244094
21
-3.9853372440944881
0
LINE
8
BLACK
6
CONTINUOUS
10
4.4708822047244094
20
-3.9853372440944881
11
4.4784483070866141
21
-3.9929033464566928
0
LINE
8
BLACK
6
CONTINUOUS
10
4.4784483070866141
20
-3.9929033464566928
11
4.4870141338582679
21
-3.9993156299212598
0
LINE
8
BLACK
6
CONTINUOUS
10
4.4870141338582679
20
-3.9993156299212598
11
4.4964053149606302
21
-4.0044436220472441
0
LINE
8
BLACK
6
CONTINUOUS
10
4.4964053149606302
20
-4.0044436220472441
11
4.5064307480314962
21
-4.0081829133858271
0
LINE
8
BLACK
6
CONTINUOUS
10
4.5064307480314962
20
-4.0081829133858271
11
4.5168862598425195
21
-4.0104573622047246
0
LINE
8
BLACK
6
CONTINUOUS
10
4.5168862598425195
20
-4.0104573622047246
11
4.5275590551181102
21
-4.0112207086614173
0
LINE
8
BLACK
6
CONTINUOUS
10
4.5275590551181102
20
-4.0112207086614173
11
4.5382318503937009
21
-4.0104573622047246
0
LINE
8
BLACK
6
CONTINUOUS
10
4.5382318503937009
20
-4.0104573622047246
11
4.5486873622047241
21
-4.0081829133858271
0
LINE
8
BLACK
6
CONTINUOUS
10
4.5486873622047241
20
-4.0081829133858271
11
4.5587127952755901
21
-4.0044436220472441
0
LINE
8
BLACK
6
CONTINUOUS
10
4.5587127952755901
20
-4.0044436220472441
11
4.5681039763779525
21
-3.9993156299212598
0
LINE
8
BLACK
6
CONTINUOUS
10
4.5681039763779525
20
-3.9993156299212598
11
4.5766698031496063
21
-3.9929033464566928
0
LINE
8
BLACK
6
CONTINUOUS
10
4.5766698031496063
20
-3.9929033464566928
11
4.5842359055118109
21
-3.9853372440944881
0
LINE
8
BLACK
6
CONTINUOUS
10
4.5842359055118109
20
-3.9853372440944881
11
4.5906481889763775
21
-3.9767714173228343
0
LINE
8
BLACK
6
CONTINUOUS
10
4.5906481889763775
20
-3.9767714173228343
11
4.5957761811023623
21
-3.9673802362204724
0
LINE
8
BLACK
6
CONTINUOUS
10
4.5957761811023623
20
-3.9673802362204724
11
4.5995154724409444
21
-3.9573548031496064
0
LINE
8
BLACK
6
CONTINUOUS
10
4.5995154724409444
20
-3.9573548031496064
11
4.6017899212598428
21
-3.9468992913385827
0
LINE
8
BLACK
6
CONTINUOUS
10
4.6017899212598428
20
-3.9468992913385827
11
4.6025532677165355
21
-3.936226496062992
0
LINE
8
BLACK
6
CONTINUOUS
10
4.6025532677165355
20
-3.936226496062992
11
4.6017899212598428
21
-3.9255537007874013
0
LINE
8
BLACK
6
CONTINUOUS
10
4.6017899212598428
20
-3.9255537007874013
11
4.5995154724409444
21
-3.9150981889763781
0
LINE
8
BLACK
6
CONTINUOUS
10
4.5995154724409444
20
-3.9150981889763781
11
4.5957761811023623
21
-3.9050727559055116
0
LINE
8
BLACK
6
CONTINUOUS
10
4.5957761811023623
20
-3.9050727559055116
11
4.5906481889763775
21
-3.8956815748031497
0
LINE
8
BLACK
6
CONTINUOUS
10
4.5906481889763775
20
-3.8956815748031497
11
4.5842359055118109
21
-3.887115748031496
0
LINE
8
BLACK
6
CONTINUOUS
10
4.5842359055118109
20
-3.887115748031496
11
4.5766698031496063
21
-3.8795496456692913
0
LINE
8
BLACK
6
CONTINUOUS
10
4.5766698031496063
20
-3.8795496456692913
11
4.5681039763779525
21
-3.8731373622047243
0
LINE
8
BLACK
6
CONTINUOUS
10
4.5681039763779525
20
-3.8731373622047243
11
4.5587127952755901
21
-3.8680093700787399
0
LINE
8
BLACK
6
CONTINUOUS
10
4.5587127952755901
20
-3.8680093700787399
11
4.5486873622047241
21
-3.8642700787401574
0
LINE
8
BLACK
6
CONTINUOUS
10
4.5486873622047241
20
-3.8642700787401574
11
4.5382318503937009
21
-3.8619956299212599
0
LINE
8
BLACK
6
CONTINUOUS
10
4.5382318503937009
20
-3.8619956299212599
11
4.5275590551181102
21
-3.8612322834645667
0
LINE
8
BLACK
6
CONTINUOUS
10
4.5275590551181102
20
-3.8612322834645667
11
4.5168862598425195
21
-3.8619956299212599
0
LINE
8
BLACK
6
CONTINUOUS
10
4.5168862598425195
20
-3.8619956299212599
11
4.5064307480314962
21
-3.8642700787401574
0
LINE
8
BLACK
6
CONTINUOUS
10
4.5064307480314962
20
-3.8642700787401574
11
4.4964053149606302
21
-3.8680093700787399
0
LINE
8
BLACK
6
CONTINUOUS
10
4.4964053149606302
20
-3.8680093700787399
11
4.4870141338582679
21
-3.8731373622047243
0
LINE
8
BLACK
6
CONTINUOUS
10
4.4870141338582679
20
-3.8731373622047243
11
4.4784483070866141
21
-3.8795496456692913
0
LINE
8
BLACK
6
CONTINUOUS
10
4.4784483070866141
20
-3.8795496456692913
11
4.4708822047244094
21
-3.887115748031496
0
LINE
8
BLACK
6
CONTINUOUS
10
4.4708822047244094
20
-3.887115748031496
11
4.464469921259842
21
-3.8956815748031497
0
LINE
8
BLACK
6
CONTINUOUS
10
4.464469921259842
20
-3.8956815748031497
11
4.4593419291338581
21
-3.9050727559055116
0
LINE
8
BLACK
6
CONTINUOUS
10
4.4593419291338581
20
-3.9050727559055116
11
4.4556026377952751
21
-3.9150981889763781
0
LINE
8
BLACK
6
CONTINUOUS
10
4.4556026377952751
20
-3.9150981889763781
11
4.4533281889763776
21
-3.9255537007874013
0
LINE
8
BLACK
6
CONTINUOUS
10
4.4533281889763776
20
-3.9255537007874013
11
4.4525648425196849
21
-3.936226496062992
0
LINE
8
BLACK
6
CONTINUOUS
10
4.4525648425196849
20
-3.936226496062992
11
4.4533281889763776
21
-3.9468992913385827
0
LINE
8
BLACK
6
CONTINUOUS
10
3.9817957086614171
20
-3.3463890944881891
11
4.0115272440944878
21
-3.3494037007874016
0
LINE
8
BLACK
6
CONTINUOUS
10
4.0115272440944878
20
-3.3494037007874016
11
4.0410685826771653
21
-3.3539160236220473
0
LINE
8
BLACK
6
CONTINUOUS
10
4.0410685826771653
20
-3.3539160236220473
11
4.0703443307086618
21
-3.359914527559055
0
LINE
8
BLACK
6
CONTINUOUS
10
4.0703443307086618
20
-3.359914527559055
11
4.0992798031496065
21
-3.3673838582677162
0
LINE
8
BLACK
6
CONTINUOUS
10
4.0992798031496065
20
-3.3673838582677162
11
4.1278011023622048
21
-3.3763050393700786
0
LINE
8
BLACK
6
CONTINUOUS
10
4.1278011023622048
20
-3.3763050393700786
11
4.1558354724409448
21
-3.3866551968503935
0
LINE
8
BLACK
6
CONTINUOUS
10
4.1558354724409448
20
-3.3866551968503935
11
4.1833113385826772
21
-3.398408031496063
0
LINE
8
BLACK
6
CONTINUOUS
10
4.1833113385826772
20
-3.398408031496063
11
4.2101586220472438
21
-3.4115334645669289
0
LINE
8
BLACK
6
CONTINUOUS
10
4.2101586220472438
20
-3.4115334645669289
11
4.2363087401574804
21
-3.4259979921259842
0
LINE
8
BLACK
6
CONTINUOUS
10
4.2363087401574804
20
-3.4259979921259842
11
4.2616949606299208
21
-3.4417647637795277
0
LINE
8
BLACK
6
CONTINUOUS
10
4.2616949606299208
20
-3.4417647637795277
11
4.2862525590551179
21
-3.4587935039370077
0
LINE
8
BLACK
6
CONTINUOUS
10
4.2862525590551179
20
-3.4587935039370077
11
4.3099187795275586
21
-3.4770407086614172
0
LINE
8
BLACK
6
CONTINUOUS
10
4.3099187795275586
20
-3.4770407086614172
11
4.3326332677165356
21
-3.4964598818897636
0
LINE
8
BLACK
6
CONTINUOUS
10
4.3326332677165356
20
-3.4964598818897636
11
4.3543380314960629
21
-3.5170014566929133
0
LINE
8
BLACK
6
CONTINUOUS
10
4.3543380314960629
20
-3.5170014566929133
11
4.3749776771653544
21
-3.5386129133858266
0
LINE
8
BLACK
6
CONTINUOUS
10
4.3749776771653544
20
-3.5386129133858266
11
4.3944995669291336
21
-3.5612392125984251
0
LINE
8
BLACK
6
CONTINUOUS
10
4.3944995669291336
20
-3.5612392125984251
11
4.4128538188976378
21
-3.5848225590551182
0
LINE
8
BLACK
6
CONTINUOUS
10
4.4128538188976378
20
-3.5848225590551182
11
4.4299936220472436
21
-3.6093027165354328
0
LINE
8
BLACK
6
CONTINUOUS
10
4.4299936220472436
20
-3.6093027165354328
11
4.4458752362204725
21
-3.6346172834645669
0
LINE
8
BLACK
6
CONTINUOUS
10
4.4458752362204725
20
-3.6346172834645669
11
4.4604581102362202
21
-3.6607016141732283
0
LINE
8
BLACK
6
CONTINUOUS
10
4.4604581102362202
20
-3.6607016141732283
11
4.4737049999999998
21
-3.6874891338582678
0
LINE
8
BLACK
6
CONTINUOUS
10
4.4737049999999998
20
-3.6874891338582678
11
4.4855821653543302
21
-3.7149114566929131
0
LINE
8
BLACK
6
CONTINUOUS
10
4.4855821653543302
20
-3.7149114566929131
11
4.4960592519685036
21
-3.742898661417323
0
LINE
8
BLACK
6
CONTINUOUS
10
4.4960592519685036
20
-3.742898661417323
11
4.504863661417323
21
-3.7706055511811023
0
LINE
8
BLACK
6
CONTINUOUS
10
4.504863661417323
20
-3.7706055511811023
11
4.5197935039370076
21
-3.769300866141732
0
LINE
8
BLACK
6
CONTINUOUS
10
4.5197935039370076
20
-3.769300866141732
11
4.5356143307086612
21
-3.7694206692913386
0
LINE
8
BLACK
6
CONTINUOUS
10
4.5356143307086612
20
-3.7694206692913386
11
4.5513528740157483
21
-3.7710366141732283
0
LINE
8
BLACK
6
CONTINUOUS
10
4.5513528740157483
20
-3.7710366141732283
11
4.5668679527559055
21
-3.7741341338582677
0
LINE
8
BLACK
6
CONTINUOUS
10
4.5668679527559055
20
-3.7741341338582677
11
4.5820204330708663
21
-3.7786854724409449
0
LINE
8
BLACK
6
CONTINUOUS
10
4.5820204330708663
20
-3.7786854724409449
11
4.596674409448819
21
-3.7846498031496063
0
LINE
8
BLACK
6
CONTINUOUS
10
4.596674409448819
20
-3.7846498031496063
11
4.6106984251968504
21
-3.7919736614173227
0
LINE
8
BLACK
6
CONTINUOUS
10
4.6106984251968504
20
-3.7919736614173227
11
4.6239667716535431
21
-3.8005913385826773
0
LINE
8
BLACK
6
CONTINUOUS
10
4.6239667716535431
20
-3.8005913385826773
11
4.6363603543307086
21
-3.8104255118110237
0
LINE
8
BLACK
6
CONTINUOUS
10
4.6363603543307086
20
-3.8104255118110237
11
4.6477680708661415
21
-3.8213880314960629
0
LINE
8
BLACK
6
CONTINUOUS
10
4.6477680708661415
20
-3.8213880314960629
11
4.6580875590551178
21
-3.8333805511811021
0
LINE
8
BLACK
6
CONTINUOUS
10
4.6580875590551178
20
-3.8333805511811021
11
4.6672262992125981
21
-3.8462954724409446
0
LINE
8
BLACK
6
CONTINUOUS
10
4.6672262992125981
20
-3.8462954724409446
11
4.675102322834646
21
-3.8600170472440944
0
LINE
8
BLACK
6
CONTINUOUS
10
4.675102322834646
20
-3.8600170472440944
11
4.6816449999999996
21
-3.8744220866141732
0
LINE
8
BLACK
6
CONTINUOUS
10
4.6816449999999996
20
-3.8744220866141732
11
4.6867955905511813
21
-3.8893814960629922
0
LINE
8
BLACK
6
CONTINUOUS
10
4.6867955905511813
20
-3.8893814960629922
11
4.6905079527559055
21
-3.9047610629921259
0
LINE
8
BLACK
6
CONTINUOUS
10
4.6905079527559055
20
-3.9047610629921259
11
4.6927487795275589
21
-3.9204228346456693
0
LINE
8
BLACK
6
CONTINUOUS
10
4.6927487795275589
20
-3.9204228346456693
11
4.6934979527559051
21
-3.9362263779527558
0
LINE
8
BLACK
6
CONTINUOUS
10
4.6934979527559051
20
-3.9362263779527558
11
4.6927487795275589
21
-3.9520298818897639
0
LINE
8
BLACK
6
CONTINUOUS
10
4.6927487795275589
20
-3.9520298818897639
11
4.6905079527559055
21
-3.9676916535433069
0
LINE
8
BLACK
6
CONTINUOUS
10
4.6905079527559055
20
-3.9676916535433069
11
4.6867955905511813
21
-3.983071220472441
0
LINE
8
BLACK
6
CONTINUOUS
10
4.6867955905511813
20
-3.983071220472441
11
4.6816449999999996
21
-3.9980306299212596
0
LINE
8
BLACK
6
CONTINUOUS
10
4.6816449999999996
20
-3.9980306299212596
11
4.6751023622047239
21
-4.0124357086614175
0
LINE
8
BLACK
6
CONTINUOUS
10
4.6751023622047239
20
-4.0124357086614175
11
4.6672263385826769
21
-4.0261572440944882
0
LINE
8
BLACK
6
CONTINUOUS
10
4.6672263385826769
20
-4.0261572440944882
11
4.6580875984251966
21
-4.039072204724409
0
LINE
8
BLACK
6
CONTINUOUS
10
4.6580875984251966
20
-4.039072204724409
11
4.6477680708661415
21
-4.0510646850393703
0
LINE
8
BLACK
6
CONTINUOUS
10
4.6477680708661415
20
-4.0510646850393703
11
4.6363603937007873
21
-4.0620272047244095
0
LINE
8
BLACK
6
CONTINUOUS
10
4.6363603937007873
20
-4.0620272047244095
11
4.6239667716535431
21
-4.0718614173228342
0
LINE
8
BLACK
6
CONTINUOUS
10
4.6239667716535431
20
-4.0718614173228342
11
4.6106984645669291
21
-4.0804790944881892
0
LINE
8
BLACK
6
CONTINUOUS
10
4.6106984645669291
20
-4.0804790944881892
11
4.5966744488188978
21
-4.0878029527559052
0
LINE
8
BLACK
6
CONTINUOUS
10
4.5966744488188978
20
-4.0878029527559052
11
4.582020472440945
21
-4.0937672834645671
0
LINE
8
BLACK
6
CONTINUOUS
10
4.582020472440945
20
-4.0937672834645671
11
4.5668679527559055
21
-4.0983186220472438
0
LINE
8
BLACK
6
CONTINUOUS
10
4.5668679527559055
20
-4.0983186220472438
11
4.5513528740157483
21
-4.1014161417322832
0
LINE
8
BLACK
6
CONTINUOUS
10
4.5513528740157483
20
-4.1014161417322832
11
4.5356143700787399
21
-4.1030320866141734
0
LINE
8
BLACK
6
CONTINUOUS
10
4.5356143700787399
20
-4.1030320866141734
11
4.5197935433070864
21
-4.1031518897637795
0
LINE
8
BLACK
6
CONTINUOUS
10
4.5197935433070864
20
-4.1031518897637795
11
4.5048637795275592
21
-4.1018472047244092
0
LINE
8
BLACK
6
CONTINUOUS
10
4.5048637795275592
20
-4.1018472047244092
11
4.4960593307086612
21
-4.1295543307086611
0
LINE
8
BLACK
6
CONTINUOUS
10
4.4960593307086612
20
-4.1295543307086611
11
4.4855822440944877
21
-4.1575415354330705
0
LINE
8
BLACK
6
CONTINUOUS
10
4.4855822440944877
20
-4.1575415354330705
11
4.4737050787401573
21
-4.184963897637795
0
LINE
8
BLACK
6
CONTINUOUS
10
4.4737050787401573
20
-4.184963897637795
11
4.4604581496062989
21
-4.2117514173228345
0
LINE
8
BLACK
6
CONTINUOUS
10
4.4604581496062989
20
-4.2117514173228345
11
4.4458752755905513
21
-4.2378357480314959
0
LINE
8
BLACK
6
CONTINUOUS
10
4.4458752755905513
20
-4.2378357480314959
11
4.4299936614173223
21
-4.2631502755905508
0
LINE
8
BLACK
6
CONTINUOUS
10
4.4299936614173223
20
-4.2631502755905508
11
4.4128538582677166
21
-4.2876304724409451
0
LINE
8
BLACK
6
CONTINUOUS
10
4.4128538582677166
20
-4.2876304724409451
11
4.3944996062992123
21
-4.3112138188976381
0
LINE
8
BLACK
6
CONTINUOUS
10
4.3944996062992123
20
-4.3112138188976381
11
4.3749777559055119
21
-4.333840078740157
0
LINE
8
BLACK
6
CONTINUOUS
10
4.3749777559055119
20
-4.333840078740157
11
4.3543380708661417
21
-4.3554515748031495
0
LINE
8
BLACK
6
CONTINUOUS
10
4.3543380708661417
20
-4.3554515748031495
11
4.3326333070866143
21
-4.3759931102362204
0
LINE
8
BLACK
6
CONTINUOUS
10
4.3326333070866143
20
-4.3759931102362204
11
4.3099188188976374
21
-4.3954122834645668
0
LINE
8
BLACK
6
CONTINUOUS
10
4.3099188188976374
20
-4.3954122834645668
11
4.2862525984251967
21
-4.4136595275590551
0
LINE
8
BLACK
6
CONTINUOUS
10
4.2862525984251967
20
-4.4136595275590551
11
4.2616949999999996
21
-4.4306882677165351
0
LINE
8
BLACK
6
CONTINUOUS
10
4.2616949999999996
20
-4.4306882677165351
11
4.2363087401574804
21
-4.446455039370079
0
LINE
8
BLACK
6
CONTINUOUS
10
4.2363087401574804
20
-4.446455039370079
11
4.2101586220472438
21
-4.4609195669291335
0
LINE
8
BLACK
6
CONTINUOUS
10
4.2101586220472438
20
-4.4609195669291335
11
4.183311377952756
21
-4.4740450000000003
0
LINE
8
BLACK
6
CONTINUOUS
10
4.183311377952756
20
-4.4740450000000003
11
4.1558355118110235
21
-4.4857978346456688
0
LINE
8
BLACK
6
CONTINUOUS
10
4.1558355118110235
20
-4.4857978346456688
11
4.1278011417322835
21
-4.4961479921259837
0
LINE
8
BLACK
6
CONTINUOUS
10
4.1278011417322835
20
-4.4961479921259837
11
4.0992798031496065
21
-4.5050691732283461
0
LINE
8
BLACK
6
CONTINUOUS
10
4.0992798031496065
20
-4.5050691732283461
11
4.0703443700787405
21
-4.5125385039370078
0
LINE
8
BLACK
6
CONTINUOUS
10
4.0703443700787405
20
-4.5125385039370078
11
4.0410685826771653
21
-4.5185370078740155
0
LINE
8
BLACK
6
CONTINUOUS
10
4.0410685826771653
20
-4.5185370078740155
11
4.0115272440944878
21
-4.5230493307086617
0
LINE
8
BLACK
6
CONTINUOUS
10
4.0115272440944878
20
-4.5230493307086617
11
3.9817957086614171
21
-4.5260639370078737
0
LINE
8
BLACK
6
CONTINUOUS
10
3.9817957086614171
20
-4.5260639370078737
11
3.9519498818897638
21
-4.5275731889763779
0
LINE
8
BLACK
6
CONTINUOUS
10
3.9519498818897638
20
-4.5275731889763779
11
3.922065866141732
21
-4.5275731889763779
0
LINE
8
BLACK
6
CONTINUOUS
10
3.922065866141732
20
-4.5275731889763779
11
3.8922200393700788
21
-4.5260639370078737
0
LINE
8
BLACK
6
CONTINUOUS
10
3.8922200393700788
20
-4.5260639370078737
11
3.8624885039370076
21
-4.5230493307086617
0
LINE
8
BLACK
6
CONTINUOUS
10
3.8624885039370076
20
-4.5230493307086617
11
3.8329471653543306
21
-4.5185370078740155
0
LINE
8
BLACK
6
CONTINUOUS
10
3.8329471653543306
20
-4.5185370078740155
11
3.8036713779527558
21
-4.5125385039370078
0
LINE
8
BLACK
6
CONTINUOUS
10
3.8036713779527558
20
-4.5125385039370078
11
3.7747359448818898
21
-4.5050691732283461
0
LINE
8
BLACK
6
CONTINUOUS
10
3.7747359448818898
20
-4.5050691732283461
11
3.7462146062992123
21
-4.4961479921259837
0
LINE
8
BLACK
6
CONTINUOUS
10
3.7462146062992123
20
-4.4961479921259837
11
3.7181802362204723
21
-4.4857978346456688
0
LINE
8
BLACK
6
CONTINUOUS
10
3.7181802362204723
20
-4.4857978346456688
11
3.6907043700787399
21
-4.4740450000000003
0
LINE
8
BLACK
6
CONTINUOUS
10
3.6907043700787399
20
-4.4740450000000003
11
3.6638571259842521
21
-4.4609195669291335
0
LINE
8
BLACK
6
CONTINUOUS
10
3.6638571259842521
20
-4.4609195669291335
11
3.6377070078740155
21
-4.446455039370079
0
LINE
8
BLACK
6
CONTINUOUS
10
3.6377070078740155
20
-4.446455039370079
11
3.6123207480314958
21
-4.4306882677165351
0
LINE
8
BLACK
6
CONTINUOUS
10
3.6123207480314958
20
-4.4306882677165351
11
3.5877631496062992
21
-4.4136595275590551
0
LINE
8
BLACK
6
CONTINUOUS
10
3.5877631496062992
20
-4.4136595275590551
11
3.564096929133858
21
-4.3954122834645668
0
LINE
8
BLACK
6
CONTINUOUS
10
3.564096929133858
20
-4.3954122834645668
11
3.541382440944882
21
-4.3759931102362204
0
LINE
8
BLACK
6
CONTINUOUS
10
3.541382440944882
20
-4.3759931102362204
11
3.5196776771653542
21
-4.3554515748031495
0
LINE
8
BLACK
6
CONTINUOUS
10
3.5196776771653542
20
-4.3554515748031495
11
3.499037992125984
21
-4.333840078740157
0
LINE
8
BLACK
6
CONTINUOUS
10
3.499037992125984
20
-4.333840078740157
11
3.4795161417322835
21
-4.3112138188976381
0
LINE
8
BLACK
6
CONTINUOUS
10
3.4795161417322835
20
-4.3112138188976381
11
3.4611618897637793
21
-4.2876304724409451
0
LINE
8
BLACK
6
CONTINUOUS
10
3.4611618897637793
20
-4.2876304724409451
11
3.4440220866141731
21
-4.2631502755905508
0
LINE
8
BLACK
6
CONTINUOUS
10
3.4440220866141731
20
-4.2631502755905508
11
3.428140472440945
21
-4.2378357480314959
0
LINE
8
BLACK
6
CONTINUOUS
10
3.428140472440945
20
-4.2378357480314959
11
3.4135575984251969
21
-4.2117514173228345
0
LINE
8
BLACK
6
CONTINUOUS
10
3.4135575984251969
20
-4.2117514173228345
11
3.4003106692913385
21
-4.184963897637795
0
LINE
8
BLACK
6
CONTINUOUS
10
3.4003106692913385
20
-4.184963897637795
11
3.3884335039370077
21
-4.1575415354330705
0
LINE
8
BLACK
6
CONTINUOUS
10
3.3884335039370077
20
-4.1575415354330705
11
3.3779564173228347
21
-4.1295543307086611
0
LINE
8
BLACK
6
CONTINUOUS
10
3.3779564173228347
20
-4.1295543307086611
11
3.3691519685039371
21
-4.101847401574803
0
LINE
8
BLACK
6
CONTINUOUS
10
3.3691519685039371
20
-4.101847401574803
11
3.3542222047244095
21
-4.1031521259842521
0
LINE
8
BLACK
6
CONTINUOUS
10
3.3542222047244095
20
-4.1031521259842521
11
3.3384013779527559
21
-4.1030323228346459
0
LINE
8
BLACK
6
CONTINUOUS
10
3.3384013779527559
20
-4.1030323228346459
11
3.3226628346456692
21
-4.1014163779527557
0
LINE
8
BLACK
6
CONTINUOUS
10
3.3226628346456692
20
-4.1014163779527557
11
3.3071477165354328
21
-4.0983188582677164
0
LINE
8
BLACK
6
CONTINUOUS
10
3.3071477165354328
20
-4.0983188582677164
11
3.2919951968503938
21
-4.0937675196850396
0
LINE
8
BLACK
6
CONTINUOUS
10
3.2919951968503938
20
-4.0937675196850396
11
3.277341220472441
21
-4.087803149606299
0
LINE
8
BLACK
6
CONTINUOUS
10
3.277341220472441
20
-4.087803149606299
11
3.2633171653543305
21
-4.080479291338583
0
LINE
8
BLACK
6
CONTINUOUS
10
3.2633171653543305
20
-4.080479291338583
11
3.2500488188976377
21
-4.071861614173228
0
LINE
8
BLACK
6
CONTINUOUS
10
3.2500488188976377
20
-4.071861614173228
11
3.2376551968503935
21
-4.0620274015748032
0
LINE
8
BLACK
6
CONTINUOUS
10
3.2376551968503935
20
-4.0620274015748032
11
3.2262474803149606
21
-4.0510648818897641
0
LINE
8
BLACK
6
CONTINUOUS
10
3.2262474803149606
20
-4.0510648818897641
11
3.2159279921259842
21
-4.0390723228346452
0
LINE
8
BLACK
6
CONTINUOUS
10
3.2159279921259842
20
-4.0390723228346452
11
3.2067892125984252
21
-4.0261573622047244
0
LINE
8
BLACK
6
CONTINUOUS
10
3.2067892125984252
20
-4.0261573622047244
11
3.1989131889763778
21
-4.012435787401575
0
LINE
8
BLACK
6
CONTINUOUS
10
3.1989131889763778
20
-4.012435787401575
11
3.1923705118110237
21
-3.9980307086614171
0
LINE
8
BLACK
6
CONTINUOUS
10
3.1923705118110237
20
-3.9980307086614171
11
3.1872199212598424
21
-3.9830712992125985
0
LINE
8
BLACK
6
CONTINUOUS
10
3.1872199212598424
20
-3.9830712992125985
11
3.1835075590551178
21
-3.9676916929133856
0
LINE
8
BLACK
6
CONTINUOUS
10
3.1835075590551178
20
-3.9676916929133856
11
3.1812667322834645
21
-3.9520299212598426
0
LINE
8
BLACK
6
CONTINUOUS
10
3.1812667322834645
20
-3.9520299212598426
11
3.1805175590551182
21
-3.9362263779527558
0
LINE
8
BLACK
6
CONTINUOUS
10
3.1805175590551182
20
-3.9362263779527558
11
3.1812667322834645
21
-3.9204228346456693
0
LINE
8
BLACK
6
CONTINUOUS
10
3.1812667322834645
20
-3.9204228346456693
11
3.1835075590551178
21
-3.9047610236220471
0
LINE
8
BLACK
6
CONTINUOUS
10
3.1835075590551178
20
-3.9047610236220471
11
3.1872199212598424
21
-3.8893814566929135
0
LINE
8
BLACK
6
CONTINUOUS
10
3.1872199212598424
20
-3.8893814566929135
11
3.1923705511811025
21
-3.8744220078740157
0
LINE
8
BLACK
6
CONTINUOUS
10
3.1923705511811025
20
-3.8744220078740157
11
3.1989131889763778
21
-3.8600169291338582
0
LINE
8
BLACK
6
CONTINUOUS
10
3.1989131889763778
20
-3.8600169291338582
11
3.206789251968504
21
-3.8462953543307088
0
LINE
8
BLACK
6
CONTINUOUS
10
3.206789251968504
20
-3.8462953543307088
11
3.2159279921259842
21
-3.8333803937007875
0
LINE
8
BLACK
6
CONTINUOUS
10
3.2159279921259842
20
-3.8333803937007875
11
3.2262475196850393
21
-3.8213878740157479
0
LINE
8
BLACK
6
CONTINUOUS
10
3.2262475196850393
20
-3.8213878740157479
11
3.2376552362204722
21
-3.8104253543307087
0
LINE
8
BLACK
6
CONTINUOUS
10
3.2376552362204722
20
-3.8104253543307087
11
3.2500488582677165
21
-3.8005911417322835
0
LINE
8
BLACK
6
CONTINUOUS
10
3.2500488582677165
20
-3.8005911417322835
11
3.2633172047244092
21
-3.791973464566929
0
LINE
8
BLACK
6
CONTINUOUS
10
3.2633172047244092
20
-3.791973464566929
11
3.2773412598425198
21
-3.7846496062992125
0
LINE
8
BLACK
6
CONTINUOUS
10
3.2773412598425198
20
-3.7846496062992125
11
3.2919952362204725
21
-3.7786852362204724
0
LINE
8
BLACK
6
CONTINUOUS
10
3.2919952362204725
20
-3.7786852362204724
11
3.3071477559055116
21
-3.7741338976377952
0
LINE
8
BLACK
6
CONTINUOUS
10
3.3071477559055116
20
-3.7741338976377952
11
3.322662874015748
21
-3.7710363779527558
0
LINE
8
BLACK
6
CONTINUOUS
10
3.322662874015748
20
-3.7710363779527558
11
3.3384014173228347
21
-3.769420433070866
0
LINE
8
BLACK
6
CONTINUOUS
10
3.3384014173228347
20
-3.769420433070866
11
3.3542222440944882
21
-3.7693006299212599
0
LINE
8
BLACK
6
CONTINUOUS
10
3.3542222440944882
20
-3.7693006299212599
11
3.3691521259842521
21
-3.7706053149606298
0
LINE
8
BLACK
6
CONTINUOUS
10
3.3691521259842521
20
-3.7706053149606298
11
3.3779564960629922
21
-3.742898661417323
0
LINE
8
BLACK
6
CONTINUOUS
10
3.3779564960629922
20
-3.742898661417323
11
3.3884335826771652
21
-3.7149114566929131
0
LINE
8
BLACK
6
CONTINUOUS
10
3.3884335826771652
20
-3.7149114566929131
11
3.400310748031496
21
-3.6874891338582678
0
LINE
8
BLACK
6
CONTINUOUS
10
3.400310748031496
20
-3.6874891338582678
11
3.4135576377952757
21
-3.6607016141732283
0
LINE
8
BLACK
6
CONTINUOUS
10
3.4135576377952757
20
-3.6607016141732283
11
3.4281405118110237
21
-3.6346172834645669
0
LINE
8
BLACK
6
CONTINUOUS
10
3.4281405118110237
20
-3.6346172834645669
11
3.4440221259842518
21
-3.6093027165354328
0
LINE
8
BLACK
6
CONTINUOUS
10
3.4440221259842518
20
-3.6093027165354328
11
3.461161929133858
21
-3.5848225590551182
0
LINE
8
BLACK
6
CONTINUOUS
10
3.461161929133858
20
-3.5848225590551182
11
3.4795161811023623
21
-3.5612392125984251
0
LINE
8
BLACK
6
CONTINUOUS
10
3.4795161811023623
20
-3.5612392125984251
11
3.4990380708661415
21
-3.5386129133858266
0
LINE
8
BLACK
6
CONTINUOUS
10
3.4990380708661415
20
-3.5386129133858266
11
3.5196777165354329
21
-3.5170014566929133
0
LINE
8
BLACK
6
CONTINUOUS
10
3.5196777165354329
20
-3.5170014566929133
11
3.5413824803149607
21
-3.4964598818897636
0
LINE
8
BLACK
6
CONTINUOUS
10
3.5413824803149607
20
-3.4964598818897636
11
3.5640969685039368
21
-3.4770407086614172
0
LINE
8
BLACK
6
CONTINUOUS
10
3.5640969685039368
20
-3.4770407086614172
11
3.5877631889763779
21
-3.4587935039370077
0
LINE
8
BLACK
6
CONTINUOUS
10
3.5877631889763779
20
-3.4587935039370077
11
3.6123207874015746
21
-3.4417647637795277
0
LINE
8
BLACK
6
CONTINUOUS
10
3.6123207874015746
20
-3.4417647637795277
11
3.6377070078740155
21
-3.4259979921259842
0
LINE
8
BLACK
6
CONTINUOUS
10
3.6377070078740155
20
-3.4259979921259842
11
3.6638571259842521
21
-3.4115334645669289
0
LINE
8
BLACK
6
CONTINUOUS
10
3.6638571259842521
20
-3.4115334645669289
11
3.6907044094488186
21
-3.398408031496063
0
LINE
8
BLACK
6
CONTINUOUS
10
3.6907044094488186
20
-3.398408031496063
11
3.7181802755905511
21
-3.3866551968503935
0
LINE
8
BLACK
6
CONTINUOUS
10
3.7181802755905511
20
-3.3866551968503935
11
3.7462146456692911
21
-3.3763050393700786
0
LINE
8
BLACK
6
CONTINUOUS
10
3.7462146456692911
20
-3.3763050393700786
11
3.7747359448818898
21
-3.3673838582677162
0
LINE
8
BLACK
6
CONTINUOUS
10
3.7747359448818898
20
-3.3673838582677162
11
3.8036714173228345
21
-3.359914527559055
0
LINE
8
BLACK
6
CONTINUOUS
10
3.8036714173228345
20
-3.359914527559055
11
3.8329471653543306
21
-3.3539160236220473
0
LINE
8
BLACK
6
CONTINUOUS
10
3.8329471653543306
20
-3.3539160236220473
11
3.8624885039370076
21
-3.3494037007874016
0
LINE
8
BLACK
6
CONTINUOUS
10
3.8624885039370076
20
-3.3494037007874016
11
3.8922200393700788
21
-3.3463890944881891
0
LINE
8
BLACK
6
CONTINUOUS
10
3.8922200393700788
20
-3.3463890944881891
11
3.922065866141732
21
-3.3448798425196848
0
LINE
8
BLACK
6
CONTINUOUS
10
3.922065866141732
20
-3.3448798425196848
11
3.9519498818897638
21
-3.3448798425196848
0
LINE
8
BLACK
6
CONTINUOUS
10
3.9519498818897638
20
-3.3448798425196848
11
3.9817957086614171
21
-3.3463890944881891
0
LINE
8
BLACK
6
CONTINUOUS
10
3.907223307086614
20
-3.3472229527559056
11
3.8775147244094486
21
-3.3494787795275589
0
LINE
8
BLACK
6
CONTINUOUS
10
3.8775147244094486
20
-3.3494787795275589
11
3.8479579921259841
21
-3.3532321259842517
0
LINE
8
BLACK
6
CONTINUOUS
10
3.8479579921259841
20
-3.3532321259842517
11
3.8186285433070863
21
-3.3584733858267715
0
LINE
8
BLACK
6
CONTINUOUS
10
3.8186285433070863
20
-3.3584733858267715
11
3.789601220472441
21
-3.3651892125984251
0
LINE
8
BLACK
6
CONTINUOUS
10
3.789601220472441
20
-3.3651892125984251
11
3.7609500787401573
21
-3.3733624409448817
0
LINE
8
BLACK
6
CONTINUOUS
10
3.7609500787401573
20
-3.3733624409448817
11
3.7327483070866139
21
-3.3829721653543308
0
LINE
8
BLACK
6
CONTINUOUS
10
3.7327483070866139
20
-3.3829721653543308
11
3.7050678346456691
21
-3.393993937007874
0
LINE
8
BLACK
6
CONTINUOUS
10
3.7050678346456691
20
-3.393993937007874
11
3.6779793307086615
21
-3.4063996062992126
0
LINE
8
BLACK
6
CONTINUOUS
10
3.6779793307086615
20
-3.4063996062992126
11
3.6515519291338583
21
-3.4201575196850391
0
LINE
8
BLACK
6
CONTINUOUS
10
3.6515519291338583
20
-3.4201575196850391
11
3.6258530314960629
21
-3.4352325196850395
0
LINE
8
BLACK
6
CONTINUOUS
10
3.6258530314960629
20
-3.4352325196850395
11
3.6009483070866142
21
-3.4515861417322835
0
LINE
8
BLACK
6
CONTINUOUS
10
3.6009483070866142
20
-3.4515861417322835
11
3.5769012598425194
21
-3.4691766929133858
0
LINE
8
BLACK
6
CONTINUOUS
10
3.5769012598425194
20
-3.4691766929133858
11
3.5537732677165352
21
-3.4879592519685039
0
LINE
8
BLACK
6
CONTINUOUS
10
3.5537732677165352
20
-3.4879592519685039
11
3.5316233858267716
21
-3.507885866141732
0
LINE
8
BLACK
6
CONTINUOUS
10
3.5316233858267716
20
-3.507885866141732
11
3.5105081102362203
21
-3.5289056692913383
0
LINE
8
BLACK
6
CONTINUOUS
10
3.5105081102362203
20
-3.5289056692913383
11
3.490481338582677
21
-3.5509650787401572
0
LINE
8
BLACK
6
CONTINUOUS
10
3.490481338582677
20
-3.5509650787401572
11
3.4715942125984252
21
-3.5740077559055119
0
LINE
8
BLACK
6
CONTINUOUS
10
3.4715942125984252
20
-3.5740077559055119
11
3.4538949212598427
21
-3.5979748425196849
0
LINE
8
BLACK
6
CONTINUOUS
10
3.4538949212598427
20
-3.5979748425196849
11
3.4374286220472441
21
-3.6228052755905509
0
LINE
8
BLACK
6
CONTINUOUS
10
3.4374286220472441
20
-3.6228052755905509
11
3.4222373622047244
21
-3.6484355905511809
0
LINE
8
BLACK
6
CONTINUOUS
10
3.4222373622047244
20
-3.6484355905511809
11
3.4083599212598426
21
-3.6748003937007874
0
LINE
8
BLACK
6
CONTINUOUS
10
3.4083599212598426
20
-3.6748003937007874
11
3.3958316535433068
21
-3.701832440944882
0
LINE
8
BLACK
6
CONTINUOUS
10
3.3958316535433068
20
-3.701832440944882
11
3.3846846062992126
21
-3.7294626771653543
0
LINE
8
BLACK
6
CONTINUOUS
10
3.3846846062992126
20
-3.7294626771653543
11
3.3749471653543308
21
-3.7576206299212598
0
LINE
8
BLACK
6
CONTINUOUS
10
3.3749471653543308
20
-3.7576206299212598
11
3.3707967322834644
21
-3.7719278346456693
0
LINE
8
BLACK
6
CONTINUOUS
10
3.3707967322834644
20
-3.7719278346456693
11
3.3707494488188976
21
-3.771997401574803
0
LINE
8
BLACK
6
CONTINUOUS
10
3.3707494488188976
20
-3.771997401574803
11
3.3707382283464566
21
-3.7720805118110237
0
LINE
8
BLACK
6
CONTINUOUS
10
3.3707382283464566
20
-3.7720805118110237
11
3.3705821259842521
21
-3.7722438188976377
0
LINE
8
BLACK
6
CONTINUOUS
10
3.3705821259842521
20
-3.7722438188976377
11
3.370454960629921
21
-3.7724310629921258
0
LINE
8
BLACK
6
CONTINUOUS
10
3.370454960629921
20
-3.7724310629921258
11
3.370375905511811
21
-3.7724595275590551
0
LINE
8
BLACK
6
CONTINUOUS
10
3.370375905511811
20
-3.7724595275590551
11
3.3703179133858265
21
-3.7725202362204722
0
LINE
8
BLACK
6
CONTINUOUS
10
3.3703179133858265
20
-3.7725202362204722
11
3.3700953543307084
21
-3.77256062992126
0
LINE
8
BLACK
6
CONTINUOUS
10
3.3700953543307084
20
-3.77256062992126
11
3.3698826771653541
21
-3.7726372834645669
0
LINE
8
BLACK
6
CONTINUOUS
10
3.3698826771653541
20
-3.7726372834645669
11
3.3698020472440944
21
-3.7726138582677167
0
LINE
8
BLACK
6
CONTINUOUS
10
3.3698020472440944
20
-3.7726138582677167
11
3.3697194094488188
21
-3.7726288976377953
0
LINE
8
BLACK
6
CONTINUOUS
10
3.3697194094488188
20
-3.7726288976377953
11
3.3697194094488188
21
-3.7726287007874015
0
LINE
8
BLACK
6
CONTINUOUS
10
3.3697194094488188
20
-3.7726287007874015
11
3.3619640944881888
21
-3.7715771653543304
0
LINE
8
BLACK
6
CONTINUOUS
10
3.3619640944881888
20
-3.7715771653543304
11
3.3463238976377951
21
-3.7709543700787402
0
LINE
8
BLACK
6
CONTINUOUS
10
3.3463238976377951
20
-3.7709543700787402
11
3.3306949212598425
21
-3.7718139763779526
0
LINE
8
BLACK
6
CONTINUOUS
10
3.3306949212598425
20
-3.7718139763779526
11
3.3152173622047245
21
-3.7741481889763779
0
LINE
8
BLACK
6
CONTINUOUS
10
3.3152173622047245
20
-3.7741481889763779
11
3.30003
21
-3.7779361023622045
0
LINE
8
BLACK
6
CONTINUOUS
10
3.30003
20
-3.7779361023622045
11
3.2852691338582676
21
-3.7831437007874014
0
LINE
8
BLACK
6
CONTINUOUS
10
3.2852691338582676
20
-3.7831437007874014
11
3.2710670472440944
21
-3.7897243700787402
0
LINE
8
BLACK
6
CONTINUOUS
10
3.2710670472440944
20
-3.7897243700787402
11
3.2575511811023623
21
-3.7976189763779526
0
LINE
8
BLACK
6
CONTINUOUS
10
3.2575511811023623
20
-3.7976189763779526
11
3.2448427952755905
21
-3.8067568110236221
0
LINE
8
BLACK
6
CONTINUOUS
10
3.2448427952755905
20
-3.8067568110236221
11
3.2330557874015748
21
-3.817055866141732
0
LINE
8
BLACK
6
CONTINUOUS
10
3.2330557874015748
20
-3.817055866141732
11
3.2222959448818895
21
-3.8284237401574801
0
LINE
8
BLACK
6
CONTINUOUS
10
3.2222959448818895
20
-3.8284237401574801
11
3.2126597244094488
21
-3.8407585433070865
0
LINE
8
BLACK
6
CONTINUOUS
10
3.2126597244094488
20
-3.8407585433070865
11
3.2042335826771651
21
-3.8539496062992127
0
LINE
8
BLACK
6
CONTINUOUS
10
3.2042335826771651
20
-3.8539496062992127
11
3.1970931102362203
21
-3.8678786220472441
0
LINE
8
BLACK
6
CONTINUOUS
10
3.1970931102362203
20
-3.8678786220472441
11
3.1913023228346455
21
-3.8824206299212598
0
LINE
8
BLACK
6
CONTINUOUS
10
3.1913023228346455
20
-3.8824206299212598
11
3.186913149606299
21
-3.8974452362204723
0
LINE
8
BLACK
6
CONTINUOUS
10
3.186913149606299
20
-3.8974452362204723
11
3.1839649999999997
21
-3.9128176771653544
0
LINE
8
BLACK
6
CONTINUOUS
10
3.1839649999999997
20
-3.9128176771653544
11
3.1824842519685039
21
-3.9284000787401574
0
LINE
8
BLACK
6
CONTINUOUS
10
3.1824842519685039
20
-3.9284000787401574
11
3.1824842519685039
21
-3.9440526771653541
0
LINE
8
BLACK
6
CONTINUOUS
10
3.1824842519685039
20
-3.9440526771653541
11
3.1839649606299214
21
-3.9596350393700788
0
LINE
8
BLACK
6
CONTINUOUS
10
3.1839649606299214
20
-3.9596350393700788
11
3.186913149606299
21
-3.9750074803149604
0
LINE
8
BLACK
6
CONTINUOUS
10
3.186913149606299
20
-3.9750074803149604
11
3.1913022834645668
21
-3.990032086614173
0
LINE
8
BLACK
6
CONTINUOUS
10
3.1913022834645668
20
-3.990032086614173
11
3.1970930708661416
21
-4.0045741338582674
0
LINE
8
BLACK
6
CONTINUOUS
10
3.1970930708661416
20
-4.0045741338582674
11
3.2042335826771651
21
-4.0185031102362201
0
LINE
8
BLACK
6
CONTINUOUS
10
3.2042335826771651
20
-4.0185031102362201
11
3.21265968503937
21
-4.0316941732283462
0
LINE
8
BLACK
6
CONTINUOUS
10
3.21265968503937
20
-4.0316941732283462
11
3.2222959055118108
21
-4.0440289763779527
0
LINE
8
BLACK
6
CONTINUOUS
10
3.2222959055118108
20
-4.0440289763779527
11
3.2330557480314961
21
-4.0553968897637791
0
LINE
8
BLACK
6
CONTINUOUS
10
3.2330557480314961
20
-4.0553968897637791
11
3.2448427559055117
21
-4.0656959055118111
0
LINE
8
BLACK
6
CONTINUOUS
10
3.2448427559055117
20
-4.0656959055118111
11
3.2575511811023623
21
-4.0748337401574801
0
LINE
8
BLACK
6
CONTINUOUS
10
3.2575511811023623
20
-4.0748337401574801
11
3.2710670078740156
21
-4.0827283858267718
0
LINE
8
BLACK
6
CONTINUOUS
10
3.2710670078740156
20
-4.0827283858267718
11
3.2852690944881888
21
-4.0893090157480314
0
LINE
8
BLACK
6
CONTINUOUS
10
3.2852690944881888
20
-4.0893090157480314
11
3.30003
21
-4.0945166535433071
0
LINE
8
BLACK
6
CONTINUOUS
10
3.30003
20
-4.0945166535433071
11
3.3152173228346458
21
-4.0983045669291336
0
LINE
8
BLACK
6
CONTINUOUS
10
3.3152173228346458
20
-4.0983045669291336
11
3.3306948818897637
21
-4.100638779527559
0
LINE
8
BLACK
6
CONTINUOUS
10
3.3306948818897637
20
-4.100638779527559
11
3.3463238582677164
21
-4.1014983858267717
0
LINE
8
BLACK
6
CONTINUOUS
10
3.3463238582677164
20
-4.1014983858267717
11
3.36196405511811
21
-4.1008756299212594
0
LINE
8
BLACK
6
CONTINUOUS
10
3.36196405511811
20
-4.1008756299212594
11
3.3697194094488188
21
-4.09982405511811
0
LINE
8
BLACK
6
CONTINUOUS
10
3.3697194094488188
20
-4.09982405511811
11
3.3697194094488188
21
-4.0998240944881887
0
LINE
8
BLACK
6
CONTINUOUS
10
3.3697194094488188
20
-4.0998240944881887
11
3.3698020078740156
21
-4.0998390944881891
0
LINE
8
BLACK
6
CONTINUOUS
10
3.3698020078740156
20
-4.0998390944881891
11
3.3698826377952753
21
-4.0998157086614171
0
LINE
8
BLACK
6
CONTINUOUS
10
3.3698826377952753
20
-4.0998157086614171
11
3.3700952755905509
21
-4.0998923228346458
0
LINE
8
BLACK
6
CONTINUOUS
10
3.3700952755905509
20
-4.0998923228346458
11
3.3703179133858265
21
-4.0999327559055114
0
LINE
8
BLACK
6
CONTINUOUS
10
3.3703179133858265
20
-4.0999327559055114
11
3.3703759448818897
21
-4.0999934645669294
0
LINE
8
BLACK
6
CONTINUOUS
10
3.3703759448818897
20
-4.0999934645669294
11
3.3704549212598423
21
-4.1000219291338578
0
LINE
8
BLACK
6
CONTINUOUS
10
3.3704549212598423
20
-4.1000219291338578
11
3.3705819685039371
21
-4.1002090157480318
0
LINE
8
BLACK
6
CONTINUOUS
10
3.3705819685039371
20
-4.1002090157480318
11
3.3707382283464566
21
-4.1003724803149604
0
LINE
8
BLACK
6
CONTINUOUS
10
3.3707382283464566
20
-4.1003724803149604
11
3.3707494881889764
21
-4.1004556299212593
0
LINE
8
BLACK
6
CONTINUOUS
10
3.3707494881889764
20
-4.1004556299212593
11
3.3707966929133857
21
-4.1005251574803152
0
LINE
8
BLACK
6
CONTINUOUS
10
3.3707966929133857
20
-4.1005251574803152
11
3.3749471259842521
21
-4.1148323622047247
0
LINE
8
BLACK
6
CONTINUOUS
10
3.3749471259842521
20
-4.1148323622047247
11
3.3846845275590551
21
-4.1429903149606302
0
LINE
8
BLACK
6
CONTINUOUS
10
3.3846845275590551
20
-4.1429903149606302
11
3.3958315748031493
21
-4.1706205905511808
0
LINE
8
BLACK
6
CONTINUOUS
10
3.3958315748031493
20
-4.1706205905511808
11
3.408359842519685
21
-4.1976525984251971
0
LINE
8
BLACK
6
CONTINUOUS
10
3.408359842519685
20
-4.1976525984251971
11
3.4222373228346457
21
-4.2240174409448814
0
LINE
8
BLACK
6
CONTINUOUS
10
3.4222373228346457
20
-4.2240174409448814
11
3.4374285826771653
21
-4.2496477559055119
0
LINE
8
BLACK
6
CONTINUOUS
10
3.4374285826771653
20
-4.2496477559055119
11
3.4538948818897639
21
-4.2744781496062991
0
LINE
8
BLACK
6
CONTINUOUS
10
3.4538948818897639
20
-4.2744781496062991
11
3.4715941732283464
21
-4.2984452755905513
0
LINE
8
BLACK
6
CONTINUOUS
10
3.4715941732283464
20
-4.2984452755905513
11
3.4904812992125982
21
-4.3214879527559056
0
LINE
8
BLACK
6
CONTINUOUS
10
3.4904812992125982
20
-4.3214879527559056
11
3.5105080708661416
21
-4.3435473228346453
0
LINE
8
BLACK
6
CONTINUOUS
10
3.5105080708661416
20
-4.3435473228346453
11
3.5316233464566928
21
-4.3645671653543303
0
LINE
8
BLACK
6
CONTINUOUS
10
3.5316233464566928
20
-4.3645671653543303
11
3.5537732283464565
21
-4.3844937795275589
0
LINE
8
BLACK
6
CONTINUOUS
10
3.5537732283464565
20
-4.3844937795275589
11
3.5769012204724411
21
-4.4032763385826774
0
LINE
8
BLACK
6
CONTINUOUS
10
3.5769012204724411
20
-4.4032763385826774
11
3.6009482677165354
21
-4.4208668897637793
0
LINE
8
BLACK
6
CONTINUOUS
10
3.6009482677165354
20
-4.4208668897637793
11
3.6258530314960629
21
-4.4372205118110237
0
LINE
8
BLACK
6
CONTINUOUS
10
3.6258530314960629
20
-4.4372205118110237
11
3.6515518897637795
21
-4.4522955118110232
0
LINE
8
BLACK
6
CONTINUOUS
10
3.6515518897637795
20
-4.4522955118110232
11
3.6779793307086615
21
-4.4660534251968507
0
LINE
8
BLACK
6
CONTINUOUS
10
3.6779793307086615
20
-4.4660534251968507
11
3.7050678346456691
21
-4.47845905511811
0
LINE
8
BLACK
6
CONTINUOUS
10
3.7050678346456691
20
-4.47845905511811
11
3.7327483070866139
21
-4.489480866141732
0
LINE
8
BLACK
6
CONTINUOUS
10
3.7327483070866139
20
-4.489480866141732
11
3.7609500787401573
21
-4.4990905905511811
0
LINE
8
BLACK
6
CONTINUOUS
10
3.7609500787401573
20
-4.4990905905511811
11
3.7896011811023622
21
-4.5072638188976377
0
LINE
8
BLACK
6
CONTINUOUS
10
3.7896011811023622
20
-4.5072638188976377
11
3.8186285433070863
21
-4.5139796456692913
0
LINE
8
BLACK
6
CONTINUOUS
10
3.8186285433070863
20
-4.5139796456692913
11
3.8479579921259841
21
-4.5192209055118111
0
LINE
8
BLACK
6
CONTINUOUS
10
3.8479579921259841
20
-4.5192209055118111
11
3.8775147244094486
21
-4.5229742519685034
0
LINE
8
BLACK
6
CONTINUOUS
10
3.8775147244094486
20
-4.5229742519685034
11
3.907223307086614
21
-4.5252300787401571
0
LINE
8
BLACK
6
CONTINUOUS
10
3.907223307086614
20
-4.5252300787401571
11
3.9370078740157481
21
-4.525982677165354
0
LINE
8
BLACK
6
CONTINUOUS
10
3.9370078740157481
20
-4.525982677165354
11
3.9667924409448818
21
-4.5252300787401571
0
LINE
8
BLACK
6
CONTINUOUS
10
3.9667924409448818
20
-4.5252300787401571
11
3.9965010236220473
21
-4.5229742519685034
0
LINE
8
BLACK
6
CONTINUOUS
10
3.9965010236220473
20
-4.5229742519685034
11
4.0260577559055113
21
-4.5192209055118111
0
LINE
8
BLACK
6
CONTINUOUS
10
4.0260577559055113
20
-4.5192209055118111
11
4.0553872047244095
21
-4.5139796456692913
0
LINE
8
BLACK
6
CONTINUOUS
10
4.0553872047244095
20
-4.5139796456692913
11
4.0844145669291336
21
-4.5072638188976377
0
LINE
8
BLACK
6
CONTINUOUS
10
4.0844145669291336
20
-4.5072638188976377
11
4.1130656692913385
21
-4.4990905905511811
0
LINE
8
BLACK
6
CONTINUOUS
10
4.1130656692913385
20
-4.4990905905511811
11
4.1412674409448815
21
-4.489480866141732
0
LINE
8
BLACK
6
CONTINUOUS
10
4.1412674409448815
20
-4.489480866141732
11
4.1689479133858267
21
-4.47845905511811
0
LINE
8
BLACK
6
CONTINUOUS
10
4.1689479133858267
20
-4.47845905511811
11
4.1960364173228344
21
-4.4660534251968507
0
LINE
8
BLACK
6
CONTINUOUS
10
4.1960364173228344
20
-4.4660534251968507
11
4.2224638582677168
21
-4.4522955118110232
0
LINE
8
BLACK
6
CONTINUOUS
10
4.2224638582677168
20
-4.4522955118110232
11
4.2481627165354325
21
-4.4372205118110237
0
LINE
8
BLACK
6
CONTINUOUS
10
4.2481627165354325
20
-4.4372205118110237
11
4.2730674803149604
21
-4.4208668897637793
0
LINE
8
BLACK
6
CONTINUOUS
10
4.2730674803149604
20
-4.4208668897637793
11
4.2971145275590548
21
-4.4032763385826774
0
LINE
8
BLACK
6
CONTINUOUS
10
4.2971145275590548
20
-4.4032763385826774
11
4.3202425196850394
21
-4.3844937795275589
0
LINE
8
BLACK
6
CONTINUOUS
10
4.3202425196850394
20
-4.3844937795275589
11
4.342392401574803
21
-4.3645671653543303
0
LINE
8
BLACK
6
CONTINUOUS
10
4.342392401574803
20
-4.3645671653543303
11
4.3635076771653543
21
-4.3435473228346453
0
LINE
8
BLACK
6
CONTINUOUS
10
4.3635076771653543
20
-4.3435473228346453
11
4.3835344488188976
21
-4.3214879527559056
0
LINE
8
BLACK
6
CONTINUOUS
10
4.3835344488188976
20
-4.3214879527559056
11
4.4024215748031494
21
-4.2984452755905513
0
LINE
8
BLACK
6
CONTINUOUS
10
4.4024215748031494
20
-4.2984452755905513
11
4.4201208661417324
21
-4.2744781496062991
0
LINE
8
BLACK
6
CONTINUOUS
10
4.4201208661417324
20
-4.2744781496062991
11
4.4365871653543305
21
-4.2496477559055119
0
LINE
8
BLACK
6
CONTINUOUS
10
4.4365871653543305
20
-4.2496477559055119
11
4.4517784251968502
21
-4.2240174409448814
0
LINE
8
BLACK
6
CONTINUOUS
10
4.4517784251968502
20
-4.2240174409448814
11
4.4656559055118112
21
-4.1976525984251971
0
LINE
8
BLACK
6
CONTINUOUS
10
4.4656559055118112
20
-4.1976525984251971
11
4.4781841732283461
21
-4.1706205905511808
0
LINE
8
BLACK
6
CONTINUOUS
10
4.4781841732283461
20
-4.1706205905511808
11
4.4893312204724412
21
-4.1429903149606302
0
LINE
8
BLACK
6
CONTINUOUS
10
4.4893312204724412
20
-4.1429903149606302
11
4.4990686220472442
21
-4.1148323622047247
0
LINE
8
BLACK
6
CONTINUOUS
10
4.4990686220472442
20
-4.1148323622047247
11
4.5032190551181097
21
-4.1005251574803152
0
LINE
8
BLACK
6
CONTINUOUS
10
4.5032190551181097
20
-4.1005251574803152
11
4.5032662204724412
21
-4.1004556299212593
0
LINE
8
BLACK
6
CONTINUOUS
10
4.5032662204724412
20
-4.1004556299212593
11
4.5032775196850396
21
-4.1003724803149604
0
LINE
8
BLACK
6
CONTINUOUS
10
4.5032775196850396
20
-4.1003724803149604
11
4.5034337401574804
21
-4.1002090157480318
0
LINE
8
BLACK
6
CONTINUOUS
10
4.5034337401574804
20
-4.1002090157480318
11
4.5035608267716531
21
-4.1000219291338578
0
LINE
8
BLACK
6
CONTINUOUS
10
4.5035608267716531
20
-4.1000219291338578
11
4.5036397637795273
21
-4.0999934645669294
0
LINE
8
BLACK
6
CONTINUOUS
10
4.5036397637795273
20
-4.0999934645669294
11
4.5036978346456689
21
-4.0999327559055114
0
LINE
8
BLACK
6
CONTINUOUS
10
4.5036978346456689
20
-4.0999327559055114
11
4.5039204330708662
21
-4.0998923228346458
0
LINE
8
BLACK
6
CONTINUOUS
10
4.5039204330708662
20
-4.0998923228346458
11
4.5041331102362205
21
-4.0998157086614171
0
LINE
8
BLACK
6
CONTINUOUS
10
4.5041331102362205
20
-4.0998157086614171
11
4.5042137007874015
21
-4.0998390944881891
0
LINE
8
BLACK
6
CONTINUOUS
10
4.5042137007874015
20
-4.0998390944881891
11
4.5042963385826766
21
-4.0998240944881887
0
LINE
8
BLACK
6
CONTINUOUS
10
4.5042963385826766
20
-4.0998240944881887
11
4.5042963779527554
21
-4.0998238188976375
0
LINE
8
BLACK
6
CONTINUOUS
10
4.5042963779527554
20
-4.0998238188976375
11
4.5120516929133858
21
-4.1008753937007869
0
LINE
8
BLACK
6
CONTINUOUS
10
4.5120516929133858
20
-4.1008753937007869
11
4.527691889763779
21
-4.1014981496062992
0
LINE
8
BLACK
6
CONTINUOUS
10
4.527691889763779
20
-4.1014981496062992
11
4.5433208267716534
21
-4.1006385433070864
0
LINE
8
BLACK
6
CONTINUOUS
10
4.5433208267716534
20
-4.1006385433070864
11
4.5587983858267718
21
-4.0983043307086611
0
LINE
8
BLACK
6
CONTINUOUS
10
4.5587983858267718
20
-4.0983043307086611
11
4.5739857086614171
21
-4.0945164173228346
0
LINE
8
BLACK
6
CONTINUOUS
10
4.5739857086614171
20
-4.0945164173228346
11
4.5887465748031495
21
-4.0893088188976376
0
LINE
8
BLACK
6
CONTINUOUS
10
4.5887465748031495
20
-4.0893088188976376
11
4.6029486220472444
21
-4.082728188976378
0
LINE
8
BLACK
6
CONTINUOUS
10
4.6029486220472444
20
-4.082728188976378
11
4.6164644488188973
21
-4.0748335433070864
0
LINE
8
BLACK
6
CONTINUOUS
10
4.6164644488188973
20
-4.0748335433070864
11
4.6291728346456695
21
-4.0656957480314961
0
LINE
8
BLACK
6
CONTINUOUS
10
4.6291728346456695
20
-4.0656957480314961
11
4.640959803149606
21
-4.0553966929133853
0
LINE
8
BLACK
6
CONTINUOUS
10
4.640959803149606
20
-4.0553966929133853
11
4.6517196456692913
21
-4.0440288188976377
0
LINE
8
BLACK
6
CONTINUOUS
10
4.6517196456692913
20
-4.0440288188976377
11
4.661355866141732
21
-4.03169405511811
0
LINE
8
BLACK
6
CONTINUOUS
10
4.661355866141732
20
-4.03169405511811
11
4.669781968503937
21
-4.0185029921259838
0
LINE
8
BLACK
6
CONTINUOUS
10
4.669781968503937
20
-4.0185029921259838
11
4.6769224409448817
21
-4.0045740157480312
0
LINE
8
BLACK
6
CONTINUOUS
10
4.6769224409448817
20
-4.0045740157480312
11
4.682713228346457
21
-3.9900320078740155
0
LINE
8
BLACK
6
CONTINUOUS
10
4.682713228346457
20
-3.9900320078740155
11
4.6871023622047243
21
-3.9750074409448817
0
LINE
8
BLACK
6
CONTINUOUS
10
4.6871023622047243
20
-3.9750074409448817
11
4.6900505511811019
21
-3.9596350393700788
0
LINE
8
BLACK
6
CONTINUOUS
10
4.6900505511811019
20
-3.9596350393700788
11
4.6915312598425194
21
-3.9440526377952754
0
LINE
8
BLACK
6
CONTINUOUS
10
4.6915312598425194
20
-3.9440526377952754
11
4.6915312598425194
21
-3.9284000787401574
0
LINE
8
BLACK
6
CONTINUOUS
10
4.6915312598425194
20
-3.9284000787401574
11
4.6900505118110232
21
-3.9128177165354332
0
LINE
8
BLACK
6
CONTINUOUS
10
4.6900505118110232
20
-3.9128177165354332
11
4.6871023622047243
21
-3.8974452755905511
0
LINE
8
BLACK
6
CONTINUOUS
10
4.6871023622047243
20
-3.8974452755905511
11
4.682713228346457
21
-3.8824207086614173
0
LINE
8
BLACK
6
CONTINUOUS
10
4.682713228346457
20
-3.8824207086614173
11
4.6769224409448817
21
-3.8678787007874016
0
LINE
8
BLACK
6
CONTINUOUS
10
4.6769224409448817
20
-3.8678787007874016
11
4.669781968503937
21
-3.8539497244094489
0
LINE
8
BLACK
6
CONTINUOUS
10
4.669781968503937
20
-3.8539497244094489
11
4.6613558267716533
21
-3.8407587007874016
0
LINE
8
BLACK
6
CONTINUOUS
10
4.6613558267716533
20
-3.8407587007874016
11
4.6517196456692913
21
-3.8284238976377951
0
LINE
8
BLACK
6
CONTINUOUS
10
4.6517196456692913
20
-3.8284238976377951
11
4.640959803149606
21
-3.817056023622047
0
LINE
8
BLACK
6
CONTINUOUS
10
4.640959803149606
20
-3.817056023622047
11
4.6291728346456695
21
-3.8067570078740158
0
LINE
8
BLACK
6
CONTINUOUS
10
4.6291728346456695
20
-3.8067570078740158
11
4.6164644094488185
21
-3.7976191732283464
0
LINE
8
BLACK
6
CONTINUOUS
10
4.6164644094488185
20
-3.7976191732283464
11
4.6029485826771657
21
-3.789724566929134
0
LINE
8
BLACK
6
CONTINUOUS
10
4.6029485826771657
20
-3.789724566929134
11
4.5887465354330708
21
-3.7831439370078739
0
LINE
8
BLACK
6
CONTINUOUS
10
4.5887465354330708
20
-3.7831439370078739
11
4.5739856692913383
21
-3.7779362992125982
0
LINE
8
BLACK
6
CONTINUOUS
10
4.5739856692913383
20
-3.7779362992125982
11
4.558798346456693
21
-3.7741484251968505
0
LINE
8
BLACK
6
CONTINUOUS
10
4.558798346456693
20
-3.7741484251968505
11
4.5433207874015746
21
-3.7718142125984251
0
LINE
8
BLACK
6
CONTINUOUS
10
4.5433207874015746
20
-3.7718142125984251
11
4.5276918503937003
21
-3.7709546062992123
0
LINE
8
BLACK
6
CONTINUOUS
10
4.5276918503937003
20
-3.7709546062992123
11
4.5120516929133858
21
-3.7715774015748029
0
LINE
8
BLACK
6
CONTINUOUS
10
4.5120516929133858
20
-3.7715774015748029
11
4.5042963385826766
21
-3.7726289370078741
0
LINE
8
BLACK
6
CONTINUOUS
10
4.5042963385826766
20
-3.7726289370078741
11
4.5042963385826766
21
-3.7726288976377953
0
LINE
8
BLACK
6
CONTINUOUS
10
4.5042963385826766
20
-3.7726288976377953
11
4.5042136614173227
21
-3.7726138582677167
0
LINE
8
BLACK
6
CONTINUOUS
10
4.5042136614173227
20
-3.7726138582677167
11
4.5041330708661418
21
-3.7726372834645669
0
LINE
8
BLACK
6
CONTINUOUS
10
4.5041330708661418
20
-3.7726372834645669
11
4.5039203543307087
21
-3.77256062992126
0
LINE
8
BLACK
6
CONTINUOUS
10
4.5039203543307087
20
-3.77256062992126
11
4.5036978346456689
21
-3.7725202362204722
0
LINE
8
BLACK
6
CONTINUOUS
10
4.5036978346456689
20
-3.7725202362204722
11
4.5036398031496061
21
-3.7724595275590551
0
LINE
8
BLACK
6
CONTINUOUS
10
4.5036398031496061
20
-3.7724595275590551
11
4.5035607874015744
21
-3.7724310629921258
0
LINE
8
BLACK
6
CONTINUOUS
10
4.5035607874015744
20
-3.7724310629921258
11
4.5034335826771654
21
-3.7722438188976377
0
LINE
8
BLACK
6
CONTINUOUS
10
4.5034335826771654
20
-3.7722438188976377
11
4.5032775196850396
21
-3.7720805118110237
0
LINE
8
BLACK
6
CONTINUOUS
10
4.5032775196850396
20
-3.7720805118110237
11
4.5032662598425199
21
-3.771997401574803
0
LINE
8
BLACK
6
CONTINUOUS
10
4.5032662598425199
20
-3.771997401574803
11
4.503219015748031
21
-3.7719278346456693
0
LINE
8
BLACK
6
CONTINUOUS
10
4.503219015748031
20
-3.7719278346456693
11
4.4990685826771655
21
-3.7576206299212598
0
LINE
8
BLACK
6
CONTINUOUS
10
4.4990685826771655
20
-3.7576206299212598
11
4.4893311417322836
21
-3.7294626771653543
0
LINE
8
BLACK
6
CONTINUOUS
10
4.4893311417322836
20
-3.7294626771653543
11
4.4781840944881885
21
-3.701832440944882
0
LINE
8
BLACK
6
CONTINUOUS
10
4.4781840944881885
20
-3.701832440944882
11
4.4656558267716537
21
-3.6748003937007874
0
LINE
8
BLACK
6
CONTINUOUS
10
4.4656558267716537
20
-3.6748003937007874
11
4.4517783858267714
21
-3.6484355905511809
0
LINE
8
BLACK
6
CONTINUOUS
10
4.4517783858267714
20
-3.6484355905511809
11
4.4365871259842518
21
-3.6228052755905509
0
LINE
8
BLACK
6
CONTINUOUS
10
4.4365871259842518
20
-3.6228052755905509
11
4.4201208267716536
21
-3.5979748425196849
0
LINE
8
BLACK
6
CONTINUOUS
10
4.4201208267716536
20
-3.5979748425196849
11
4.4024215354330707
21
-3.5740077559055119
0
LINE
8
BLACK
6
CONTINUOUS
10
4.4024215354330707
20
-3.5740077559055119
11
4.3835344094488189
21
-3.5509650787401572
0
LINE
8
BLACK
6
CONTINUOUS
10
4.3835344094488189
20
-3.5509650787401572
11
4.3635076377952755
21
-3.5289056692913383
0
LINE
8
BLACK
6
CONTINUOUS
10
4.3635076377952755
20
-3.5289056692913383
11
4.3423923622047242
21
-3.507885866141732
0
LINE
8
BLACK
6
CONTINUOUS
10
4.3423923622047242
20
-3.507885866141732
11
4.3202424803149606
21
-3.4879592519685039
0
LINE
8
BLACK
6
CONTINUOUS
10
4.3202424803149606
20
-3.4879592519685039
11
4.297114488188976
21
-3.4691766929133858
0
LINE
8
BLACK
6
CONTINUOUS
10
4.297114488188976
20
-3.4691766929133858
11
4.2730674409448817
21
-3.4515861417322835
0
LINE
8
BLACK
6
CONTINUOUS
10
4.2730674409448817
20
-3.4515861417322835
11
4.2481627165354325
21
-3.4352325196850395
0
LINE
8
BLACK
6
CONTINUOUS
10
4.2481627165354325
20
-3.4352325196850395
11
4.222463818897638
21
-3.4201575196850391
0
LINE
8
BLACK
6
CONTINUOUS
10
4.222463818897638
20
-3.4201575196850391
11
4.1960364173228344
21
-3.4063996062992126
0
LINE
8
BLACK
6
CONTINUOUS
10
4.1960364173228344
20
-3.4063996062992126
11
4.1689479133858267
21
-3.393993937007874
0
LINE
8
BLACK
6
CONTINUOUS
10
4.1689479133858267
20
-3.393993937007874
11
4.1412674409448815
21
-3.3829721653543308
0
LINE
8
BLACK
6
CONTINUOUS
10
4.1412674409448815
20
-3.3829721653543308
11
4.1130656692913385
21
-3.3733624409448817
0
LINE
8
BLACK
6
CONTINUOUS
10
4.1130656692913385
20
-3.3733624409448817
11
4.0844145275590549
21
-3.3651892125984251
0
LINE
8
BLACK
6
CONTINUOUS
10
4.0844145275590549
20
-3.3651892125984251
11
4.0553872047244095
21
-3.3584733858267715
0
LINE
8
BLACK
6
CONTINUOUS
10
4.0553872047244095
20
-3.3584733858267715
11
4.0260577559055113
21
-3.3532321259842517
0
LINE
8
BLACK
6
CONTINUOUS
10
4.0260577559055113
20
-3.3532321259842517
11
3.9965010236220473
21
-3.3494787795275589
0
LINE
8
BLACK
6
CONTINUOUS
10
3.9965010236220473
20
-3.3494787795275589
11
3.9667924409448818
21
-3.3472229527559056
0
LINE
8
BLACK
6
CONTINUOUS
10
3.9667924409448818
20
-3.3472229527559056
11
3.9370078740157481
21
-3.3464703543307084
0
LINE
8
BLACK
6
CONTINUOUS
10
3.9370078740157481
20
-3.3464703543307084
11
3.907223307086614
21
-3.3472229527559056
  0
ENDSEC
  0
EOF
