  0
SECTION
  2
HEADER
  9
$ANGBASE
  50
0.0
  9
$ANGDIR
  70
1
  9
$MEASUREMENT
  70
0
  0
ENDSEC
  0
SECTION
  2
TABLES
  0
TABLE
  2
LTYPE
  70
4
  0
LTYPE
  5
40F
  2
CONTINUOUS
  70
0
  3
Solid line
  72
65
  73
0
  40
0.0
  0
LTYPE
  5
410
  2
DASHDOT
 70
0
  3
Dash Dot ____ _ ____ _
 72
65
 73
4
 40
2.0
 49
1.25
 49
-0.25
 49
0.25
 49
-0.25
  0
LTYPE
  5
411
  2
DASHED
 70
0
  3
Dashed __ __ __ __ __
 72
65
 73
2
 40
0.75
 49
0.5
 49
-0.25
  0
LTYPE
  5
43B
  2
DOTTED
 70
0
  3
Dotted .  .  .  .
 72
65
 73
2
 40
0.2
 49
0.0
 49
-0.2
  0
ENDTAB
  0
TABLE
  2
STYLE
  70
4
  0
STYLE
  2
KICAD
  70
0
  40
0
  41
1
  42
1
  50
0
  71
0
  3
isocp.shx
  0
STYLE
  2
KICADB
  70
0
  40
0
  41
1
  42
1
  50
0
  71
0
  3
isocp.shx
  0
STYLE
  2
KICADI
  70
0
  40
0
  41
1
  42
1
  50
15
  71
0
  3
isocp.shx
  0
STYLE
  2
KICADBI
  70
0
  40
0
  41
1
  42
1
  50
15
  71
0
  3
isocp.shx
  0
ENDTAB
  0
TABLE
  2
LAYER
  70
1
  0
LAYER
  2
BLACK
  70
0
  62
7
  6
CONTINUOUS
  0
ENDTAB
  0
ENDSEC
  0
SECTION
  2
ENTITIES
0
LINE
8
BLACK
6
CONTINUOUS
10
6.2364778346456688
20
-3.6155599999999999
11
6.2390323228346452
21
-3.6172668897637794
0
LINE
8
BLACK
6
CONTINUOUS
10
6.2390323228346452
20
-3.6172668897637794
11
6.2407392125984247
21
-3.6198213779527557
0
LINE
8
BLACK
6
CONTINUOUS
10
6.2407392125984247
20
-3.6198213779527557
11
6.241338582677165
21
-3.6228346456692915
0
LINE
8
BLACK
6
CONTINUOUS
10
6.241338582677165
20
-3.6228346456692915
11
6.241338582677165
21
-3.6444881889763781
0
LINE
8
BLACK
6
CONTINUOUS
10
6.241338582677165
20
-3.6444881889763781
11
6.2407392125984247
21
-3.6475014566929134
0
LINE
8
BLACK
6
CONTINUOUS
10
6.2407392125984247
20
-3.6475014566929134
11
6.2390323228346452
21
-3.6500559448818897
0
LINE
8
BLACK
6
CONTINUOUS
10
6.2390323228346452
20
-3.6500559448818897
11
6.2364778346456688
21
-3.6517628346456692
0
LINE
8
BLACK
6
CONTINUOUS
10
6.2364778346456688
20
-3.6517628346456692
11
6.2334645669291335
21
-3.6523622047244095
0
LINE
8
BLACK
6
CONTINUOUS
10
6.2334645669291335
20
-3.6523622047244095
11
6.2177165354330706
21
-3.6523622047244095
0
LINE
8
BLACK
6
CONTINUOUS
10
6.2177165354330706
20
-3.6523622047244095
11
6.2147032677165353
21
-3.6517628346456692
0
LINE
8
BLACK
6
CONTINUOUS
10
6.2147032677165353
20
-3.6517628346456692
11
6.212148779527559
21
-3.6500559448818897
0
LINE
8
BLACK
6
CONTINUOUS
10
6.212148779527559
20
-3.6500559448818897
11
6.2104418897637794
21
-3.6475014566929134
0
LINE
8
BLACK
6
CONTINUOUS
10
6.2104418897637794
20
-3.6475014566929134
11
6.2098425196850391
21
-3.6444881889763781
0
LINE
8
BLACK
6
CONTINUOUS
10
6.2098425196850391
20
-3.6444881889763781
11
6.2098425196850391
21
-3.6228346456692915
0
LINE
8
BLACK
6
CONTINUOUS
10
6.2098425196850391
20
-3.6228346456692915
11
6.2104418897637794
21
-3.6198213779527557
0
LINE
8
BLACK
6
CONTINUOUS
10
6.2104418897637794
20
-3.6198213779527557
11
6.212148779527559
21
-3.6172668897637794
0
LINE
8
BLACK
6
CONTINUOUS
10
6.212148779527559
20
-3.6172668897637794
11
6.2147032677165353
21
-3.6155599999999999
0
LINE
8
BLACK
6
CONTINUOUS
10
6.2147032677165353
20
-3.6155599999999999
11
6.2177165354330706
21
-3.6149606299212595
0
LINE
8
BLACK
6
CONTINUOUS
10
6.2177165354330706
20
-3.6149606299212595
11
6.2334645669291335
21
-3.6149606299212595
0
LINE
8
BLACK
6
CONTINUOUS
10
6.2334645669291335
20
-3.6149606299212595
11
6.2364778346456688
21
-3.6155599999999999
0
LINE
8
BLACK
6
CONTINUOUS
10
6.301438464566929
20
-3.6155599999999999
11
6.3039929527559053
21
-3.6172668897637794
0
LINE
8
BLACK
6
CONTINUOUS
10
6.3039929527559053
20
-3.6172668897637794
11
6.3056998425196849
21
-3.6198213779527557
0
LINE
8
BLACK
6
CONTINUOUS
10
6.3056998425196849
20
-3.6198213779527557
11
6.3062992125984252
21
-3.6228346456692915
0
LINE
8
BLACK
6
CONTINUOUS
10
6.3062992125984252
20
-3.6228346456692915
11
6.3062992125984252
21
-3.6444881889763781
0
LINE
8
BLACK
6
CONTINUOUS
10
6.3062992125984252
20
-3.6444881889763781
11
6.3056998425196849
21
-3.6475014566929134
0
LINE
8
BLACK
6
CONTINUOUS
10
6.3056998425196849
20
-3.6475014566929134
11
6.3039929527559053
21
-3.6500559448818897
0
LINE
8
BLACK
6
CONTINUOUS
10
6.3039929527559053
20
-3.6500559448818897
11
6.301438464566929
21
-3.6517628346456692
0
LINE
8
BLACK
6
CONTINUOUS
10
6.301438464566929
20
-3.6517628346456692
11
6.2984251968503937
21
-3.6523622047244095
0
LINE
8
BLACK
6
CONTINUOUS
10
6.2984251968503937
20
-3.6523622047244095
11
6.2826771653543307
21
-3.6523622047244095
0
LINE
8
BLACK
6
CONTINUOUS
10
6.2826771653543307
20
-3.6523622047244095
11
6.2796638976377954
21
-3.6517628346456692
0
LINE
8
BLACK
6
CONTINUOUS
10
6.2796638976377954
20
-3.6517628346456692
11
6.2771094094488191
21
-3.6500559448818897
0
LINE
8
BLACK
6
CONTINUOUS
10
6.2771094094488191
20
-3.6500559448818897
11
6.2754025196850396
21
-3.6475014566929134
0
LINE
8
BLACK
6
CONTINUOUS
10
6.2754025196850396
20
-3.6475014566929134
11
6.2748031496062993
21
-3.6444881889763781
0
LINE
8
BLACK
6
CONTINUOUS
10
6.2748031496062993
20
-3.6444881889763781
11
6.2748031496062993
21
-3.6228346456692915
0
LINE
8
BLACK
6
CONTINUOUS
10
6.2748031496062993
20
-3.6228346456692915
11
6.2754025196850396
21
-3.6198213779527557
0
LINE
8
BLACK
6
CONTINUOUS
10
6.2754025196850396
20
-3.6198213779527557
11
6.2771094094488191
21
-3.6172668897637794
0
LINE
8
BLACK
6
CONTINUOUS
10
6.2771094094488191
20
-3.6172668897637794
11
6.2796638976377954
21
-3.6155599999999999
0
LINE
8
BLACK
6
CONTINUOUS
10
6.2796638976377954
20
-3.6155599999999999
11
6.2826771653543307
21
-3.6149606299212595
0
LINE
8
BLACK
6
CONTINUOUS
10
6.2826771653543307
20
-3.6149606299212595
11
6.2984251968503937
21
-3.6149606299212595
0
LINE
8
BLACK
6
CONTINUOUS
10
6.2984251968503937
20
-3.6149606299212595
11
6.301438464566929
21
-3.6155599999999999
0
LINE
8
BLACK
6
CONTINUOUS
10
6.0598689370078738
20
-3.5814578740157481
11
6.0630620866141731
21
-3.5835914566929135
0
LINE
8
BLACK
6
CONTINUOUS
10
6.0630620866141731
20
-3.5835914566929135
11
6.065195669291338
21
-3.5867846062992124
0
LINE
8
BLACK
6
CONTINUOUS
10
6.065195669291338
20
-3.5867846062992124
11
6.0659448818897639
21
-3.590551181102362
0
LINE
8
BLACK
6
CONTINUOUS
10
6.0659448818897639
20
-3.590551181102362
11
6.0659448818897639
21
-3.6279527559055116
0
LINE
8
BLACK
6
CONTINUOUS
10
6.0659448818897639
20
-3.6279527559055116
11
6.065195669291338
21
-3.6317193307086613
0
LINE
8
BLACK
6
CONTINUOUS
10
6.065195669291338
20
-3.6317193307086613
11
6.0630620866141731
21
-3.6349124803149606
0
LINE
8
BLACK
6
CONTINUOUS
10
6.0630620866141731
20
-3.6349124803149606
11
6.0598689370078738
21
-3.637046062992126
0
LINE
8
BLACK
6
CONTINUOUS
10
6.0598689370078738
20
-3.637046062992126
11
6.0561023622047241
21
-3.6377952755905509
0
LINE
8
BLACK
6
CONTINUOUS
10
6.0561023622047241
20
-3.6377952755905509
11
6.0364173228346454
21
-3.6377952755905509
0
LINE
8
BLACK
6
CONTINUOUS
10
6.0364173228346454
20
-3.6377952755905509
11
6.0326507480314957
21
-3.637046062992126
0
LINE
8
BLACK
6
CONTINUOUS
10
6.0326507480314957
20
-3.637046062992126
11
6.0294575984251964
21
-3.6349124803149606
0
LINE
8
BLACK
6
CONTINUOUS
10
6.0294575984251964
20
-3.6349124803149606
11
6.0273240157480314
21
-3.6317193307086613
0
LINE
8
BLACK
6
CONTINUOUS
10
6.0273240157480314
20
-3.6317193307086613
11
6.0265748031496065
21
-3.6279527559055116
0
LINE
8
BLACK
6
CONTINUOUS
10
6.0265748031496065
20
-3.6279527559055116
11
6.0265748031496065
21
-3.590551181102362
0
LINE
8
BLACK
6
CONTINUOUS
10
6.0265748031496065
20
-3.590551181102362
11
6.0273240157480314
21
-3.5867846062992124
0
LINE
8
BLACK
6
CONTINUOUS
10
6.0273240157480314
20
-3.5867846062992124
11
6.0294575984251964
21
-3.5835914566929135
0
LINE
8
BLACK
6
CONTINUOUS
10
6.0294575984251964
20
-3.5835914566929135
11
6.0326507480314957
21
-3.5814578740157481
0
LINE
8
BLACK
6
CONTINUOUS
10
6.0326507480314957
20
-3.5814578740157481
11
6.0364173228346454
21
-3.5807086614173227
0
LINE
8
BLACK
6
CONTINUOUS
10
6.0364173228346454
20
-3.5807086614173227
11
6.0561023622047241
21
-3.5807086614173227
0
LINE
8
BLACK
6
CONTINUOUS
10
6.0561023622047241
20
-3.5807086614173227
11
6.0598689370078738
21
-3.5814578740157481
0
LINE
8
BLACK
6
CONTINUOUS
10
6.1346720866141728
20
-3.5814578740157481
11
6.1378652362204722
21
-3.5835914566929135
0
LINE
8
BLACK
6
CONTINUOUS
10
6.1378652362204722
20
-3.5835914566929135
11
6.139998818897638
21
-3.5867846062992124
0
LINE
8
BLACK
6
CONTINUOUS
10
6.139998818897638
20
-3.5867846062992124
11
6.140748031496063
21
-3.590551181102362
0
LINE
8
BLACK
6
CONTINUOUS
10
6.140748031496063
20
-3.590551181102362
11
6.140748031496063
21
-3.6279527559055116
0
LINE
8
BLACK
6
CONTINUOUS
10
6.140748031496063
20
-3.6279527559055116
11
6.139998818897638
21
-3.6317193307086613
0
LINE
8
BLACK
6
CONTINUOUS
10
6.139998818897638
20
-3.6317193307086613
11
6.1378652362204722
21
-3.6349124803149606
0
LINE
8
BLACK
6
CONTINUOUS
10
6.1378652362204722
20
-3.6349124803149606
11
6.1346720866141728
21
-3.637046062992126
0
LINE
8
BLACK
6
CONTINUOUS
10
6.1346720866141728
20
-3.637046062992126
11
6.1309055118110232
21
-3.6377952755905509
0
LINE
8
BLACK
6
CONTINUOUS
10
6.1309055118110232
20
-3.6377952755905509
11
6.1112204724409445
21
-3.6377952755905509
0
LINE
8
BLACK
6
CONTINUOUS
10
6.1112204724409445
20
-3.6377952755905509
11
6.1074538976377948
21
-3.637046062992126
0
LINE
8
BLACK
6
CONTINUOUS
10
6.1074538976377948
20
-3.637046062992126
11
6.1042607480314963
21
-3.6349124803149606
0
LINE
8
BLACK
6
CONTINUOUS
10
6.1042607480314963
20
-3.6349124803149606
11
6.1021271653543305
21
-3.6317193307086613
0
LINE
8
BLACK
6
CONTINUOUS
10
6.1021271653543305
20
-3.6317193307086613
11
6.1013779527559056
21
-3.6279527559055116
0
LINE
8
BLACK
6
CONTINUOUS
10
6.1013779527559056
20
-3.6279527559055116
11
6.1013779527559056
21
-3.590551181102362
0
LINE
8
BLACK
6
CONTINUOUS
10
6.1013779527559056
20
-3.590551181102362
11
6.1021271653543305
21
-3.5867846062992124
0
LINE
8
BLACK
6
CONTINUOUS
10
6.1021271653543305
20
-3.5867846062992124
11
6.1042607480314963
21
-3.5835914566929135
0
LINE
8
BLACK
6
CONTINUOUS
10
6.1042607480314963
20
-3.5835914566929135
11
6.1074538976377948
21
-3.5814578740157481
0
LINE
8
BLACK
6
CONTINUOUS
10
6.1074538976377948
20
-3.5814578740157481
11
6.1112204724409445
21
-3.5807086614173227
0
LINE
8
BLACK
6
CONTINUOUS
10
6.1112204724409445
20
-3.5807086614173227
11
6.1309055118110232
21
-3.5807086614173227
0
LINE
8
BLACK
6
CONTINUOUS
10
6.1309055118110232
20
-3.5807086614173227
11
6.1346720866141728
21
-3.5814578740157481
0
LINE
8
BLACK
6
CONTINUOUS
10
6.4461575984251969
20
-3.5791896850393701
11
6.4480734645669289
21
-3.580469842519685
0
LINE
8
BLACK
6
CONTINUOUS
10
6.4480734645669289
20
-3.580469842519685
11
6.4493536220472443
21
-3.582385708661417
0
LINE
8
BLACK
6
CONTINUOUS
10
6.4493536220472443
20
-3.582385708661417
11
6.4498031496062991
21
-3.5846456692913384
0
LINE
8
BLACK
6
CONTINUOUS
10
6.4498031496062991
20
-3.5846456692913384
11
6.4498031496062991
21
-3.5964566929133857
0
LINE
8
BLACK
6
CONTINUOUS
10
6.4498031496062991
20
-3.5964566929133857
11
6.4493536220472443
21
-3.5987166535433071
0
LINE
8
BLACK
6
CONTINUOUS
10
6.4493536220472443
20
-3.5987166535433071
11
6.4480734645669289
21
-3.6006325196850395
0
LINE
8
BLACK
6
CONTINUOUS
10
6.4480734645669289
20
-3.6006325196850395
11
6.4461575984251969
21
-3.6019126771653545
0
LINE
8
BLACK
6
CONTINUOUS
10
6.4461575984251969
20
-3.6019126771653545
11
6.443897637795275
21
-3.6023622047244093
0
LINE
8
BLACK
6
CONTINUOUS
10
6.443897637795275
20
-3.6023622047244093
11
6.3868110236220472
21
-3.6023622047244093
0
LINE
8
BLACK
6
CONTINUOUS
10
6.3868110236220472
20
-3.6023622047244093
11
6.3845510629921263
21
-3.6019126771653545
0
LINE
8
BLACK
6
CONTINUOUS
10
6.3845510629921263
20
-3.6019126771653545
11
6.3826351968503934
21
-3.6006325196850395
0
LINE
8
BLACK
6
CONTINUOUS
10
6.3826351968503934
20
-3.6006325196850395
11
6.3813550393700789
21
-3.5987166535433071
0
LINE
8
BLACK
6
CONTINUOUS
10
6.3813550393700789
20
-3.5987166535433071
11
6.3809055118110232
21
-3.5964566929133857
0
LINE
8
BLACK
6
CONTINUOUS
10
6.3809055118110232
20
-3.5964566929133857
11
6.3809055118110232
21
-3.5846456692913384
0
LINE
8
BLACK
6
CONTINUOUS
10
6.3809055118110232
20
-3.5846456692913384
11
6.3813550393700789
21
-3.582385708661417
0
LINE
8
BLACK
6
CONTINUOUS
10
6.3813550393700789
20
-3.582385708661417
11
6.3826351968503934
21
-3.580469842519685
0
LINE
8
BLACK
6
CONTINUOUS
10
6.3826351968503934
20
-3.580469842519685
11
6.3845510629921263
21
-3.5791896850393701
0
LINE
8
BLACK
6
CONTINUOUS
10
6.3845510629921263
20
-3.5791896850393701
11
6.3868110236220472
21
-3.5787401574803148
0
LINE
8
BLACK
6
CONTINUOUS
10
6.3868110236220472
20
-3.5787401574803148
11
6.443897637795275
21
-3.5787401574803148
0
LINE
8
BLACK
6
CONTINUOUS
10
6.443897637795275
20
-3.5787401574803148
11
6.4461575984251969
21
-3.5791896850393701
0
LINE
8
BLACK
6
CONTINUOUS
10
6.648913503937008
20
-3.5791896850393701
11
6.65082937007874
21
-3.580469842519685
0
LINE
8
BLACK
6
CONTINUOUS
10
6.65082937007874
20
-3.580469842519685
11
6.6521095275590554
21
-3.582385708661417
0
LINE
8
BLACK
6
CONTINUOUS
10
6.6521095275590554
20
-3.582385708661417
11
6.6525590551181102
21
-3.5846456692913384
0
LINE
8
BLACK
6
CONTINUOUS
10
6.6525590551181102
20
-3.5846456692913384
11
6.6525590551181102
21
-3.5964566929133857
0
LINE
8
BLACK
6
CONTINUOUS
10
6.6525590551181102
20
-3.5964566929133857
11
6.6521095275590554
21
-3.5987166535433071
0
LINE
8
BLACK
6
CONTINUOUS
10
6.6521095275590554
20
-3.5987166535433071
11
6.65082937007874
21
-3.6006325196850395
0
LINE
8
BLACK
6
CONTINUOUS
10
6.65082937007874
20
-3.6006325196850395
11
6.648913503937008
21
-3.6019126771653545
0
LINE
8
BLACK
6
CONTINUOUS
10
6.648913503937008
20
-3.6019126771653545
11
6.6466535433070861
21
-3.6023622047244093
0
LINE
8
BLACK
6
CONTINUOUS
10
6.6466535433070861
20
-3.6023622047244093
11
6.5895669291338583
21
-3.6023622047244093
0
LINE
8
BLACK
6
CONTINUOUS
10
6.5895669291338583
20
-3.6023622047244093
11
6.5873069685039365
21
-3.6019126771653545
0
LINE
8
BLACK
6
CONTINUOUS
10
6.5873069685039365
20
-3.6019126771653545
11
6.5853911023622045
21
-3.6006325196850395
0
LINE
8
BLACK
6
CONTINUOUS
10
6.5853911023622045
20
-3.6006325196850395
11
6.58411094488189
21
-3.5987166535433071
0
LINE
8
BLACK
6
CONTINUOUS
10
6.58411094488189
20
-3.5987166535433071
11
6.5836614173228343
21
-3.5964566929133857
0
LINE
8
BLACK
6
CONTINUOUS
10
6.5836614173228343
20
-3.5964566929133857
11
6.5836614173228343
21
-3.5846456692913384
0
LINE
8
BLACK
6
CONTINUOUS
10
6.5836614173228343
20
-3.5846456692913384
11
6.58411094488189
21
-3.582385708661417
0
LINE
8
BLACK
6
CONTINUOUS
10
6.58411094488189
20
-3.582385708661417
11
6.5853911023622045
21
-3.580469842519685
0
LINE
8
BLACK
6
CONTINUOUS
10
6.5853911023622045
20
-3.580469842519685
11
6.5873069685039365
21
-3.5791896850393701
0
LINE
8
BLACK
6
CONTINUOUS
10
6.5873069685039365
20
-3.5791896850393701
11
6.5895669291338583
21
-3.5787401574803148
0
LINE
8
BLACK
6
CONTINUOUS
10
6.5895669291338583
20
-3.5787401574803148
11
6.6466535433070861
21
-3.5787401574803148
0
LINE
8
BLACK
6
CONTINUOUS
10
6.6466535433070861
20
-3.5787401574803148
11
6.648913503937008
21
-3.5791896850393701
0
LINE
8
BLACK
6
CONTINUOUS
10
6.2364778346456688
20
-3.5167411023622046
11
6.2390323228346452
21
-3.5184479921259841
0
LINE
8
BLACK
6
CONTINUOUS
10
6.2390323228346452
20
-3.5184479921259841
11
6.2407392125984247
21
-3.5210024803149604
0
LINE
8
BLACK
6
CONTINUOUS
10
6.2407392125984247
20
-3.5210024803149604
11
6.241338582677165
21
-3.5240157480314962
0
LINE
8
BLACK
6
CONTINUOUS
10
6.241338582677165
20
-3.5240157480314962
11
6.241338582677165
21
-3.5456692913385828
0
LINE
8
BLACK
6
CONTINUOUS
10
6.241338582677165
20
-3.5456692913385828
11
6.2407392125984247
21
-3.5486825590551181
0
LINE
8
BLACK
6
CONTINUOUS
10
6.2407392125984247
20
-3.5486825590551181
11
6.2390323228346452
21
-3.5512370472440944
0
LINE
8
BLACK
6
CONTINUOUS
10
6.2390323228346452
20
-3.5512370472440944
11
6.2364778346456688
21
-3.5529439370078739
0
LINE
8
BLACK
6
CONTINUOUS
10
6.2364778346456688
20
-3.5529439370078739
11
6.2334645669291335
21
-3.5535433070866143
0
LINE
8
BLACK
6
CONTINUOUS
10
6.2334645669291335
20
-3.5535433070866143
11
6.2177165354330706
21
-3.5535433070866143
0
LINE
8
BLACK
6
CONTINUOUS
10
6.2177165354330706
20
-3.5535433070866143
11
6.2147032677165353
21
-3.5529439370078739
0
LINE
8
BLACK
6
CONTINUOUS
10
6.2147032677165353
20
-3.5529439370078739
11
6.212148779527559
21
-3.5512370472440944
0
LINE
8
BLACK
6
CONTINUOUS
10
6.212148779527559
20
-3.5512370472440944
11
6.2104418897637794
21
-3.5486825590551181
0
LINE
8
BLACK
6
CONTINUOUS
10
6.2104418897637794
20
-3.5486825590551181
11
6.2098425196850391
21
-3.5456692913385828
0
LINE
8
BLACK
6
CONTINUOUS
10
6.2098425196850391
20
-3.5456692913385828
11
6.2098425196850391
21
-3.5240157480314962
0
LINE
8
BLACK
6
CONTINUOUS
10
6.2098425196850391
20
-3.5240157480314962
11
6.2104418897637794
21
-3.5210024803149604
0
LINE
8
BLACK
6
CONTINUOUS
10
6.2104418897637794
20
-3.5210024803149604
11
6.212148779527559
21
-3.5184479921259841
0
LINE
8
BLACK
6
CONTINUOUS
10
6.212148779527559
20
-3.5184479921259841
11
6.2147032677165353
21
-3.5167411023622046
0
LINE
8
BLACK
6
CONTINUOUS
10
6.2147032677165353
20
-3.5167411023622046
11
6.2177165354330706
21
-3.5161417322834643
0
LINE
8
BLACK
6
CONTINUOUS
10
6.2177165354330706
20
-3.5161417322834643
11
6.2334645669291335
21
-3.5161417322834643
0
LINE
8
BLACK
6
CONTINUOUS
10
6.2334645669291335
20
-3.5161417322834643
11
6.2364778346456688
21
-3.5167411023622046
0
LINE
8
BLACK
6
CONTINUOUS
10
6.301438464566929
20
-3.5167411023622046
11
6.3039929527559053
21
-3.5184479921259841
0
LINE
8
BLACK
6
CONTINUOUS
10
6.3039929527559053
20
-3.5184479921259841
11
6.3056998425196849
21
-3.5210024803149604
0
LINE
8
BLACK
6
CONTINUOUS
10
6.3056998425196849
20
-3.5210024803149604
11
6.3062992125984252
21
-3.5240157480314962
0
LINE
8
BLACK
6
CONTINUOUS
10
6.3062992125984252
20
-3.5240157480314962
11
6.3062992125984252
21
-3.5456692913385828
0
LINE
8
BLACK
6
CONTINUOUS
10
6.3062992125984252
20
-3.5456692913385828
11
6.3056998425196849
21
-3.5486825590551181
0
LINE
8
BLACK
6
CONTINUOUS
10
6.3056998425196849
20
-3.5486825590551181
11
6.3039929527559053
21
-3.5512370472440944
0
LINE
8
BLACK
6
CONTINUOUS
10
6.3039929527559053
20
-3.5512370472440944
11
6.301438464566929
21
-3.5529439370078739
0
LINE
8
BLACK
6
CONTINUOUS
10
6.301438464566929
20
-3.5529439370078739
11
6.2984251968503937
21
-3.5535433070866143
0
LINE
8
BLACK
6
CONTINUOUS
10
6.2984251968503937
20
-3.5535433070866143
11
6.2826771653543307
21
-3.5535433070866143
0
LINE
8
BLACK
6
CONTINUOUS
10
6.2826771653543307
20
-3.5535433070866143
11
6.2796638976377954
21
-3.5529439370078739
0
LINE
8
BLACK
6
CONTINUOUS
10
6.2796638976377954
20
-3.5529439370078739
11
6.2771094094488191
21
-3.5512370472440944
0
LINE
8
BLACK
6
CONTINUOUS
10
6.2771094094488191
20
-3.5512370472440944
11
6.2754025196850396
21
-3.5486825590551181
0
LINE
8
BLACK
6
CONTINUOUS
10
6.2754025196850396
20
-3.5486825590551181
11
6.2748031496062993
21
-3.5456692913385828
0
LINE
8
BLACK
6
CONTINUOUS
10
6.2748031496062993
20
-3.5456692913385828
11
6.2748031496062993
21
-3.5240157480314962
0
LINE
8
BLACK
6
CONTINUOUS
10
6.2748031496062993
20
-3.5240157480314962
11
6.2754025196850396
21
-3.5210024803149604
0
LINE
8
BLACK
6
CONTINUOUS
10
6.2754025196850396
20
-3.5210024803149604
11
6.2771094094488191
21
-3.5184479921259841
0
LINE
8
BLACK
6
CONTINUOUS
10
6.2771094094488191
20
-3.5184479921259841
11
6.2796638976377954
21
-3.5167411023622046
0
LINE
8
BLACK
6
CONTINUOUS
10
6.2796638976377954
20
-3.5167411023622046
11
6.2826771653543307
21
-3.5161417322834643
0
LINE
8
BLACK
6
CONTINUOUS
10
6.2826771653543307
20
-3.5161417322834643
11
6.2984251968503937
21
-3.5161417322834643
0
LINE
8
BLACK
6
CONTINUOUS
10
6.2984251968503937
20
-3.5161417322834643
11
6.301438464566929
21
-3.5167411023622046
0
LINE
8
BLACK
6
CONTINUOUS
10
6.4461575984251969
20
-3.5291896850393698
11
6.4480734645669289
21
-3.5304698425196848
0
LINE
8
BLACK
6
CONTINUOUS
10
6.4480734645669289
20
-3.5304698425196848
11
6.4493536220472443
21
-3.5323857086614172
0
LINE
8
BLACK
6
CONTINUOUS
10
6.4493536220472443
20
-3.5323857086614172
11
6.4498031496062991
21
-3.5346456692913386
0
LINE
8
BLACK
6
CONTINUOUS
10
6.4498031496062991
20
-3.5346456692913386
11
6.4498031496062991
21
-3.5464566929133858
0
LINE
8
BLACK
6
CONTINUOUS
10
6.4498031496062991
20
-3.5464566929133858
11
6.4493536220472443
21
-3.5487166535433068
0
LINE
8
BLACK
6
CONTINUOUS
10
6.4493536220472443
20
-3.5487166535433068
11
6.4480734645669289
21
-3.5506325196850392
0
LINE
8
BLACK
6
CONTINUOUS
10
6.4480734645669289
20
-3.5506325196850392
11
6.4461575984251969
21
-3.5519126771653542
0
LINE
8
BLACK
6
CONTINUOUS
10
6.4461575984251969
20
-3.5519126771653542
11
6.443897637795275
21
-3.5523622047244094
0
LINE
8
BLACK
6
CONTINUOUS
10
6.443897637795275
20
-3.5523622047244094
11
6.3868110236220472
21
-3.5523622047244094
0
LINE
8
BLACK
6
CONTINUOUS
10
6.3868110236220472
20
-3.5523622047244094
11
6.3845510629921263
21
-3.5519126771653542
0
LINE
8
BLACK
6
CONTINUOUS
10
6.3845510629921263
20
-3.5519126771653542
11
6.3826351968503934
21
-3.5506325196850392
0
LINE
8
BLACK
6
CONTINUOUS
10
6.3826351968503934
20
-3.5506325196850392
11
6.3813550393700789
21
-3.5487166535433068
0
LINE
8
BLACK
6
CONTINUOUS
10
6.3813550393700789
20
-3.5487166535433068
11
6.3809055118110232
21
-3.5464566929133858
0
LINE
8
BLACK
6
CONTINUOUS
10
6.3809055118110232
20
-3.5464566929133858
11
6.3809055118110232
21
-3.5346456692913386
0
LINE
8
BLACK
6
CONTINUOUS
10
6.3809055118110232
20
-3.5346456692913386
11
6.3813550393700789
21
-3.5323857086614172
0
LINE
8
BLACK
6
CONTINUOUS
10
6.3813550393700789
20
-3.5323857086614172
11
6.3826351968503934
21
-3.5304698425196848
0
LINE
8
BLACK
6
CONTINUOUS
10
6.3826351968503934
20
-3.5304698425196848
11
6.3845510629921263
21
-3.5291896850393698
0
LINE
8
BLACK
6
CONTINUOUS
10
6.3845510629921263
20
-3.5291896850393698
11
6.3868110236220472
21
-3.528740157480315
0
LINE
8
BLACK
6
CONTINUOUS
10
6.3868110236220472
20
-3.528740157480315
11
6.443897637795275
21
-3.528740157480315
0
LINE
8
BLACK
6
CONTINUOUS
10
6.443897637795275
20
-3.528740157480315
11
6.4461575984251969
21
-3.5291896850393698
0
LINE
8
BLACK
6
CONTINUOUS
10
6.648913503937008
20
-3.5291896850393698
11
6.65082937007874
21
-3.5304698425196848
0
LINE
8
BLACK
6
CONTINUOUS
10
6.65082937007874
20
-3.5304698425196848
11
6.6521095275590554
21
-3.5323857086614172
0
LINE
8
BLACK
6
CONTINUOUS
10
6.6521095275590554
20
-3.5323857086614172
11
6.6525590551181102
21
-3.5346456692913386
0
LINE
8
BLACK
6
CONTINUOUS
10
6.6525590551181102
20
-3.5346456692913386
11
6.6525590551181102
21
-3.5464566929133858
0
LINE
8
BLACK
6
CONTINUOUS
10
6.6525590551181102
20
-3.5464566929133858
11
6.6521095275590554
21
-3.5487166535433068
0
LINE
8
BLACK
6
CONTINUOUS
10
6.6521095275590554
20
-3.5487166535433068
11
6.65082937007874
21
-3.5506325196850392
0
LINE
8
BLACK
6
CONTINUOUS
10
6.65082937007874
20
-3.5506325196850392
11
6.648913503937008
21
-3.5519126771653542
0
LINE
8
BLACK
6
CONTINUOUS
10
6.648913503937008
20
-3.5519126771653542
11
6.6466535433070861
21
-3.5523622047244094
0
LINE
8
BLACK
6
CONTINUOUS
10
6.6466535433070861
20
-3.5523622047244094
11
6.5895669291338583
21
-3.5523622047244094
0
LINE
8
BLACK
6
CONTINUOUS
10
6.5895669291338583
20
-3.5523622047244094
11
6.5873069685039365
21
-3.5519126771653542
0
LINE
8
BLACK
6
CONTINUOUS
10
6.5873069685039365
20
-3.5519126771653542
11
6.5853911023622045
21
-3.5506325196850392
0
LINE
8
BLACK
6
CONTINUOUS
10
6.5853911023622045
20
-3.5506325196850392
11
6.58411094488189
21
-3.5487166535433068
0
LINE
8
BLACK
6
CONTINUOUS
10
6.58411094488189
20
-3.5487166535433068
11
6.5836614173228343
21
-3.5464566929133858
0
LINE
8
BLACK
6
CONTINUOUS
10
6.5836614173228343
20
-3.5464566929133858
11
6.5836614173228343
21
-3.5346456692913386
0
LINE
8
BLACK
6
CONTINUOUS
10
6.5836614173228343
20
-3.5346456692913386
11
6.58411094488189
21
-3.5323857086614172
0
LINE
8
BLACK
6
CONTINUOUS
10
6.58411094488189
20
-3.5323857086614172
11
6.5853911023622045
21
-3.5304698425196848
0
LINE
8
BLACK
6
CONTINUOUS
10
6.5853911023622045
20
-3.5304698425196848
11
6.5873069685039365
21
-3.5291896850393698
0
LINE
8
BLACK
6
CONTINUOUS
10
6.5873069685039365
20
-3.5291896850393698
11
6.5895669291338583
21
-3.528740157480315
0
LINE
8
BLACK
6
CONTINUOUS
10
6.5895669291338583
20
-3.528740157480315
11
6.6466535433070861
21
-3.528740157480315
0
LINE
8
BLACK
6
CONTINUOUS
10
6.6466535433070861
20
-3.528740157480315
11
6.648913503937008
21
-3.5291896850393698
0
LINE
8
BLACK
6
CONTINUOUS
10
6.4461575984251969
20
-3.47918968503937
11
6.4480734645669289
21
-3.4804698425196849
0
LINE
8
BLACK
6
CONTINUOUS
10
6.4480734645669289
20
-3.4804698425196849
11
6.4493536220472443
21
-3.4823857086614174
0
LINE
8
BLACK
6
CONTINUOUS
10
6.4493536220472443
20
-3.4823857086614174
11
6.4498031496062991
21
-3.4846456692913383
0
LINE
8
BLACK
6
CONTINUOUS
10
6.4498031496062991
20
-3.4846456692913383
11
6.4498031496062991
21
-3.4964566929133856
0
LINE
8
BLACK
6
CONTINUOUS
10
6.4498031496062991
20
-3.4964566929133856
11
6.4493536220472443
21
-3.498716653543307
0
LINE
8
BLACK
6
CONTINUOUS
10
6.4493536220472443
20
-3.498716653543307
11
6.4480734645669289
21
-3.5006325196850394
0
LINE
8
BLACK
6
CONTINUOUS
10
6.4480734645669289
20
-3.5006325196850394
11
6.4461575984251969
21
-3.5019126771653544
0
LINE
8
BLACK
6
CONTINUOUS
10
6.4461575984251969
20
-3.5019126771653544
11
6.443897637795275
21
-3.5023622047244092
0
LINE
8
BLACK
6
CONTINUOUS
10
6.443897637795275
20
-3.5023622047244092
11
6.3868110236220472
21
-3.5023622047244092
0
LINE
8
BLACK
6
CONTINUOUS
10
6.3868110236220472
20
-3.5023622047244092
11
6.3845510629921263
21
-3.5019126771653544
0
LINE
8
BLACK
6
CONTINUOUS
10
6.3845510629921263
20
-3.5019126771653544
11
6.3826351968503934
21
-3.5006325196850394
0
LINE
8
BLACK
6
CONTINUOUS
10
6.3826351968503934
20
-3.5006325196850394
11
6.3813550393700789
21
-3.498716653543307
0
LINE
8
BLACK
6
CONTINUOUS
10
6.3813550393700789
20
-3.498716653543307
11
6.3809055118110232
21
-3.4964566929133856
0
LINE
8
BLACK
6
CONTINUOUS
10
6.3809055118110232
20
-3.4964566929133856
11
6.3809055118110232
21
-3.4846456692913383
0
LINE
8
BLACK
6
CONTINUOUS
10
6.3809055118110232
20
-3.4846456692913383
11
6.3813550393700789
21
-3.4823857086614174
0
LINE
8
BLACK
6
CONTINUOUS
10
6.3813550393700789
20
-3.4823857086614174
11
6.3826351968503934
21
-3.4804698425196849
0
LINE
8
BLACK
6
CONTINUOUS
10
6.3826351968503934
20
-3.4804698425196849
11
6.3845510629921263
21
-3.47918968503937
0
LINE
8
BLACK
6
CONTINUOUS
10
6.3845510629921263
20
-3.47918968503937
11
6.3868110236220472
21
-3.4787401574803147
0
LINE
8
BLACK
6
CONTINUOUS
10
6.3868110236220472
20
-3.4787401574803147
11
6.443897637795275
21
-3.4787401574803147
0
LINE
8
BLACK
6
CONTINUOUS
10
6.443897637795275
20
-3.4787401574803147
11
6.4461575984251969
21
-3.47918968503937
0
LINE
8
BLACK
6
CONTINUOUS
10
6.648913503937008
20
-3.47918968503937
11
6.65082937007874
21
-3.4804698425196849
0
LINE
8
BLACK
6
CONTINUOUS
10
6.65082937007874
20
-3.4804698425196849
11
6.6521095275590554
21
-3.4823857086614174
0
LINE
8
BLACK
6
CONTINUOUS
10
6.6521095275590554
20
-3.4823857086614174
11
6.6525590551181102
21
-3.4846456692913383
0
LINE
8
BLACK
6
CONTINUOUS
10
6.6525590551181102
20
-3.4846456692913383
11
6.6525590551181102
21
-3.4964566929133856
0
LINE
8
BLACK
6
CONTINUOUS
10
6.6525590551181102
20
-3.4964566929133856
11
6.6521095275590554
21
-3.498716653543307
0
LINE
8
BLACK
6
CONTINUOUS
10
6.6521095275590554
20
-3.498716653543307
11
6.65082937007874
21
-3.5006325196850394
0
LINE
8
BLACK
6
CONTINUOUS
10
6.65082937007874
20
-3.5006325196850394
11
6.648913503937008
21
-3.5019126771653544
0
LINE
8
BLACK
6
CONTINUOUS
10
6.648913503937008
20
-3.5019126771653544
11
6.6466535433070861
21
-3.5023622047244092
0
LINE
8
BLACK
6
CONTINUOUS
10
6.6466535433070861
20
-3.5023622047244092
11
6.5895669291338583
21
-3.5023622047244092
0
LINE
8
BLACK
6
CONTINUOUS
10
6.5895669291338583
20
-3.5023622047244092
11
6.5873069685039365
21
-3.5019126771653544
0
LINE
8
BLACK
6
CONTINUOUS
10
6.5873069685039365
20
-3.5019126771653544
11
6.5853911023622045
21
-3.5006325196850394
0
LINE
8
BLACK
6
CONTINUOUS
10
6.5853911023622045
20
-3.5006325196850394
11
6.58411094488189
21
-3.498716653543307
0
LINE
8
BLACK
6
CONTINUOUS
10
6.58411094488189
20
-3.498716653543307
11
6.5836614173228343
21
-3.4964566929133856
0
LINE
8
BLACK
6
CONTINUOUS
10
6.5836614173228343
20
-3.4964566929133856
11
6.5836614173228343
21
-3.4846456692913383
0
LINE
8
BLACK
6
CONTINUOUS
10
6.5836614173228343
20
-3.4846456692913383
11
6.58411094488189
21
-3.4823857086614174
0
LINE
8
BLACK
6
CONTINUOUS
10
6.58411094488189
20
-3.4823857086614174
11
6.5853911023622045
21
-3.4804698425196849
0
LINE
8
BLACK
6
CONTINUOUS
10
6.5853911023622045
20
-3.4804698425196849
11
6.5873069685039365
21
-3.47918968503937
0
LINE
8
BLACK
6
CONTINUOUS
10
6.5873069685039365
20
-3.47918968503937
11
6.5895669291338583
21
-3.4787401574803147
0
LINE
8
BLACK
6
CONTINUOUS
10
6.5895669291338583
20
-3.4787401574803147
11
6.6466535433070861
21
-3.4787401574803147
0
LINE
8
BLACK
6
CONTINUOUS
10
6.6466535433070861
20
-3.4787401574803147
11
6.648913503937008
21
-3.47918968503937
0
LINE
8
BLACK
6
CONTINUOUS
10
6.2398072440944876
20
-3.4179971259842521
11
6.2426810629921254
21
-3.4199173622047243
0
LINE
8
BLACK
6
CONTINUOUS
10
6.2426810629921254
20
-3.4199173622047243
11
6.2446012992125981
21
-3.4227911811023621
0
LINE
8
BLACK
6
CONTINUOUS
10
6.2446012992125981
20
-3.4227911811023621
11
6.2452755905511808
21
-3.4261811023622046
0
LINE
8
BLACK
6
CONTINUOUS
10
6.2452755905511808
20
-3.4261811023622046
11
6.2452755905511808
21
-3.4458661417322833
0
LINE
8
BLACK
6
CONTINUOUS
10
6.2452755905511808
20
-3.4458661417322833
11
6.2446012992125981
21
-3.4492560629921258
0
LINE
8
BLACK
6
CONTINUOUS
10
6.2446012992125981
20
-3.4492560629921258
11
6.2426810629921254
21
-3.4521298818897637
0
LINE
8
BLACK
6
CONTINUOUS
10
6.2426810629921254
20
-3.4521298818897637
11
6.2398072440944876
21
-3.4540501181102363
0
LINE
8
BLACK
6
CONTINUOUS
10
6.2398072440944876
20
-3.4540501181102363
11
6.2364173228346456
21
-3.454724409448819
0
LINE
8
BLACK
6
CONTINUOUS
10
6.2364173228346456
20
-3.454724409448819
11
6.2187007874015743
21
-3.454724409448819
0
LINE
8
BLACK
6
CONTINUOUS
10
6.2187007874015743
20
-3.454724409448819
11
6.2153108661417322
21
-3.4540501181102363
0
LINE
8
BLACK
6
CONTINUOUS
10
6.2153108661417322
20
-3.4540501181102363
11
6.2124370472440944
21
-3.4521298818897637
0
LINE
8
BLACK
6
CONTINUOUS
10
6.2124370472440944
20
-3.4521298818897637
11
6.2105168110236217
21
-3.4492560629921258
0
LINE
8
BLACK
6
CONTINUOUS
10
6.2105168110236217
20
-3.4492560629921258
11
6.2098425196850391
21
-3.4458661417322833
0
LINE
8
BLACK
6
CONTINUOUS
10
6.2098425196850391
20
-3.4458661417322833
11
6.2098425196850391
21
-3.4261811023622046
0
LINE
8
BLACK
6
CONTINUOUS
10
6.2098425196850391
20
-3.4261811023622046
11
6.2105168110236217
21
-3.4227911811023621
0
LINE
8
BLACK
6
CONTINUOUS
10
6.2105168110236217
20
-3.4227911811023621
11
6.2124370472440944
21
-3.4199173622047243
0
LINE
8
BLACK
6
CONTINUOUS
10
6.2124370472440944
20
-3.4199173622047243
11
6.2153108661417322
21
-3.4179971259842521
0
LINE
8
BLACK
6
CONTINUOUS
10
6.2153108661417322
20
-3.4179971259842521
11
6.2187007874015743
21
-3.417322834645669
0
LINE
8
BLACK
6
CONTINUOUS
10
6.2187007874015743
20
-3.417322834645669
11
6.2364173228346456
21
-3.417322834645669
0
LINE
8
BLACK
6
CONTINUOUS
10
6.2364173228346456
20
-3.417322834645669
11
6.2398072440944876
21
-3.4179971259842521
0
LINE
8
BLACK
6
CONTINUOUS
10
6.300830866141732
20
-3.4179971259842521
11
6.3037046850393699
21
-3.4199173622047243
0
LINE
8
BLACK
6
CONTINUOUS
10
6.3037046850393699
20
-3.4199173622047243
11
6.3056249212598425
21
-3.4227911811023621
0
LINE
8
BLACK
6
CONTINUOUS
10
6.3056249212598425
20
-3.4227911811023621
11
6.3062992125984252
21
-3.4261811023622046
0
LINE
8
BLACK
6
CONTINUOUS
10
6.3062992125984252
20
-3.4261811023622046
11
6.3062992125984252
21
-3.4458661417322833
0
LINE
8
BLACK
6
CONTINUOUS
10
6.3062992125984252
20
-3.4458661417322833
11
6.3056249212598425
21
-3.4492560629921258
0
LINE
8
BLACK
6
CONTINUOUS
10
6.3056249212598425
20
-3.4492560629921258
11
6.3037046850393699
21
-3.4521298818897637
0
LINE
8
BLACK
6
CONTINUOUS
10
6.3037046850393699
20
-3.4521298818897637
11
6.300830866141732
21
-3.4540501181102363
0
LINE
8
BLACK
6
CONTINUOUS
10
6.300830866141732
20
-3.4540501181102363
11
6.29744094488189
21
-3.454724409448819
0
LINE
8
BLACK
6
CONTINUOUS
10
6.29744094488189
20
-3.454724409448819
11
6.2797244094488187
21
-3.454724409448819
0
LINE
8
BLACK
6
CONTINUOUS
10
6.2797244094488187
20
-3.454724409448819
11
6.2763344881889767
21
-3.4540501181102363
0
LINE
8
BLACK
6
CONTINUOUS
10
6.2763344881889767
20
-3.4540501181102363
11
6.2734606692913388
21
-3.4521298818897637
0
LINE
8
BLACK
6
CONTINUOUS
10
6.2734606692913388
20
-3.4521298818897637
11
6.2715404330708662
21
-3.4492560629921258
0
LINE
8
BLACK
6
CONTINUOUS
10
6.2715404330708662
20
-3.4492560629921258
11
6.2708661417322835
21
-3.4458661417322833
0
LINE
8
BLACK
6
CONTINUOUS
10
6.2708661417322835
20
-3.4458661417322833
11
6.2708661417322835
21
-3.4261811023622046
0
LINE
8
BLACK
6
CONTINUOUS
10
6.2708661417322835
20
-3.4261811023622046
11
6.2715404330708662
21
-3.4227911811023621
0
LINE
8
BLACK
6
CONTINUOUS
10
6.2715404330708662
20
-3.4227911811023621
11
6.2734606692913388
21
-3.4199173622047243
0
LINE
8
BLACK
6
CONTINUOUS
10
6.2734606692913388
20
-3.4199173622047243
11
6.2763344881889767
21
-3.4179971259842521
0
LINE
8
BLACK
6
CONTINUOUS
10
6.2763344881889767
20
-3.4179971259842521
11
6.2797244094488187
21
-3.417322834645669
0
LINE
8
BLACK
6
CONTINUOUS
10
6.2797244094488187
20
-3.417322834645669
11
6.29744094488189
21
-3.417322834645669
0
LINE
8
BLACK
6
CONTINUOUS
10
6.29744094488189
20
-3.417322834645669
11
6.300830866141732
21
-3.4179971259842521
0
LINE
8
BLACK
6
CONTINUOUS
10
6.4461575984251969
20
-3.4291896850393702
11
6.4480734645669289
21
-3.4304698425196851
0
LINE
8
BLACK
6
CONTINUOUS
10
6.4480734645669289
20
-3.4304698425196851
11
6.4493536220472443
21
-3.4323857086614171
0
LINE
8
BLACK
6
CONTINUOUS
10
6.4493536220472443
20
-3.4323857086614171
11
6.4498031496062991
21
-3.4346456692913385
0
LINE
8
BLACK
6
CONTINUOUS
10
6.4498031496062991
20
-3.4346456692913385
11
6.4498031496062991
21
-3.4464566929133857
0
LINE
8
BLACK
6
CONTINUOUS
10
6.4498031496062991
20
-3.4464566929133857
11
6.4493536220472443
21
-3.4487166535433071
0
LINE
8
BLACK
6
CONTINUOUS
10
6.4493536220472443
20
-3.4487166535433071
11
6.4480734645669289
21
-3.4506325196850391
0
LINE
8
BLACK
6
CONTINUOUS
10
6.4480734645669289
20
-3.4506325196850391
11
6.4461575984251969
21
-3.4519126771653541
0
LINE
8
BLACK
6
CONTINUOUS
10
6.4461575984251969
20
-3.4519126771653541
11
6.443897637795275
21
-3.4523622047244094
0
LINE
8
BLACK
6
CONTINUOUS
10
6.443897637795275
20
-3.4523622047244094
11
6.3868110236220472
21
-3.4523622047244094
0
LINE
8
BLACK
6
CONTINUOUS
10
6.3868110236220472
20
-3.4523622047244094
11
6.3845510629921263
21
-3.4519126771653541
0
LINE
8
BLACK
6
CONTINUOUS
10
6.3845510629921263
20
-3.4519126771653541
11
6.3826351968503934
21
-3.4506325196850391
0
LINE
8
BLACK
6
CONTINUOUS
10
6.3826351968503934
20
-3.4506325196850391
11
6.3813550393700789
21
-3.4487166535433071
0
LINE
8
BLACK
6
CONTINUOUS
10
6.3813550393700789
20
-3.4487166535433071
11
6.3809055118110232
21
-3.4464566929133857
0
LINE
8
BLACK
6
CONTINUOUS
10
6.3809055118110232
20
-3.4464566929133857
11
6.3809055118110232
21
-3.4346456692913385
0
LINE
8
BLACK
6
CONTINUOUS
10
6.3809055118110232
20
-3.4346456692913385
11
6.3813550393700789
21
-3.4323857086614171
0
LINE
8
BLACK
6
CONTINUOUS
10
6.3813550393700789
20
-3.4323857086614171
11
6.3826351968503934
21
-3.4304698425196851
0
LINE
8
BLACK
6
CONTINUOUS
10
6.3826351968503934
20
-3.4304698425196851
11
6.3845510629921263
21
-3.4291896850393702
0
LINE
8
BLACK
6
CONTINUOUS
10
6.3845510629921263
20
-3.4291896850393702
11
6.3868110236220472
21
-3.4287401574803149
0
LINE
8
BLACK
6
CONTINUOUS
10
6.3868110236220472
20
-3.4287401574803149
11
6.443897637795275
21
-3.4287401574803149
0
LINE
8
BLACK
6
CONTINUOUS
10
6.443897637795275
20
-3.4287401574803149
11
6.4461575984251969
21
-3.4291896850393702
0
LINE
8
BLACK
6
CONTINUOUS
10
6.648913503937008
20
-3.4291896850393702
11
6.65082937007874
21
-3.4304698425196851
0
LINE
8
BLACK
6
CONTINUOUS
10
6.65082937007874
20
-3.4304698425196851
11
6.6521095275590554
21
-3.4323857086614171
0
LINE
8
BLACK
6
CONTINUOUS
10
6.6521095275590554
20
-3.4323857086614171
11
6.6525590551181102
21
-3.4346456692913385
0
LINE
8
BLACK
6
CONTINUOUS
10
6.6525590551181102
20
-3.4346456692913385
11
6.6525590551181102
21
-3.4464566929133857
0
LINE
8
BLACK
6
CONTINUOUS
10
6.6525590551181102
20
-3.4464566929133857
11
6.6521095275590554
21
-3.4487166535433071
0
LINE
8
BLACK
6
CONTINUOUS
10
6.6521095275590554
20
-3.4487166535433071
11
6.65082937007874
21
-3.4506325196850391
0
LINE
8
BLACK
6
CONTINUOUS
10
6.65082937007874
20
-3.4506325196850391
11
6.648913503937008
21
-3.4519126771653541
0
LINE
8
BLACK
6
CONTINUOUS
10
6.648913503937008
20
-3.4519126771653541
11
6.6466535433070861
21
-3.4523622047244094
0
LINE
8
BLACK
6
CONTINUOUS
10
6.6466535433070861
20
-3.4523622047244094
11
6.5895669291338583
21
-3.4523622047244094
0
LINE
8
BLACK
6
CONTINUOUS
10
6.5895669291338583
20
-3.4523622047244094
11
6.5873069685039365
21
-3.4519126771653541
0
LINE
8
BLACK
6
CONTINUOUS
10
6.5873069685039365
20
-3.4519126771653541
11
6.5853911023622045
21
-3.4506325196850391
0
LINE
8
BLACK
6
CONTINUOUS
10
6.5853911023622045
20
-3.4506325196850391
11
6.58411094488189
21
-3.4487166535433071
0
LINE
8
BLACK
6
CONTINUOUS
10
6.58411094488189
20
-3.4487166535433071
11
6.5836614173228343
21
-3.4464566929133857
0
LINE
8
BLACK
6
CONTINUOUS
10
6.5836614173228343
20
-3.4464566929133857
11
6.5836614173228343
21
-3.4346456692913385
0
LINE
8
BLACK
6
CONTINUOUS
10
6.5836614173228343
20
-3.4346456692913385
11
6.58411094488189
21
-3.4323857086614171
0
LINE
8
BLACK
6
CONTINUOUS
10
6.58411094488189
20
-3.4323857086614171
11
6.5853911023622045
21
-3.4304698425196851
0
LINE
8
BLACK
6
CONTINUOUS
10
6.5853911023622045
20
-3.4304698425196851
11
6.5873069685039365
21
-3.4291896850393702
0
LINE
8
BLACK
6
CONTINUOUS
10
6.5873069685039365
20
-3.4291896850393702
11
6.5895669291338583
21
-3.4287401574803149
0
LINE
8
BLACK
6
CONTINUOUS
10
6.5895669291338583
20
-3.4287401574803149
11
6.6466535433070861
21
-3.4287401574803149
0
LINE
8
BLACK
6
CONTINUOUS
10
6.6466535433070861
20
-3.4287401574803149
11
6.648913503937008
21
-3.4291896850393702
  0
ENDSEC
  0
EOF
