  0
SECTION
  2
HEADER
  9
$ANGBASE
  50
0.0
  9
$ANGDIR
  70
1
  9
$MEASUREMENT
  70
0
  0
ENDSEC
  0
SECTION
  2
TABLES
  0
TABLE
  2
LTYPE
  70
4
  0
LTYPE
  5
40F
  2
CONTINUOUS
  70
0
  3
Solid line
  72
65
  73
0
  40
0.0
  0
LTYPE
  5
410
  2
DASHDOT
 70
0
  3
Dash Dot ____ _ ____ _
 72
65
 73
4
 40
2.0
 49
1.25
 49
-0.25
 49
0.25
 49
-0.25
  0
LTYPE
  5
411
  2
DASHED
 70
0
  3
Dashed __ __ __ __ __
 72
65
 73
2
 40
0.75
 49
0.5
 49
-0.25
  0
LTYPE
  5
43B
  2
DOTTED
 70
0
  3
Dotted .  .  .  .
 72
65
 73
2
 40
0.2
 49
0.0
 49
-0.2
  0
ENDTAB
  0
TABLE
  2
STYLE
  70
4
  0
STYLE
  2
KICAD
  70
0
  40
0
  41
1
  42
1
  50
0
  71
0
  3
isocp.shx
  0
STYLE
  2
KICADB
  70
0
  40
0
  41
1
  42
1
  50
0
  71
0
  3
isocp.shx
  0
STYLE
  2
KICADI
  70
0
  40
0
  41
1
  42
1
  50
15
  71
0
  3
isocp.shx
  0
STYLE
  2
KICADBI
  70
0
  40
0
  41
1
  42
1
  50
15
  71
0
  3
isocp.shx
  0
ENDTAB
  0
TABLE
  2
LAYER
  70
1
  0
LAYER
  2
BLACK
  70
0
  62
7
  6
CONTINUOUS
  0
ENDTAB
  0
ENDSEC
  0
SECTION
  2
ENTITIES
0
LINE
8
BLACK
6
CONTINUOUS
10
3.289375433070866
20
-0.6871417322834645
11
3.2897414960629923
21
-0.6872166535433071
0
LINE
8
BLACK
6
CONTINUOUS
10
3.2897414960629923
20
-0.6872166535433071
11
3.2897467322834646
21
-0.6872166535433071
0
LINE
8
BLACK
6
CONTINUOUS
10
3.2897467322834646
20
-0.6872166535433071
11
3.2897480708661417
21
-0.6872179921259842
0
LINE
8
BLACK
6
CONTINUOUS
10
3.2897480708661417
20
-0.6872179921259842
11
3.2897516929133857
21
-0.6872187401574803
0
LINE
8
BLACK
6
CONTINUOUS
10
3.2897516929133857
20
-0.6872187401574803
11
3.2900147637795274
21
-0.6874846850393701
0
LINE
8
BLACK
6
CONTINUOUS
10
3.2900147637795274
20
-0.6874846850393701
11
3.2902794094488188
21
-0.6877493307086614
0
LINE
8
BLACK
6
CONTINUOUS
10
3.2902794094488188
20
-0.6877493307086614
11
3.2902801181102364
21
-0.6877529133858268
0
LINE
8
BLACK
6
CONTINUOUS
10
3.2902801181102364
20
-0.6877529133858268
11
3.2902814566929135
21
-0.6877542913385827
0
LINE
8
BLACK
6
CONTINUOUS
10
3.2902814566929135
20
-0.6877542913385827
11
3.2902814173228347
21
-0.6877594488188976
0
LINE
8
BLACK
6
CONTINUOUS
10
3.2902814173228347
20
-0.6877594488188976
11
3.2903543307086611
21
-0.6881259842519685
0
LINE
8
BLACK
6
CONTINUOUS
10
3.2903543307086611
20
-0.6881259842519685
11
3.2903543307086611
21
-3.365291338582677
0
LINE
8
BLACK
6
CONTINUOUS
10
3.2903543307086611
20
-3.365291338582677
11
3.2902807480314959
21
-3.3656611023622047
0
LINE
8
BLACK
6
CONTINUOUS
10
3.2902807480314959
20
-3.3656611023622047
11
3.2902807874015747
21
-3.3656646062992124
0
LINE
8
BLACK
6
CONTINUOUS
10
3.2902807874015747
20
-3.3656646062992124
11
3.2902798818897638
21
-3.3656654724409449
0
LINE
8
BLACK
6
CONTINUOUS
10
3.2902798818897638
20
-3.3656654724409449
11
3.2902794094488188
21
-3.3656679921259842
0
LINE
8
BLACK
6
CONTINUOUS
10
3.2902794094488188
20
-3.3656679921259842
11
3.2900127952755907
21
-3.3659345669291336
0
LINE
8
BLACK
6
CONTINUOUS
10
3.2900127952755907
20
-3.3659345669291336
11
3.289750118110236
21
-3.3661992519685038
0
LINE
8
BLACK
6
CONTINUOUS
10
3.289750118110236
20
-3.3661992519685038
11
3.2897476377952755
21
-3.3661997244094488
0
LINE
8
BLACK
6
CONTINUOUS
10
3.2897476377952755
20
-3.3661997244094488
11
3.2897467322834646
21
-3.3662006692913384
0
LINE
8
BLACK
6
CONTINUOUS
10
3.2897467322834646
20
-3.3662006692913384
11
3.289743149606299
21
-3.3662006692913384
0
LINE
8
BLACK
6
CONTINUOUS
10
3.289743149606299
20
-3.3662006692913384
11
3.2893737401574801
21
-3.3662755905511812
0
LINE
8
BLACK
6
CONTINUOUS
10
3.2893737401574801
20
-3.3662755905511812
11
0.7704761023622048
21
-3.3756415748031494
0
LINE
8
BLACK
6
CONTINUOUS
10
0.7704761023622048
20
-3.3756415748031494
11
0.7700991732283464
21
-3.375568031496063
0
LINE
8
BLACK
6
CONTINUOUS
10
0.7700991732283464
20
-3.375568031496063
11
0.7700977952755905
21
-3.3755666535433071
0
LINE
8
BLACK
6
CONTINUOUS
10
0.7700977952755905
20
-3.3755666535433071
11
0.7700957874015748
21
-3.3755666535433071
0
LINE
8
BLACK
6
CONTINUOUS
10
0.7700957874015748
20
-3.3755666535433071
11
0.7698291732283464
21
-3.3753000393700785
0
LINE
8
BLACK
6
CONTINUOUS
10
0.7698291732283464
20
-3.3753000393700785
11
0.7695645275590551
21
-3.3750373622047243
0
LINE
8
BLACK
6
CONTINUOUS
10
0.7695645275590551
20
-3.3750373622047243
11
0.7695644881889764
21
-3.3750353543307088
0
LINE
8
BLACK
6
CONTINUOUS
10
0.7695644881889764
20
-3.3750353543307088
11
0.7695631102362205
21
-3.3750339763779529
0
LINE
8
BLACK
6
CONTINUOUS
10
0.7695631102362205
20
-3.3750339763779529
11
0.7694881889763779
21
-3.3746573228346457
0
LINE
8
BLACK
6
CONTINUOUS
10
0.7694881889763779
20
-3.3746573228346457
11
0.7694881889763779
21
-0.6743464566929134
0
LINE
8
BLACK
6
CONTINUOUS
10
0.7694881889763779
20
-0.6743464566929134
11
0.7695631102362205
21
-0.6739698031496063
0
LINE
8
BLACK
6
CONTINUOUS
10
0.7695631102362205
20
-0.6739698031496063
11
0.769565157480315
21
-0.6739677165354331
0
LINE
8
BLACK
6
CONTINUOUS
10
0.769565157480315
20
-0.6739677165354331
11
0.7695651968503937
21
-0.673964842519685
0
LINE
8
BLACK
6
CONTINUOUS
10
0.7695651968503937
20
-0.673964842519685
11
0.7698311417322834
21
-0.6737017322834645
0
LINE
8
BLACK
6
CONTINUOUS
10
0.7698311417322834
20
-0.6737017322834645
11
0.7700957874015748
21
-0.673437125984252
0
LINE
8
BLACK
6
CONTINUOUS
10
0.7700957874015748
20
-0.673437125984252
11
0.7700986614173229
21
-0.673437125984252
0
LINE
8
BLACK
6
CONTINUOUS
10
0.7700986614173229
20
-0.673437125984252
11
0.7701007480314961
21
-0.6734350787401575
0
LINE
8
BLACK
6
CONTINUOUS
10
0.7701007480314961
20
-0.6734350787401575
11
0.7704778346456693
21
-0.6733622047244094
0
LINE
8
BLACK
6
CONTINUOUS
10
0.7704778346456693
20
-0.6733622047244094
11
3.289375433070866
21
-0.6871417322834645
0
LINE
8
BLACK
6
CONTINUOUS
10
0.7714566929133858
20
-3.3736693700787401
11
3.2883858267716533
21
-3.3643107086614172
0
LINE
8
BLACK
6
CONTINUOUS
10
3.2883858267716533
20
-3.3643107086614172
11
3.2883858267716533
21
-0.6891048425196851
0
LINE
8
BLACK
6
CONTINUOUS
10
3.2883858267716533
20
-0.6891048425196851
11
0.7714566929133858
21
-0.6753361023622048
0
LINE
8
BLACK
6
CONTINUOUS
10
0.7714566929133858
20
-0.6753361023622048
11
0.7714566929133858
21
-3.3736693700787401
  0
ENDSEC
  0
EOF
