  0
SECTION
  2
HEADER
  9
$ANGBASE
  50
0.0
  9
$ANGDIR
  70
1
  9
$MEASUREMENT
  70
0
  0
ENDSEC
  0
SECTION
  2
TABLES
  0
TABLE
  2
LTYPE
  70
4
  0
LTYPE
  5
40F
  2
CONTINUOUS
  70
0
  3
Solid line
  72
65
  73
0
  40
0.0
  0
LTYPE
  5
410
  2
DASHDOT
 70
0
  3
Dash Dot ____ _ ____ _
 72
65
 73
4
 40
2.0
 49
1.25
 49
-0.25
 49
0.25
 49
-0.25
  0
LTYPE
  5
411
  2
DASHED
 70
0
  3
Dashed __ __ __ __ __
 72
65
 73
2
 40
0.75
 49
0.5
 49
-0.25
  0
LTYPE
  5
43B
  2
DOTTED
 70
0
  3
Dotted .  .  .  .
 72
65
 73
2
 40
0.2
 49
0.0
 49
-0.2
  0
ENDTAB
  0
TABLE
  2
STYLE
  70
4
  0
STYLE
  2
KICAD
  70
0
  40
0
  41
1
  42
1
  50
0
  71
0
  3
isocp.shx
  0
STYLE
  2
KICADB
  70
0
  40
0
  41
1
  42
1
  50
0
  71
0
  3
isocp.shx
  0
STYLE
  2
KICADI
  70
0
  40
0
  41
1
  42
1
  50
15
  71
0
  3
isocp.shx
  0
STYLE
  2
KICADBI
  70
0
  40
0
  41
1
  42
1
  50
15
  71
0
  3
isocp.shx
  0
ENDTAB
  0
TABLE
  2
LAYER
  70
1
  0
LAYER
  2
BLACK
  70
0
  62
7
  6
CONTINUOUS
  0
ENDTAB
  0
ENDSEC
  0
SECTION
  2
ENTITIES
0
LINE
8
BLACK
6
CONTINUOUS
10
2.8832322834645669
20
-3.2874015748031495
11
2.7749645669291336
21
-3.2874015748031495
0
LINE
8
BLACK
6
CONTINUOUS
10
2.7749645669291336
20
-3.2874015748031495
11
2.7749645669291336
21
-3.2480314960629921
0
LINE
8
BLACK
6
CONTINUOUS
10
2.7749645669291336
20
-3.2480314960629921
11
2.8832322834645669
21
-3.2480314960629921
0
LINE
8
BLACK
6
CONTINUOUS
10
2.8832322834645669
20
-3.2480314960629921
11
2.8832322834645669
21
-3.2874015748031495
0
LINE
8
BLACK
6
CONTINUOUS
10
3.1100039370078738
20
-3.2874015748031495
11
3.0017362204724409
21
-3.2874015748031495
0
LINE
8
BLACK
6
CONTINUOUS
10
3.0017362204724409
20
-3.2874015748031495
11
3.0017362204724409
21
-3.2480314960629921
0
LINE
8
BLACK
6
CONTINUOUS
10
3.0017362204724409
20
-3.2480314960629921
11
3.1100039370078738
21
-3.2480314960629921
0
LINE
8
BLACK
6
CONTINUOUS
10
3.1100039370078738
20
-3.2480314960629921
11
3.1100039370078738
21
-3.2874015748031495
0
LINE
8
BLACK
6
CONTINUOUS
10
2.1692913385826773
20
-3.25
11
2.0748031496062991
21
-3.25
0
LINE
8
BLACK
6
CONTINUOUS
10
2.0748031496062991
20
-3.25
11
2.0748031496062991
21
-3.1240157480314958
0
LINE
8
BLACK
6
CONTINUOUS
10
2.0748031496062991
20
-3.1240157480314958
11
2.1692913385826773
21
-3.1240157480314958
0
LINE
8
BLACK
6
CONTINUOUS
10
2.1692913385826773
20
-3.1240157480314958
11
2.1692913385826773
21
-3.25
0
LINE
8
BLACK
6
CONTINUOUS
10
2.6417322834645667
20
-3.25
11
2.5472440944881889
21
-3.25
0
LINE
8
BLACK
6
CONTINUOUS
10
2.5472440944881889
20
-3.25
11
2.5472440944881889
21
-3.1240157480314958
0
LINE
8
BLACK
6
CONTINUOUS
10
2.5472440944881889
20
-3.1240157480314958
11
2.6417322834645667
21
-3.1240157480314958
0
LINE
8
BLACK
6
CONTINUOUS
10
2.6417322834645667
20
-3.1240157480314958
11
2.6417322834645667
21
-3.25
0
LINE
8
BLACK
6
CONTINUOUS
10
2.7396103937007874
20
-3.2053987007874016
11
2.7424842125984252
21
-3.2073189370078738
0
LINE
8
BLACK
6
CONTINUOUS
10
2.7424842125984252
20
-3.2073189370078738
11
2.7444044488188974
21
-3.2101927559055117
0
LINE
8
BLACK
6
CONTINUOUS
10
2.7444044488188974
20
-3.2101927559055117
11
2.7450787401574801
21
-3.2135826771653542
0
LINE
8
BLACK
6
CONTINUOUS
10
2.7450787401574801
20
-3.2135826771653542
11
2.7450787401574801
21
-3.231299212598425
0
LINE
8
BLACK
6
CONTINUOUS
10
2.7450787401574801
20
-3.231299212598425
11
2.7444044488188974
21
-3.2346891338582675
0
LINE
8
BLACK
6
CONTINUOUS
10
2.7444044488188974
20
-3.2346891338582675
11
2.7424842125984252
21
-3.2375629527559053
0
LINE
8
BLACK
6
CONTINUOUS
10
2.7424842125984252
20
-3.2375629527559053
11
2.7396103937007874
21
-3.239483188976378
0
LINE
8
BLACK
6
CONTINUOUS
10
2.7396103937007874
20
-3.239483188976378
11
2.7362204724409449
21
-3.2401574803149606
0
LINE
8
BLACK
6
CONTINUOUS
10
2.7362204724409449
20
-3.2401574803149606
11
2.7165354330708662
21
-3.2401574803149606
0
LINE
8
BLACK
6
CONTINUOUS
10
2.7165354330708662
20
-3.2401574803149606
11
2.7131455118110237
21
-3.239483188976378
0
LINE
8
BLACK
6
CONTINUOUS
10
2.7131455118110237
20
-3.239483188976378
11
2.7102716929133859
21
-3.2375629527559053
0
LINE
8
BLACK
6
CONTINUOUS
10
2.7102716929133859
20
-3.2375629527559053
11
2.7083514566929132
21
-3.2346891338582675
0
LINE
8
BLACK
6
CONTINUOUS
10
2.7083514566929132
20
-3.2346891338582675
11
2.7076771653543306
21
-3.231299212598425
0
LINE
8
BLACK
6
CONTINUOUS
10
2.7076771653543306
20
-3.231299212598425
11
2.7076771653543306
21
-3.2135826771653542
0
LINE
8
BLACK
6
CONTINUOUS
10
2.7076771653543306
20
-3.2135826771653542
11
2.7083514566929132
21
-3.2101927559055117
0
LINE
8
BLACK
6
CONTINUOUS
10
2.7083514566929132
20
-3.2101927559055117
11
2.7102716929133859
21
-3.2073189370078738
0
LINE
8
BLACK
6
CONTINUOUS
10
2.7102716929133859
20
-3.2073189370078738
11
2.7131455118110237
21
-3.2053987007874016
0
LINE
8
BLACK
6
CONTINUOUS
10
2.7131455118110237
20
-3.2053987007874016
11
2.7165354330708662
21
-3.204724409448819
0
LINE
8
BLACK
6
CONTINUOUS
10
2.7165354330708662
20
-3.204724409448819
11
2.7362204724409449
21
-3.204724409448819
0
LINE
8
BLACK
6
CONTINUOUS
10
2.7362204724409449
20
-3.204724409448819
11
2.7396103937007874
21
-3.2053987007874016
0
LINE
8
BLACK
6
CONTINUOUS
10
3.1772258661417321
20
-3.2053237795275589
11
3.1797803543307084
21
-3.2070306692913384
0
LINE
8
BLACK
6
CONTINUOUS
10
3.1797803543307084
20
-3.2070306692913384
11
3.1814872440944879
21
-3.2095851574803147
0
LINE
8
BLACK
6
CONTINUOUS
10
3.1814872440944879
20
-3.2095851574803147
11
3.1820866141732282
21
-3.2125984251968505
0
LINE
8
BLACK
6
CONTINUOUS
10
3.1820866141732282
20
-3.2125984251968505
11
3.1820866141732282
21
-3.2283464566929134
0
LINE
8
BLACK
6
CONTINUOUS
10
3.1820866141732282
20
-3.2283464566929134
11
3.1814872440944879
21
-3.2313597244094487
0
LINE
8
BLACK
6
CONTINUOUS
10
3.1814872440944879
20
-3.2313597244094487
11
3.1797803543307084
21
-3.233914212598425
0
LINE
8
BLACK
6
CONTINUOUS
10
3.1797803543307084
20
-3.233914212598425
11
3.1772258661417321
21
-3.2356211023622046
0
LINE
8
BLACK
6
CONTINUOUS
10
3.1772258661417321
20
-3.2356211023622046
11
3.1742125984251968
21
-3.2362204724409449
0
LINE
8
BLACK
6
CONTINUOUS
10
3.1742125984251968
20
-3.2362204724409449
11
3.1525590551181102
21
-3.2362204724409449
0
LINE
8
BLACK
6
CONTINUOUS
10
3.1525590551181102
20
-3.2362204724409449
11
3.1495457874015749
21
-3.2356211023622046
0
LINE
8
BLACK
6
CONTINUOUS
10
3.1495457874015749
20
-3.2356211023622046
11
3.1469912992125986
21
-3.233914212598425
0
LINE
8
BLACK
6
CONTINUOUS
10
3.1469912992125986
20
-3.233914212598425
11
3.145284409448819
21
-3.2313597244094487
0
LINE
8
BLACK
6
CONTINUOUS
10
3.145284409448819
20
-3.2313597244094487
11
3.1446850393700787
21
-3.2283464566929134
0
LINE
8
BLACK
6
CONTINUOUS
10
3.1446850393700787
20
-3.2283464566929134
11
3.1446850393700787
21
-3.2125984251968505
0
LINE
8
BLACK
6
CONTINUOUS
10
3.1446850393700787
20
-3.2125984251968505
11
3.145284409448819
21
-3.2095851574803147
0
LINE
8
BLACK
6
CONTINUOUS
10
3.145284409448819
20
-3.2095851574803147
11
3.1469912992125986
21
-3.2070306692913384
0
LINE
8
BLACK
6
CONTINUOUS
10
3.1469912992125986
20
-3.2070306692913384
11
3.1495457874015749
21
-3.2053237795275589
0
LINE
8
BLACK
6
CONTINUOUS
10
3.1495457874015749
20
-3.2053237795275589
11
3.1525590551181102
21
-3.204724409448819
0
LINE
8
BLACK
6
CONTINUOUS
10
3.1525590551181102
20
-3.204724409448819
11
3.1742125984251968
21
-3.204724409448819
0
LINE
8
BLACK
6
CONTINUOUS
10
3.1742125984251968
20
-3.204724409448819
11
3.1772258661417321
21
-3.2053237795275589
0
LINE
8
BLACK
6
CONTINUOUS
10
2.7396103937007874
20
-3.1443750787401572
11
2.7424842125984252
21
-3.1462953149606299
0
LINE
8
BLACK
6
CONTINUOUS
10
2.7424842125984252
20
-3.1462953149606299
11
2.7444044488188974
21
-3.1491691338582677
0
LINE
8
BLACK
6
CONTINUOUS
10
2.7444044488188974
20
-3.1491691338582677
11
2.7450787401574801
21
-3.1525590551181102
0
LINE
8
BLACK
6
CONTINUOUS
10
2.7450787401574801
20
-3.1525590551181102
11
2.7450787401574801
21
-3.170275590551181
0
LINE
8
BLACK
6
CONTINUOUS
10
2.7450787401574801
20
-3.170275590551181
11
2.7444044488188974
21
-3.1736655118110235
0
LINE
8
BLACK
6
CONTINUOUS
10
2.7444044488188974
20
-3.1736655118110235
11
2.7424842125984252
21
-3.1765393307086613
0
LINE
8
BLACK
6
CONTINUOUS
10
2.7424842125984252
20
-3.1765393307086613
11
2.7396103937007874
21
-3.178459566929134
0
LINE
8
BLACK
6
CONTINUOUS
10
2.7396103937007874
20
-3.178459566929134
11
2.7362204724409449
21
-3.1791338582677167
0
LINE
8
BLACK
6
CONTINUOUS
10
2.7362204724409449
20
-3.1791338582677167
11
2.7165354330708662
21
-3.1791338582677167
0
LINE
8
BLACK
6
CONTINUOUS
10
2.7165354330708662
20
-3.1791338582677167
11
2.7131455118110237
21
-3.178459566929134
0
LINE
8
BLACK
6
CONTINUOUS
10
2.7131455118110237
20
-3.178459566929134
11
2.7102716929133859
21
-3.1765393307086613
0
LINE
8
BLACK
6
CONTINUOUS
10
2.7102716929133859
20
-3.1765393307086613
11
2.7083514566929132
21
-3.1736655118110235
0
LINE
8
BLACK
6
CONTINUOUS
10
2.7083514566929132
20
-3.1736655118110235
11
2.7076771653543306
21
-3.170275590551181
0
LINE
8
BLACK
6
CONTINUOUS
10
2.7076771653543306
20
-3.170275590551181
11
2.7076771653543306
21
-3.1525590551181102
0
LINE
8
BLACK
6
CONTINUOUS
10
2.7076771653543306
20
-3.1525590551181102
11
2.7083514566929132
21
-3.1491691338582677
0
LINE
8
BLACK
6
CONTINUOUS
10
2.7083514566929132
20
-3.1491691338582677
11
2.7102716929133859
21
-3.1462953149606299
0
LINE
8
BLACK
6
CONTINUOUS
10
2.7102716929133859
20
-3.1462953149606299
11
2.7131455118110237
21
-3.1443750787401572
0
LINE
8
BLACK
6
CONTINUOUS
10
2.7131455118110237
20
-3.1443750787401572
11
2.7165354330708662
21
-3.1437007874015745
0
LINE
8
BLACK
6
CONTINUOUS
10
2.7165354330708662
20
-3.1437007874015745
11
2.7362204724409449
21
-3.1437007874015745
0
LINE
8
BLACK
6
CONTINUOUS
10
2.7362204724409449
20
-3.1437007874015745
11
2.7396103937007874
21
-3.1443750787401572
0
LINE
8
BLACK
6
CONTINUOUS
10
3.1772258661417321
20
-3.1403631496062991
11
3.1797803543307084
21
-3.1420700393700787
0
LINE
8
BLACK
6
CONTINUOUS
10
3.1797803543307084
20
-3.1420700393700787
11
3.1814872440944879
21
-3.144624527559055
0
LINE
8
BLACK
6
CONTINUOUS
10
3.1814872440944879
20
-3.144624527559055
11
3.1820866141732282
21
-3.1476377952755903
0
LINE
8
BLACK
6
CONTINUOUS
10
3.1820866141732282
20
-3.1476377952755903
11
3.1820866141732282
21
-3.1633858267716533
0
LINE
8
BLACK
6
CONTINUOUS
10
3.1820866141732282
20
-3.1633858267716533
11
3.1814872440944879
21
-3.166399094488189
0
LINE
8
BLACK
6
CONTINUOUS
10
3.1814872440944879
20
-3.166399094488189
11
3.1797803543307084
21
-3.1689535826771653
0
LINE
8
BLACK
6
CONTINUOUS
10
3.1797803543307084
20
-3.1689535826771653
11
3.1772258661417321
21
-3.1706604724409448
0
LINE
8
BLACK
6
CONTINUOUS
10
3.1772258661417321
20
-3.1706604724409448
11
3.1742125984251968
21
-3.1712598425196852
0
LINE
8
BLACK
6
CONTINUOUS
10
3.1742125984251968
20
-3.1712598425196852
11
3.1525590551181102
21
-3.1712598425196852
0
LINE
8
BLACK
6
CONTINUOUS
10
3.1525590551181102
20
-3.1712598425196852
11
3.1495457874015749
21
-3.1706604724409448
0
LINE
8
BLACK
6
CONTINUOUS
10
3.1495457874015749
20
-3.1706604724409448
11
3.1469912992125986
21
-3.1689535826771653
0
LINE
8
BLACK
6
CONTINUOUS
10
3.1469912992125986
20
-3.1689535826771653
11
3.145284409448819
21
-3.166399094488189
0
LINE
8
BLACK
6
CONTINUOUS
10
3.145284409448819
20
-3.166399094488189
11
3.1446850393700787
21
-3.1633858267716533
0
LINE
8
BLACK
6
CONTINUOUS
10
3.1446850393700787
20
-3.1633858267716533
11
3.1446850393700787
21
-3.1476377952755903
0
LINE
8
BLACK
6
CONTINUOUS
10
3.1446850393700787
20
-3.1476377952755903
11
3.145284409448819
21
-3.144624527559055
0
LINE
8
BLACK
6
CONTINUOUS
10
3.145284409448819
20
-3.144624527559055
11
3.1469912992125986
21
-3.1420700393700787
0
LINE
8
BLACK
6
CONTINUOUS
10
3.1469912992125986
20
-3.1420700393700787
11
3.1495457874015749
21
-3.1403631496062991
0
LINE
8
BLACK
6
CONTINUOUS
10
3.1495457874015749
20
-3.1403631496062991
11
3.1525590551181102
21
-3.1397637795275588
0
LINE
8
BLACK
6
CONTINUOUS
10
3.1525590551181102
20
-3.1397637795275588
11
3.1742125984251968
21
-3.1397637795275588
0
LINE
8
BLACK
6
CONTINUOUS
10
3.1742125984251968
20
-3.1397637795275588
11
3.1772258661417321
21
-3.1403631496062991
0
LINE
8
BLACK
6
CONTINUOUS
10
2.8832322834645669
20
-3.1299212598425195
11
2.7749645669291336
21
-3.1299212598425195
0
LINE
8
BLACK
6
CONTINUOUS
10
2.7749645669291336
20
-3.1299212598425195
11
2.7749645669291336
21
-3.090551181102362
0
LINE
8
BLACK
6
CONTINUOUS
10
2.7749645669291336
20
-3.090551181102362
11
2.8832322834645669
21
-3.090551181102362
0
LINE
8
BLACK
6
CONTINUOUS
10
2.8832322834645669
20
-3.090551181102362
11
2.8832322834645669
21
-3.1299212598425195
0
LINE
8
BLACK
6
CONTINUOUS
10
3.1100039370078738
20
-3.1299212598425195
11
3.0017362204724409
21
-3.1299212598425195
0
LINE
8
BLACK
6
CONTINUOUS
10
3.0017362204724409
20
-3.1299212598425195
11
3.0017362204724409
21
-3.090551181102362
0
LINE
8
BLACK
6
CONTINUOUS
10
3.0017362204724409
20
-3.090551181102362
11
3.1100039370078738
21
-3.090551181102362
0
LINE
8
BLACK
6
CONTINUOUS
10
3.1100039370078738
20
-3.090551181102362
11
3.1100039370078738
21
-3.1299212598425195
0
LINE
8
BLACK
6
CONTINUOUS
10
2.1692913385826773
20
-2.9074803149606296
11
2.0748031496062991
21
-2.9074803149606296
0
LINE
8
BLACK
6
CONTINUOUS
10
2.0748031496062991
20
-2.9074803149606296
11
2.0748031496062991
21
-2.7814960629921259
0
LINE
8
BLACK
6
CONTINUOUS
10
2.0748031496062991
20
-2.7814960629921259
11
2.1692913385826773
21
-2.7814960629921259
0
LINE
8
BLACK
6
CONTINUOUS
10
2.1692913385826773
20
-2.7814960629921259
11
2.1692913385826773
21
-2.9074803149606296
0
LINE
8
BLACK
6
CONTINUOUS
10
2.6417322834645667
20
-2.9074803149606296
11
2.5472440944881889
21
-2.9074803149606296
0
LINE
8
BLACK
6
CONTINUOUS
10
2.5472440944881889
20
-2.9074803149606296
11
2.5472440944881889
21
-2.7814960629921259
0
LINE
8
BLACK
6
CONTINUOUS
10
2.5472440944881889
20
-2.7814960629921259
11
2.6417322834645667
21
-2.7814960629921259
0
LINE
8
BLACK
6
CONTINUOUS
10
2.6417322834645667
20
-2.7814960629921259
11
2.6417322834645667
21
-2.9074803149606296
0
LINE
8
BLACK
6
CONTINUOUS
10
2.7173492519685039
20
-2.7113791338582676
11
2.7205424015748032
21
-2.7135127165354329
0
LINE
8
BLACK
6
CONTINUOUS
10
2.7205424015748032
20
-2.7135127165354329
11
2.7226759842519686
21
-2.7167058661417323
0
LINE
8
BLACK
6
CONTINUOUS
10
2.7226759842519686
20
-2.7167058661417323
11
2.7234251968503935
21
-2.7204724409448819
0
LINE
8
BLACK
6
CONTINUOUS
10
2.7234251968503935
20
-2.7204724409448819
11
2.7234251968503935
21
-2.7401574803149606
0
LINE
8
BLACK
6
CONTINUOUS
10
2.7234251968503935
20
-2.7401574803149606
11
2.7226759842519686
21
-2.7439240551181103
0
LINE
8
BLACK
6
CONTINUOUS
10
2.7226759842519686
20
-2.7439240551181103
11
2.7205424015748032
21
-2.7471172047244092
0
LINE
8
BLACK
6
CONTINUOUS
10
2.7205424015748032
20
-2.7471172047244092
11
2.7173492519685039
21
-2.7492507874015746
0
LINE
8
BLACK
6
CONTINUOUS
10
2.7173492519685039
20
-2.7492507874015746
11
2.7135826771653542
21
-2.75
0
LINE
8
BLACK
6
CONTINUOUS
10
2.7135826771653542
20
-2.75
11
2.6761811023622046
21
-2.75
0
LINE
8
BLACK
6
CONTINUOUS
10
2.6761811023622046
20
-2.75
11
2.672414527559055
21
-2.7492507874015746
0
LINE
8
BLACK
6
CONTINUOUS
10
2.672414527559055
20
-2.7492507874015746
11
2.669221377952756
21
-2.7471172047244092
0
LINE
8
BLACK
6
CONTINUOUS
10
2.669221377952756
20
-2.7471172047244092
11
2.6670877952755907
21
-2.7439240551181103
0
LINE
8
BLACK
6
CONTINUOUS
10
2.6670877952755907
20
-2.7439240551181103
11
2.6663385826771653
21
-2.7401574803149606
0
LINE
8
BLACK
6
CONTINUOUS
10
2.6663385826771653
20
-2.7401574803149606
11
2.6663385826771653
21
-2.7204724409448819
0
LINE
8
BLACK
6
CONTINUOUS
10
2.6663385826771653
20
-2.7204724409448819
11
2.6670877952755907
21
-2.7167058661417323
0
LINE
8
BLACK
6
CONTINUOUS
10
2.6670877952755907
20
-2.7167058661417323
11
2.669221377952756
21
-2.7135127165354329
0
LINE
8
BLACK
6
CONTINUOUS
10
2.669221377952756
20
-2.7135127165354329
11
2.672414527559055
21
-2.7113791338582676
0
LINE
8
BLACK
6
CONTINUOUS
10
2.672414527559055
20
-2.7113791338582676
11
2.6761811023622046
21
-2.7106299212598426
0
LINE
8
BLACK
6
CONTINUOUS
10
2.6761811023622046
20
-2.7106299212598426
11
2.7135826771653542
21
-2.7106299212598426
0
LINE
8
BLACK
6
CONTINUOUS
10
2.7135826771653542
20
-2.7106299212598426
11
2.7173492519685039
21
-2.7113791338582676
0
LINE
8
BLACK
6
CONTINUOUS
10
2.529964724409449
20
-2.6865640551181103
11
2.5328385433070864
21
-2.6884842913385825
0
LINE
8
BLACK
6
CONTINUOUS
10
2.5328385433070864
20
-2.6884842913385825
11
2.534758779527559
21
-2.6913581102362203
0
LINE
8
BLACK
6
CONTINUOUS
10
2.534758779527559
20
-2.6913581102362203
11
2.5354330708661417
21
-2.6947480314960628
0
LINE
8
BLACK
6
CONTINUOUS
10
2.5354330708661417
20
-2.6947480314960628
11
2.5354330708661417
21
-2.7144330708661415
0
LINE
8
BLACK
6
CONTINUOUS
10
2.5354330708661417
20
-2.7144330708661415
11
2.534758779527559
21
-2.717822992125984
0
LINE
8
BLACK
6
CONTINUOUS
10
2.534758779527559
20
-2.717822992125984
11
2.5328385433070864
21
-2.7206968110236218
0
LINE
8
BLACK
6
CONTINUOUS
10
2.5328385433070864
20
-2.7206968110236218
11
2.529964724409449
21
-2.7226170472440945
0
LINE
8
BLACK
6
CONTINUOUS
10
2.529964724409449
20
-2.7226170472440945
11
2.526574803149606
21
-2.7232913385826771
0
LINE
8
BLACK
6
CONTINUOUS
10
2.526574803149606
20
-2.7232913385826771
11
2.5088582677165352
21
-2.7232913385826771
0
LINE
8
BLACK
6
CONTINUOUS
10
2.5088582677165352
20
-2.7232913385826771
11
2.5054683464566927
21
-2.7226170472440945
0
LINE
8
BLACK
6
CONTINUOUS
10
2.5054683464566927
20
-2.7226170472440945
11
2.5025945275590549
21
-2.7206968110236218
0
LINE
8
BLACK
6
CONTINUOUS
10
2.5025945275590549
20
-2.7206968110236218
11
2.5006742913385827
21
-2.717822992125984
0
LINE
8
BLACK
6
CONTINUOUS
10
2.5006742913385827
20
-2.717822992125984
11
2.5
21
-2.7144330708661415
0
LINE
8
BLACK
6
CONTINUOUS
10
2.5
20
-2.7144330708661415
11
2.5
21
-2.6947480314960628
0
LINE
8
BLACK
6
CONTINUOUS
10
2.5
20
-2.6947480314960628
11
2.5006742913385827
21
-2.6913581102362203
0
LINE
8
BLACK
6
CONTINUOUS
10
2.5006742913385827
20
-2.6913581102362203
11
2.5025945275590549
21
-2.6884842913385825
0
LINE
8
BLACK
6
CONTINUOUS
10
2.5025945275590549
20
-2.6884842913385825
11
2.5054683464566927
21
-2.6865640551181103
0
LINE
8
BLACK
6
CONTINUOUS
10
2.5054683464566927
20
-2.6865640551181103
11
2.5088582677165352
21
-2.6858897637795276
0
LINE
8
BLACK
6
CONTINUOUS
10
2.5088582677165352
20
-2.6858897637795276
11
2.526574803149606
21
-2.6858897637795276
0
LINE
8
BLACK
6
CONTINUOUS
10
2.526574803149606
20
-2.6858897637795276
11
2.529964724409449
21
-2.6865640551181103
0
LINE
8
BLACK
6
CONTINUOUS
10
2.590988346456693
20
-2.6865640551181103
11
2.5938621653543308
21
-2.6884842913385825
0
LINE
8
BLACK
6
CONTINUOUS
10
2.5938621653543308
20
-2.6884842913385825
11
2.595782401574803
21
-2.6913581102362203
0
LINE
8
BLACK
6
CONTINUOUS
10
2.595782401574803
20
-2.6913581102362203
11
2.5964566929133857
21
-2.6947480314960628
0
LINE
8
BLACK
6
CONTINUOUS
10
2.5964566929133857
20
-2.6947480314960628
11
2.5964566929133857
21
-2.7144330708661415
0
LINE
8
BLACK
6
CONTINUOUS
10
2.5964566929133857
20
-2.7144330708661415
11
2.595782401574803
21
-2.717822992125984
0
LINE
8
BLACK
6
CONTINUOUS
10
2.595782401574803
20
-2.717822992125984
11
2.5938621653543308
21
-2.7206968110236218
0
LINE
8
BLACK
6
CONTINUOUS
10
2.5938621653543308
20
-2.7206968110236218
11
2.590988346456693
21
-2.7226170472440945
0
LINE
8
BLACK
6
CONTINUOUS
10
2.590988346456693
20
-2.7226170472440945
11
2.5875984251968505
21
-2.7232913385826771
0
LINE
8
BLACK
6
CONTINUOUS
10
2.5875984251968505
20
-2.7232913385826771
11
2.5698818897637796
21
-2.7232913385826771
0
LINE
8
BLACK
6
CONTINUOUS
10
2.5698818897637796
20
-2.7232913385826771
11
2.5664919685039371
21
-2.7226170472440945
0
LINE
8
BLACK
6
CONTINUOUS
10
2.5664919685039371
20
-2.7226170472440945
11
2.5636181496062993
21
-2.7206968110236218
0
LINE
8
BLACK
6
CONTINUOUS
10
2.5636181496062993
20
-2.7206968110236218
11
2.5616979133858266
21
-2.717822992125984
0
LINE
8
BLACK
6
CONTINUOUS
10
2.5616979133858266
20
-2.717822992125984
11
2.561023622047244
21
-2.7144330708661415
0
LINE
8
BLACK
6
CONTINUOUS
10
2.561023622047244
20
-2.7144330708661415
11
2.561023622047244
21
-2.6947480314960628
0
LINE
8
BLACK
6
CONTINUOUS
10
2.561023622047244
20
-2.6947480314960628
11
2.5616979133858266
21
-2.6913581102362203
0
LINE
8
BLACK
6
CONTINUOUS
10
2.5616979133858266
20
-2.6913581102362203
11
2.5636181496062993
21
-2.6884842913385825
0
LINE
8
BLACK
6
CONTINUOUS
10
2.5636181496062993
20
-2.6884842913385825
11
2.5664919685039371
21
-2.6865640551181103
0
LINE
8
BLACK
6
CONTINUOUS
10
2.5664919685039371
20
-2.6865640551181103
11
2.5698818897637796
21
-2.6858897637795276
0
LINE
8
BLACK
6
CONTINUOUS
10
2.5698818897637796
20
-2.6858897637795276
11
2.5875984251968505
21
-2.6858897637795276
0
LINE
8
BLACK
6
CONTINUOUS
10
2.5875984251968505
20
-2.6858897637795276
11
2.590988346456693
21
-2.6865640551181103
0
LINE
8
BLACK
6
CONTINUOUS
10
2.1449686220472439
20
-2.6463117322834644
11
2.1468844881889764
21
-2.6475918897637793
0
LINE
8
BLACK
6
CONTINUOUS
10
2.1468844881889764
20
-2.6475918897637793
11
2.1481646456692913
21
-2.6495077559055118
0
LINE
8
BLACK
6
CONTINUOUS
10
2.1481646456692913
20
-2.6495077559055118
11
2.1486141732283466
21
-2.6517677165354332
0
LINE
8
BLACK
6
CONTINUOUS
10
2.1486141732283466
20
-2.6517677165354332
11
2.1486141732283466
21
-2.6980275590551179
0
LINE
8
BLACK
6
CONTINUOUS
10
2.1486141732283466
20
-2.6980275590551179
11
2.1481646456692913
21
-2.7002875196850393
0
LINE
8
BLACK
6
CONTINUOUS
10
2.1481646456692913
20
-2.7002875196850393
11
2.1468844881889764
21
-2.7022033858267718
0
LINE
8
BLACK
6
CONTINUOUS
10
2.1468844881889764
20
-2.7022033858267718
11
2.1449686220472439
21
-2.7034835433070867
0
LINE
8
BLACK
6
CONTINUOUS
10
2.1449686220472439
20
-2.7034835433070867
11
2.142708661417323
21
-2.7039330708661415
0
LINE
8
BLACK
6
CONTINUOUS
10
2.142708661417323
20
-2.7039330708661415
11
2.1308976377952757
21
-2.7039330708661415
0
LINE
8
BLACK
6
CONTINUOUS
10
2.1308976377952757
20
-2.7039330708661415
11
2.1286376771653543
21
-2.7034835433070867
0
LINE
8
BLACK
6
CONTINUOUS
10
2.1286376771653543
20
-2.7034835433070867
11
2.1267218110236219
21
-2.7022033858267718
0
LINE
8
BLACK
6
CONTINUOUS
10
2.1267218110236219
20
-2.7022033858267718
11
2.1254416535433069
21
-2.7002875196850393
0
LINE
8
BLACK
6
CONTINUOUS
10
2.1254416535433069
20
-2.7002875196850393
11
2.1249921259842521
21
-2.6980275590551179
0
LINE
8
BLACK
6
CONTINUOUS
10
2.1249921259842521
20
-2.6980275590551179
11
2.1249921259842521
21
-2.6517677165354332
0
LINE
8
BLACK
6
CONTINUOUS
10
2.1249921259842521
20
-2.6517677165354332
11
2.1254416535433069
21
-2.6495077559055118
0
LINE
8
BLACK
6
CONTINUOUS
10
2.1254416535433069
20
-2.6495077559055118
11
2.1267218110236219
21
-2.6475918897637793
0
LINE
8
BLACK
6
CONTINUOUS
10
2.1267218110236219
20
-2.6475918897637793
11
2.1286376771653543
21
-2.6463117322834644
0
LINE
8
BLACK
6
CONTINUOUS
10
2.1286376771653543
20
-2.6463117322834644
11
2.1308976377952757
21
-2.6458622047244096
0
LINE
8
BLACK
6
CONTINUOUS
10
2.1308976377952757
20
-2.6458622047244096
11
2.142708661417323
21
-2.6458622047244096
0
LINE
8
BLACK
6
CONTINUOUS
10
2.142708661417323
20
-2.6458622047244096
11
2.1449686220472439
21
-2.6463117322834644
0
LINE
8
BLACK
6
CONTINUOUS
10
2.2717140551181103
20
-2.6492214173228348
11
2.2742685433070866
21
-2.6509283070866143
0
LINE
8
BLACK
6
CONTINUOUS
10
2.2742685433070866
20
-2.6509283070866143
11
2.2759754330708661
21
-2.6534827952755906
0
LINE
8
BLACK
6
CONTINUOUS
10
2.2759754330708661
20
-2.6534827952755906
11
2.276574803149606
21
-2.6564960629921259
0
LINE
8
BLACK
6
CONTINUOUS
10
2.276574803149606
20
-2.6564960629921259
11
2.276574803149606
21
-2.6722440944881889
0
LINE
8
BLACK
6
CONTINUOUS
10
2.276574803149606
20
-2.6722440944881889
11
2.2759754330708661
21
-2.6752573622047242
0
LINE
8
BLACK
6
CONTINUOUS
10
2.2759754330708661
20
-2.6752573622047242
11
2.2742685433070866
21
-2.6778118503937005
0
LINE
8
BLACK
6
CONTINUOUS
10
2.2742685433070866
20
-2.6778118503937005
11
2.2717140551181103
21
-2.67951874015748
0
LINE
8
BLACK
6
CONTINUOUS
10
2.2717140551181103
20
-2.67951874015748
11
2.2687007874015745
21
-2.6801181102362204
0
LINE
8
BLACK
6
CONTINUOUS
10
2.2687007874015745
20
-2.6801181102362204
11
2.247047244094488
21
-2.6801181102362204
0
LINE
8
BLACK
6
CONTINUOUS
10
2.247047244094488
20
-2.6801181102362204
11
2.2440339763779527
21
-2.67951874015748
0
LINE
8
BLACK
6
CONTINUOUS
10
2.2440339763779527
20
-2.67951874015748
11
2.2414794881889764
21
-2.6778118503937005
0
LINE
8
BLACK
6
CONTINUOUS
10
2.2414794881889764
20
-2.6778118503937005
11
2.2397725984251968
21
-2.6752573622047242
0
LINE
8
BLACK
6
CONTINUOUS
10
2.2397725984251968
20
-2.6752573622047242
11
2.2391732283464565
21
-2.6722440944881889
0
LINE
8
BLACK
6
CONTINUOUS
10
2.2391732283464565
20
-2.6722440944881889
11
2.2391732283464565
21
-2.6564960629921259
0
LINE
8
BLACK
6
CONTINUOUS
10
2.2391732283464565
20
-2.6564960629921259
11
2.2397725984251968
21
-2.6534827952755906
0
LINE
8
BLACK
6
CONTINUOUS
10
2.2397725984251968
20
-2.6534827952755906
11
2.2414794881889764
21
-2.6509283070866143
0
LINE
8
BLACK
6
CONTINUOUS
10
2.2414794881889764
20
-2.6509283070866143
11
2.2440339763779527
21
-2.6492214173228348
0
LINE
8
BLACK
6
CONTINUOUS
10
2.2440339763779527
20
-2.6492214173228348
11
2.247047244094488
21
-2.6486220472440944
0
LINE
8
BLACK
6
CONTINUOUS
10
2.247047244094488
20
-2.6486220472440944
11
2.2687007874015745
21
-2.6486220472440944
0
LINE
8
BLACK
6
CONTINUOUS
10
2.2687007874015745
20
-2.6486220472440944
11
2.2717140551181103
21
-2.6492214173228348
0
LINE
8
BLACK
6
CONTINUOUS
10
2.7173492519685039
20
-2.6365759842519685
11
2.7205424015748032
21
-2.6387095669291338
0
LINE
8
BLACK
6
CONTINUOUS
10
2.7205424015748032
20
-2.6387095669291338
11
2.7226759842519686
21
-2.6419027165354332
0
LINE
8
BLACK
6
CONTINUOUS
10
2.7226759842519686
20
-2.6419027165354332
11
2.7234251968503935
21
-2.6456692913385824
0
LINE
8
BLACK
6
CONTINUOUS
10
2.7234251968503935
20
-2.6456692913385824
11
2.7234251968503935
21
-2.6653543307086616
0
LINE
8
BLACK
6
CONTINUOUS
10
2.7234251968503935
20
-2.6653543307086616
11
2.7226759842519686
21
-2.6691209055118108
0
LINE
8
BLACK
6
CONTINUOUS
10
2.7226759842519686
20
-2.6691209055118108
11
2.7205424015748032
21
-2.6723140551181102
0
LINE
8
BLACK
6
CONTINUOUS
10
2.7205424015748032
20
-2.6723140551181102
11
2.7173492519685039
21
-2.6744476377952755
0
LINE
8
BLACK
6
CONTINUOUS
10
2.7173492519685039
20
-2.6744476377952755
11
2.7135826771653542
21
-2.6751968503937009
0
LINE
8
BLACK
6
CONTINUOUS
10
2.7135826771653542
20
-2.6751968503937009
11
2.6761811023622046
21
-2.6751968503937009
0
LINE
8
BLACK
6
CONTINUOUS
10
2.6761811023622046
20
-2.6751968503937009
11
2.672414527559055
21
-2.6744476377952755
0
LINE
8
BLACK
6
CONTINUOUS
10
2.672414527559055
20
-2.6744476377952755
11
2.669221377952756
21
-2.6723140551181102
0
LINE
8
BLACK
6
CONTINUOUS
10
2.669221377952756
20
-2.6723140551181102
11
2.6670877952755907
21
-2.6691209055118108
0
LINE
8
BLACK
6
CONTINUOUS
10
2.6670877952755907
20
-2.6691209055118108
11
2.6663385826771653
21
-2.6653543307086616
0
LINE
8
BLACK
6
CONTINUOUS
10
2.6663385826771653
20
-2.6653543307086616
11
2.6663385826771653
21
-2.6456692913385824
0
LINE
8
BLACK
6
CONTINUOUS
10
2.6663385826771653
20
-2.6456692913385824
11
2.6670877952755907
21
-2.6419027165354332
0
LINE
8
BLACK
6
CONTINUOUS
10
2.6670877952755907
20
-2.6419027165354332
11
2.669221377952756
21
-2.6387095669291338
0
LINE
8
BLACK
6
CONTINUOUS
10
2.669221377952756
20
-2.6387095669291338
11
2.672414527559055
21
-2.6365759842519685
0
LINE
8
BLACK
6
CONTINUOUS
10
2.672414527559055
20
-2.6365759842519685
11
2.6761811023622046
21
-2.6358267716535431
0
LINE
8
BLACK
6
CONTINUOUS
10
2.6761811023622046
20
-2.6358267716535431
11
2.7135826771653542
21
-2.6358267716535431
0
LINE
8
BLACK
6
CONTINUOUS
10
2.7135826771653542
20
-2.6358267716535431
11
2.7173492519685039
21
-2.6365759842519685
0
LINE
8
BLACK
6
CONTINUOUS
10
2.1075670472440944
20
-2.572492834645669
11
2.1094829133858268
21
-2.573772992125984
0
LINE
8
BLACK
6
CONTINUOUS
10
2.1094829133858268
20
-2.573772992125984
11
2.1107630708661418
21
-2.5756888582677164
0
LINE
8
BLACK
6
CONTINUOUS
10
2.1107630708661418
20
-2.5756888582677164
11
2.1112125984251966
21
-2.5779488188976378
0
LINE
8
BLACK
6
CONTINUOUS
10
2.1112125984251966
20
-2.5779488188976378
11
2.1112125984251966
21
-2.6242086614173226
0
LINE
8
BLACK
6
CONTINUOUS
10
2.1112125984251966
20
-2.6242086614173226
11
2.1107630708661418
21
-2.626468622047244
0
LINE
8
BLACK
6
CONTINUOUS
10
2.1107630708661418
20
-2.626468622047244
11
2.1094829133858268
21
-2.6283844881889764
0
LINE
8
BLACK
6
CONTINUOUS
10
2.1094829133858268
20
-2.6283844881889764
11
2.1075670472440944
21
-2.6296646456692914
0
LINE
8
BLACK
6
CONTINUOUS
10
2.1075670472440944
20
-2.6296646456692914
11
2.105307086614173
21
-2.6301141732283462
0
LINE
8
BLACK
6
CONTINUOUS
10
2.105307086614173
20
-2.6301141732283462
11
2.0934960629921258
21
-2.6301141732283462
0
LINE
8
BLACK
6
CONTINUOUS
10
2.0934960629921258
20
-2.6301141732283462
11
2.0912361023622048
21
-2.6296646456692914
0
LINE
8
BLACK
6
CONTINUOUS
10
2.0912361023622048
20
-2.6296646456692914
11
2.0893202362204724
21
-2.6283844881889764
0
LINE
8
BLACK
6
CONTINUOUS
10
2.0893202362204724
20
-2.6283844881889764
11
2.0880400787401574
21
-2.626468622047244
0
LINE
8
BLACK
6
CONTINUOUS
10
2.0880400787401574
20
-2.626468622047244
11
2.0875905511811021
21
-2.6242086614173226
0
LINE
8
BLACK
6
CONTINUOUS
10
2.0875905511811021
20
-2.6242086614173226
11
2.0875905511811021
21
-2.5779488188976378
0
LINE
8
BLACK
6
CONTINUOUS
10
2.0875905511811021
20
-2.5779488188976378
11
2.0880400787401574
21
-2.5756888582677164
0
LINE
8
BLACK
6
CONTINUOUS
10
2.0880400787401574
20
-2.5756888582677164
11
2.0893202362204724
21
-2.573772992125984
0
LINE
8
BLACK
6
CONTINUOUS
10
2.0893202362204724
20
-2.573772992125984
11
2.0912361023622048
21
-2.572492834645669
0
LINE
8
BLACK
6
CONTINUOUS
10
2.0912361023622048
20
-2.572492834645669
11
2.0934960629921258
21
-2.5720433070866142
0
LINE
8
BLACK
6
CONTINUOUS
10
2.0934960629921258
20
-2.5720433070866142
11
2.105307086614173
21
-2.5720433070866142
0
LINE
8
BLACK
6
CONTINUOUS
10
2.105307086614173
20
-2.5720433070866142
11
2.1075670472440944
21
-2.572492834645669
0
LINE
8
BLACK
6
CONTINUOUS
10
2.1823701968503935
20
-2.572492834645669
11
2.1842860629921259
21
-2.573772992125984
0
LINE
8
BLACK
6
CONTINUOUS
10
2.1842860629921259
20
-2.573772992125984
11
2.1855662204724409
21
-2.5756888582677164
0
LINE
8
BLACK
6
CONTINUOUS
10
2.1855662204724409
20
-2.5756888582677164
11
2.1860157480314961
21
-2.5779488188976378
0
LINE
8
BLACK
6
CONTINUOUS
10
2.1860157480314961
20
-2.5779488188976378
11
2.1860157480314961
21
-2.6242086614173226
0
LINE
8
BLACK
6
CONTINUOUS
10
2.1860157480314961
20
-2.6242086614173226
11
2.1855662204724409
21
-2.626468622047244
0
LINE
8
BLACK
6
CONTINUOUS
10
2.1855662204724409
20
-2.626468622047244
11
2.1842860629921259
21
-2.6283844881889764
0
LINE
8
BLACK
6
CONTINUOUS
10
2.1842860629921259
20
-2.6283844881889764
11
2.1823701968503935
21
-2.6296646456692914
0
LINE
8
BLACK
6
CONTINUOUS
10
2.1823701968503935
20
-2.6296646456692914
11
2.1801102362204725
21
-2.6301141732283462
0
LINE
8
BLACK
6
CONTINUOUS
10
2.1801102362204725
20
-2.6301141732283462
11
2.1682992125984253
21
-2.6301141732283462
0
LINE
8
BLACK
6
CONTINUOUS
10
2.1682992125984253
20
-2.6301141732283462
11
2.1660392519685039
21
-2.6296646456692914
0
LINE
8
BLACK
6
CONTINUOUS
10
2.1660392519685039
20
-2.6296646456692914
11
2.1641233858267714
21
-2.6283844881889764
0
LINE
8
BLACK
6
CONTINUOUS
10
2.1641233858267714
20
-2.6283844881889764
11
2.1628432283464565
21
-2.626468622047244
0
LINE
8
BLACK
6
CONTINUOUS
10
2.1628432283464565
20
-2.626468622047244
11
2.1623937007874017
21
-2.6242086614173226
0
LINE
8
BLACK
6
CONTINUOUS
10
2.1623937007874017
20
-2.6242086614173226
11
2.1623937007874017
21
-2.5779488188976378
0
LINE
8
BLACK
6
CONTINUOUS
10
2.1623937007874017
20
-2.5779488188976378
11
2.1628432283464565
21
-2.5756888582677164
0
LINE
8
BLACK
6
CONTINUOUS
10
2.1628432283464565
20
-2.5756888582677164
11
2.1641233858267714
21
-2.573772992125984
0
LINE
8
BLACK
6
CONTINUOUS
10
2.1641233858267714
20
-2.573772992125984
11
2.1660392519685039
21
-2.572492834645669
0
LINE
8
BLACK
6
CONTINUOUS
10
2.1660392519685039
20
-2.572492834645669
11
2.1682992125984253
21
-2.5720433070866142
0
LINE
8
BLACK
6
CONTINUOUS
10
2.1682992125984253
20
-2.5720433070866142
11
2.1801102362204725
21
-2.5720433070866142
0
LINE
8
BLACK
6
CONTINUOUS
10
2.1801102362204725
20
-2.5720433070866142
11
2.1823701968503935
21
-2.572492834645669
0
LINE
8
BLACK
6
CONTINUOUS
10
2.2717140551181103
20
-2.5842607874015746
11
2.2742685433070866
21
-2.5859676771653541
0
LINE
8
BLACK
6
CONTINUOUS
10
2.2742685433070866
20
-2.5859676771653541
11
2.2759754330708661
21
-2.5885221653543304
0
LINE
8
BLACK
6
CONTINUOUS
10
2.2759754330708661
20
-2.5885221653543304
11
2.276574803149606
21
-2.5915354330708662
0
LINE
8
BLACK
6
CONTINUOUS
10
2.276574803149606
20
-2.5915354330708662
11
2.276574803149606
21
-2.6072834645669292
0
LINE
8
BLACK
6
CONTINUOUS
10
2.276574803149606
20
-2.6072834645669292
11
2.2759754330708661
21
-2.6102967322834645
0
LINE
8
BLACK
6
CONTINUOUS
10
2.2759754330708661
20
-2.6102967322834645
11
2.2742685433070866
21
-2.6128512204724408
0
LINE
8
BLACK
6
CONTINUOUS
10
2.2742685433070866
20
-2.6128512204724408
11
2.2717140551181103
21
-2.6145581102362203
0
LINE
8
BLACK
6
CONTINUOUS
10
2.2717140551181103
20
-2.6145581102362203
11
2.2687007874015745
21
-2.6151574803149606
0
LINE
8
BLACK
6
CONTINUOUS
10
2.2687007874015745
20
-2.6151574803149606
11
2.247047244094488
21
-2.6151574803149606
0
LINE
8
BLACK
6
CONTINUOUS
10
2.247047244094488
20
-2.6151574803149606
11
2.2440339763779527
21
-2.6145581102362203
0
LINE
8
BLACK
6
CONTINUOUS
10
2.2440339763779527
20
-2.6145581102362203
11
2.2414794881889764
21
-2.6128512204724408
0
LINE
8
BLACK
6
CONTINUOUS
10
2.2414794881889764
20
-2.6128512204724408
11
2.2397725984251968
21
-2.6102967322834645
0
LINE
8
BLACK
6
CONTINUOUS
10
2.2397725984251968
20
-2.6102967322834645
11
2.2391732283464565
21
-2.6072834645669292
0
LINE
8
BLACK
6
CONTINUOUS
10
2.2391732283464565
20
-2.6072834645669292
11
2.2391732283464565
21
-2.5915354330708662
0
LINE
8
BLACK
6
CONTINUOUS
10
2.2391732283464565
20
-2.5915354330708662
11
2.2397725984251968
21
-2.5885221653543304
0
LINE
8
BLACK
6
CONTINUOUS
10
2.2397725984251968
20
-2.5885221653543304
11
2.2414794881889764
21
-2.5859676771653541
0
LINE
8
BLACK
6
CONTINUOUS
10
2.2414794881889764
20
-2.5859676771653541
11
2.2440339763779527
21
-2.5842607874015746
0
LINE
8
BLACK
6
CONTINUOUS
10
2.2440339763779527
20
-2.5842607874015746
11
2.247047244094488
21
-2.5836614173228347
0
LINE
8
BLACK
6
CONTINUOUS
10
2.247047244094488
20
-2.5836614173228347
11
2.2687007874015745
21
-2.5836614173228347
0
LINE
8
BLACK
6
CONTINUOUS
10
2.2687007874015745
20
-2.5836614173228347
11
2.2717140551181103
21
-2.5842607874015746
0
LINE
8
BLACK
6
CONTINUOUS
10
2.7586878346456691
20
-2.4987807086614171
11
2.7618809842519685
21
-2.5009142913385825
0
LINE
8
BLACK
6
CONTINUOUS
10
2.7618809842519685
20
-2.5009142913385825
11
2.7640145669291338
21
-2.5041074409448818
0
LINE
8
BLACK
6
CONTINUOUS
10
2.7640145669291338
20
-2.5041074409448818
11
2.7647637795275588
21
-2.5078740157480315
0
LINE
8
BLACK
6
CONTINUOUS
10
2.7647637795275588
20
-2.5078740157480315
11
2.7647637795275588
21
-2.5275590551181102
0
LINE
8
BLACK
6
CONTINUOUS
10
2.7647637795275588
20
-2.5275590551181102
11
2.7640145669291338
21
-2.5313256299212599
0
LINE
8
BLACK
6
CONTINUOUS
10
2.7640145669291338
20
-2.5313256299212599
11
2.7618809842519685
21
-2.5345187795275592
0
LINE
8
BLACK
6
CONTINUOUS
10
2.7618809842519685
20
-2.5345187795275592
11
2.7586878346456691
21
-2.5366523622047246
0
LINE
8
BLACK
6
CONTINUOUS
10
2.7586878346456691
20
-2.5366523622047246
11
2.7549212598425195
21
-2.5374015748031495
0
LINE
8
BLACK
6
CONTINUOUS
10
2.7549212598425195
20
-2.5374015748031495
11
2.7175196850393699
21
-2.5374015748031495
0
LINE
8
BLACK
6
CONTINUOUS
10
2.7175196850393699
20
-2.5374015748031495
11
2.7137531102362202
21
-2.5366523622047246
0
LINE
8
BLACK
6
CONTINUOUS
10
2.7137531102362202
20
-2.5366523622047246
11
2.7105599606299213
21
-2.5345187795275592
0
LINE
8
BLACK
6
CONTINUOUS
10
2.7105599606299213
20
-2.5345187795275592
11
2.708426377952756
21
-2.5313256299212599
0
LINE
8
BLACK
6
CONTINUOUS
10
2.708426377952756
20
-2.5313256299212599
11
2.7076771653543306
21
-2.5275590551181102
0
LINE
8
BLACK
6
CONTINUOUS
10
2.7076771653543306
20
-2.5275590551181102
11
2.7076771653543306
21
-2.5078740157480315
0
LINE
8
BLACK
6
CONTINUOUS
10
2.7076771653543306
20
-2.5078740157480315
11
2.708426377952756
21
-2.5041074409448818
0
LINE
8
BLACK
6
CONTINUOUS
10
2.708426377952756
20
-2.5041074409448818
11
2.7105599606299213
21
-2.5009142913385825
0
LINE
8
BLACK
6
CONTINUOUS
10
2.7105599606299213
20
-2.5009142913385825
11
2.7137531102362202
21
-2.4987807086614171
0
LINE
8
BLACK
6
CONTINUOUS
10
2.7137531102362202
20
-2.4987807086614171
11
2.7175196850393699
21
-2.4980314960629921
0
LINE
8
BLACK
6
CONTINUOUS
10
2.7175196850393699
20
-2.4980314960629921
11
2.7549212598425195
21
-2.4980314960629921
0
LINE
8
BLACK
6
CONTINUOUS
10
2.7549212598425195
20
-2.4980314960629921
11
2.7586878346456691
21
-2.4987807086614171
0
LINE
8
BLACK
6
CONTINUOUS
10
2.8453020078740159
20
-2.4987807086614171
11
2.8484951574803148
21
-2.5009142913385825
0
LINE
8
BLACK
6
CONTINUOUS
10
2.8484951574803148
20
-2.5009142913385825
11
2.8506287401574801
21
-2.5041074409448818
0
LINE
8
BLACK
6
CONTINUOUS
10
2.8506287401574801
20
-2.5041074409448818
11
2.8513779527559056
21
-2.5078740157480315
0
LINE
8
BLACK
6
CONTINUOUS
10
2.8513779527559056
20
-2.5078740157480315
11
2.8513779527559056
21
-2.5275590551181102
0
LINE
8
BLACK
6
CONTINUOUS
10
2.8513779527559056
20
-2.5275590551181102
11
2.8506287401574801
21
-2.5313256299212599
0
LINE
8
BLACK
6
CONTINUOUS
10
2.8506287401574801
20
-2.5313256299212599
11
2.8484951574803148
21
-2.5345187795275592
0
LINE
8
BLACK
6
CONTINUOUS
10
2.8484951574803148
20
-2.5345187795275592
11
2.8453020078740159
21
-2.5366523622047246
0
LINE
8
BLACK
6
CONTINUOUS
10
2.8453020078740159
20
-2.5366523622047246
11
2.8415354330708662
21
-2.5374015748031495
0
LINE
8
BLACK
6
CONTINUOUS
10
2.8415354330708662
20
-2.5374015748031495
11
2.8041338582677167
21
-2.5374015748031495
0
LINE
8
BLACK
6
CONTINUOUS
10
2.8041338582677167
20
-2.5374015748031495
11
2.800367283464567
21
-2.5366523622047246
0
LINE
8
BLACK
6
CONTINUOUS
10
2.800367283464567
20
-2.5366523622047246
11
2.7971741338582676
21
-2.5345187795275592
0
LINE
8
BLACK
6
CONTINUOUS
10
2.7971741338582676
20
-2.5345187795275592
11
2.7950405511811023
21
-2.5313256299212599
0
LINE
8
BLACK
6
CONTINUOUS
10
2.7950405511811023
20
-2.5313256299212599
11
2.7942913385826773
21
-2.5275590551181102
0
LINE
8
BLACK
6
CONTINUOUS
10
2.7942913385826773
20
-2.5275590551181102
11
2.7942913385826773
21
-2.5078740157480315
0
LINE
8
BLACK
6
CONTINUOUS
10
2.7942913385826773
20
-2.5078740157480315
11
2.7950405511811023
21
-2.5041074409448818
0
LINE
8
BLACK
6
CONTINUOUS
10
2.7950405511811023
20
-2.5041074409448818
11
2.7971741338582676
21
-2.5009142913385825
0
LINE
8
BLACK
6
CONTINUOUS
10
2.7971741338582676
20
-2.5009142913385825
11
2.800367283464567
21
-2.4987807086614171
0
LINE
8
BLACK
6
CONTINUOUS
10
2.800367283464567
20
-2.4987807086614171
11
2.8041338582677167
21
-2.4980314960629921
0
LINE
8
BLACK
6
CONTINUOUS
10
2.8041338582677167
20
-2.4980314960629921
11
2.8415354330708662
21
-2.4980314960629921
0
LINE
8
BLACK
6
CONTINUOUS
10
2.8415354330708662
20
-2.4980314960629921
11
2.8453020078740159
21
-2.4987807086614171
0
LINE
8
BLACK
6
CONTINUOUS
10
2.9075408267716534
20
-2.4976466141732283
11
2.9100953149606297
21
-2.4993535039370078
0
LINE
8
BLACK
6
CONTINUOUS
10
2.9100953149606297
20
-2.4993535039370078
11
2.9118022047244092
21
-2.5019079921259841
0
LINE
8
BLACK
6
CONTINUOUS
10
2.9118022047244092
20
-2.5019079921259841
11
2.9124015748031495
21
-2.5049212598425195
0
LINE
8
BLACK
6
CONTINUOUS
10
2.9124015748031495
20
-2.5049212598425195
11
2.9124015748031495
21
-2.526574803149606
0
LINE
8
BLACK
6
CONTINUOUS
10
2.9124015748031495
20
-2.526574803149606
11
2.9118022047244092
21
-2.5295880708661418
0
LINE
8
BLACK
6
CONTINUOUS
10
2.9118022047244092
20
-2.5295880708661418
11
2.9100953149606297
21
-2.5321425590551181
0
LINE
8
BLACK
6
CONTINUOUS
10
2.9100953149606297
20
-2.5321425590551181
11
2.9075408267716534
21
-2.5338494488188976
0
LINE
8
BLACK
6
CONTINUOUS
10
2.9075408267716534
20
-2.5338494488188976
11
2.9045275590551181
21
-2.534448818897638
0
LINE
8
BLACK
6
CONTINUOUS
10
2.9045275590551181
20
-2.534448818897638
11
2.8887795275590551
21
-2.534448818897638
0
LINE
8
BLACK
6
CONTINUOUS
10
2.8887795275590551
20
-2.534448818897638
11
2.8857662598425198
21
-2.5338494488188976
0
LINE
8
BLACK
6
CONTINUOUS
10
2.8857662598425198
20
-2.5338494488188976
11
2.883211771653543
21
-2.5321425590551181
0
LINE
8
BLACK
6
CONTINUOUS
10
2.883211771653543
20
-2.5321425590551181
11
2.8815048818897635
21
-2.5295880708661418
0
LINE
8
BLACK
6
CONTINUOUS
10
2.8815048818897635
20
-2.5295880708661418
11
2.8809055118110236
21
-2.526574803149606
0
LINE
8
BLACK
6
CONTINUOUS
10
2.8809055118110236
20
-2.526574803149606
11
2.8809055118110236
21
-2.5049212598425195
0
LINE
8
BLACK
6
CONTINUOUS
10
2.8809055118110236
20
-2.5049212598425195
11
2.8815048818897635
21
-2.5019079921259841
0
LINE
8
BLACK
6
CONTINUOUS
10
2.8815048818897635
20
-2.5019079921259841
11
2.883211771653543
21
-2.4993535039370078
0
LINE
8
BLACK
6
CONTINUOUS
10
2.883211771653543
20
-2.4993535039370078
11
2.8857662598425198
21
-2.4976466141732283
0
LINE
8
BLACK
6
CONTINUOUS
10
2.8857662598425198
20
-2.4976466141732283
11
2.8887795275590551
21
-2.497047244094488
0
LINE
8
BLACK
6
CONTINUOUS
10
2.8887795275590551
20
-2.497047244094488
11
2.9045275590551181
21
-2.497047244094488
0
LINE
8
BLACK
6
CONTINUOUS
10
2.9045275590551181
20
-2.497047244094488
11
2.9075408267716534
21
-2.4976466141732283
0
LINE
8
BLACK
6
CONTINUOUS
10
2.9725014566929131
20
-2.4976466141732283
11
2.9750559448818898
21
-2.4993535039370078
0
LINE
8
BLACK
6
CONTINUOUS
10
2.9750559448818898
20
-2.4993535039370078
11
2.9767628346456694
21
-2.5019079921259841
0
LINE
8
BLACK
6
CONTINUOUS
10
2.9767628346456694
20
-2.5019079921259841
11
2.9773622047244093
21
-2.5049212598425195
0
LINE
8
BLACK
6
CONTINUOUS
10
2.9773622047244093
20
-2.5049212598425195
11
2.9773622047244093
21
-2.526574803149606
0
LINE
8
BLACK
6
CONTINUOUS
10
2.9773622047244093
20
-2.526574803149606
11
2.9767628346456694
21
-2.5295880708661418
0
LINE
8
BLACK
6
CONTINUOUS
10
2.9767628346456694
20
-2.5295880708661418
11
2.9750559448818898
21
-2.5321425590551181
0
LINE
8
BLACK
6
CONTINUOUS
10
2.9750559448818898
20
-2.5321425590551181
11
2.9725014566929131
21
-2.5338494488188976
0
LINE
8
BLACK
6
CONTINUOUS
10
2.9725014566929131
20
-2.5338494488188976
11
2.9694881889763778
21
-2.534448818897638
0
LINE
8
BLACK
6
CONTINUOUS
10
2.9694881889763778
20
-2.534448818897638
11
2.9537401574803148
21
-2.534448818897638
0
LINE
8
BLACK
6
CONTINUOUS
10
2.9537401574803148
20
-2.534448818897638
11
2.9507268897637795
21
-2.5338494488188976
0
LINE
8
BLACK
6
CONTINUOUS
10
2.9507268897637795
20
-2.5338494488188976
11
2.9481724015748032
21
-2.5321425590551181
0
LINE
8
BLACK
6
CONTINUOUS
10
2.9481724015748032
20
-2.5321425590551181
11
2.9464655118110237
21
-2.5295880708661418
0
LINE
8
BLACK
6
CONTINUOUS
10
2.9464655118110237
20
-2.5295880708661418
11
2.9458661417322833
21
-2.526574803149606
0
LINE
8
BLACK
6
CONTINUOUS
10
2.9458661417322833
20
-2.526574803149606
11
2.9458661417322833
21
-2.5049212598425195
0
LINE
8
BLACK
6
CONTINUOUS
10
2.9458661417322833
20
-2.5049212598425195
11
2.9464655118110237
21
-2.5019079921259841
0
LINE
8
BLACK
6
CONTINUOUS
10
2.9464655118110237
20
-2.5019079921259841
11
2.9481724015748032
21
-2.4993535039370078
0
LINE
8
BLACK
6
CONTINUOUS
10
2.9481724015748032
20
-2.4993535039370078
11
2.9507268897637795
21
-2.4976466141732283
0
LINE
8
BLACK
6
CONTINUOUS
10
2.9507268897637795
20
-2.4976466141732283
11
2.9537401574803148
21
-2.497047244094488
0
LINE
8
BLACK
6
CONTINUOUS
10
2.9537401574803148
20
-2.497047244094488
11
2.9694881889763778
21
-2.497047244094488
0
LINE
8
BLACK
6
CONTINUOUS
10
2.9694881889763778
20
-2.497047244094488
11
2.9725014566929131
21
-2.4976466141732283
0
LINE
8
BLACK
6
CONTINUOUS
10
2.9100378740157478
20
-2.4327421653543309
11
2.9128318897637793
21
-2.4346090551181101
0
LINE
8
BLACK
6
CONTINUOUS
10
2.9128318897637793
20
-2.4346090551181101
11
2.914698779527559
21
-2.4374030708661416
0
LINE
8
BLACK
6
CONTINUOUS
10
2.914698779527559
20
-2.4374030708661416
11
2.9153543307086616
21
-2.440698818897638
0
LINE
8
BLACK
6
CONTINUOUS
10
2.9153543307086616
20
-2.440698818897638
11
2.9153543307086616
21
-2.4608759842519685
0
LINE
8
BLACK
6
CONTINUOUS
10
2.9153543307086616
20
-2.4608759842519685
11
2.914698779527559
21
-2.4641717322834644
0
LINE
8
BLACK
6
CONTINUOUS
10
2.914698779527559
20
-2.4641717322834644
11
2.9128318897637793
21
-2.4669657480314959
0
LINE
8
BLACK
6
CONTINUOUS
10
2.9128318897637793
20
-2.4669657480314959
11
2.9100378740157478
21
-2.4688326377952756
0
LINE
8
BLACK
6
CONTINUOUS
10
2.9100378740157478
20
-2.4688326377952756
11
2.9067421259842519
21
-2.4694881889763778
0
LINE
8
BLACK
6
CONTINUOUS
10
2.9067421259842519
20
-2.4694881889763778
11
2.8895177165354329
21
-2.4694881889763778
0
LINE
8
BLACK
6
CONTINUOUS
10
2.8895177165354329
20
-2.4694881889763778
11
2.886221968503937
21
-2.4688326377952756
0
LINE
8
BLACK
6
CONTINUOUS
10
2.886221968503937
20
-2.4688326377952756
11
2.8834279527559055
21
-2.4669657480314959
0
LINE
8
BLACK
6
CONTINUOUS
10
2.8834279527559055
20
-2.4669657480314959
11
2.8815610629921258
21
-2.4641717322834644
0
LINE
8
BLACK
6
CONTINUOUS
10
2.8815610629921258
20
-2.4641717322834644
11
2.8809055118110236
21
-2.4608759842519685
0
LINE
8
BLACK
6
CONTINUOUS
10
2.8809055118110236
20
-2.4608759842519685
11
2.8809055118110236
21
-2.440698818897638
0
LINE
8
BLACK
6
CONTINUOUS
10
2.8809055118110236
20
-2.440698818897638
11
2.8815610629921258
21
-2.4374030708661416
0
LINE
8
BLACK
6
CONTINUOUS
10
2.8815610629921258
20
-2.4374030708661416
11
2.8834279527559055
21
-2.4346090551181101
0
LINE
8
BLACK
6
CONTINUOUS
10
2.8834279527559055
20
-2.4346090551181101
11
2.886221968503937
21
-2.4327421653543309
0
LINE
8
BLACK
6
CONTINUOUS
10
2.886221968503937
20
-2.4327421653543309
11
2.8895177165354329
21
-2.4320866141732282
0
LINE
8
BLACK
6
CONTINUOUS
10
2.8895177165354329
20
-2.4320866141732282
11
2.9067421259842519
21
-2.4320866141732282
0
LINE
8
BLACK
6
CONTINUOUS
10
2.9067421259842519
20
-2.4320866141732282
11
2.9100378740157478
21
-2.4327421653543309
0
LINE
8
BLACK
6
CONTINUOUS
10
2.9720457480314959
20
-2.4327421653543309
11
2.9748397637795274
21
-2.4346090551181101
0
LINE
8
BLACK
6
CONTINUOUS
10
2.9748397637795274
20
-2.4346090551181101
11
2.9767066535433071
21
-2.4374030708661416
0
LINE
8
BLACK
6
CONTINUOUS
10
2.9767066535433071
20
-2.4374030708661416
11
2.9773622047244093
21
-2.440698818897638
0
LINE
8
BLACK
6
CONTINUOUS
10
2.9773622047244093
20
-2.440698818897638
11
2.9773622047244093
21
-2.4608759842519685
0
LINE
8
BLACK
6
CONTINUOUS
10
2.9773622047244093
20
-2.4608759842519685
11
2.9767066535433071
21
-2.4641717322834644
0
LINE
8
BLACK
6
CONTINUOUS
10
2.9767066535433071
20
-2.4641717322834644
11
2.9748397637795274
21
-2.4669657480314959
0
LINE
8
BLACK
6
CONTINUOUS
10
2.9748397637795274
20
-2.4669657480314959
11
2.9720457480314959
21
-2.4688326377952756
0
LINE
8
BLACK
6
CONTINUOUS
10
2.9720457480314959
20
-2.4688326377952756
11
2.96875
21
-2.4694881889763778
0
LINE
8
BLACK
6
CONTINUOUS
10
2.96875
20
-2.4694881889763778
11
2.951525590551181
21
-2.4694881889763778
0
LINE
8
BLACK
6
CONTINUOUS
10
2.951525590551181
20
-2.4694881889763778
11
2.9482298425196851
21
-2.4688326377952756
0
LINE
8
BLACK
6
CONTINUOUS
10
2.9482298425196851
20
-2.4688326377952756
11
2.9454358267716536
21
-2.4669657480314959
0
LINE
8
BLACK
6
CONTINUOUS
10
2.9454358267716536
20
-2.4669657480314959
11
2.9435689370078739
21
-2.4641717322834644
0
LINE
8
BLACK
6
CONTINUOUS
10
2.9435689370078739
20
-2.4641717322834644
11
2.9429133858267718
21
-2.4608759842519685
0
LINE
8
BLACK
6
CONTINUOUS
10
2.9429133858267718
20
-2.4608759842519685
11
2.9429133858267718
21
-2.440698818897638
0
LINE
8
BLACK
6
CONTINUOUS
10
2.9429133858267718
20
-2.440698818897638
11
2.9435689370078739
21
-2.4374030708661416
0
LINE
8
BLACK
6
CONTINUOUS
10
2.9435689370078739
20
-2.4374030708661416
11
2.9454358267716536
21
-2.4346090551181101
0
LINE
8
BLACK
6
CONTINUOUS
10
2.9454358267716536
20
-2.4346090551181101
11
2.9482298425196851
21
-2.4327421653543309
0
LINE
8
BLACK
6
CONTINUOUS
10
2.9482298425196851
20
-2.4327421653543309
11
2.951525590551181
21
-2.4320866141732282
0
LINE
8
BLACK
6
CONTINUOUS
10
2.951525590551181
20
-2.4320866141732282
11
2.96875
21
-2.4320866141732282
0
LINE
8
BLACK
6
CONTINUOUS
10
2.96875
20
-2.4320866141732282
11
2.9720457480314959
21
-2.4327421653543309
0
LINE
8
BLACK
6
CONTINUOUS
10
2.7586878346456691
20
-2.423977559055118
11
2.7618809842519685
21
-2.4261111417322834
0
LINE
8
BLACK
6
CONTINUOUS
10
2.7618809842519685
20
-2.4261111417322834
11
2.7640145669291338
21
-2.4293042913385827
0
LINE
8
BLACK
6
CONTINUOUS
10
2.7640145669291338
20
-2.4293042913385827
11
2.7647637795275588
21
-2.4330708661417324
0
LINE
8
BLACK
6
CONTINUOUS
10
2.7647637795275588
20
-2.4330708661417324
11
2.7647637795275588
21
-2.4527559055118111
0
LINE
8
BLACK
6
CONTINUOUS
10
2.7647637795275588
20
-2.4527559055118111
11
2.7640145669291338
21
-2.4565224803149608
0
LINE
8
BLACK
6
CONTINUOUS
10
2.7640145669291338
20
-2.4565224803149608
11
2.7618809842519685
21
-2.4597156299212597
0
LINE
8
BLACK
6
CONTINUOUS
10
2.7618809842519685
20
-2.4597156299212597
11
2.7586878346456691
21
-2.461849212598425
0
LINE
8
BLACK
6
CONTINUOUS
10
2.7586878346456691
20
-2.461849212598425
11
2.7549212598425195
21
-2.4625984251968505
0
LINE
8
BLACK
6
CONTINUOUS
10
2.7549212598425195
20
-2.4625984251968505
11
2.7175196850393699
21
-2.4625984251968505
0
LINE
8
BLACK
6
CONTINUOUS
10
2.7175196850393699
20
-2.4625984251968505
11
2.7137531102362202
21
-2.461849212598425
0
LINE
8
BLACK
6
CONTINUOUS
10
2.7137531102362202
20
-2.461849212598425
11
2.7105599606299213
21
-2.4597156299212597
0
LINE
8
BLACK
6
CONTINUOUS
10
2.7105599606299213
20
-2.4597156299212597
11
2.708426377952756
21
-2.4565224803149608
0
LINE
8
BLACK
6
CONTINUOUS
10
2.708426377952756
20
-2.4565224803149608
11
2.7076771653543306
21
-2.4527559055118111
0
LINE
8
BLACK
6
CONTINUOUS
10
2.7076771653543306
20
-2.4527559055118111
11
2.7076771653543306
21
-2.4330708661417324
0
LINE
8
BLACK
6
CONTINUOUS
10
2.7076771653543306
20
-2.4330708661417324
11
2.708426377952756
21
-2.4293042913385827
0
LINE
8
BLACK
6
CONTINUOUS
10
2.708426377952756
20
-2.4293042913385827
11
2.7105599606299213
21
-2.4261111417322834
0
LINE
8
BLACK
6
CONTINUOUS
10
2.7105599606299213
20
-2.4261111417322834
11
2.7137531102362202
21
-2.423977559055118
0
LINE
8
BLACK
6
CONTINUOUS
10
2.7137531102362202
20
-2.423977559055118
11
2.7175196850393699
21
-2.423228346456693
0
LINE
8
BLACK
6
CONTINUOUS
10
2.7175196850393699
20
-2.423228346456693
11
2.7549212598425195
21
-2.423228346456693
0
LINE
8
BLACK
6
CONTINUOUS
10
2.7549212598425195
20
-2.423228346456693
11
2.7586878346456691
21
-2.423977559055118
0
LINE
8
BLACK
6
CONTINUOUS
10
2.8453020078740159
20
-2.423977559055118
11
2.8484951574803148
21
-2.4261111417322834
0
LINE
8
BLACK
6
CONTINUOUS
10
2.8484951574803148
20
-2.4261111417322834
11
2.8506287401574801
21
-2.4293042913385827
0
LINE
8
BLACK
6
CONTINUOUS
10
2.8506287401574801
20
-2.4293042913385827
11
2.8513779527559056
21
-2.4330708661417324
0
LINE
8
BLACK
6
CONTINUOUS
10
2.8513779527559056
20
-2.4330708661417324
11
2.8513779527559056
21
-2.4527559055118111
0
LINE
8
BLACK
6
CONTINUOUS
10
2.8513779527559056
20
-2.4527559055118111
11
2.8506287401574801
21
-2.4565224803149608
0
LINE
8
BLACK
6
CONTINUOUS
10
2.8506287401574801
20
-2.4565224803149608
11
2.8484951574803148
21
-2.4597156299212597
0
LINE
8
BLACK
6
CONTINUOUS
10
2.8484951574803148
20
-2.4597156299212597
11
2.8453020078740159
21
-2.461849212598425
0
LINE
8
BLACK
6
CONTINUOUS
10
2.8453020078740159
20
-2.461849212598425
11
2.8415354330708662
21
-2.4625984251968505
0
LINE
8
BLACK
6
CONTINUOUS
10
2.8415354330708662
20
-2.4625984251968505
11
2.8041338582677167
21
-2.4625984251968505
0
LINE
8
BLACK
6
CONTINUOUS
10
2.8041338582677167
20
-2.4625984251968505
11
2.800367283464567
21
-2.461849212598425
0
LINE
8
BLACK
6
CONTINUOUS
10
2.800367283464567
20
-2.461849212598425
11
2.7971741338582676
21
-2.4597156299212597
0
LINE
8
BLACK
6
CONTINUOUS
10
2.7971741338582676
20
-2.4597156299212597
11
2.7950405511811023
21
-2.4565224803149608
0
LINE
8
BLACK
6
CONTINUOUS
10
2.7950405511811023
20
-2.4565224803149608
11
2.7942913385826773
21
-2.4527559055118111
0
LINE
8
BLACK
6
CONTINUOUS
10
2.7942913385826773
20
-2.4527559055118111
11
2.7942913385826773
21
-2.4330708661417324
0
LINE
8
BLACK
6
CONTINUOUS
10
2.7942913385826773
20
-2.4330708661417324
11
2.7950405511811023
21
-2.4293042913385827
0
LINE
8
BLACK
6
CONTINUOUS
10
2.7950405511811023
20
-2.4293042913385827
11
2.7971741338582676
21
-2.4261111417322834
0
LINE
8
BLACK
6
CONTINUOUS
10
2.7971741338582676
20
-2.4261111417322834
11
2.800367283464567
21
-2.423977559055118
0
LINE
8
BLACK
6
CONTINUOUS
10
2.800367283464567
20
-2.423977559055118
11
2.8041338582677167
21
-2.423228346456693
0
LINE
8
BLACK
6
CONTINUOUS
10
2.8041338582677167
20
-2.423228346456693
11
2.8415354330708662
21
-2.423228346456693
0
LINE
8
BLACK
6
CONTINUOUS
10
2.8415354330708662
20
-2.423228346456693
11
2.8453020078740159
21
-2.423977559055118
0
LINE
8
BLACK
6
CONTINUOUS
10
2.7630709055118108
20
-2.3116374015748029
11
2.7674371653543308
21
-2.3137719291338583
0
LINE
8
BLACK
6
CONTINUOUS
10
2.7674371653543308
20
-2.3137719291338583
11
2.7708737401574801
21
-2.3172085039370076
0
LINE
8
BLACK
6
CONTINUOUS
10
2.7708737401574801
20
-2.3172085039370076
11
2.7730082677165355
21
-2.3215747637795277
0
LINE
8
BLACK
6
CONTINUOUS
10
2.7730082677165355
20
-2.3215747637795277
11
2.7736220472440944
21
-2.3257874015748032
0
LINE
8
BLACK
6
CONTINUOUS
10
2.7736220472440944
20
-2.3257874015748032
11
2.7736220472440944
21
-2.3553149606299213
0
LINE
8
BLACK
6
CONTINUOUS
10
2.7736220472440944
20
-2.3553149606299213
11
2.7730082677165355
21
-2.3595275984251969
0
LINE
8
BLACK
6
CONTINUOUS
10
2.7730082677165355
20
-2.3595275984251969
11
2.7708737401574801
21
-2.3638938582677165
0
LINE
8
BLACK
6
CONTINUOUS
10
2.7708737401574801
20
-2.3638938582677165
11
2.7674371653543308
21
-2.3673304330708662
0
LINE
8
BLACK
6
CONTINUOUS
10
2.7674371653543308
20
-2.3673304330708662
11
2.7630709055118108
21
-2.3694649606299212
0
LINE
8
BLACK
6
CONTINUOUS
10
2.7630709055118108
20
-2.3694649606299212
11
2.7588582677165352
21
-2.3700787401574801
0
LINE
8
BLACK
6
CONTINUOUS
10
2.7588582677165352
20
-2.3700787401574801
11
2.7096456692913384
21
-2.3700787401574801
0
LINE
8
BLACK
6
CONTINUOUS
10
2.7096456692913384
20
-2.3700787401574801
11
2.7054330314960628
21
-2.3694649606299212
0
LINE
8
BLACK
6
CONTINUOUS
10
2.7054330314960628
20
-2.3694649606299212
11
2.7010667716535433
21
-2.3673304330708662
0
LINE
8
BLACK
6
CONTINUOUS
10
2.7010667716535433
20
-2.3673304330708662
11
2.6976301968503935
21
-2.3638938582677165
0
LINE
8
BLACK
6
CONTINUOUS
10
2.6976301968503935
20
-2.3638938582677165
11
2.6954956692913385
21
-2.3595275984251969
0
LINE
8
BLACK
6
CONTINUOUS
10
2.6954956692913385
20
-2.3595275984251969
11
2.6948818897637796
21
-2.3553149606299213
0
LINE
8
BLACK
6
CONTINUOUS
10
2.6948818897637796
20
-2.3553149606299213
11
2.6948818897637796
21
-2.3257874015748032
0
LINE
8
BLACK
6
CONTINUOUS
10
2.6948818897637796
20
-2.3257874015748032
11
2.6954956692913385
21
-2.3215747637795277
0
LINE
8
BLACK
6
CONTINUOUS
10
2.6954956692913385
20
-2.3215747637795277
11
2.6976301968503935
21
-2.3172085039370076
0
LINE
8
BLACK
6
CONTINUOUS
10
2.6976301968503935
20
-2.3172085039370076
11
2.7010667716535433
21
-2.3137719291338583
0
LINE
8
BLACK
6
CONTINUOUS
10
2.7010667716535433
20
-2.3137719291338583
11
2.7054330314960628
21
-2.3116374015748029
0
LINE
8
BLACK
6
CONTINUOUS
10
2.7054330314960628
20
-2.3116374015748029
11
2.7096456692913384
21
-2.311023622047244
0
LINE
8
BLACK
6
CONTINUOUS
10
2.7096456692913384
20
-2.311023622047244
11
2.7588582677165352
21
-2.311023622047244
0
LINE
8
BLACK
6
CONTINUOUS
10
2.7588582677165352
20
-2.311023622047244
11
2.7630709055118108
21
-2.3116374015748029
0
LINE
8
BLACK
6
CONTINUOUS
10
3.0061528740157479
20
-2.1756467322834645
11
3.0114025196850394
21
-2.1776047637795277
0
LINE
8
BLACK
6
CONTINUOUS
10
3.0114025196850394
20
-2.1776047637795277
11
3.0158879133858267
21
-2.1809624803149608
0
LINE
8
BLACK
6
CONTINUOUS
10
3.0158879133858267
20
-2.1809624803149608
11
3.0192456299212598
21
-2.1854478740157481
0
LINE
8
BLACK
6
CONTINUOUS
10
3.0192456299212598
20
-2.1854478740157481
11
3.0212036614173226
21
-2.1906975196850391
0
LINE
8
BLACK
6
CONTINUOUS
10
3.0212036614173226
20
-2.1906975196850391
11
3.0216535433070866
21
-2.1948818897637796
0
LINE
8
BLACK
6
CONTINUOUS
10
3.0216535433070866
20
-2.1948818897637796
11
3.0216535433070866
21
-2.3051181102362204
0
LINE
8
BLACK
6
CONTINUOUS
10
3.0216535433070866
20
-2.3051181102362204
11
3.0212036614173226
21
-2.3093024803149604
0
LINE
8
BLACK
6
CONTINUOUS
10
3.0212036614173226
20
-2.3093024803149604
11
3.0192456299212598
21
-2.3145521259842519
0
LINE
8
BLACK
6
CONTINUOUS
10
3.0192456299212598
20
-2.3145521259842519
11
3.0158879133858267
21
-2.3190375196850392
0
LINE
8
BLACK
6
CONTINUOUS
10
3.0158879133858267
20
-2.3190375196850392
11
3.0114025196850394
21
-2.3223952362204723
0
LINE
8
BLACK
6
CONTINUOUS
10
3.0114025196850394
20
-2.3223952362204723
11
3.0061528740157479
21
-2.3243532677165355
0
LINE
8
BLACK
6
CONTINUOUS
10
3.0061528740157479
20
-2.3243532677165355
11
3.0019685039370079
21
-2.3248031496062991
0
LINE
8
BLACK
6
CONTINUOUS
10
3.0019685039370079
20
-2.3248031496062991
11
2.9625984251968505
21
-2.3248031496062991
0
LINE
8
BLACK
6
CONTINUOUS
10
2.9625984251968505
20
-2.3248031496062991
11
2.95841405511811
21
-2.3243532677165355
0
LINE
8
BLACK
6
CONTINUOUS
10
2.95841405511811
20
-2.3243532677165355
11
2.953164409448819
21
-2.3223952362204723
0
LINE
8
BLACK
6
CONTINUOUS
10
2.953164409448819
20
-2.3223952362204723
11
2.9486790157480316
21
-2.3190375196850392
0
LINE
8
BLACK
6
CONTINUOUS
10
2.9486790157480316
20
-2.3190375196850392
11
2.9453212992125986
21
-2.3145521259842519
0
LINE
8
BLACK
6
CONTINUOUS
10
2.9453212992125986
20
-2.3145521259842519
11
2.9433632677165353
21
-2.3093024803149604
0
LINE
8
BLACK
6
CONTINUOUS
10
2.9433632677165353
20
-2.3093024803149604
11
2.9429133858267718
21
-2.3051181102362204
0
LINE
8
BLACK
6
CONTINUOUS
10
2.9429133858267718
20
-2.3051181102362204
11
2.9429133858267718
21
-2.1948818897637796
0
LINE
8
BLACK
6
CONTINUOUS
10
2.9429133858267718
20
-2.1948818897637796
11
2.9433632677165353
21
-2.1906975196850391
0
LINE
8
BLACK
6
CONTINUOUS
10
2.9433632677165353
20
-2.1906975196850391
11
2.9453212992125986
21
-2.1854478740157481
0
LINE
8
BLACK
6
CONTINUOUS
10
2.9453212992125986
20
-2.1854478740157481
11
2.9486790157480316
21
-2.1809624803149608
0
LINE
8
BLACK
6
CONTINUOUS
10
2.9486790157480316
20
-2.1809624803149608
11
2.953164409448819
21
-2.1776047637795277
0
LINE
8
BLACK
6
CONTINUOUS
10
2.953164409448819
20
-2.1776047637795277
11
2.95841405511811
21
-2.1756467322834645
0
LINE
8
BLACK
6
CONTINUOUS
10
2.95841405511811
20
-2.1756467322834645
11
2.9625984251968505
21
-2.1751968503937009
0
LINE
8
BLACK
6
CONTINUOUS
10
2.9625984251968505
20
-2.1751968503937009
11
3.0019685039370079
21
-2.1751968503937009
0
LINE
8
BLACK
6
CONTINUOUS
10
3.0019685039370079
20
-2.1751968503937009
11
3.0061528740157479
21
-2.1756467322834645
0
LINE
8
BLACK
6
CONTINUOUS
10
2.7630709055118108
20
-2.2210862204724409
11
2.7674371653543308
21
-2.2232207480314958
0
LINE
8
BLACK
6
CONTINUOUS
10
2.7674371653543308
20
-2.2232207480314958
11
2.7708737401574801
21
-2.2266573228346456
0
LINE
8
BLACK
6
CONTINUOUS
10
2.7708737401574801
20
-2.2266573228346456
11
2.7730082677165355
21
-2.2310235826771652
0
LINE
8
BLACK
6
CONTINUOUS
10
2.7730082677165355
20
-2.2310235826771652
11
2.7736220472440944
21
-2.2352362204724407
0
LINE
8
BLACK
6
CONTINUOUS
10
2.7736220472440944
20
-2.2352362204724407
11
2.7736220472440944
21
-2.2647637795275588
0
LINE
8
BLACK
6
CONTINUOUS
10
2.7736220472440944
20
-2.2647637795275588
11
2.7730082677165355
21
-2.2689764173228344
0
LINE
8
BLACK
6
CONTINUOUS
10
2.7730082677165355
20
-2.2689764173228344
11
2.7708737401574801
21
-2.2733426771653544
0
LINE
8
BLACK
6
CONTINUOUS
10
2.7708737401574801
20
-2.2733426771653544
11
2.7674371653543308
21
-2.2767792519685037
0
LINE
8
BLACK
6
CONTINUOUS
10
2.7674371653543308
20
-2.2767792519685037
11
2.7630709055118108
21
-2.2789137795275591
0
LINE
8
BLACK
6
CONTINUOUS
10
2.7630709055118108
20
-2.2789137795275591
11
2.7588582677165352
21
-2.2795275590551181
0
LINE
8
BLACK
6
CONTINUOUS
10
2.7588582677165352
20
-2.2795275590551181
11
2.7096456692913384
21
-2.2795275590551181
0
LINE
8
BLACK
6
CONTINUOUS
10
2.7096456692913384
20
-2.2795275590551181
11
2.7054330314960628
21
-2.2789137795275591
0
LINE
8
BLACK
6
CONTINUOUS
10
2.7054330314960628
20
-2.2789137795275591
11
2.7010667716535433
21
-2.2767792519685037
0
LINE
8
BLACK
6
CONTINUOUS
10
2.7010667716535433
20
-2.2767792519685037
11
2.6976301968503935
21
-2.2733426771653544
0
LINE
8
BLACK
6
CONTINUOUS
10
2.6976301968503935
20
-2.2733426771653544
11
2.6954956692913385
21
-2.2689764173228344
0
LINE
8
BLACK
6
CONTINUOUS
10
2.6954956692913385
20
-2.2689764173228344
11
2.6948818897637796
21
-2.2647637795275588
0
LINE
8
BLACK
6
CONTINUOUS
10
2.6948818897637796
20
-2.2647637795275588
11
2.6948818897637796
21
-2.2352362204724407
0
LINE
8
BLACK
6
CONTINUOUS
10
2.6948818897637796
20
-2.2352362204724407
11
2.6954956692913385
21
-2.2310235826771652
0
LINE
8
BLACK
6
CONTINUOUS
10
2.6954956692913385
20
-2.2310235826771652
11
2.6976301968503935
21
-2.2266573228346456
0
LINE
8
BLACK
6
CONTINUOUS
10
2.6976301968503935
20
-2.2266573228346456
11
2.7010667716535433
21
-2.2232207480314958
0
LINE
8
BLACK
6
CONTINUOUS
10
2.7010667716535433
20
-2.2232207480314958
11
2.7054330314960628
21
-2.2210862204724409
0
LINE
8
BLACK
6
CONTINUOUS
10
2.7054330314960628
20
-2.2210862204724409
11
2.7096456692913384
21
-2.2204724409448819
0
LINE
8
BLACK
6
CONTINUOUS
10
2.7096456692913384
20
-2.2204724409448819
11
2.7588582677165352
21
-2.2204724409448819
0
LINE
8
BLACK
6
CONTINUOUS
10
2.7588582677165352
20
-2.2204724409448819
11
2.7630709055118108
21
-2.2210862204724409
0
LINE
8
BLACK
6
CONTINUOUS
10
2.7630709055118108
20
-2.1305350393700788
11
2.7674371653543308
21
-2.1326695669291338
0
LINE
8
BLACK
6
CONTINUOUS
10
2.7674371653543308
20
-2.1326695669291338
11
2.7708737401574801
21
-2.1361061417322835
0
LINE
8
BLACK
6
CONTINUOUS
10
2.7708737401574801
20
-2.1361061417322835
11
2.7730082677165355
21
-2.1404724015748031
0
LINE
8
BLACK
6
CONTINUOUS
10
2.7730082677165355
20
-2.1404724015748031
11
2.7736220472440944
21
-2.1446850393700787
0
LINE
8
BLACK
6
CONTINUOUS
10
2.7736220472440944
20
-2.1446850393700787
11
2.7736220472440944
21
-2.1742125984251968
0
LINE
8
BLACK
6
CONTINUOUS
10
2.7736220472440944
20
-2.1742125984251968
11
2.7730082677165355
21
-2.1784252362204723
0
LINE
8
BLACK
6
CONTINUOUS
10
2.7730082677165355
20
-2.1784252362204723
11
2.7708737401574801
21
-2.1827914960629919
0
LINE
8
BLACK
6
CONTINUOUS
10
2.7708737401574801
20
-2.1827914960629919
11
2.7674371653543308
21
-2.1862280708661417
0
LINE
8
BLACK
6
CONTINUOUS
10
2.7674371653543308
20
-2.1862280708661417
11
2.7630709055118108
21
-2.1883625984251966
0
LINE
8
BLACK
6
CONTINUOUS
10
2.7630709055118108
20
-2.1883625984251966
11
2.7588582677165352
21
-2.188976377952756
0
LINE
8
BLACK
6
CONTINUOUS
10
2.7588582677165352
20
-2.188976377952756
11
2.7096456692913384
21
-2.188976377952756
0
LINE
8
BLACK
6
CONTINUOUS
10
2.7096456692913384
20
-2.188976377952756
11
2.7054330314960628
21
-2.1883625984251966
0
LINE
8
BLACK
6
CONTINUOUS
10
2.7054330314960628
20
-2.1883625984251966
11
2.7010667716535433
21
-2.1862280708661417
0
LINE
8
BLACK
6
CONTINUOUS
10
2.7010667716535433
20
-2.1862280708661417
11
2.6976301968503935
21
-2.1827914960629919
0
LINE
8
BLACK
6
CONTINUOUS
10
2.6976301968503935
20
-2.1827914960629919
11
2.6954956692913385
21
-2.1784252362204723
0
LINE
8
BLACK
6
CONTINUOUS
10
2.6954956692913385
20
-2.1784252362204723
11
2.6948818897637796
21
-2.1742125984251968
0
LINE
8
BLACK
6
CONTINUOUS
10
2.6948818897637796
20
-2.1742125984251968
11
2.6948818897637796
21
-2.1446850393700787
0
LINE
8
BLACK
6
CONTINUOUS
10
2.6948818897637796
20
-2.1446850393700787
11
2.6954956692913385
21
-2.1404724015748031
0
LINE
8
BLACK
6
CONTINUOUS
10
2.6954956692913385
20
-2.1404724015748031
11
2.6976301968503935
21
-2.1361061417322835
0
LINE
8
BLACK
6
CONTINUOUS
10
2.6976301968503935
20
-2.1361061417322835
11
2.7010667716535433
21
-2.1326695669291338
0
LINE
8
BLACK
6
CONTINUOUS
10
2.7010667716535433
20
-2.1326695669291338
11
2.7054330314960628
21
-2.1305350393700788
0
LINE
8
BLACK
6
CONTINUOUS
10
2.7054330314960628
20
-2.1305350393700788
11
2.7096456692913384
21
-2.1299212598425195
0
LINE
8
BLACK
6
CONTINUOUS
10
2.7096456692913384
20
-2.1299212598425195
11
2.7588582677165352
21
-2.1299212598425195
0
LINE
8
BLACK
6
CONTINUOUS
10
2.7588582677165352
20
-2.1299212598425195
11
2.7630709055118108
21
-2.1305350393700788
0
LINE
8
BLACK
6
CONTINUOUS
10
3.0254201181102363
20
-2.0922846456692912
11
3.0286132677165352
21
-2.0944182283464565
0
LINE
8
BLACK
6
CONTINUOUS
10
3.0286132677165352
20
-2.0944182283464565
11
3.0307468503937005
21
-2.0976113779527559
0
LINE
8
BLACK
6
CONTINUOUS
10
3.0307468503937005
20
-2.0976113779527559
11
3.0314960629921259
21
-2.1013779527559056
0
LINE
8
BLACK
6
CONTINUOUS
10
3.0314960629921259
20
-2.1013779527559056
11
3.0314960629921259
21
-2.1348425196850394
0
LINE
8
BLACK
6
CONTINUOUS
10
3.0314960629921259
20
-2.1348425196850394
11
3.0307468503937005
21
-2.138609094488189
0
LINE
8
BLACK
6
CONTINUOUS
10
3.0307468503937005
20
-2.138609094488189
11
3.0286132677165352
21
-2.1418022440944879
0
LINE
8
BLACK
6
CONTINUOUS
10
3.0286132677165352
20
-2.1418022440944879
11
3.0254201181102363
21
-2.1439358267716533
0
LINE
8
BLACK
6
CONTINUOUS
10
3.0254201181102363
20
-2.1439358267716533
11
3.0216535433070866
21
-2.1446850393700787
0
LINE
8
BLACK
6
CONTINUOUS
10
3.0216535433070866
20
-2.1446850393700787
11
2.9862204724409449
21
-2.1446850393700787
0
LINE
8
BLACK
6
CONTINUOUS
10
2.9862204724409449
20
-2.1446850393700787
11
2.9824538976377952
21
-2.1439358267716533
0
LINE
8
BLACK
6
CONTINUOUS
10
2.9824538976377952
20
-2.1439358267716533
11
2.9792607480314959
21
-2.1418022440944879
0
LINE
8
BLACK
6
CONTINUOUS
10
2.9792607480314959
20
-2.1418022440944879
11
2.9771271653543305
21
-2.138609094488189
0
LINE
8
BLACK
6
CONTINUOUS
10
2.9771271653543305
20
-2.138609094488189
11
2.9763779527559056
21
-2.1348425196850394
0
LINE
8
BLACK
6
CONTINUOUS
10
2.9763779527559056
20
-2.1348425196850394
11
2.9763779527559056
21
-2.1013779527559056
0
LINE
8
BLACK
6
CONTINUOUS
10
2.9763779527559056
20
-2.1013779527559056
11
2.9771271653543305
21
-2.0976113779527559
0
LINE
8
BLACK
6
CONTINUOUS
10
2.9771271653543305
20
-2.0976113779527559
11
2.9792607480314959
21
-2.0944182283464565
0
LINE
8
BLACK
6
CONTINUOUS
10
2.9792607480314959
20
-2.0944182283464565
11
2.9824538976377952
21
-2.0922846456692912
0
LINE
8
BLACK
6
CONTINUOUS
10
2.9824538976377952
20
-2.0922846456692912
11
2.9862204724409449
21
-2.0915354330708662
0
LINE
8
BLACK
6
CONTINUOUS
10
2.9862204724409449
20
-2.0915354330708662
11
3.0216535433070866
21
-2.0915354330708662
0
LINE
8
BLACK
6
CONTINUOUS
10
3.0216535433070866
20
-2.0915354330708662
11
3.0254201181102363
21
-2.0922846456692912
0
LINE
8
BLACK
6
CONTINUOUS
10
3.1317193307086613
20
-2.0922846456692912
11
3.1349124803149606
21
-2.0944182283464565
0
LINE
8
BLACK
6
CONTINUOUS
10
3.1349124803149606
20
-2.0944182283464565
11
3.137046062992126
21
-2.0976113779527559
0
LINE
8
BLACK
6
CONTINUOUS
10
3.137046062992126
20
-2.0976113779527559
11
3.1377952755905509
21
-2.1013779527559056
0
LINE
8
BLACK
6
CONTINUOUS
10
3.1377952755905509
20
-2.1013779527559056
11
3.1377952755905509
21
-2.1348425196850394
0
LINE
8
BLACK
6
CONTINUOUS
10
3.1377952755905509
20
-2.1348425196850394
11
3.137046062992126
21
-2.138609094488189
0
LINE
8
BLACK
6
CONTINUOUS
10
3.137046062992126
20
-2.138609094488189
11
3.1349124803149606
21
-2.1418022440944879
0
LINE
8
BLACK
6
CONTINUOUS
10
3.1349124803149606
20
-2.1418022440944879
11
3.1317193307086613
21
-2.1439358267716533
0
LINE
8
BLACK
6
CONTINUOUS
10
3.1317193307086613
20
-2.1439358267716533
11
3.1279527559055116
21
-2.1446850393700787
0
LINE
8
BLACK
6
CONTINUOUS
10
3.1279527559055116
20
-2.1446850393700787
11
3.0925196850393699
21
-2.1446850393700787
0
LINE
8
BLACK
6
CONTINUOUS
10
3.0925196850393699
20
-2.1446850393700787
11
3.0887531102362202
21
-2.1439358267716533
0
LINE
8
BLACK
6
CONTINUOUS
10
3.0887531102362202
20
-2.1439358267716533
11
3.0855599606299213
21
-2.1418022440944879
0
LINE
8
BLACK
6
CONTINUOUS
10
3.0855599606299213
20
-2.1418022440944879
11
3.083426377952756
21
-2.138609094488189
0
LINE
8
BLACK
6
CONTINUOUS
10
3.083426377952756
20
-2.138609094488189
11
3.0826771653543306
21
-2.1348425196850394
0
LINE
8
BLACK
6
CONTINUOUS
10
3.0826771653543306
20
-2.1348425196850394
11
3.0826771653543306
21
-2.1013779527559056
0
LINE
8
BLACK
6
CONTINUOUS
10
3.0826771653543306
20
-2.1013779527559056
11
3.083426377952756
21
-2.0976113779527559
0
LINE
8
BLACK
6
CONTINUOUS
10
3.083426377952756
20
-2.0976113779527559
11
3.0855599606299213
21
-2.0944182283464565
0
LINE
8
BLACK
6
CONTINUOUS
10
3.0855599606299213
20
-2.0944182283464565
11
3.0887531102362202
21
-2.0922846456692912
0
LINE
8
BLACK
6
CONTINUOUS
10
3.0887531102362202
20
-2.0922846456692912
11
3.0925196850393699
21
-2.0915354330708662
0
LINE
8
BLACK
6
CONTINUOUS
10
3.0925196850393699
20
-2.0915354330708662
11
3.1279527559055116
21
-2.0915354330708662
0
LINE
8
BLACK
6
CONTINUOUS
10
3.1279527559055116
20
-2.0915354330708662
11
3.1317193307086613
21
-2.0922846456692912
0
LINE
8
BLACK
6
CONTINUOUS
10
2.220763897637795
20
-2.1153471653543305
11
2.2226797637795275
21
-2.1166273228346455
0
LINE
8
BLACK
6
CONTINUOUS
10
2.2226797637795275
20
-2.1166273228346455
11
2.2239599212598424
21
-2.1185431889763779
0
LINE
8
BLACK
6
CONTINUOUS
10
2.2239599212598424
20
-2.1185431889763779
11
2.2244094488188977
21
-2.1208031496062993
0
LINE
8
BLACK
6
CONTINUOUS
10
2.2244094488188977
20
-2.1208031496062993
11
2.2244094488188977
21
-2.1326141732283466
0
LINE
8
BLACK
6
CONTINUOUS
10
2.2244094488188977
20
-2.1326141732283466
11
2.2239599212598424
21
-2.1348741338582675
0
LINE
8
BLACK
6
CONTINUOUS
10
2.2239599212598424
20
-2.1348741338582675
11
2.2226797637795275
21
-2.13679
0
LINE
8
BLACK
6
CONTINUOUS
10
2.2226797637795275
20
-2.13679
11
2.220763897637795
21
-2.1380701574803149
0
LINE
8
BLACK
6
CONTINUOUS
10
2.220763897637795
20
-2.1380701574803149
11
2.2185039370078741
21
-2.1385196850393702
0
LINE
8
BLACK
6
CONTINUOUS
10
2.2185039370078741
20
-2.1385196850393702
11
2.1535433070866143
21
-2.1385196850393702
0
LINE
8
BLACK
6
CONTINUOUS
10
2.1535433070866143
20
-2.1385196850393702
11
2.1512833464566929
21
-2.1380701574803149
0
LINE
8
BLACK
6
CONTINUOUS
10
2.1512833464566929
20
-2.1380701574803149
11
2.1493674803149605
21
-2.13679
0
LINE
8
BLACK
6
CONTINUOUS
10
2.1493674803149605
20
-2.13679
11
2.1480873228346455
21
-2.1348741338582675
0
LINE
8
BLACK
6
CONTINUOUS
10
2.1480873228346455
20
-2.1348741338582675
11
2.1476377952755903
21
-2.1326141732283466
0
LINE
8
BLACK
6
CONTINUOUS
10
2.1476377952755903
20
-2.1326141732283466
11
2.1476377952755903
21
-2.1208031496062993
0
LINE
8
BLACK
6
CONTINUOUS
10
2.1476377952755903
20
-2.1208031496062993
11
2.1480873228346455
21
-2.1185431889763779
0
LINE
8
BLACK
6
CONTINUOUS
10
2.1480873228346455
20
-2.1185431889763779
11
2.1493674803149605
21
-2.1166273228346455
0
LINE
8
BLACK
6
CONTINUOUS
10
2.1493674803149605
20
-2.1166273228346455
11
2.1512833464566929
21
-2.1153471653543305
0
LINE
8
BLACK
6
CONTINUOUS
10
2.1512833464566929
20
-2.1153471653543305
11
2.1535433070866143
21
-2.1148976377952757
0
LINE
8
BLACK
6
CONTINUOUS
10
2.1535433070866143
20
-2.1148976377952757
11
2.2185039370078741
21
-2.1148976377952757
0
LINE
8
BLACK
6
CONTINUOUS
10
2.2185039370078741
20
-2.1148976377952757
11
2.220763897637795
21
-2.1153471653543305
0
LINE
8
BLACK
6
CONTINUOUS
10
2.4156457874015747
20
-2.1153471653543305
11
2.4175616535433071
21
-2.1166273228346455
0
LINE
8
BLACK
6
CONTINUOUS
10
2.4175616535433071
20
-2.1166273228346455
11
2.4188418110236221
21
-2.1185431889763779
0
LINE
8
BLACK
6
CONTINUOUS
10
2.4188418110236221
20
-2.1185431889763779
11
2.4192913385826773
21
-2.1208031496062993
0
LINE
8
BLACK
6
CONTINUOUS
10
2.4192913385826773
20
-2.1208031496062993
11
2.4192913385826773
21
-2.1326141732283466
0
LINE
8
BLACK
6
CONTINUOUS
10
2.4192913385826773
20
-2.1326141732283466
11
2.4188418110236221
21
-2.1348741338582675
0
LINE
8
BLACK
6
CONTINUOUS
10
2.4188418110236221
20
-2.1348741338582675
11
2.4175616535433071
21
-2.13679
0
LINE
8
BLACK
6
CONTINUOUS
10
2.4175616535433071
20
-2.13679
11
2.4156457874015747
21
-2.1380701574803149
0
LINE
8
BLACK
6
CONTINUOUS
10
2.4156457874015747
20
-2.1380701574803149
11
2.4133858267716537
21
-2.1385196850393702
0
LINE
8
BLACK
6
CONTINUOUS
10
2.4133858267716537
20
-2.1385196850393702
11
2.3484251968503935
21
-2.1385196850393702
0
LINE
8
BLACK
6
CONTINUOUS
10
2.3484251968503935
20
-2.1385196850393702
11
2.3461652362204726
21
-2.1380701574803149
0
LINE
8
BLACK
6
CONTINUOUS
10
2.3461652362204726
20
-2.1380701574803149
11
2.3442493700787401
21
-2.13679
0
LINE
8
BLACK
6
CONTINUOUS
10
2.3442493700787401
20
-2.13679
11
2.3429692125984252
21
-2.1348741338582675
0
LINE
8
BLACK
6
CONTINUOUS
10
2.3429692125984252
20
-2.1348741338582675
11
2.3425196850393699
21
-2.1326141732283466
0
LINE
8
BLACK
6
CONTINUOUS
10
2.3425196850393699
20
-2.1326141732283466
11
2.3425196850393699
21
-2.1208031496062993
0
LINE
8
BLACK
6
CONTINUOUS
10
2.3425196850393699
20
-2.1208031496062993
11
2.3429692125984252
21
-2.1185431889763779
0
LINE
8
BLACK
6
CONTINUOUS
10
2.3429692125984252
20
-2.1185431889763779
11
2.3442493700787401
21
-2.1166273228346455
0
LINE
8
BLACK
6
CONTINUOUS
10
2.3442493700787401
20
-2.1166273228346455
11
2.3461652362204726
21
-2.1153471653543305
0
LINE
8
BLACK
6
CONTINUOUS
10
2.3461652362204726
20
-2.1153471653543305
11
2.3484251968503935
21
-2.1148976377952757
0
LINE
8
BLACK
6
CONTINUOUS
10
2.3484251968503935
20
-2.1148976377952757
11
2.4133858267716537
21
-2.1148976377952757
0
LINE
8
BLACK
6
CONTINUOUS
10
2.4133858267716537
20
-2.1148976377952757
11
2.4156457874015747
21
-2.1153471653543305
0
LINE
8
BLACK
6
CONTINUOUS
10
2.475946338582677
20
-2.0784891338582678
11
2.4785008267716533
21
-2.0801960236220474
0
LINE
8
BLACK
6
CONTINUOUS
10
2.4785008267716533
20
-2.0801960236220474
11
2.4802077165354328
21
-2.0827505118110237
0
LINE
8
BLACK
6
CONTINUOUS
10
2.4802077165354328
20
-2.0827505118110237
11
2.4808070866141732
21
-2.085763779527559
0
LINE
8
BLACK
6
CONTINUOUS
10
2.4808070866141732
20
-2.085763779527559
11
2.4808070866141732
21
-2.1015118110236219
0
LINE
8
BLACK
6
CONTINUOUS
10
2.4808070866141732
20
-2.1015118110236219
11
2.4802077165354328
21
-2.1045250787401573
0
LINE
8
BLACK
6
CONTINUOUS
10
2.4802077165354328
20
-2.1045250787401573
11
2.4785008267716533
21
-2.107079566929134
0
LINE
8
BLACK
6
CONTINUOUS
10
2.4785008267716533
20
-2.107079566929134
11
2.475946338582677
21
-2.1087864566929135
0
LINE
8
BLACK
6
CONTINUOUS
10
2.475946338582677
20
-2.1087864566929135
11
2.4729330708661417
21
-2.1093858267716534
0
LINE
8
BLACK
6
CONTINUOUS
10
2.4729330708661417
20
-2.1093858267716534
11
2.4512795275590551
21
-2.1093858267716534
0
LINE
8
BLACK
6
CONTINUOUS
10
2.4512795275590551
20
-2.1093858267716534
11
2.4482662598425198
21
-2.1087864566929135
0
LINE
8
BLACK
6
CONTINUOUS
10
2.4482662598425198
20
-2.1087864566929135
11
2.445711771653543
21
-2.107079566929134
0
LINE
8
BLACK
6
CONTINUOUS
10
2.445711771653543
20
-2.107079566929134
11
2.4440048818897635
21
-2.1045250787401573
0
LINE
8
BLACK
6
CONTINUOUS
10
2.4440048818897635
20
-2.1045250787401573
11
2.4434055118110236
21
-2.1015118110236219
0
LINE
8
BLACK
6
CONTINUOUS
10
2.4434055118110236
20
-2.1015118110236219
11
2.4434055118110236
21
-2.085763779527559
0
LINE
8
BLACK
6
CONTINUOUS
10
2.4434055118110236
20
-2.085763779527559
11
2.4440048818897635
21
-2.0827505118110237
0
LINE
8
BLACK
6
CONTINUOUS
10
2.4440048818897635
20
-2.0827505118110237
11
2.445711771653543
21
-2.0801960236220474
0
LINE
8
BLACK
6
CONTINUOUS
10
2.445711771653543
20
-2.0801960236220474
11
2.4482662598425198
21
-2.0784891338582678
0
LINE
8
BLACK
6
CONTINUOUS
10
2.4482662598425198
20
-2.0784891338582678
11
2.4512795275590551
21
-2.0778897637795275
0
LINE
8
BLACK
6
CONTINUOUS
10
2.4512795275590551
20
-2.0778897637795275
11
2.4729330708661417
21
-2.0778897637795275
0
LINE
8
BLACK
6
CONTINUOUS
10
2.4729330708661417
20
-2.0778897637795275
11
2.475946338582677
21
-2.0784891338582678
0
LINE
8
BLACK
6
CONTINUOUS
10
2.220763897637795
20
-2.0653471653543307
11
2.2226797637795275
21
-2.0666273228346457
0
LINE
8
BLACK
6
CONTINUOUS
10
2.2226797637795275
20
-2.0666273228346457
11
2.2239599212598424
21
-2.0685431889763781
0
LINE
8
BLACK
6
CONTINUOUS
10
2.2239599212598424
20
-2.0685431889763781
11
2.2244094488188977
21
-2.0708031496062991
0
LINE
8
BLACK
6
CONTINUOUS
10
2.2244094488188977
20
-2.0708031496062991
11
2.2244094488188977
21
-2.0826141732283463
0
LINE
8
BLACK
6
CONTINUOUS
10
2.2244094488188977
20
-2.0826141732283463
11
2.2239599212598424
21
-2.0848741338582677
0
LINE
8
BLACK
6
CONTINUOUS
10
2.2239599212598424
20
-2.0848741338582677
11
2.2226797637795275
21
-2.0867900000000001
0
LINE
8
BLACK
6
CONTINUOUS
10
2.2226797637795275
20
-2.0867900000000001
11
2.220763897637795
21
-2.0880701574803151
0
LINE
8
BLACK
6
CONTINUOUS
10
2.220763897637795
20
-2.0880701574803151
11
2.2185039370078741
21
-2.0885196850393699
0
LINE
8
BLACK
6
CONTINUOUS
10
2.2185039370078741
20
-2.0885196850393699
11
2.1535433070866143
21
-2.0885196850393699
0
LINE
8
BLACK
6
CONTINUOUS
10
2.1535433070866143
20
-2.0885196850393699
11
2.1512833464566929
21
-2.0880701574803151
0
LINE
8
BLACK
6
CONTINUOUS
10
2.1512833464566929
20
-2.0880701574803151
11
2.1493674803149605
21
-2.0867900000000001
0
LINE
8
BLACK
6
CONTINUOUS
10
2.1493674803149605
20
-2.0867900000000001
11
2.1480873228346455
21
-2.0848741338582677
0
LINE
8
BLACK
6
CONTINUOUS
10
2.1480873228346455
20
-2.0848741338582677
11
2.1476377952755903
21
-2.0826141732283463
0
LINE
8
BLACK
6
CONTINUOUS
10
2.1476377952755903
20
-2.0826141732283463
11
2.1476377952755903
21
-2.0708031496062991
0
LINE
8
BLACK
6
CONTINUOUS
10
2.1476377952755903
20
-2.0708031496062991
11
2.1480873228346455
21
-2.0685431889763781
0
LINE
8
BLACK
6
CONTINUOUS
10
2.1480873228346455
20
-2.0685431889763781
11
2.1493674803149605
21
-2.0666273228346457
0
LINE
8
BLACK
6
CONTINUOUS
10
2.1493674803149605
20
-2.0666273228346457
11
2.1512833464566929
21
-2.0653471653543307
0
LINE
8
BLACK
6
CONTINUOUS
10
2.1512833464566929
20
-2.0653471653543307
11
2.1535433070866143
21
-2.0648976377952755
0
LINE
8
BLACK
6
CONTINUOUS
10
2.1535433070866143
20
-2.0648976377952755
11
2.2185039370078741
21
-2.0648976377952755
0
LINE
8
BLACK
6
CONTINUOUS
10
2.2185039370078741
20
-2.0648976377952755
11
2.220763897637795
21
-2.0653471653543307
0
LINE
8
BLACK
6
CONTINUOUS
10
2.4156457874015747
20
-2.0653471653543307
11
2.4175616535433071
21
-2.0666273228346457
0
LINE
8
BLACK
6
CONTINUOUS
10
2.4175616535433071
20
-2.0666273228346457
11
2.4188418110236221
21
-2.0685431889763781
0
LINE
8
BLACK
6
CONTINUOUS
10
2.4188418110236221
20
-2.0685431889763781
11
2.4192913385826773
21
-2.0708031496062991
0
LINE
8
BLACK
6
CONTINUOUS
10
2.4192913385826773
20
-2.0708031496062991
11
2.4192913385826773
21
-2.0826141732283463
0
LINE
8
BLACK
6
CONTINUOUS
10
2.4192913385826773
20
-2.0826141732283463
11
2.4188418110236221
21
-2.0848741338582677
0
LINE
8
BLACK
6
CONTINUOUS
10
2.4188418110236221
20
-2.0848741338582677
11
2.4175616535433071
21
-2.0867900000000001
0
LINE
8
BLACK
6
CONTINUOUS
10
2.4175616535433071
20
-2.0867900000000001
11
2.4156457874015747
21
-2.0880701574803151
0
LINE
8
BLACK
6
CONTINUOUS
10
2.4156457874015747
20
-2.0880701574803151
11
2.4133858267716537
21
-2.0885196850393699
0
LINE
8
BLACK
6
CONTINUOUS
10
2.4133858267716537
20
-2.0885196850393699
11
2.3484251968503935
21
-2.0885196850393699
0
LINE
8
BLACK
6
CONTINUOUS
10
2.3484251968503935
20
-2.0885196850393699
11
2.3461652362204726
21
-2.0880701574803151
0
LINE
8
BLACK
6
CONTINUOUS
10
2.3461652362204726
20
-2.0880701574803151
11
2.3442493700787401
21
-2.0867900000000001
0
LINE
8
BLACK
6
CONTINUOUS
10
2.3442493700787401
20
-2.0867900000000001
11
2.3429692125984252
21
-2.0848741338582677
0
LINE
8
BLACK
6
CONTINUOUS
10
2.3429692125984252
20
-2.0848741338582677
11
2.3425196850393699
21
-2.0826141732283463
0
LINE
8
BLACK
6
CONTINUOUS
10
2.3425196850393699
20
-2.0826141732283463
11
2.3425196850393699
21
-2.0708031496062991
0
LINE
8
BLACK
6
CONTINUOUS
10
2.3425196850393699
20
-2.0708031496062991
11
2.3429692125984252
21
-2.0685431889763781
0
LINE
8
BLACK
6
CONTINUOUS
10
2.3429692125984252
20
-2.0685431889763781
11
2.3442493700787401
21
-2.0666273228346457
0
LINE
8
BLACK
6
CONTINUOUS
10
2.3442493700787401
20
-2.0666273228346457
11
2.3461652362204726
21
-2.0653471653543307
0
LINE
8
BLACK
6
CONTINUOUS
10
2.3461652362204726
20
-2.0653471653543307
11
2.3484251968503935
21
-2.0648976377952755
0
LINE
8
BLACK
6
CONTINUOUS
10
2.3484251968503935
20
-2.0648976377952755
11
2.4133858267716537
21
-2.0648976377952755
0
LINE
8
BLACK
6
CONTINUOUS
10
2.4133858267716537
20
-2.0648976377952755
11
2.4156457874015747
21
-2.0653471653543307
0
LINE
8
BLACK
6
CONTINUOUS
10
2.475946338582677
20
-2.0135285039370077
11
2.4785008267716533
21
-2.0152353937007872
0
LINE
8
BLACK
6
CONTINUOUS
10
2.4785008267716533
20
-2.0152353937007872
11
2.4802077165354328
21
-2.0177898818897639
0
LINE
8
BLACK
6
CONTINUOUS
10
2.4802077165354328
20
-2.0177898818897639
11
2.4808070866141732
21
-2.0208031496062993
0
LINE
8
BLACK
6
CONTINUOUS
10
2.4808070866141732
20
-2.0208031496062993
11
2.4808070866141732
21
-2.0365511811023622
0
LINE
8
BLACK
6
CONTINUOUS
10
2.4808070866141732
20
-2.0365511811023622
11
2.4802077165354328
21
-2.0395644488188975
0
LINE
8
BLACK
6
CONTINUOUS
10
2.4802077165354328
20
-2.0395644488188975
11
2.4785008267716533
21
-2.0421189370078738
0
LINE
8
BLACK
6
CONTINUOUS
10
2.4785008267716533
20
-2.0421189370078738
11
2.475946338582677
21
-2.0438258267716534
0
LINE
8
BLACK
6
CONTINUOUS
10
2.475946338582677
20
-2.0438258267716534
11
2.4729330708661417
21
-2.0444251968503937
0
LINE
8
BLACK
6
CONTINUOUS
10
2.4729330708661417
20
-2.0444251968503937
11
2.4512795275590551
21
-2.0444251968503937
0
LINE
8
BLACK
6
CONTINUOUS
10
2.4512795275590551
20
-2.0444251968503937
11
2.4482662598425198
21
-2.0438258267716534
0
LINE
8
BLACK
6
CONTINUOUS
10
2.4482662598425198
20
-2.0438258267716534
11
2.445711771653543
21
-2.0421189370078738
0
LINE
8
BLACK
6
CONTINUOUS
10
2.445711771653543
20
-2.0421189370078738
11
2.4440048818897635
21
-2.0395644488188975
0
LINE
8
BLACK
6
CONTINUOUS
10
2.4440048818897635
20
-2.0395644488188975
11
2.4434055118110236
21
-2.0365511811023622
0
LINE
8
BLACK
6
CONTINUOUS
10
2.4434055118110236
20
-2.0365511811023622
11
2.4434055118110236
21
-2.0208031496062993
0
LINE
8
BLACK
6
CONTINUOUS
10
2.4434055118110236
20
-2.0208031496062993
11
2.4440048818897635
21
-2.0177898818897639
0
LINE
8
BLACK
6
CONTINUOUS
10
2.4440048818897635
20
-2.0177898818897639
11
2.445711771653543
21
-2.0152353937007872
0
LINE
8
BLACK
6
CONTINUOUS
10
2.445711771653543
20
-2.0152353937007872
11
2.4482662598425198
21
-2.0135285039370077
0
LINE
8
BLACK
6
CONTINUOUS
10
2.4482662598425198
20
-2.0135285039370077
11
2.4512795275590551
21
-2.0129291338582678
0
LINE
8
BLACK
6
CONTINUOUS
10
2.4512795275590551
20
-2.0129291338582678
11
2.4729330708661417
21
-2.0129291338582678
0
LINE
8
BLACK
6
CONTINUOUS
10
2.4729330708661417
20
-2.0129291338582678
11
2.475946338582677
21
-2.0135285039370077
0
LINE
8
BLACK
6
CONTINUOUS
10
2.220763897637795
20
-2.0153471653543304
11
2.2226797637795275
21
-2.0166273228346454
0
LINE
8
BLACK
6
CONTINUOUS
10
2.2226797637795275
20
-2.0166273228346454
11
2.2239599212598424
21
-2.0185431889763779
0
LINE
8
BLACK
6
CONTINUOUS
10
2.2239599212598424
20
-2.0185431889763779
11
2.2244094488188977
21
-2.0208031496062993
0
LINE
8
BLACK
6
CONTINUOUS
10
2.2244094488188977
20
-2.0208031496062993
11
2.2244094488188977
21
-2.0326141732283465
0
LINE
8
BLACK
6
CONTINUOUS
10
2.2244094488188977
20
-2.0326141732283465
11
2.2239599212598424
21
-2.0348741338582679
0
LINE
8
BLACK
6
CONTINUOUS
10
2.2239599212598424
20
-2.0348741338582679
11
2.2226797637795275
21
-2.0367899999999999
0
LINE
8
BLACK
6
CONTINUOUS
10
2.2226797637795275
20
-2.0367899999999999
11
2.220763897637795
21
-2.0380701574803148
0
LINE
8
BLACK
6
CONTINUOUS
10
2.220763897637795
20
-2.0380701574803148
11
2.2185039370078741
21
-2.0385196850393701
0
LINE
8
BLACK
6
CONTINUOUS
10
2.2185039370078741
20
-2.0385196850393701
11
2.1535433070866143
21
-2.0385196850393701
0
LINE
8
BLACK
6
CONTINUOUS
10
2.1535433070866143
20
-2.0385196850393701
11
2.1512833464566929
21
-2.0380701574803148
0
LINE
8
BLACK
6
CONTINUOUS
10
2.1512833464566929
20
-2.0380701574803148
11
2.1493674803149605
21
-2.0367899999999999
0
LINE
8
BLACK
6
CONTINUOUS
10
2.1493674803149605
20
-2.0367899999999999
11
2.1480873228346455
21
-2.0348741338582679
0
LINE
8
BLACK
6
CONTINUOUS
10
2.1480873228346455
20
-2.0348741338582679
11
2.1476377952755903
21
-2.0326141732283465
0
LINE
8
BLACK
6
CONTINUOUS
10
2.1476377952755903
20
-2.0326141732283465
11
2.1476377952755903
21
-2.0208031496062993
0
LINE
8
BLACK
6
CONTINUOUS
10
2.1476377952755903
20
-2.0208031496062993
11
2.1480873228346455
21
-2.0185431889763779
0
LINE
8
BLACK
6
CONTINUOUS
10
2.1480873228346455
20
-2.0185431889763779
11
2.1493674803149605
21
-2.0166273228346454
0
LINE
8
BLACK
6
CONTINUOUS
10
2.1493674803149605
20
-2.0166273228346454
11
2.1512833464566929
21
-2.0153471653543304
0
LINE
8
BLACK
6
CONTINUOUS
10
2.1512833464566929
20
-2.0153471653543304
11
2.1535433070866143
21
-2.0148976377952756
0
LINE
8
BLACK
6
CONTINUOUS
10
2.1535433070866143
20
-2.0148976377952756
11
2.2185039370078741
21
-2.0148976377952756
0
LINE
8
BLACK
6
CONTINUOUS
10
2.2185039370078741
20
-2.0148976377952756
11
2.220763897637795
21
-2.0153471653543304
0
LINE
8
BLACK
6
CONTINUOUS
10
2.4156457874015747
20
-2.0153471653543304
11
2.4175616535433071
21
-2.0166273228346454
0
LINE
8
BLACK
6
CONTINUOUS
10
2.4175616535433071
20
-2.0166273228346454
11
2.4188418110236221
21
-2.0185431889763779
0
LINE
8
BLACK
6
CONTINUOUS
10
2.4188418110236221
20
-2.0185431889763779
11
2.4192913385826773
21
-2.0208031496062993
0
LINE
8
BLACK
6
CONTINUOUS
10
2.4192913385826773
20
-2.0208031496062993
11
2.4192913385826773
21
-2.0326141732283465
0
LINE
8
BLACK
6
CONTINUOUS
10
2.4192913385826773
20
-2.0326141732283465
11
2.4188418110236221
21
-2.0348741338582679
0
LINE
8
BLACK
6
CONTINUOUS
10
2.4188418110236221
20
-2.0348741338582679
11
2.4175616535433071
21
-2.0367899999999999
0
LINE
8
BLACK
6
CONTINUOUS
10
2.4175616535433071
20
-2.0367899999999999
11
2.4156457874015747
21
-2.0380701574803148
0
LINE
8
BLACK
6
CONTINUOUS
10
2.4156457874015747
20
-2.0380701574803148
11
2.4133858267716537
21
-2.0385196850393701
0
LINE
8
BLACK
6
CONTINUOUS
10
2.4133858267716537
20
-2.0385196850393701
11
2.3484251968503935
21
-2.0385196850393701
0
LINE
8
BLACK
6
CONTINUOUS
10
2.3484251968503935
20
-2.0385196850393701
11
2.3461652362204726
21
-2.0380701574803148
0
LINE
8
BLACK
6
CONTINUOUS
10
2.3461652362204726
20
-2.0380701574803148
11
2.3442493700787401
21
-2.0367899999999999
0
LINE
8
BLACK
6
CONTINUOUS
10
2.3442493700787401
20
-2.0367899999999999
11
2.3429692125984252
21
-2.0348741338582679
0
LINE
8
BLACK
6
CONTINUOUS
10
2.3429692125984252
20
-2.0348741338582679
11
2.3425196850393699
21
-2.0326141732283465
0
LINE
8
BLACK
6
CONTINUOUS
10
2.3425196850393699
20
-2.0326141732283465
11
2.3425196850393699
21
-2.0208031496062993
0
LINE
8
BLACK
6
CONTINUOUS
10
2.3425196850393699
20
-2.0208031496062993
11
2.3429692125984252
21
-2.0185431889763779
0
LINE
8
BLACK
6
CONTINUOUS
10
2.3429692125984252
20
-2.0185431889763779
11
2.3442493700787401
21
-2.0166273228346454
0
LINE
8
BLACK
6
CONTINUOUS
10
2.3442493700787401
20
-2.0166273228346454
11
2.3461652362204726
21
-2.0153471653543304
0
LINE
8
BLACK
6
CONTINUOUS
10
2.3461652362204726
20
-2.0153471653543304
11
2.3484251968503935
21
-2.0148976377952756
0
LINE
8
BLACK
6
CONTINUOUS
10
2.3484251968503935
20
-2.0148976377952756
11
2.4133858267716537
21
-2.0148976377952756
0
LINE
8
BLACK
6
CONTINUOUS
10
2.4133858267716537
20
-2.0148976377952756
11
2.4156457874015747
21
-2.0153471653543304
0
LINE
8
BLACK
6
CONTINUOUS
10
2.8130683858267718
20
-1.9999222047244094
11
2.8156228740157481
21
-2.0016290944881887
0
LINE
8
BLACK
6
CONTINUOUS
10
2.8156228740157481
20
-2.0016290944881887
11
2.8173297637795276
21
-2.0041835826771655
0
LINE
8
BLACK
6
CONTINUOUS
10
2.8173297637795276
20
-2.0041835826771655
11
2.8179291338582675
21
-2.0071968503937008
0
LINE
8
BLACK
6
CONTINUOUS
10
2.8179291338582675
20
-2.0071968503937008
11
2.8179291338582675
21
-2.0229448818897637
0
LINE
8
BLACK
6
CONTINUOUS
10
2.8179291338582675
20
-2.0229448818897637
11
2.8173297637795276
21
-2.0259581496062991
0
LINE
8
BLACK
6
CONTINUOUS
10
2.8173297637795276
20
-2.0259581496062991
11
2.8156228740157481
21
-2.0285126377952754
0
LINE
8
BLACK
6
CONTINUOUS
10
2.8156228740157481
20
-2.0285126377952754
11
2.8130683858267718
21
-2.0302195275590549
0
LINE
8
BLACK
6
CONTINUOUS
10
2.8130683858267718
20
-2.0302195275590549
11
2.810055118110236
21
-2.0308188976377952
0
LINE
8
BLACK
6
CONTINUOUS
10
2.810055118110236
20
-2.0308188976377952
11
2.7884015748031494
21
-2.0308188976377952
0
LINE
8
BLACK
6
CONTINUOUS
10
2.7884015748031494
20
-2.0308188976377952
11
2.7853883070866141
21
-2.0302195275590549
0
LINE
8
BLACK
6
CONTINUOUS
10
2.7853883070866141
20
-2.0302195275590549
11
2.7828338188976378
21
-2.0285126377952754
0
LINE
8
BLACK
6
CONTINUOUS
10
2.7828338188976378
20
-2.0285126377952754
11
2.7811269291338583
21
-2.0259581496062991
0
LINE
8
BLACK
6
CONTINUOUS
10
2.7811269291338583
20
-2.0259581496062991
11
2.7805275590551179
21
-2.0229448818897637
0
LINE
8
BLACK
6
CONTINUOUS
10
2.7805275590551179
20
-2.0229448818897637
11
2.7805275590551179
21
-2.0071968503937008
0
LINE
8
BLACK
6
CONTINUOUS
10
2.7805275590551179
20
-2.0071968503937008
11
2.7811269291338583
21
-2.0041835826771655
0
LINE
8
BLACK
6
CONTINUOUS
10
2.7811269291338583
20
-2.0041835826771655
11
2.7828338188976378
21
-2.0016290944881887
0
LINE
8
BLACK
6
CONTINUOUS
10
2.7828338188976378
20
-2.0016290944881887
11
2.7853883070866141
21
-1.9999222047244094
0
LINE
8
BLACK
6
CONTINUOUS
10
2.7853883070866141
20
-1.9999222047244094
11
2.7884015748031494
21
-1.9993228346456693
0
LINE
8
BLACK
6
CONTINUOUS
10
2.7884015748031494
20
-1.9993228346456693
11
2.810055118110236
21
-1.9993228346456693
0
LINE
8
BLACK
6
CONTINUOUS
10
2.810055118110236
20
-1.9993228346456693
11
2.8130683858267718
21
-1.9999222047244094
0
LINE
8
BLACK
6
CONTINUOUS
10
2.8824607874015746
20
-1.9960601181102362
11
2.8853346062992125
21
-1.9979803543307086
0
LINE
8
BLACK
6
CONTINUOUS
10
2.8853346062992125
20
-1.9979803543307086
11
2.8872548425196851
21
-2.0008541732283462
0
LINE
8
BLACK
6
CONTINUOUS
10
2.8872548425196851
20
-2.0008541732283462
11
2.8879291338582678
21
-2.0042440944881887
0
LINE
8
BLACK
6
CONTINUOUS
10
2.8879291338582678
20
-2.0042440944881887
11
2.8879291338582678
21
-2.0219606299212596
0
LINE
8
BLACK
6
CONTINUOUS
10
2.8879291338582678
20
-2.0219606299212596
11
2.8872548425196851
21
-2.0253505511811025
0
LINE
8
BLACK
6
CONTINUOUS
10
2.8872548425196851
20
-2.0253505511811025
11
2.8853346062992125
21
-2.0282243700787399
0
LINE
8
BLACK
6
CONTINUOUS
10
2.8853346062992125
20
-2.0282243700787399
11
2.8824607874015746
21
-2.0301446062992126
0
LINE
8
BLACK
6
CONTINUOUS
10
2.8824607874015746
20
-2.0301446062992126
11
2.8790708661417321
21
-2.0308188976377952
0
LINE
8
BLACK
6
CONTINUOUS
10
2.8790708661417321
20
-2.0308188976377952
11
2.8593858267716534
21
-2.0308188976377952
0
LINE
8
BLACK
6
CONTINUOUS
10
2.8593858267716534
20
-2.0308188976377952
11
2.8559959055118109
21
-2.0301446062992126
0
LINE
8
BLACK
6
CONTINUOUS
10
2.8559959055118109
20
-2.0301446062992126
11
2.8531220866141731
21
-2.0282243700787399
0
LINE
8
BLACK
6
CONTINUOUS
10
2.8531220866141731
20
-2.0282243700787399
11
2.8512018503937009
21
-2.0253505511811025
0
LINE
8
BLACK
6
CONTINUOUS
10
2.8512018503937009
20
-2.0253505511811025
11
2.8505275590551182
21
-2.0219606299212596
0
LINE
8
BLACK
6
CONTINUOUS
10
2.8505275590551182
20
-2.0219606299212596
11
2.8505275590551182
21
-2.0042440944881887
0
LINE
8
BLACK
6
CONTINUOUS
10
2.8505275590551182
20
-2.0042440944881887
11
2.8512018503937009
21
-2.0008541732283462
0
LINE
8
BLACK
6
CONTINUOUS
10
2.8512018503937009
20
-2.0008541732283462
11
2.8531220866141731
21
-1.9979803543307086
0
LINE
8
BLACK
6
CONTINUOUS
10
2.8531220866141731
20
-1.9979803543307086
11
2.8559959055118109
21
-1.9960601181102362
0
LINE
8
BLACK
6
CONTINUOUS
10
2.8559959055118109
20
-1.9960601181102362
11
2.8593858267716534
21
-1.9953858267716535
0
LINE
8
BLACK
6
CONTINUOUS
10
2.8593858267716534
20
-1.9953858267716535
11
2.8790708661417321
21
-1.9953858267716535
0
LINE
8
BLACK
6
CONTINUOUS
10
2.8790708661417321
20
-1.9953858267716535
11
2.8824607874015746
21
-1.9960601181102362
0
LINE
8
BLACK
6
CONTINUOUS
10
3.0664607874015748
20
-1.994540433070866
11
3.0693346062992126
21
-1.9964606692913385
0
LINE
8
BLACK
6
CONTINUOUS
10
3.0693346062992126
20
-1.9964606692913385
11
3.0712548425196848
21
-1.9993344881889763
0
LINE
8
BLACK
6
CONTINUOUS
10
3.0712548425196848
20
-1.9993344881889763
11
3.0719291338582675
21
-2.002724409448819
0
LINE
8
BLACK
6
CONTINUOUS
10
3.0719291338582675
20
-2.002724409448819
11
3.0719291338582675
21
-2.0204409448818899
0
LINE
8
BLACK
6
CONTINUOUS
10
3.0719291338582675
20
-2.0204409448818899
11
3.0712548425196848
21
-2.0238308661417324
0
LINE
8
BLACK
6
CONTINUOUS
10
3.0712548425196848
20
-2.0238308661417324
11
3.0693346062992126
21
-2.0267046850393702
0
LINE
8
BLACK
6
CONTINUOUS
10
3.0693346062992126
20
-2.0267046850393702
11
3.0664607874015748
21
-2.0286249212598424
0
LINE
8
BLACK
6
CONTINUOUS
10
3.0664607874015748
20
-2.0286249212598424
11
3.0630708661417323
21
-2.0292992125984251
0
LINE
8
BLACK
6
CONTINUOUS
10
3.0630708661417323
20
-2.0292992125984251
11
3.0433858267716536
21
-2.0292992125984251
0
LINE
8
BLACK
6
CONTINUOUS
10
3.0433858267716536
20
-2.0292992125984251
11
3.0399959055118111
21
-2.0286249212598424
0
LINE
8
BLACK
6
CONTINUOUS
10
3.0399959055118111
20
-2.0286249212598424
11
3.0371220866141733
21
-2.0267046850393702
0
LINE
8
BLACK
6
CONTINUOUS
10
3.0371220866141733
20
-2.0267046850393702
11
3.0352018503937006
21
-2.0238308661417324
0
LINE
8
BLACK
6
CONTINUOUS
10
3.0352018503937006
20
-2.0238308661417324
11
3.034527559055118
21
-2.0204409448818899
0
LINE
8
BLACK
6
CONTINUOUS
10
3.034527559055118
20
-2.0204409448818899
11
3.034527559055118
21
-2.002724409448819
0
LINE
8
BLACK
6
CONTINUOUS
10
3.034527559055118
20
-2.002724409448819
11
3.0352018503937006
21
-1.9993344881889763
0
LINE
8
BLACK
6
CONTINUOUS
10
3.0352018503937006
20
-1.9993344881889763
11
3.0371220866141733
21
-1.9964606692913385
0
LINE
8
BLACK
6
CONTINUOUS
10
3.0371220866141733
20
-1.9964606692913385
11
3.0399959055118111
21
-1.994540433070866
0
LINE
8
BLACK
6
CONTINUOUS
10
3.0399959055118111
20
-1.994540433070866
11
3.0433858267716536
21
-1.9938661417322834
0
LINE
8
BLACK
6
CONTINUOUS
10
3.0433858267716536
20
-1.9938661417322834
11
3.0630708661417323
21
-1.9938661417322834
0
LINE
8
BLACK
6
CONTINUOUS
10
3.0630708661417323
20
-1.9938661417322834
11
3.0664607874015748
21
-1.994540433070866
0
LINE
8
BLACK
6
CONTINUOUS
10
3.1280683858267717
20
-1.9984025196850392
11
3.130622874015748
21
-2.000109409448819
0
LINE
8
BLACK
6
CONTINUOUS
10
3.130622874015748
20
-2.000109409448819
11
3.1323297637795275
21
-2.0026638976377953
0
LINE
8
BLACK
6
CONTINUOUS
10
3.1323297637795275
20
-2.0026638976377953
11
3.1329291338582674
21
-2.0056771653543306
0
LINE
8
BLACK
6
CONTINUOUS
10
3.1329291338582674
20
-2.0056771653543306
11
3.1329291338582674
21
-2.0214251968503936
0
LINE
8
BLACK
6
CONTINUOUS
10
3.1329291338582674
20
-2.0214251968503936
11
3.1323297637795275
21
-2.0244384645669289
0
LINE
8
BLACK
6
CONTINUOUS
10
3.1323297637795275
20
-2.0244384645669289
11
3.130622874015748
21
-2.0269929527559056
0
LINE
8
BLACK
6
CONTINUOUS
10
3.130622874015748
20
-2.0269929527559056
11
3.1280683858267717
21
-2.0286998425196852
0
LINE
8
BLACK
6
CONTINUOUS
10
3.1280683858267717
20
-2.0286998425196852
11
3.125055118110236
21
-2.0292992125984251
0
LINE
8
BLACK
6
CONTINUOUS
10
3.125055118110236
20
-2.0292992125984251
11
3.1034015748031494
21
-2.0292992125984251
0
LINE
8
BLACK
6
CONTINUOUS
10
3.1034015748031494
20
-2.0292992125984251
11
3.1003883070866141
21
-2.0286998425196852
0
LINE
8
BLACK
6
CONTINUOUS
10
3.1003883070866141
20
-2.0286998425196852
11
3.0978338188976378
21
-2.0269929527559056
0
LINE
8
BLACK
6
CONTINUOUS
10
3.0978338188976378
20
-2.0269929527559056
11
3.0961269291338582
21
-2.0244384645669289
0
LINE
8
BLACK
6
CONTINUOUS
10
3.0961269291338582
20
-2.0244384645669289
11
3.0955275590551179
21
-2.0214251968503936
0
LINE
8
BLACK
6
CONTINUOUS
10
3.0955275590551179
20
-2.0214251968503936
11
3.0955275590551179
21
-2.0056771653543306
0
LINE
8
BLACK
6
CONTINUOUS
10
3.0955275590551179
20
-2.0056771653543306
11
3.0961269291338582
21
-2.0026638976377953
0
LINE
8
BLACK
6
CONTINUOUS
10
3.0961269291338582
20
-2.0026638976377953
11
3.0978338188976378
21
-2.000109409448819
0
LINE
8
BLACK
6
CONTINUOUS
10
3.0978338188976378
20
-2.000109409448819
11
3.1003883070866141
21
-1.9984025196850392
0
LINE
8
BLACK
6
CONTINUOUS
10
3.1003883070866141
20
-1.9984025196850392
11
3.1034015748031494
21
-1.9978031496062991
0
LINE
8
BLACK
6
CONTINUOUS
10
3.1034015748031494
20
-1.9978031496062991
11
3.125055118110236
21
-1.9978031496062991
0
LINE
8
BLACK
6
CONTINUOUS
10
3.125055118110236
20
-1.9978031496062991
11
3.1280683858267717
21
-1.9984025196850392
0
LINE
8
BLACK
6
CONTINUOUS
10
2.220763897637795
20
-1.9653471653543306
11
2.2226797637795275
21
-1.9666273228346456
0
LINE
8
BLACK
6
CONTINUOUS
10
2.2226797637795275
20
-1.9666273228346456
11
2.2239599212598424
21
-1.9685431889763778
0
LINE
8
BLACK
6
CONTINUOUS
10
2.2239599212598424
20
-1.9685431889763778
11
2.2244094488188977
21
-1.9708031496062992
0
LINE
8
BLACK
6
CONTINUOUS
10
2.2244094488188977
20
-1.9708031496062992
11
2.2244094488188977
21
-1.9826141732283464
0
LINE
8
BLACK
6
CONTINUOUS
10
2.2244094488188977
20
-1.9826141732283464
11
2.2239599212598424
21
-1.9848741338582676
0
LINE
8
BLACK
6
CONTINUOUS
10
2.2239599212598424
20
-1.9848741338582676
11
2.2226797637795275
21
-1.9867900000000001
0
LINE
8
BLACK
6
CONTINUOUS
10
2.2226797637795275
20
-1.9867900000000001
11
2.220763897637795
21
-1.988070157480315
0
LINE
8
BLACK
6
CONTINUOUS
10
2.220763897637795
20
-1.988070157480315
11
2.2185039370078741
21
-1.98851968503937
0
LINE
8
BLACK
6
CONTINUOUS
10
2.2185039370078741
20
-1.98851968503937
11
2.1535433070866143
21
-1.98851968503937
0
LINE
8
BLACK
6
CONTINUOUS
10
2.1535433070866143
20
-1.98851968503937
11
2.1512833464566929
21
-1.988070157480315
0
LINE
8
BLACK
6
CONTINUOUS
10
2.1512833464566929
20
-1.988070157480315
11
2.1493674803149605
21
-1.9867900000000001
0
LINE
8
BLACK
6
CONTINUOUS
10
2.1493674803149605
20
-1.9867900000000001
11
2.1480873228346455
21
-1.9848741338582676
0
LINE
8
BLACK
6
CONTINUOUS
10
2.1480873228346455
20
-1.9848741338582676
11
2.1476377952755903
21
-1.9826141732283464
0
LINE
8
BLACK
6
CONTINUOUS
10
2.1476377952755903
20
-1.9826141732283464
11
2.1476377952755903
21
-1.9708031496062992
0
LINE
8
BLACK
6
CONTINUOUS
10
2.1476377952755903
20
-1.9708031496062992
11
2.1480873228346455
21
-1.9685431889763778
0
LINE
8
BLACK
6
CONTINUOUS
10
2.1480873228346455
20
-1.9685431889763778
11
2.1493674803149605
21
-1.9666273228346456
0
LINE
8
BLACK
6
CONTINUOUS
10
2.1493674803149605
20
-1.9666273228346456
11
2.1512833464566929
21
-1.9653471653543306
0
LINE
8
BLACK
6
CONTINUOUS
10
2.1512833464566929
20
-1.9653471653543306
11
2.1535433070866143
21
-1.9648976377952756
0
LINE
8
BLACK
6
CONTINUOUS
10
2.1535433070866143
20
-1.9648976377952756
11
2.2185039370078741
21
-1.9648976377952756
0
LINE
8
BLACK
6
CONTINUOUS
10
2.2185039370078741
20
-1.9648976377952756
11
2.220763897637795
21
-1.9653471653543306
0
LINE
8
BLACK
6
CONTINUOUS
10
2.4156457874015747
20
-1.9653471653543306
11
2.4175616535433071
21
-1.9666273228346456
0
LINE
8
BLACK
6
CONTINUOUS
10
2.4175616535433071
20
-1.9666273228346456
11
2.4188418110236221
21
-1.9685431889763778
0
LINE
8
BLACK
6
CONTINUOUS
10
2.4188418110236221
20
-1.9685431889763778
11
2.4192913385826773
21
-1.9708031496062992
0
LINE
8
BLACK
6
CONTINUOUS
10
2.4192913385826773
20
-1.9708031496062992
11
2.4192913385826773
21
-1.9826141732283464
0
LINE
8
BLACK
6
CONTINUOUS
10
2.4192913385826773
20
-1.9826141732283464
11
2.4188418110236221
21
-1.9848741338582676
0
LINE
8
BLACK
6
CONTINUOUS
10
2.4188418110236221
20
-1.9848741338582676
11
2.4175616535433071
21
-1.9867900000000001
0
LINE
8
BLACK
6
CONTINUOUS
10
2.4175616535433071
20
-1.9867900000000001
11
2.4156457874015747
21
-1.988070157480315
0
LINE
8
BLACK
6
CONTINUOUS
10
2.4156457874015747
20
-1.988070157480315
11
2.4133858267716537
21
-1.98851968503937
0
LINE
8
BLACK
6
CONTINUOUS
10
2.4133858267716537
20
-1.98851968503937
11
2.3484251968503935
21
-1.98851968503937
0
LINE
8
BLACK
6
CONTINUOUS
10
2.3484251968503935
20
-1.98851968503937
11
2.3461652362204726
21
-1.988070157480315
0
LINE
8
BLACK
6
CONTINUOUS
10
2.3461652362204726
20
-1.988070157480315
11
2.3442493700787401
21
-1.9867900000000001
0
LINE
8
BLACK
6
CONTINUOUS
10
2.3442493700787401
20
-1.9867900000000001
11
2.3429692125984252
21
-1.9848741338582676
0
LINE
8
BLACK
6
CONTINUOUS
10
2.3429692125984252
20
-1.9848741338582676
11
2.3425196850393699
21
-1.9826141732283464
0
LINE
8
BLACK
6
CONTINUOUS
10
2.3425196850393699
20
-1.9826141732283464
11
2.3425196850393699
21
-1.9708031496062992
0
LINE
8
BLACK
6
CONTINUOUS
10
2.3425196850393699
20
-1.9708031496062992
11
2.3429692125984252
21
-1.9685431889763778
0
LINE
8
BLACK
6
CONTINUOUS
10
2.3429692125984252
20
-1.9685431889763778
11
2.3442493700787401
21
-1.9666273228346456
0
LINE
8
BLACK
6
CONTINUOUS
10
2.3442493700787401
20
-1.9666273228346456
11
2.3461652362204726
21
-1.9653471653543306
0
LINE
8
BLACK
6
CONTINUOUS
10
2.3461652362204726
20
-1.9653471653543306
11
2.3484251968503935
21
-1.9648976377952756
0
LINE
8
BLACK
6
CONTINUOUS
10
2.3484251968503935
20
-1.9648976377952756
11
2.4133858267716537
21
-1.9648976377952756
0
LINE
8
BLACK
6
CONTINUOUS
10
2.4133858267716537
20
-1.9648976377952756
11
2.4156457874015747
21
-1.9653471653543306
0
LINE
8
BLACK
6
CONTINUOUS
10
2.8824607874015746
20
-1.935036496062992
11
2.8853346062992125
21
-1.9369567322834644
0
LINE
8
BLACK
6
CONTINUOUS
10
2.8853346062992125
20
-1.9369567322834644
11
2.8872548425196851
21
-1.9398305511811023
0
LINE
8
BLACK
6
CONTINUOUS
10
2.8872548425196851
20
-1.9398305511811023
11
2.8879291338582678
21
-1.9432204724409448
0
LINE
8
BLACK
6
CONTINUOUS
10
2.8879291338582678
20
-1.9432204724409448
11
2.8879291338582678
21
-1.9609370078740158
0
LINE
8
BLACK
6
CONTINUOUS
10
2.8879291338582678
20
-1.9609370078740158
11
2.8872548425196851
21
-1.9643269291338583
0
LINE
8
BLACK
6
CONTINUOUS
10
2.8872548425196851
20
-1.9643269291338583
11
2.8853346062992125
21
-1.9672007480314959
0
LINE
8
BLACK
6
CONTINUOUS
10
2.8853346062992125
20
-1.9672007480314959
11
2.8824607874015746
21
-1.9691209842519684
0
LINE
8
BLACK
6
CONTINUOUS
10
2.8824607874015746
20
-1.9691209842519684
11
2.8790708661417321
21
-1.9697952755905512
0
LINE
8
BLACK
6
CONTINUOUS
10
2.8790708661417321
20
-1.9697952755905512
11
2.8593858267716534
21
-1.9697952755905512
0
LINE
8
BLACK
6
CONTINUOUS
10
2.8593858267716534
20
-1.9697952755905512
11
2.8559959055118109
21
-1.9691209842519684
0
LINE
8
BLACK
6
CONTINUOUS
10
2.8559959055118109
20
-1.9691209842519684
11
2.8531220866141731
21
-1.9672007480314959
0
LINE
8
BLACK
6
CONTINUOUS
10
2.8531220866141731
20
-1.9672007480314959
11
2.8512018503937009
21
-1.9643269291338583
0
LINE
8
BLACK
6
CONTINUOUS
10
2.8512018503937009
20
-1.9643269291338583
11
2.8505275590551182
21
-1.9609370078740158
0
LINE
8
BLACK
6
CONTINUOUS
10
2.8505275590551182
20
-1.9609370078740158
11
2.8505275590551182
21
-1.9432204724409448
0
LINE
8
BLACK
6
CONTINUOUS
10
2.8505275590551182
20
-1.9432204724409448
11
2.8512018503937009
21
-1.9398305511811023
0
LINE
8
BLACK
6
CONTINUOUS
10
2.8512018503937009
20
-1.9398305511811023
11
2.8531220866141731
21
-1.9369567322834644
0
LINE
8
BLACK
6
CONTINUOUS
10
2.8531220866141731
20
-1.9369567322834644
11
2.8559959055118109
21
-1.935036496062992
0
LINE
8
BLACK
6
CONTINUOUS
10
2.8559959055118109
20
-1.935036496062992
11
2.8593858267716534
21
-1.9343622047244093
0
LINE
8
BLACK
6
CONTINUOUS
10
2.8593858267716534
20
-1.9343622047244093
11
2.8790708661417321
21
-1.9343622047244093
0
LINE
8
BLACK
6
CONTINUOUS
10
2.8790708661417321
20
-1.9343622047244093
11
2.8824607874015746
21
-1.935036496062992
0
LINE
8
BLACK
6
CONTINUOUS
10
3.0664607874015748
20
-1.9335168110236221
11
3.0693346062992126
21
-1.9354370472440945
0
LINE
8
BLACK
6
CONTINUOUS
10
3.0693346062992126
20
-1.9354370472440945
11
3.0712548425196848
21
-1.9383108661417323
0
LINE
8
BLACK
6
CONTINUOUS
10
3.0712548425196848
20
-1.9383108661417323
11
3.0719291338582675
21
-1.9417007874015748
0
LINE
8
BLACK
6
CONTINUOUS
10
3.0719291338582675
20
-1.9417007874015748
11
3.0719291338582675
21
-1.9594173228346456
0
LINE
8
BLACK
6
CONTINUOUS
10
3.0719291338582675
20
-1.9594173228346456
11
3.0712548425196848
21
-1.9628072440944881
0
LINE
8
BLACK
6
CONTINUOUS
10
3.0712548425196848
20
-1.9628072440944881
11
3.0693346062992126
21
-1.965681062992126
0
LINE
8
BLACK
6
CONTINUOUS
10
3.0693346062992126
20
-1.965681062992126
11
3.0664607874015748
21
-1.9676012992125984
0
LINE
8
BLACK
6
CONTINUOUS
10
3.0664607874015748
20
-1.9676012992125984
11
3.0630708661417323
21
-1.9682755905511811
0
LINE
8
BLACK
6
CONTINUOUS
10
3.0630708661417323
20
-1.9682755905511811
11
3.0433858267716536
21
-1.9682755905511811
0
LINE
8
BLACK
6
CONTINUOUS
10
3.0433858267716536
20
-1.9682755905511811
11
3.0399959055118111
21
-1.9676012992125984
0
LINE
8
BLACK
6
CONTINUOUS
10
3.0399959055118111
20
-1.9676012992125984
11
3.0371220866141733
21
-1.965681062992126
0
LINE
8
BLACK
6
CONTINUOUS
10
3.0371220866141733
20
-1.965681062992126
11
3.0352018503937006
21
-1.9628072440944881
0
LINE
8
BLACK
6
CONTINUOUS
10
3.0352018503937006
20
-1.9628072440944881
11
3.034527559055118
21
-1.9594173228346456
0
LINE
8
BLACK
6
CONTINUOUS
10
3.034527559055118
20
-1.9594173228346456
11
3.034527559055118
21
-1.9417007874015748
0
LINE
8
BLACK
6
CONTINUOUS
10
3.034527559055118
20
-1.9417007874015748
11
3.0352018503937006
21
-1.9383108661417323
0
LINE
8
BLACK
6
CONTINUOUS
10
3.0352018503937006
20
-1.9383108661417323
11
3.0371220866141733
21
-1.9354370472440945
0
LINE
8
BLACK
6
CONTINUOUS
10
3.0371220866141733
20
-1.9354370472440945
11
3.0399959055118111
21
-1.9335168110236221
0
LINE
8
BLACK
6
CONTINUOUS
10
3.0399959055118111
20
-1.9335168110236221
11
3.0433858267716536
21
-1.9328425196850394
0
LINE
8
BLACK
6
CONTINUOUS
10
3.0433858267716536
20
-1.9328425196850394
11
3.0630708661417323
21
-1.9328425196850394
0
LINE
8
BLACK
6
CONTINUOUS
10
3.0630708661417323
20
-1.9328425196850394
11
3.0664607874015748
21
-1.9335168110236221
0
LINE
8
BLACK
6
CONTINUOUS
10
2.8130683858267718
20
-1.9349615748031495
11
2.8156228740157481
21
-1.936668464566929
0
LINE
8
BLACK
6
CONTINUOUS
10
2.8156228740157481
20
-1.936668464566929
11
2.8173297637795276
21
-1.9392229527559055
0
LINE
8
BLACK
6
CONTINUOUS
10
2.8173297637795276
20
-1.9392229527559055
11
2.8179291338582675
21
-1.9422362204724408
0
LINE
8
BLACK
6
CONTINUOUS
10
2.8179291338582675
20
-1.9422362204724408
11
2.8179291338582675
21
-1.9579842519685038
0
LINE
8
BLACK
6
CONTINUOUS
10
2.8179291338582675
20
-1.9579842519685038
11
2.8173297637795276
21
-1.9609975196850393
0
LINE
8
BLACK
6
CONTINUOUS
10
2.8173297637795276
20
-1.9609975196850393
11
2.8156228740157481
21
-1.9635520078740156
0
LINE
8
BLACK
6
CONTINUOUS
10
2.8156228740157481
20
-1.9635520078740156
11
2.8130683858267718
21
-1.9652588976377952
0
LINE
8
BLACK
6
CONTINUOUS
10
2.8130683858267718
20
-1.9652588976377952
11
2.810055118110236
21
-1.9658582677165355
0
LINE
8
BLACK
6
CONTINUOUS
10
2.810055118110236
20
-1.9658582677165355
11
2.7884015748031494
21
-1.9658582677165355
0
LINE
8
BLACK
6
CONTINUOUS
10
2.7884015748031494
20
-1.9658582677165355
11
2.7853883070866141
21
-1.9652588976377952
0
LINE
8
BLACK
6
CONTINUOUS
10
2.7853883070866141
20
-1.9652588976377952
11
2.7828338188976378
21
-1.9635520078740156
0
LINE
8
BLACK
6
CONTINUOUS
10
2.7828338188976378
20
-1.9635520078740156
11
2.7811269291338583
21
-1.9609975196850393
0
LINE
8
BLACK
6
CONTINUOUS
10
2.7811269291338583
20
-1.9609975196850393
11
2.7805275590551179
21
-1.9579842519685038
0
LINE
8
BLACK
6
CONTINUOUS
10
2.7805275590551179
20
-1.9579842519685038
11
2.7805275590551179
21
-1.9422362204724408
0
LINE
8
BLACK
6
CONTINUOUS
10
2.7805275590551179
20
-1.9422362204724408
11
2.7811269291338583
21
-1.9392229527559055
0
LINE
8
BLACK
6
CONTINUOUS
10
2.7811269291338583
20
-1.9392229527559055
11
2.7828338188976378
21
-1.936668464566929
0
LINE
8
BLACK
6
CONTINUOUS
10
2.7828338188976378
20
-1.936668464566929
11
2.7853883070866141
21
-1.9349615748031495
0
LINE
8
BLACK
6
CONTINUOUS
10
2.7853883070866141
20
-1.9349615748031495
11
2.7884015748031494
21
-1.9343622047244093
0
LINE
8
BLACK
6
CONTINUOUS
10
2.7884015748031494
20
-1.9343622047244093
11
2.810055118110236
21
-1.9343622047244093
0
LINE
8
BLACK
6
CONTINUOUS
10
2.810055118110236
20
-1.9343622047244093
11
2.8130683858267718
21
-1.9349615748031495
0
LINE
8
BLACK
6
CONTINUOUS
10
3.1280683858267717
20
-1.9334418897637795
11
3.130622874015748
21
-1.935148779527559
0
LINE
8
BLACK
6
CONTINUOUS
10
3.130622874015748
20
-1.935148779527559
11
3.1323297637795275
21
-1.9377032677165353
0
LINE
8
BLACK
6
CONTINUOUS
10
3.1323297637795275
20
-1.9377032677165353
11
3.1329291338582674
21
-1.9407165354330709
0
LINE
8
BLACK
6
CONTINUOUS
10
3.1329291338582674
20
-1.9407165354330709
11
3.1329291338582674
21
-1.9564645669291338
0
LINE
8
BLACK
6
CONTINUOUS
10
3.1329291338582674
20
-1.9564645669291338
11
3.1323297637795275
21
-1.9594778346456692
0
LINE
8
BLACK
6
CONTINUOUS
10
3.1323297637795275
20
-1.9594778346456692
11
3.130622874015748
21
-1.9620323228346457
0
LINE
8
BLACK
6
CONTINUOUS
10
3.130622874015748
20
-1.9620323228346457
11
3.1280683858267717
21
-1.9637392125984252
0
LINE
8
BLACK
6
CONTINUOUS
10
3.1280683858267717
20
-1.9637392125984252
11
3.125055118110236
21
-1.9643385826771653
0
LINE
8
BLACK
6
CONTINUOUS
10
3.125055118110236
20
-1.9643385826771653
11
3.1034015748031494
21
-1.9643385826771653
0
LINE
8
BLACK
6
CONTINUOUS
10
3.1034015748031494
20
-1.9643385826771653
11
3.1003883070866141
21
-1.9637392125984252
0
LINE
8
BLACK
6
CONTINUOUS
10
3.1003883070866141
20
-1.9637392125984252
11
3.0978338188976378
21
-1.9620323228346457
0
LINE
8
BLACK
6
CONTINUOUS
10
3.0978338188976378
20
-1.9620323228346457
11
3.0961269291338582
21
-1.9594778346456692
0
LINE
8
BLACK
6
CONTINUOUS
10
3.0961269291338582
20
-1.9594778346456692
11
3.0955275590551179
21
-1.9564645669291338
0
LINE
8
BLACK
6
CONTINUOUS
10
3.0955275590551179
20
-1.9564645669291338
11
3.0955275590551179
21
-1.9407165354330709
0
LINE
8
BLACK
6
CONTINUOUS
10
3.0955275590551179
20
-1.9407165354330709
11
3.0961269291338582
21
-1.9377032677165353
0
LINE
8
BLACK
6
CONTINUOUS
10
3.0961269291338582
20
-1.9377032677165353
11
3.0978338188976378
21
-1.935148779527559
0
LINE
8
BLACK
6
CONTINUOUS
10
3.0978338188976378
20
-1.935148779527559
11
3.1003883070866141
21
-1.9334418897637795
0
LINE
8
BLACK
6
CONTINUOUS
10
3.1003883070866141
20
-1.9334418897637795
11
3.1034015748031494
21
-1.9328425196850394
0
LINE
8
BLACK
6
CONTINUOUS
10
3.1034015748031494
20
-1.9328425196850394
11
3.125055118110236
21
-1.9328425196850394
0
LINE
8
BLACK
6
CONTINUOUS
10
3.125055118110236
20
-1.9328425196850394
11
3.1280683858267717
21
-1.9334418897637795
0
LINE
8
BLACK
6
CONTINUOUS
10
2.3270290157480313
20
-1.8932529133858267
11
2.3295835039370076
21
-1.8949598031496062
0
LINE
8
BLACK
6
CONTINUOUS
10
2.3295835039370076
20
-1.8949598031496062
11
2.3312903937007872
21
-1.8975142913385827
0
LINE
8
BLACK
6
CONTINUOUS
10
2.3312903937007872
20
-1.8975142913385827
11
2.3318897637795275
21
-1.9005275590551181
0
LINE
8
BLACK
6
CONTINUOUS
10
2.3318897637795275
20
-1.9005275590551181
11
2.3318897637795275
21
-1.9221811023622046
0
LINE
8
BLACK
6
CONTINUOUS
10
2.3318897637795275
20
-1.9221811023622046
11
2.3312903937007872
21
-1.9251943700787402
0
LINE
8
BLACK
6
CONTINUOUS
10
2.3312903937007872
20
-1.9251943700787402
11
2.3295835039370076
21
-1.9277488582677165
0
LINE
8
BLACK
6
CONTINUOUS
10
2.3295835039370076
20
-1.9277488582677165
11
2.3270290157480313
21
-1.929455748031496
0
LINE
8
BLACK
6
CONTINUOUS
10
2.3270290157480313
20
-1.929455748031496
11
2.324015748031496
21
-1.9300551181102361
0
LINE
8
BLACK
6
CONTINUOUS
10
2.324015748031496
20
-1.9300551181102361
11
2.3082677165354331
21
-1.9300551181102361
0
LINE
8
BLACK
6
CONTINUOUS
10
2.3082677165354331
20
-1.9300551181102361
11
2.3052544488188977
21
-1.929455748031496
0
LINE
8
BLACK
6
CONTINUOUS
10
2.3052544488188977
20
-1.929455748031496
11
2.302699960629921
21
-1.9277488582677165
0
LINE
8
BLACK
6
CONTINUOUS
10
2.302699960629921
20
-1.9277488582677165
11
2.3009930708661415
21
-1.9251943700787402
0
LINE
8
BLACK
6
CONTINUOUS
10
2.3009930708661415
20
-1.9251943700787402
11
2.3003937007874016
21
-1.9221811023622046
0
LINE
8
BLACK
6
CONTINUOUS
10
2.3003937007874016
20
-1.9221811023622046
11
2.3003937007874016
21
-1.9005275590551181
0
LINE
8
BLACK
6
CONTINUOUS
10
2.3003937007874016
20
-1.9005275590551181
11
2.3009930708661415
21
-1.8975142913385827
0
LINE
8
BLACK
6
CONTINUOUS
10
2.3009930708661415
20
-1.8975142913385827
11
2.302699960629921
21
-1.8949598031496062
0
LINE
8
BLACK
6
CONTINUOUS
10
2.302699960629921
20
-1.8949598031496062
11
2.3052544488188977
21
-1.8932529133858267
0
LINE
8
BLACK
6
CONTINUOUS
10
2.3052544488188977
20
-1.8932529133858267
11
2.3082677165354331
21
-1.8926535433070866
0
LINE
8
BLACK
6
CONTINUOUS
10
2.3082677165354331
20
-1.8926535433070866
11
2.324015748031496
21
-1.8926535433070866
0
LINE
8
BLACK
6
CONTINUOUS
10
2.324015748031496
20
-1.8926535433070866
11
2.3270290157480313
21
-1.8932529133858267
0
LINE
8
BLACK
6
CONTINUOUS
10
2.3919896456692911
20
-1.8932529133858267
11
2.3945441338582678
21
-1.8949598031496062
0
LINE
8
BLACK
6
CONTINUOUS
10
2.3945441338582678
20
-1.8949598031496062
11
2.3962510236220473
21
-1.8975142913385827
0
LINE
8
BLACK
6
CONTINUOUS
10
2.3962510236220473
20
-1.8975142913385827
11
2.3968503937007872
21
-1.9005275590551181
0
LINE
8
BLACK
6
CONTINUOUS
10
2.3968503937007872
20
-1.9005275590551181
11
2.3968503937007872
21
-1.9221811023622046
0
LINE
8
BLACK
6
CONTINUOUS
10
2.3968503937007872
20
-1.9221811023622046
11
2.3962510236220473
21
-1.9251943700787402
0
LINE
8
BLACK
6
CONTINUOUS
10
2.3962510236220473
20
-1.9251943700787402
11
2.3945441338582678
21
-1.9277488582677165
0
LINE
8
BLACK
6
CONTINUOUS
10
2.3945441338582678
20
-1.9277488582677165
11
2.3919896456692911
21
-1.929455748031496
0
LINE
8
BLACK
6
CONTINUOUS
10
2.3919896456692911
20
-1.929455748031496
11
2.3889763779527557
21
-1.9300551181102361
0
LINE
8
BLACK
6
CONTINUOUS
10
2.3889763779527557
20
-1.9300551181102361
11
2.3732283464566928
21
-1.9300551181102361
0
LINE
8
BLACK
6
CONTINUOUS
10
2.3732283464566928
20
-1.9300551181102361
11
2.3702150787401575
21
-1.929455748031496
0
LINE
8
BLACK
6
CONTINUOUS
10
2.3702150787401575
20
-1.929455748031496
11
2.3676605905511812
21
-1.9277488582677165
0
LINE
8
BLACK
6
CONTINUOUS
10
2.3676605905511812
20
-1.9277488582677165
11
2.3659537007874016
21
-1.9251943700787402
0
LINE
8
BLACK
6
CONTINUOUS
10
2.3659537007874016
20
-1.9251943700787402
11
2.3653543307086613
21
-1.9221811023622046
0
LINE
8
BLACK
6
CONTINUOUS
10
2.3653543307086613
20
-1.9221811023622046
11
2.3653543307086613
21
-1.9005275590551181
0
LINE
8
BLACK
6
CONTINUOUS
10
2.3653543307086613
20
-1.9005275590551181
11
2.3659537007874016
21
-1.8975142913385827
0
LINE
8
BLACK
6
CONTINUOUS
10
2.3659537007874016
20
-1.8975142913385827
11
2.3676605905511812
21
-1.8949598031496062
0
LINE
8
BLACK
6
CONTINUOUS
10
2.3676605905511812
20
-1.8949598031496062
11
2.3702150787401575
21
-1.8932529133858267
0
LINE
8
BLACK
6
CONTINUOUS
10
2.3702150787401575
20
-1.8932529133858267
11
2.3732283464566928
21
-1.8926535433070866
0
LINE
8
BLACK
6
CONTINUOUS
10
2.3732283464566928
20
-1.8926535433070866
11
2.3889763779527557
21
-1.8926535433070866
0
LINE
8
BLACK
6
CONTINUOUS
10
2.3889763779527557
20
-1.8926535433070866
11
2.3919896456692911
21
-1.8932529133858267
0
LINE
8
BLACK
6
CONTINUOUS
10
2.5756353149606297
20
-1.8404891338582676
11
2.5781898031496064
21
-1.8421960236220472
0
LINE
8
BLACK
6
CONTINUOUS
10
2.5781898031496064
20
-1.8421960236220472
11
2.579896692913386
21
-1.8447505118110237
0
LINE
8
BLACK
6
CONTINUOUS
10
2.579896692913386
20
-1.8447505118110237
11
2.5804960629921259
21
-1.847763779527559
0
LINE
8
BLACK
6
CONTINUOUS
10
2.5804960629921259
20
-1.847763779527559
11
2.5804960629921259
21
-1.8694173228346456
0
LINE
8
BLACK
6
CONTINUOUS
10
2.5804960629921259
20
-1.8694173228346456
11
2.579896692913386
21
-1.8724305905511811
0
LINE
8
BLACK
6
CONTINUOUS
10
2.579896692913386
20
-1.8724305905511811
11
2.5781898031496064
21
-1.8749850787401574
0
LINE
8
BLACK
6
CONTINUOUS
10
2.5781898031496064
20
-1.8749850787401574
11
2.5756353149606297
21
-1.8766919685039369
0
LINE
8
BLACK
6
CONTINUOUS
10
2.5756353149606297
20
-1.8766919685039369
11
2.5726220472440944
21
-1.877291338582677
0
LINE
8
BLACK
6
CONTINUOUS
10
2.5726220472440944
20
-1.877291338582677
11
2.5568740157480314
21
-1.877291338582677
0
LINE
8
BLACK
6
CONTINUOUS
10
2.5568740157480314
20
-1.877291338582677
11
2.5538607480314961
21
-1.8766919685039369
0
LINE
8
BLACK
6
CONTINUOUS
10
2.5538607480314961
20
-1.8766919685039369
11
2.5513062598425198
21
-1.8749850787401574
0
LINE
8
BLACK
6
CONTINUOUS
10
2.5513062598425198
20
-1.8749850787401574
11
2.5495993700787403
21
-1.8724305905511811
0
LINE
8
BLACK
6
CONTINUOUS
10
2.5495993700787403
20
-1.8724305905511811
11
2.5489999999999999
21
-1.8694173228346456
0
LINE
8
BLACK
6
CONTINUOUS
10
2.5489999999999999
20
-1.8694173228346456
11
2.5489999999999999
21
-1.847763779527559
0
LINE
8
BLACK
6
CONTINUOUS
10
2.5489999999999999
20
-1.847763779527559
11
2.5495993700787403
21
-1.8447505118110237
0
LINE
8
BLACK
6
CONTINUOUS
10
2.5495993700787403
20
-1.8447505118110237
11
2.5513062598425198
21
-1.8421960236220472
0
LINE
8
BLACK
6
CONTINUOUS
10
2.5513062598425198
20
-1.8421960236220472
11
2.5538607480314961
21
-1.8404891338582676
0
LINE
8
BLACK
6
CONTINUOUS
10
2.5538607480314961
20
-1.8404891338582676
11
2.5568740157480314
21
-1.8398897637795275
0
LINE
8
BLACK
6
CONTINUOUS
10
2.5568740157480314
20
-1.8398897637795275
11
2.5726220472440944
21
-1.8398897637795275
0
LINE
8
BLACK
6
CONTINUOUS
10
2.5726220472440944
20
-1.8398897637795275
11
2.5756353149606297
21
-1.8404891338582676
0
LINE
8
BLACK
6
CONTINUOUS
10
2.6405959448818899
20
-1.8404891338582676
11
2.6431504330708662
21
-1.8421960236220472
0
LINE
8
BLACK
6
CONTINUOUS
10
2.6431504330708662
20
-1.8421960236220472
11
2.6448573228346457
21
-1.8447505118110237
0
LINE
8
BLACK
6
CONTINUOUS
10
2.6448573228346457
20
-1.8447505118110237
11
2.6454566929133856
21
-1.847763779527559
0
LINE
8
BLACK
6
CONTINUOUS
10
2.6454566929133856
20
-1.847763779527559
11
2.6454566929133856
21
-1.8694173228346456
0
LINE
8
BLACK
6
CONTINUOUS
10
2.6454566929133856
20
-1.8694173228346456
11
2.6448573228346457
21
-1.8724305905511811
0
LINE
8
BLACK
6
CONTINUOUS
10
2.6448573228346457
20
-1.8724305905511811
11
2.6431504330708662
21
-1.8749850787401574
0
LINE
8
BLACK
6
CONTINUOUS
10
2.6431504330708662
20
-1.8749850787401574
11
2.6405959448818899
21
-1.8766919685039369
0
LINE
8
BLACK
6
CONTINUOUS
10
2.6405959448818899
20
-1.8766919685039369
11
2.6375826771653541
21
-1.877291338582677
0
LINE
8
BLACK
6
CONTINUOUS
10
2.6375826771653541
20
-1.877291338582677
11
2.6218346456692911
21
-1.877291338582677
0
LINE
8
BLACK
6
CONTINUOUS
10
2.6218346456692911
20
-1.877291338582677
11
2.6188213779527558
21
-1.8766919685039369
0
LINE
8
BLACK
6
CONTINUOUS
10
2.6188213779527558
20
-1.8766919685039369
11
2.6162668897637795
21
-1.8749850787401574
0
LINE
8
BLACK
6
CONTINUOUS
10
2.6162668897637795
20
-1.8749850787401574
11
2.61456
21
-1.8724305905511811
0
LINE
8
BLACK
6
CONTINUOUS
10
2.61456
20
-1.8724305905511811
11
2.6139606299212597
21
-1.8694173228346456
0
LINE
8
BLACK
6
CONTINUOUS
10
2.6139606299212597
20
-1.8694173228346456
11
2.6139606299212597
21
-1.847763779527559
0
LINE
8
BLACK
6
CONTINUOUS
10
2.6139606299212597
20
-1.847763779527559
11
2.61456
21
-1.8447505118110237
0
LINE
8
BLACK
6
CONTINUOUS
10
2.61456
20
-1.8447505118110237
11
2.6162668897637795
21
-1.8421960236220472
0
LINE
8
BLACK
6
CONTINUOUS
10
2.6162668897637795
20
-1.8421960236220472
11
2.6188213779527558
21
-1.8404891338582676
0
LINE
8
BLACK
6
CONTINUOUS
10
2.6188213779527558
20
-1.8404891338582676
11
2.6218346456692911
21
-1.8398897637795275
0
LINE
8
BLACK
6
CONTINUOUS
10
2.6218346456692911
20
-1.8398897637795275
11
2.6375826771653541
21
-1.8398897637795275
0
LINE
8
BLACK
6
CONTINUOUS
10
2.6375826771653541
20
-1.8398897637795275
11
2.6405959448818899
21
-1.8404891338582676
0
LINE
8
BLACK
6
CONTINUOUS
10
2.7628557874015747
20
-1.7832135433070866
11
2.765410275590551
21
-1.7849204330708661
0
LINE
8
BLACK
6
CONTINUOUS
10
2.765410275590551
20
-1.7849204330708661
11
2.7671171653543305
21
-1.7874749212598424
0
LINE
8
BLACK
6
CONTINUOUS
10
2.7671171653543305
20
-1.7874749212598424
11
2.7677165354330708
21
-1.790488188976378
0
LINE
8
BLACK
6
CONTINUOUS
10
2.7677165354330708
20
-1.790488188976378
11
2.7677165354330708
21
-1.8534803149606298
0
LINE
8
BLACK
6
CONTINUOUS
10
2.7677165354330708
20
-1.8534803149606298
11
2.7671171653543305
21
-1.8564935826771654
0
LINE
8
BLACK
6
CONTINUOUS
10
2.7671171653543305
20
-1.8564935826771654
11
2.765410275590551
21
-1.8590480708661417
0
LINE
8
BLACK
6
CONTINUOUS
10
2.765410275590551
20
-1.8590480708661417
11
2.7628557874015747
21
-1.8607549606299212
0
LINE
8
BLACK
6
CONTINUOUS
10
2.7628557874015747
20
-1.8607549606299212
11
2.7598425196850394
21
-1.8613543307086613
0
LINE
8
BLACK
6
CONTINUOUS
10
2.7598425196850394
20
-1.8613543307086613
11
2.7440944881889764
21
-1.8613543307086613
0
LINE
8
BLACK
6
CONTINUOUS
10
2.7440944881889764
20
-1.8613543307086613
11
2.7410812204724411
21
-1.8607549606299212
0
LINE
8
BLACK
6
CONTINUOUS
10
2.7410812204724411
20
-1.8607549606299212
11
2.7385267322834643
21
-1.8590480708661417
0
LINE
8
BLACK
6
CONTINUOUS
10
2.7385267322834643
20
-1.8590480708661417
11
2.7368198425196848
21
-1.8564935826771654
0
LINE
8
BLACK
6
CONTINUOUS
10
2.7368198425196848
20
-1.8564935826771654
11
2.7362204724409449
21
-1.8534803149606298
0
LINE
8
BLACK
6
CONTINUOUS
10
2.7362204724409449
20
-1.8534803149606298
11
2.7362204724409449
21
-1.790488188976378
0
LINE
8
BLACK
6
CONTINUOUS
10
2.7362204724409449
20
-1.790488188976378
11
2.7368198425196848
21
-1.7874749212598424
0
LINE
8
BLACK
6
CONTINUOUS
10
2.7368198425196848
20
-1.7874749212598424
11
2.7385267322834643
21
-1.7849204330708661
0
LINE
8
BLACK
6
CONTINUOUS
10
2.7385267322834643
20
-1.7849204330708661
11
2.7410812204724411
21
-1.7832135433070866
0
LINE
8
BLACK
6
CONTINUOUS
10
2.7410812204724411
20
-1.7832135433070866
11
2.7440944881889764
21
-1.7826141732283465
0
LINE
8
BLACK
6
CONTINUOUS
10
2.7440944881889764
20
-1.7826141732283465
11
2.7598425196850394
21
-1.7826141732283465
0
LINE
8
BLACK
6
CONTINUOUS
10
2.7598425196850394
20
-1.7826141732283465
11
2.7628557874015747
21
-1.7832135433070866
0
LINE
8
BLACK
6
CONTINUOUS
10
2.9282101181102362
20
-1.7832135433070866
11
2.9307646062992125
21
-1.7849204330708661
0
LINE
8
BLACK
6
CONTINUOUS
10
2.9307646062992125
20
-1.7849204330708661
11
2.9324714960629921
21
-1.7874749212598424
0
LINE
8
BLACK
6
CONTINUOUS
10
2.9324714960629921
20
-1.7874749212598424
11
2.9330708661417324
21
-1.790488188976378
0
LINE
8
BLACK
6
CONTINUOUS
10
2.9330708661417324
20
-1.790488188976378
11
2.9330708661417324
21
-1.8534803149606298
0
LINE
8
BLACK
6
CONTINUOUS
10
2.9330708661417324
20
-1.8534803149606298
11
2.9324714960629921
21
-1.8564935826771654
0
LINE
8
BLACK
6
CONTINUOUS
10
2.9324714960629921
20
-1.8564935826771654
11
2.9307646062992125
21
-1.8590480708661417
0
LINE
8
BLACK
6
CONTINUOUS
10
2.9307646062992125
20
-1.8590480708661417
11
2.9282101181102362
21
-1.8607549606299212
0
LINE
8
BLACK
6
CONTINUOUS
10
2.9282101181102362
20
-1.8607549606299212
11
2.9251968503937009
21
-1.8613543307086613
0
LINE
8
BLACK
6
CONTINUOUS
10
2.9251968503937009
20
-1.8613543307086613
11
2.9094488188976375
21
-1.8613543307086613
0
LINE
8
BLACK
6
CONTINUOUS
10
2.9094488188976375
20
-1.8613543307086613
11
2.9064355511811022
21
-1.8607549606299212
0
LINE
8
BLACK
6
CONTINUOUS
10
2.9064355511811022
20
-1.8607549606299212
11
2.9038810629921259
21
-1.8590480708661417
0
LINE
8
BLACK
6
CONTINUOUS
10
2.9038810629921259
20
-1.8590480708661417
11
2.9021741732283464
21
-1.8564935826771654
0
LINE
8
BLACK
6
CONTINUOUS
10
2.9021741732283464
20
-1.8564935826771654
11
2.901574803149606
21
-1.8534803149606298
0
LINE
8
BLACK
6
CONTINUOUS
10
2.901574803149606
20
-1.8534803149606298
11
2.901574803149606
21
-1.790488188976378
0
LINE
8
BLACK
6
CONTINUOUS
10
2.901574803149606
20
-1.790488188976378
11
2.9021741732283464
21
-1.7874749212598424
0
LINE
8
BLACK
6
CONTINUOUS
10
2.9021741732283464
20
-1.7874749212598424
11
2.9038810629921259
21
-1.7849204330708661
0
LINE
8
BLACK
6
CONTINUOUS
10
2.9038810629921259
20
-1.7849204330708661
11
2.9064355511811022
21
-1.7832135433070866
0
LINE
8
BLACK
6
CONTINUOUS
10
2.9064355511811022
20
-1.7832135433070866
11
2.9094488188976375
21
-1.7826141732283465
0
LINE
8
BLACK
6
CONTINUOUS
10
2.9094488188976375
20
-1.7826141732283465
11
2.9251968503937009
21
-1.7826141732283465
0
LINE
8
BLACK
6
CONTINUOUS
10
2.9251968503937009
20
-1.7826141732283465
11
2.9282101181102362
21
-1.7832135433070866
0
LINE
8
BLACK
6
CONTINUOUS
10
3.0266353149606298
20
-1.7832135433070866
11
3.0291898031496061
21
-1.7849204330708661
0
LINE
8
BLACK
6
CONTINUOUS
10
3.0291898031496061
20
-1.7849204330708661
11
3.0308966929133856
21
-1.7874749212598424
0
LINE
8
BLACK
6
CONTINUOUS
10
3.0308966929133856
20
-1.7874749212598424
11
3.0314960629921259
21
-1.790488188976378
0
LINE
8
BLACK
6
CONTINUOUS
10
3.0314960629921259
20
-1.790488188976378
11
3.0314960629921259
21
-1.8534803149606298
0
LINE
8
BLACK
6
CONTINUOUS
10
3.0314960629921259
20
-1.8534803149606298
11
3.0308966929133856
21
-1.8564935826771654
0
LINE
8
BLACK
6
CONTINUOUS
10
3.0308966929133856
20
-1.8564935826771654
11
3.0291898031496061
21
-1.8590480708661417
0
LINE
8
BLACK
6
CONTINUOUS
10
3.0291898031496061
20
-1.8590480708661417
11
3.0266353149606298
21
-1.8607549606299212
0
LINE
8
BLACK
6
CONTINUOUS
10
3.0266353149606298
20
-1.8607549606299212
11
3.0236220472440944
21
-1.8613543307086613
0
LINE
8
BLACK
6
CONTINUOUS
10
3.0236220472440944
20
-1.8613543307086613
11
3.0078740157480315
21
-1.8613543307086613
0
LINE
8
BLACK
6
CONTINUOUS
10
3.0078740157480315
20
-1.8613543307086613
11
3.0048607480314962
21
-1.8607549606299212
0
LINE
8
BLACK
6
CONTINUOUS
10
3.0048607480314962
20
-1.8607549606299212
11
3.0023062598425194
21
-1.8590480708661417
0
LINE
8
BLACK
6
CONTINUOUS
10
3.0023062598425194
20
-1.8590480708661417
11
3.0005993700787399
21
-1.8564935826771654
0
LINE
8
BLACK
6
CONTINUOUS
10
3.0005993700787399
20
-1.8564935826771654
11
3.
21
-1.8534803149606298
0
LINE
8
BLACK
6
CONTINUOUS
10
3.
20
-1.8534803149606298
11
3.
21
-1.790488188976378
0
LINE
8
BLACK
6
CONTINUOUS
10
3.
20
-1.790488188976378
11
3.0005993700787399
21
-1.7874749212598424
0
LINE
8
BLACK
6
CONTINUOUS
10
3.0005993700787399
20
-1.7874749212598424
11
3.0023062598425194
21
-1.7849204330708661
0
LINE
8
BLACK
6
CONTINUOUS
10
3.0023062598425194
20
-1.7849204330708661
11
3.0048607480314962
21
-1.7832135433070866
0
LINE
8
BLACK
6
CONTINUOUS
10
3.0048607480314962
20
-1.7832135433070866
11
3.0078740157480315
21
-1.7826141732283465
0
LINE
8
BLACK
6
CONTINUOUS
10
3.0078740157480315
20
-1.7826141732283465
11
3.0236220472440944
21
-1.7826141732283465
0
LINE
8
BLACK
6
CONTINUOUS
10
3.0236220472440944
20
-1.7826141732283465
11
3.0266353149606298
21
-1.7832135433070866
0
LINE
8
BLACK
6
CONTINUOUS
10
3.1919896456692913
20
-1.7832135433070866
11
3.1945441338582676
21
-1.7849204330708661
0
LINE
8
BLACK
6
CONTINUOUS
10
3.1945441338582676
20
-1.7849204330708661
11
3.1962510236220472
21
-1.7874749212598424
0
LINE
8
BLACK
6
CONTINUOUS
10
3.1962510236220472
20
-1.7874749212598424
11
3.1968503937007875
21
-1.790488188976378
0
LINE
8
BLACK
6
CONTINUOUS
10
3.1968503937007875
20
-1.790488188976378
11
3.1968503937007875
21
-1.8534803149606298
0
LINE
8
BLACK
6
CONTINUOUS
10
3.1968503937007875
20
-1.8534803149606298
11
3.1962510236220472
21
-1.8564935826771654
0
LINE
8
BLACK
6
CONTINUOUS
10
3.1962510236220472
20
-1.8564935826771654
11
3.1945441338582676
21
-1.8590480708661417
0
LINE
8
BLACK
6
CONTINUOUS
10
3.1945441338582676
20
-1.8590480708661417
11
3.1919896456692913
21
-1.8607549606299212
0
LINE
8
BLACK
6
CONTINUOUS
10
3.1919896456692913
20
-1.8607549606299212
11
3.188976377952756
21
-1.8613543307086613
0
LINE
8
BLACK
6
CONTINUOUS
10
3.188976377952756
20
-1.8613543307086613
11
3.173228346456693
21
-1.8613543307086613
0
LINE
8
BLACK
6
CONTINUOUS
10
3.173228346456693
20
-1.8613543307086613
11
3.1702150787401573
21
-1.8607549606299212
0
LINE
8
BLACK
6
CONTINUOUS
10
3.1702150787401573
20
-1.8607549606299212
11
3.167660590551181
21
-1.8590480708661417
0
LINE
8
BLACK
6
CONTINUOUS
10
3.167660590551181
20
-1.8590480708661417
11
3.1659537007874015
21
-1.8564935826771654
0
LINE
8
BLACK
6
CONTINUOUS
10
3.1659537007874015
20
-1.8564935826771654
11
3.1653543307086611
21
-1.8534803149606298
0
LINE
8
BLACK
6
CONTINUOUS
10
3.1653543307086611
20
-1.8534803149606298
11
3.1653543307086611
21
-1.790488188976378
0
LINE
8
BLACK
6
CONTINUOUS
10
3.1653543307086611
20
-1.790488188976378
11
3.1659537007874015
21
-1.7874749212598424
0
LINE
8
BLACK
6
CONTINUOUS
10
3.1659537007874015
20
-1.7874749212598424
11
3.167660590551181
21
-1.7849204330708661
0
LINE
8
BLACK
6
CONTINUOUS
10
3.167660590551181
20
-1.7849204330708661
11
3.1702150787401573
21
-1.7832135433070866
0
LINE
8
BLACK
6
CONTINUOUS
10
3.1702150787401573
20
-1.7832135433070866
11
3.173228346456693
21
-1.7826141732283465
0
LINE
8
BLACK
6
CONTINUOUS
10
3.173228346456693
20
-1.7826141732283465
11
3.188976377952756
21
-1.7826141732283465
0
LINE
8
BLACK
6
CONTINUOUS
10
3.188976377952756
20
-1.7826141732283465
11
3.1919896456692913
21
-1.7832135433070866
0
LINE
8
BLACK
6
CONTINUOUS
10
2.5741323622047245
20
-1.7685453149606298
11
2.576926377952756
21
-1.7704122047244093
0
LINE
8
BLACK
6
CONTINUOUS
10
2.576926377952756
20
-1.7704122047244093
11
2.5787932677165353
21
-1.7732062204724408
0
LINE
8
BLACK
6
CONTINUOUS
10
2.5787932677165353
20
-1.7732062204724408
11
2.5794488188976379
21
-1.7765019685039369
0
LINE
8
BLACK
6
CONTINUOUS
10
2.5794488188976379
20
-1.7765019685039369
11
2.5794488188976379
21
-1.7966791338582677
0
LINE
8
BLACK
6
CONTINUOUS
10
2.5794488188976379
20
-1.7966791338582677
11
2.5787932677165353
21
-1.7999748818897638
0
LINE
8
BLACK
6
CONTINUOUS
10
2.5787932677165353
20
-1.7999748818897638
11
2.576926377952756
21
-1.8027688976377951
0
LINE
8
BLACK
6
CONTINUOUS
10
2.576926377952756
20
-1.8027688976377951
11
2.5741323622047245
21
-1.8046357874015748
0
LINE
8
BLACK
6
CONTINUOUS
10
2.5741323622047245
20
-1.8046357874015748
11
2.5708366141732282
21
-1.8052913385826772
0
LINE
8
BLACK
6
CONTINUOUS
10
2.5708366141732282
20
-1.8052913385826772
11
2.5536122047244092
21
-1.8052913385826772
0
LINE
8
BLACK
6
CONTINUOUS
10
2.5536122047244092
20
-1.8052913385826772
11
2.5503164566929133
21
-1.8046357874015748
0
LINE
8
BLACK
6
CONTINUOUS
10
2.5503164566929133
20
-1.8046357874015748
11
2.5475224409448818
21
-1.8027688976377951
0
LINE
8
BLACK
6
CONTINUOUS
10
2.5475224409448818
20
-1.8027688976377951
11
2.5456555511811021
21
-1.7999748818897638
0
LINE
8
BLACK
6
CONTINUOUS
10
2.5456555511811021
20
-1.7999748818897638
11
2.5449999999999999
21
-1.7966791338582677
0
LINE
8
BLACK
6
CONTINUOUS
10
2.5449999999999999
20
-1.7966791338582677
11
2.5449999999999999
21
-1.7765019685039369
0
LINE
8
BLACK
6
CONTINUOUS
10
2.5449999999999999
20
-1.7765019685039369
11
2.5456555511811021
21
-1.7732062204724408
0
LINE
8
BLACK
6
CONTINUOUS
10
2.5456555511811021
20
-1.7732062204724408
11
2.5475224409448818
21
-1.7704122047244093
0
LINE
8
BLACK
6
CONTINUOUS
10
2.5475224409448818
20
-1.7704122047244093
11
2.5503164566929133
21
-1.7685453149606298
0
LINE
8
BLACK
6
CONTINUOUS
10
2.5503164566929133
20
-1.7685453149606298
11
2.5536122047244092
21
-1.7678897637795274
0
LINE
8
BLACK
6
CONTINUOUS
10
2.5536122047244092
20
-1.7678897637795274
11
2.5708366141732282
21
-1.7678897637795274
0
LINE
8
BLACK
6
CONTINUOUS
10
2.5708366141732282
20
-1.7678897637795274
11
2.5741323622047245
21
-1.7685453149606298
0
LINE
8
BLACK
6
CONTINUOUS
10
2.6361402362204722
20
-1.7685453149606298
11
2.6389342519685037
21
-1.7704122047244093
0
LINE
8
BLACK
6
CONTINUOUS
10
2.6389342519685037
20
-1.7704122047244093
11
2.6408011417322834
21
-1.7732062204724408
0
LINE
8
BLACK
6
CONTINUOUS
10
2.6408011417322834
20
-1.7732062204724408
11
2.6414566929133856
21
-1.7765019685039369
0
LINE
8
BLACK
6
CONTINUOUS
10
2.6414566929133856
20
-1.7765019685039369
11
2.6414566929133856
21
-1.7966791338582677
0
LINE
8
BLACK
6
CONTINUOUS
10
2.6414566929133856
20
-1.7966791338582677
11
2.6408011417322834
21
-1.7999748818897638
0
LINE
8
BLACK
6
CONTINUOUS
10
2.6408011417322834
20
-1.7999748818897638
11
2.6389342519685037
21
-1.8027688976377951
0
LINE
8
BLACK
6
CONTINUOUS
10
2.6389342519685037
20
-1.8027688976377951
11
2.6361402362204722
21
-1.8046357874015748
0
LINE
8
BLACK
6
CONTINUOUS
10
2.6361402362204722
20
-1.8046357874015748
11
2.6328444881889763
21
-1.8052913385826772
0
LINE
8
BLACK
6
CONTINUOUS
10
2.6328444881889763
20
-1.8052913385826772
11
2.6156200787401573
21
-1.8052913385826772
0
LINE
8
BLACK
6
CONTINUOUS
10
2.6156200787401573
20
-1.8052913385826772
11
2.6123243307086614
21
-1.8046357874015748
0
LINE
8
BLACK
6
CONTINUOUS
10
2.6123243307086614
20
-1.8046357874015748
11
2.6095303149606299
21
-1.8027688976377951
0
LINE
8
BLACK
6
CONTINUOUS
10
2.6095303149606299
20
-1.8027688976377951
11
2.6076634251968502
21
-1.7999748818897638
0
LINE
8
BLACK
6
CONTINUOUS
10
2.6076634251968502
20
-1.7999748818897638
11
2.6070078740157481
21
-1.7966791338582677
0
LINE
8
BLACK
6
CONTINUOUS
10
2.6070078740157481
20
-1.7966791338582677
11
2.6070078740157481
21
-1.7765019685039369
0
LINE
8
BLACK
6
CONTINUOUS
10
2.6070078740157481
20
-1.7765019685039369
11
2.6076634251968502
21
-1.7732062204724408
0
LINE
8
BLACK
6
CONTINUOUS
10
2.6076634251968502
20
-1.7732062204724408
11
2.6095303149606299
21
-1.7704122047244093
0
LINE
8
BLACK
6
CONTINUOUS
10
2.6095303149606299
20
-1.7704122047244093
11
2.6123243307086614
21
-1.7685453149606298
0
LINE
8
BLACK
6
CONTINUOUS
10
2.6123243307086614
20
-1.7685453149606298
11
2.6156200787401573
21
-1.7678897637795274
0
LINE
8
BLACK
6
CONTINUOUS
10
2.6156200787401573
20
-1.7678897637795274
11
2.6328444881889763
21
-1.7678897637795274
0
LINE
8
BLACK
6
CONTINUOUS
10
2.6328444881889763
20
-1.7678897637795274
11
2.6361402362204722
21
-1.7685453149606298
0
LINE
8
BLACK
6
CONTINUOUS
10
2.2323439763779529
20
-1.6897096062992125
11
2.2348984645669292
21
-1.691416496062992
0
LINE
8
BLACK
6
CONTINUOUS
10
2.2348984645669292
20
-1.691416496062992
11
2.2366053543307087
21
-1.6939709842519686
0
LINE
8
BLACK
6
CONTINUOUS
10
2.2366053543307087
20
-1.6939709842519686
11
2.2372047244094486
21
-1.6969842519685039
0
LINE
8
BLACK
6
CONTINUOUS
10
2.2372047244094486
20
-1.6969842519685039
11
2.2372047244094486
21
-1.7127322834645669
0
LINE
8
BLACK
6
CONTINUOUS
10
2.2372047244094486
20
-1.7127322834645669
11
2.2366053543307087
21
-1.7157455511811024
0
LINE
8
BLACK
6
CONTINUOUS
10
2.2366053543307087
20
-1.7157455511811024
11
2.2348984645669292
21
-1.7183000393700787
0
LINE
8
BLACK
6
CONTINUOUS
10
2.2348984645669292
20
-1.7183000393700787
11
2.2323439763779529
21
-1.7200069291338582
0
LINE
8
BLACK
6
CONTINUOUS
10
2.2323439763779529
20
-1.7200069291338582
11
2.2293307086614171
21
-1.7206062992125983
0
LINE
8
BLACK
6
CONTINUOUS
10
2.2293307086614171
20
-1.7206062992125983
11
2.2076771653543306
21
-1.7206062992125983
0
LINE
8
BLACK
6
CONTINUOUS
10
2.2076771653543306
20
-1.7206062992125983
11
2.2046638976377952
21
-1.7200069291338582
0
LINE
8
BLACK
6
CONTINUOUS
10
2.2046638976377952
20
-1.7200069291338582
11
2.2021094094488189
21
-1.7183000393700787
0
LINE
8
BLACK
6
CONTINUOUS
10
2.2021094094488189
20
-1.7183000393700787
11
2.2004025196850394
21
-1.7157455511811024
0
LINE
8
BLACK
6
CONTINUOUS
10
2.2004025196850394
20
-1.7157455511811024
11
2.1998031496062991
21
-1.7127322834645669
0
LINE
8
BLACK
6
CONTINUOUS
10
2.1998031496062991
20
-1.7127322834645669
11
2.1998031496062991
21
-1.6969842519685039
0
LINE
8
BLACK
6
CONTINUOUS
10
2.1998031496062991
20
-1.6969842519685039
11
2.2004025196850394
21
-1.6939709842519686
0
LINE
8
BLACK
6
CONTINUOUS
10
2.2004025196850394
20
-1.6939709842519686
11
2.2021094094488189
21
-1.691416496062992
0
LINE
8
BLACK
6
CONTINUOUS
10
2.2021094094488189
20
-1.691416496062992
11
2.2046638976377952
21
-1.6897096062992125
0
LINE
8
BLACK
6
CONTINUOUS
10
2.2046638976377952
20
-1.6897096062992125
11
2.2076771653543306
21
-1.6891102362204724
0
LINE
8
BLACK
6
CONTINUOUS
10
2.2076771653543306
20
-1.6891102362204724
11
2.2293307086614171
21
-1.6891102362204724
0
LINE
8
BLACK
6
CONTINUOUS
10
2.2293307086614171
20
-1.6891102362204724
11
2.2323439763779529
21
-1.6897096062992125
0
LINE
8
BLACK
6
CONTINUOUS
10
2.5811023622047244
20
-1.6743464566929134
11
2.5456692913385828
21
-1.6743464566929134
0
LINE
8
BLACK
6
CONTINUOUS
10
2.5456692913385828
20
-1.6743464566929134
11
2.5456692913385828
21
-1.615291338582677
0
LINE
8
BLACK
6
CONTINUOUS
10
2.5456692913385828
20
-1.615291338582677
11
2.5811023622047244
21
-1.615291338582677
0
LINE
8
BLACK
6
CONTINUOUS
10
2.5811023622047244
20
-1.615291338582677
11
2.5811023622047244
21
-1.6743464566929134
0
LINE
8
BLACK
6
CONTINUOUS
10
2.6311023622047243
20
-1.6743464566929134
11
2.5956692913385826
21
-1.6743464566929134
0
LINE
8
BLACK
6
CONTINUOUS
10
2.5956692913385826
20
-1.6743464566929134
11
2.5956692913385826
21
-1.615291338582677
0
LINE
8
BLACK
6
CONTINUOUS
10
2.5956692913385826
20
-1.615291338582677
11
2.6311023622047243
21
-1.615291338582677
0
LINE
8
BLACK
6
CONTINUOUS
10
2.6311023622047243
20
-1.615291338582677
11
2.6311023622047243
21
-1.6743464566929134
0
LINE
8
BLACK
6
CONTINUOUS
10
2.6811023622047245
20
-1.6743464566929134
11
2.6456692913385824
21
-1.6743464566929134
0
LINE
8
BLACK
6
CONTINUOUS
10
2.6456692913385824
20
-1.6743464566929134
11
2.6456692913385824
21
-1.615291338582677
0
LINE
8
BLACK
6
CONTINUOUS
10
2.6456692913385824
20
-1.615291338582677
11
2.6811023622047245
21
-1.615291338582677
0
LINE
8
BLACK
6
CONTINUOUS
10
2.6811023622047245
20
-1.615291338582677
11
2.6811023622047245
21
-1.6743464566929134
0
LINE
8
BLACK
6
CONTINUOUS
10
2.7311023622047244
20
-1.6743464566929134
11
2.6956692913385827
21
-1.6743464566929134
0
LINE
8
BLACK
6
CONTINUOUS
10
2.6956692913385827
20
-1.6743464566929134
11
2.6956692913385827
21
-1.615291338582677
0
LINE
8
BLACK
6
CONTINUOUS
10
2.6956692913385827
20
-1.615291338582677
11
2.7311023622047244
21
-1.615291338582677
0
LINE
8
BLACK
6
CONTINUOUS
10
2.7311023622047244
20
-1.615291338582677
11
2.7311023622047244
21
-1.6743464566929134
0
LINE
8
BLACK
6
CONTINUOUS
10
2.7811023622047242
20
-1.6743464566929134
11
2.7456692913385825
21
-1.6743464566929134
0
LINE
8
BLACK
6
CONTINUOUS
10
2.7456692913385825
20
-1.6743464566929134
11
2.7456692913385825
21
-1.615291338582677
0
LINE
8
BLACK
6
CONTINUOUS
10
2.7456692913385825
20
-1.615291338582677
11
2.7811023622047242
21
-1.615291338582677
0
LINE
8
BLACK
6
CONTINUOUS
10
2.7811023622047242
20
-1.615291338582677
11
2.7811023622047242
21
-1.6743464566929134
0
LINE
8
BLACK
6
CONTINUOUS
10
2.8311023622047244
20
-1.6743464566929134
11
2.7956692913385828
21
-1.6743464566929134
0
LINE
8
BLACK
6
CONTINUOUS
10
2.7956692913385828
20
-1.6743464566929134
11
2.7956692913385828
21
-1.615291338582677
0
LINE
8
BLACK
6
CONTINUOUS
10
2.7956692913385828
20
-1.615291338582677
11
2.8311023622047244
21
-1.615291338582677
0
LINE
8
BLACK
6
CONTINUOUS
10
2.8311023622047244
20
-1.615291338582677
11
2.8311023622047244
21
-1.6743464566929134
0
LINE
8
BLACK
6
CONTINUOUS
10
2.8811023622047243
20
-1.6743464566929134
11
2.8456692913385826
21
-1.6743464566929134
0
LINE
8
BLACK
6
CONTINUOUS
10
2.8456692913385826
20
-1.6743464566929134
11
2.8456692913385826
21
-1.615291338582677
0
LINE
8
BLACK
6
CONTINUOUS
10
2.8456692913385826
20
-1.615291338582677
11
2.8811023622047243
21
-1.615291338582677
0
LINE
8
BLACK
6
CONTINUOUS
10
2.8811023622047243
20
-1.615291338582677
11
2.8811023622047243
21
-1.6743464566929134
0
LINE
8
BLACK
6
CONTINUOUS
10
2.9311023622047245
20
-1.6743464566929134
11
2.8956692913385824
21
-1.6743464566929134
0
LINE
8
BLACK
6
CONTINUOUS
10
2.8956692913385824
20
-1.6743464566929134
11
2.8956692913385824
21
-1.615291338582677
0
LINE
8
BLACK
6
CONTINUOUS
10
2.8956692913385824
20
-1.615291338582677
11
2.9311023622047245
21
-1.615291338582677
0
LINE
8
BLACK
6
CONTINUOUS
10
2.9311023622047245
20
-1.615291338582677
11
2.9311023622047245
21
-1.6743464566929134
0
LINE
8
BLACK
6
CONTINUOUS
10
2.9811023622047244
20
-1.6743464566929134
11
2.9456692913385827
21
-1.6743464566929134
0
LINE
8
BLACK
6
CONTINUOUS
10
2.9456692913385827
20
-1.6743464566929134
11
2.9456692913385827
21
-1.615291338582677
0
LINE
8
BLACK
6
CONTINUOUS
10
2.9456692913385827
20
-1.615291338582677
11
2.9811023622047244
21
-1.615291338582677
0
LINE
8
BLACK
6
CONTINUOUS
10
2.9811023622047244
20
-1.615291338582677
11
2.9811023622047244
21
-1.6743464566929134
0
LINE
8
BLACK
6
CONTINUOUS
10
3.0311023622047242
20
-1.6743464566929134
11
2.9956692913385825
21
-1.6743464566929134
0
LINE
8
BLACK
6
CONTINUOUS
10
2.9956692913385825
20
-1.6743464566929134
11
2.9956692913385825
21
-1.615291338582677
0
LINE
8
BLACK
6
CONTINUOUS
10
2.9956692913385825
20
-1.615291338582677
11
3.0311023622047242
21
-1.615291338582677
0
LINE
8
BLACK
6
CONTINUOUS
10
3.0311023622047242
20
-1.615291338582677
11
3.0311023622047242
21
-1.6743464566929134
0
LINE
8
BLACK
6
CONTINUOUS
10
3.0811023622047244
20
-1.6743464566929134
11
3.0456692913385828
21
-1.6743464566929134
0
LINE
8
BLACK
6
CONTINUOUS
10
3.0456692913385828
20
-1.6743464566929134
11
3.0456692913385828
21
-1.615291338582677
0
LINE
8
BLACK
6
CONTINUOUS
10
3.0456692913385828
20
-1.615291338582677
11
3.0811023622047244
21
-1.615291338582677
0
LINE
8
BLACK
6
CONTINUOUS
10
3.0811023622047244
20
-1.615291338582677
11
3.0811023622047244
21
-1.6743464566929134
0
LINE
8
BLACK
6
CONTINUOUS
10
3.1311023622047243
20
-1.6743464566929134
11
3.0956692913385826
21
-1.6743464566929134
0
LINE
8
BLACK
6
CONTINUOUS
10
3.0956692913385826
20
-1.6743464566929134
11
3.0956692913385826
21
-1.615291338582677
0
LINE
8
BLACK
6
CONTINUOUS
10
3.0956692913385826
20
-1.615291338582677
11
3.1311023622047243
21
-1.615291338582677
0
LINE
8
BLACK
6
CONTINUOUS
10
3.1311023622047243
20
-1.615291338582677
11
3.1311023622047243
21
-1.6743464566929134
0
LINE
8
BLACK
6
CONTINUOUS
10
3.1811023622047245
20
-1.6743464566929134
11
3.1456692913385824
21
-1.6743464566929134
0
LINE
8
BLACK
6
CONTINUOUS
10
3.1456692913385824
20
-1.6743464566929134
11
3.1456692913385824
21
-1.615291338582677
0
LINE
8
BLACK
6
CONTINUOUS
10
3.1456692913385824
20
-1.615291338582677
11
3.1811023622047245
21
-1.615291338582677
0
LINE
8
BLACK
6
CONTINUOUS
10
3.1811023622047245
20
-1.615291338582677
11
3.1811023622047245
21
-1.6743464566929134
0
LINE
8
BLACK
6
CONTINUOUS
10
3.2311023622047244
20
-1.6743464566929134
11
3.1956692913385827
21
-1.6743464566929134
0
LINE
8
BLACK
6
CONTINUOUS
10
3.1956692913385827
20
-1.6743464566929134
11
3.1956692913385827
21
-1.615291338582677
0
LINE
8
BLACK
6
CONTINUOUS
10
3.1956692913385827
20
-1.615291338582677
11
3.2311023622047244
21
-1.615291338582677
0
LINE
8
BLACK
6
CONTINUOUS
10
3.2311023622047244
20
-1.615291338582677
11
3.2311023622047244
21
-1.6743464566929134
0
LINE
8
BLACK
6
CONTINUOUS
10
2.2323439763779529
20
-1.6247489763779528
11
2.2348984645669292
21
-1.6264558661417323
0
LINE
8
BLACK
6
CONTINUOUS
10
2.2348984645669292
20
-1.6264558661417323
11
2.2366053543307087
21
-1.6290103543307086
0
LINE
8
BLACK
6
CONTINUOUS
10
2.2366053543307087
20
-1.6290103543307086
11
2.2372047244094486
21
-1.6320236220472442
0
LINE
8
BLACK
6
CONTINUOUS
10
2.2372047244094486
20
-1.6320236220472442
11
2.2372047244094486
21
-1.6477716535433071
0
LINE
8
BLACK
6
CONTINUOUS
10
2.2372047244094486
20
-1.6477716535433071
11
2.2366053543307087
21
-1.6507849212598424
0
LINE
8
BLACK
6
CONTINUOUS
10
2.2366053543307087
20
-1.6507849212598424
11
2.2348984645669292
21
-1.653339409448819
0
LINE
8
BLACK
6
CONTINUOUS
10
2.2348984645669292
20
-1.653339409448819
11
2.2323439763779529
21
-1.6550462992125985
0
LINE
8
BLACK
6
CONTINUOUS
10
2.2323439763779529
20
-1.6550462992125985
11
2.2293307086614171
21
-1.6556456692913386
0
LINE
8
BLACK
6
CONTINUOUS
10
2.2293307086614171
20
-1.6556456692913386
11
2.2076771653543306
21
-1.6556456692913386
0
LINE
8
BLACK
6
CONTINUOUS
10
2.2076771653543306
20
-1.6556456692913386
11
2.2046638976377952
21
-1.6550462992125985
0
LINE
8
BLACK
6
CONTINUOUS
10
2.2046638976377952
20
-1.6550462992125985
11
2.2021094094488189
21
-1.653339409448819
0
LINE
8
BLACK
6
CONTINUOUS
10
2.2021094094488189
20
-1.653339409448819
11
2.2004025196850394
21
-1.6507849212598424
0
LINE
8
BLACK
6
CONTINUOUS
10
2.2004025196850394
20
-1.6507849212598424
11
2.1998031496062991
21
-1.6477716535433071
0
LINE
8
BLACK
6
CONTINUOUS
10
2.1998031496062991
20
-1.6477716535433071
11
2.1998031496062991
21
-1.6320236220472442
0
LINE
8
BLACK
6
CONTINUOUS
10
2.1998031496062991
20
-1.6320236220472442
11
2.2004025196850394
21
-1.6290103543307086
0
LINE
8
BLACK
6
CONTINUOUS
10
2.2004025196850394
20
-1.6290103543307086
11
2.2021094094488189
21
-1.6264558661417323
0
LINE
8
BLACK
6
CONTINUOUS
10
2.2021094094488189
20
-1.6264558661417323
11
2.2046638976377952
21
-1.6247489763779528
0
LINE
8
BLACK
6
CONTINUOUS
10
2.2046638976377952
20
-1.6247489763779528
11
2.2076771653543306
21
-1.6241496062992125
0
LINE
8
BLACK
6
CONTINUOUS
10
2.2076771653543306
20
-1.6241496062992125
11
2.2293307086614171
21
-1.6241496062992125
0
LINE
8
BLACK
6
CONTINUOUS
10
2.2293307086614171
20
-1.6241496062992125
11
2.2323439763779529
21
-1.6247489763779528
0
LINE
8
BLACK
6
CONTINUOUS
10
2.5437007874015749
20
-1.5432440944881889
11
2.4846456692913383
21
-1.5432440944881889
0
LINE
8
BLACK
6
CONTINUOUS
10
2.4846456692913383
20
-1.5432440944881889
11
2.4846456692913383
21
-1.5078110236220472
0
LINE
8
BLACK
6
CONTINUOUS
10
2.4846456692913383
20
-1.5078110236220472
11
2.5437007874015749
21
-1.5078110236220472
0
LINE
8
BLACK
6
CONTINUOUS
10
2.5437007874015749
20
-1.5078110236220472
11
2.5437007874015749
21
-1.5432440944881889
0
LINE
8
BLACK
6
CONTINUOUS
10
2.5437007874015749
20
-1.4932440944881888
11
2.4846456692913383
21
-1.4932440944881888
0
LINE
8
BLACK
6
CONTINUOUS
10
2.4846456692913383
20
-1.4932440944881888
11
2.4846456692913383
21
-1.4578110236220472
0
LINE
8
BLACK
6
CONTINUOUS
10
2.4846456692913383
20
-1.4578110236220472
11
2.5437007874015749
21
-1.4578110236220472
0
LINE
8
BLACK
6
CONTINUOUS
10
2.5437007874015749
20
-1.4578110236220472
11
2.5437007874015749
21
-1.4932440944881888
0
LINE
8
BLACK
6
CONTINUOUS
10
2.2047849212598423
20
-1.4495521259842519
11
2.207339409448819
21
-1.4512590157480314
0
LINE
8
BLACK
6
CONTINUOUS
10
2.207339409448819
20
-1.4512590157480314
11
2.2090462992125985
21
-1.4538135039370079
0
LINE
8
BLACK
6
CONTINUOUS
10
2.2090462992125985
20
-1.4538135039370079
11
2.2096456692913384
21
-1.4568267716535432
0
LINE
8
BLACK
6
CONTINUOUS
10
2.2096456692913384
20
-1.4568267716535432
11
2.2096456692913384
21
-1.4725748031496062
0
LINE
8
BLACK
6
CONTINUOUS
10
2.2096456692913384
20
-1.4725748031496062
11
2.2090462992125985
21
-1.4755880708661417
0
LINE
8
BLACK
6
CONTINUOUS
10
2.2090462992125985
20
-1.4755880708661417
11
2.207339409448819
21
-1.478142559055118
0
LINE
8
BLACK
6
CONTINUOUS
10
2.207339409448819
20
-1.478142559055118
11
2.2047849212598423
21
-1.4798494488188976
0
LINE
8
BLACK
6
CONTINUOUS
10
2.2047849212598423
20
-1.4798494488188976
11
2.201771653543307
21
-1.4804488188976377
0
LINE
8
BLACK
6
CONTINUOUS
10
2.201771653543307
20
-1.4804488188976377
11
2.1801181102362204
21
-1.4804488188976377
0
LINE
8
BLACK
6
CONTINUOUS
10
2.1801181102362204
20
-1.4804488188976377
11
2.1771048425196851
21
-1.4798494488188976
0
LINE
8
BLACK
6
CONTINUOUS
10
2.1771048425196851
20
-1.4798494488188976
11
2.1745503543307088
21
-1.478142559055118
0
LINE
8
BLACK
6
CONTINUOUS
10
2.1745503543307088
20
-1.478142559055118
11
2.1728434645669292
21
-1.4755880708661417
0
LINE
8
BLACK
6
CONTINUOUS
10
2.1728434645669292
20
-1.4755880708661417
11
2.1722440944881889
21
-1.4725748031496062
0
LINE
8
BLACK
6
CONTINUOUS
10
2.1722440944881889
20
-1.4725748031496062
11
2.1722440944881889
21
-1.4568267716535432
0
LINE
8
BLACK
6
CONTINUOUS
10
2.1722440944881889
20
-1.4568267716535432
11
2.1728434645669292
21
-1.4538135039370079
0
LINE
8
BLACK
6
CONTINUOUS
10
2.1728434645669292
20
-1.4538135039370079
11
2.1745503543307088
21
-1.4512590157480314
0
LINE
8
BLACK
6
CONTINUOUS
10
2.1745503543307088
20
-1.4512590157480314
11
2.1771048425196851
21
-1.4495521259842519
0
LINE
8
BLACK
6
CONTINUOUS
10
2.1771048425196851
20
-1.4495521259842519
11
2.1801181102362204
21
-1.4489527559055118
0
LINE
8
BLACK
6
CONTINUOUS
10
2.1801181102362204
20
-1.4489527559055118
11
2.201771653543307
21
-1.4489527559055118
0
LINE
8
BLACK
6
CONTINUOUS
10
2.201771653543307
20
-1.4489527559055118
11
2.2047849212598423
21
-1.4495521259842519
0
LINE
8
BLACK
6
CONTINUOUS
10
0.9725014566929133
20
-1.4395127559055119
11
0.9750559448818897
21
-1.4412196456692914
0
LINE
8
BLACK
6
CONTINUOUS
10
0.9750559448818897
20
-1.4412196456692914
11
0.9767628346456693
21
-1.4437741338582677
0
LINE
8
BLACK
6
CONTINUOUS
10
0.9767628346456693
20
-1.4437741338582677
11
0.9773622047244094
21
-1.446787401574803
0
LINE
8
BLACK
6
CONTINUOUS
10
0.9773622047244094
20
-1.446787401574803
11
0.9773622047244094
21
-1.4625354330708662
0
LINE
8
BLACK
6
CONTINUOUS
10
0.9773622047244094
20
-1.4625354330708662
11
0.9767628346456693
21
-1.4655487007874015
0
LINE
8
BLACK
6
CONTINUOUS
10
0.9767628346456693
20
-1.4655487007874015
11
0.9750559448818897
21
-1.4681031889763778
0
LINE
8
BLACK
6
CONTINUOUS
10
0.9750559448818897
20
-1.4681031889763778
11
0.9725014566929133
21
-1.4698100787401573
0
LINE
8
BLACK
6
CONTINUOUS
10
0.9725014566929133
20
-1.4698100787401573
11
0.9694881889763779
21
-1.4704094488188977
0
LINE
8
BLACK
6
CONTINUOUS
10
0.9694881889763779
20
-1.4704094488188977
11
0.9478346456692913
21
-1.4704094488188977
0
LINE
8
BLACK
6
CONTINUOUS
10
0.9478346456692913
20
-1.4704094488188977
11
0.9448213779527559
21
-1.4698100787401573
0
LINE
8
BLACK
6
CONTINUOUS
10
0.9448213779527559
20
-1.4698100787401573
11
0.9422668897637795
21
-1.4681031889763778
0
LINE
8
BLACK
6
CONTINUOUS
10
0.9422668897637795
20
-1.4681031889763778
11
0.94056
21
-1.4655487007874015
0
LINE
8
BLACK
6
CONTINUOUS
10
0.94056
20
-1.4655487007874015
11
0.9399606299212598
21
-1.4625354330708662
0
LINE
8
BLACK
6
CONTINUOUS
10
0.9399606299212598
20
-1.4625354330708662
11
0.9399606299212598
21
-1.446787401574803
0
LINE
8
BLACK
6
CONTINUOUS
10
0.9399606299212598
20
-1.446787401574803
11
0.94056
21
-1.4437741338582677
0
LINE
8
BLACK
6
CONTINUOUS
10
0.94056
20
-1.4437741338582677
11
0.9422668897637795
21
-1.4412196456692914
0
LINE
8
BLACK
6
CONTINUOUS
10
0.9422668897637795
20
-1.4412196456692914
11
0.9448213779527559
21
-1.4395127559055119
0
LINE
8
BLACK
6
CONTINUOUS
10
0.9448213779527559
20
-1.4395127559055119
11
0.9478346456692913
21
-1.4389133858267715
0
LINE
8
BLACK
6
CONTINUOUS
10
0.9478346456692913
20
-1.4389133858267715
11
0.9694881889763779
21
-1.4389133858267715
0
LINE
8
BLACK
6
CONTINUOUS
10
0.9694881889763779
20
-1.4389133858267715
11
0.9725014566929133
21
-1.4395127559055119
0
LINE
8
BLACK
6
CONTINUOUS
10
2.5437007874015749
20
-1.443244094488189
11
2.4846456692913383
21
-1.443244094488189
0
LINE
8
BLACK
6
CONTINUOUS
10
2.4846456692913383
20
-1.443244094488189
11
2.4846456692913383
21
-1.4078110236220471
0
LINE
8
BLACK
6
CONTINUOUS
10
2.4846456692913383
20
-1.4078110236220471
11
2.5437007874015749
21
-1.4078110236220471
0
LINE
8
BLACK
6
CONTINUOUS
10
2.5437007874015749
20
-1.4078110236220471
11
2.5437007874015749
21
-1.443244094488189
0
LINE
8
BLACK
6
CONTINUOUS
10
2.2047849212598423
20
-1.3845914960629921
11
2.207339409448819
21
-1.3862983858267717
0
LINE
8
BLACK
6
CONTINUOUS
10
2.207339409448819
20
-1.3862983858267717
11
2.2090462992125985
21
-1.388852874015748
0
LINE
8
BLACK
6
CONTINUOUS
10
2.2090462992125985
20
-1.388852874015748
11
2.2096456692913384
21
-1.3918661417322835
0
LINE
8
BLACK
6
CONTINUOUS
10
2.2096456692913384
20
-1.3918661417322835
11
2.2096456692913384
21
-1.4076141732283465
0
LINE
8
BLACK
6
CONTINUOUS
10
2.2096456692913384
20
-1.4076141732283465
11
2.2090462992125985
21
-1.4106274409448818
0
LINE
8
BLACK
6
CONTINUOUS
10
2.2090462992125985
20
-1.4106274409448818
11
2.207339409448819
21
-1.4131819291338583
0
LINE
8
BLACK
6
CONTINUOUS
10
2.207339409448819
20
-1.4131819291338583
11
2.2047849212598423
21
-1.4148888188976378
0
LINE
8
BLACK
6
CONTINUOUS
10
2.2047849212598423
20
-1.4148888188976378
11
2.201771653543307
21
-1.415488188976378
0
LINE
8
BLACK
6
CONTINUOUS
10
2.201771653543307
20
-1.415488188976378
11
2.1801181102362204
21
-1.415488188976378
0
LINE
8
BLACK
6
CONTINUOUS
10
2.1801181102362204
20
-1.415488188976378
11
2.1771048425196851
21
-1.4148888188976378
0
LINE
8
BLACK
6
CONTINUOUS
10
2.1771048425196851
20
-1.4148888188976378
11
2.1745503543307088
21
-1.4131819291338583
0
LINE
8
BLACK
6
CONTINUOUS
10
2.1745503543307088
20
-1.4131819291338583
11
2.1728434645669292
21
-1.4106274409448818
0
LINE
8
BLACK
6
CONTINUOUS
10
2.1728434645669292
20
-1.4106274409448818
11
2.1722440944881889
21
-1.4076141732283465
0
LINE
8
BLACK
6
CONTINUOUS
10
2.1722440944881889
20
-1.4076141732283465
11
2.1722440944881889
21
-1.3918661417322835
0
LINE
8
BLACK
6
CONTINUOUS
10
2.1722440944881889
20
-1.3918661417322835
11
2.1728434645669292
21
-1.388852874015748
0
LINE
8
BLACK
6
CONTINUOUS
10
2.1728434645669292
20
-1.388852874015748
11
2.1745503543307088
21
-1.3862983858267717
0
LINE
8
BLACK
6
CONTINUOUS
10
2.1745503543307088
20
-1.3862983858267717
11
2.1771048425196851
21
-1.3845914960629921
0
LINE
8
BLACK
6
CONTINUOUS
10
2.1771048425196851
20
-1.3845914960629921
11
2.1801181102362204
21
-1.383992125984252
0
LINE
8
BLACK
6
CONTINUOUS
10
2.1801181102362204
20
-1.383992125984252
11
2.201771653543307
21
-1.383992125984252
0
LINE
8
BLACK
6
CONTINUOUS
10
2.201771653543307
20
-1.383992125984252
11
2.2047849212598423
21
-1.3845914960629921
0
LINE
8
BLACK
6
CONTINUOUS
10
0.9725014566929133
20
-1.3745521259842519
11
0.9750559448818897
21
-1.3762590157480314
0
LINE
8
BLACK
6
CONTINUOUS
10
0.9750559448818897
20
-1.3762590157480314
11
0.9767628346456693
21
-1.3788135039370077
0
LINE
8
BLACK
6
CONTINUOUS
10
0.9767628346456693
20
-1.3788135039370077
11
0.9773622047244094
21
-1.3818267716535433
0
LINE
8
BLACK
6
CONTINUOUS
10
0.9773622047244094
20
-1.3818267716535433
11
0.9773622047244094
21
-1.3975748031496062
0
LINE
8
BLACK
6
CONTINUOUS
10
0.9773622047244094
20
-1.3975748031496062
11
0.9767628346456693
21
-1.4005880708661418
0
LINE
8
BLACK
6
CONTINUOUS
10
0.9767628346456693
20
-1.4005880708661418
11
0.9750559448818897
21
-1.4031425590551181
0
LINE
8
BLACK
6
CONTINUOUS
10
0.9750559448818897
20
-1.4031425590551181
11
0.9725014566929133
21
-1.4048494488188976
0
LINE
8
BLACK
6
CONTINUOUS
10
0.9725014566929133
20
-1.4048494488188976
11
0.9694881889763779
21
-1.4054488188976377
0
LINE
8
BLACK
6
CONTINUOUS
10
0.9694881889763779
20
-1.4054488188976377
11
0.9478346456692913
21
-1.4054488188976377
0
LINE
8
BLACK
6
CONTINUOUS
10
0.9478346456692913
20
-1.4054488188976377
11
0.9448213779527559
21
-1.4048494488188976
0
LINE
8
BLACK
6
CONTINUOUS
10
0.9448213779527559
20
-1.4048494488188976
11
0.9422668897637795
21
-1.4031425590551181
0
LINE
8
BLACK
6
CONTINUOUS
10
0.9422668897637795
20
-1.4031425590551181
11
0.94056
21
-1.4005880708661418
0
LINE
8
BLACK
6
CONTINUOUS
10
0.94056
20
-1.4005880708661418
11
0.9399606299212598
21
-1.3975748031496062
0
LINE
8
BLACK
6
CONTINUOUS
10
0.9399606299212598
20
-1.3975748031496062
11
0.9399606299212598
21
-1.3818267716535433
0
LINE
8
BLACK
6
CONTINUOUS
10
0.9399606299212598
20
-1.3818267716535433
11
0.94056
21
-1.3788135039370077
0
LINE
8
BLACK
6
CONTINUOUS
10
0.94056
20
-1.3788135039370077
11
0.9422668897637795
21
-1.3762590157480314
0
LINE
8
BLACK
6
CONTINUOUS
10
0.9422668897637795
20
-1.3762590157480314
11
0.9448213779527559
21
-1.3745521259842519
0
LINE
8
BLACK
6
CONTINUOUS
10
0.9448213779527559
20
-1.3745521259842519
11
0.9478346456692913
21
-1.3739527559055118
0
LINE
8
BLACK
6
CONTINUOUS
10
0.9478346456692913
20
-1.3739527559055118
11
0.9694881889763779
21
-1.3739527559055118
0
LINE
8
BLACK
6
CONTINUOUS
10
0.9694881889763779
20
-1.3739527559055118
11
0.9725014566929133
21
-1.3745521259842519
0
LINE
8
BLACK
6
CONTINUOUS
10
2.5437007874015749
20
-1.393244094488189
11
2.4846456692913383
21
-1.393244094488189
0
LINE
8
BLACK
6
CONTINUOUS
10
2.4846456692913383
20
-1.393244094488189
11
2.4846456692913383
21
-1.3578110236220473
0
LINE
8
BLACK
6
CONTINUOUS
10
2.4846456692913383
20
-1.3578110236220473
11
2.5437007874015749
21
-1.3578110236220473
0
LINE
8
BLACK
6
CONTINUOUS
10
2.5437007874015749
20
-1.3578110236220473
11
2.5437007874015749
21
-1.393244094488189
0
LINE
8
BLACK
6
CONTINUOUS
10
2.5437007874015749
20
-1.3432440944881889
11
2.4846456692913383
21
-1.3432440944881889
0
LINE
8
BLACK
6
CONTINUOUS
10
2.4846456692913383
20
-1.3432440944881889
11
2.4846456692913383
21
-1.3078110236220473
0
LINE
8
BLACK
6
CONTINUOUS
10
2.4846456692913383
20
-1.3078110236220473
11
2.5437007874015749
21
-1.3078110236220473
0
LINE
8
BLACK
6
CONTINUOUS
10
2.5437007874015749
20
-1.3078110236220473
11
2.5437007874015749
21
-1.3432440944881889
0
LINE
8
BLACK
6
CONTINUOUS
10
0.972045748031496
20
-1.3091063385826771
11
0.9748397637795275
21
-1.3109732283464566
0
LINE
8
BLACK
6
CONTINUOUS
10
0.9748397637795275
20
-1.3109732283464566
11
0.9767066535433071
21
-1.3137672440944881
0
LINE
8
BLACK
6
CONTINUOUS
10
0.9767066535433071
20
-1.3137672440944881
11
0.9773622047244094
21
-1.3170629921259842
0
LINE
8
BLACK
6
CONTINUOUS
10
0.9773622047244094
20
-1.3170629921259842
11
0.9773622047244094
21
-1.3342874015748032
0
LINE
8
BLACK
6
CONTINUOUS
10
0.9773622047244094
20
-1.3342874015748032
11
0.9767066535433071
21
-1.3375831496062991
0
LINE
8
BLACK
6
CONTINUOUS
10
0.9767066535433071
20
-1.3375831496062991
11
0.9748397637795275
21
-1.3403771653543306
0
LINE
8
BLACK
6
CONTINUOUS
10
0.9748397637795275
20
-1.3403771653543306
11
0.972045748031496
21
-1.3422440551181103
0
LINE
8
BLACK
6
CONTINUOUS
10
0.972045748031496
20
-1.3422440551181103
11
0.96875
21
-1.3428996062992127
0
LINE
8
BLACK
6
CONTINUOUS
10
0.96875
20
-1.3428996062992127
11
0.9485728346456692
21
-1.3428996062992127
0
LINE
8
BLACK
6
CONTINUOUS
10
0.9485728346456692
20
-1.3428996062992127
11
0.9452770866141732
21
-1.3422440551181103
0
LINE
8
BLACK
6
CONTINUOUS
10
0.9452770866141732
20
-1.3422440551181103
11
0.9424830708661417
21
-1.3403771653543306
0
LINE
8
BLACK
6
CONTINUOUS
10
0.9424830708661417
20
-1.3403771653543306
11
0.9406161811023622
21
-1.3375831496062991
0
LINE
8
BLACK
6
CONTINUOUS
10
0.9406161811023622
20
-1.3375831496062991
11
0.9399606299212598
21
-1.3342874015748032
0
LINE
8
BLACK
6
CONTINUOUS
10
0.9399606299212598
20
-1.3342874015748032
11
0.9399606299212598
21
-1.3170629921259842
0
LINE
8
BLACK
6
CONTINUOUS
10
0.9399606299212598
20
-1.3170629921259842
11
0.9406161811023622
21
-1.3137672440944881
0
LINE
8
BLACK
6
CONTINUOUS
10
0.9406161811023622
20
-1.3137672440944881
11
0.9424830708661417
21
-1.3109732283464566
0
LINE
8
BLACK
6
CONTINUOUS
10
0.9424830708661417
20
-1.3109732283464566
11
0.9452770866141732
21
-1.3091063385826771
0
LINE
8
BLACK
6
CONTINUOUS
10
0.9452770866141732
20
-1.3091063385826771
11
0.9485728346456692
21
-1.3084507874015747
0
LINE
8
BLACK
6
CONTINUOUS
10
0.9485728346456692
20
-1.3084507874015747
11
0.96875
21
-1.3084507874015747
0
LINE
8
BLACK
6
CONTINUOUS
10
0.96875
20
-1.3084507874015747
11
0.972045748031496
21
-1.3091063385826771
0
LINE
8
BLACK
6
CONTINUOUS
10
2.5437007874015749
20
-1.2932440944881889
11
2.4846456692913383
21
-1.2932440944881889
0
LINE
8
BLACK
6
CONTINUOUS
10
2.4846456692913383
20
-1.2932440944881889
11
2.4846456692913383
21
-1.2578110236220472
0
LINE
8
BLACK
6
CONTINUOUS
10
2.4846456692913383
20
-1.2578110236220472
11
2.5437007874015749
21
-1.2578110236220472
0
LINE
8
BLACK
6
CONTINUOUS
10
2.5437007874015749
20
-1.2578110236220472
11
2.5437007874015749
21
-1.2932440944881889
0
LINE
8
BLACK
6
CONTINUOUS
10
0.972045748031496
20
-1.2470984645669292
11
0.9748397637795275
21
-1.2489653543307087
0
LINE
8
BLACK
6
CONTINUOUS
10
0.9748397637795275
20
-1.2489653543307087
11
0.9767066535433071
21
-1.2517593700787402
0
LINE
8
BLACK
6
CONTINUOUS
10
0.9767066535433071
20
-1.2517593700787402
11
0.9773622047244094
21
-1.2550551181102363
0
LINE
8
BLACK
6
CONTINUOUS
10
0.9773622047244094
20
-1.2550551181102363
11
0.9773622047244094
21
-1.272279527559055
0
LINE
8
BLACK
6
CONTINUOUS
10
0.9773622047244094
20
-1.272279527559055
11
0.9767066535433071
21
-1.2755752755905512
0
LINE
8
BLACK
6
CONTINUOUS
10
0.9767066535433071
20
-1.2755752755905512
11
0.9748397637795275
21
-1.2783692913385827
0
LINE
8
BLACK
6
CONTINUOUS
10
0.9748397637795275
20
-1.2783692913385827
11
0.972045748031496
21
-1.2802361811023621
0
LINE
8
BLACK
6
CONTINUOUS
10
0.972045748031496
20
-1.2802361811023621
11
0.96875
21
-1.2808917322834645
0
LINE
8
BLACK
6
CONTINUOUS
10
0.96875
20
-1.2808917322834645
11
0.9485728346456692
21
-1.2808917322834645
0
LINE
8
BLACK
6
CONTINUOUS
10
0.9485728346456692
20
-1.2808917322834645
11
0.9452770866141732
21
-1.2802361811023621
0
LINE
8
BLACK
6
CONTINUOUS
10
0.9452770866141732
20
-1.2802361811023621
11
0.9424830708661417
21
-1.2783692913385827
0
LINE
8
BLACK
6
CONTINUOUS
10
0.9424830708661417
20
-1.2783692913385827
11
0.9406161811023622
21
-1.2755752755905512
0
LINE
8
BLACK
6
CONTINUOUS
10
0.9406161811023622
20
-1.2755752755905512
11
0.9399606299212598
21
-1.272279527559055
0
LINE
8
BLACK
6
CONTINUOUS
10
0.9399606299212598
20
-1.272279527559055
11
0.9399606299212598
21
-1.2550551181102363
0
LINE
8
BLACK
6
CONTINUOUS
10
0.9399606299212598
20
-1.2550551181102363
11
0.9406161811023622
21
-1.2517593700787402
0
LINE
8
BLACK
6
CONTINUOUS
10
0.9406161811023622
20
-1.2517593700787402
11
0.9424830708661417
21
-1.2489653543307087
0
LINE
8
BLACK
6
CONTINUOUS
10
0.9424830708661417
20
-1.2489653543307087
11
0.9452770866141732
21
-1.2470984645669292
0
LINE
8
BLACK
6
CONTINUOUS
10
0.9452770866141732
20
-1.2470984645669292
11
0.9485728346456692
21
-1.2464429133858268
0
LINE
8
BLACK
6
CONTINUOUS
10
0.9485728346456692
20
-1.2464429133858268
11
0.96875
21
-1.2464429133858268
0
LINE
8
BLACK
6
CONTINUOUS
10
0.96875
20
-1.2464429133858268
11
0.972045748031496
21
-1.2470984645669292
0
LINE
8
BLACK
6
CONTINUOUS
10
2.5437007874015749
20
-1.2432440944881888
11
2.4846456692913383
21
-1.2432440944881888
0
LINE
8
BLACK
6
CONTINUOUS
10
2.4846456692913383
20
-1.2432440944881888
11
2.4846456692913383
21
-1.2078110236220472
0
LINE
8
BLACK
6
CONTINUOUS
10
2.4846456692913383
20
-1.2078110236220472
11
2.5437007874015749
21
-1.2078110236220472
0
LINE
8
BLACK
6
CONTINUOUS
10
2.5437007874015749
20
-1.2078110236220472
11
2.5437007874015749
21
-1.2432440944881888
0
LINE
8
BLACK
6
CONTINUOUS
10
2.5437007874015749
20
-1.193244094488189
11
2.4846456692913383
21
-1.193244094488189
0
LINE
8
BLACK
6
CONTINUOUS
10
2.4846456692913383
20
-1.193244094488189
11
2.4846456692913383
21
-1.1578110236220471
0
LINE
8
BLACK
6
CONTINUOUS
10
2.4846456692913383
20
-1.1578110236220471
11
2.5437007874015749
21
-1.1578110236220471
0
LINE
8
BLACK
6
CONTINUOUS
10
2.5437007874015749
20
-1.1578110236220471
11
2.5437007874015749
21
-1.193244094488189
0
LINE
8
BLACK
6
CONTINUOUS
10
2.5437007874015749
20
-1.143244094488189
11
2.4846456692913383
21
-1.143244094488189
0
LINE
8
BLACK
6
CONTINUOUS
10
2.4846456692913383
20
-1.143244094488189
11
2.4846456692913383
21
-1.1078110236220473
0
LINE
8
BLACK
6
CONTINUOUS
10
2.4846456692913383
20
-1.1078110236220473
11
2.5437007874015749
21
-1.1078110236220473
0
LINE
8
BLACK
6
CONTINUOUS
10
2.5437007874015749
20
-1.1078110236220473
11
2.5437007874015749
21
-1.143244094488189
0
LINE
8
BLACK
6
CONTINUOUS
10
2.5437007874015749
20
-1.0932440944881889
11
2.4846456692913383
21
-1.0932440944881889
0
LINE
8
BLACK
6
CONTINUOUS
10
2.4846456692913383
20
-1.0932440944881889
11
2.4846456692913383
21
-1.0578110236220473
0
LINE
8
BLACK
6
CONTINUOUS
10
2.4846456692913383
20
-1.0578110236220473
11
2.5437007874015749
21
-1.0578110236220473
0
LINE
8
BLACK
6
CONTINUOUS
10
2.5437007874015749
20
-1.0578110236220473
11
2.5437007874015749
21
-1.0932440944881889
0
LINE
8
BLACK
6
CONTINUOUS
10
0.9744079527559055
20
-1.0531024015748032
11
0.977201968503937
21
-1.0549692913385826
0
LINE
8
BLACK
6
CONTINUOUS
10
0.977201968503937
20
-1.0549692913385826
11
0.9790688582677165
21
-1.0577633070866141
0
LINE
8
BLACK
6
CONTINUOUS
10
0.9790688582677165
20
-1.0577633070866141
11
0.9797244094488189
21
-1.0610590551181103
0
LINE
8
BLACK
6
CONTINUOUS
10
0.9797244094488189
20
-1.0610590551181103
11
0.9797244094488189
21
-1.078283464566929
0
LINE
8
BLACK
6
CONTINUOUS
10
0.9797244094488189
20
-1.078283464566929
11
0.9790688582677165
21
-1.0815792125984252
0
LINE
8
BLACK
6
CONTINUOUS
10
0.9790688582677165
20
-1.0815792125984252
11
0.977201968503937
21
-1.0843732283464567
0
LINE
8
BLACK
6
CONTINUOUS
10
0.977201968503937
20
-1.0843732283464567
11
0.9744079527559055
21
-1.0862401181102361
0
LINE
8
BLACK
6
CONTINUOUS
10
0.9744079527559055
20
-1.0862401181102361
11
0.9711122047244094
21
-1.0868956692913385
0
LINE
8
BLACK
6
CONTINUOUS
10
0.9711122047244094
20
-1.0868956692913385
11
0.9509350393700787
21
-1.0868956692913385
0
LINE
8
BLACK
6
CONTINUOUS
10
0.9509350393700787
20
-1.0868956692913385
11
0.9476392913385826
21
-1.0862401181102361
0
LINE
8
BLACK
6
CONTINUOUS
10
0.9476392913385826
20
-1.0862401181102361
11
0.9448452755905512
21
-1.0843732283464567
0
LINE
8
BLACK
6
CONTINUOUS
10
0.9448452755905512
20
-1.0843732283464567
11
0.9429783858267716
21
-1.0815792125984252
0
LINE
8
BLACK
6
CONTINUOUS
10
0.9429783858267716
20
-1.0815792125984252
11
0.9423228346456692
21
-1.078283464566929
0
LINE
8
BLACK
6
CONTINUOUS
10
0.9423228346456692
20
-1.078283464566929
11
0.9423228346456692
21
-1.0610590551181103
0
LINE
8
BLACK
6
CONTINUOUS
10
0.9423228346456692
20
-1.0610590551181103
11
0.9429783858267716
21
-1.0577633070866141
0
LINE
8
BLACK
6
CONTINUOUS
10
0.9429783858267716
20
-1.0577633070866141
11
0.9448452755905512
21
-1.0549692913385826
0
LINE
8
BLACK
6
CONTINUOUS
10
0.9448452755905512
20
-1.0549692913385826
11
0.9476392913385826
21
-1.0531024015748032
0
LINE
8
BLACK
6
CONTINUOUS
10
0.9476392913385826
20
-1.0531024015748032
11
0.9509350393700787
21
-1.0524468503937008
0
LINE
8
BLACK
6
CONTINUOUS
10
0.9509350393700787
20
-1.0524468503937008
11
0.9711122047244094
21
-1.0524468503937008
0
LINE
8
BLACK
6
CONTINUOUS
10
0.9711122047244094
20
-1.0524468503937008
11
0.9744079527559055
21
-1.0531024015748032
0
LINE
8
BLACK
6
CONTINUOUS
10
0.9744079527559055
20
-0.9910945275590551
11
0.977201968503937
21
-0.9929614173228346
0
LINE
8
BLACK
6
CONTINUOUS
10
0.977201968503937
20
-0.9929614173228346
11
0.9790688582677165
21
-0.9957554330708661
0
LINE
8
BLACK
6
CONTINUOUS
10
0.9790688582677165
20
-0.9957554330708661
11
0.9797244094488189
21
-0.9990511811023621
0
LINE
8
BLACK
6
CONTINUOUS
10
0.9797244094488189
20
-0.9990511811023621
11
0.9797244094488189
21
-1.0162755905511811
0
LINE
8
BLACK
6
CONTINUOUS
10
0.9797244094488189
20
-1.0162755905511811
11
0.9790688582677165
21
-1.0195713385826772
0
LINE
8
BLACK
6
CONTINUOUS
10
0.9790688582677165
20
-1.0195713385826772
11
0.977201968503937
21
-1.0223653543307087
0
LINE
8
BLACK
6
CONTINUOUS
10
0.977201968503937
20
-1.0223653543307087
11
0.9744079527559055
21
-1.0242322440944882
0
LINE
8
BLACK
6
CONTINUOUS
10
0.9744079527559055
20
-1.0242322440944882
11
0.9711122047244094
21
-1.0248877952755906
0
LINE
8
BLACK
6
CONTINUOUS
10
0.9711122047244094
20
-1.0248877952755906
11
0.9509350393700787
21
-1.0248877952755906
0
LINE
8
BLACK
6
CONTINUOUS
10
0.9509350393700787
20
-1.0248877952755906
11
0.9476392913385826
21
-1.0242322440944882
0
LINE
8
BLACK
6
CONTINUOUS
10
0.9476392913385826
20
-1.0242322440944882
11
0.9448452755905512
21
-1.0223653543307087
0
LINE
8
BLACK
6
CONTINUOUS
10
0.9448452755905512
20
-1.0223653543307087
11
0.9429783858267716
21
-1.0195713385826772
0
LINE
8
BLACK
6
CONTINUOUS
10
0.9429783858267716
20
-1.0195713385826772
11
0.9423228346456692
21
-1.0162755905511811
0
LINE
8
BLACK
6
CONTINUOUS
10
0.9423228346456692
20
-1.0162755905511811
11
0.9423228346456692
21
-0.9990511811023621
0
LINE
8
BLACK
6
CONTINUOUS
10
0.9423228346456692
20
-0.9990511811023621
11
0.9429783858267716
21
-0.9957554330708661
0
LINE
8
BLACK
6
CONTINUOUS
10
0.9429783858267716
20
-0.9957554330708661
11
0.9448452755905512
21
-0.9929614173228346
0
LINE
8
BLACK
6
CONTINUOUS
10
0.9448452755905512
20
-0.9929614173228346
11
0.9476392913385826
21
-0.9910945275590551
0
LINE
8
BLACK
6
CONTINUOUS
10
0.9476392913385826
20
-0.9910945275590551
11
0.9509350393700787
21
-0.9904389763779528
0
LINE
8
BLACK
6
CONTINUOUS
10
0.9509350393700787
20
-0.9904389763779528
11
0.9711122047244094
21
-0.9904389763779528
0
LINE
8
BLACK
6
CONTINUOUS
10
0.9711122047244094
20
-0.9904389763779528
11
0.9744079527559055
21
-0.9910945275590551
0
LINE
8
BLACK
6
CONTINUOUS
10
2.5811023622047244
20
-0.9853700787401575
11
2.5456692913385828
21
-0.9853700787401575
0
LINE
8
BLACK
6
CONTINUOUS
10
2.5456692913385828
20
-0.9853700787401575
11
2.5456692913385828
21
-0.9263149606299212
0
LINE
8
BLACK
6
CONTINUOUS
10
2.5456692913385828
20
-0.9263149606299212
11
2.5811023622047244
21
-0.9263149606299212
0
LINE
8
BLACK
6
CONTINUOUS
10
2.5811023622047244
20
-0.9263149606299212
11
2.5811023622047244
21
-0.9853700787401575
0
LINE
8
BLACK
6
CONTINUOUS
10
2.6311023622047243
20
-0.9853700787401575
11
2.5956692913385826
21
-0.9853700787401575
0
LINE
8
BLACK
6
CONTINUOUS
10
2.5956692913385826
20
-0.9853700787401575
11
2.5956692913385826
21
-0.9263149606299212
0
LINE
8
BLACK
6
CONTINUOUS
10
2.5956692913385826
20
-0.9263149606299212
11
2.6311023622047243
21
-0.9263149606299212
0
LINE
8
BLACK
6
CONTINUOUS
10
2.6311023622047243
20
-0.9263149606299212
11
2.6311023622047243
21
-0.9853700787401575
0
LINE
8
BLACK
6
CONTINUOUS
10
2.6811023622047245
20
-0.9853700787401575
11
2.6456692913385824
21
-0.9853700787401575
0
LINE
8
BLACK
6
CONTINUOUS
10
2.6456692913385824
20
-0.9853700787401575
11
2.6456692913385824
21
-0.9263149606299212
0
LINE
8
BLACK
6
CONTINUOUS
10
2.6456692913385824
20
-0.9263149606299212
11
2.6811023622047245
21
-0.9263149606299212
0
LINE
8
BLACK
6
CONTINUOUS
10
2.6811023622047245
20
-0.9263149606299212
11
2.6811023622047245
21
-0.9853700787401575
0
LINE
8
BLACK
6
CONTINUOUS
10
2.7311023622047244
20
-0.9853700787401575
11
2.6956692913385827
21
-0.9853700787401575
0
LINE
8
BLACK
6
CONTINUOUS
10
2.6956692913385827
20
-0.9853700787401575
11
2.6956692913385827
21
-0.9263149606299212
0
LINE
8
BLACK
6
CONTINUOUS
10
2.6956692913385827
20
-0.9263149606299212
11
2.7311023622047244
21
-0.9263149606299212
0
LINE
8
BLACK
6
CONTINUOUS
10
2.7311023622047244
20
-0.9263149606299212
11
2.7311023622047244
21
-0.9853700787401575
0
LINE
8
BLACK
6
CONTINUOUS
10
2.7811023622047242
20
-0.9853700787401575
11
2.7456692913385825
21
-0.9853700787401575
0
LINE
8
BLACK
6
CONTINUOUS
10
2.7456692913385825
20
-0.9853700787401575
11
2.7456692913385825
21
-0.9263149606299212
0
LINE
8
BLACK
6
CONTINUOUS
10
2.7456692913385825
20
-0.9263149606299212
11
2.7811023622047242
21
-0.9263149606299212
0
LINE
8
BLACK
6
CONTINUOUS
10
2.7811023622047242
20
-0.9263149606299212
11
2.7811023622047242
21
-0.9853700787401575
0
LINE
8
BLACK
6
CONTINUOUS
10
2.8311023622047244
20
-0.9853700787401575
11
2.7956692913385828
21
-0.9853700787401575
0
LINE
8
BLACK
6
CONTINUOUS
10
2.7956692913385828
20
-0.9853700787401575
11
2.7956692913385828
21
-0.9263149606299212
0
LINE
8
BLACK
6
CONTINUOUS
10
2.7956692913385828
20
-0.9263149606299212
11
2.8311023622047244
21
-0.9263149606299212
0
LINE
8
BLACK
6
CONTINUOUS
10
2.8311023622047244
20
-0.9263149606299212
11
2.8311023622047244
21
-0.9853700787401575
0
LINE
8
BLACK
6
CONTINUOUS
10
2.8811023622047243
20
-0.9853700787401575
11
2.8456692913385826
21
-0.9853700787401575
0
LINE
8
BLACK
6
CONTINUOUS
10
2.8456692913385826
20
-0.9853700787401575
11
2.8456692913385826
21
-0.9263149606299212
0
LINE
8
BLACK
6
CONTINUOUS
10
2.8456692913385826
20
-0.9263149606299212
11
2.8811023622047243
21
-0.9263149606299212
0
LINE
8
BLACK
6
CONTINUOUS
10
2.8811023622047243
20
-0.9263149606299212
11
2.8811023622047243
21
-0.9853700787401575
0
LINE
8
BLACK
6
CONTINUOUS
10
2.9311023622047245
20
-0.9853700787401575
11
2.8956692913385824
21
-0.9853700787401575
0
LINE
8
BLACK
6
CONTINUOUS
10
2.8956692913385824
20
-0.9853700787401575
11
2.8956692913385824
21
-0.9263149606299212
0
LINE
8
BLACK
6
CONTINUOUS
10
2.8956692913385824
20
-0.9263149606299212
11
2.9311023622047245
21
-0.9263149606299212
0
LINE
8
BLACK
6
CONTINUOUS
10
2.9311023622047245
20
-0.9263149606299212
11
2.9311023622047245
21
-0.9853700787401575
0
LINE
8
BLACK
6
CONTINUOUS
10
2.9811023622047244
20
-0.9853700787401575
11
2.9456692913385827
21
-0.9853700787401575
0
LINE
8
BLACK
6
CONTINUOUS
10
2.9456692913385827
20
-0.9853700787401575
11
2.9456692913385827
21
-0.9263149606299212
0
LINE
8
BLACK
6
CONTINUOUS
10
2.9456692913385827
20
-0.9263149606299212
11
2.9811023622047244
21
-0.9263149606299212
0
LINE
8
BLACK
6
CONTINUOUS
10
2.9811023622047244
20
-0.9263149606299212
11
2.9811023622047244
21
-0.9853700787401575
0
LINE
8
BLACK
6
CONTINUOUS
10
3.0311023622047242
20
-0.9853700787401575
11
2.9956692913385825
21
-0.9853700787401575
0
LINE
8
BLACK
6
CONTINUOUS
10
2.9956692913385825
20
-0.9853700787401575
11
2.9956692913385825
21
-0.9263149606299212
0
LINE
8
BLACK
6
CONTINUOUS
10
2.9956692913385825
20
-0.9263149606299212
11
3.0311023622047242
21
-0.9263149606299212
0
LINE
8
BLACK
6
CONTINUOUS
10
3.0311023622047242
20
-0.9263149606299212
11
3.0311023622047242
21
-0.9853700787401575
0
LINE
8
BLACK
6
CONTINUOUS
10
3.0811023622047244
20
-0.9853700787401575
11
3.0456692913385828
21
-0.9853700787401575
0
LINE
8
BLACK
6
CONTINUOUS
10
3.0456692913385828
20
-0.9853700787401575
11
3.0456692913385828
21
-0.9263149606299212
0
LINE
8
BLACK
6
CONTINUOUS
10
3.0456692913385828
20
-0.9263149606299212
11
3.0811023622047244
21
-0.9263149606299212
0
LINE
8
BLACK
6
CONTINUOUS
10
3.0811023622047244
20
-0.9263149606299212
11
3.0811023622047244
21
-0.9853700787401575
0
LINE
8
BLACK
6
CONTINUOUS
10
3.1311023622047243
20
-0.9853700787401575
11
3.0956692913385826
21
-0.9853700787401575
0
LINE
8
BLACK
6
CONTINUOUS
10
3.0956692913385826
20
-0.9853700787401575
11
3.0956692913385826
21
-0.9263149606299212
0
LINE
8
BLACK
6
CONTINUOUS
10
3.0956692913385826
20
-0.9263149606299212
11
3.1311023622047243
21
-0.9263149606299212
0
LINE
8
BLACK
6
CONTINUOUS
10
3.1311023622047243
20
-0.9263149606299212
11
3.1311023622047243
21
-0.9853700787401575
0
LINE
8
BLACK
6
CONTINUOUS
10
3.1811023622047245
20
-0.9853700787401575
11
3.1456692913385824
21
-0.9853700787401575
0
LINE
8
BLACK
6
CONTINUOUS
10
3.1456692913385824
20
-0.9853700787401575
11
3.1456692913385824
21
-0.9263149606299212
0
LINE
8
BLACK
6
CONTINUOUS
10
3.1456692913385824
20
-0.9263149606299212
11
3.1811023622047245
21
-0.9263149606299212
0
LINE
8
BLACK
6
CONTINUOUS
10
3.1811023622047245
20
-0.9263149606299212
11
3.1811023622047245
21
-0.9853700787401575
0
LINE
8
BLACK
6
CONTINUOUS
10
3.2311023622047244
20
-0.9853700787401575
11
3.1956692913385827
21
-0.9853700787401575
0
LINE
8
BLACK
6
CONTINUOUS
10
3.1956692913385827
20
-0.9853700787401575
11
3.1956692913385827
21
-0.9263149606299212
0
LINE
8
BLACK
6
CONTINUOUS
10
3.1956692913385827
20
-0.9263149606299212
11
3.2311023622047244
21
-0.9263149606299212
0
LINE
8
BLACK
6
CONTINUOUS
10
3.2311023622047244
20
-0.9263149606299212
11
3.2311023622047244
21
-0.9853700787401575
0
LINE
8
BLACK
6
CONTINUOUS
10
0.9709266535433071
20
-0.9211564566929134
11
0.9734811417322834
21
-0.9228633464566929
0
LINE
8
BLACK
6
CONTINUOUS
10
0.9734811417322834
20
-0.9228633464566929
11
0.9751880314960629
21
-0.9254178346456693
0
LINE
8
BLACK
6
CONTINUOUS
10
0.9751880314960629
20
-0.9254178346456693
11
0.9757874015748031
21
-0.9284311023622047
0
LINE
8
BLACK
6
CONTINUOUS
10
0.9757874015748031
20
-0.9284311023622047
11
0.9757874015748031
21
-0.9441791338582677
0
LINE
8
BLACK
6
CONTINUOUS
10
0.9757874015748031
20
-0.9441791338582677
11
0.9751880314960629
21
-0.9471924015748031
0
LINE
8
BLACK
6
CONTINUOUS
10
0.9751880314960629
20
-0.9471924015748031
11
0.9734811417322834
21
-0.9497468897637795
0
LINE
8
BLACK
6
CONTINUOUS
10
0.9734811417322834
20
-0.9497468897637795
11
0.9709266535433071
21
-0.9514537795275591
0
LINE
8
BLACK
6
CONTINUOUS
10
0.9709266535433071
20
-0.9514537795275591
11
0.9679133858267717
21
-0.9520531496062992
0
LINE
8
BLACK
6
CONTINUOUS
10
0.9679133858267717
20
-0.9520531496062992
11
0.946259842519685
21
-0.9520531496062992
0
LINE
8
BLACK
6
CONTINUOUS
10
0.946259842519685
20
-0.9520531496062992
11
0.9432465748031496
21
-0.9514537795275591
0
LINE
8
BLACK
6
CONTINUOUS
10
0.9432465748031496
20
-0.9514537795275591
11
0.9406920866141733
21
-0.9497468897637795
0
LINE
8
BLACK
6
CONTINUOUS
10
0.9406920866141733
20
-0.9497468897637795
11
0.9389851968503937
21
-0.9471924015748031
0
LINE
8
BLACK
6
CONTINUOUS
10
0.9389851968503937
20
-0.9471924015748031
11
0.9383858267716535
21
-0.9441791338582677
0
LINE
8
BLACK
6
CONTINUOUS
10
0.9383858267716535
20
-0.9441791338582677
11
0.9383858267716535
21
-0.9284311023622047
0
LINE
8
BLACK
6
CONTINUOUS
10
0.9383858267716535
20
-0.9284311023622047
11
0.9389851968503937
21
-0.9254178346456693
0
LINE
8
BLACK
6
CONTINUOUS
10
0.9389851968503937
20
-0.9254178346456693
11
0.9406920866141733
21
-0.9228633464566929
0
LINE
8
BLACK
6
CONTINUOUS
10
0.9406920866141733
20
-0.9228633464566929
11
0.9432465748031496
21
-0.9211564566929134
0
LINE
8
BLACK
6
CONTINUOUS
10
0.9432465748031496
20
-0.9211564566929134
11
0.946259842519685
21
-0.9205570866141732
0
LINE
8
BLACK
6
CONTINUOUS
10
0.946259842519685
20
-0.9205570866141732
11
0.9679133858267717
21
-0.9205570866141732
0
LINE
8
BLACK
6
CONTINUOUS
10
0.9679133858267717
20
-0.9205570866141732
11
0.9709266535433071
21
-0.9211564566929134
0
LINE
8
BLACK
6
CONTINUOUS
10
3.0159870472440944
20
-0.8437964566929134
11
3.0191801968503937
21
-0.8459300393700787
0
LINE
8
BLACK
6
CONTINUOUS
10
3.0191801968503937
20
-0.8459300393700787
11
3.0213137795275591
21
-0.849123188976378
0
LINE
8
BLACK
6
CONTINUOUS
10
3.0213137795275591
20
-0.849123188976378
11
3.0220629921259841
21
-0.8528897637795275
0
LINE
8
BLACK
6
CONTINUOUS
10
3.0220629921259841
20
-0.8528897637795275
11
3.0220629921259841
21
-0.8902913385826772
0
LINE
8
BLACK
6
CONTINUOUS
10
3.0220629921259841
20
-0.8902913385826772
11
3.0213137795275591
21
-0.8940579133858267
0
LINE
8
BLACK
6
CONTINUOUS
10
3.0213137795275591
20
-0.8940579133858267
11
3.0191801968503937
21
-0.897251062992126
0
LINE
8
BLACK
6
CONTINUOUS
10
3.0191801968503937
20
-0.897251062992126
11
3.0159870472440944
21
-0.8993846456692913
0
LINE
8
BLACK
6
CONTINUOUS
10
3.0159870472440944
20
-0.8993846456692913
11
3.0122204724409447
21
-0.9001338582677165
0
LINE
8
BLACK
6
CONTINUOUS
10
3.0122204724409447
20
-0.9001338582677165
11
2.992535433070866
21
-0.9001338582677165
0
LINE
8
BLACK
6
CONTINUOUS
10
2.992535433070866
20
-0.9001338582677165
11
2.9887688582677163
21
-0.8993846456692913
0
LINE
8
BLACK
6
CONTINUOUS
10
2.9887688582677163
20
-0.8993846456692913
11
2.9855757086614174
21
-0.897251062992126
0
LINE
8
BLACK
6
CONTINUOUS
10
2.9855757086614174
20
-0.897251062992126
11
2.9834421259842521
21
-0.8940579133858267
0
LINE
8
BLACK
6
CONTINUOUS
10
2.9834421259842521
20
-0.8940579133858267
11
2.9826929133858266
21
-0.8902913385826772
0
LINE
8
BLACK
6
CONTINUOUS
10
2.9826929133858266
20
-0.8902913385826772
11
2.9826929133858266
21
-0.8528897637795275
0
LINE
8
BLACK
6
CONTINUOUS
10
2.9826929133858266
20
-0.8528897637795275
11
2.9834421259842521
21
-0.849123188976378
0
LINE
8
BLACK
6
CONTINUOUS
10
2.9834421259842521
20
-0.849123188976378
11
2.9855757086614174
21
-0.8459300393700787
0
LINE
8
BLACK
6
CONTINUOUS
10
2.9855757086614174
20
-0.8459300393700787
11
2.9887688582677163
21
-0.8437964566929134
0
LINE
8
BLACK
6
CONTINUOUS
10
2.9887688582677163
20
-0.8437964566929134
11
2.992535433070866
21
-0.8430472440944882
0
LINE
8
BLACK
6
CONTINUOUS
10
2.992535433070866
20
-0.8430472440944882
11
3.0122204724409447
21
-0.8430472440944882
0
LINE
8
BLACK
6
CONTINUOUS
10
3.0122204724409447
20
-0.8430472440944882
11
3.0159870472440944
21
-0.8437964566929134
0
LINE
8
BLACK
6
CONTINUOUS
10
3.0907901968503935
20
-0.8437964566929134
11
3.0939833464566928
21
-0.8459300393700787
0
LINE
8
BLACK
6
CONTINUOUS
10
3.0939833464566928
20
-0.8459300393700787
11
3.0961169291338582
21
-0.849123188976378
0
LINE
8
BLACK
6
CONTINUOUS
10
3.0961169291338582
20
-0.849123188976378
11
3.0968661417322836
21
-0.8528897637795275
0
LINE
8
BLACK
6
CONTINUOUS
10
3.0968661417322836
20
-0.8528897637795275
11
3.0968661417322836
21
-0.8902913385826772
0
LINE
8
BLACK
6
CONTINUOUS
10
3.0968661417322836
20
-0.8902913385826772
11
3.0961169291338582
21
-0.8940579133858267
0
LINE
8
BLACK
6
CONTINUOUS
10
3.0961169291338582
20
-0.8940579133858267
11
3.0939833464566928
21
-0.897251062992126
0
LINE
8
BLACK
6
CONTINUOUS
10
3.0939833464566928
20
-0.897251062992126
11
3.0907901968503935
21
-0.8993846456692913
0
LINE
8
BLACK
6
CONTINUOUS
10
3.0907901968503935
20
-0.8993846456692913
11
3.0870236220472442
21
-0.9001338582677165
0
LINE
8
BLACK
6
CONTINUOUS
10
3.0870236220472442
20
-0.9001338582677165
11
3.0673385826771651
21
-0.9001338582677165
0
LINE
8
BLACK
6
CONTINUOUS
10
3.0673385826771651
20
-0.9001338582677165
11
3.0635720078740158
21
-0.8993846456692913
0
LINE
8
BLACK
6
CONTINUOUS
10
3.0635720078740158
20
-0.8993846456692913
11
3.0603788582677165
21
-0.897251062992126
0
LINE
8
BLACK
6
CONTINUOUS
10
3.0603788582677165
20
-0.897251062992126
11
3.0582452755905511
21
-0.8940579133858267
0
LINE
8
BLACK
6
CONTINUOUS
10
3.0582452755905511
20
-0.8940579133858267
11
3.0574960629921257
21
-0.8902913385826772
0
LINE
8
BLACK
6
CONTINUOUS
10
3.0574960629921257
20
-0.8902913385826772
11
3.0574960629921257
21
-0.8528897637795275
0
LINE
8
BLACK
6
CONTINUOUS
10
3.0574960629921257
20
-0.8528897637795275
11
3.0582452755905511
21
-0.849123188976378
0
LINE
8
BLACK
6
CONTINUOUS
10
3.0582452755905511
20
-0.849123188976378
11
3.0603788582677165
21
-0.8459300393700787
0
LINE
8
BLACK
6
CONTINUOUS
10
3.0603788582677165
20
-0.8459300393700787
11
3.0635720078740158
21
-0.8437964566929134
0
LINE
8
BLACK
6
CONTINUOUS
10
3.0635720078740158
20
-0.8437964566929134
11
3.0673385826771651
21
-0.8430472440944882
0
LINE
8
BLACK
6
CONTINUOUS
10
3.0673385826771651
20
-0.8430472440944882
11
3.0870236220472442
21
-0.8430472440944882
0
LINE
8
BLACK
6
CONTINUOUS
10
3.0870236220472442
20
-0.8430472440944882
11
3.0907901968503935
21
-0.8437964566929134
0
LINE
8
BLACK
6
CONTINUOUS
10
3.1510277165354328
20
-0.8605640551181102
11
3.1539015354330706
21
-0.8624842913385826
0
LINE
8
BLACK
6
CONTINUOUS
10
3.1539015354330706
20
-0.8624842913385826
11
3.1558217716535433
21
-0.8653581102362204
0
LINE
8
BLACK
6
CONTINUOUS
10
3.1558217716535433
20
-0.8653581102362204
11
3.1564960629921259
21
-0.8687480314960629
0
LINE
8
BLACK
6
CONTINUOUS
10
3.1564960629921259
20
-0.8687480314960629
11
3.1564960629921259
21
-0.8884330708661418
0
LINE
8
BLACK
6
CONTINUOUS
10
3.1564960629921259
20
-0.8884330708661418
11
3.1558217716535433
21
-0.8918229921259843
0
LINE
8
BLACK
6
CONTINUOUS
10
3.1558217716535433
20
-0.8918229921259843
11
3.1539015354330706
21
-0.894696811023622
0
LINE
8
BLACK
6
CONTINUOUS
10
3.1539015354330706
20
-0.894696811023622
11
3.1510277165354328
21
-0.8966170472440945
0
LINE
8
BLACK
6
CONTINUOUS
10
3.1510277165354328
20
-0.8966170472440945
11
3.1476377952755903
21
-0.8972913385826772
0
LINE
8
BLACK
6
CONTINUOUS
10
3.1476377952755903
20
-0.8972913385826772
11
3.1299212598425195
21
-0.8972913385826772
0
LINE
8
BLACK
6
CONTINUOUS
10
3.1299212598425195
20
-0.8972913385826772
11
3.126531338582677
21
-0.8966170472440945
0
LINE
8
BLACK
6
CONTINUOUS
10
3.126531338582677
20
-0.8966170472440945
11
3.1236575196850391
21
-0.894696811023622
0
LINE
8
BLACK
6
CONTINUOUS
10
3.1236575196850391
20
-0.894696811023622
11
3.1217372834645669
21
-0.8918229921259843
0
LINE
8
BLACK
6
CONTINUOUS
10
3.1217372834645669
20
-0.8918229921259843
11
3.1210629921259843
21
-0.8884330708661418
0
LINE
8
BLACK
6
CONTINUOUS
10
3.1210629921259843
20
-0.8884330708661418
11
3.1210629921259843
21
-0.8687480314960629
0
LINE
8
BLACK
6
CONTINUOUS
10
3.1210629921259843
20
-0.8687480314960629
11
3.1217372834645669
21
-0.8653581102362204
0
LINE
8
BLACK
6
CONTINUOUS
10
3.1217372834645669
20
-0.8653581102362204
11
3.1236575196850391
21
-0.8624842913385826
0
LINE
8
BLACK
6
CONTINUOUS
10
3.1236575196850391
20
-0.8624842913385826
11
3.126531338582677
21
-0.8605640551181102
0
LINE
8
BLACK
6
CONTINUOUS
10
3.126531338582677
20
-0.8605640551181102
11
3.1299212598425195
21
-0.8598897637795275
0
LINE
8
BLACK
6
CONTINUOUS
10
3.1299212598425195
20
-0.8598897637795275
11
3.1476377952755903
21
-0.8598897637795275
0
LINE
8
BLACK
6
CONTINUOUS
10
3.1476377952755903
20
-0.8598897637795275
11
3.1510277165354328
21
-0.8605640551181102
0
LINE
8
BLACK
6
CONTINUOUS
10
3.2120513385826772
20
-0.8605640551181102
11
3.214925157480315
21
-0.8624842913385826
0
LINE
8
BLACK
6
CONTINUOUS
10
3.214925157480315
20
-0.8624842913385826
11
3.2168453937007873
21
-0.8653581102362204
0
LINE
8
BLACK
6
CONTINUOUS
10
3.2168453937007873
20
-0.8653581102362204
11
3.2175196850393699
21
-0.8687480314960629
0
LINE
8
BLACK
6
CONTINUOUS
10
3.2175196850393699
20
-0.8687480314960629
11
3.2175196850393699
21
-0.8884330708661418
0
LINE
8
BLACK
6
CONTINUOUS
10
3.2175196850393699
20
-0.8884330708661418
11
3.2168453937007873
21
-0.8918229921259843
0
LINE
8
BLACK
6
CONTINUOUS
10
3.2168453937007873
20
-0.8918229921259843
11
3.214925157480315
21
-0.894696811023622
0
LINE
8
BLACK
6
CONTINUOUS
10
3.214925157480315
20
-0.894696811023622
11
3.2120513385826772
21
-0.8966170472440945
0
LINE
8
BLACK
6
CONTINUOUS
10
3.2120513385826772
20
-0.8966170472440945
11
3.2086614173228347
21
-0.8972913385826772
0
LINE
8
BLACK
6
CONTINUOUS
10
3.2086614173228347
20
-0.8972913385826772
11
3.1909448818897639
21
-0.8972913385826772
0
LINE
8
BLACK
6
CONTINUOUS
10
3.1909448818897639
20
-0.8972913385826772
11
3.1875549606299214
21
-0.8966170472440945
0
LINE
8
BLACK
6
CONTINUOUS
10
3.1875549606299214
20
-0.8966170472440945
11
3.1846811417322836
21
-0.894696811023622
0
LINE
8
BLACK
6
CONTINUOUS
10
3.1846811417322836
20
-0.894696811023622
11
3.1827609055118109
21
-0.8918229921259843
0
LINE
8
BLACK
6
CONTINUOUS
10
3.1827609055118109
20
-0.8918229921259843
11
3.1820866141732282
21
-0.8884330708661418
0
LINE
8
BLACK
6
CONTINUOUS
10
3.1820866141732282
20
-0.8884330708661418
11
3.1820866141732282
21
-0.8687480314960629
0
LINE
8
BLACK
6
CONTINUOUS
10
3.1820866141732282
20
-0.8687480314960629
11
3.1827609055118109
21
-0.8653581102362204
0
LINE
8
BLACK
6
CONTINUOUS
10
3.1827609055118109
20
-0.8653581102362204
11
3.1846811417322836
21
-0.8624842913385826
0
LINE
8
BLACK
6
CONTINUOUS
10
3.1846811417322836
20
-0.8624842913385826
11
3.1875549606299214
21
-0.8605640551181102
0
LINE
8
BLACK
6
CONTINUOUS
10
3.1875549606299214
20
-0.8605640551181102
11
3.1909448818897639
21
-0.8598897637795275
0
LINE
8
BLACK
6
CONTINUOUS
10
3.1909448818897639
20
-0.8598897637795275
11
3.2086614173228347
21
-0.8598897637795275
0
LINE
8
BLACK
6
CONTINUOUS
10
3.2086614173228347
20
-0.8598897637795275
11
3.2120513385826772
21
-0.8605640551181102
0
LINE
8
BLACK
6
CONTINUOUS
10
0.9709266535433071
20
-0.8561958267716535
11
0.9734811417322834
21
-0.857902716535433
0
LINE
8
BLACK
6
CONTINUOUS
10
0.9734811417322834
20
-0.857902716535433
11
0.9751880314960629
21
-0.8604572047244095
0
LINE
8
BLACK
6
CONTINUOUS
10
0.9751880314960629
20
-0.8604572047244095
11
0.9757874015748031
21
-0.8634704724409449
0
LINE
8
BLACK
6
CONTINUOUS
10
0.9757874015748031
20
-0.8634704724409449
11
0.9757874015748031
21
-0.8792185039370078
0
LINE
8
BLACK
6
CONTINUOUS
10
0.9757874015748031
20
-0.8792185039370078
11
0.9751880314960629
21
-0.8822317716535433
0
LINE
8
BLACK
6
CONTINUOUS
10
0.9751880314960629
20
-0.8822317716535433
11
0.9734811417322834
21
-0.8847862598425197
0
LINE
8
BLACK
6
CONTINUOUS
10
0.9734811417322834
20
-0.8847862598425197
11
0.9709266535433071
21
-0.8864931496062992
0
LINE
8
BLACK
6
CONTINUOUS
10
0.9709266535433071
20
-0.8864931496062992
11
0.9679133858267717
21
-0.8870925196850393
0
LINE
8
BLACK
6
CONTINUOUS
10
0.9679133858267717
20
-0.8870925196850393
11
0.946259842519685
21
-0.8870925196850393
0
LINE
8
BLACK
6
CONTINUOUS
10
0.946259842519685
20
-0.8870925196850393
11
0.9432465748031496
21
-0.8864931496062992
0
LINE
8
BLACK
6
CONTINUOUS
10
0.9432465748031496
20
-0.8864931496062992
11
0.9406920866141733
21
-0.8847862598425197
0
LINE
8
BLACK
6
CONTINUOUS
10
0.9406920866141733
20
-0.8847862598425197
11
0.9389851968503937
21
-0.8822317716535433
0
LINE
8
BLACK
6
CONTINUOUS
10
0.9389851968503937
20
-0.8822317716535433
11
0.9383858267716535
21
-0.8792185039370078
0
LINE
8
BLACK
6
CONTINUOUS
10
0.9383858267716535
20
-0.8792185039370078
11
0.9383858267716535
21
-0.8634704724409449
0
LINE
8
BLACK
6
CONTINUOUS
10
0.9383858267716535
20
-0.8634704724409449
11
0.9389851968503937
21
-0.8604572047244095
0
LINE
8
BLACK
6
CONTINUOUS
10
0.9389851968503937
20
-0.8604572047244095
11
0.9406920866141733
21
-0.857902716535433
0
LINE
8
BLACK
6
CONTINUOUS
10
0.9406920866141733
20
-0.857902716535433
11
0.9432465748031496
21
-0.8561958267716535
0
LINE
8
BLACK
6
CONTINUOUS
10
0.9432465748031496
20
-0.8561958267716535
11
0.946259842519685
21
-0.8555964566929134
0
LINE
8
BLACK
6
CONTINUOUS
10
0.946259842519685
20
-0.8555964566929134
11
0.9679133858267717
21
-0.8555964566929134
0
LINE
8
BLACK
6
CONTINUOUS
10
0.9679133858267717
20
-0.8555964566929134
11
0.9709266535433071
21
-0.8561958267716535
  0
ENDSEC
  0
EOF
