  0
SECTION
  2
HEADER
  9
$ANGBASE
  50
0.0
  9
$ANGDIR
  70
1
  9
$MEASUREMENT
  70
0
  0
ENDSEC
  0
SECTION
  2
TABLES
  0
TABLE
  2
LTYPE
  70
4
  0
LTYPE
  5
40F
  2
CONTINUOUS
  70
0
  3
Solid line
  72
65
  73
0
  40
0.0
  0
LTYPE
  5
410
  2
DASHDOT
 70
0
  3
Dash Dot ____ _ ____ _
 72
65
 73
4
 40
2.0
 49
1.25
 49
-0.25
 49
0.25
 49
-0.25
  0
LTYPE
  5
411
  2
DASHED
 70
0
  3
Dashed __ __ __ __ __
 72
65
 73
2
 40
0.75
 49
0.5
 49
-0.25
  0
LTYPE
  5
43B
  2
DOTTED
 70
0
  3
Dotted .  .  .  .
 72
65
 73
2
 40
0.2
 49
0.0
 49
-0.2
  0
ENDTAB
  0
TABLE
  2
STYLE
  70
4
  0
STYLE
  2
KICAD
  70
0
  40
0
  41
1
  42
1
  50
0
  71
0
  3
isocp.shx
  0
STYLE
  2
KICADB
  70
0
  40
0
  41
1
  42
1
  50
0
  71
0
  3
isocp.shx
  0
STYLE
  2
KICADI
  70
0
  40
0
  41
1
  42
1
  50
15
  71
0
  3
isocp.shx
  0
STYLE
  2
KICADBI
  70
0
  40
0
  41
1
  42
1
  50
15
  71
0
  3
isocp.shx
  0
ENDTAB
  0
TABLE
  2
LAYER
  70
1
  0
LAYER
  2
BLACK
  70
0
  62
7
  6
CONTINUOUS
  0
ENDTAB
  0
ENDSEC
  0
SECTION
  2
ENTITIES
0
LINE
8
BLACK
6
CONTINUOUS
10
0.9235990551181102
20
-0.3617096456692913
11
0.9243375984251968
21
-0.3619337007874016
0
LINE
8
BLACK
6
CONTINUOUS
10
0.9243375984251968
20
-0.3619337007874016
11
1.0302644488188977
21
-0.4058100393700788
0
LINE
8
BLACK
6
CONTINUOUS
10
1.0302644488188977
20
-0.4058100393700788
11
1.030945
21
-0.4061738188976378
0
LINE
8
BLACK
6
CONTINUOUS
10
1.030945
20
-0.4061738188976378
11
1.0309450787401575
21
-0.4061738582677165
0
LINE
8
BLACK
6
CONTINUOUS
10
1.0309450787401575
20
-0.4061738582677165
11
1.0320312992125984
21
-0.4072600787401575
0
LINE
8
BLACK
6
CONTINUOUS
10
1.0320312992125984
20
-0.4072600787401575
11
1.0323951181102362
21
-0.407940748031496
0
LINE
8
BLACK
6
CONTINUOUS
10
1.0323951181102362
20
-0.407940748031496
11
1.0761353937007874
21
-0.5135391338582677
0
LINE
8
BLACK
6
CONTINUOUS
10
1.0761353937007874
20
-0.5135391338582677
11
1.1809944881889765
21
-0.6761499212598425
0
LINE
8
BLACK
6
CONTINUOUS
10
1.1809944881889765
20
-0.6761499212598425
11
2.8859346456692911
21
-0.6761499212598425
0
LINE
8
BLACK
6
CONTINUOUS
10
2.8859346456692911
20
-0.6761499212598425
11
2.9907937007874015
21
-0.5135391338582677
0
LINE
8
BLACK
6
CONTINUOUS
10
2.9907937007874015
20
-0.5135391338582677
11
3.0345340157480316
21
-0.4079407086614173
0
LINE
8
BLACK
6
CONTINUOUS
10
3.0345340157480316
20
-0.4079407086614173
11
3.0348978346456694
21
-0.4072600787401575
0
LINE
8
BLACK
6
CONTINUOUS
10
3.0348978346456694
20
-0.4072600787401575
11
3.0359840551181101
21
-0.4061738582677165
0
LINE
8
BLACK
6
CONTINUOUS
10
3.0359840551181101
20
-0.4061738582677165
11
3.0359841338582676
21
-0.4061738188976378
0
LINE
8
BLACK
6
CONTINUOUS
10
3.0359841338582676
20
-0.4061738188976378
11
3.0366647244094489
21
-0.4058100393700788
0
LINE
8
BLACK
6
CONTINUOUS
10
3.0366647244094489
20
-0.4058100393700788
11
3.1425915354330707
21
-0.3619337007874016
0
LINE
8
BLACK
6
CONTINUOUS
10
3.1425915354330707
20
-0.3619337007874016
11
3.1433300787401572
21
-0.3617096456692913
0
LINE
8
BLACK
6
CONTINUOUS
10
3.1433300787401572
20
-0.3617096456692913
11
3.1448662204724407
21
-0.3617096456692913
0
LINE
8
BLACK
6
CONTINUOUS
10
3.1448662204724407
20
-0.3617096456692913
11
3.1456047637795277
21
-0.3619337007874016
0
LINE
8
BLACK
6
CONTINUOUS
10
3.1456047637795277
20
-0.3619337007874016
11
3.2515316141732282
21
-0.4058100393700788
0
LINE
8
BLACK
6
CONTINUOUS
10
3.2515316141732282
20
-0.4058100393700788
11
3.2522121653543308
21
-0.4061738188976378
0
LINE
8
BLACK
6
CONTINUOUS
10
3.2522121653543308
20
-0.4061738188976378
11
3.2522122440944883
21
-0.4061738582677165
0
LINE
8
BLACK
6
CONTINUOUS
10
3.2522122440944883
20
-0.4061738582677165
11
3.2532984645669289
21
-0.4072600787401575
0
LINE
8
BLACK
6
CONTINUOUS
10
3.2532984645669289
20
-0.4072600787401575
11
3.2536622834645668
21
-0.407940748031496
0
LINE
8
BLACK
6
CONTINUOUS
10
3.2536622834645668
20
-0.407940748031496
11
3.2975386220472442
21
-0.5138675590551181
0
LINE
8
BLACK
6
CONTINUOUS
10
3.2975386220472442
20
-0.5138675590551181
11
3.2977626771653541
21
-0.5146061023622047
0
LINE
8
BLACK
6
CONTINUOUS
10
3.2977626771653541
20
-0.5146061023622047
11
3.297838307086614
21
-0.5153741732283464
0
LINE
8
BLACK
6
CONTINUOUS
10
3.297838307086614
20
-0.5153741732283464
11
3.297838307086614
21
-3.5406970078740159
0
LINE
8
BLACK
6
CONTINUOUS
10
3.297838307086614
20
-3.5406970078740159
11
3.2977626771653541
21
-3.5414650787401576
0
LINE
8
BLACK
6
CONTINUOUS
10
3.2977626771653541
20
-3.5414650787401576
11
3.2975386220472442
21
-3.5422036220472441
0
LINE
8
BLACK
6
CONTINUOUS
10
3.2975386220472442
20
-3.5422036220472441
11
3.2536622834645668
21
-3.6481304330708659
0
LINE
8
BLACK
6
CONTINUOUS
10
3.2536622834645668
20
-3.6481304330708659
11
3.2532984645669289
21
-3.6488111023622047
0
LINE
8
BLACK
6
CONTINUOUS
10
3.2532984645669289
20
-3.6488111023622047
11
3.2522122440944883
21
-3.6498973228346454
0
LINE
8
BLACK
6
CONTINUOUS
10
3.2522122440944883
20
-3.6498973228346454
11
3.2515316141732282
21
-3.6502611417322832
0
LINE
8
BLACK
6
CONTINUOUS
10
3.2515316141732282
20
-3.6502611417322832
11
3.1456047637795277
21
-3.6941374803149607
0
LINE
8
BLACK
6
CONTINUOUS
10
3.1456047637795277
20
-3.6941374803149607
11
3.1448662204724407
21
-3.694361535433071
0
LINE
8
BLACK
6
CONTINUOUS
10
3.1448662204724407
20
-3.694361535433071
11
3.1433300787401572
21
-3.694361535433071
0
LINE
8
BLACK
6
CONTINUOUS
10
3.1433300787401572
20
-3.694361535433071
11
3.1425915354330707
21
-3.6941374803149607
0
LINE
8
BLACK
6
CONTINUOUS
10
3.1425915354330707
20
-3.6941374803149607
11
3.0366647244094489
21
-3.6502611417322832
0
LINE
8
BLACK
6
CONTINUOUS
10
3.0366647244094489
20
-3.6502611417322832
11
3.0359840551181101
21
-3.6498973228346454
0
LINE
8
BLACK
6
CONTINUOUS
10
3.0359840551181101
20
-3.6498973228346454
11
3.0348978346456694
21
-3.6488111023622047
0
LINE
8
BLACK
6
CONTINUOUS
10
3.0348978346456694
20
-3.6488111023622047
11
3.0345340157480316
21
-3.6481304724409447
0
LINE
8
BLACK
6
CONTINUOUS
10
3.0345340157480316
20
-3.6481304724409447
11
2.9907937007874015
21
-3.5425320078740157
0
LINE
8
BLACK
6
CONTINUOUS
10
2.9907937007874015
20
-3.5425320078740157
11
2.8859346456692911
21
-3.3799212598425195
0
LINE
8
BLACK
6
CONTINUOUS
10
2.8859346456692911
20
-3.3799212598425195
11
1.1809944881889765
21
-3.3799212598425195
0
LINE
8
BLACK
6
CONTINUOUS
10
1.1809944881889765
20
-3.3799212598425195
11
1.0761353937007874
21
-3.5425320078740157
0
LINE
8
BLACK
6
CONTINUOUS
10
1.0761353937007874
20
-3.5425320078740157
11
1.0323951181102362
21
-3.6481304330708659
0
LINE
8
BLACK
6
CONTINUOUS
10
1.0323951181102362
20
-3.6481304330708659
11
1.0320312992125984
21
-3.6488111023622047
0
LINE
8
BLACK
6
CONTINUOUS
10
1.0320312992125984
20
-3.6488111023622047
11
1.0309450787401575
21
-3.6498973228346454
0
LINE
8
BLACK
6
CONTINUOUS
10
1.0309450787401575
20
-3.6498973228346454
11
1.0302644488188977
21
-3.6502611417322832
0
LINE
8
BLACK
6
CONTINUOUS
10
1.0302644488188977
20
-3.6502611417322832
11
0.9243375984251968
21
-3.6941374803149607
0
LINE
8
BLACK
6
CONTINUOUS
10
0.9243375984251968
20
-3.6941374803149607
11
0.9235990551181102
21
-3.694361535433071
0
LINE
8
BLACK
6
CONTINUOUS
10
0.9235990551181102
20
-3.694361535433071
11
0.9220629133858268
21
-3.694361535433071
0
LINE
8
BLACK
6
CONTINUOUS
10
0.9220629133858268
20
-3.694361535433071
11
0.9213243700787401
21
-3.6941374803149607
0
LINE
8
BLACK
6
CONTINUOUS
10
0.9213243700787401
20
-3.6941374803149607
11
0.8153975590551181
21
-3.6502611417322832
0
LINE
8
BLACK
6
CONTINUOUS
10
0.8153975590551181
20
-3.6502611417322832
11
0.8147168897637795
21
-3.6498973228346454
0
LINE
8
BLACK
6
CONTINUOUS
10
0.8147168897637795
20
-3.6498973228346454
11
0.8136306692913385
21
-3.6488111023622047
0
LINE
8
BLACK
6
CONTINUOUS
10
0.8136306692913385
20
-3.6488111023622047
11
0.8132668503937007
21
-3.6481304724409447
0
LINE
8
BLACK
6
CONTINUOUS
10
0.8132668503937007
20
-3.6481304724409447
11
0.7693905118110236
21
-3.5422036220472441
0
LINE
8
BLACK
6
CONTINUOUS
10
0.7693905118110236
20
-3.5422036220472441
11
0.7691664566929134
21
-3.5414650787401576
0
LINE
8
BLACK
6
CONTINUOUS
10
0.7691664566929134
20
-3.5414650787401576
11
0.7690908267716535
21
-3.5406970078740159
0
LINE
8
BLACK
6
CONTINUOUS
10
0.7690908267716535
20
-3.5406970078740159
11
0.7690908267716535
21
-0.5153741732283464
0
LINE
8
BLACK
6
CONTINUOUS
10
0.7690908267716535
20
-0.5153741732283464
11
0.7691664566929134
21
-0.5146061023622047
0
LINE
8
BLACK
6
CONTINUOUS
10
0.7691664566929134
20
-0.5146061023622047
11
0.7693905118110236
21
-0.5138675590551181
0
LINE
8
BLACK
6
CONTINUOUS
10
0.7693905118110236
20
-0.5138675590551181
11
0.8132668503937007
21
-0.4079407086614173
0
LINE
8
BLACK
6
CONTINUOUS
10
0.8132668503937007
20
-0.4079407086614173
11
0.8136306692913385
21
-0.4072600787401575
0
LINE
8
BLACK
6
CONTINUOUS
10
0.8136306692913385
20
-0.4072600787401575
11
0.8147168897637795
21
-0.4061738582677165
0
LINE
8
BLACK
6
CONTINUOUS
10
0.8147168897637795
20
-0.4061738582677165
11
0.814716968503937
21
-0.4061738188976378
0
LINE
8
BLACK
6
CONTINUOUS
10
0.814716968503937
20
-0.4061738188976378
11
0.8153975590551181
21
-0.4058100393700788
0
LINE
8
BLACK
6
CONTINUOUS
10
0.8153975590551181
20
-0.4058100393700788
11
0.9213243700787401
21
-0.3619337007874016
0
LINE
8
BLACK
6
CONTINUOUS
10
0.9213243700787401
20
-0.3619337007874016
11
0.9220629133858268
21
-0.3617096456692913
0
LINE
8
BLACK
6
CONTINUOUS
10
0.9220629133858268
20
-0.3617096456692913
11
0.9235990551181102
21
-0.3617096456692913
0
LINE
8
BLACK
6
CONTINUOUS
10
3.0411845669291337
20
-0.4124605905511811
11
2.9979323228346457
21
-0.5168807874015748
0
LINE
8
BLACK
6
CONTINUOUS
10
2.9979323228346457
20
-0.5168807874015748
11
2.9977658661417323
21
-0.5171921653543307
0
LINE
8
BLACK
6
CONTINUOUS
10
2.9977658661417323
20
-0.5171921653543307
11
2.9976037401574804
21
-0.5175077952755905
0
LINE
8
BLACK
6
CONTINUOUS
10
2.9976037401574804
20
-0.5175077952755905
11
2.8913892125984253
21
-0.6822205511811024
0
LINE
8
BLACK
6
CONTINUOUS
10
2.8913892125984253
20
-0.6822205511811024
11
2.8913619685039369
21
-0.6822548031496063
0
LINE
8
BLACK
6
CONTINUOUS
10
2.8913619685039369
20
-0.6822548031496063
11
2.8913539763779528
21
-0.6822742125984251
0
LINE
8
BLACK
6
CONTINUOUS
10
2.8913539763779528
20
-0.6822742125984251
11
2.891318307086614
21
-0.6823098425196851
0
LINE
8
BLACK
6
CONTINUOUS
10
2.891318307086614
20
-0.6823098425196851
11
2.890909409448819
21
-0.6828250787401574
0
LINE
8
BLACK
6
CONTINUOUS
10
2.890909409448819
20
-0.6828250787401574
11
2.8905642519685038
21
-0.6830638976377953
0
LINE
8
BLACK
6
CONTINUOUS
10
2.8905642519685038
20
-0.6830638976377953
11
2.8902677559055117
21
-0.6833604330708661
0
LINE
8
BLACK
6
CONTINUOUS
10
2.8902677559055117
20
-0.6833604330708661
11
2.8899389763779526
21
-0.6834966141732284
0
LINE
8
BLACK
6
CONTINUOUS
10
2.8899389763779526
20
-0.6834966141732284
11
2.8896462204724407
21
-0.6836992125984251
0
LINE
8
BLACK
6
CONTINUOUS
10
2.8896462204724407
20
-0.6836992125984251
11
2.8892361023622048
21
-0.683787716535433
0
LINE
8
BLACK
6
CONTINUOUS
10
2.8892361023622048
20
-0.683787716535433
11
2.8888485433070867
21
-0.6839483070866141
0
LINE
8
BLACK
6
CONTINUOUS
10
2.8888485433070867
20
-0.6839483070866141
11
2.88819405511811
21
-0.6840127165354331
0
LINE
8
BLACK
6
CONTINUOUS
10
2.88819405511811
20
-0.6840127165354331
11
2.8881446456692914
21
-0.6840234251968503
0
LINE
8
BLACK
6
CONTINUOUS
10
2.8881446456692914
20
-0.6840234251968503
11
2.8881239370078737
21
-0.6840196456692913
0
LINE
8
BLACK
6
CONTINUOUS
10
2.8881239370078737
20
-0.6840196456692913
11
2.888080472440945
21
-0.684023937007874
0
LINE
8
BLACK
6
CONTINUOUS
10
2.888080472440945
20
-0.684023937007874
11
1.1788486614173228
21
-0.684023937007874
0
LINE
8
BLACK
6
CONTINUOUS
10
1.1788486614173228
20
-0.684023937007874
11
1.1788051574803149
21
-0.6840196456692913
0
LINE
8
BLACK
6
CONTINUOUS
10
1.1788051574803149
20
-0.6840196456692913
11
1.1787844881889764
21
-0.6840234251968503
0
LINE
8
BLACK
6
CONTINUOUS
10
1.1787844881889764
20
-0.6840234251968503
11
1.1787350393700786
21
-0.6840127165354331
0
LINE
8
BLACK
6
CONTINUOUS
10
1.1787350393700786
20
-0.6840127165354331
11
1.1780805905511811
21
-0.6839483070866141
0
LINE
8
BLACK
6
CONTINUOUS
10
1.1780805905511811
20
-0.6839483070866141
11
1.1776929921259842
21
-0.683787716535433
0
LINE
8
BLACK
6
CONTINUOUS
10
1.1776929921259842
20
-0.683787716535433
11
1.1772829133858267
21
-0.6836992125984251
0
LINE
8
BLACK
6
CONTINUOUS
10
1.1772829133858267
20
-0.6836992125984251
11
1.1769901181102362
21
-0.6834966141732284
0
LINE
8
BLACK
6
CONTINUOUS
10
1.1769901181102362
20
-0.6834966141732284
11
1.1766613779527559
21
-0.6833604330708661
0
LINE
8
BLACK
6
CONTINUOUS
10
1.1766613779527559
20
-0.6833604330708661
11
1.1763648425196851
21
-0.6830638976377953
0
LINE
8
BLACK
6
CONTINUOUS
10
1.1763648425196851
20
-0.6830638976377953
11
1.1760197244094488
21
-0.6828250787401574
0
LINE
8
BLACK
6
CONTINUOUS
10
1.1760197244094488
20
-0.6828250787401574
11
1.1756107874015749
21
-0.6823098425196851
0
LINE
8
BLACK
6
CONTINUOUS
10
1.1756107874015749
20
-0.6823098425196851
11
1.1755751574803148
21
-0.6822742125984251
0
LINE
8
BLACK
6
CONTINUOUS
10
1.1755751574803148
20
-0.6822742125984251
11
1.1755671259842519
21
-0.6822548031496063
0
LINE
8
BLACK
6
CONTINUOUS
10
1.1755671259842519
20
-0.6822548031496063
11
1.1755399212598425
21
-0.6822205511811024
0
LINE
8
BLACK
6
CONTINUOUS
10
1.1755399212598425
20
-0.6822205511811024
11
1.0693253937007874
21
-0.5175077952755905
0
LINE
8
BLACK
6
CONTINUOUS
10
1.0693253937007874
20
-0.5175077952755905
11
1.0691635039370078
21
-0.5171927165354331
0
LINE
8
BLACK
6
CONTINUOUS
10
1.0691635039370078
20
-0.5171927165354331
11
1.0689968110236221
21
-0.5168808267716535
0
LINE
8
BLACK
6
CONTINUOUS
10
1.0689968110236221
20
-0.5168808267716535
11
1.0257445275590551
21
-0.4124605905511811
0
LINE
8
BLACK
6
CONTINUOUS
10
1.0257445275590551
20
-0.4124605905511811
11
0.9228309842519685
21
-0.3698324015748031
0
LINE
8
BLACK
6
CONTINUOUS
10
0.9228309842519685
20
-0.3698324015748031
11
0.8199174015748031
21
-0.4124605905511811
0
LINE
8
BLACK
6
CONTINUOUS
10
0.8199174015748031
20
-0.4124605905511811
11
0.776964842519685
21
-0.5161572834645669
0
LINE
8
BLACK
6
CONTINUOUS
10
0.776964842519685
20
-0.5161572834645669
11
0.776964842519685
21
-3.5399138582677163
0
LINE
8
BLACK
6
CONTINUOUS
10
0.776964842519685
20
-3.5399138582677163
11
0.8199174015748031
21
-3.6436105511811023
0
LINE
8
BLACK
6
CONTINUOUS
10
0.8199174015748031
20
-3.6436105511811023
11
0.9228309842519685
21
-3.6862387401574801
0
LINE
8
BLACK
6
CONTINUOUS
10
0.9228309842519685
20
-3.6862387401574801
11
1.0257445275590551
21
-3.6436105511811023
0
LINE
8
BLACK
6
CONTINUOUS
10
1.0257445275590551
20
-3.6436105511811023
11
1.0689968110236221
21
-3.5391903543307084
0
LINE
8
BLACK
6
CONTINUOUS
10
1.0689968110236221
20
-3.5391903543307084
11
1.0691635039370078
21
-3.5388784251968501
0
LINE
8
BLACK
6
CONTINUOUS
10
1.0691635039370078
20
-3.5388784251968501
11
1.0693253937007874
21
-3.5385633858267718
0
LINE
8
BLACK
6
CONTINUOUS
10
1.0693253937007874
20
-3.5385633858267718
11
1.1755399212598425
21
-3.3738506299212596
0
LINE
8
BLACK
6
CONTINUOUS
10
1.1755399212598425
20
-3.3738506299212596
11
1.1755671259842519
21
-3.3738163385826772
0
LINE
8
BLACK
6
CONTINUOUS
10
1.1755671259842519
20
-3.3738163385826772
11
1.1755751574803148
21
-3.3737969685039371
0
LINE
8
BLACK
6
CONTINUOUS
10
1.1755751574803148
20
-3.3737969685039371
11
1.1756107874015749
21
-3.3737612992125983
0
LINE
8
BLACK
6
CONTINUOUS
10
1.1756107874015749
20
-3.3737612992125983
11
1.1760197244094488
21
-3.3732461023622045
0
LINE
8
BLACK
6
CONTINUOUS
10
1.1760197244094488
20
-3.3732461023622045
11
1.1763648425196851
21
-3.373007244094488
0
LINE
8
BLACK
6
CONTINUOUS
10
1.1763648425196851
20
-3.373007244094488
11
1.1766613779527559
21
-3.372710748031496
0
LINE
8
BLACK
6
CONTINUOUS
10
1.1766613779527559
20
-3.372710748031496
11
1.1769901181102362
21
-3.3725745275590548
0
LINE
8
BLACK
6
CONTINUOUS
10
1.1769901181102362
20
-3.3725745275590548
11
1.1772829133858267
21
-3.3723719685039368
0
LINE
8
BLACK
6
CONTINUOUS
10
1.1772829133858267
20
-3.3723719685039368
11
1.1776929921259842
21
-3.3722834251968505
0
LINE
8
BLACK
6
CONTINUOUS
10
1.1776929921259842
20
-3.3722834251968505
11
1.1780805905511811
21
-3.3721228740157478
0
LINE
8
BLACK
6
CONTINUOUS
10
1.1780805905511811
20
-3.3721228740157478
11
1.1787350393700786
21
-3.3720584251968502
0
LINE
8
BLACK
6
CONTINUOUS
10
1.1787350393700786
20
-3.3720584251968502
11
1.1787844881889764
21
-3.3720477559055118
0
LINE
8
BLACK
6
CONTINUOUS
10
1.1787844881889764
20
-3.3720477559055118
11
1.1788051574803149
21
-3.3720514960629919
0
LINE
8
BLACK
6
CONTINUOUS
10
1.1788051574803149
20
-3.3720514960629919
11
1.1788486614173228
21
-3.372047244094488
0
LINE
8
BLACK
6
CONTINUOUS
10
1.1788486614173228
20
-3.372047244094488
11
2.888080472440945
21
-3.372047244094488
0
LINE
8
BLACK
6
CONTINUOUS
10
2.888080472440945
20
-3.372047244094488
11
2.8881239370078737
21
-3.3720514960629919
0
LINE
8
BLACK
6
CONTINUOUS
10
2.8881239370078737
20
-3.3720514960629919
11
2.8881446456692914
21
-3.3720477559055118
0
LINE
8
BLACK
6
CONTINUOUS
10
2.8881446456692914
20
-3.3720477559055118
11
2.88819405511811
21
-3.3720584251968502
0
LINE
8
BLACK
6
CONTINUOUS
10
2.88819405511811
20
-3.3720584251968502
11
2.8888485433070867
21
-3.3721228740157478
0
LINE
8
BLACK
6
CONTINUOUS
10
2.8888485433070867
20
-3.3721228740157478
11
2.8892361023622048
21
-3.3722834251968505
0
LINE
8
BLACK
6
CONTINUOUS
10
2.8892361023622048
20
-3.3722834251968505
11
2.8896462204724407
21
-3.3723719685039368
0
LINE
8
BLACK
6
CONTINUOUS
10
2.8896462204724407
20
-3.3723719685039368
11
2.8899389763779526
21
-3.3725745275590548
0
LINE
8
BLACK
6
CONTINUOUS
10
2.8899389763779526
20
-3.3725745275590548
11
2.8902677559055117
21
-3.372710748031496
0
LINE
8
BLACK
6
CONTINUOUS
10
2.8902677559055117
20
-3.372710748031496
11
2.8905642519685038
21
-3.373007244094488
0
LINE
8
BLACK
6
CONTINUOUS
10
2.8905642519685038
20
-3.373007244094488
11
2.890909409448819
21
-3.3732461023622045
0
LINE
8
BLACK
6
CONTINUOUS
10
2.890909409448819
20
-3.3732461023622045
11
2.891318307086614
21
-3.3737612992125983
0
LINE
8
BLACK
6
CONTINUOUS
10
2.891318307086614
20
-3.3737612992125983
11
2.8913539763779528
21
-3.3737969685039371
0
LINE
8
BLACK
6
CONTINUOUS
10
2.8913539763779528
20
-3.3737969685039371
11
2.8913619685039369
21
-3.3738163385826772
0
LINE
8
BLACK
6
CONTINUOUS
10
2.8913619685039369
20
-3.3738163385826772
11
2.8913892125984253
21
-3.3738506299212596
0
LINE
8
BLACK
6
CONTINUOUS
10
2.8913892125984253
20
-3.3738506299212596
11
2.9976037401574804
21
-3.5385633858267718
0
LINE
8
BLACK
6
CONTINUOUS
10
2.9976037401574804
20
-3.5385633858267718
11
2.9977658661417323
21
-3.5388789763779527
0
LINE
8
BLACK
6
CONTINUOUS
10
2.9977658661417323
20
-3.5388789763779527
11
2.9979323228346457
21
-3.5391903937007871
0
LINE
8
BLACK
6
CONTINUOUS
10
2.9979323228346457
20
-3.5391903937007871
11
3.0411845669291337
21
-3.6436105511811023
0
LINE
8
BLACK
6
CONTINUOUS
10
3.0411845669291337
20
-3.6436105511811023
11
3.144098149606299
21
-3.6862387401574801
0
LINE
8
BLACK
6
CONTINUOUS
10
3.144098149606299
20
-3.6862387401574801
11
3.2470116929133859
21
-3.6436105511811023
0
LINE
8
BLACK
6
CONTINUOUS
10
3.2470116929133859
20
-3.6436105511811023
11
3.2899642913385825
21
-3.5399138188976376
0
LINE
8
BLACK
6
CONTINUOUS
10
3.2899642913385825
20
-3.5399138188976376
11
3.2899642913385825
21
-0.5161573228346457
0
LINE
8
BLACK
6
CONTINUOUS
10
3.2899642913385825
20
-0.5161573228346457
11
3.2470116929133859
21
-0.4124605905511811
0
LINE
8
BLACK
6
CONTINUOUS
10
3.2470116929133859
20
-0.4124605905511811
11
3.144098149606299
21
-0.3698324015748031
0
LINE
8
BLACK
6
CONTINUOUS
10
3.144098149606299
20
-0.3698324015748031
11
3.0411845669291337
21
-0.4124605905511811
  0
ENDSEC
  0
EOF
